<svg id="SB39_Interactive_Icon_06_F1" xmlns="http://www.w3.org/2000/svg" xmlns:xlink="http://www.w3.org/1999/xlink" viewBox="0 0 718 661"><defs><style>.cls-1,.cls-11{fill:none;}.cls-2{fill:url(#linear-gradient);}.cls-3,.cls-5{fill:#31d0e5;}.cls-11,.cls-3{stroke-miterlimit:10;}.cls-3{stroke-width:6px;stroke:url(#linear-gradient-2);}.cls-4{clip-path:url(#clip-path);}.cls-6{opacity:0.14;}.cls-7{opacity:0.3;}.cls-8{fill:#fff;}.cls-9{opacity:0.45;}.cls-10{fill:#77c9b0;}.cls-11{stroke:#262211;stroke-width:0.75px;}.cls-12{fill:#ffd23f;}.cls-13{opacity:0.1;}.cls-14{fill:#e53963;}.cls-15{fill:#9e4ac6;}</style><linearGradient id="linear-gradient" x1="104.06" y1="155.82" x2="602.27" y2="497.19" gradientUnits="userSpaceOnUse"><stop offset="0" stop-color="#9b81cf"/><stop offset="1" stop-color="#3b139b"/></linearGradient><linearGradient id="linear-gradient-2" x1="66.74" y1="330.5" x2="651.26" y2="330.5" gradientUnits="userSpaceOnUse"><stop offset="0" stop-color="#4c1da9"/><stop offset="1" stop-color="#997ece"/></linearGradient><clipPath id="clip-path"><ellipse class="cls-1" cx="359" cy="330.5" rx="287" ry="286.7"/></clipPath></defs><g id="Layer_1" data-name="Layer 1"><circle class="cls-2" cx="359" cy="330.5" r="301.9"/><circle class="cls-3" cx="359" cy="330.5" r="289.3"/><ellipse class="cls-1" cx="359" cy="330.5" rx="291.7" ry="291.3"/><g class="cls-4"><path class="cls-5" d="M683.3,292.8c0,153.7-145.2,278.4-324.4,278.4S18.7,460,18.7,306.2,179.8,14.4,358.9,14.4,683.3,139,683.3,292.8Z"/><ellipse class="cls-6" cx="293.6" cy="632.3" rx="57.4" ry="13.4" transform="matrix(1, -0.09, 0.09, 1, -53.62, 27.78)"/><ellipse class="cls-6" cx="538" cy="639.9" rx="57.4" ry="13.6" transform="translate(-95 93.8) rotate(-9.2)"/><ellipse class="cls-6" cx="207.4" cy="602.5" rx="34.7" ry="9.2" transform="matrix(0.99, -0.13, 0.13, 0.99, -74.02, 30.81)"/><g class="cls-7"><path class="cls-8" d="M149.6,190s7.4-34.7,45.9-8.7-36.4,28.8-70.4,22.5S149.6,190,149.6,190Z"/><path class="cls-8" d="M223.3,160c32.2,16.3,3.1,23.4-23.8,21.8S191.1,143.8,223.3,160Z"/><path class="cls-8" d="M568.9,333.2s7.5-34.6,46-8.7-36.4,28.8-70.5,22.5S568.9,333.2,568.9,333.2Z"/><path class="cls-8" d="M642.6,303.3c32.2,16.2,3.1,23.3-23.8,21.8S610.4,287,642.6,303.3Z"/></g><g class="cls-9"><path class="cls-10" d="M119.3,483.9s14.4-8.7,21.9,1.8,2.8,7.2-11.9,6S114,486.2,119.3,483.9Z"/><path class="cls-10" d="M125.6,504.5s4.8-8,3.7-12.8,1.2-2.1,1.2-2.1l.5,4.8,5.1-1.9s-5.6,2.2-4.6,6.2a14.6,14.6,0,0,0,2.6,5.8Z"/></g><g id="_004" data-name="004"><path class="cls-11" d="M493.1,237.9s3.3,44.4-32.6,110.6c-24.5,45.3-72.9,193.7,51.4,283.7"/><path class="cls-11" d="M600.7,165.9s10,48.5-32.5,110.7-140.3,195.8-46.3,349"/><path class="cls-11" d="M511.9,632.2C452.7,616,312.5,384.7,325.1,326.9"/><path class="cls-12" d="M403.1,199.9c-2.7-15.6-9-29.3-19.5-40.9s-25.7-21.7-43.3-24.2c-15.1-2.1-29.1.2-42.4,7.4A94.7,94.7,0,0,0,285,151a77.8,77.8,0,0,0-23.4,32.6c-6.7,17.5-7,35.5-3.5,53.5,4.2,20.9,13,39.6,27.2,55.4A63.1,63.1,0,0,0,319.1,312c2.8.6,2.9,1.2,1.4,3.4s-4,6.7-6.1,10.2l10.7,1.3h1.8c1.6-.1,3.3-.5,4.9.4a2.3,2.3,0,0,0,2.9-.1c.8-.9-.1-1.9-.4-2.9-1.4-3.4-2.6-6.9-3.9-10.4,4.1-1.6,8.6-.9,12.9-2.2,17.4-5.2,31-15.4,40.6-30.8C399.4,256.2,408,229.7,403.1,199.9Zm-100.6,82"/><path class="cls-13" d="M330.4,313.9c-1.4-2.1,1-2.3,1.7-2.8,18.6-11.9,28.8-30,36.5-50a98.6,98.6,0,0,0,7.1-39.4c-.9-21.3-7.7-40.2-22.9-55.7-11.4-11.6-24.5-19.4-40.4-22.4-3.3-.6-6.6-.1-9.9-.4-1.6-.1-3.4.6-4.6-1,13.3-7.2,27.3-9.5,42.4-7.4,17.6,2.5,31.7,11.3,43.3,24.2s16.8,25.3,19.5,40.9c4.9,29.8-3.7,56.3-19.2,81-9.6,15.4-23.2,25.6-40.6,30.8C339,313,334.5,312.3,330.4,313.9Z"/><path class="cls-8" d="M302.5,281.9c-4.3-2.1-7.5-5.6-10.4-9.2A88.4,88.4,0,0,1,273,231.9c-3-16.3-.5-32,5-47.4.8-2.1,2-2,3.9-1.5s2.1,1.7,1.6,3.5a90.9,90.9,0,0,0-3.4,26.3c.2,14,2.3,27.9,7.5,41A148.5,148.5,0,0,0,302.5,281.9Z"/><path class="cls-8" d="M282.6,173.2c-.2-2.7,1.1-3.5,3.5-3.5s3.7,1.6,3.6,3.9a3.4,3.4,0,0,1-4,3.3C283.6,176.7,282.1,175.6,282.6,173.2Z"/><path class="cls-14" d="M679.1,39.1c-2.6-15.6-8.9-29.3-19.4-40.8S634-23.5,616.4-25.9a66.7,66.7,0,0,0-42.5,7.3,100.3,100.3,0,0,0-12.8,8.8,77.2,77.2,0,0,0-23.4,32.7c-6.8,17.4-7.1,35.4-3.5,53.5,4.1,20.8,13,39.5,27.2,55.3a62.5,62.5,0,0,0,33.7,19.5c2.9.6,2.9,1.2,1.5,3.4s-4.1,6.7-6.2,10.2l10.7,1.3H603c1.6-.1,3.2-.5,4.8.5a2.6,2.6,0,0,0,3-.2c.8-.9-.1-1.9-.5-2.8-1.4-3.5-2.6-7-3.9-10.5,4.2-1.6,8.7-.9,13-2.2,17.3-5.2,31-15.4,40.6-30.8C675.5,95.4,684.1,68.9,679.1,39.1Z"/><path class="cls-13" d="M606.4,153.1c-1.4-2.1,1-2.3,1.8-2.7,18.6-11.9,28.8-30.1,36.5-50,4.8-12.7,7.6-25.9,7-39.5-.8-21.2-7.6-40.1-22.8-55.7-11.4-11.6-24.5-19.3-40.4-22.3-3.3-.7-6.6-.2-9.9-.5-1.6-.1-3.4.6-4.7-1a66.7,66.7,0,0,1,42.5-7.3C634-23.5,648-14.7,659.7-1.7s16.8,25.2,19.4,40.8c5,29.8-3.6,56.3-19.1,81-9.6,15.4-23.3,25.6-40.6,30.8C615.1,152.2,610.6,151.5,606.4,153.1Z"/><path class="cls-8" d="M578.5,121.1c-4.2-2.1-7.4-5.6-10.4-9.2a87.9,87.9,0,0,1-19-40.7c-3-16.4-.6-32.1,5-47.5.8-2,2-2,3.9-1.5s2.1,1.7,1.6,3.6A93.5,93.5,0,0,0,556.1,52c.3,14,2.3,27.9,7.5,41A154.5,154.5,0,0,0,578.5,121.1Z"/><path class="cls-8" d="M558.6,12.4c-.2-2.7,1.2-3.4,3.6-3.5s3.7,1.7,3.5,3.9a3.3,3.3,0,0,1-3.9,3.4C559.7,15.9,558.2,14.8,558.6,12.4Z"/><path class="cls-15" d="M572.6,111.2c-2.6-15.6-8.9-29.3-19.4-40.9s-25.7-21.7-43.3-24.1c-15.1-2.2-29.1.1-42.4,7.3a94.7,94.7,0,0,0-12.9,8.8A77.2,77.2,0,0,0,431.2,95c-6.8,17.4-7,35.4-3.5,53.5,4.1,20.8,13,39.5,27.2,55.3a63.1,63.1,0,0,0,33.8,19.5c2.8.6,2.9,1.2,1.4,3.4s-4,6.7-6.2,10.2l10.8,1.3h1.8c1.6-.1,3.3-.5,4.8.5a2.5,2.5,0,0,0,3-.2c.8-.9-.1-1.9-.5-2.8-1.3-3.5-2.6-7-3.8-10.5,4.1-1.6,8.6-.9,12.9-2.2,17.3-5.2,31-15.4,40.6-30.8C569,167.5,577.6,141,572.6,111.2ZM472,193.2"/><path class="cls-13" d="M500,225.2c-1.5-2.1,1-2.3,1.7-2.7,18.6-11.9,28.8-30.1,36.5-50,4.9-12.7,7.6-25.9,7.1-39.5-.9-21.2-7.7-40.1-22.9-55.7C511,65.7,497.9,58,482,55c-3.3-.7-6.6-.2-9.9-.5-1.6-.1-3.4.6-4.6-1,13.3-7.2,27.3-9.5,42.4-7.3,17.6,2.4,31.7,11.2,43.3,24.1s16.8,25.3,19.4,40.9c5,29.8-3.6,56.3-19.1,81-9.6,15.4-23.3,25.6-40.6,30.8C508.6,224.3,504.1,223.6,500,225.2Z"/><path class="cls-8" d="M472,193.2c-4.2-2.1-7.4-5.6-10.4-9.2a88.9,88.9,0,0,1-19-40.7c-3-16.4-.6-32.1,5-47.5.8-2.1,2-2,3.9-1.5s2.1,1.7,1.6,3.6a93.5,93.5,0,0,0-3.5,26.2c.3,14,2.3,27.9,7.6,41A154,154,0,0,0,472,193.2Z"/><path class="cls-8" d="M452.1,84.5c-.1-2.7,1.2-3.4,3.6-3.5s3.7,1.7,3.6,3.9a3.4,3.4,0,0,1-4,3.4C453.2,88,451.7,86.9,452.1,84.5Z"/></g></g></g></svg>