<svg id="SB39_Interactive_Icon_06_F1" xmlns="http://www.w3.org/2000/svg" xmlns:xlink="http://www.w3.org/1999/xlink" viewBox="0 0 718 661"><defs><style>.cls-1,.cls-11{fill:none;}.cls-2{fill:url(#linear-gradient);}.cls-3,.cls-5{fill:#31d0e5;}.cls-11,.cls-3{stroke-miterlimit:10;}.cls-3{stroke-width:6px;stroke:url(#linear-gradient-2);}.cls-4{clip-path:url(#clip-path);}.cls-6{opacity:0.14;}.cls-7{opacity:0.3;}.cls-8{fill:#fff;}.cls-9{opacity:0.45;}.cls-10{fill:#77c9b0;}.cls-11{stroke:#262211;stroke-width:0.75px;}.cls-12{fill:#ffd23f;}.cls-13{opacity:0.1;}.cls-14{fill:#e53963;}.cls-15{fill:#9e4ac6;}</style><linearGradient id="linear-gradient" x1="104.06" y1="155.82" x2="602.27" y2="497.19" gradientUnits="userSpaceOnUse"><stop offset="0" stop-color="#9b81cf"/><stop offset="1" stop-color="#3b139b"/></linearGradient><linearGradient id="linear-gradient-2" x1="66.74" y1="330.5" x2="651.26" y2="330.5" gradientUnits="userSpaceOnUse"><stop offset="0" stop-color="#4c1da9"/><stop offset="1" stop-color="#997ece"/></linearGradient><clipPath id="clip-path"><ellipse class="cls-1" cx="359" cy="330.5" rx="287" ry="286.7"/></clipPath></defs><g id="Layer_1" data-name="Layer 1"><circle class="cls-2" cx="359" cy="330.5" r="301.9"/><circle class="cls-3" cx="359" cy="330.5" r="289.3"/><ellipse class="cls-1" cx="359" cy="330.5" rx="291.7" ry="291.3"/><g class="cls-4"><path class="cls-5" d="M683.3,292.8c0,153.7-145.2,278.4-324.4,278.4S18.7,460,18.7,306.2,179.8,14.4,358.9,14.4,683.3,139,683.3,292.8Z"/><ellipse class="cls-6" cx="293.6" cy="632.3" rx="57.4" ry="13.4" transform="matrix(1, -0.09, 0.09, 1, -53.62, 27.78)"/><ellipse class="cls-6" cx="538" cy="639.9" rx="57.4" ry="13.6" transform="translate(-95 93.8) rotate(-9.2)"/><ellipse class="cls-6" cx="207.4" cy="602.5" rx="34.7" ry="9.2" transform="matrix(0.99, -0.13, 0.13, 0.99, -74.02, 30.81)"/><g class="cls-7"><path class="cls-8" d="M149.6,190s7.4-34.7,45.9-8.7-36.4,28.8-70.4,22.5S149.6,190,149.6,190Z"/><path class="cls-8" d="M223.3,160c32.2,16.3,3.1,23.4-23.8,21.8S191.1,143.8,223.3,160Z"/><path class="cls-8" d="M568.9,333.2s7.5-34.6,46-8.7-36.4,28.8-70.5,22.5S568.9,333.2,568.9,333.2Z"/><path class="cls-8" d="M642.6,303.3c32.2,16.2,3.1,23.3-23.8,21.8S610.4,287,642.6,303.3Z"/></g><g class="cls-9"><path class="cls-10" d="M119.3,483.9s14.4-8.7,21.9,1.8,2.8,7.2-11.9,6S114,486.2,119.3,483.9Z"/><path class="cls-10" d="M125.6,504.5s4.8-8,3.7-12.8,1.2-2.1,1.2-2.1l.5,4.8,5.1-1.9s-5.6,2.2-4.6,6.2a14.6,14.6,0,0,0,2.6,5.8Z"/></g><g id="_005" data-name="005"><path class="cls-11" d="M551.5,194.9s12.1,45.3-39.8,99.9C417.6,394,509.5,563.6,560,592.7"/><path class="cls-11" d="M659.1,122.9s10,48.5-32.5,110.6-177.4,200-58,348.7"/><path class="cls-11" d="M550.6,602.9C391,451.5,370.9,341.7,383.5,283.8"/><path class="cls-12" d="M461.5,156.8c-2.7-15.6-9-29.2-19.5-40.8s-25.7-21.7-43.3-24.2c-15.1-2.1-29.1.2-42.4,7.4a74.6,74.6,0,0,0-12.8,8.8A76.5,76.5,0,0,0,320,140.6c-6.7,17.4-7,35.4-3.5,53.5,4.2,20.8,13.1,39.5,27.3,55.3A62,62,0,0,0,377.5,269c2.8.6,2.9,1.2,1.4,3.3s-4,6.7-6.1,10.3l10.7,1.2h1.8c1.7-.1,3.3-.4,4.9.5s2.2.7,2.9-.2,0-1.8-.4-2.8c-1.4-3.4-2.6-7-3.9-10.4,4.1-1.7,8.6-1,12.9-2.2,17.4-5.3,31-15.5,40.6-30.8C457.9,213.1,466.4,186.7,461.5,156.8ZM360.9,238.9"/><path class="cls-13" d="M388.8,270.9c-1.4-2.2,1-2.3,1.7-2.8,18.6-11.9,28.8-30.1,36.5-50,4.9-12.7,7.7-25.9,7.1-39.5-.9-21.2-7.7-40.1-22.9-55.6-11.4-11.7-24.5-19.4-40.4-22.4-3.3-.6-6.6-.2-9.9-.4-1.6-.1-3.4.6-4.6-1,13.3-7.2,27.3-9.5,42.4-7.4,17.6,2.5,31.7,11.3,43.3,24.2s16.8,25.2,19.5,40.8c4.9,29.9-3.6,56.3-19.2,81.1-9.6,15.3-23.2,25.5-40.6,30.8C397.4,269.9,392.9,269.2,388.8,270.9Z"/><path class="cls-8" d="M360.9,238.9c-4.3-2.2-7.5-5.7-10.4-9.3a87.6,87.6,0,0,1-19.1-40.7c-3-16.4-.5-32,5-47.4.8-2.1,2-2.1,3.9-1.5s2.1,1.7,1.6,3.5a90.5,90.5,0,0,0-3.4,26.3c.2,13.9,2.3,27.8,7.5,41A154.9,154.9,0,0,0,360.9,238.9Z"/><path class="cls-8" d="M341,130.1c-.2-2.6,1.1-3.4,3.5-3.5s3.7,1.7,3.6,4a3.3,3.3,0,0,1-3.9,3.3C342,133.7,340.5,132.6,341,130.1Z"/><path class="cls-14" d="M737.5-4a78.5,78.5,0,0,0-19.4-40.8C706.4-57.7,692.4-66.5,674.8-69a67.4,67.4,0,0,0-42.5,7.4,91,91,0,0,0-12.8,8.8,76.9,76.9,0,0,0-23.4,32.6c-6.8,17.5-7.1,35.5-3.5,53.5,4.1,20.9,13,39.6,27.2,55.3a62.7,62.7,0,0,0,33.7,19.6c2.9.6,2.9,1.2,1.5,3.4s-4,6.7-6.2,10.2l10.7,1.2h1.9c1.6,0,3.2-.4,4.8.5a2.4,2.4,0,0,0,3-.1c.8-.9-.1-1.9-.5-2.9-1.4-3.4-2.6-6.9-3.9-10.4,4.2-1.7,8.7-.9,13-2.2a70.5,70.5,0,0,0,40.6-30.8C733.9,52.3,742.5,25.9,737.5-4Z"/><path class="cls-13" d="M664.8,110.1c-1.4-2.2,1-2.3,1.8-2.8,18.6-11.9,28.8-30,36.5-50a98.8,98.8,0,0,0,7.1-39.5c-.9-21.2-7.7-40.1-22.9-55.6-11.4-11.6-24.5-19.4-40.4-22.4-3.3-.6-6.6-.1-9.9-.4-1.6-.1-3.4.6-4.7-1A67.4,67.4,0,0,1,674.8-69c17.6,2.5,31.6,11.3,43.3,24.2A78.5,78.5,0,0,1,737.5-4c5,29.9-3.6,56.3-19.1,81.1a70.5,70.5,0,0,1-40.6,30.8C673.5,109.2,669,108.4,664.8,110.1Z"/><path class="cls-8" d="M636.9,78.1c-4.2-2.1-7.4-5.7-10.4-9.2a88.2,88.2,0,0,1-19-40.8c-3-16.4-.6-32,5-47.4.8-2.1,2-2,3.9-1.5s2.1,1.7,1.6,3.5A94.2,94.2,0,0,0,614.5,9c.3,13.9,2.3,27.8,7.6,41A157.3,157.3,0,0,0,636.9,78.1Z"/><path class="cls-15" d="M631,68.1a78.5,78.5,0,0,0-19.4-40.8C600,14.4,585.9,5.6,568.3,3.1c-15.1-2.1-29.1.2-42.4,7.4A86.4,86.4,0,0,0,513,19.3a77.8,77.8,0,0,0-23.4,32.6c-6.7,17.5-7,35.5-3.5,53.5,4.2,20.9,13,39.6,27.2,55.3a62.6,62.6,0,0,0,33.8,19.6c2.8.6,2.9,1.2,1.4,3.4s-4,6.7-6.2,10.2l10.8,1.2h1.8c1.6,0,3.3-.4,4.8.5a2.4,2.4,0,0,0,3-.1c.8-.9-.1-1.9-.5-2.9-1.3-3.4-2.6-6.9-3.8-10.4,4.1-1.7,8.6-.9,12.9-2.2a70.2,70.2,0,0,0,40.6-30.8C627.4,124.4,636,98,631,68.1ZM530.4,150.2"/><path class="cls-13" d="M558.4,182.2c-1.5-2.2,1-2.3,1.7-2.8,18.6-11.9,28.8-30,36.5-50a98.8,98.8,0,0,0,7.1-39.5c-.9-21.2-7.7-40.1-22.9-55.6-11.4-11.6-24.5-19.4-40.4-22.4-3.3-.6-6.6-.1-9.9-.4-1.6-.1-3.4.6-4.6-1,13.3-7.2,27.3-9.5,42.4-7.4,17.6,2.5,31.7,11.3,43.3,24.2A78.5,78.5,0,0,1,631,68.1c5,29.9-3.6,56.3-19.1,81.1A70.2,70.2,0,0,1,571.3,180C567,181.3,562.5,180.5,558.4,182.2Z"/><path class="cls-8" d="M530.4,150.2c-4.2-2.1-7.4-5.7-10.3-9.2A88.4,88.4,0,0,1,501,100.2c-3-16.4-.6-32,5-47.4.8-2.1,2-2,3.9-1.5s2.1,1.7,1.6,3.5A94.2,94.2,0,0,0,508,81.1c.3,13.9,2.4,27.8,7.6,41A160.8,160.8,0,0,0,530.4,150.2Z"/><path class="cls-8" d="M510.5,41.4c-.1-2.6,1.2-3.4,3.6-3.5s3.7,1.7,3.6,4a3.4,3.4,0,0,1-4,3.3C511.6,45,510.1,43.9,510.5,41.4Z"/></g></g></g></svg>