<svg id="SB39_Interactive_Icon_06_F1" xmlns="http://www.w3.org/2000/svg" xmlns:xlink="http://www.w3.org/1999/xlink" viewBox="0 0 718 661"><defs><style>.cls-1,.cls-11{fill:none;}.cls-2{fill:url(#linear-gradient);}.cls-3,.cls-5{fill:#31d0e5;}.cls-11,.cls-3{stroke-miterlimit:10;}.cls-3{stroke-width:6px;stroke:url(#linear-gradient-2);}.cls-4{clip-path:url(#clip-path);}.cls-6{opacity:0.14;}.cls-7{opacity:0.3;}.cls-8{fill:#fff;}.cls-9{opacity:0.45;}.cls-10{fill:#77c9b0;}.cls-11{stroke:#262211;stroke-width:0.75px;}.cls-12{fill:#ffd23f;}.cls-13{opacity:0.1;}.cls-14{fill:#e53963;}.cls-15{fill:#9e4ac6;}</style><linearGradient id="linear-gradient" x1="104.06" y1="155.82" x2="602.27" y2="497.19" gradientUnits="userSpaceOnUse"><stop offset="0" stop-color="#9b81cf"/><stop offset="1" stop-color="#3b139b"/></linearGradient><linearGradient id="linear-gradient-2" x1="66.74" y1="330.5" x2="651.26" y2="330.5" gradientUnits="userSpaceOnUse"><stop offset="0" stop-color="#4c1da9"/><stop offset="1" stop-color="#997ece"/></linearGradient><clipPath id="clip-path"><ellipse class="cls-1" cx="359" cy="330.5" rx="287" ry="286.7"/></clipPath></defs><g id="Layer_1" data-name="Layer 1"><circle class="cls-2" cx="359" cy="330.5" r="301.9"/><circle class="cls-3" cx="359" cy="330.5" r="289.3"/><ellipse class="cls-1" cx="359" cy="330.5" rx="291.7" ry="291.3"/><g class="cls-4"><path class="cls-5" d="M683.3,292.8c0,153.7-145.2,278.4-324.4,278.4S18.7,460,18.7,306.2,179.8,14.4,358.9,14.4,683.3,139,683.3,292.8Z"/><ellipse class="cls-6" cx="293.6" cy="632.3" rx="57.4" ry="13.4" transform="matrix(1, -0.09, 0.09, 1, -53.62, 27.78)"/><ellipse class="cls-6" cx="538" cy="639.9" rx="57.4" ry="13.6" transform="translate(-95 93.8) rotate(-9.2)"/><ellipse class="cls-6" cx="207.4" cy="602.5" rx="34.7" ry="9.2" transform="matrix(0.99, -0.13, 0.13, 0.99, -74.02, 30.81)"/><g class="cls-7"><path class="cls-8" d="M149.6,190s7.4-34.7,45.9-8.7-36.4,28.8-70.4,22.5S149.6,190,149.6,190Z"/><path class="cls-8" d="M223.3,160c32.2,16.3,3.1,23.4-23.8,21.8S191.1,143.8,223.3,160Z"/><path class="cls-8" d="M568.9,333.2s7.5-34.6,46-8.7-36.4,28.8-70.5,22.5S568.9,333.2,568.9,333.2Z"/><path class="cls-8" d="M642.6,303.3c32.2,16.2,3.1,23.3-23.8,21.8S610.4,287,642.6,303.3Z"/></g><g class="cls-9"><path class="cls-10" d="M119.3,483.9s14.4-8.7,21.9,1.8,2.8,7.2-11.9,6S114,486.2,119.3,483.9Z"/><path class="cls-10" d="M125.6,504.5s4.8-8,3.7-12.8,1.2-2.1,1.2-2.1l.5,4.8,5.1-1.9s-5.6,2.2-4.6,6.2a14.6,14.6,0,0,0,2.6,5.8Z"/></g><g id="_002" data-name="002"><path class="cls-11" d="M393.8,319.9s3.4,44.3-32.5,110.6c-24.6,45.3-69.3,172.2-18.8,201.2"/><path class="cls-11" d="M501.5,247.9s9.9,48.5-32.6,110.6S315,580.7,360,641.4"/><path class="cls-11" d="M342.5,631.7c-59.2-16.2-129.3-165.1-116.7-222.9"/><path class="cls-12" d="M303.8,281.8A78.9,78.9,0,0,0,284.4,241c-11.7-12.9-25.7-21.7-43.4-24.2-15-2.1-29.1.1-42.4,7.4a84.9,84.9,0,0,0-12.8,8.7,77.2,77.2,0,0,0-23.4,32.7c-6.8,17.4-7.1,35.4-3.5,53.5,4.1,20.8,13,39.5,27.2,55.3a61.6,61.6,0,0,0,33.7,19.5c2.8.7,2.9,1.3,1.5,3.4s-4.1,6.7-6.2,10.3l10.7,1.2h1.9c1.6-.1,3.2-.4,4.8.5s2.2.7,2.9-.2,0-1.8-.4-2.8c-1.4-3.5-2.6-7-3.9-10.4,4.2-1.7,8.7-1,12.9-2.3a70.6,70.6,0,0,0,40.7-30.7C300.2,338.1,308.8,311.6,303.8,281.8Zm-100.6,82"/><path class="cls-13" d="M231.1,395.9c-1.4-2.2,1-2.3,1.8-2.8,18.6-11.9,28.7-30.1,36.4-50,4.9-12.7,7.7-25.9,7.1-39.5-.9-21.2-7.6-40.1-22.9-55.7-11.3-11.6-24.4-19.3-40.4-22.3-3.3-.6-6.6-.2-9.9-.4-1.5-.2-3.3.6-4.6-1,13.3-7.3,27.4-9.5,42.4-7.4,17.7,2.5,31.7,11.3,43.4,24.2a78.9,78.9,0,0,1,19.4,40.8c5,29.8-3.6,56.3-19.1,81.1A70.6,70.6,0,0,1,244,393.6C239.8,394.9,235.3,394.2,231.1,395.9Z"/><path class="cls-8" d="M203.2,363.8c-4.2-2.1-7.5-5.6-10.4-9.2a87.9,87.9,0,0,1-19-40.7c-3.1-16.4-.6-32.1,5-47.4.7-2.1,1.9-2.1,3.9-1.6s2.1,1.7,1.6,3.6a87.1,87.1,0,0,0-3.5,26.2c.2,14,2.3,27.9,7.5,41.1A150.8,150.8,0,0,0,203.2,363.8Z"/><path class="cls-8" d="M183.3,255.1c-.2-2.7,1.2-3.4,3.5-3.5s3.7,1.7,3.6,4a3.3,3.3,0,0,1-3.9,3.3C184.3,258.7,182.9,257.6,183.3,255.1Z"/><path class="cls-14" d="M579.9,121c-2.7-15.6-9-29.2-19.5-40.8S534.7,58.5,517.1,56c-15.1-2.1-29.1.2-42.4,7.4a79.5,79.5,0,0,0-12.9,8.8,77.1,77.1,0,0,0-23.4,32.6c-6.7,17.5-7,35.4-3.5,53.5,4.2,20.8,13.1,39.5,27.3,55.3a62,62,0,0,0,33.7,19.6c2.8.6,2.9,1.2,1.4,3.4s-4,6.6-6.1,10.2l10.7,1.2h1.8c1.7-.1,3.3-.4,4.9.5s2.2.7,2.9-.1,0-1.9-.4-2.9c-1.4-3.4-2.6-6.9-3.9-10.4,4.1-1.7,8.6-1,12.9-2.2a70.2,70.2,0,0,0,40.6-30.8C576.3,177.3,584.8,150.9,579.9,121Z"/><path class="cls-13" d="M507.2,235.1c-1.4-2.2,1-2.3,1.7-2.8,18.6-11.9,28.8-30.1,36.5-50,4.9-12.7,7.6-25.9,7.1-39.5-.9-21.2-7.7-40.1-22.9-55.6-11.4-11.6-24.5-19.4-40.4-22.4-3.3-.6-6.6-.2-9.9-.4-1.6-.1-3.4.6-4.6-1C488,56.2,502,53.9,517.1,56c17.6,2.5,31.7,11.3,43.3,24.2s16.8,25.2,19.5,40.8c4.9,29.9-3.6,56.3-19.2,81.1a70.2,70.2,0,0,1-40.6,30.8C515.8,234.1,511.3,233.4,507.2,235.1Z"/><path class="cls-8" d="M479.3,203.1c-4.3-2.2-7.5-5.7-10.4-9.2a88.4,88.4,0,0,1-19.1-40.8c-3-16.4-.5-32,5-47.4.8-2.1,2-2,3.9-1.5s2.1,1.7,1.6,3.5a90.5,90.5,0,0,0-3.4,26.3c.2,13.9,2.3,27.8,7.5,41A154.9,154.9,0,0,0,479.3,203.1Z"/><path class="cls-8" d="M459.4,94.3c-.2-2.6,1.1-3.4,3.5-3.5s3.7,1.7,3.6,4a3.4,3.4,0,0,1-4,3.3C460.4,97.9,458.9,96.8,459.4,94.3Z"/><path class="cls-15" d="M473.4,193.1A79.3,79.3,0,0,0,454,152.3c-11.7-12.9-25.7-21.7-43.4-24.2a67.1,67.1,0,0,0-42.4,7.4,78.7,78.7,0,0,0-12.8,8.8A76.3,76.3,0,0,0,332,176.9c-6.8,17.5-7.1,35.4-3.5,53.5,4.1,20.8,13,39.5,27.2,55.3a62,62,0,0,0,33.7,19.6c2.8.6,2.9,1.2,1.5,3.4s-4.1,6.6-6.2,10.2l10.7,1.2h1.8c1.7-.1,3.3-.4,4.9.5s2.2.7,2.9-.1,0-1.9-.4-2.9c-1.4-3.4-2.6-6.9-3.9-10.4,4.1-1.7,8.7-1,12.9-2.2a70.2,70.2,0,0,0,40.6-30.8C469.8,249.4,478.4,223,473.4,193.1ZM372.8,275.2"/><path class="cls-13" d="M400.7,307.2c-1.4-2.2,1-2.3,1.7-2.8,18.7-11.9,28.8-30.1,36.5-50,4.9-12.7,7.7-25.9,7.1-39.5-.9-21.2-7.7-40.1-22.9-55.6-11.3-11.6-24.5-19.4-40.4-22.4-3.3-.6-6.6-.2-9.9-.4-1.6-.1-3.3.6-4.6-1a67.1,67.1,0,0,1,42.4-7.4c17.7,2.5,31.7,11.3,43.4,24.2a79.3,79.3,0,0,1,19.4,40.8c5,29.9-3.6,56.3-19.2,81.1A70.2,70.2,0,0,1,413.6,305C409.4,306.2,404.8,305.5,400.7,307.2Z"/><path class="cls-8" d="M372.8,275.2c-4.2-2.2-7.5-5.7-10.4-9.3a88.6,88.6,0,0,1-19.1-40.7c-3-16.4-.5-32,5.1-47.4.7-2.1,1.9-2,3.9-1.5s2.1,1.7,1.5,3.5a90.5,90.5,0,0,0-3.4,26.3c.2,13.9,2.3,27.8,7.5,41A154.9,154.9,0,0,0,372.8,275.2Z"/><path class="cls-8" d="M352.9,166.4c-.2-2.6,1.1-3.4,3.5-3.5s3.7,1.7,3.6,4a3.3,3.3,0,0,1-3.9,3.3C353.9,170,352.4,168.9,352.9,166.4Z"/></g></g></g></svg>