<svg id="SB39_Interactive_Icon_06_F1" xmlns="http://www.w3.org/2000/svg" xmlns:xlink="http://www.w3.org/1999/xlink" viewBox="0 0 718 661"><defs><style>.cls-1,.cls-11{fill:none;}.cls-2{fill:url(#linear-gradient);}.cls-3,.cls-5{fill:#31d0e5;}.cls-11,.cls-3{stroke-miterlimit:10;}.cls-3{stroke-width:6px;stroke:url(#linear-gradient-2);}.cls-4{clip-path:url(#clip-path);}.cls-6{opacity:0.14;}.cls-7{opacity:0.3;}.cls-8{fill:#fff;}.cls-9{opacity:0.45;}.cls-10{fill:#77c9b0;}.cls-11{stroke:#262211;stroke-width:0.75px;}.cls-12{fill:#ffd23f;}.cls-13{opacity:0.1;}.cls-14{fill:#e53963;}.cls-15{fill:#9e4ac6;}</style><linearGradient id="linear-gradient" x1="104.06" y1="155.82" x2="602.27" y2="497.19" gradientUnits="userSpaceOnUse"><stop offset="0" stop-color="#9b81cf"/><stop offset="1" stop-color="#3b139b"/></linearGradient><linearGradient id="linear-gradient-2" x1="66.74" y1="330.5" x2="651.26" y2="330.5" gradientUnits="userSpaceOnUse"><stop offset="0" stop-color="#4c1da9"/><stop offset="1" stop-color="#997ece"/></linearGradient><clipPath id="clip-path"><ellipse class="cls-1" cx="359" cy="330.5" rx="287" ry="286.7"/></clipPath></defs><g id="Layer_1" data-name="Layer 1"><circle class="cls-2" cx="359" cy="330.5" r="301.9"/><circle class="cls-3" cx="359" cy="330.5" r="289.3"/><ellipse class="cls-1" cx="359" cy="330.5" rx="291.7" ry="291.3"/><g class="cls-4"><path class="cls-5" d="M683.3,292.8c0,153.7-145.2,278.4-324.4,278.4S18.7,460,18.7,306.2,179.8,14.4,358.9,14.4,683.3,139,683.3,292.8Z"/><ellipse class="cls-6" cx="293.6" cy="632.3" rx="57.4" ry="13.4" transform="matrix(1, -0.09, 0.09, 1, -53.62, 27.78)"/><ellipse class="cls-6" cx="538" cy="639.9" rx="57.4" ry="13.6" transform="translate(-95 93.8) rotate(-9.2)"/><ellipse class="cls-6" cx="207.4" cy="602.5" rx="34.7" ry="9.2" transform="matrix(0.99, -0.13, 0.13, 0.99, -74.02, 30.81)"/><g class="cls-7"><path class="cls-8" d="M149.6,190s7.4-34.7,45.9-8.7-36.4,28.8-70.4,22.5S149.6,190,149.6,190Z"/><path class="cls-8" d="M223.3,160c32.2,16.3,3.1,23.4-23.8,21.8S191.1,143.8,223.3,160Z"/><path class="cls-8" d="M568.9,333.2s7.5-34.6,46-8.7-36.4,28.8-70.5,22.5S568.9,333.2,568.9,333.2Z"/><path class="cls-8" d="M642.6,303.3c32.2,16.2,3.1,23.3-23.8,21.8S610.4,287,642.6,303.3Z"/></g><g class="cls-9"><path class="cls-10" d="M119.3,483.9s14.4-8.7,21.9,1.8,2.8,7.2-11.9,6S114,486.2,119.3,483.9Z"/><path class="cls-10" d="M125.6,504.5s4.8-8,3.7-12.8,1.2-2.1,1.2-2.1l.5,4.8,5.1-1.9s-5.6,2.2-4.6,6.2a14.6,14.6,0,0,0,2.6,5.8Z"/></g><g id="_003" data-name="003"><path class="cls-11" d="M440.4,275.3s3.4,44.4-32.5,110.7c-24.6,45.3-44.3,231.7,6.2,260.7"/><path class="cls-11" d="M548.1,203.3S558,251.8,515.5,314,380.6,577.7,425.6,638.4"/><path class="cls-11" d="M414.1,646.7c-59.2-16.2-154.3-224.6-141.7-282.4"/><path class="cls-12" d="M350.4,237.3A79.6,79.6,0,0,0,331,196.4c-11.7-12.9-25.7-21.7-43.4-24.2a67.1,67.1,0,0,0-42.4,7.4,93.7,93.7,0,0,0-12.8,8.8A76.9,76.9,0,0,0,209,221c-6.8,17.5-7.1,35.5-3.5,53.6,4.1,20.8,13,39.5,27.2,55.3a62.4,62.4,0,0,0,33.7,19.5c2.8.6,2.9,1.2,1.5,3.4s-4.1,6.7-6.2,10.2l10.7,1.3h1.8c1.7-.1,3.3-.5,4.9.5a2.4,2.4,0,0,0,2.9-.2c.8-.9,0-1.9-.4-2.9-1.4-3.4-2.6-6.9-3.9-10.4,4.1-1.6,8.7-.9,12.9-2.2a70.3,70.3,0,0,0,40.7-30.8C346.8,293.6,355.4,267.1,350.4,237.3Zm-100.6,82"/><path class="cls-13" d="M277.7,351.3c-1.4-2.1,1-2.3,1.7-2.8,18.7-11.8,28.8-30,36.5-49.9,4.9-12.7,7.7-25.9,7.1-39.5-.9-21.3-7.6-40.2-22.9-55.7-11.3-11.6-24.5-19.3-40.4-22.3-3.3-.7-6.6-.2-9.9-.5-1.5-.1-3.3.6-4.6-1a67.1,67.1,0,0,1,42.4-7.4c17.7,2.5,31.7,11.3,43.4,24.2a79.6,79.6,0,0,1,19.4,40.9c5,29.8-3.6,56.3-19.1,81a70.3,70.3,0,0,1-40.7,30.8C286.4,350.4,281.8,349.7,277.7,351.3Z"/><path class="cls-8" d="M249.8,319.3c-4.2-2.1-7.5-5.6-10.4-9.2a88.2,88.2,0,0,1-19-40.8c-3.1-16.3-.6-32,5-47.4.7-2.1,1.9-2,3.9-1.5s2.1,1.7,1.5,3.5a90.9,90.9,0,0,0-3.4,26.3c.2,14,2.3,27.9,7.5,41A148.5,148.5,0,0,0,249.8,319.3Z"/><path class="cls-8" d="M229.9,210.6c-.2-2.7,1.1-3.5,3.5-3.5s3.7,1.6,3.6,3.9a3.2,3.2,0,0,1-3.9,3.3C230.9,214.1,229.4,213,229.9,210.6Z"/><path class="cls-14" d="M626.4,76.5c-2.6-15.6-8.9-29.3-19.4-40.8S581.3,14,563.7,11.5c-15.1-2.1-29.1.1-42.4,7.4a85.8,85.8,0,0,0-12.9,8.7A78.1,78.1,0,0,0,485,60.3c-6.7,17.4-7,35.4-3.5,53.5,4.2,20.8,13,39.5,27.2,55.3a62.5,62.5,0,0,0,33.8,19.5c2.8.7,2.9,1.3,1.4,3.4s-4,6.7-6.2,10.3l10.8,1.2h1.8c1.6-.1,3.3-.4,4.8.5a2.5,2.5,0,0,0,3-.2c.8-.9-.1-1.9-.5-2.8-1.3-3.5-2.6-7-3.8-10.5,4.1-1.6,8.6-.9,12.9-2.2,17.4-5.2,31-15.4,40.6-30.8C622.8,132.8,631.4,106.3,626.4,76.5Z"/><path class="cls-13" d="M553.8,190.5c-1.5-2.1,1-2.3,1.7-2.7,18.6-11.9,28.8-30.1,36.5-50,4.9-12.7,7.6-25.9,7.1-39.5-.9-21.2-7.7-40.1-22.9-55.7C564.8,31,551.7,23.3,535.8,20.3c-3.3-.6-6.6-.2-9.9-.4-1.6-.2-3.4.6-4.6-1,13.3-7.3,27.3-9.5,42.4-7.4C581.3,14,595.4,22.8,607,35.7s16.8,25.2,19.4,40.8c5,29.8-3.6,56.3-19.1,81-9.6,15.4-23.2,25.6-40.6,30.8C562.4,189.6,557.9,188.9,553.8,190.5Z"/><path class="cls-8" d="M525.8,158.5c-4.2-2.1-7.4-5.6-10.3-9.2a88,88,0,0,1-19.1-40.7c-3-16.4-.6-32.1,5-47.4.8-2.1,2-2.1,3.9-1.6s2.1,1.7,1.6,3.6a93.5,93.5,0,0,0-3.5,26.2c.3,14,2.4,27.9,7.6,41.1A156.5,156.5,0,0,0,525.8,158.5Z"/><path class="cls-8" d="M505.9,49.8c-.1-2.7,1.2-3.4,3.6-3.5s3.7,1.7,3.6,4a3.4,3.4,0,0,1-4,3.3C507,53.3,505.5,52.3,505.9,49.8Z"/><path class="cls-15" d="M520,148.6a78.3,78.3,0,0,0-19.5-40.8c-11.6-13-25.6-21.8-43.3-24.2-15.1-2.1-29.1.1-42.4,7.4A80.1,80.1,0,0,0,402,99.7a77.4,77.4,0,0,0-23.5,32.7c-6.7,17.4-7,35.4-3.4,53.5,4.1,20.8,13,39.5,27.2,55.3A61.8,61.8,0,0,0,436,260.7c2.8.7,2.9,1.3,1.5,3.4s-4.1,6.7-6.2,10.3l10.7,1.2h1.8c1.7-.1,3.3-.4,4.9.5a2.4,2.4,0,0,0,2.9-.2c.8-.9,0-1.9-.4-2.8-1.4-3.5-2.6-7-3.9-10.5,4.1-1.6,8.6-.9,12.9-2.2,17.4-5.2,31-15.4,40.6-30.8C516.4,204.9,524.9,178.4,520,148.6Zm-100.6,82"/><path class="cls-13" d="M447.3,262.6c-1.4-2.1,1-2.3,1.7-2.7,18.7-11.9,28.8-30.1,36.5-50,4.9-12.7,7.7-25.9,7.1-39.5-.9-21.2-7.7-40.1-22.9-55.7-11.4-11.6-24.5-19.3-40.4-22.3-3.3-.6-6.6-.2-9.9-.4-1.6-.2-3.3.6-4.6-1,13.3-7.3,27.3-9.5,42.4-7.4,17.7,2.4,31.7,11.2,43.3,24.2A78.3,78.3,0,0,1,520,148.6c4.9,29.8-3.6,56.3-19.2,81-9.6,15.4-23.2,25.6-40.6,30.8C455.9,261.7,451.4,261,447.3,262.6Z"/><path class="cls-8" d="M419.4,230.6c-4.2-2.1-7.5-5.6-10.4-9.2a89,89,0,0,1-19.1-40.7c-3-16.4-.5-32.1,5.1-47.4.7-2.1,1.9-2.1,3.9-1.6s2,1.7,1.5,3.6a89.8,89.8,0,0,0-3.4,26.2c.2,14,2.3,27.9,7.5,41.1A150.8,150.8,0,0,0,419.4,230.6Z"/><path class="cls-8" d="M399.5,121.9c-.2-2.7,1.1-3.4,3.5-3.5s3.7,1.7,3.6,4a3.3,3.3,0,0,1-3.9,3.3C400.5,125.4,399,124.4,399.5,121.9Z"/></g></g></g></svg>