<svg id="SB39_Interactive_Icon_06_F1" xmlns="http://www.w3.org/2000/svg" xmlns:xlink="http://www.w3.org/1999/xlink" viewBox="0 0 718 661"><defs><style>.cls-1,.cls-11{fill:none;}.cls-2{fill:url(#linear-gradient);}.cls-3,.cls-5{fill:#31d0e5;}.cls-11,.cls-3{stroke-miterlimit:10;}.cls-3{stroke-width:6px;stroke:url(#linear-gradient-2);}.cls-4{clip-path:url(#clip-path);}.cls-6{opacity:0.14;}.cls-7{opacity:0.3;}.cls-8{fill:#fff;}.cls-9{opacity:0.45;}.cls-10{fill:#77c9b0;}.cls-11{stroke:#262211;stroke-width:0.75px;}.cls-12{fill:#e53963;}.cls-13{opacity:0.1;}.cls-14{fill:#9e4ac6;}</style><linearGradient id="linear-gradient" x1="104.06" y1="155.82" x2="602.27" y2="497.19" gradientUnits="userSpaceOnUse"><stop offset="0" stop-color="#9b81cf"/><stop offset="1" stop-color="#3b139b"/></linearGradient><linearGradient id="linear-gradient-2" x1="66.74" y1="330.5" x2="651.26" y2="330.5" gradientUnits="userSpaceOnUse"><stop offset="0" stop-color="#4c1da9"/><stop offset="1" stop-color="#997ece"/></linearGradient><clipPath id="clip-path"><ellipse class="cls-1" cx="359" cy="330.5" rx="287" ry="286.7"/></clipPath></defs><g id="Layer_1" data-name="Layer 1"><circle class="cls-2" cx="359" cy="330.5" r="301.9"/><circle class="cls-3" cx="359" cy="330.5" r="289.3"/><ellipse class="cls-1" cx="359" cy="330.5" rx="291.7" ry="291.3"/><g class="cls-4"><path class="cls-5" d="M683.3,292.8c0,153.7-145.2,278.4-324.4,278.4S18.7,460,18.7,306.2,179.8,14.4,358.9,14.4,683.3,139,683.3,292.8Z"/><ellipse class="cls-6" cx="293.6" cy="632.3" rx="57.4" ry="13.4" transform="matrix(1, -0.09, 0.09, 1, -53.62, 27.78)"/><ellipse class="cls-6" cx="538" cy="639.9" rx="57.4" ry="13.6" transform="translate(-95 93.8) rotate(-9.2)"/><ellipse class="cls-6" cx="207.4" cy="602.5" rx="34.7" ry="9.2" transform="matrix(0.99, -0.13, 0.13, 0.99, -74.02, 30.81)"/><g class="cls-7"><path class="cls-8" d="M149.6,190s7.4-34.7,45.9-8.7-36.4,28.8-70.4,22.5S149.6,190,149.6,190Z"/><path class="cls-8" d="M223.3,160c32.2,16.3,3.1,23.4-23.8,21.8S191.1,143.8,223.3,160Z"/><path class="cls-8" d="M568.9,333.2s7.5-34.6,46-8.7-36.4,28.8-70.5,22.5S568.9,333.2,568.9,333.2Z"/><path class="cls-8" d="M642.6,303.3c32.2,16.2,3.1,23.3-23.8,21.8S610.4,287,642.6,303.3Z"/></g><g class="cls-9"><path class="cls-10" d="M119.3,483.9s14.4-8.7,21.9,1.8,2.8,7.2-11.9,6S114,486.2,119.3,483.9Z"/><path class="cls-10" d="M125.6,504.5s4.8-8,3.7-12.8,1.2-2.1,1.2-2.1l.5,4.8,5.1-1.9s-5.6,2.2-4.6,6.2a14.6,14.6,0,0,0,2.6,5.8Z"/></g><g id="_007" data-name="007"><path class="cls-11" d="M3.7,650S7,694.4-28.9,760.6c-24.5,45.3-69.2,172.2-18.7,201.3"/><path class="cls-11" d="M111.3,578s10,48.5-32.5,110.7S-75.1,910.8-30.1,971.5"/><path class="cls-12" d="M189.7,451.2c-2.6-15.6-8.9-29.3-19.4-40.9s-25.7-21.7-43.4-24.1a66.5,66.5,0,0,0-42.4,7.3,100.3,100.3,0,0,0-12.8,8.8A76.6,76.6,0,0,0,48.3,435c-6.8,17.4-7.1,35.4-3.5,53.5,4.1,20.8,13,39.5,27.2,55.3a63.2,63.2,0,0,0,33.7,19.5c2.8.6,2.9,1.2,1.5,3.4s-4.1,6.7-6.2,10.2l10.7,1.3h1.9c1.6-.1,3.2-.5,4.8.5a2.6,2.6,0,0,0,3-.2c.8-.9-.1-1.9-.5-2.9-1.4-3.4-2.6-6.9-3.9-10.4,4.2-1.6,8.7-.9,13-2.2,17.3-5.2,31-15.4,40.6-30.8C186.1,507.5,194.7,481,189.7,451.2Z"/><path class="cls-13" d="M117,565.2c-1.4-2.1,1-2.3,1.8-2.8,18.6-11.8,28.8-30,36.5-49.9,4.8-12.7,7.6-25.9,7-39.5-.8-21.3-7.6-40.2-22.8-55.7C128.1,405.7,115,398,99.1,395c-3.3-.7-6.6-.2-9.9-.5-1.6-.1-3.4.6-4.7-1a66.5,66.5,0,0,1,42.4-7.3c17.7,2.4,31.7,11.2,43.4,24.1s16.8,25.3,19.4,40.9c5,29.8-3.6,56.3-19.1,81C161,547.6,147.3,557.8,130,563,125.7,564.3,121.2,563.6,117,565.2Z"/><path class="cls-8" d="M89.1,533.2c-4.2-2.1-7.4-5.6-10.4-9.2a88.2,88.2,0,0,1-19-40.8c-3-16.3-.6-32,5-47.4.8-2.1,2-2,3.9-1.5s2.1,1.7,1.6,3.5a94.6,94.6,0,0,0-3.5,26.3c.3,14,2.3,27.9,7.5,41A154.5,154.5,0,0,0,89.1,533.2Z"/><path class="cls-8" d="M69.2,424.5c-.2-2.7,1.2-3.5,3.5-3.5s3.8,1.6,3.6,3.9a3.2,3.2,0,0,1-3.9,3.3C70.3,428,68.8,426.9,69.2,424.5Z"/><path class="cls-14" d="M83.2,523.3c-2.6-15.6-8.9-29.3-19.4-40.9s-25.7-21.7-43.3-24.2A67.4,67.4,0,0,0-22,465.6a100.3,100.3,0,0,0-12.8,8.8A76.9,76.9,0,0,0-58.2,507c-6.8,17.5-7,35.5-3.5,53.6,4.1,20.8,13,39.5,27.2,55.3A63.1,63.1,0,0,0-.7,635.4c2.8.6,2.9,1.2,1.4,3.4s-4,6.7-6.2,10.2l10.7,1.3H7.1c1.6-.1,3.3-.5,4.8.5a2.5,2.5,0,0,0,3-.2c.8-.9-.1-1.9-.5-2.9-1.3-3.4-2.6-6.9-3.8-10.4,4.1-1.6,8.6-.9,12.9-2.2,17.3-5.2,31-15.4,40.6-30.8C79.6,579.6,88.2,553.1,83.2,523.3Zm-100.6,82"/><path class="cls-13" d="M10.6,637.3c-1.5-2.1,1-2.3,1.7-2.8,18.6-11.8,28.8-30,36.5-49.9a99.4,99.4,0,0,0,7.1-39.5c-.9-21.3-7.7-40.2-22.9-55.7C21.6,477.8,8.5,470.1-7.4,467.1c-3.3-.7-6.6-.2-9.9-.5-1.6-.1-3.4.6-4.7-1a67.4,67.4,0,0,1,42.5-7.4c17.6,2.5,31.7,11.3,43.3,24.2s16.8,25.3,19.4,40.9c5,29.8-3.6,56.3-19.1,81-9.6,15.4-23.3,25.6-40.6,30.8C19.2,636.4,14.7,635.7,10.6,637.3Z"/></g></g></g></svg>