<svg id="SB39_Interactive_Icon_06_F1" xmlns="http://www.w3.org/2000/svg" xmlns:xlink="http://www.w3.org/1999/xlink" viewBox="0 0 718 661"><defs><style>.cls-1,.cls-11{fill:none;}.cls-2{fill:url(#linear-gradient);}.cls-3,.cls-5{fill:#31d0e5;}.cls-11,.cls-3{stroke-miterlimit:10;}.cls-3{stroke-width:6px;stroke:url(#linear-gradient-2);}.cls-4{clip-path:url(#clip-path);}.cls-6{opacity:0.14;}.cls-7{opacity:0.3;}.cls-8{fill:#fff;}.cls-9{opacity:0.45;}.cls-10{fill:#77c9b0;}.cls-11{stroke:#262211;stroke-width:0.75px;}.cls-12{fill:#ffd23f;}.cls-13{opacity:0.1;}.cls-14{fill:#e53963;}.cls-15{fill:#9e4ac6;}</style><linearGradient id="linear-gradient" x1="104.06" y1="155.82" x2="602.27" y2="497.19" gradientUnits="userSpaceOnUse"><stop offset="0" stop-color="#9b81cf"/><stop offset="1" stop-color="#3b139b"/></linearGradient><linearGradient id="linear-gradient-2" x1="66.74" y1="330.5" x2="651.26" y2="330.5" gradientUnits="userSpaceOnUse"><stop offset="0" stop-color="#4c1da9"/><stop offset="1" stop-color="#997ece"/></linearGradient><clipPath id="clip-path"><ellipse class="cls-1" cx="359" cy="330.5" rx="287" ry="286.7"/></clipPath></defs><g id="Layer_1" data-name="Layer 1"><circle class="cls-2" cx="359" cy="330.5" r="301.9"/><circle class="cls-3" cx="359" cy="330.5" r="289.3"/><ellipse class="cls-1" cx="359" cy="330.5" rx="291.7" ry="291.3"/><g class="cls-4"><path class="cls-5" d="M683.3,292.8c0,153.7-145.2,278.4-324.4,278.4S18.7,460,18.7,306.2,179.8,14.4,358.9,14.4,683.3,139,683.3,292.8Z"/><ellipse class="cls-6" cx="293.6" cy="632.3" rx="57.4" ry="13.4" transform="matrix(1, -0.09, 0.09, 1, -53.62, 27.78)"/><ellipse class="cls-6" cx="538" cy="639.9" rx="57.4" ry="13.6" transform="translate(-95 93.8) rotate(-9.2)"/><ellipse class="cls-6" cx="207.4" cy="602.5" rx="34.7" ry="9.2" transform="matrix(0.99, -0.13, 0.13, 0.99, -74.02, 30.81)"/><g class="cls-7"><path class="cls-8" d="M149.6,190s7.4-34.7,45.9-8.7-36.4,28.8-70.4,22.5S149.6,190,149.6,190Z"/><path class="cls-8" d="M223.3,160c32.2,16.3,3.1,23.4-23.8,21.8S191.1,143.8,223.3,160Z"/><path class="cls-8" d="M568.9,333.2s7.5-34.6,46-8.7-36.4,28.8-70.5,22.5S568.9,333.2,568.9,333.2Z"/><path class="cls-8" d="M642.6,303.3c32.2,16.2,3.1,23.3-23.8,21.8S610.4,287,642.6,303.3Z"/></g><g class="cls-9"><path class="cls-10" d="M119.3,483.9s14.4-8.7,21.9,1.8,2.8,7.2-11.9,6S114,486.2,119.3,483.9Z"/><path class="cls-10" d="M125.6,504.5s4.8-8,3.7-12.8,1.2-2.1,1.2-2.1l.5,4.8,5.1-1.9s-5.6,2.2-4.6,6.2a14.6,14.6,0,0,0,2.6,5.8Z"/></g><g id="_009" data-name="009"><path class="cls-11" d="M361.4,412.8s3.3,44.4-32.6,110.6c-24.5,45.3-69.2,172.2-18.7,201.3"/><path class="cls-11" d="M469,340.8s9.9,48.5-32.6,110.7S282.6,673.7,327.6,734.3"/><path class="cls-11" d="M310.1,724.7c-59.2-16.2-129.3-165.1-116.7-222.9"/><path class="cls-12" d="M271.3,374.8c-2.6-15.6-8.9-29.3-19.4-40.9s-25.7-21.7-43.3-24.2c-15.1-2.1-29.1.2-42.4,7.4a94.7,94.7,0,0,0-12.9,8.8,76.9,76.9,0,0,0-23.4,32.6c-6.8,17.5-7,35.5-3.5,53.5,4.1,20.9,13,39.6,27.2,55.4a63.1,63.1,0,0,0,33.8,19.5c2.8.6,2.9,1.2,1.4,3.4s-4,6.7-6.2,10.2l10.8,1.3h1.8c1.6-.1,3.3-.5,4.8.4a2.4,2.4,0,0,0,3-.1c.8-.9-.1-1.9-.5-2.9-1.3-3.4-2.6-6.9-3.8-10.4,4.1-1.6,8.6-.9,12.9-2.2,17.3-5.2,31-15.4,40.6-30.8C267.7,431,276.3,404.6,271.3,374.8Zm-100.6,82"/><path class="cls-13" d="M198.7,488.8c-1.5-2.1,1-2.3,1.7-2.8,18.6-11.9,28.8-30,36.5-50a98.6,98.6,0,0,0,7.1-39.4c-.9-21.3-7.7-40.2-22.9-55.7-11.4-11.6-24.5-19.4-40.4-22.4-3.3-.6-6.6-.1-9.9-.4-1.6-.1-3.4.6-4.6-1,13.3-7.2,27.3-9.5,42.4-7.4,17.6,2.5,31.7,11.3,43.3,24.2s16.8,25.3,19.4,40.9c5,29.8-3.6,56.2-19.1,81-9.6,15.4-23.2,25.6-40.6,30.8C207.3,487.9,202.8,487.2,198.7,488.8Z"/><path class="cls-8" d="M170.7,456.8c-4.2-2.1-7.4-5.6-10.4-9.2a89.2,89.2,0,0,1-19-40.8c-3-16.3-.6-32,5-47.4.8-2.1,2-2,3.9-1.5s2.1,1.7,1.6,3.5a94.2,94.2,0,0,0-3.5,26.3c.3,14,2.3,27.8,7.6,41A154,154,0,0,0,170.7,456.8Z"/><path class="cls-8" d="M150.8,348.1c-.1-2.7,1.2-3.5,3.6-3.5s3.7,1.6,3.6,3.9a3.4,3.4,0,0,1-4,3.3C151.9,351.6,150.4,350.5,150.8,348.1Z"/><path class="cls-14" d="M547.4,214A79.6,79.6,0,0,0,528,173.1c-11.7-12.9-25.7-21.7-43.4-24.1a66.4,66.4,0,0,0-42.4,7.3,100.3,100.3,0,0,0-12.8,8.8A76.6,76.6,0,0,0,406,197.8c-6.8,17.4-7.1,35.4-3.5,53.5,4.1,20.8,13,39.5,27.2,55.3a63.2,63.2,0,0,0,33.7,19.5c2.8.6,2.9,1.2,1.5,3.4s-4.1,6.7-6.2,10.2l10.7,1.3h1.9c1.6-.1,3.2-.5,4.8.5a2.4,2.4,0,0,0,2.9-.2c.9-.9,0-1.9-.4-2.8-1.4-3.5-2.6-7-3.9-10.5,4.2-1.6,8.7-.9,13-2.2A70.4,70.4,0,0,0,528.3,295C543.8,270.3,552.4,243.8,547.4,214Z"/><path class="cls-13" d="M474.7,328c-1.4-2.1,1-2.3,1.8-2.7,18.6-11.9,28.7-30.1,36.4-50,4.9-12.7,7.7-25.9,7.1-39.5-.9-21.3-7.6-40.1-22.8-55.7-11.4-11.6-24.5-19.3-40.4-22.3-3.4-.7-6.6-.2-9.9-.5-1.6-.1-3.4.6-4.7-1a66.4,66.4,0,0,1,42.4-7.3c17.7,2.4,31.7,11.2,43.4,24.1A79.6,79.6,0,0,1,547.4,214c5,29.8-3.6,56.3-19.1,81a70.4,70.4,0,0,1-40.6,30.8C483.4,327.1,478.9,326.4,474.7,328Z"/><path class="cls-8" d="M446.8,296c-4.2-2.1-7.4-5.6-10.4-9.2a87.8,87.8,0,0,1-19-40.8c-3.1-16.3-.6-32,5-47.4.8-2.1,2-2,3.9-1.5s2.1,1.7,1.6,3.5a91.1,91.1,0,0,0-3.5,26.3c.3,14,2.3,27.9,7.5,41A154.5,154.5,0,0,0,446.8,296Z"/><path class="cls-8" d="M426.9,187.3c-.2-2.7,1.2-3.4,3.5-3.5s3.8,1.7,3.6,3.9a3.2,3.2,0,0,1-3.9,3.3C428,190.8,426.5,189.7,426.9,187.3Z"/><path class="cls-15" d="M440.9,286.1c-2.6-15.6-8.9-29.3-19.4-40.9s-25.7-21.7-43.3-24.1a66.7,66.7,0,0,0-42.5,7.3,100.3,100.3,0,0,0-12.8,8.8,76.6,76.6,0,0,0-23.4,32.7c-6.8,17.4-7.1,35.4-3.5,53.5,4.1,20.8,13,39.5,27.2,55.3a63.2,63.2,0,0,0,33.7,19.5c2.9.6,2.9,1.2,1.5,3.4s-4.1,6.7-6.2,10.2l10.7,1.3h1.9c1.6-.1,3.2-.5,4.8.5a2.6,2.6,0,0,0,3-.2c.8-.9-.1-1.9-.5-2.8-1.4-3.5-2.6-7-3.9-10.5,4.2-1.6,8.7-.9,13-2.2,17.3-5.2,31-15.4,40.6-30.8C437.3,342.4,445.9,315.9,440.9,286.1Zm-100.6,82"/><path class="cls-13" d="M368.2,400.1c-1.4-2.1,1-2.3,1.8-2.7,18.6-11.9,28.8-30.1,36.5-50,4.8-12.7,7.6-25.9,7-39.5-.8-21.3-7.6-40.1-22.8-55.7-11.4-11.6-24.5-19.3-40.4-22.3-3.3-.7-6.6-.2-9.9-.5-1.6-.1-3.4.6-4.7-1a66.7,66.7,0,0,1,42.5-7.3c17.6,2.4,31.6,11.2,43.3,24.1s16.8,25.3,19.4,40.9c5,29.8-3.6,56.3-19.1,81-9.6,15.4-23.3,25.6-40.6,30.8C376.9,399.2,372.4,398.5,368.2,400.1Z"/><path class="cls-8" d="M340.3,368.1c-4.2-2.1-7.4-5.6-10.4-9.2a87.8,87.8,0,0,1-19-40.8c-3-16.3-.6-32,5-47.4.8-2.1,2-2,3.9-1.5s2.1,1.7,1.6,3.5a94.6,94.6,0,0,0-3.5,26.3c.3,14,2.3,27.9,7.5,41A160.9,160.9,0,0,0,340.3,368.1Z"/><path class="cls-8" d="M320.4,259.4c-.2-2.7,1.2-3.5,3.6-3.5s3.7,1.7,3.5,3.9a3.2,3.2,0,0,1-3.9,3.3C321.5,262.9,320,261.8,320.4,259.4Z"/></g></g></g></svg>