<svg id="SB39_Interactive_Icon_06_F1" xmlns="http://www.w3.org/2000/svg" xmlns:xlink="http://www.w3.org/1999/xlink" viewBox="0 0 718 661"><defs><style>.cls-1{fill:none;}.cls-2{fill:url(#linear-gradient);}.cls-3,.cls-5{fill:#31d0e5;}.cls-3{stroke-miterlimit:10;stroke-width:6px;stroke:url(#linear-gradient-2);}.cls-4{clip-path:url(#clip-path);}.cls-6{opacity:0.14;}.cls-7{opacity:0.3;}.cls-8{fill:#fff;}.cls-9{opacity:0.45;}.cls-10{fill:#77c9b0;}</style><linearGradient id="linear-gradient" x1="104.06" y1="155.82" x2="602.27" y2="497.19" gradientUnits="userSpaceOnUse"><stop offset="0" stop-color="#9b81cf"/><stop offset="1" stop-color="#3b139b"/></linearGradient><linearGradient id="linear-gradient-2" x1="66.74" y1="330.5" x2="651.26" y2="330.5" gradientUnits="userSpaceOnUse"><stop offset="0" stop-color="#4c1da9"/><stop offset="1" stop-color="#997ece"/></linearGradient><clipPath id="clip-path"><ellipse class="cls-1" cx="359" cy="330.5" rx="287" ry="286.7"/></clipPath></defs><g id="Layer_1" data-name="Layer 1"><circle class="cls-2" cx="359" cy="330.5" r="301.9"/><circle class="cls-3" cx="359" cy="330.5" r="289.3"/><ellipse class="cls-1" cx="359" cy="330.5" rx="291.7" ry="291.3"/><g class="cls-4"><path class="cls-5" d="M683.3,292.8c0,153.7-145.2,278.4-324.4,278.4S18.7,460,18.7,306.2,179.8,14.4,358.9,14.4,683.3,139,683.3,292.8Z"/><ellipse class="cls-6" cx="293.6" cy="632.3" rx="57.4" ry="13.4" transform="matrix(1, -0.09, 0.09, 1, -53.62, 27.78)"/><ellipse class="cls-6" cx="538" cy="639.9" rx="57.4" ry="13.6" transform="translate(-95 93.8) rotate(-9.2)"/><ellipse class="cls-6" cx="207.4" cy="602.5" rx="34.7" ry="9.2" transform="matrix(0.99, -0.13, 0.13, 0.99, -74.02, 30.81)"/><g class="cls-7"><path class="cls-8" d="M149.6,190s7.4-34.7,45.9-8.7-36.4,28.8-70.4,22.5S149.6,190,149.6,190Z"/><path class="cls-8" d="M223.3,160c32.2,16.3,3.1,23.4-23.8,21.8S191.1,143.8,223.3,160Z"/><path class="cls-8" d="M568.9,333.2s7.5-34.6,46-8.7-36.4,28.8-70.5,22.5S568.9,333.2,568.9,333.2Z"/><path class="cls-8" d="M642.6,303.3c32.2,16.2,3.1,23.3-23.8,21.8S610.4,287,642.6,303.3Z"/></g><g class="cls-9"><path class="cls-10" d="M119.3,483.9s14.4-8.7,21.9,1.8,2.8,7.2-11.9,6S114,486.2,119.3,483.9Z"/><path class="cls-10" d="M125.6,504.5s4.8-8,3.7-12.8,1.2-2.1,1.2-2.1l.5,4.8,5.1-1.9s-5.6,2.2-4.6,6.2a14.6,14.6,0,0,0,2.6,5.8Z"/></g></g></g></svg>