<svg xmlns="http://www.w3.org/2000/svg" xmlns:xlink="http://www.w3.org/1999/xlink" viewBox="0 0 443.8 451.5"><defs><style>.cls-1{fill:none;}.cls-2{isolation:isolate;}.cls-3{opacity:0.5;}.cls-4{fill:url(#linear-gradient);}.cls-5{fill:#31d0e5;stroke-width:6px;stroke:url(#linear-gradient-2);}.cls-10,.cls-5,.cls-7{stroke-miterlimit:10;}.cls-6{clip-path:url(#clip-path);}.cls-7{fill:#41a022;stroke:#38841c;stroke-width:0.5px;}.cls-8{fill:#204910;opacity:0.32;}.cls-9{fill:#8fc12f;}.cls-13,.cls-9{opacity:0.51;}.cls-10{fill:#48bc28;stroke:#45a525;}.cls-11,.cls-12{fill:#b0e573;}.cls-11{mix-blend-mode:screen;opacity:0.69;}.cls-13{fill:#b6f261;}.cls-14{fill:#353535;}</style><linearGradient id="linear-gradient" x1="43.17" y1="103.28" x2="392.43" y2="342.6" gradientUnits="userSpaceOnUse"><stop offset="0" stop-color="#9b81cf"/><stop offset="1" stop-color="#3b139b"/></linearGradient><linearGradient id="linear-gradient-2" x1="16.1" y1="225.74" x2="427.68" y2="225.74" gradientUnits="userSpaceOnUse"><stop offset="0" stop-color="#4c1da9"/><stop offset="1" stop-color="#997ece"/></linearGradient><clipPath id="clip-path"><circle class="cls-1" cx="222.6" cy="226.4" r="199.8"/></clipPath></defs><g class="cls-2"><g id="SB39_Interactive_Icon_13_F1"><path class="cls-3" d="M435.1,237a208.3,208.3,0,0,0-25.4-100A211.6,211.6,0,0,0,221.9,23C105,23,10.2,117.8,10.2,234.7S105,446.3,221.9,446.3c3,0,5.9,0,8.9-.2C344.1,443.6,435.1,350.9,435.1,237Z"/><circle class="cls-4" cx="221.9" cy="225.7" r="211.7"/><circle class="cls-5" cx="221.9" cy="225.7" r="202.8"/><g id="_001" data-name="001"><g class="cls-6"><g id="_005" data-name="005"><path class="cls-7" d="M86.9,313.2s-13.1-19.7-29.5-21l-5.5,4.3S68,295.6,85,312.9Z"/><path class="cls-8" d="M51.9,296.5S68,295.1,85,312.9l.9.2S68.7,293.3,53,295.7Z"/><path class="cls-9" d="M57.4,292.2s12.7,1.3,24.3,14.5c0,0-10.7-11.1-24.6-14.3Z"/><path class="cls-10" d="M87.8,370.4c-20.6-58.4-4.5-60.7-4.5-60.7,1.3-8,18.8-13,45.4,12.1,20.4,19.3,17.9,33.7,20.1,74.8,2.6,46.2,14,64.6,16.5,66.9C149.1,450.5,103.2,414,87.8,370.4Z"/><path class="cls-7" d="M46.3,316.6c8.4-10.3,26.7-12.9,37-6.9,0,0-14.1,26.6,13.3,75.2,22.7,40.1,52,65.3,68.3,78.4l.4.3c-12-8.6-43.8-10.8-75.6-26.4C24.9,405.4,34.6,331.1,46.3,316.6Z"/><path class="cls-11" d="M85.3,434.8a1.6,1.6,0,0,0-.1-.4c0-.3-.2-.7-.3-1.3a31.9,31.9,0,0,1-.8-5.2,65.7,65.7,0,0,1,.3-8.5c.4-3.3,1.1-7.1,2-11.5s1.4-6.4,2.1-9.8,1.4-6.8,1.9-9.9a41.5,41.5,0,0,0,.4-8.3c-.1-1.1-.3-2-.4-2.7a.6.6,0,0,1-.1-.4.4.4,0,0,1-.1-.3v.3c.1.1.1.3.2.4a17,17,0,0,1,.3,2.7,34,34,0,0,1-.5,8.1c-.5,3.1-1.3,6.4-2.1,9.8s-1.6,6.6-2.2,9.7a103.6,103.6,0,0,0-2,11.5,44.4,44.4,0,0,0-.2,8.8,33,33,0,0,0,.9,5.4l.5,1.2Z"/><path class="cls-11" d="M79,342.5c-.1,0,.1.7.1,2.1s0,1.6-.1,2.7a36,36,0,0,1-.8,3.7,74.4,74.4,0,0,1-3.6,10c-1.6,4-3.7,8.7-6,14.2s-3.3,8.5-4.7,13.1a65.8,65.8,0,0,0-2.7,14.2,45.1,45.1,0,0,0,.1,6.4,32.8,32.8,0,0,0,.9,5.2,10.5,10.5,0,0,0,.5,1.9,12.1,12.1,0,0,1,.5,1.4l.5,1.2-.5-1.2c-.1-.4-.3-.9-.4-1.4a9.7,9.7,0,0,1-.5-2,22.7,22.7,0,0,1-.8-5.1,33.1,33.1,0,0,1,0-6.3,70.3,70.3,0,0,1,2.9-13.9c1.4-4.6,3.2-9,4.8-13s4.5-10.1,6.1-14.1a57,57,0,0,0,3.5-10.3,20.6,20.6,0,0,0,.7-3.8,13,13,0,0,0,0-2.8C79.4,343.1,79.1,342.4,79,342.5Z"/><path class="cls-11" d="M81.6,311.4c-.2.1,0,.8-.5,2.2a29.5,29.5,0,0,1-3,6c-1.6,2.7-3.7,6-6.3,10.1s-5.8,9-9.1,15A132.2,132.2,0,0,0,56,358.8a74.1,74.1,0,0,0-2.6,7.5c-.7,2.5-1.3,5-1.8,7.3s-.6,4.6-.8,6.6a46.6,46.6,0,0,0,0,5.3c.1,1.4.2,2.6.3,3.4s.2,1.3.2,1.3a11.6,11.6,0,0,0-.1-1.3c-.1-.8-.2-2-.3-3.4s.1-3.3.2-5.3a57.4,57.4,0,0,1,1-6.5c.5-2.3,1.1-4.7,1.9-7.2s1.7-4.9,2.8-7.4a126.7,126.7,0,0,1,6.8-13.8c3.4-5.9,6.5-10.8,9.1-14.9s4.7-7.5,6.2-10.2a26,26,0,0,0,2.8-6.5,5.2,5.2,0,0,0,.1-1.7Z"/><path class="cls-11" d="M109.1,405.7s.1.4.2,1.1a20.6,20.6,0,0,1,.3,3.3c0,1.5,0,3.3-.2,5.5s-.3,4.7-.5,7.8-.4,4.5-.4,7a60.2,60.2,0,0,0,.3,7.4,19.1,19.1,0,0,0,.6,3.3c.2,1,.5,1.8.7,2.6a15.8,15.8,0,0,1,.7,1.6l.3.4h0a.5.5,0,0,1-.2-.4,7.3,7.3,0,0,1-.7-1.7,14.9,14.9,0,0,1-.7-2.5,28.8,28.8,0,0,1-.5-3.3,56.7,56.7,0,0,1-.2-7.2c.1-2.4.3-4.8.5-6.9s.4-5.6.6-7.8.1-4.1.1-5.6-.1-1.4-.2-2-.2-1.1-.3-1.5S109.2,405.7,109.1,405.7Z"/><path class="cls-11" d="M131.9,434.4c-.1,0-.1.1-.1.5v.5a3.1,3.1,0,0,1-.1.9,10.8,10.8,0,0,1-.5,2.5c-.3,1-.8,2.3-1.3,3.7a33.8,33.8,0,0,0-1.1,3.4,9.2,9.2,0,0,0-.1,3.3,3.6,3.6,0,0,0,1.2,2l.3.3.3.2.2.2-.2-.2c-.1-.1-.2-.1-.2-.2l-.3-.3a4.1,4.1,0,0,1-1-2.1,7.2,7.2,0,0,1,.4-3.2,25.3,25.3,0,0,1,1.2-3.3,34.6,34.6,0,0,0,1.3-3.8,7.3,7.3,0,0,0,.5-2.6,2.5,2.5,0,0,0-.1-.9c0-.2-.1-.4-.1-.6S132,434.3,131.9,434.4Z"/><path class="cls-11" d="M79.4,340.8c-.2.1-.1.6.8,1.3a11.5,11.5,0,0,0,5.2,2,92.1,92.1,0,0,0,11,1.4c4.6.3,10.2.5,16.5,1.1a137,137,0,0,1,14,1.7,51.7,51.7,0,0,1,12.2,3.7,24,24,0,0,1,7,4.7l1.5,1.7.5.7-.5-.7a12.9,12.9,0,0,0-1.3-1.8,23.5,23.5,0,0,0-6.7-5.1,48.2,48.2,0,0,0-12-4,110.8,110.8,0,0,0-13.9-2c-6.4-.6-11.9-.9-16.5-1.2a94.3,94.3,0,0,1-10.9-1.2,18.2,18.2,0,0,1-5.4-1.5C79.9,341,79.5,340.7,79.4,340.8Z"/><path class="cls-11" d="M87.4,366.5q0,.2.3.3l.5.3.7.3a19.1,19.1,0,0,0,5.1,1.2,59.5,59.5,0,0,0,8.9.3c3.6,0,7.8-.3,12.8-.3a52.3,52.3,0,0,1,5.6,0l5.8.4a37,37,0,0,1,5.8,1l2.7.7,1.3.5,1.3.4,2.4,1.1,1,.6,1,.6,1,.6.8.6.8.5.7.6,1.2,1a6,6,0,0,0,.8.8l.6.7-.6-.7-.8-.9-1.1-1-.7-.6-.8-.6-.8-.7-.9-.6-1-.6-1.1-.6a13.4,13.4,0,0,0-2.4-1.2l-1.2-.5-1.4-.5c-.9-.3-1.8-.7-2.7-.9a56,56,0,0,0-5.9-1.2l-5.9-.5h-5.6c-5,0-9.3.2-12.8.3a77.5,77.5,0,0,1-8.8-.2,28.8,28.8,0,0,1-5-.8l-.7-.2h-.5C87.5,366.4,87.4,366.4,87.4,366.5Z"/><path class="cls-11" d="M98.7,386.1c-.3.1-.3.5.1,1.2a10.9,10.9,0,0,0,3.8,2.1,51.9,51.9,0,0,0,9.2,2.2c4,.8,9.1,1.5,14.8,2.5a110.6,110.6,0,0,1,12,2.6c3.8,1.1,6.9,2.6,8.7,4.3a6.7,6.7,0,0,1,2.4,5.1,3.1,3.1,0,0,1-.1,1c0,.3-.1.6-.1.8a3.1,3.1,0,0,1-.2.7l.3-.7a4.6,4.6,0,0,0,.3-.9c.1-.3.1-.6.2-1a6.5,6.5,0,0,0-1.6-5.5c-1.5-1.9-4.3-3.5-7.9-4.8a80,80,0,0,0-11.7-3c-5.6-1.1-10.6-1.8-14.6-2.5s-7.2-1.4-9.4-2C100.5,386.9,99.5,385.8,98.7,386.1Z"/><path class="cls-11" d="M131.7,433.1c-.1.1,0,.3.4.6a4.4,4.4,0,0,0,1.9,1.2l1.6.6,2,.5,5.2.8c1.4.3,2.9.6,4.5,1.1a26.8,26.8,0,0,1,4.2,1.9,13,13,0,0,1,3,1.9l.9.6.3.2-.3-.2a2.9,2.9,0,0,0-.8-.7,30.6,30.6,0,0,0-2.9-2.2,25.6,25.6,0,0,0-8.8-3.6l-5.3-.9-3.4-.9C132.5,433.4,131.8,432.9,131.7,433.1Z"/><path class="cls-11" d="M81.7,313.7c-.1.1.2.5.9,1.3a15.6,15.6,0,0,0,3.8,2.7,39.9,39.9,0,0,0,7.6,2.8c3.2.9,7.1,1.7,11.6,2.5,6.4,1.1,14.3,2.2,20.3,4l4.2,1.3,1.7.7,1.4.7,1.2.6.8.5.7.4-.7-.4-.8-.6-1.1-.7-1.4-.7-1.7-.8-4.1-1.6c-6-2-13.8-3.4-20.2-4.7-4.5-.8-8.3-1.6-11.5-2.5a38.6,38.6,0,0,1-7.4-2.6C83.3,314.9,82,313.5,81.7,313.7Z"/><path class="cls-11" d="M108.9,406.6c-.2.2-.2.5.2,1.1a7.1,7.1,0,0,0,3.1,2.2,51.7,51.7,0,0,0,7.6,2.5l12.3,2.9a82.5,82.5,0,0,1,10,3,20.2,20.2,0,0,1,7.3,4.4,6.8,6.8,0,0,1,2.1,4.8c0,.3.1.7,0,.9a1.9,1.9,0,0,1-.1.8,2.8,2.8,0,0,0-.1.6,3.2,3.2,0,0,0,.2-.6c.1-.3.1-.5.2-.8s.1-.6.2-1a7.5,7.5,0,0,0-1.6-5.2,17.2,17.2,0,0,0-6.7-4.7,58.4,58.4,0,0,0-9.7-3.4l-12.1-3a63.4,63.4,0,0,1-7.7-2.3C110.4,407.4,109.5,406.4,108.9,406.6Z"/><path class="cls-12" d="M83.3,309.7a26.2,26.2,0,0,0-2,5.3,35.7,35.7,0,0,0-1.1,5.5,53.6,53.6,0,0,0-.6,11.3,83.9,83.9,0,0,0,1.3,11.1,26.1,26.1,0,0,0,.6,2.7l.6,2.7,1.5,5.4a139.4,139.4,0,0,0,8.7,20.7,189.7,189.7,0,0,0,11.6,19.3c1,1.6,2.2,3.1,3.2,4.6l3.3,4.6,3.5,4.5,1.7,2.3,1.8,2.2c2.3,2.9,4.7,5.9,7.2,8.7s4.9,5.8,7.5,8.6c10.1,11.3,20.9,22.1,31.6,33a301.1,301.1,0,0,1-35-29.8A235.7,235.7,0,0,1,98.9,397l-3.1-4.8c-1.1-1.7-2-3.4-3-5l-1.5-2.5c-.5-.9-.9-1.8-1.4-2.6s-1.8-3.4-2.6-5.2l-2.5-5.3-2.1-5.4-2-5.6c-.6-1.8-1-3.7-1.5-5.6a76.5,76.5,0,0,1-2.5-23.3,56.2,56.2,0,0,1,1.8-11.5A33.4,33.4,0,0,1,83.3,309.7Z"/><path class="cls-13" d="M84.2,307.6s50.4-.8,60.1,50.7c2.1,11.3-2.1,29.3-.1,40.6,10,55.8,12.2,45.3,18.1,60.2,0,0-9.5-18.6-12.2-53.1,0,0-1.7-31.6-2.3-36.8-1.9-16.9,1.1-28.5-19.2-48.1C128.6,321.1,99.2,293,84.2,307.6Z"/><path class="cls-8" d="M74.9,307.4s-28.5,2.7-32,42.1c0,0,1.4,69.9,55.7,88.6,0,0,52.5,15.8,58.8,20.9,0,0-11.6-4.4-32.4-8.7,0,0-43.5-11.6-59.3-30,0,0-31.7-22.5-27.5-77.1C38.2,343.2,37.3,303.5,74.9,307.4Z"/><path class="cls-7" d="M276.3,277.8s-12.6-9.9-23.4-7.2l-2.7,3.8s10.2-4,24.8,3.6Z"/><path class="cls-8" d="M250.2,274.4s10.1-4.3,24.8,3.6h.6s-15.2-9.1-24.9-4.2Z"/><path class="cls-9" d="M252.9,270.6s8.4-2,18.7,4.1c0,0-9.3-4.8-18.8-4Z"/><path class="cls-1" d="M357.2,361.2h-.4Z"/><path class="cls-14" d="M358.2,361.3h.1c.1.1.3.2.1.3h-.7s-.2-.1-.1-.2a.6.6,0,0,1,.6,0h.1l-.4.3h-.2s-.2-.1-.1-.2A.6.6,0,0,1,358.2,361.3Z"/><path class="cls-10" d="M289,314.4c-25.6-33.2-15.8-38.1-15.8-38.1-.8-5.4,9.4-12.4,31.8-1.8,17.2,8,18.7,17.8,28.8,43.8,11.5,29.1,22.8,38.6,24.9,39.5C345.5,352.9,308.2,339.1,289,314.4Z"/><path class="cls-7" d="M250.9,288.6c3.2-8.4,14.4-14,22.3-12.3,0,0-3.4,20.1,24.6,45.5,23.1,21,47.3,31,60.5,35.9l.3.2c-9.5-3-30.4,2.3-54.2-1C256,350.2,246.4,300.4,250.9,288.6Z"/><path class="cls-11" d="M301.1,356.4v-.3l-.5-.8a20.8,20.8,0,0,1-1.6-3.1,29.3,29.3,0,0,1-1.6-5.6,64.7,64.7,0,0,1-1.2-7.8c-.3-2.1-.5-4.4-.7-6.7s-.5-4.7-.9-6.8a28.6,28.6,0,0,0-1.5-5.5,7.6,7.6,0,0,0-.9-1.6c0-.1-.1-.1-.1-.2l-.2-.2a.1.1,0,0,0-.1-.1.1.1,0,0,1,.1.1l.2.2c0,.1.1.1.1.2a4.8,4.8,0,0,1,.8,1.6,22.2,22.2,0,0,1,1.4,5.4c.3,2.1.6,4.4.8,6.7s.3,4.6.6,6.7.7,5.6,1.1,7.9a28.4,28.4,0,0,0,1.8,5.6,13.9,13.9,0,0,0,1.7,3.3l.6.7Z"/><path class="cls-11" d="M277.5,298.3c-.1,0,.2.4.5,1.3s.3,1.1.4,1.8a9,9,0,0,1,.3,2.5,44.3,44.3,0,0,1-.1,7.2c-.2,3-.6,6.4-.9,10.5a71.7,71.7,0,0,0-.2,9.4,37.7,37.7,0,0,0,1.2,9.6,41.3,41.3,0,0,0,1.4,4.2c.6,1.2,1.2,2.3,1.7,3.1a10.5,10.5,0,0,0,.8,1.1l.6.8.5.7-.5-.7-.6-.8-.7-1.1a15.9,15.9,0,0,1-1.6-3.2,21.9,21.9,0,0,1-1.3-4.1,36.4,36.4,0,0,1-1.1-9.5c-.1-3.3.1-6.5.3-9.4s.7-7.4.9-10.4a45.5,45.5,0,0,0,.1-7.3,17.8,17.8,0,0,0-.4-2.6,7.8,7.8,0,0,0-.5-1.8C277.8,298.6,277.5,298.2,277.5,298.3Z"/><path class="cls-11" d="M272.5,277.8a11.3,11.3,0,0,1,.2,1.4,21.2,21.2,0,0,1-.7,4.6c-.4,2-1.1,4.6-1.9,7.8s-1.8,7-2.6,11.6a81.6,81.6,0,0,0-1.4,10.4c-.1,1.9-.1,3.7-.1,5.4a40.1,40.1,0,0,0,.5,5.1,43.8,43.8,0,0,0,.8,4.4l1.1,3.4c.4.9.7,1.7,1,2.2l.3.7-.3-.7-.9-2.2c-.3-1-.7-2.1-1-3.4a27,27,0,0,1-.7-4.4,40.7,40.7,0,0,1-.3-5,48.7,48.7,0,0,1,.2-5.4,104.7,104.7,0,0,1,1.4-10.4c.9-4.5,1.9-8.3,2.7-11.5s1.5-5.8,1.8-7.9a18.2,18.2,0,0,0,.5-4.7,5.3,5.3,0,0,0-.3-1.1C272.6,277.8,272.5,277.8,272.5,277.8Z"/><path class="cls-11" d="M310.2,332.6l.4.6.9,2.1a31.9,31.9,0,0,1,1,3.5l1.3,5.2c.4,1.4.8,3,1.3,4.6s1.1,3.2,1.7,4.7l1.1,1.9a11.1,11.1,0,0,0,1.1,1.6l.8.9.2.2h0l-.2-.3-.8-.9a9.7,9.7,0,0,1-1-1.5,11.4,11.4,0,0,1-1-1.9,42.8,42.8,0,0,1-1.7-4.6c-.4-1.6-.8-3.2-1.2-4.6s-.8-3.7-1.2-5.2l-1.1-3.6a6.7,6.7,0,0,0-.6-1.2,1.9,1.9,0,0,0-.5-.9C310.5,332.7,310.3,332.5,310.2,332.6Z"/><path class="cls-11" d="M331,346.2q-.2,0,0,.3c0,.1.1.2.1.4s.1.3.2.5.1,1,.2,1.7a26.2,26.2,0,0,1-.1,2.7v2.4a4.4,4.4,0,0,0,.7,2.1,2.1,2.1,0,0,0,1.2,1.1c.1.1.2.1.2.2h.3c-.1,0-.2,0-.2-.1h-.3a3.3,3.3,0,0,1-1.1-1.2,6,6,0,0,1-.4-2.1,19.3,19.3,0,0,1,.1-2.4c0-1,.1-1.9.1-2.7s-.2-1.3-.3-1.8a1.7,1.7,0,0,1-.2-.5l-.3-.4Z"/><path class="cls-11" d="M277.3,297.1c-.1.1.1.4.8.7a8.4,8.4,0,0,0,3.8.2,53.5,53.5,0,0,0,7.4-1.5l10.8-2.8c3-.7,6.3-1.4,9.4-1.8a31.8,31.8,0,0,1,8.6-.3,17.3,17.3,0,0,1,5.5,1.6l1.3.8.5.3-.4-.4-1.3-.8a15.9,15.9,0,0,0-5.4-1.9,30.1,30.1,0,0,0-8.5,0,68.1,68.1,0,0,0-9.4,1.7c-4.2.9-7.9,1.9-10.9,2.7a72.6,72.6,0,0,1-7.3,1.6,16.1,16.1,0,0,1-3.7.1C277.7,297.2,277.4,297,277.3,297.1Z"/><path class="cls-11" d="M287.9,312h1.2a12.8,12.8,0,0,0,3.6-.3,33.6,33.6,0,0,0,5.7-1.7l8.2-2.9,3.6-1.2,3.8-1,3.9-.6h3.8l1.8.2h.8l.7.2h.8l.6.2.7.2.5.3,1,.4.7.3.6.3-.6-.3-.7-.4-.9-.4-.6-.3-.6-.2-.7-.2-.7-.2-.8-.2-.8-.2-1.8-.2h-3.8a28.7,28.7,0,0,0-4.1.5,27.4,27.4,0,0,0-3.9.9l-3.6,1.1-8.2,2.9-5.7,1.8a19.7,19.7,0,0,1-3.4.5h-.8C288,311.9,287.9,311.9,287.9,312Z"/><path class="cls-11" d="M299.4,322.2c-.2.1-.1.4.3.7a8.5,8.5,0,0,0,2.9.6,48.6,48.6,0,0,0,6.4-.6c2.7-.3,6.1-1,10-1.5a80.9,80.9,0,0,1,8.3-.9,15,15,0,0,1,6.5.9,4.4,4.4,0,0,1,2.6,2.8,1.9,1.9,0,0,1,.2.7.7.7,0,0,0,.1.5V324a4.9,4.9,0,0,0-2.2-3.2,14.1,14.1,0,0,0-6.1-1.4,57.6,57.6,0,0,0-8.2.6l-9.9,1.5-6.5.7C300.7,322.3,299.8,321.8,299.4,322.2Z"/><path class="cls-11" d="M330.6,345.4c-.1.1.1.2.3.3l1.5.4H335l3.5-.6,3.1-.2a14.8,14.8,0,0,1,3.1.3,24.2,24.2,0,0,1,2.4.5l.7.3h0l-.7-.2a8.7,8.7,0,0,0-2.3-.8,11.3,11.3,0,0,0-3.2-.5h-3.3l-3.5.6a10.4,10.4,0,0,1-2.4.1C331.2,345.4,330.6,345.2,330.6,345.4Z"/><path class="cls-11" d="M273.1,279.2c-.1.1.2.3.8.6a12.8,12.8,0,0,0,3,1,30.8,30.8,0,0,0,5.5.2c2.3-.1,4.9-.5,8-.9s9.7-1.6,13.9-1.8h5.3l.9.2h.6l.5.2-.5-.2-.6-.2-.9-.2-1.1-.2h-1.2a14.5,14.5,0,0,0-3-.1c-4.2-.1-9.6.7-14,1.2l-7.9.9a42.5,42.5,0,0,1-5.3-.1C274.3,279.6,273.2,279,273.1,279.2Z"/><path class="cls-11" d="M310.3,333.2c-.1.1-.1.4.3.7a8.7,8.7,0,0,0,2.5.7h5.5l8.4-.8a56.1,56.1,0,0,1,7.1-.1,13.7,13.7,0,0,1,5.6,1.2,5.3,5.3,0,0,1,2.5,2.7,1.4,1.4,0,0,0,.2.6v.5a1.6,1.6,0,0,1,.1.4v-1a6.4,6.4,0,0,1-.2-.7,5.3,5.3,0,0,0-2-3,12.8,12.8,0,0,0-5.4-1.6,39.6,39.6,0,0,0-6.9-.1l-8.4.7a54.8,54.8,0,0,1-5.5.1C311.4,333.4,310.7,332.9,310.3,333.2Z"/><path class="cls-12" d="M273.2,276.3a24.1,24.1,0,0,0,0,3.8c.2,1.3.3,2.6.6,3.8a35.3,35.3,0,0,0,2.2,7.2,54.3,54.3,0,0,0,7.5,13c5.9,8,13.4,14.9,21.4,21.1a244.8,244.8,0,0,0,25.5,16.9c8.8,5.2,17.9,10.1,27,15.2a181.5,181.5,0,0,1-29.3-11,150.3,150.3,0,0,1-26.8-16.4c-8.4-6.5-16.1-14-21.7-23.2a49.4,49.4,0,0,1-6.4-14.7,35.6,35.6,0,0,1-1-7.9A20.2,20.2,0,0,1,273.2,276.3Z"/><path class="cls-13" d="M273.4,274.8s32.2-11.2,49.4,19.8c3.8,6.8,4.8,19.3,8.6,26.1,18.3,33.8,17.4,26.6,24.4,34.9,0,0-10.1-9.9-19.1-31.6,0,0-7.8-19.9-9.3-23.2-4.9-10.4-5.4-18.5-22.6-26.8C304.8,274,279.9,262.2,273.4,274.8Z"/><path class="cls-8" d="M267.4,276.6s-17.8,7.8-11.7,33.9c0,0,15.8,44.6,54.6,45.1,0,0,37.2-.9,42.3,1a152.1,152.1,0,0,0-22.7,1.3s-30.4,1.7-44.5-6.7c0,0-25.2-7.8-34-43.8C251.4,307.4,242.3,282.1,267.4,276.6Z"/><path class="cls-7" d="M191,194.5s-11.8-4.2-19.2.4l-1,3.6s6.6-5.5,19.3-3.5Z"/><path class="cls-8" d="M170.8,198.5s6.4-5.7,19.3-3.5l.4-.2s-13.6-3-19.5,3Z"/><path class="cls-9" d="M171.8,194.9s5.8-3.5,14.9-1.5c0,0-8.1-1.3-15,1.7Z"/><path class="cls-1" d="M272,236.6h0Z"/><path class="cls-14" d="M272.7,236.5h.1c.1-.1.3,0,.2.1h-.5c-.1,0-.3,0-.2-.1h.5c-.1,0-.1.1-.2.2h-.1c-.1,0-.3,0-.2-.1Z"/><path class="cls-10" d="M209.6,218.6c-27.4-18.3-21.3-24.5-21.3-24.5-1.9-3.8,4-11.5,23.3-9.2,14.8,1.8,18.3,8.7,32.3,25.5,15.8,18.9,26.5,23.2,28.3,23.3C261.2,233.3,230,232.3,209.6,218.6Z"/><path class="cls-7" d="M174.8,208.9c.3-7.1,7.3-14,13.5-14.8,0,0,2.5,15.9,29.6,27.9,22.5,9.9,43,11.4,54.1,11.8h.2c-7.8.2-22.1,9.3-40.6,12.7C193.8,253.5,174.4,218.8,174.8,208.9Z"/><path class="cls-11" d="M229,246.9h-.2l-.5-.5a12.3,12.3,0,0,1-2-2,21.1,21.1,0,0,1-2.6-3.7c-.9-1.5-1.8-3.4-2.8-5.5s-1.5-3.2-2.2-4.9l-2.4-4.8a19.8,19.8,0,0,0-2.4-3.7l-1.1-1h0l1,1a19.8,19.8,0,0,1,2.4,3.7c.7,1.5,1.5,3.1,2.2,4.8l2.1,4.9a45.9,45.9,0,0,0,2.9,5.5,27.4,27.4,0,0,0,2.6,3.8,11.9,11.9,0,0,0,2.2,2l.6.4Z"/><path class="cls-11" d="M197,209.5c-.1,0,.2.3.7.9l.8,1.2.8,1.8a44.1,44.1,0,0,1,1.7,5.4c.5,2.2,1.1,4.9,1.9,8s1.3,4.6,2.2,7.1a39.9,39.9,0,0,0,3.3,6.9,31.7,31.7,0,0,0,2.1,2.7,17,17,0,0,0,2,1.9l.8.6.7.5.6.3-.6-.3-.6-.5-.9-.6a25,25,0,0,1-3.9-4.7,30.3,30.3,0,0,1-3.2-6.8c-.9-2.5-1.5-4.9-2.1-7.1s-1.3-5.7-1.9-8a36.4,36.4,0,0,0-1.7-5.5,15,15,0,0,0-.9-1.8l-.9-1.2Z"/><path class="cls-11" d="M188.2,195.4c-.1.1.2.4.5,1.1a26.7,26.7,0,0,1,.6,3.5c.2,1.7.3,3.8.5,6.4s.4,5.6.9,9.2.9,5.4,1.6,8.2c.4,1.3.8,2.7,1.3,4s1,2.5,1.6,3.7a21.4,21.4,0,0,0,1.7,3l1.7,2.3,1.2,1.4.5.5-.5-.5-1.2-1.4-1.6-2.3c-.5-.9-1.1-2-1.6-3.1l-1.5-3.7-1.2-4c-.6-2.8-1.1-5.6-1.4-8.1s-.7-6.7-.9-9.3-.4-4.6-.6-6.3a15.1,15.1,0,0,0-.8-3.6l-.5-.8Z"/><path class="cls-11" d="M229.9,226.9l.4.4,1.2,1.3,1.7,2.4c.6,1,1.3,2.2,2.2,3.5s1.3,2.1,2.1,3.2a35,35,0,0,0,2.4,3l1.3,1.2,1.2.9.8.5h0l-.8-.5-1.1-.9-1.3-1.2a34,34,0,0,1-2.3-3c-.8-1.1-1.4-2.2-2-3.2l-2.3-3.5a19.1,19.1,0,0,0-1.7-2.4l-.7-.8-.6-.5Z"/><path class="cls-11" d="M248.7,231.9v.3c.1,0,.1.1.2.2a.5.5,0,0,1,.2.4,6.7,6.7,0,0,1,.6,1.2c.2.6.4,1.2.6,2a13.4,13.4,0,0,0,.7,1.8,2.8,2.8,0,0,0,.9,1.4,2.7,2.7,0,0,0,1.2.6h.2c0-.1-.1-.1-.2-.1a1.8,1.8,0,0,1-1-.6,3.8,3.8,0,0,1-.9-1.5,12.1,12.1,0,0,1-.5-1.8l-.7-2a5.3,5.3,0,0,0-.6-1.3l-.3-.3-.2-.2Z"/><path class="cls-11" d="M196.6,208.7c-.1.1.1.2.7.3a7.4,7.4,0,0,0,2.9-.8,29.9,29.9,0,0,0,5.1-3l7.4-4.7a70.1,70.1,0,0,1,6.6-3.7,27,27,0,0,1,6.3-2.3,11.9,11.9,0,0,1,4.5-.2l1.2.2.4.2-.4-.2-1.2-.4a12.7,12.7,0,0,0-4.4,0,28,28,0,0,0-6.4,2.1,46.4,46.4,0,0,0-6.6,3.6c-2.9,1.7-5.4,3.4-7.4,4.7l-5,3a13.9,13.9,0,0,1-2.8,1Z"/><path class="cls-11" d="M208.2,217.1h.9a9.7,9.7,0,0,0,2.6-1.1,28,28,0,0,0,3.9-2.7l5.3-4.2,2.4-1.8,2.6-1.7,2.8-1.4,1.4-.5.7-.3.7-.2,1.3-.2.7-.2h-.7l-1.4.2-.7.2-.7.2-1.5.5-2.9,1.4-2.7,1.6-2.4,1.7-5.4,4.3-3.8,2.7-2.4,1.2-.3.2h-.4Z"/><path class="cls-11" d="M219.2,221.9c-.1.1.1.3.4.4a4.2,4.2,0,0,0,2.3-.3,38.2,38.2,0,0,0,4.7-1.9l7-3.7a62.1,62.1,0,0,1,6-2.7,13.4,13.4,0,0,1,5.1-.9,3.2,3.2,0,0,1,2.6,1.4c.1.2.3.3.3.5a.5.5,0,0,1,.2.4l.2.3a1.1,1.1,0,0,1-.2-.4,1.1,1.1,0,0,0-.1-.5c-.1-.1-.1-.3-.2-.5a3.9,3.9,0,0,0-2.4-1.8,10.2,10.2,0,0,0-5,.5,36.6,36.6,0,0,0-5.9,2.4l-7,3.6c-2,1-3.5,1.6-4.7,2.1S219.5,221.5,219.2,221.9Z"/><path class="cls-11" d="M248.2,231.5h1.6l.8-.3,1-.4,2.5-1.3a15.7,15.7,0,0,1,2.3-.9l2.4-.6,1.9-.2h0a6,6,0,0,0-1.9,0,8.2,8.2,0,0,0-2.6.4l-2.4.8-2.5,1.3a5.6,5.6,0,0,1-1.7.7C248.7,231.3,248.2,231.3,248.2,231.5Z"/><path class="cls-11" d="M189,196.4l.7.2a6.8,6.8,0,0,0,2.5,0,28.6,28.6,0,0,0,4.2-1.2l5.7-2.7c3.1-1.5,6.8-3.5,9.9-4.7l2.2-.8,1-.2.8-.2h0l-.8.2-1,.2-2.2.6a82.6,82.6,0,0,0-10.2,4.4l-5.7,2.6a24,24,0,0,1-4,1.2C190,196.4,189,196.2,189,196.4Z"/><path class="cls-11" d="M230.1,227.4c-.1.1,0,.3.4.4a4.8,4.8,0,0,0,2-.1,22.8,22.8,0,0,0,4.1-1.3l6.1-2.7a47.6,47.6,0,0,1,5.3-1.9,11.8,11.8,0,0,1,4.4-.4,3.9,3.9,0,0,1,2.5,1.3l.3.5.2.3a.8.8,0,0,1,.1.3.8.8,0,0,0-.1-.3v-.4l-.3-.5a3.5,3.5,0,0,0-2.3-1.7,9.4,9.4,0,0,0-4.4.1,34.5,34.5,0,0,0-5.2,1.6l-6.1,2.6-4,1.5C231,227.3,230.3,227.1,230.1,227.4Z"/><path class="cls-12" d="M188.3,194.1a24.9,24.9,0,0,0,1.1,2.9,21.5,21.5,0,0,0,1.4,2.6,27.9,27.9,0,0,0,3.6,4.7,46.3,46.3,0,0,0,8.8,7.7,93.2,93.2,0,0,0,21.1,10.1c7.5,2.6,15.2,4.6,23,6.5s15.8,3.3,23.8,5.1a126.6,126.6,0,0,1-24.6-.5,114.2,114.2,0,0,1-24.2-5.4c-7.8-2.8-15.5-6.6-22-12.1a42.2,42.2,0,0,1-8.3-9.6,33.8,33.8,0,0,1-2.7-5.8A18.7,18.7,0,0,1,188.3,194.1Z"/><path class="cls-13" d="M188.1,193s21.2-16.4,41.7,2.5c4.5,4.2,8.4,13.2,12.9,17.4,22,20.6,19.6,15.4,26.9,19.9,0,0-10-4.9-22.1-18.8,0,0-10.8-12.9-12.7-15-6.2-6.6-8.6-12.5-23.5-14.4C211.3,184.6,189.8,182,188.1,193Z"/><path class="cls-8" d="M184.1,195.8s-11.4,10.3-.3,28.2c0,0,22.8,29.4,51.9,20.1,0,0,27.4-9.9,31.7-9.7a114.8,114.8,0,0,0-16.6,6.5s-22.2,8.9-34.8,6c0,0-20.7.5-36.2-24.1C179.8,222.8,166.8,206.1,184.1,195.8Z"/></g></g></g></g></g></svg>