<svg xmlns="http://www.w3.org/2000/svg" xmlns:xlink="http://www.w3.org/1999/xlink" viewBox="0 0 443.8 451.5"><defs><style>.cls-1{fill:none;}.cls-2{isolation:isolate;}.cls-3{opacity:0.5;}.cls-4{fill:url(#linear-gradient);}.cls-5{fill:#31d0e5;stroke-width:6px;stroke:url(#linear-gradient-2);}.cls-5,.cls-8,.cls-9{stroke-miterlimit:10;}.cls-6{clip-path:url(#clip-path);}.cls-7{fill:#353535;}.cls-8{fill:#48bc28;stroke:#45a525;}.cls-9{fill:#41a022;stroke:#38841c;stroke-width:0.5px;}.cls-10,.cls-11{fill:#b0e573;}.cls-10{mix-blend-mode:screen;opacity:0.69;}.cls-12{fill:#b6f261;}.cls-12,.cls-14{opacity:0.51;}.cls-13{fill:#204910;opacity:0.32;}.cls-14{fill:#8fc12f;}</style><linearGradient id="linear-gradient" x1="43.17" y1="103.28" x2="392.43" y2="342.6" gradientUnits="userSpaceOnUse"><stop offset="0" stop-color="#9b81cf"/><stop offset="1" stop-color="#3b139b"/></linearGradient><linearGradient id="linear-gradient-2" x1="16.1" y1="225.74" x2="427.68" y2="225.74" gradientUnits="userSpaceOnUse"><stop offset="0" stop-color="#4c1da9"/><stop offset="1" stop-color="#997ece"/></linearGradient><clipPath id="clip-path"><circle class="cls-1" cx="222.6" cy="226.4" r="199.8"/></clipPath></defs><g class="cls-2"><g id="SB39_Interactive_Icon_13_F1"><path class="cls-3" d="M435.1,237a208.3,208.3,0,0,0-25.4-100A211.6,211.6,0,0,0,221.9,23C105,23,10.2,117.8,10.2,234.7S105,446.3,221.9,446.3c3,0,5.9,0,8.9-.2C344.1,443.6,435.1,350.9,435.1,237Z"/><circle class="cls-4" cx="221.9" cy="225.7" r="211.7"/><circle class="cls-5" cx="221.9" cy="225.7" r="202.8"/><g id="_001" data-name="001"><g class="cls-6"><g id="_011" data-name="011"><path class="cls-1" d="M189.5,123.3v-.2l-.3-.4A2.1,2.1,0,0,1,189.5,123.3Z"/><path class="cls-7" d="M190.5,124.3h.1c.1.1.2.4-.1.4s-.5-.3-.6-.5h-.1c-.1-.1-.2-.5,0-.4s.5.2.7.5a.1.1,0,0,0,.1.1h-.8c-.1-.2-.2-.4,0-.4S190.3,124.1,190.5,124.3Z"/><path class="cls-8" d="M153.9,6.4c1-61.9,16.9-58.5,16.9-58.5,3.9-7,22.1-5.6,38.3,27.2C221.6.3,214.2,12.9,202,52.2c-13.6,44.2-9.3,65.5-7.7,68.5C183.6,102.8,153.3,52.7,153.9,6.4Z"/><path class="cls-9" d="M133.7-58.4c11.4-6.7,29.5-2.8,37.1,6.3,0,0-22.5,20.1-13.7,75.2,7.3,45.5,26.1,79.4,36.8,97.2l.3.5c-8.3-12.2-37.3-25.4-61.7-51.1C82.8,17.4,117.7-48.9,133.7-58.4Z"/><path class="cls-10" d="M129.2,66v-.4a6.6,6.6,0,0,1,.1-1.3,24.3,24.3,0,0,1,1.1-5.2,54.5,54.5,0,0,1,3.2-7.9c1.5-3,3.5-6.3,5.8-10l5.5-8.5c1.8-2.9,3.6-5.9,5.2-8.7a32.8,32.8,0,0,0,3.2-7.6,11.4,11.4,0,0,0,.5-2.6.9.9,0,0,0,.1-.5v0c0,.2-.1.3-.1.5a9.9,9.9,0,0,1-.5,2.5,32,32,0,0,1-3.4,7.5c-1.5,2.7-3.4,5.6-5.3,8.4s-3.8,5.7-5.5,8.4a104.3,104.3,0,0,0-5.8,10.1,44.6,44.6,0,0,0-3.3,8.1,33.7,33.7,0,0,0-1,5.4v1.4A.6.6,0,0,0,129.2,66Z"/><path class="cls-10" d="M155.4-22.8a19.6,19.6,0,0,0-.7,2.1,12.2,12.2,0,0,1-1.1,2.4,29.5,29.5,0,0,1-1.9,3.2,91.2,91.2,0,0,1-6.9,8.2c-2.9,3.2-6.5,6.8-10.6,11.2s-6,6.8-8.9,10.7a60.5,60.5,0,0,0-7.5,12.3,39.1,39.1,0,0,0-2.1,6,42.5,42.5,0,0,0-1,5.2c-.1.7-.1,1.4-.2,2V42a6.6,6.6,0,0,0,.1-1.5c.1-.6.1-1.3.2-2a29.5,29.5,0,0,1,1.1-5.1,30.5,30.5,0,0,1,2.2-5.9,66.5,66.5,0,0,1,7.5-12A122.8,122.8,0,0,1,134.7,5L145.3-6.2a67.8,67.8,0,0,0,6.8-8.3,26.7,26.7,0,0,0,2-3.4,14.9,14.9,0,0,0,1-2.6C155.5-22,155.5-22.8,155.4-22.8Z"/><path class="cls-10" d="M168.6-51c-.2,0-.3.7-1.2,1.8a32.3,32.3,0,0,1-4.9,4.7L153-37.3c-3.9,3-8.5,6.5-13.6,11a112.6,112.6,0,0,0-11.2,10.8,72.8,72.8,0,0,0-5.1,6.2,56.5,56.5,0,0,0-4.2,6.2,66.1,66.1,0,0,0-3,5.9A40.1,40.1,0,0,0,114,7.7c-.4,1.4-.7,2.6-.9,3.4l-.3,1.2.3-1.2c.2-.8.6-1.9,1-3.3s1.2-3.1,2-4.9a56.7,56.7,0,0,1,3.2-5.7,56.8,56.8,0,0,1,4.3-6.1,73.4,73.4,0,0,1,5.1-6A137.2,137.2,0,0,1,140-25.5c5.2-4.4,9.8-7.9,13.6-10.8s7.1-5.4,9.4-7.4a30.8,30.8,0,0,0,4.9-5.1,6.4,6.4,0,0,0,.7-1.6A.9.9,0,0,0,168.6-51Z"/><path class="cls-10" d="M161.6,47a5.4,5.4,0,0,1-.2,1.1,29.1,29.1,0,0,1-.8,3.2c-.5,1.3-1.2,3-2.1,5l-3.2,7.1c-.9,2-1.9,4.2-2.8,6.5a63.5,63.5,0,0,0-2.3,7,23.3,23.3,0,0,0-.6,3.3c-.1,1-.2,1.9-.2,2.7s.1,1.4.1,1.8.1.3.1.5h0c0-.2-.1-.3-.1-.5a10.5,10.5,0,0,1,0-1.8,13.2,13.2,0,0,1,.2-2.7c.1-1,.4-2,.6-3.2a69.5,69.5,0,0,1,2.4-6.8c.9-2.2,1.9-4.4,2.8-6.3l3.3-7.1a47.5,47.5,0,0,0,2-5.2,10.8,10.8,0,0,0,.6-2,7.8,7.8,0,0,0,.2-1.4Q161.8,47,161.6,47Z"/><path class="cls-10" d="M173,81.7c-.1,0-.2.2-.3.5l-.2.5a4.1,4.1,0,0,1-.3.8,12.7,12.7,0,0,1-1.4,2.2l-2.5,3a20.4,20.4,0,0,0-2.1,2.8,6.6,6.6,0,0,0-1.3,3,4.3,4.3,0,0,0,.4,2.4c.1.1.1.3.2.4l.2.2v0l-.2-.3c0-.1-.1-.2-.1-.3a4.5,4.5,0,0,1-.2-2.4,7.7,7.7,0,0,1,1.5-2.8,32,32,0,0,1,2.2-2.7,28.4,28.4,0,0,0,2.6-3.1,10.1,10.1,0,0,0,1.4-2.3,3.1,3.1,0,0,0,.2-.8,1.3,1.3,0,0,0,.1-.6C173.2,81.9,173.1,81.7,173,81.7Z"/><path class="cls-10" d="M156.3-24.2c-.2,0-.3.5.3,1.5a14.9,14.9,0,0,0,4.2,3.7,79.2,79.2,0,0,0,9.9,5.1c4.2,1.9,9.3,4,15,6.7A136.8,136.8,0,0,1,198.3-.7,53.4,53.4,0,0,1,208.4,7a22,22,0,0,1,4.9,6.8,12.3,12.3,0,0,1,.8,2.2l.3.8-.2-.8a10.6,10.6,0,0,0-.7-2.2A21.3,21.3,0,0,0,209,6.7a48.8,48.8,0,0,0-9.8-7.9,106.4,106.4,0,0,0-12.4-6.7c-5.7-2.8-10.8-5-15-6.9a93.5,93.5,0,0,1-9.9-4.8,19.6,19.6,0,0,1-4.4-3.4C156.7-23.8,156.5-24.2,156.3-24.2Z"/><path class="cls-10" d="M154.9,2.6c-.1.1,0,.2.2.5l.3.4.6.5a19,19,0,0,0,4.4,3,49.3,49.3,0,0,0,8.2,3.3l12.1,4.1,5.2,2,5.4,2.4a49.9,49.9,0,0,1,5,2.9l2.3,1.7,1.1.8,1,.9a17,17,0,0,1,1.9,1.9l.8.9.7.9.7.8.6.9.5.8.5.8c.2.5.5.9.7,1.3l.5,1.1.4.8-.4-.9c-.1-.2-.2-.6-.4-1s-.4-.9-.7-1.4a5.9,5.9,0,0,1-.4-.8,2.2,2.2,0,0,1-.5-.8l-.6-.9-.6-.9-.8-1-.8-.9a10.7,10.7,0,0,0-1.8-1.9,4.7,4.7,0,0,0-1-1l-1-.9-2.4-1.8c-1.6-1.1-3.3-2.1-5-3.1s-3.6-1.8-5.4-2.6l-5.2-2c-4.7-1.8-8.8-3-12.2-4.2s-6-2.2-8.1-3.2a25,25,0,0,1-4.4-2.5l-.6-.4-.4-.3Z"/><path class="cls-10" d="M158.7,25c-.3,0-.5.4-.3,1.1a10.7,10.7,0,0,0,2.8,3.3,59.3,59.3,0,0,0,7.8,5.3c3.6,2.1,8.1,4.5,13,7.4a97.6,97.6,0,0,1,10.4,6.7,23.9,23.9,0,0,1,6.7,7,7.1,7.1,0,0,1,.5,5.6l-.4,1-.5.7a1.7,1.7,0,0,0-.4.6l.5-.6.6-.7.6-.9a6.5,6.5,0,0,0,.4-5.7c-.8-2.3-2.9-4.8-5.8-7.3a66.3,66.3,0,0,0-9.9-6.8c-4.9-3-9.3-5.4-12.8-7.5s-6.3-3.8-8.1-5.1C160,26.3,159.5,25,158.7,25Z"/><path class="cls-10" d="M173.3,80.5c-.1.1-.1.3.1.7a6.3,6.3,0,0,0,1.4,1.8l1.3,1.1,1.7,1.1,4.6,2.6a28.6,28.6,0,0,1,3.8,2.6,25.1,25.1,0,0,1,3.3,3.2,20.1,20.1,0,0,1,2.2,2.9l.6.8a.6.6,0,0,1,.2.4.6.6,0,0,0-.2-.4l-.4-.9c-.5-.8-1.1-1.9-2-3.1a33.9,33.9,0,0,0-3.2-3.5,32.7,32.7,0,0,0-3.9-2.9l-4.5-2.7a13.2,13.2,0,0,1-2.9-1.9C174,81.1,173.5,80.4,173.3,80.5Z"/><path class="cls-10" d="M161.1,47.8c-.3,0-.4.3-.2,1a7.3,7.3,0,0,0,2.2,3.1,35.1,35.1,0,0,0,6.3,5c2.8,2,6.4,4.3,10.4,7a75.4,75.4,0,0,1,8.3,6.3,20.6,20.6,0,0,1,5.4,6.7,6.8,6.8,0,0,1,.3,5.2l-.3.9a4.3,4.3,0,0,1-.4.7l-.3.5.4-.5.5-.7a5.6,5.6,0,0,0,.5-.8,7.9,7.9,0,0,0,.4-5.4,17.8,17.8,0,0,0-4.7-6.8,62.1,62.1,0,0,0-7.9-6.5c-3.9-2.8-7.5-5.1-10.3-7a76.3,76.3,0,0,1-6.5-4.9C162.2,49,161.8,47.8,161.1,47.8Z"/><path class="cls-11" d="M170.8-52.1a26.1,26.1,0,0,0-3.7,4.4,38.8,38.8,0,0,0-3,4.8,63,63,0,0,0-4.5,10.3A78.7,78.7,0,0,0,157-21.7a25.1,25.1,0,0,0-.4,2.7l-.4,2.8c-.1,1.9-.3,3.7-.4,5.6a129.7,129.7,0,0,0,1,22.4,186.6,186.6,0,0,0,4.1,22.1c.4,1.8,1,3.6,1.4,5.5l1.5,5.4,1.7,5.4.8,2.7.9,2.7c1.2,3.6,2.4,7.2,3.8,10.7s2.6,7.2,4,10.7c5.6,14.1,11.9,28,18.2,41.9a296.5,296.5,0,0,1-22.5-40.1c-6.4-13.9-12-28.4-15.6-43.5l-1.3-5.7c-.4-1.9-.7-3.8-1-5.7l-.6-2.9a27,27,0,0,0-.4-2.8c-.2-2-.5-3.9-.7-5.8l-.4-5.9V.7a58.1,58.1,0,0,1,.1-5.9c.1-1.9.3-3.9.5-5.8a77.3,77.3,0,0,1,5.7-22.7,56.2,56.2,0,0,1,5.8-10.1A33.6,33.6,0,0,1,170.8-52.1Z"/><path class="cls-12" d="M172.3-53.7s47.5,16.8,38.8,68.4c-1.9,11.4-12.2,26.7-14.2,38.1-10,55.8-4.3,46.7-3.9,62.7,0,0-2.5-20.7,7-54,0,0,9.4-30.2,10.6-35.4,4.1-16.5,10.9-26.3-1.3-51.7C209.3-25.6,191.5-62.2,172.3-53.7Z"/><path class="cls-13" d="M163.7-57.1S136-64.5,119.1-28.8c0,0-23,66.1,21.4,102.5,0,0,43.7,33.1,47.8,40,0,0-9.2-8.1-27.3-19.3,0,0-36.7-26.1-45.1-48.8,0,0-21.9-32.2,1-81.8C116.9-36.2,129.8-73.8,163.7-57.1Z"/><path class="cls-9" d="M257.6,443.6s-5.7-15-16.3-18.3l-4.2,2s10.7,1.8,19.3,15.8Z"/><path class="cls-13" d="M237.1,427.3s10.8,1.5,19.3,15.8l.6.3s-8.4-15.7-19.1-16.5Z"/><path class="cls-14" d="M241.3,425.3s8.2,2.8,13.9,13.2c0,0-5.4-8.9-14.1-13.1Z"/><path class="cls-8" d="M249.6,481.5c-4.8-41.7,6.2-40.8,6.2-40.8,2-5,14.4-5.7,28.1,14.9,10.6,15.8,6.7,25,2,52.4-5.3,30.9-.5,44.8.8,46.7C277.9,543.7,253.2,512.6,249.6,481.5Z"/><path class="cls-9" d="M230.3,439.7c7.1-5.5,19.6-4.5,25.5,1,0,0-13.4,15.5-2.6,51.7,8.9,30,24.5,51,33.2,62.1l.2.3c-6.6-7.5-27.3-13.8-45.9-28.9C202.8,495.1,220.4,447.5,230.3,439.7Z"/><path class="cls-10" d="M254.4,441.7c-.1-.1-.1.4-.7,1.3a20.6,20.6,0,0,1-2.9,3.5c-1.4,1.6-3.3,3.4-5.7,5.7s-5.1,5.1-8.2,8.6a81.3,81.3,0,0,0-6.6,8.2c-1,1.5-2,3.1-2.8,4.6a39.4,39.4,0,0,0-2.3,4.6q-.9,2.3-1.5,4.2a19,19,0,0,0-.8,3.5,13.1,13.1,0,0,0-.3,2.3,6.2,6.2,0,0,0-.1.9,6.2,6.2,0,0,1,.1-.9,15.9,15.9,0,0,1,.4-2.3,29,29,0,0,1,.9-3.4,32.2,32.2,0,0,1,1.6-4.2c.7-1.4,1.4-2.9,2.3-4.5a42.7,42.7,0,0,1,3-4.4,92.5,92.5,0,0,1,6.6-8.1c3.1-3.4,5.9-6.2,8.2-8.5s4.3-4.2,5.7-5.8a16.1,16.1,0,0,0,2.8-3.8,3.5,3.5,0,0,0,.3-1.2C254.5,441.8,254.4,441.7,254.4,441.7Z"/><path class="cls-10" d="M254.1,443.2a1.6,1.6,0,0,0,.4.9,10.1,10.1,0,0,0,2.1,2.4,24.4,24.4,0,0,0,4.6,3,74.3,74.3,0,0,0,7.3,3.4c4.1,1.7,9.1,3.7,12.8,5.7l2.5,1.5,1.1.7.8.7.7.6.4.4.4.4-.3-.4-.5-.5-.6-.6-.8-.7-1-.8-2.5-1.6c-3.6-2.3-8.6-4.4-12.6-6.2a62.4,62.4,0,0,1-7.2-3.4,25.7,25.7,0,0,1-4.5-2.8C255,444.2,254.4,443.1,254.1,443.2Z"/><path class="cls-11" d="M255.8,440.7a16.8,16.8,0,0,0-2,3.4,21.7,21.7,0,0,0-1.5,3.5,37.1,37.1,0,0,0-1.8,7.3,57.2,57.2,0,0,0-.4,14.9c1,10,3.9,19.7,7.5,29.2a247.2,247.2,0,0,0,13,27.6c4.8,9.1,10.1,18,15.2,27a184.2,184.2,0,0,1-19.3-24.5A153.9,153.9,0,0,1,252,501.2c-3.8-9.9-6.5-20.4-6.6-31.1a50.1,50.1,0,0,1,2.2-15.9,47.5,47.5,0,0,1,3.2-7.3A21.3,21.3,0,0,1,255.8,440.7Z"/><path class="cls-12" d="M256.7,439.5s33.4,7.1,32,42.6c-.3,7.8-5.8,19-6.2,26.8-1.8,38.3,1.2,31.7,2.9,42.5,0,0-3.5-13.8-.1-37,0,0,3.7-21.1,4.1-24.6,1.3-11.5,5-18.7-5.4-34.7C284,455.1,268.8,432.1,256.7,439.5Z"/><path class="cls-13" d="M250.6,438s-19.3-2.5-27.5,22.9c0,0-9.6,46.4,23.4,66.9,0,0,32.2,18.5,35.6,22.8,0,0-6.9-4.7-20.1-10.7,0,0-26.9-14.2-34.5-28.8,0,0-17.6-19.6-6.6-55C220.9,456.1,226.3,429.7,250.6,438Z"/><path class="cls-9" d="M203.7,352.9s.1-12.6-6.8-18.1l-3.6.3s7.3,4.4,9.6,17.1Z"/><path class="cls-13" d="M193.3,335.1s7.5,4.2,9.6,17.1l.4.3s-1.7-13.8-9.4-17.5Z"/><path class="cls-14" d="M196.9,334.8s5.3,4.4,6.4,13.6c0,0-1.4-8-6.5-13.5Z"/><path class="cls-1" d="M190.6,443.2h0a.3.3,0,0,0-.1-.2A.4.4,0,0,1,190.6,443.2Z"/><path class="cls-7" d="M191,443.9h.1s0,.2-.1.1-.2-.2-.3-.3h0c-.1-.1-.1-.2,0-.2s.3.2.3.4h.1l-.4-.2h0c-.1-.1-.1-.2,0-.2S191,443.7,191,443.9Z"/><path class="cls-8" d="M187,378.4c8.3-31.9,16.1-28.2,16.1-28.2,3-3.1,12.2-.1,16.4,19,3.3,14.5-2.1,20.1-13.4,38.9-12.6,21.1-13.1,32.6-12.7,34.4C190.2,431.9,180.8,402.2,187,378.4Z"/><path class="cls-9" d="M184.8,342.3c6.7-2,15.6,2.3,18.3,7.9,0,0-14.1,7.6-16.5,37.2-2,24.4,3.4,44.3,6.7,54.9v.2c-2.8-7.3-16.1-17.8-25.5-34.2C148.9,375,175.3,345.2,184.8,342.3Z"/><path class="cls-10" d="M166.7,406v-.2a6.4,6.4,0,0,0,.2-.7,20.7,20.7,0,0,1,1.3-2.5,28.6,28.6,0,0,1,2.6-3.7c1.2-1.3,2.6-2.8,4.3-4.4s2.5-2.5,3.9-3.7l3.8-3.8a17.7,17.7,0,0,0,2.6-3.6,4.9,4.9,0,0,0,.6-1.3.3.3,0,0,0,.1-.2h0v0h0c0,.1-.1.1-.1.2a6.9,6.9,0,0,1-.6,1.3,18.1,18.1,0,0,1-2.7,3.4,44.8,44.8,0,0,1-3.8,3.7l-3.9,3.6c-1.7,1.7-3.1,3.1-4.3,4.5a22.8,22.8,0,0,0-2.7,3.8,14.1,14.1,0,0,0-1.2,2.7,6.4,6.4,0,0,1-.2.7Z"/><path class="cls-10" d="M191.5,363.4c-.1,0-.2.4-.6,1l-.9,1.1a9.2,9.2,0,0,1-1.4,1.4,46.1,46.1,0,0,1-4.6,3.4l-6.9,4.5a68,68,0,0,0-6,4.3,30.5,30.5,0,0,0-5.3,5.5,15.4,15.4,0,0,0-1.9,2.8,19.6,19.6,0,0,0-1.2,2.6l-.3,1a2.5,2.5,0,0,0-.2.7l-.2.7.2-.7a2.5,2.5,0,0,1,.2-.7,4.2,4.2,0,0,1,.4-1,10.6,10.6,0,0,1,1.1-2.5,24.3,24.3,0,0,1,2-2.8,33.9,33.9,0,0,1,5.4-5.3,66.1,66.1,0,0,1,6-4.2c2.6-1.8,4.9-3.2,6.9-4.5a42.4,42.4,0,0,0,4.6-3.4l1.4-1.5.9-1.2A12.6,12.6,0,0,0,191.5,363.4Z"/><path class="cls-10" d="M201.9,350.5l-.9.8a14.9,14.9,0,0,1-3.1,1.8l-5.8,2.6c-2.4,1-5.2,2.2-8.5,3.9a69,69,0,0,0-7.1,4.2l-3.4,2.5-3,2.7-2.3,2.6-1.6,2.4a14.6,14.6,0,0,0-.9,1.6,1.4,1.4,0,0,1-.3.6l.4-.6.9-1.6c.4-.7,1-1.4,1.6-2.3a27.7,27.7,0,0,1,2.4-2.5,25.5,25.5,0,0,1,3-2.6l3.4-2.5a75.1,75.1,0,0,1,7.2-4q4.8-2.4,8.4-3.9l5.8-2.6a18.6,18.6,0,0,0,3.1-2l.6-.8A.8.8,0,0,0,201.9,350.5Z"/><path class="cls-10" d="M185.9,400.3l-.2.5-.9,1.5a22.2,22.2,0,0,1-1.7,2.4l-2.6,3.3c-.7.9-1.5,1.9-2.2,3a23,23,0,0,0-2.1,3.3l-.7,1.6a12.1,12.1,0,0,0-.5,1.4,3.4,3.4,0,0,0-.1.9.4.4,0,0,0-.1.3h0a.4.4,0,0,1,.1-.3,1.8,1.8,0,0,1,.2-.9,10.3,10.3,0,0,1,.4-1.4l.8-1.5a21.4,21.4,0,0,1,2-3.2l2.3-3,2.6-3.2c.7-1,1.3-1.8,1.7-2.5a4.1,4.1,0,0,0,.5-.9,1.3,1.3,0,0,0,.3-.7A1.5,1.5,0,0,0,185.9,400.3Z"/><path class="cls-10" d="M187.4,419.7l-.2.2c-.1,0-.1.1-.2.2l-.3.4a7.5,7.5,0,0,1-.9.9l-1.7,1.3-1.5,1.1a4.4,4.4,0,0,0-1,1.5,1.7,1.7,0,0,0-.1,1.2v.2a.3.3,0,0,0,.1.2h0v-.2c-.1,0-.1-.1-.1-.2a3,3,0,0,1,.2-1.2l1.1-1.3,1.6-1.1,1.7-1.2,1-1.1.2-.4c0-.1.1-.2.1-.3Z"/><path class="cls-10" d="M192.1,362.8c-.1,0-.2.2,0,.8a7.7,7.7,0,0,0,1.7,2.5,43.1,43.1,0,0,0,4.5,3.8c1.9,1.6,4.3,3.3,6.9,5.4a52.7,52.7,0,0,1,5.6,5,27.4,27.4,0,0,1,4.3,5.2,13.1,13.1,0,0,1,1.7,4.2,5.7,5.7,0,0,1,.1,1.2.6.6,0,0,0,.1.4v-.4a5.7,5.7,0,0,0-.1-1.2,11.4,11.4,0,0,0-1.4-4.2,26.6,26.6,0,0,0-4.1-5.4,52.7,52.7,0,0,0-5.6-5c-2.6-2.2-4.9-3.9-6.9-5.4s-3.4-2.8-4.4-3.8a9.5,9.5,0,0,1-1.9-2.3C192.3,363.1,192.2,362.8,192.1,362.8Z"/><path class="cls-10" d="M188,376.5a.3.3,0,0,0,.1.2.4.4,0,0,0,.1.3c0,.1.1.2.2.4a8.2,8.2,0,0,0,1.9,2,22,22,0,0,0,3.8,2.8l5.8,3.7,2.4,1.6,2.5,2a14.5,14.5,0,0,1,2.2,2.1l1,1.2a1,1,0,0,1,.4.5l.5.6.7,1.2.3.6.3.5a1.4,1.4,0,0,0,.2.6l.2.5c0,.2.1.3.2.5v.4a3.1,3.1,0,0,1,.2.8,1.3,1.3,0,0,1,.1.6,1.8,1.8,0,0,1,.1.5,1.8,1.8,0,0,0-.1-.5,1.3,1.3,0,0,0-.1-.6c0-.2-.1-.5-.1-.8a.7.7,0,0,1-.1-.5.8.8,0,0,1-.2-.4c-.1-.2-.1-.4-.2-.6s-.1-.3-.2-.5l-.3-.6a1.4,1.4,0,0,0-.2-.6l-.7-1.2a2.1,2.1,0,0,1-.4-.6l-.5-.7-1-1.2a15.2,15.2,0,0,0-2.2-2.2l-2.4-2-2.5-1.8-5.7-3.6a44.4,44.4,0,0,1-3.8-2.7,12.6,12.6,0,0,1-2-1.9l-.2-.3-.2-.2Z"/><path class="cls-10" d="M187.2,388.5q-.3,0-.3.6a4,4,0,0,0,1,2,31.3,31.3,0,0,0,3.4,3.8c1.5,1.5,3.6,3.3,5.8,5.4s3.2,3.2,4.5,4.8a12.1,12.1,0,0,1,2.5,4.5,3.7,3.7,0,0,1-.4,2.9l-.4.5-.3.3-.3.2.4-.2.4-.3.4-.4a3.3,3.3,0,0,0,.9-2.9,9.9,9.9,0,0,0-2.1-4.5,37,37,0,0,0-4.2-4.8l-5.7-5.4a48.7,48.7,0,0,1-3.5-3.7C187.7,389.4,187.6,388.6,187.2,388.5Z"/><path class="cls-10" d="M187.7,419.1c-.1,0-.1.1-.1.4a4.5,4.5,0,0,0,.5,1l.6.8.7.8,2.1,1.9,1.6,1.8a12,12,0,0,1,1.3,2.1c.4.7.6,1.3.8,1.7s.1.5.2.6v0c0-.2-.1-.3-.1-.6s-.4-1.1-.7-1.8a11.9,11.9,0,0,0-1.2-2.2,11.6,11.6,0,0,0-1.6-2l-2-2a7.9,7.9,0,0,1-1.3-1.4C188,419.5,187.8,419,187.7,419.1Z"/><path class="cls-10" d="M201.3,351.6c-.1,0-.1.2-.1.8a10.4,10.4,0,0,0,.9,2.3,26.3,26.3,0,0,0,2.5,3.5,59.4,59.4,0,0,0,4.4,4.6c2.5,2.4,5.6,5.2,7.8,7.8l1.4,1.8.5.8.5.8.3.6a.8.8,0,0,1,.2.4l.2.4-.2-.4a1.7,1.7,0,0,0-.2-.5,2.1,2.1,0,0,0-.2-.6,2.5,2.5,0,0,1-.4-.7,4.1,4.1,0,0,1-.5-.9l-1.4-1.9a81.8,81.8,0,0,0-7.5-8.1c-1.7-1.7-3.2-3.2-4.3-4.5a23.8,23.8,0,0,1-2.5-3.4C201.6,352.5,201.5,351.5,201.3,351.6Z"/><path class="cls-10" d="M185.5,400.6c-.1,0-.2.2-.2.5a4.4,4.4,0,0,0,.7,1.9,23.7,23.7,0,0,0,2.6,3.4l4.5,4.9c1.3,1.4,2.5,2.9,3.6,4.3a11.3,11.3,0,0,1,1.9,4.1,3.9,3.9,0,0,1-.5,2.8l-.3.4-.3.3-.2.3.3-.3.3-.2c.1-.1.2-.3.4-.4a3.9,3.9,0,0,0,.8-2.8,9,9,0,0,0-1.5-4.1,32.8,32.8,0,0,0-3.3-4.3l-4.4-5a22.4,22.4,0,0,1-2.8-3.3C185.9,401.4,185.9,400.7,185.5,400.6Z"/><path class="cls-11" d="M203.1,350.2l-2.3,2a20.9,20.9,0,0,0-2,2.2,26.3,26.3,0,0,0-3.3,4.9,46,46,0,0,0-4.3,10.8,90.5,90.5,0,0,0-2.6,23.3,214.5,214.5,0,0,0,1.5,23.9c.9,8,2.1,16,3,24.2a130.4,130.4,0,0,1-7.6-23.4,113.5,113.5,0,0,1-2.9-24.7,68.5,68.5,0,0,1,4.2-24.8,40.2,40.2,0,0,1,6.3-11,37.3,37.3,0,0,1,4.5-4.4A17.4,17.4,0,0,1,203.1,350.2Z"/><path class="cls-12" d="M204.1,349.6s22.5,14.7,11.4,40.3c-2.4,5.6-9.6,12.2-12.1,17.8-12.2,27.6-8.1,23.6-10,32,0,0,1.4-11.1,10.5-27.1,0,0,8.7-14.4,9.9-16.9,4.2-8,9-12.2,5.9-26.9C219.7,368.8,215.1,347.6,204.1,349.6Z"/><path class="cls-13" d="M200.1,346.8s-13.4-7.4-26.6,9c0,0-20.2,31.2-1.9,55.6,0,0,18.4,22.6,19.7,26.7a131,131,0,0,0-11.7-13.4s-15.7-18.1-17.2-30.9c0,0-7.2-19.4,10.9-42.2C173.3,351.6,184.7,333.8,200.1,346.8Z"/></g></g></g></g></g></svg>