<svg xmlns="http://www.w3.org/2000/svg" xmlns:xlink="http://www.w3.org/1999/xlink" viewBox="0 0 443.8 451.5"><defs><style>.cls-1{fill:none;}.cls-2{isolation:isolate;}.cls-3{opacity:0.5;}.cls-4{fill:url(#linear-gradient);}.cls-5{fill:#31d0e5;stroke-width:6px;stroke:url(#linear-gradient-2);}.cls-11,.cls-5,.cls-7{stroke-miterlimit:10;}.cls-6{clip-path:url(#clip-path);}.cls-7{fill:#41a022;stroke:#38841c;stroke-width:0.5px;}.cls-8{fill:#204910;opacity:0.32;}.cls-9{fill:#8fc12f;}.cls-14,.cls-9{opacity:0.51;}.cls-10{fill:#353535;}.cls-11{fill:#48bc28;stroke:#45a525;}.cls-12,.cls-13{fill:#b0e573;}.cls-12{mix-blend-mode:screen;opacity:0.69;}.cls-14{fill:#b6f261;}</style><linearGradient id="linear-gradient" x1="43.17" y1="103.28" x2="392.43" y2="342.6" gradientUnits="userSpaceOnUse"><stop offset="0" stop-color="#9b81cf"/><stop offset="1" stop-color="#3b139b"/></linearGradient><linearGradient id="linear-gradient-2" x1="16.1" y1="225.74" x2="427.68" y2="225.74" gradientUnits="userSpaceOnUse"><stop offset="0" stop-color="#4c1da9"/><stop offset="1" stop-color="#997ece"/></linearGradient><clipPath id="clip-path"><circle class="cls-1" cx="222.6" cy="226.4" r="199.8"/></clipPath></defs><g class="cls-2"><g id="SB39_Interactive_Icon_13_F1"><path class="cls-3" d="M435.1,237a208.3,208.3,0,0,0-25.4-100A211.6,211.6,0,0,0,221.9,23C105,23,10.2,117.8,10.2,234.7S105,446.3,221.9,446.3c3,0,5.9,0,8.9-.2C344.1,443.6,435.1,350.9,435.1,237Z"/><circle class="cls-4" cx="221.9" cy="225.7" r="211.7"/><circle class="cls-5" cx="221.9" cy="225.7" r="202.8"/><g id="_001" data-name="001"><g class="cls-6"><g id="_015" data-name="015"><path class="cls-7" d="M85.1,157.8s-19.8-13-35.4-7.8l-3.4,6.1s14.5-7.1,36.9,2.2Z"/><path class="cls-8" d="M46.3,156.1s14.3-7.6,36.9,2.2l.8-.2s-23.5-11.5-37.1-3.2Z"/><path class="cls-9" d="M49.7,150s12.2-3.8,28,3.8c0,0-14.2-5.9-28.2-3.5Z"/><path class="cls-1" d="M214.2,270.7h0Z"/><path class="cls-10" d="M215.6,270.8h.2c.1.1.4.2.2.4h-1c-.1,0-.4-.1-.2-.3a.8.8,0,0,1,.8-.1h.2l-.6.5H215c-.1,0-.4-.1-.2-.3A.8.8,0,0,1,215.6,270.8Z"/><path class="cls-11" d="M108.2,210.1C66.4,164.4,80.3,156,80.3,156c-1.9-7.9,12.3-19.3,46.6-6.5,26.3,9.7,29.6,24,47.7,60.9,20.4,41.5,38.1,54.1,41.3,55.2C195.8,260,139.4,244.2,108.2,210.1Z"/><path class="cls-7" d="M49,176.8c3.7-12.7,19.5-22.3,31.3-20.8,0,0-2.6,30,41.6,64,36.6,28.2,73.4,39.9,93.5,45.6h.5c-14.4-3.2-44.6,7.2-79.9,5.2C63.9,266.9,43.8,194.7,49,176.8Z"/><path class="cls-12" d="M131,270.4l-.2-.3L130,269a30.9,30.9,0,0,1-2.8-4.5,60.5,60.5,0,0,1-3-7.9c-1-3.2-1.8-7-2.7-11.3s-1.2-6.5-1.9-9.9-1.3-6.8-2.1-9.9a34.6,34.6,0,0,0-2.9-7.8,13.6,13.6,0,0,0-1.4-2.3l-.3-.3-.2-.2v0l.2.2.3.3a13.6,13.6,0,0,1,1.4,2.3,36.3,36.3,0,0,1,2.6,7.7c.8,3.1,1.4,6.4,2,9.8s1.1,6.8,1.7,9.8a96.7,96.7,0,0,0,2.7,11.4,35,35,0,0,0,3.2,8.1,25.8,25.8,0,0,0,3,4.7l.9,1C130.9,270.4,131,270.5,131,270.4Z"/><path class="cls-12" d="M89.2,187.8c-.1.1.3.7.9,2a17.2,17.2,0,0,1,.9,2.5,26.1,26.1,0,0,1,.8,3.7,76.9,76.9,0,0,1,.6,10.6c.1,4.4-.1,9.4,0,15.5a115.6,115.6,0,0,0,.8,13.9,63.3,63.3,0,0,0,3,14,29.1,29.1,0,0,0,2.6,5.9,28.1,28.1,0,0,0,2.8,4.4c.4.6.9,1.1,1.3,1.6l1,1.1.8.9-.8-.9-1-1.1-1.2-1.6a33.9,33.9,0,0,1-2.7-4.4,45.5,45.5,0,0,1-2.5-5.9,62.2,62.2,0,0,1-2.7-13.9,134.3,134.3,0,0,1-.6-13.8c0-6,.1-11.1,0-15.4a64.2,64.2,0,0,0-.7-10.8c-.3-1.5-.6-2.7-.9-3.8a10.7,10.7,0,0,0-1.1-2.6A6.2,6.2,0,0,0,89.2,187.8Z"/><path class="cls-12" d="M79.4,158.3a13,13,0,0,1,.4,2.1,29.7,29.7,0,0,1-.4,6.8c-.4,3-1,6.9-1.9,11.7s-1.7,10.6-2.4,17.3a130.8,130.8,0,0,0-.7,15.6,70.1,70.1,0,0,0,.5,8c.3,2.6.7,5.1,1.2,7.4s1.2,4.5,1.9,6.4a38.9,38.9,0,0,0,2,4.8,27.7,27.7,0,0,0,1.6,3.1l.7,1.1-.6-1.1c-.4-.7-1-1.8-1.6-3.1s-1.2-3-1.9-4.9-1.1-4.1-1.6-6.4-.8-4.8-1.1-7.4-.3-5.2-.3-7.8a150.5,150.5,0,0,1,.9-15.5c.8-6.7,1.7-12.4,2.5-17.2s1.5-8.7,1.8-11.9a26.6,26.6,0,0,0,0-7,4.3,4.3,0,0,0-.5-1.6C79.7,158.4,79.5,158.2,79.4,158.3Z"/><path class="cls-12" d="M141.6,234.3l.6,1a18.1,18.1,0,0,1,1.5,2.9,49.7,49.7,0,0,1,2,5.1c.8,2,1.5,4.5,2.5,7.4s1.5,4.3,2.5,6.6a51.1,51.1,0,0,0,3.1,6.7l1.8,2.8,1.7,2.1,1.3,1.2.4.3h0l-.4-.3-1.2-1.3a9.6,9.6,0,0,1-1.7-2.1A17.8,17.8,0,0,1,154,264a66.2,66.2,0,0,1-3-6.6l-2.3-6.6c-.9-2.9-1.7-5.3-2.5-7.4s-1.4-3.8-2-5.2l-1-1.8-.8-1.2A3.8,3.8,0,0,0,141.6,234.3Z"/><path class="cls-12" d="M173.7,251.8c-.1.1,0,.2.1.5a4.2,4.2,0,0,1,.2.6l.3.7a13.3,13.3,0,0,1,.5,2.6c.1,1,.2,2.4.3,3.9a20.7,20.7,0,0,0,.3,3.5,7.2,7.2,0,0,0,1.2,3.1,3.5,3.5,0,0,0,1.9,1.4l.4.2h-.4a5,5,0,0,1-1.7-1.6,7.1,7.1,0,0,1-.9-3.1c-.1-1.2-.2-2.4-.2-3.5s-.1-2.9-.2-4a7.7,7.7,0,0,0-.6-2.6,5.9,5.9,0,0,0-.4-.8.8.8,0,0,0-.4-.4C173.9,251.8,173.8,251.8,173.7,251.8Z"/><path class="cls-12" d="M88.9,186.2c-.1.1.1.5,1.2.9a13.6,13.6,0,0,0,5.6-.2,79.2,79.2,0,0,0,10.7-3.1l15.6-5.4c4.3-1.4,9-2.9,13.6-3.9a53.3,53.3,0,0,1,12.6-1.4,23.1,23.1,0,0,1,8.3,1.7,7.3,7.3,0,0,1,2,1l.8.4-.7-.5-2-1.1a22.3,22.3,0,0,0-8.1-2.1,52.3,52.3,0,0,0-12.6,1,117.9,117.9,0,0,0-13.6,3.6c-6.1,1.9-11.3,3.9-15.7,5.3a80.8,80.8,0,0,1-10.5,3.2,19.5,19.5,0,0,1-5.5.7C89.5,186.2,89,186,88.9,186.2Z"/><path class="cls-12" d="M106.3,206.7c0,.1.1.1.4.2H108a22.4,22.4,0,0,0,5.2-.9,61.9,61.9,0,0,0,8.3-3.2c3.3-1.5,7.1-3.4,11.7-5.4l5.1-2.1,5.5-1.9c1.9-.5,3.8-1,5.7-1.3l2.8-.4H160l1.1.2,1,.2,1,.2.8.3,1.5.5,1,.4.9.4-.8-.4-1.1-.5-1.4-.5-.9-.3-.9-.3-1-.2-1.1-.3-1.2-.2h-1.2l-2.7-.2h-2.8l-2.9.3c-1.9.3-3.9.7-5.8,1.2l-5.7,1.8-5.2,2.1-11.7,5.3a69.4,69.4,0,0,1-8.1,3.3,36.7,36.7,0,0,1-4.9,1.2h-1.2Z"/><path class="cls-12" d="M124.4,220.3c-.3.3-.1.6.5,1a8.6,8.6,0,0,0,4.3.6,75.5,75.5,0,0,0,9.3-1.6l14.6-3.5c4-.9,8.3-1.8,12.2-2.3a23.7,23.7,0,0,1,9.6.6,6.6,6.6,0,0,1,4.2,3.7,5.4,5.4,0,0,1,.3,1,3.1,3.1,0,0,1,.2.8,4.2,4.2,0,0,1,.1.7v-.7a3.8,3.8,0,0,0-.1-1,4.4,4.4,0,0,0-.2-1,6.8,6.8,0,0,0-3.5-4.5c-2.2-1.1-5.4-1.5-9.2-1.3a87.1,87.1,0,0,0-12,1.8L140.3,218a85.6,85.6,0,0,1-9.4,1.8C126.3,220.4,125,219.7,124.4,220.3Z"/><path class="cls-12" d="M173,250.8l.6.4a9.8,9.8,0,0,0,2.3.3h1.6l2.1-.3,5.1-1.3a31.7,31.7,0,0,1,4.6-.7h4.6l3.5.6,1.1.2h0l-1-.3-3.6-.9a34.3,34.3,0,0,0-4.7-.4,33.1,33.1,0,0,0-4.8.6l-5.2,1.2a17.4,17.4,0,0,1-3.4.5C174,250.7,173.1,250.5,173,250.8Z"/><path class="cls-12" d="M80.5,160.3q-.1.1,1.2.9a17.6,17.6,0,0,0,4.6.9,38.9,38.9,0,0,0,8.1-.3c3.3-.5,7.2-1.2,11.7-2.3,6.3-1.4,14-3.5,20.2-4.2l4.4-.4h4.7l1,.2h.8l-.8-.2-1-.2-1.3-.2h-3.4l-4.4.2c-6.3.5-14.1,2.2-20.5,3.6-4.4.9-8.3,1.7-11.5,2.1a39.1,39.1,0,0,1-7.9.5C82.3,160.8,80.6,160,80.5,160.3Z"/><path class="cls-12" d="M141.8,235.3c-.2.2-.1.5.5.9a8.4,8.4,0,0,0,3.7.7,44.3,44.3,0,0,0,8.1-.6c3.4-.6,7.6-1.4,12.3-2.1a94.2,94.2,0,0,1,10.4-1.1,21.1,21.1,0,0,1,8.5,1.1,7.1,7.1,0,0,1,3.8,3.6l.4.9a6.4,6.4,0,0,0,.2.7,3.2,3.2,0,0,1,.1.7v-.7a1.9,1.9,0,0,1-.1-.8l-.3-1a6.8,6.8,0,0,0-3.4-4.1,15.9,15.9,0,0,0-8.1-1.8,59.7,59.7,0,0,0-10.2.7l-12.3,2q-5.1.8-8.1.9C143.4,235.4,142.2,234.8,141.8,235.3Z"/><path class="cls-13" d="M80.3,156a27.3,27.3,0,0,0,.3,5.7,53.5,53.5,0,0,0,1.1,5.5,63.9,63.9,0,0,0,3.9,10.6,77.8,77.8,0,0,0,5.5,9.7l1.6,2.3,1.6,2.2c1.2,1.5,2.3,3,3.5,4.4A131.9,131.9,0,0,0,113.9,212a169.6,169.6,0,0,0,18.2,13.3c1.5,1.1,3.2,2,4.8,3l4.8,2.9,4.9,2.9,2.5,1.4,2.5,1.3c3.3,1.8,6.6,3.6,10.1,5.2s6.7,3.4,10.2,5c13.8,6.4,27.8,12.2,42,18A297.4,297.4,0,0,1,170,251.3c-14.2-5.8-28.2-12.5-41.2-21l-4.8-3.2-4.7-3.5-2.3-1.7-2.3-1.8c-1.5-1.3-3.1-2.4-4.5-3.8l-4.3-3.9-4.1-4.2c-1.4-1.4-2.6-2.9-3.9-4.3s-2.5-3.1-3.7-4.6a80.2,80.2,0,0,1-11.4-20.4,63,63,0,0,1-2.7-11.4A34.1,34.1,0,0,1,80.3,156Z"/><path class="cls-14" d="M80.3,153.8s46.1-20.4,75.1,23.1c6.4,9.6,9.5,27.8,15.8,37.5,31,47.4,29,36.9,40.2,48.3,0,0-16.1-13.4-32-44.1,0,0-13.8-28.4-16.4-33-8.4-14.8-10.2-26.7-36.5-36.8C126.5,148.8,88.4,134.4,80.3,153.8Z"/><path class="cls-8" d="M71.8,157.2s-25.3,13.6-13.1,51.2c0,0,28.6,63.8,85.8,59.8,0,0,54.5-5.8,62.3-3.6,0,0-12.3.4-33.2,4.6,0,0-44.5,6.3-66.3-4.5,0,0-38-8.4-55.4-60.2C51.9,204.5,35.6,168.3,71.8,157.2Z"/><path class="cls-7" d="M279.8,97.2s-13.5-8.6-24-4.8l-2.2,4.1s9.7-5,25,1.1Z"/><path class="cls-8" d="M253.6,96.5s9.5-5.3,25,1.1l.5-.2s-16-7.5-25.1-1.7Z"/><path class="cls-9" d="M255.8,92.4s8.2-2.8,19,2.2c0,0-9.7-3.9-19.1-2Z"/><path class="cls-1" d="M368.6,172.1h0Z"/><path class="cls-10" d="M369.6,172.2h.1c.1,0,.3.1.2.2h-.7c-.1,0-.3-.1-.1-.2h.6l-.4.3h-.1c-.1,0-.3-.1-.1-.2Z"/><path class="cls-11" d="M296.1,132.4C267.3,101.9,276.6,96,276.6,96c-1.4-5.3,8.1-13.2,31.5-4.9,17.9,6.3,20.3,15.9,33,40.7,14.3,27.8,26.5,36.1,28.7,36.8C356.1,165.1,317.7,155.1,296.1,132.4Z"/><path class="cls-7" d="M255.6,110.5c2.4-8.7,13-15.3,21-14.5,0,0-1.4,20.4,29,42.9,25,18.6,50.2,26.1,63.8,29.7h.3c-9.7-2-30,5.4-54,4.5C266.8,171.3,252.4,122.7,255.6,110.5Z"/><path class="cls-12" d="M312.3,172.9v-.2l-.6-.7a15.8,15.8,0,0,1-1.9-3,37.3,37.3,0,0,1-2.2-5.4,70,70,0,0,1-1.9-7.6c-.5-2.1-.9-4.4-1.4-6.7s-1-4.6-1.6-6.6a28.3,28.3,0,0,0-2-5.3,7.6,7.6,0,0,0-1-1.5c-.1-.1-.1-.2-.2-.2v-.2h0v.2c.1,0,.1.1.2.2a12.8,12.8,0,0,1,1,1.5,24.1,24.1,0,0,1,1.8,5.2c.6,2.1,1,4.3,1.5,6.6s.8,4.6,1.3,6.7a76.4,76.4,0,0,0,1.9,7.6,29.4,29.4,0,0,0,2.3,5.5,12.6,12.6,0,0,0,2.1,3.1l.6.7Z"/><path class="cls-12" d="M283,117.5c-.1,0,.2.4.7,1.3a16.2,16.2,0,0,1,.6,1.7,13.7,13.7,0,0,1,.5,2.5,45.2,45.2,0,0,1,.6,7.2c.1,2.9.1,6.4.2,10.4a81.8,81.8,0,0,0,.7,9.5,41.6,41.6,0,0,0,2.2,9.4,29.9,29.9,0,0,0,1.8,4,31.1,31.1,0,0,0,2,3l.8,1,.7.7.6.6-.5-.6a4.6,4.6,0,0,1-.7-.7l-.9-1.1a32.3,32.3,0,0,1-1.9-3,28.5,28.5,0,0,1-1.7-3.9,40.2,40.2,0,0,1-2-9.4c-.4-3.2-.5-6.4-.6-9.3s0-7.5-.1-10.5a46.3,46.3,0,0,0-.7-7.3,15.3,15.3,0,0,0-.6-2.5,7.5,7.5,0,0,0-.8-1.8A4,4,0,0,0,283,117.5Z"/><path class="cls-12" d="M276,97.6a4.5,4.5,0,0,1,.3,1.4,19.5,19.5,0,0,1-.2,4.6c-.2,2.1-.6,4.7-1.1,8s-1.1,7.2-1.5,11.8a90.2,90.2,0,0,0-.2,10.5,47.3,47.3,0,0,0,.4,5.4c.2,1.8.6,3.4.9,5s.9,3,1.3,4.3a26.3,26.3,0,0,0,1.5,3.3,11.1,11.1,0,0,0,1.1,2l.5.8-.4-.8a19,19,0,0,1-1.1-2.1,27.3,27.3,0,0,1-1.4-3.3c-.4-1.2-.8-2.7-1.2-4.2s-.6-3.3-.8-5-.3-3.6-.3-5.4a69.7,69.7,0,0,1,.5-10.4c.4-4.6,1-8.5,1.4-11.7s.9-6,1.1-8.1a13.8,13.8,0,0,0-.1-4.7,2.3,2.3,0,0,0-.4-1.1Q276.2,97.6,276,97.6Z"/><path class="cls-12" d="M319,148.3l.5.7,1.1,1.9c.4.9.8,2.1,1.4,3.5l1.7,5c.5,1.3,1.1,2.9,1.8,4.4a31.3,31.3,0,0,0,2.2,4.5l1.2,1.9,1.2,1.4.9.8.3.2h0l-.3-.2-.9-.9-1.1-1.4-1.2-1.8a35.5,35.5,0,0,1-2.1-4.4l-1.6-4.5-1.8-5a22.7,22.7,0,0,0-1.5-3.4,6.7,6.7,0,0,0-.6-1.2,3.5,3.5,0,0,0-.6-.9Q319.2,148.3,319,148.3Z"/><path class="cls-12" d="M341,159.8a.8.8,0,0,0,.1.4v.3c.1.2.2.3.2.5a7.1,7.1,0,0,1,.4,1.7,21.3,21.3,0,0,1,.2,2.7,19.7,19.7,0,0,0,.3,2.4,5.2,5.2,0,0,0,.8,2,2.7,2.7,0,0,0,1.3,1h.1a2.5,2.5,0,0,1-1.2-1.1,5.8,5.8,0,0,1-.7-2.1,18.5,18.5,0,0,1-.1-2.3c-.1-1.1-.1-2-.2-2.8a5.8,5.8,0,0,0-.5-1.7.8.8,0,0,0-.2-.5l-.3-.3C341.2,159.8,341.1,159.8,341,159.8Z"/><path class="cls-12" d="M282.8,116.4c-.1.1.1.4.8.6a10.5,10.5,0,0,0,3.8-.2,73.8,73.8,0,0,0,7.2-2.2c2.9-1.1,6.4-2.5,10.5-3.9s6.1-2,9.2-2.8a38.9,38.9,0,0,1,8.5-1.1,18.2,18.2,0,0,1,5.6,1l1.4.7.5.3-.4-.3-1.4-.8a15.8,15.8,0,0,0-5.5-1.3,37.9,37.9,0,0,0-8.5.8,88.9,88.9,0,0,0-9.2,2.6l-10.6,3.8a55.4,55.4,0,0,1-7,2.3,10.2,10.2,0,0,1-3.8.5C283.2,116.4,282.8,116.3,282.8,116.4Z"/><path class="cls-12" d="M294.8,130.1H296a14.9,14.9,0,0,0,3.5-.6,41.8,41.8,0,0,0,5.6-2.3l7.8-3.8,3.4-1.5,3.8-1.3a23.6,23.6,0,0,1,3.8-1l1.9-.3h6l.7.2h.6l.6.2,1,.3.7.2.6.3-.6-.3-.7-.3-1-.3-.6-.2-.6-.2h-.7l-.8-.2h-5.3a12.5,12.5,0,0,0-1.9.3,28.8,28.8,0,0,0-4,.9c-1.3.3-2.5.8-3.8,1.2l-3.5,1.5-7.8,3.7a41.3,41.3,0,0,1-5.5,2.3l-3.3.9h-1.1Z"/><path class="cls-12" d="M307.2,139.1c-.1.2,0,.4.4.7a6.7,6.7,0,0,0,2.9.3,36.8,36.8,0,0,0,6.3-1.2l9.8-2.6c2.7-.6,5.6-1.3,8.2-1.6a15.5,15.5,0,0,1,6.6.2,4.9,4.9,0,0,1,2.9,2.5,2.5,2.5,0,0,1,.2.7,1.1,1.1,0,0,1,.1.5,1.8,1.8,0,0,1,.1.5v-.5a1.3,1.3,0,0,0-.1-.6c0-.3-.1-.5-.1-.8a4.6,4.6,0,0,0-2.5-2.9,11.7,11.7,0,0,0-6.2-.8,47.4,47.4,0,0,0-8.1,1.4c-3.7.8-7,1.8-9.7,2.4s-4.9,1.1-6.4,1.4C308.5,139.1,307.6,138.7,307.2,139.1Z"/><path class="cls-12" d="M340.5,159.1l.5.3,1.5.2h1.1l1.4-.3,3.4-.9,3.1-.5a16,16,0,0,1,3.1,0,14.2,14.2,0,0,1,2.5.3h.7l-.7-.2a11.1,11.1,0,0,0-2.4-.5,11.7,11.7,0,0,0-3.3-.2,16.5,16.5,0,0,0-3.2.4l-3.5.9-2.3.4C341.2,159.1,340.6,158.9,340.5,159.1Z"/><path class="cls-12" d="M276.8,99c-.1.1.2.3.8.5a9.9,9.9,0,0,0,3.1.6,27.8,27.8,0,0,0,5.5-.3,63.5,63.5,0,0,0,7.9-1.7c4.3-1,9.5-2.5,13.7-3.1l2.9-.3h3.2l-.9-.2h-2.3l-3,.2a115.8,115.8,0,0,0-13.8,2.7l-7.8,1.6a37.9,37.9,0,0,1-5.3.4C278,99.3,276.9,98.7,276.8,99Z"/><path class="cls-12" d="M319.2,149c-.1.1-.1.3.4.6a5.5,5.5,0,0,0,2.5.5,33.6,33.6,0,0,0,5.4-.6l8.4-1.5a55.9,55.9,0,0,1,7-.9,13.7,13.7,0,0,1,5.7.7,4.4,4.4,0,0,1,2.7,2.4l.3.5a4.3,4.3,0,0,0,.1.5v-.5a1.9,1.9,0,0,1-.2-.7,5.1,5.1,0,0,0-2.4-2.8,11.9,11.9,0,0,0-5.5-1.1,55.1,55.1,0,0,0-6.9.6l-8.3,1.5c-2.3.4-4.1.6-5.4.7S319.5,148.7,319.2,149Z"/><path class="cls-13" d="M276.6,96a25.8,25.8,0,0,0,.4,3.9,24.9,24.9,0,0,0,.9,3.7,52.8,52.8,0,0,0,2.9,6.9,62,62,0,0,0,8.8,12.2c6.7,7.4,14.9,13.4,23.4,18.8a239.7,239.7,0,0,0,27,14.3c9.3,4.4,18.9,8.3,28.4,12.5a177.2,177.2,0,0,1-30.2-8.1,154.2,154.2,0,0,1-28.4-13.6c-8.9-5.6-17.3-12.4-23.9-20.9a53.1,53.1,0,0,1-7.7-14,34.2,34.2,0,0,1-1.9-7.8A23.3,23.3,0,0,1,276.6,96Z"/><path class="cls-14" d="M276.6,94.5s31-14.3,51.1,14.8c4.5,6.4,6.8,18.7,11.2,25.2,21.6,31.8,20,24.6,27.8,32.2,0,0-11.1-8.8-22.2-29.5,0,0-9.7-19.1-11.6-22.1-5.8-9.9-7.1-18-25.1-24.5C307.8,90.6,281.8,81.3,276.6,94.5Z"/><path class="cls-8" d="M270.8,96.9s-16.9,9.6-8.2,34.9c0,0,20.1,42.9,58.8,39.5,0,0,36.9-4.7,42.2-3.2a147.7,147.7,0,0,0-22.4,3.5s-30.1,4.8-45-2.3c0,0-25.8-5.2-38.2-40.1C258,129.2,246.5,104.9,270.8,96.9Z"/><path class="cls-7" d="M232.2,2.1S229-10.1,221-13.6l-3.5,1.2s8.3,2.4,13.8,14Z"/><path class="cls-8" d="M217.5-12.4s8.3,2.1,13.8,14l.4.3s-5.2-13-13.5-14.5Z"/><path class="cls-1" d="M242.7,92.8h-.1c0-.1-.1-.1-.1-.2Z"/><path class="cls-10" d="M243.2,93.3h0c.1,0,.2.2,0,.2l-.3-.3h-.1c0-.1-.1-.3,0-.2l.4.2h-.4c0-.1-.1-.3,0-.2Z"/><path class="cls-11" d="M222.6,31C222.5-1.9,231-.3,231-.3c2-3.8,11.7-3.2,20.6,14.1,6.9,13.2,3.1,20-3,41.1-6.8,23.6-4.3,34.9-3.4,36.5C239.3,82,222.7,55.6,222.6,31Z"/><path class="cls-7" d="M211.2-3.3c6-3.7,15.6-1.8,19.8,3,0,0-11.8,10.9-6.5,40.1,4.3,24.2,14.6,42,20.5,51.4,0,.1.1.1.1.2C240.6,85,225,78.3,211.8,64.9,184.8,37.5,202.7,1.9,211.2-3.3Z"/><path class="cls-12" d="M210,62.9v-.2a1.5,1.5,0,0,0,.1-.7c.1-.6.2-1.6.5-2.8a37,37,0,0,1,1.7-4.2,38.3,38.3,0,0,1,3-5.4l2.8-4.6c.9-1.5,1.9-3.1,2.6-4.6a18.9,18.9,0,0,0,1.7-4.1c.2-.6.2-1.1.3-1.4v-.4h0v.4a10.6,10.6,0,0,0-.3,1.4,20.6,20.6,0,0,1-1.7,4c-.8,1.4-1.8,3-2.8,4.5l-2.8,4.5q-1.8,3-3,5.4a32.2,32.2,0,0,0-1.7,4.4A12.3,12.3,0,0,0,210,62v.9Z"/><path class="cls-12" d="M223.1,15.4c-.1,0-.1.4-.4,1.1s-.3.8-.5,1.4l-1,1.7c-.9,1.2-2.1,2.7-3.6,4.4l-5.5,6.1a71.5,71.5,0,0,0-4.7,5.7,34,34,0,0,0-3.8,6.6,25.5,25.5,0,0,0-1.1,3.3,15.7,15.7,0,0,0-.5,2.7v1.1a4.5,4.5,0,0,1,.1-1.1,17.6,17.6,0,0,1,.5-2.7,24.4,24.4,0,0,1,1.1-3.2,35.4,35.4,0,0,1,3.9-6.4,71.5,71.5,0,0,1,4.7-5.7l5.5-6a29.3,29.3,0,0,0,3.6-4.5,18,18,0,0,0,1-1.8,6.5,6.5,0,0,0,.5-1.5A5.6,5.6,0,0,0,223.1,15.4Z"/><path class="cls-12" d="M229.8.3c-.1,0-.1.4-.6,1a21.6,21.6,0,0,1-2.6,2.5c-1.2,1.1-2.9,2.4-4.9,4s-4.5,3.5-7.2,5.9a54.1,54.1,0,0,0-5.8,5.9,39.2,39.2,0,0,0-2.7,3.3c-.8,1.1-1.5,2.3-2.2,3.4a28.9,28.9,0,0,0-1.5,3.1l-1,2.7c-.2.7-.3,1.3-.4,1.8a2.8,2.8,0,0,0-.1.6,2.8,2.8,0,0,1,.1-.6l.5-1.8,1-2.6a32.7,32.7,0,0,1,1.7-3.1,21,21,0,0,1,2.2-3.3,26.9,26.9,0,0,1,2.7-3.2,79.3,79.3,0,0,1,5.8-5.8L222,8.2c2-1.6,3.7-2.9,4.9-4a11.3,11.3,0,0,0,2.5-2.7,1.6,1.6,0,0,0,.4-.9Z"/><path class="cls-12" d="M227.1,52.5a1.5,1.5,0,0,0-.1.6c-.1.3-.2.9-.4,1.7s-.6,1.6-1.1,2.7-1,2.3-1.7,3.8l-1.4,3.5c-.4,1.2-.8,2.5-1.1,3.7l-.3,1.8a7.1,7.1,0,0,0-.1,1.4c0,.4.1.7.1,1v.2h0V71.7a7.1,7.1,0,0,1,.1-1.4,5.5,5.5,0,0,1,.3-1.7,26.5,26.5,0,0,1,1.2-3.7,34.5,34.5,0,0,1,1.4-3.4c.7-1.4,1.2-2.7,1.7-3.8s.8-2,1-2.8l.3-1c0-.3.1-.6.1-.8Z"/><path class="cls-12" d="M233.5,70.9l-.2.2a.4.4,0,0,1-.1.3c0,.1-.1.2-.1.4l-.7,1.2L231,74.6l-1.1,1.5a3.5,3.5,0,0,0-.6,1.6,2.4,2.4,0,0,0,.2,1.3c.1.1.1.1.1.2h.1V79a2.7,2.7,0,0,1-.1-1.3,3.4,3.4,0,0,1,.7-1.5l1.2-1.4c.5-.7,1-1.2,1.3-1.7a4,4,0,0,0,.7-1.2,1.1,1.1,0,0,0,.1-.5.4.4,0,0,0,.1-.3C233.6,70.9,233.5,70.9,233.5,70.9Z"/><path class="cls-12" d="M223.5,14.7c-.1,0-.1.3.2.8a8.5,8.5,0,0,0,2.3,1.9,37.4,37.4,0,0,0,5.3,2.6l8.1,3.4a70.4,70.4,0,0,1,6.7,3.4,26.9,26.9,0,0,1,5.4,3.9,13.2,13.2,0,0,1,2.7,3.6,5.1,5.1,0,0,1,.5,1.2,1.6,1.6,0,0,1,.1.4,1,1,0,0,0-.1-.4,10.3,10.3,0,0,0-.3-1.2,12.6,12.6,0,0,0-2.5-3.7,26.3,26.3,0,0,0-5.3-4.1,61.1,61.1,0,0,0-6.7-3.5l-8-3.5a29.8,29.8,0,0,1-5.3-2.5,10,10,0,0,1-2.4-1.7C223.8,14.9,223.6,14.6,223.5,14.7Z"/><path class="cls-12" d="M223,29l.2.2v.2l.3.3,2.4,1.5a29.1,29.1,0,0,0,4.4,1.7l6.5,2.1,2.8,1,2.9,1.2c.9.5,1.8.9,2.7,1.5l1.2.9.6.4.6.5,1,.9.4.5.4.5.4.4.3.5.3.4a.8.8,0,0,1,.2.4l.4.7.3.6a1.1,1.1,0,0,0,.2.4,1.1,1.1,0,0,1-.2-.4c-.1-.2-.1-.4-.2-.6l-.4-.7-.2-.4-.3-.5-.3-.5-.4-.4a1,1,0,0,0-.4-.5l-.4-.5-1-1-.5-.5-.6-.5-1.3-.9a17.5,17.5,0,0,0-2.7-1.6l-2.9-1.3L237,34.4l-6.5-2.1-4.3-1.6-2.4-1.3-.3-.2c-.1-.1-.2-.1-.2-.2S223.1,28.9,223,29Z"/><path class="cls-12" d="M225.3,40.8c-.2,0-.3.2-.1.6a3.6,3.6,0,0,0,1.4,1.7,36,36,0,0,0,4.3,2.8l7,3.8a40.4,40.4,0,0,1,5.6,3.5,11.1,11.1,0,0,1,3.6,3.6,3.7,3.7,0,0,1,.3,3c-.1.2-.1.4-.2.5a.8.8,0,0,0-.2.4l-.3.3.3-.3.3-.4.3-.5a3.4,3.4,0,0,0,.2-3,9.8,9.8,0,0,0-3.2-3.8,35.1,35.1,0,0,0-5.3-3.6l-6.9-3.8L228,42.9C226,41.5,225.7,40.8,225.3,40.8Z"/><path class="cls-12" d="M233.6,70.2c-.1,0,0,.2.1.4a3.6,3.6,0,0,0,.7.9l.7.6,1,.6,2.4,1.3,2.1,1.3,1.8,1.7,1.2,1.5.3.5h0c0-.2-.1-.3-.3-.5l-1-1.6a10.7,10.7,0,0,0-1.8-1.9l-2.1-1.5-2.4-1.4a7.4,7.4,0,0,1-1.6-1C234,70.5,233.7,70.1,233.6,70.2Z"/><path class="cls-12" d="M229.5,1.5c-.1,0-.1.3.2.8a7.3,7.3,0,0,0,1.4,2A26.7,26.7,0,0,0,234.4,7l5.4,3.3a108,108,0,0,1,9.5,5.6l1.9,1.4.7.6.6.6.5.5.3.4.3.4-.3-.4L253,19l-.4-.5-.6-.7-.7-.7-1.8-1.5a105.6,105.6,0,0,0-9.3-5.9l-5.3-3.2a26.7,26.7,0,0,1-3.3-2.7C230,2.3,229.7,1.4,229.5,1.5Z"/><path class="cls-12" d="M226.8,52.9c-.1,0-.2.2-.1.6a5.2,5.2,0,0,0,1.2,1.6,24.2,24.2,0,0,0,3.4,2.6l5.6,3.6a37.2,37.2,0,0,1,4.5,3.3,10,10,0,0,1,2.9,3.5,4.1,4.1,0,0,1,.3,2.8c-.1.1-.1.3-.2.4s-.1.3-.2.4l-.2.3.3-.3c0-.1.1-.2.2-.4s.1-.3.2-.4a3.5,3.5,0,0,0,.2-2.9,9.8,9.8,0,0,0-2.6-3.6,33.9,33.9,0,0,0-4.2-3.3c-2.1-1.5-4.1-2.7-5.6-3.7a37.3,37.3,0,0,1-3.5-2.5C227.4,53.6,227.2,52.9,226.8,52.9Z"/><path class="cls-13" d="M231-.3a14.4,14.4,0,0,0-1.8,2.5,21.5,21.5,0,0,0-1.4,2.6,28.4,28.4,0,0,0-1.9,5.6A50.4,50.4,0,0,0,224.5,22a92.3,92.3,0,0,0,3.4,23.2,214.3,214.3,0,0,0,7.6,22.6c2.9,7.6,6.1,15,9.1,22.6a121.3,121.3,0,0,1-13.4-20.6,109.9,109.9,0,0,1-9.1-23.1,70.3,70.3,0,0,1-2.3-25,43.9,43.9,0,0,1,3.3-12.3A32.4,32.4,0,0,1,226.4,4,17.1,17.1,0,0,1,231-.3Z"/><path class="cls-14" d="M231.8-1.2s25.4,8.5,21.3,36c-1,6.1-6.2,14.4-7.2,20.4-4.8,29.8-1.8,24.9-1.5,33.4,0,0-1.5-11,3.2-28.8,0,0,4.7-16.2,5.3-18.9,2-8.8,5.6-14.1-1.2-27.5C251.7,13.4,241.9-5.9,231.8-1.2Z"/><path class="cls-8" d="M227.2-2.9s-14.9-3.6-23.5,15.5c0,0-11.6,35.4,12.4,54.3,0,0,23.6,17.2,25.8,20.8a123.6,123.6,0,0,0-14.7-10s-19.8-13.5-24.5-25.5c0,0-11.9-16.9-.3-43.5C202.4,8.7,208.9-11.4,227.2-2.9Z"/></g></g></g></g></g></svg>