<svg xmlns="http://www.w3.org/2000/svg" xmlns:xlink="http://www.w3.org/1999/xlink" viewBox="0 0 443.8 451.5"><defs><style>.cls-1{fill:none;}.cls-2{isolation:isolate;}.cls-3{opacity:0.5;}.cls-4{fill:url(#linear-gradient);}.cls-5{fill:#31d0e5;stroke-width:6px;stroke:url(#linear-gradient-2);}.cls-11,.cls-5,.cls-7{stroke-miterlimit:10;}.cls-6{clip-path:url(#clip-path);}.cls-7{fill:#41a022;stroke:#38841c;stroke-width:0.5px;}.cls-8{fill:#204910;opacity:0.32;}.cls-9{fill:#8fc12f;}.cls-14,.cls-9{opacity:0.51;}.cls-10{fill:#353535;}.cls-11{fill:#48bc28;stroke:#45a525;}.cls-12,.cls-13{fill:#b0e573;}.cls-12{mix-blend-mode:screen;opacity:0.69;}.cls-14{fill:#b6f261;}</style><linearGradient id="linear-gradient" x1="43.17" y1="103.28" x2="392.43" y2="342.6" gradientUnits="userSpaceOnUse"><stop offset="0" stop-color="#9b81cf"/><stop offset="1" stop-color="#3b139b"/></linearGradient><linearGradient id="linear-gradient-2" x1="16.1" y1="225.74" x2="427.68" y2="225.74" gradientUnits="userSpaceOnUse"><stop offset="0" stop-color="#4c1da9"/><stop offset="1" stop-color="#997ece"/></linearGradient><clipPath id="clip-path"><circle class="cls-1" cx="222.6" cy="226.4" r="199.8"/></clipPath></defs><g class="cls-2"><g id="SB39_Interactive_Icon_13_F1"><path class="cls-3" d="M435.1,237a208.3,208.3,0,0,0-25.4-100A211.6,211.6,0,0,0,221.9,23C105,23,10.2,117.8,10.2,234.7S105,446.3,221.9,446.3c3,0,5.9,0,8.9-.2C344.1,443.6,435.1,350.9,435.1,237Z"/><circle class="cls-4" cx="221.9" cy="225.7" r="211.7"/><circle class="cls-5" cx="221.9" cy="225.7" r="202.8"/><g id="_001" data-name="001"><g class="cls-6"><g id="_003" data-name="003"><path class="cls-7" d="M98.2,286s-21.1-10.8-36.1-3.9l-2.7,6.3s13.7-8.6,37-1.8Z"/><path class="cls-8" d="M59.4,288.4s13.4-9,37-1.8l.8-.3s-24.6-8.8-37.2.9Z"/><path class="cls-9" d="M62.1,282.1s11.8-5.2,28.3.7c0,0-14.7-4.4-28.4-.4Z"/><path class="cls-1" d="M238.8,384.2h0Z"/><path class="cls-10" d="M240.2,384.1h.2c.1,0,.4.1.2.3a1,1,0,0,1-.7.2h-.2c-.2,0-.5-.1-.3-.3a1.2,1.2,0,0,1,.8-.2h.2c-.2.2-.4.3-.5.5h-.2c-.2,0-.5-.1-.3-.3A1.1,1.1,0,0,1,240.2,384.1Z"/><path class="cls-11" d="M126.9,335.4c-46.6-40.9-33.6-50.8-33.6-50.8-2.8-7.5,10.1-20.5,45.6-11.5,27.1,6.9,32,20.7,54,55.4,24.8,39.1,43.7,49.7,47,50.4C219.4,375.5,161.6,365.9,126.9,335.4Z"/><path class="cls-7" d="M64.4,308.8c2.3-13.1,17-24.4,28.9-24.2,0,0,.7,30.2,48.3,59.2,39.4,24,77.3,31.7,97.8,35.1h.5c-14.6-1.6-43.5,12-78.8,13.8C89,396.7,61.2,327.1,64.4,308.8Z"/><path class="cls-12" d="M156.1,392.9l-.3-.3-.9-1a27.4,27.4,0,0,1-3.2-4.2,50.8,50.8,0,0,1-3.9-7.5c-1.3-3.1-2.6-6.8-3.9-11l-2.9-9.6c-1-3.3-2.1-6.6-3.2-9.6a39.1,39.1,0,0,0-3.7-7.4,8,8,0,0,0-1.7-2.1c-.1-.1-.2-.3-.3-.3l-.2-.2c-.1-.2-.2-.2-.2-.2s.1,0,.2.2l.2.2.3.3a15.8,15.8,0,0,1,1.6,2.1,32.1,32.1,0,0,1,3.5,7.4c1.1,2.9,2,6.2,3,9.5s1.9,6.6,2.8,9.6a98,98,0,0,0,3.9,11,49.2,49.2,0,0,0,4,7.7,32.6,32.6,0,0,0,3.5,4.3l1,.9Z"/><path class="cls-12" d="M105.6,315.3c-.1.1.4.6,1.1,1.9a13.3,13.3,0,0,1,1.2,2.4c.4,1,.7,2.2,1.1,3.6a80.1,80.1,0,0,1,1.8,10.5c.5,4.3.9,9.3,1.7,15.3a126.7,126.7,0,0,0,2.2,13.8,65.9,65.9,0,0,0,4.6,13.6,32.9,32.9,0,0,0,3.2,5.6,29.4,29.4,0,0,0,3.3,4.1l1.4,1.4,1.1,1,1,.8-1-.8-1.1-1.1a18.4,18.4,0,0,1-1.4-1.4,29.2,29.2,0,0,1-3.1-4.1,32.8,32.8,0,0,1-3.1-5.6,64.5,64.5,0,0,1-4.3-13.5,120.9,120.9,0,0,1-2-13.6c-.7-6-1.1-11.1-1.7-15.4a68.5,68.5,0,0,0-1.9-10.6,26.4,26.4,0,0,0-1.3-3.7,19.1,19.1,0,0,0-1.3-2.5A10.9,10.9,0,0,0,105.6,315.3Z"/><path class="cls-12" d="M92.6,287c-.1.1.4.7.7,2.1a31.5,31.5,0,0,1,.3,6.8c-.1,3.1-.3,7-.6,11.9s-.6,10.6-.6,17.4a142.2,142.2,0,0,0,1,15.6c.4,2.7.8,5.3,1.4,7.9s1.3,4.9,2.1,7.2a43,43,0,0,0,2.5,6.1,31.8,31.8,0,0,0,2.5,4.6,26.8,26.8,0,0,0,2,2.9l.7,1-.7-1-1.9-2.9c-.7-1.3-1.6-2.9-2.4-4.7a60.3,60.3,0,0,1-2.3-6.1c-.7-2.3-1.3-4.7-1.9-7.3s-.9-5.1-1.2-7.8c-.5-5.2-.7-10.6-.7-15.4,0-6.8.4-12.5.6-17.4s.5-8.8.5-12a28,28,0,0,0-.7-6.9,4.6,4.6,0,0,0-.8-1.6C92.9,287.1,92.7,287,92.6,287Z"/><path class="cls-12" d="M162.7,355.9l.7.8a17.2,17.2,0,0,1,1.8,2.8,47.9,47.9,0,0,1,2.6,4.8l3.3,7.1c.9,2,1.9,4.2,3.1,6.3s2.5,4.4,3.8,6.3a29.6,29.6,0,0,0,2.1,2.6,17,17,0,0,0,2,1.9l1.4,1.1.4.2h0l-.4-.2-1.4-1.1-1.9-1.9-2-2.6a62.7,62.7,0,0,1-3.6-6.2c-1.1-2.2-2.1-4.4-3-6.3s-2.3-5.1-3.3-7.1-1.8-3.6-2.6-4.9a12.5,12.5,0,0,0-1.2-1.7,6.2,6.2,0,0,0-.9-1.2Z"/><path class="cls-12" d="M196.5,369.8a1,1,0,0,0,.2.5.9.9,0,0,0,.3.5l.3.7a9.2,9.2,0,0,1,.8,2.5c.2,1,.4,2.3.7,3.9a13.7,13.7,0,0,0,.7,3.4,6.2,6.2,0,0,0,1.5,2.9,3.8,3.8,0,0,0,2,1.3h.1a3.9,3.9,0,0,1-1.9-1.4,6.4,6.4,0,0,1-1.2-2.9,23.3,23.3,0,0,1-.6-3.5c-.2-1.6-.4-2.9-.6-4a13.7,13.7,0,0,0-.9-2.5l-.5-.7-.4-.4C196.7,369.8,196.6,369.7,196.5,369.8Z"/><path class="cls-12" d="M105,313.7c0,.2.3.6,1.4.8a13.4,13.4,0,0,0,5.6-.8,97.8,97.8,0,0,0,10.2-4.2c4.2-2,9.2-4.5,14.9-7.1a137.8,137.8,0,0,1,13.1-5.3,55.3,55.3,0,0,1,12.4-2.8,24.9,24.9,0,0,1,8.4.7l2.2.8.7.4-.7-.4-2.1-1a24.7,24.7,0,0,0-8.3-1.1,52.2,52.2,0,0,0-12.4,2.3,114.7,114.7,0,0,0-13.1,5.1c-5.9,2.6-10.8,5-15,7a102.5,102.5,0,0,1-10.1,4.3,17.5,17.5,0,0,1-5.5,1.2Z"/><path class="cls-12" d="M124.6,332.3h1.7a18,18,0,0,0,5.1-1.4,68.1,68.1,0,0,0,7.9-4.1l11-6.6,4.9-2.7,5.3-2.5a51,51,0,0,1,5.5-1.9l2.7-.7,1.4-.3,1.3-.2,2.6-.2h5.5l.9.2,1.5.3,1.1.3.9.3a2.5,2.5,0,0,0-.9-.3l-1.1-.4-1.5-.4-.9-.2h-.9l-1.1-.2H174a11.3,11.3,0,0,0-2.6.1H170l-1.4.3a15,15,0,0,0-2.9.6,36.5,36.5,0,0,0-5.6,1.8c-1.9.7-3.7,1.6-5.5,2.4l-4.9,2.6c-4.4,2.5-8,4.8-11.1,6.6a67.6,67.6,0,0,1-7.7,4.1,28.3,28.3,0,0,1-4.7,1.7l-.7.2h-.6Q124.6,332.2,124.6,332.3Z"/><path class="cls-12" d="M144.1,343.8c-.3.3-.1.7.6,1a9.8,9.8,0,0,0,4.3,0,56.5,56.5,0,0,0,9.1-2.5l14.1-5.1a114.7,114.7,0,0,1,11.9-3.6,25,25,0,0,1,9.6-.5,6.8,6.8,0,0,1,4.6,3.3l.4.9.3.8a3.1,3.1,0,0,0,.2.7,2.8,2.8,0,0,1-.1-.8c-.1-.2-.1-.5-.2-.8l-.3-1.1a6.8,6.8,0,0,0-4-4c-2.3-.9-5.6-1-9.3-.3a75.1,75.1,0,0,0-11.7,3.1l-14,4.9a76.6,76.6,0,0,1-9.2,2.8C145.9,343.7,144.6,343.2,144.1,343.8Z"/><path class="cls-12" d="M195.7,368.8c0,.1.2.2.7.3a4.9,4.9,0,0,0,2.2.1l1.7-.2,2-.6,4.9-1.8a29.6,29.6,0,0,1,4.5-1.2,24.9,24.9,0,0,1,4.6-.5l3.6.2h1l-1-.2a23.9,23.9,0,0,0-3.6-.5,26,26,0,0,0-4.8.1,21.6,21.6,0,0,0-4.7,1.1l-5,1.7a14.4,14.4,0,0,1-3.4.9C196.6,368.6,195.8,368.5,195.7,368.8Z"/><path class="cls-12" d="M93.9,288.9c0,.2.4.4,1.3.7a14.2,14.2,0,0,0,4.7.5,34.4,34.4,0,0,0,8-1.2c3.3-.8,7-2,11.4-3.5,6.1-2.2,13.5-5,19.6-6.5l4.3-.8,1.8-.2,1.6-.2h-3.4l-4.4.7c-6.2,1.1-13.7,3.7-19.9,5.8-4.4,1.4-8.1,2.6-11.2,3.4a52.1,52.1,0,0,1-7.8,1.3C95.8,289.2,94,288.6,93.9,288.9Z"/><path class="cls-12" d="M163,356.8q-.3.3.6.9a11.7,11.7,0,0,0,3.8.3,54.6,54.6,0,0,0,7.9-1.6c3.3-.8,7.4-2.1,12.1-3.4a74.3,74.3,0,0,1,10.2-2.2,21.4,21.4,0,0,1,8.5.2,7.3,7.3,0,0,1,4.2,3.2l.5.8.3.7a3.2,3.2,0,0,0,.2.6,3.2,3.2,0,0,1-.2-.6,2.4,2.4,0,0,0-.2-.8l-.3-.9a7.2,7.2,0,0,0-3.9-3.8,17.1,17.1,0,0,0-8.2-.9,61.3,61.3,0,0,0-10.1,1.8l-12,3.3a72.7,72.7,0,0,1-7.9,1.8C164.6,356.8,163.4,356.3,163,356.8Z"/><path class="cls-13" d="M93.3,284.6a27.1,27.1,0,0,0,.9,5.7,37.4,37.4,0,0,0,1.7,5.4,61.7,61.7,0,0,0,4.9,10,84.4,84.4,0,0,0,6.6,9.1l1.8,2.1,1.9,2.1,4,3.9a122.9,122.9,0,0,0,17.6,13.8,180.4,180.4,0,0,0,19.6,11.2c1.6.9,3.4,1.7,5,2.5s3.4,1.7,5.2,2.4l5.2,2.3,2.6,1.1,2.6,1c3.5,1.5,7,2.9,10.6,4.1s7.1,2.7,10.7,3.9c14.4,4.9,29,9.1,43.7,13.4a302.5,302.5,0,0,1-45.1-9,232.3,232.3,0,0,1-43.2-16.3l-5.2-2.7-5-2.9-2.5-1.5-2.5-1.6c-1.6-1-3.3-2-4.9-3.2l-4.7-3.5-4.5-3.6-4.4-3.9-4.1-4.2a77.7,77.7,0,0,1-13.5-19.1,55,55,0,0,1-4-10.9A32.5,32.5,0,0,1,93.3,284.6Z"/><path class="cls-14" d="M93,282.4s43.6-25.3,77.2,14.9c7.4,8.9,12.5,26.6,19.8,35.5,36,43.8,32.8,33.6,45.2,43.7,0,0-17.4-11.6-36.6-40.4,0,0-16.9-26.7-20-31-9.9-13.8-12.9-25.4-40.2-32.6C138.4,272.5,99,262.3,93,282.4Z"/><path class="cls-8" d="M84.9,286.8S61.3,303,77.4,339.1c0,0,35.4,60.3,91.9,50.2,0,0,53.6-11.8,61.5-10.4,0,0-12.2,1.8-32.5,8.2,0,0-43.6,11-66.4,2.7,0,0-38.6-4.2-61.6-53.9C70.3,335.9,50.1,301.7,84.9,286.8Z"/><path class="cls-7" d="M286.7,243.5s-15.2-5.1-24.6,1L261,249s8.3-7.1,24.5-4.8Z"/><path class="cls-8" d="M261,249s8-7.4,24.5-4.8l.6-.3s-17.4-3.6-24.9,4.2Z"/><path class="cls-9" d="M262.1,244.5s7.4-4.6,19.1-2.3c0,0-10.3-1.5-19.1,2.5Z"/><path class="cls-1" d="M390.6,295.5h0Z"/><path class="cls-10" d="M391.5,295.3h.2c.1-.1.3,0,.2.1s-.4.2-.5.2h-.2c-.1,0-.3,0-.2-.1s.4-.2.5-.2h.2l-.3.3h-.2c-.1,0-.3,0-.2-.1S391.4,295.3,391.5,295.3Z"/><path class="cls-11" d="M310.8,273.8c-35.2-22.8-27.6-30.7-27.6-30.7-2.5-4.8,4.8-14.7,29.5-12.2,18.9,1.9,23.5,10.7,41.7,31.8,20.4,23.7,34.2,28.9,36.5,29.1C376.8,291.5,337.1,290.9,310.8,273.8Z"/><path class="cls-7" d="M266.3,262.1c.2-9,9-17.9,16.9-19,0,0,3.5,20.1,38.3,34.9,28.7,12.2,54.9,13.6,69,13.9h.4c-10,.3-28,12.3-51.5,17C291.5,318.6,266,274.7,266.3,262.1Z"/><path class="cls-12" d="M336.1,309.5l-.3-.2-.7-.6a19.1,19.1,0,0,1-2.5-2.5,27.4,27.4,0,0,1-3.4-4.6c-1.2-2-2.4-4.3-3.7-7l-2.9-6.2c-1-2.1-2-4.2-3.1-6.1a26.1,26.1,0,0,0-3.2-4.6,6.4,6.4,0,0,0-1.3-1.2l-.3-.2a.1.1,0,0,0-.1-.1h0a.1.1,0,0,1,.1.1l.3.2,1.3,1.2a26.2,26.2,0,0,1,3,4.6c1,1.9,2,4,3,6.1s1.9,4.2,2.8,6.2,2.5,5,3.7,7a33.7,33.7,0,0,0,3.5,4.7,12.5,12.5,0,0,0,2.7,2.6l.8.5Z"/><path class="cls-12" d="M294.5,262.5a5.9,5.9,0,0,1,1,1.1l1,1.5a16.7,16.7,0,0,1,1.1,2.3,51.8,51.8,0,0,1,2.2,6.9c.8,2.8,1.6,6.1,2.7,10.1s1.7,5.9,2.8,9a46.3,46.3,0,0,0,4.4,8.6,35.5,35.5,0,0,0,2.7,3.5,26,26,0,0,0,2.7,2.4l1,.8.9.5.7.5-.7-.5-.8-.5-1.1-.9a13.9,13.9,0,0,1-2.5-2.4A23.4,23.4,0,0,1,310,302a41.2,41.2,0,0,1-4.2-8.7,90.2,90.2,0,0,1-2.8-8.9c-1-3.9-1.8-7.3-2.6-10.1a40.9,40.9,0,0,0-2.3-7,16.1,16.1,0,0,0-1.2-2.3,6.5,6.5,0,0,0-1.2-1.5C295,262.7,294.5,262.4,294.5,262.5Z"/><path class="cls-12" d="M283.1,244.8c-.1,0,.3.4.6,1.3a28.8,28.8,0,0,1,.9,4.5c.3,2.1.5,4.8.8,8s.6,7.2,1.3,11.8a86.7,86.7,0,0,0,2.2,10.3c.5,1.8,1.1,3.5,1.7,5.2a49,49,0,0,0,2.1,4.6,36.4,36.4,0,0,0,2.3,3.9,25.4,25.4,0,0,0,2.1,2.8l1.6,1.8.7.5-.6-.6-1.6-1.7-2.1-2.9q-1.1-1.8-2.1-3.9a51.1,51.1,0,0,1-2-4.7c-.6-1.6-1.1-3.3-1.6-5.1a103.5,103.5,0,0,1-2-10.3c-.6-4.5-1-8.4-1.3-11.7s-.5-5.9-.8-8a24.1,24.1,0,0,0-1.2-4.6,2.9,2.9,0,0,0-.7-1C283.2,244.8,283.1,244.7,283.1,244.8Z"/><path class="cls-12" d="M336.8,284l.6.5a15.6,15.6,0,0,1,1.5,1.7,24.5,24.5,0,0,1,2.1,3c.9,1.2,1.8,2.7,3,4.4s1.7,2.6,2.7,3.9a30.5,30.5,0,0,0,3.2,3.8l1.6,1.6L353,304l1.1.5.3.2h0l-.3-.2-1.1-.6a22.8,22.8,0,0,1-3-2.6,39.3,39.3,0,0,1-3.1-3.8l-2.6-3.9c-1.1-1.7-2-3.2-2.9-4.4a37.8,37.8,0,0,0-2.2-3.1l-1-1a4.6,4.6,0,0,0-.7-.7Z"/><path class="cls-12" d="M360.9,290c-.1,0,0,.1.1.3l.2.3.4.5a7.1,7.1,0,0,1,.7,1.5,25.6,25.6,0,0,1,.9,2.6,9.7,9.7,0,0,0,.8,2.2,4.2,4.2,0,0,0,1.3,1.8,2.9,2.9,0,0,0,1.5.7h0a3.7,3.7,0,0,1-1.4-.7,5.9,5.9,0,0,1-1.1-1.9,15.5,15.5,0,0,1-.7-2.3,25.6,25.6,0,0,0-.9-2.6,4.8,4.8,0,0,0-.8-1.6l-.4-.4-.3-.2C361,290,360.9,289.9,360.9,290Z"/><path class="cls-12" d="M294,261.5c0,.1.2.3,1,.3a8.2,8.2,0,0,0,3.7-1.1,68.9,68.9,0,0,0,6.4-3.8l9.3-6.2a95.4,95.4,0,0,1,8.3-4.9,34.7,34.7,0,0,1,8-3,14.8,14.8,0,0,1,5.7-.4l1.5.3.6.2-.6-.2-1.5-.4a14.7,14.7,0,0,0-5.6,0,34,34,0,0,0-8.1,2.8,81.8,81.8,0,0,0-8.3,4.7c-3.7,2.3-6.8,4.5-9.4,6.2l-6.3,3.9a14.3,14.3,0,0,1-3.5,1.3C294.4,261.4,294.1,261.3,294,261.5Z"/><path class="cls-12" d="M308.9,271.9c0,.1.1.1.3.1h.9a11,11,0,0,0,3.3-1.5,33.2,33.2,0,0,0,4.9-3.5l6.7-5.5c.9-.7,1.9-1.5,3-2.2l3.3-2.2a23.7,23.7,0,0,1,3.5-1.9l1.8-.7a3.2,3.2,0,0,1,.9-.3l.8-.3,1.8-.4h.7l-.8.2-1.8.3-.9.2-.9.3-1.8.7a25.3,25.3,0,0,0-3.7,1.8l-3.4,2.1-3,2.3-6.8,5.5a55.7,55.7,0,0,1-4.7,3.5,23.4,23.4,0,0,1-3.1,1.6l-.4.2-.3.2Z"/><path class="cls-12" d="M323.1,277.8c-.1.2.1.4.6.5a6.3,6.3,0,0,0,2.8-.3,44.2,44.2,0,0,0,5.9-2.7c2.5-1.2,5.5-2.9,9-4.8s5.1-2.6,7.5-3.5a15.9,15.9,0,0,1,6.5-1.3,4.4,4.4,0,0,1,3.4,1.7,3.3,3.3,0,0,0,.3.6l.3.5.2.5-.2-.5a1.4,1.4,0,0,0-.2-.6c0-.2-.2-.4-.3-.7a4.8,4.8,0,0,0-3.1-2.3,13,13,0,0,0-6.2.7,45,45,0,0,0-7.5,3.3c-3.5,1.7-6.5,3.4-8.9,4.6a55.3,55.3,0,0,1-5.9,2.8C324.4,277.5,323.4,277.3,323.1,277.8Z"/><path class="cls-12" d="M360.2,289.4c0,.1.2.1.5.2a5,5,0,0,0,1.5-.2l1.1-.3,1.3-.6,3.1-1.7,2.9-1.3a18.4,18.4,0,0,1,3-.7l2.4-.3h-2.4a12.8,12.8,0,0,0-3.2.6l-3.1,1.1-3.1,1.7-2.2.9C360.8,289.2,360.2,289.2,360.2,289.4Z"/><path class="cls-12" d="M284.1,245.9c0,.1.3.3,1,.4a8.9,8.9,0,0,0,3.1-.2,20.4,20.4,0,0,0,5.3-1.6,57.9,57.9,0,0,0,7.2-3.5c4-2,8.6-4.7,12.6-6.2l2.8-1,1.2-.3,1-.3h0l-1.1.2-1.2.3-2.8.8a105.5,105.5,0,0,0-12.8,5.9l-7.2,3.4a31.7,31.7,0,0,1-5.1,1.6C285.4,245.9,284.1,245.7,284.1,245.9Z"/><path class="cls-12" d="M337.1,284.6c-.1.2,0,.3.5.5a8,8,0,0,0,2.6-.1,28.3,28.3,0,0,0,5.1-1.9l7.8-3.4a40.6,40.6,0,0,1,6.6-2.5,13.6,13.6,0,0,1,5.7-.7,4.5,4.5,0,0,1,3.2,1.7l.4.5c.1.1.1.3.2.4l.2.4s0-.1-.2-.4-.1-.3-.2-.5-.2-.4-.3-.6a4.8,4.8,0,0,0-2.9-2.2,10.9,10.9,0,0,0-5.6.3,32,32,0,0,0-6.6,2.2c-3,1.2-5.6,2.4-7.7,3.4l-5.2,1.9C338.2,284.4,337.3,284.2,337.1,284.6Z"/><path class="cls-13" d="M283.2,243.1a23.5,23.5,0,0,0,1.4,3.7,34.1,34.1,0,0,0,1.7,3.3,38.4,38.4,0,0,0,4.5,6.1,59,59,0,0,0,11.3,9.8c8.3,5.6,17.7,9.6,27.2,12.8a269.2,269.2,0,0,0,29.7,7.6c10,2,20.2,3.6,30.5,5.4a172.4,172.4,0,0,1-31.3-.8,155.5,155.5,0,0,1-30.7-6.5c-10-3.4-19.8-8-28.2-14.7A52.5,52.5,0,0,1,288.5,258a40.8,40.8,0,0,1-3.7-7.2A22.5,22.5,0,0,1,283.2,243.1Z"/><path class="cls-14" d="M282.9,241.7s26.7-21.3,53.2,2.3c5.8,5.2,10.9,16.6,16.7,21.9,28.5,25.8,25.3,19.2,34.6,24.8,0,0-12.8-6.1-28.5-23.5,0,0-13.9-16.3-16.4-18.8-8-8.3-11.2-15.7-30.2-17.9C312.3,230.5,284.9,227.6,282.9,241.7Z"/><path class="cls-8" d="M277.9,245.4s-14.3,13.2.1,35.8c0,0,29.7,36.9,66.5,24.5,0,0,34.8-13.1,40.2-13a154.4,154.4,0,0,0-20.9,8.7s-28.2,11.7-44.3,8.4c0,0-26.3,1-46.6-30C272.9,279.8,256,258.8,277.9,245.4Z"/><path class="cls-7" d="M197.6,161.2s-12.5-1.9-18.9,4.2l-.2,3.6s5.4-6.7,18.3-7.2Z"/><path class="cls-8" d="M178.5,169s5.2-6.8,18.3-7.2l.3-.3s-13.9-.2-18.6,6.8Z"/><path class="cls-9" d="M178.7,165.4s5.1-4.6,14.4-4.5c0,0-8.2.3-14.4,4.6Z"/><path class="cls-1" d="M285.2,186.7h0Z"/><path class="cls-10" d="M285.9,186.4h.3c-.1.2-.3.2-.4.3h-.1c-.1,0-.3,0-.2-.1l.4-.2h.1l-.2.4h-.1c-.1,0-.3,0-.2-.1Z"/><path class="cls-11" d="M220.5,181.2c-30.5-12.7-25.6-19.9-25.6-19.9-2.7-3.3,1.6-12,21-13.6,14.8-1.1,19.6,5,36.7,18.7,19.1,15.5,30.5,17.6,32.3,17.4C273.9,185.6,243.2,190.6,220.5,181.2Z"/><path class="cls-7" d="M184.4,178.4c-1.1-7,4.4-15.1,10.5-17.1,0,0,5.5,15.1,34.4,21.6,23.9,5.4,44.4,2.8,55.3,1h.3c-7.7,1.6-19.9,13.4-37.4,20.4C211.8,218.5,186,188.2,184.4,178.4Z"/><path class="cls-12" d="M245,205.2l-.2-.2-.6-.3a14.5,14.5,0,0,1-2.3-1.5,24,24,0,0,1-3.3-3.2,57.7,57.7,0,0,1-3.8-4.8l-3.1-4.4c-1.1-1.5-2.2-3-3.3-4.3a22.5,22.5,0,0,0-3.1-3.1l-1.2-.8h0l1.1.8a19.1,19.1,0,0,1,3.1,3.2l3.1,4.2,3,4.4c1.4,1.9,2.7,3.5,3.9,4.9a31.9,31.9,0,0,0,3.3,3.2,9,9,0,0,0,2.5,1.5l.7.3Z"/><path class="cls-12" d="M206.3,174.7c0,.1.3.2.9.7l1,1.1a7.4,7.4,0,0,1,1.2,1.6,42.2,42.2,0,0,1,2.7,5c1,2,2,4.5,3.4,7.4s2.2,4.3,3.5,6.5a32.5,32.5,0,0,0,4.6,6.1,25.3,25.3,0,0,0,2.6,2.3l2.4,1.5.9.5.7.3.7.2-.7-.2-.7-.4-.9-.4a13.8,13.8,0,0,1-2.3-1.6,24.6,24.6,0,0,1-2.5-2.2,34.3,34.3,0,0,1-4.5-6.1c-1.3-2.2-2.4-4.5-3.4-6.6l-3.4-7.4a37.6,37.6,0,0,0-2.8-5.1l-1.2-1.6-1.1-1A3.8,3.8,0,0,0,206.3,174.7Z"/><path class="cls-12" d="M195,162.6c-.1.1.2.3.6,1a19,19,0,0,1,1.4,3.3c.4,1.6,1,3.6,1.7,6.1s1.5,5.5,2.7,8.9a68.9,68.9,0,0,0,3.1,7.7c.7,1.3,1.3,2.5,2.1,3.7s1.5,2.3,2.2,3.3l2.3,2.7,2.1,1.9,1.5,1.1.6.4-.6-.4-1.4-1.2a17,17,0,0,1-2-1.9,32.3,32.3,0,0,1-2.3-2.7q-1-1.5-2.1-3.3c-.7-1.2-1.4-2.5-2-3.8a66.4,66.4,0,0,1-3-7.6c-1.1-3.4-1.9-6.4-2.6-8.9s-1.3-4.5-1.8-6.1a15.7,15.7,0,0,0-1.6-3.4l-.6-.6Z"/><path class="cls-12" d="M242,185.4l.5.3a7.9,7.9,0,0,1,1.4,1.1,18.3,18.3,0,0,1,2.1,2l2.9,3,2.6,2.6a33.1,33.1,0,0,0,3,2.5l1.5,1,1.3.6.9.3h0l-.8-.3-1.3-.7a6,6,0,0,1-1.5-.9,32.3,32.3,0,0,1-2.9-2.5l-2.6-2.7-2.8-3-2.2-2-.8-.7-.7-.4Z"/><path class="cls-12" d="M261.4,186.6l.2.2a.2.2,0,0,0,.2.2l.3.4a3.5,3.5,0,0,1,.8,1.1,9.6,9.6,0,0,1,1,1.8,14,14,0,0,0,1,1.6,3.4,3.4,0,0,0,1.2,1.2,2.4,2.4,0,0,0,1.3.3h0a2.1,2.1,0,0,1-1.2-.4,4.7,4.7,0,0,1-1.1-1.3l-.9-1.6-1-1.9a3.5,3.5,0,0,0-.9-1.1q-.2-.3-.3-.3l-.3-.2Z"/><path class="cls-12" d="M205.8,174c-.1.1.2.2.8.1a6.6,6.6,0,0,0,2.6-1.3,55.1,55.1,0,0,0,4.5-3.9c1.8-1.7,3.8-3.8,6.3-6.1a54.3,54.3,0,0,1,5.7-4.9,28.4,28.4,0,0,1,5.7-3.5,13.9,13.9,0,0,1,4.4-1.1h0a14.1,14.1,0,0,0-4.3.8,29.7,29.7,0,0,0-5.9,3.3c-2,1.5-4,3.2-5.8,4.8s-4.5,4.4-6.3,6.1a56.6,56.6,0,0,1-4.4,3.9,12.1,12.1,0,0,1-2.5,1.6Z"/><path class="cls-12" d="M218.8,180h.5l.4-.2a8.7,8.7,0,0,0,2.3-1.6,36.8,36.8,0,0,0,3.3-3.4c1.2-1.4,2.6-3.2,4.4-5.2l2-2.2,2.2-2.1a15,15,0,0,1,2.5-1.9l1.2-.9.7-.3.6-.3,1.3-.6.6-.2.6-.2.5-.2h0l-.6.2h-.6l-.6.2-1.3.5-.7.4-.6.3-1.4.8-2.5,1.9-2.3,2.1-2.1,2.2c-1.8,2-3.2,3.7-4.4,5.2l-3.2,3.4-2.1,1.7-.3.2h-.3C218.8,179.9,218.7,180,218.8,180Z"/><path class="cls-12" d="M230.6,182.5c-.1.2,0,.3.5.4a5.5,5.5,0,0,0,2.1-.7,26.9,26.9,0,0,0,4.2-2.9l6.2-5a65.8,65.8,0,0,1,5.4-3.8,12.9,12.9,0,0,1,4.8-1.9,3.4,3.4,0,0,1,2.8.9l.4.4.3.3.2.4-.2-.4a.8.8,0,0,1-.2-.4l-.4-.5A3.2,3.2,0,0,0,254,168a8.8,8.8,0,0,0-4.7,1.4,35.5,35.5,0,0,0-5.4,3.5l-6.2,4.9c-1.7,1.4-3.1,2.3-4.1,3S230.7,182.1,230.6,182.5Z"/><path class="cls-12" d="M260.9,186.2c0,.1.1.1.3.1l1.2-.3.8-.4.9-.7,2.2-1.7,2-1.4a11.5,11.5,0,0,1,2.3-1,8.3,8.3,0,0,1,1.8-.5h0l-1.9.4a11.7,11.7,0,0,0-2.4.9,8,8,0,0,0-2.2,1.3l-2.2,1.7-1.6,1.1C261.3,186,260.8,186.1,260.9,186.2Z"/><path class="cls-12" d="M195.9,163.4h.8a6.4,6.4,0,0,0,2.4-.5,24.2,24.2,0,0,0,3.9-2c1.5-1,3.2-2.2,5.1-3.7a87.7,87.7,0,0,1,8.8-6.6l2-1.2.9-.4.8-.3.6-.3h0l-.7.2-.8.3-.9.3-2,1.1a70.3,70.3,0,0,0-9.1,6.3c-1.9,1.5-3.6,2.7-5.1,3.7a36.2,36.2,0,0,1-3.7,2C196.9,163.2,195.9,163.2,195.9,163.4Z"/><path class="cls-12" d="M242.3,185.8c0,.1.1.3.5.3a3.5,3.5,0,0,0,1.9-.5,26.3,26.3,0,0,0,3.8-2.1l5.5-3.8a44.8,44.8,0,0,1,4.7-2.8,12.6,12.6,0,0,1,4.3-1.4,3.8,3.8,0,0,1,2.7.9l.4.3.2.3.3.3-.2-.3-.3-.4-.3-.4a4.2,4.2,0,0,0-2.6-1.2,9.2,9.2,0,0,0-4.3.9,31.7,31.7,0,0,0-4.7,2.7l-5.5,3.7a38.2,38.2,0,0,1-3.7,2.2C243.1,185.5,242.4,185.5,242.3,185.8Z"/><path class="cls-13" d="M194.9,161.3a11.3,11.3,0,0,0,1.6,2.6,21.1,21.1,0,0,0,1.9,2.3,32.4,32.4,0,0,0,4.3,4,51.1,51.1,0,0,0,10.2,5.7c7.2,3.1,14.9,4.7,22.7,5.9a233.8,233.8,0,0,0,23.8,1.8c8.1.2,16.2.1,24.4.4a132,132,0,0,1-24.2,4.3,114.2,114.2,0,0,1-24.8-.6c-8.3-1.2-16.6-3.4-24-7.6a38,38,0,0,1-10-7.8,37.5,37.5,0,0,1-3.8-5.1A17.3,17.3,0,0,1,194.9,161.3Z"/><path class="cls-14" d="M194.4,160.3s17.6-20.2,41.4-5.7c5.2,3.2,10.8,11.3,16,14.5,25.6,15.9,22.3,11.3,30.3,14.3,0,0-10.8-2.8-25.4-14.1,0,0-13-10.6-15.3-12.2-7.4-5.3-10.9-10.6-25.9-9.6C215.5,147.5,193.9,149.1,194.4,160.3Z"/><path class="cls-8" d="M191,163.8s-9.1,12.3,5.2,27.7c0,0,28.1,24.4,54.8,9.6,0,0,25-15.1,29.2-15.8a125.5,125.5,0,0,0-14.9,9.7s-20.1,13-33,12.7c0,0-20.2,4.5-40.2-16.6C192.1,191.1,176,177.3,191,163.8Z"/></g></g></g></g></g></svg>