<svg xmlns="http://www.w3.org/2000/svg" xmlns:xlink="http://www.w3.org/1999/xlink" viewBox="0 0 443.8 451.5"><defs><style>.cls-1{fill:none;}.cls-2{isolation:isolate;}.cls-3{opacity:0.5;}.cls-4{fill:url(#linear-gradient);}.cls-5{fill:#31d0e5;stroke-width:6px;stroke:url(#linear-gradient-2);}.cls-10,.cls-5,.cls-7{stroke-miterlimit:10;}.cls-6{clip-path:url(#clip-path);}.cls-7{fill:#41a022;stroke:#38841c;stroke-width:0.5px;}.cls-8{fill:#204910;opacity:0.32;}.cls-9{fill:#8fc12f;}.cls-13,.cls-9{opacity:0.51;}.cls-10{fill:#48bc28;stroke:#45a525;}.cls-11,.cls-12{fill:#b0e573;}.cls-11{mix-blend-mode:screen;opacity:0.69;}.cls-13{fill:#b6f261;}.cls-14{fill:#353535;}</style><linearGradient id="linear-gradient" x1="43.17" y1="103.28" x2="392.43" y2="342.6" gradientUnits="userSpaceOnUse"><stop offset="0" stop-color="#9b81cf"/><stop offset="1" stop-color="#3b139b"/></linearGradient><linearGradient id="linear-gradient-2" x1="16.1" y1="225.74" x2="427.68" y2="225.74" gradientUnits="userSpaceOnUse"><stop offset="0" stop-color="#4c1da9"/><stop offset="1" stop-color="#997ece"/></linearGradient><clipPath id="clip-path"><circle class="cls-1" cx="222.6" cy="226.4" r="199.8"/></clipPath></defs><g class="cls-2"><g id="SB39_Interactive_Icon_13_F1"><path class="cls-3" d="M435.1,237a208.3,208.3,0,0,0-25.4-100A211.6,211.6,0,0,0,221.9,23C105,23,10.2,117.8,10.2,234.7S105,446.3,221.9,446.3c3,0,5.9,0,8.9-.2C344.1,443.6,435.1,350.9,435.1,237Z"/><circle class="cls-4" cx="221.9" cy="225.7" r="211.7"/><circle class="cls-5" cx="221.9" cy="225.7" r="202.8"/><g id="_001" data-name="001"><g class="cls-6"><g id="_008" data-name="008"><path class="cls-7" d="M71.6,394.1s-6.8-22.7-22.2-28.7L43,367.9s15.6,3.8,26.9,25.3Z"/><path class="cls-8" d="M43,367.9s15.7,3.3,26.9,25.3l.7.4S60,369.7,44.2,367.4Z"/><path class="cls-9" d="M49.4,365.4s11.8,4.9,19.1,20.9c0,0-7.1-13.7-19.4-20.8Z"/><path class="cls-10" d="M55.9,449c-2.9-61.8,13.2-59.4,13.2-59.4,3.6-7.2,21.8-6.9,40,24.8,13.9,24.4,7.3,37.4-2.4,77.4-11,44.9-5.4,65.9-3.6,68.8C91.3,543.5,58,495.2,55.9,449Z"/><path class="cls-7" d="M31.7,385.6c11-7.5,29.3-4.7,37.4,4,0,0-21.2,21.4-9,75.9,10,45,30.8,77.6,42.6,94.8l.3.4c-9-11.7-38.8-23-64.7-47.2C-14.5,464.3,16.3,396,31.7,385.6Z"/><path class="cls-11" d="M55.6,419.8a12.6,12.6,0,0,0-.6,2.1c-.2.7-.5,1.5-.9,2.5a18.4,18.4,0,0,1-1.8,3.3,99.4,99.4,0,0,1-6.3,8.6c-2.7,3.3-6.1,7.1-9.9,11.8a135.9,135.9,0,0,0-8.3,11.2A62,62,0,0,0,21.1,472a42.3,42.3,0,0,0-1.8,6.2,25.9,25.9,0,0,0-.6,5.2,14.1,14.1,0,0,0-.1,2,8.6,8.6,0,0,1,.1,1.5,10.9,10.9,0,0,1,.1,1.2,10.9,10.9,0,0,0-.1-1.2v-1.5a14.1,14.1,0,0,1,.1-2,36.3,36.3,0,0,1,.7-5.1,42.2,42.2,0,0,1,1.9-6.1,63.7,63.7,0,0,1,6.8-12.5c2.7-3.9,5.6-7.6,8.4-10.9L46.5,437a85.6,85.6,0,0,0,6.3-8.8,29.4,29.4,0,0,0,1.8-3.5,11.4,11.4,0,0,0,.8-2.7A7.4,7.4,0,0,0,55.6,419.8Z"/><path class="cls-11" d="M67,390.8a13.4,13.4,0,0,1-1.1,1.9,26.8,26.8,0,0,1-4.6,4.9l-9,7.9c-3.7,3.1-8.1,6.9-13,11.7a149.8,149.8,0,0,0-10.5,11.5l-4.7,6.4c-1.4,2.2-2.7,4.4-3.8,6.5a58.5,58.5,0,0,0-2.6,6.1c-.7,1.9-1.2,3.6-1.6,5a25.7,25.7,0,0,0-.7,3.4c-.1.8-.2,1.3-.2,1.3a11.3,11.3,0,0,0,.2-1.2c.2-.8.4-2,.8-3.4s1-3.1,1.7-5a62.3,62.3,0,0,1,2.8-5.9c1.2-2.1,2.5-4.2,3.9-6.4s3.1-4.2,4.8-6.3A144.1,144.1,0,0,1,40,418c4.9-4.7,9.3-8.5,13-11.7s6.7-5.7,8.9-7.9a22.4,22.4,0,0,0,4.5-5.4,5.2,5.2,0,0,0,.7-1.6C67.1,391,67.1,390.8,67,390.8Z"/><path class="cls-11" d="M56.4,418.3c-.2,0-.3.5.4,1.4s2,2.2,4.4,3.5a80.4,80.4,0,0,0,10.1,4.5l15.5,5.8a134.3,134.3,0,0,1,12.9,5.8,52.5,52.5,0,0,1,10.6,6.9,24.4,24.4,0,0,1,5.3,6.6,8.1,8.1,0,0,1,.9,2.1l.3.8-.2-.8a15.9,15.9,0,0,0-.8-2.2,21.8,21.8,0,0,0-4.9-6.7,47.8,47.8,0,0,0-10.3-7.3,113.8,113.8,0,0,0-12.8-6c-5.9-2.4-11.1-4.3-15.4-5.9a84.5,84.5,0,0,1-10.1-4.3,16.8,16.8,0,0,1-4.7-3.1C56.8,418.7,56.6,418.2,56.4,418.3Z"/><path class="cls-11" d="M56.6,445.2a.6.6,0,0,0,.2.4l.4.4.6.5a20.1,20.1,0,0,0,4.5,2.7,68.3,68.3,0,0,0,8.4,2.8l12.4,3.4,5.3,1.6c1.8.6,3.7,1.3,5.5,2.1a42,42,0,0,1,5.2,2.6l2.4,1.5,1.2.8,1,.8,2,1.7.9.9.7.9.8.8.6.8.6.8.5.7.8,1.3.5,1,.5.9a4.1,4.1,0,0,1-.4-.9,9.3,9.3,0,0,1-.5-1l-.8-1.3a3.5,3.5,0,0,0-.5-.8,3.5,3.5,0,0,0-.5-.8l-.6-.9-.8-.8-.7-.9-.9-.9a10.9,10.9,0,0,0-1.9-1.8,4.8,4.8,0,0,0-1.1-.9l-1.1-.9-2.4-1.6a44.4,44.4,0,0,0-5.3-2.8,53.1,53.1,0,0,0-5.5-2.3l-5.3-1.7-12.4-3.4c-3.4-1-6.2-1.9-8.3-2.7a48.1,48.1,0,0,1-4.5-2.2l-.6-.4-.5-.3Z"/><path class="cls-11" d="M66.5,393c-.1.1,0,.6.4,1.5a17.2,17.2,0,0,0,2.9,3.7,40.3,40.3,0,0,0,6.5,4.9,113.2,113.2,0,0,0,10.3,5.7c5.9,3,13.1,6.3,18.3,9.7a43.7,43.7,0,0,1,3.6,2.5l1.4,1.2,1.2,1,.9,1a4.6,4.6,0,0,1,.7.7l.5.6-.5-.6a2.1,2.1,0,0,0-.6-.8l-.8-1-1.2-1.1-1.4-1.3-3.4-2.6c-5.2-3.7-12.3-7.4-18-10.4-4.1-2.1-7.5-4-10.3-5.7a42.7,42.7,0,0,1-6.3-4.7C67.6,394.6,66.8,392.9,66.5,393Z"/><path class="cls-12" d="M69.1,389.6a26.1,26.1,0,0,0-3.4,4.6,46.7,46.7,0,0,0-2.7,4.9,67,67,0,0,0-3.8,10.6,81.8,81.8,0,0,0-2,11c-.1.9-.1,1.9-.2,2.8l-.2,2.8c0,1.9-.1,3.7-.1,5.6A140.6,140.6,0,0,0,59,454.2,210.7,210.7,0,0,0,64.5,476c.5,1.8,1.2,3.6,1.8,5.4s1.1,3.6,1.8,5.3l2,5.3,1,2.7,1,2.6c1.4,3.5,2.8,7,4.4,10.5s3.1,6.9,4.7,10.4c6.4,13.7,13.6,27.2,20.7,40.7A306,306,0,0,1,77,520.3a234.5,234.5,0,0,1-18.2-42.5l-1.6-5.6c-.6-1.9-1-3.8-1.4-5.7l-.7-2.8-.6-2.8c-.3-2-.8-3.9-1-5.8l-.8-5.8-.5-5.8c-.2-1.9-.2-3.9-.3-5.9s.1-3.9.2-5.8a78.6,78.6,0,0,1,4.3-23,60.3,60.3,0,0,1,5.2-10.5A36.8,36.8,0,0,1,69.1,389.6Z"/><path class="cls-13" d="M70.6,387.9s48.4,13.9,42.8,65.9c-1.2,11.5-10.5,27.4-11.8,38.9-6.6,56.3-1.5,46.9-.1,62.9,0,0-3.8-20.6,3.7-54.4,0,0,7.5-30.8,8.5-35.9,3-16.8,9.3-27-4.5-51.6C109.2,413.7,89.2,378.2,70.6,387.9Z"/><path class="cls-8" d="M61.8,385.1S33.7,379.3,18.9,416c0,0-18.9,67.3,27.7,100.9,0,0,45.6,30.4,50.1,37.1,0,0-9.7-7.5-28.4-17.7,0,0-38.2-23.7-48-45.9,0,0-23.8-30.8-4-81.7C16.3,408.7,26.9,370.4,61.8,385.1Z"/><path class="cls-7" d="M286.1,354.6s-.5-16.1-9.4-22.7l-4.7.5s9.6,5.2,13.1,21.3Z"/><path class="cls-8" d="M272,332.4s9.7,4.9,13.1,21.3l.5.4s-2.8-17.5-12.7-21.8Z"/><path class="cls-9" d="M276.7,331.9s6.8,5.3,8.8,17c0,0-2.2-10.2-9-17Z"/><path class="cls-10" d="M266.2,387.7c9-40.9,19.1-36.5,19.1-36.5,3.6-4.1,15.5-.7,21.8,23.3,4.8,18.3-1.8,25.7-15.2,50.2-15.1,27.4-15.2,42.1-14.5,44.3C272.7,455.7,259.4,418.3,266.2,387.7Z"/><path class="cls-7" d="M261.6,342c8.5-3,19.9,2.1,23.7,9.2,0,0-17.6,10.3-19.3,48-1.3,31.2,6.5,56.2,11.2,69.5,0,.2.1.3.1.4-3.8-9.2-21.3-21.9-34-42.3C217.5,385.3,249.6,346.1,261.6,342Z"/><path class="cls-11" d="M241.6,423.9c.1,0,.1-.1.1-.3l.3-.8a31.3,31.3,0,0,1,1.4-3.3,42,42,0,0,1,3.3-4.8c1.4-1.8,3.1-3.7,5.2-5.9l4.7-4.9c1.7-1.7,3.3-3.4,4.7-5a30,30,0,0,0,3.2-4.6,15.6,15.6,0,0,0,.7-1.7.4.4,0,0,1,.1-.3v-.2a.3.3,0,0,1,.1-.2.3.3,0,0,0-.1.2v.2a.4.4,0,0,0-.1.3l-.7,1.6a23.2,23.2,0,0,1-3.3,4.5c-1.4,1.6-3,3.3-4.7,4.9l-4.7,4.8a65.2,65.2,0,0,0-5.3,5.9,42.2,42.2,0,0,0-3.3,4.9c-.7,1.5-1.1,2.7-1.4,3.5a3.4,3.4,0,0,0-.1.9Z"/><path class="cls-11" d="M271.1,368.5a9.2,9.2,0,0,1-.7,1.3l-1.1,1.5a9.4,9.4,0,0,1-1.7,1.8,45.4,45.4,0,0,1-5.7,4.5l-8.5,6a76.4,76.4,0,0,0-7.4,5.9,43.8,43.8,0,0,0-6.6,7.1,32.1,32.1,0,0,0-2.3,3.8,20.3,20.3,0,0,0-1.3,3.3,6.5,6.5,0,0,0-.4,1.3,3.7,3.7,0,0,0-.2.9,6.6,6.6,0,0,1-.2.9,6.6,6.6,0,0,0,.2-.9c.1-.2.1-.6.2-.9l.4-1.3c.4-1,.8-2.1,1.4-3.3a30.6,30.6,0,0,1,2.3-3.6,43.5,43.5,0,0,1,6.7-6.9,61.2,61.2,0,0,1,7.4-5.7l8.5-6a45,45,0,0,0,5.7-4.6l1.8-2a10.1,10.1,0,0,0,1-1.6C271.1,369.1,271.2,368.5,271.1,368.5Z"/><path class="cls-11" d="M283.7,351.6c-.1,0-.3.4-1,1.1a37,37,0,0,1-3.9,2.4l-7.3,3.5c-3,1.4-6.5,3.1-10.5,5.4a73.7,73.7,0,0,0-8.9,5.7l-4.3,3.4a39.8,39.8,0,0,0-3.6,3.5,38.9,38.9,0,0,0-2.8,3.5c-.8,1.1-1.4,2.2-1.9,3s-.8,1.6-1.1,2.2l-.3.7.4-.7a22.8,22.8,0,0,1,1.1-2.1,19.4,19.4,0,0,1,2-3,38,38,0,0,1,2.8-3.3,41.2,41.2,0,0,1,3.7-3.5l4.2-3.3a99,99,0,0,1,9-5.5c4-2.2,7.5-3.9,10.5-5.3l7.2-3.6a20.5,20.5,0,0,0,3.9-2.7,2.6,2.6,0,0,0,.7-1A1,1,0,0,0,283.7,351.6Z"/><path class="cls-11" d="M265.8,415.7c-.1,0-.1.2-.3.7s-.5,1.1-1,2l-2.1,3.1-3.1,4.2c-.9,1.2-1.8,2.6-2.7,4a31.8,31.8,0,0,0-2.5,4.3l-.9,2.1c-.2.6-.3,1.2-.5,1.8a5.7,5.7,0,0,0-.1,1.2v.3a.1.1,0,0,0-.1.1.1.1,0,0,1,.1-.1V439a8.9,8.9,0,0,1,.2-1.1c.1-.5.3-1.1.5-1.8a11.3,11.3,0,0,1,.9-2,30.9,30.9,0,0,1,2.5-4.2,41.7,41.7,0,0,1,2.7-3.8l3.1-4.3a28.5,28.5,0,0,0,2.1-3.2,3.4,3.4,0,0,0,.6-1.2l.4-.9A3.2,3.2,0,0,0,265.8,415.7Z"/><path class="cls-11" d="M268.6,440.3l-.3.2c0,.1-.1.2-.2.4l-.3.4a6.8,6.8,0,0,1-1.2,1.3l-2.1,1.7c-.6.4-1.2,1-1.8,1.5a4.4,4.4,0,0,0-1.2,1.9,2.3,2.3,0,0,0-.1,1.6.4.4,0,0,0,.1.3v.2h.1a.3.3,0,0,0-.1-.2v-.3a2.4,2.4,0,0,1,.2-1.6A4.8,4.8,0,0,1,263,446l1.9-1.4,2.1-1.7a4.7,4.7,0,0,0,1.2-1.4,1.3,1.3,0,0,0,.3-.5.6.6,0,0,0,.1-.4C268.7,440.4,268.6,440.3,268.6,440.3Z"/><path class="cls-11" d="M271.9,367.7c-.1,0-.2.3,0,1a7.9,7.9,0,0,0,2.3,3.1,63.1,63.1,0,0,0,5.8,4.7l9.1,6.5a85.5,85.5,0,0,1,7.4,6.1,29.8,29.8,0,0,1,5.7,6.4,16.2,16.2,0,0,1,2.4,5.2,13.7,13.7,0,0,1,.2,1.6,1.2,1.2,0,0,0,.1.5v-.5c-.1-.4-.1-.9-.2-1.6a16.2,16.2,0,0,0-2-5.3,38.3,38.3,0,0,0-5.4-6.6,70.4,70.4,0,0,0-7.4-6.1c-3.4-2.6-6.5-4.8-9-6.6a65.3,65.3,0,0,1-5.9-4.6,16.6,16.6,0,0,1-2.5-2.8C272.1,368,272,367.7,271.9,367.7Z"/><path class="cls-11" d="M267.3,385.3a.4.4,0,0,0,.1.3l.2.4a.8.8,0,0,0,.2.4,15.5,15.5,0,0,0,2.6,2.6,36,36,0,0,0,5,3.3l7.5,4.4,3.1,2,3.3,2.3,2.9,2.6,1.3,1.5.6.7.6.7,1,1.5.4.7.3.7a1.6,1.6,0,0,1,.4.7,1.4,1.4,0,0,1,.2.6l.3.6c.1.2.1.4.2.6l.3,1a1.4,1.4,0,0,0,.2.7,3.2,3.2,0,0,1,.1.7,3.2,3.2,0,0,0-.1-.7,6.4,6.4,0,0,1-.2-.7,3.6,3.6,0,0,0-.2-1c-.1-.2-.1-.4-.2-.6a1.4,1.4,0,0,1-.2-.6l-.3-.7-.3-.7-.3-.7-.4-.8a13,13,0,0,0-1-1.5,3.5,3.5,0,0,0-.5-.8l-.6-.7-1.3-1.5a38.3,38.3,0,0,0-2.9-2.8l-3.2-2.4-3.2-2.1-7.5-4.4a49.9,49.9,0,0,1-5-3.2,23.8,23.8,0,0,1-2.6-2.3l-.3-.3c-.1-.2-.2-.2-.2-.3Z"/><path class="cls-11" d="M266.8,400.7c-.2,0-.4.2-.3.7a4.9,4.9,0,0,0,1.3,2.5,46,46,0,0,0,4.5,4.6l7.7,6.7a82.1,82.1,0,0,1,5.9,5.9,15.4,15.4,0,0,1,3.5,5.6,4.4,4.4,0,0,1-.4,3.7l-.4.6-.4.4-.4.3.4-.3.5-.4.5-.5a4.7,4.7,0,0,0,1.1-3.7,12.5,12.5,0,0,0-2.9-5.6,44.2,44.2,0,0,0-5.6-5.9c-2.8-2.6-5.5-4.8-7.5-6.7s-3.6-3.4-4.7-4.5S267.4,400.8,266.8,400.7Z"/><path class="cls-11" d="M268.9,439.5c-.1,0-.1.2,0,.5a5.9,5.9,0,0,0,.7,1.4l.7.9,1,1,2.7,2.3a15.5,15.5,0,0,1,2.1,2.3,19.5,19.5,0,0,1,1.8,2.5,22.1,22.1,0,0,1,1.1,2.2l.3.7v0a6.4,6.4,0,0,1-.2-.7c-.2-.6-.5-1.4-.9-2.3a14,14,0,0,0-1.7-2.8,12.5,12.5,0,0,0-2.1-2.4c-1-1-2-1.8-2.7-2.4l-1.6-1.7C269.3,440,269.1,439.4,268.9,439.5Z"/><path class="cls-11" d="M283,353c-.1,0-.1.3,0,1a11.9,11.9,0,0,0,1.2,2.9,33,33,0,0,0,3.4,4.4c1.5,1.6,3.5,3.5,5.8,5.6a133,133,0,0,1,10.2,9.5,17.7,17.7,0,0,1,1.9,2.3l.8,1,.6.9.4.8.3.5a3.2,3.2,0,0,0,.2.6,1.5,1.5,0,0,0-.2-.6c-.1-.1-.1-.3-.3-.6l-.3-.8-.6-.9-.7-1.1-1.8-2.3a116.6,116.6,0,0,0-9.9-10c-2.3-2.1-4.2-3.9-5.7-5.5a33,33,0,0,1-3.4-4.2C283.4,354.2,283.2,352.9,283,353Z"/><path class="cls-11" d="M265.3,416.1c-.2,0-.3.2-.3.7a6.7,6.7,0,0,0,1,2.4,43.5,43.5,0,0,0,3.5,4.1l6,6.1c1.6,1.7,3.3,3.5,4.7,5.3a13,13,0,0,1,2.6,5.1,5,5,0,0,1-.5,3.6l-.3.5-.3.4-.3.3.3-.3.4-.3.5-.5a4.7,4.7,0,0,0,.9-3.5,11.2,11.2,0,0,0-2.1-5.2,37.1,37.1,0,0,0-4.4-5.4c-2.2-2.4-4.3-4.4-5.9-6.1a36.1,36.1,0,0,1-3.6-4.1C265.8,417.1,265.8,416.2,265.3,416.1Z"/><path class="cls-12" d="M285.3,351.2a17.4,17.4,0,0,0-2.9,2.5,34.5,34.5,0,0,0-2.6,2.8,42.5,42.5,0,0,0-4.1,6.3,59.8,59.8,0,0,0-5.2,14.1c-2.4,9.7-2.8,19.9-2.5,30a259.8,259.8,0,0,0,3.3,30.3c1.6,10.2,3.7,20.3,5.6,30.5a180.5,180.5,0,0,1-10.2-29.5,154.8,154.8,0,0,1-4.7-31.1c-.3-10.6.6-21.3,4-31.5a50.6,50.6,0,0,1,7.2-14.3,33.8,33.8,0,0,1,5.4-5.9A22.3,22.3,0,0,1,285.3,351.2Z"/><path class="cls-13" d="M286.5,350.3S315.8,367.9,303,401c-2.9,7.3-11.7,16.1-14.6,23.3-14.3,35.7-9.2,30.5-11.2,41.1,0,0,1.2-14.1,12-34.9,0,0,10.4-18.7,11.9-22,4.9-10.4,10.8-16,6.2-34.5C307.3,374,300.4,347.3,286.5,350.3Z"/><path class="cls-8" d="M281.3,346.9s-17.4-8.7-33.5,12.7c0,0-24.2,40.7.3,70.9,0,0,24.5,27.9,26.3,33.1A171.5,171.5,0,0,0,258.9,447s-20.8-22.2-23.3-38.5c0,0-10.2-24.3,11.8-54.1C247.4,354.4,261.1,331.2,281.3,346.9Z"/><path class="cls-7" d="M175.8,266.9s-11.4-5.3-19.2-1.3l-1.3,3.4s7.1-4.9,19.6-1.7Z"/><path class="cls-8" d="M155.3,269s6.9-5.1,19.6-1.7l.4-.2s-13.3-4.2-19.8,1.3Z"/><path class="cls-9" d="M156.6,265.6s6.1-3,15-.2c0,0-7.9-2-15,.3Z"/><path class="cls-1" d="M252.7,316.1h0Z"/><path class="cls-14" d="M253.4,316h.1c.1,0,.3.1.2.2h-.5c-.1,0-.3-.1-.2-.2h.5c-.1.1-.2.2-.2.3h-.1c-.1,0-.3-.1-.2-.2Z"/><path class="cls-10" d="M192.1,292.6c-25.6-20.8-18.9-26.3-18.9-26.3-1.6-4,4.9-11.1,24-7.1,14.6,3.1,17.4,10.3,29.9,28.3,14,20.2,24.3,25.4,26.1,25.7C242.2,311.9,211.2,308,192.1,292.6Z"/><path class="cls-7" d="M158.4,279.7c.9-7,8.5-13.3,14.8-13.4,0,0,1,16,27,30.4,21.4,11.9,41.7,15.2,52.7,16.6h.3c-7.8-.5-22.9,7.3-41.6,9.1C173.3,325.9,157.1,289.6,158.4,279.7Z"/><path class="cls-11" d="M208.9,322.5a.3.3,0,0,0-.1-.2,1.2,1.2,0,0,1-.5-.5,10.5,10.5,0,0,1-1.8-2.1,26.8,26.8,0,0,1-2.3-4c-.7-1.6-1.5-3.5-2.3-5.7s-1.1-3.3-1.7-5-1.3-3.5-1.9-5.1a27.1,27.1,0,0,0-2.2-3.9l-.9-1-.2-.2h0l.2.2.9,1a20.2,20.2,0,0,1,2,3.9c.6,1.5,1.2,3.3,1.8,5s1.1,3.5,1.7,5a50,50,0,0,0,2.3,5.8,26.8,26.8,0,0,0,2.3,4,17.5,17.5,0,0,0,1.9,2.2l.6.5Z"/><path class="cls-11" d="M180.4,282.3c-.1.1.2.4.6,1a5,5,0,0,1,.7,1.3,17.1,17.1,0,0,1,.7,1.8c.4,1.5.8,3.3,1.2,5.6s.7,4.9,1.2,8.1a52.7,52.7,0,0,0,1.5,7.3,27.5,27.5,0,0,0,2.7,7.1,16,16,0,0,0,1.8,2.9,13.7,13.7,0,0,0,1.8,2.1l.8.7.6.5.6.4-.6-.4-.6-.5-.7-.7a19.6,19.6,0,0,1-1.8-2.1,27.5,27.5,0,0,1-1.7-2.9,33.4,33.4,0,0,1-2.6-7.1c-.6-2.5-1.1-5-1.4-7.2s-.8-5.9-1.2-8.2-.8-4.1-1.2-5.6a18.2,18.2,0,0,0-.8-1.9,7.4,7.4,0,0,0-.8-1.3Z"/><path class="cls-11" d="M172.9,267.6a3.9,3.9,0,0,1,.4,1.1,14.4,14.4,0,0,1,.3,3.5c0,1.7,0,3.8-.1,6.4s0,5.7.1,9.3a60.4,60.4,0,0,0,.9,8.2,31.5,31.5,0,0,0,.9,4.2c.3,1.3.8,2.6,1.2,3.8s1,2.2,1.5,3.2l1.4,2.4a9.2,9.2,0,0,1,1.1,1.5l.5.5-.4-.5-1.1-1.5c-.4-.7-.9-1.5-1.4-2.5s-.9-2-1.3-3.2a24,24,0,0,1-1.2-3.8c-.3-1.3-.6-2.7-.8-4.1s-.6-5.7-.7-8.2-.1-6.7-.1-9.3.1-4.7,0-6.3a10.9,10.9,0,0,0-.5-3.7,1.9,1.9,0,0,0-.4-.8C173,267.6,172.9,267.5,172.9,267.6Z"/><path class="cls-11" d="M211.6,302.7l.4.4,1.1,1.4c.4.7.9,1.5,1.4,2.5l1.9,3.7a43.6,43.6,0,0,0,4,6.6l1.2,1.3,1,1,.8.5c.1.1.2.1.2.2h0c0-.1-.1-.1-.2-.2l-.8-.5-1-1-1.1-1.3a18.5,18.5,0,0,1-2.1-3.3l-1.7-3.2-1.9-3.7-1.5-2.6-.7-.9c-.2-.2-.3-.4-.5-.5Z"/><path class="cls-11" d="M229.9,309.3a.4.4,0,0,0,.1.3l.2.3c0,.1.1.2.2.3s.3.8.4,1.3.3,1.3.5,2.1a11.6,11.6,0,0,0,.4,1.8,3.2,3.2,0,0,0,.9,1.5,1.5,1.5,0,0,0,1.1.6h.2c0-.1-.1-.1-.2-.1a2,2,0,0,1-1-.7,3.5,3.5,0,0,1-.7-1.5,12.9,12.9,0,0,1-.4-1.9c-.1-.8-.3-1.5-.4-2.1a8.1,8.1,0,0,0-.6-1.3.8.8,0,0,0-.2-.4c-.1-.1-.2-.1-.2-.2Z"/><path class="cls-11" d="M180.1,281.5c-.1.1.1.3.7.4a9,9,0,0,0,3-.6c1.3-.5,3.1-1.3,5.3-2.4l7.8-4.1a70.3,70.3,0,0,1,6.8-3.1,27.3,27.3,0,0,1,6.5-1.7,12.7,12.7,0,0,1,4.5.1l1.2.4.4.2-.4-.2-1.1-.5a13.4,13.4,0,0,0-4.4-.4,26.7,26.7,0,0,0-6.6,1.5,60,60,0,0,0-6.9,3l-7.8,4a38.4,38.4,0,0,1-5.2,2.5,7.9,7.9,0,0,1-2.9.8C180.4,281.5,180.1,281.4,180.1,281.5Z"/><path class="cls-11" d="M190.9,290.9c0,.1,0,.1.2.1h.7a12,12,0,0,0,2.7-.8,41.6,41.6,0,0,0,4.1-2.4l5.7-3.7,2.5-1.5,2.8-1.5,2.9-1.1,1.4-.5h.7l.7-.2h6.2l.5.2-.5-.2-.6-.2h-7.1l-1.5.4-3,1.1-2.8,1.4-2.6,1.5-5.7,3.7a27.8,27.8,0,0,1-4,2.4l-2.5,1h-.8Z"/><path class="cls-11" d="M201.5,296.7c-.1.1,0,.3.3.5a6.3,6.3,0,0,0,2.3-.1,26.5,26.5,0,0,0,4.8-1.6l7.4-3a50.3,50.3,0,0,1,6.2-2.1,12,12,0,0,1,5.1-.5,3.7,3.7,0,0,1,2.5,1.7l.3.4a.9.9,0,0,1,.1.5.8.8,0,0,1,.1.3v-.4a.7.7,0,0,1-.1-.5c-.1-.1-.1-.3-.2-.5a3.5,3.5,0,0,0-2.2-2.1,10.6,10.6,0,0,0-5,.1,38.7,38.7,0,0,0-6.1,1.9c-2.9,1-5.3,2.1-7.4,2.9a41.6,41.6,0,0,1-4.8,1.7C202.5,296.5,201.7,296.3,201.5,296.7Z"/><path class="cls-11" d="M229.5,308.8l.3.2a4.7,4.7,0,0,0,1.2,0l.9-.2,1-.3,2.6-1.1,2.4-.7,2.4-.4h1.9l-1.9-.2a10.6,10.6,0,0,0-2.5.2,15.3,15.3,0,0,0-2.5.6l-2.6,1.1-1.8.5C229.9,308.7,229.5,308.7,229.5,308.8Z"/><path class="cls-11" d="M173.6,268.6a1.5,1.5,0,0,0,.8.3l2.4.2a22.1,22.1,0,0,0,4.3-.9,62.2,62.2,0,0,0,5.9-2.1c3.3-1.2,7.1-2.9,10.3-3.8l2.3-.6h0l-2.3.5a80.8,80.8,0,0,0-10.5,3.5l-5.9,2a22.1,22.1,0,0,1-4.1.9C174.6,268.7,173.7,268.4,173.6,268.6Z"/><path class="cls-11" d="M211.8,303.1c-.1.2,0,.3.3.5a6.2,6.2,0,0,0,2.1.1,26.2,26.2,0,0,0,4.1-1l6.4-2.1a47.5,47.5,0,0,1,5.4-1.4,11.3,11.3,0,0,1,4.5,0,3.4,3.4,0,0,1,2.3,1.6l.3.4c0,.1.1.2.1.3a1.1,1.1,0,0,0,.2.4,1,1,0,0,1-.1-.4l-.2-.4a1.7,1.7,0,0,0-.2-.5,3.6,3.6,0,0,0-2.1-1.9,10,10,0,0,0-4.4-.3,33.7,33.7,0,0,0-5.3,1.2l-6.3,2-4.2,1.1C212.7,303.1,212,302.9,211.8,303.1Z"/><path class="cls-12" d="M173.2,266.3a22.3,22.3,0,0,0,2,5.7,37.6,37.6,0,0,0,3.1,5,45.9,45.9,0,0,0,8.1,8.4,92.2,92.2,0,0,0,20.1,12,206.9,206.9,0,0,0,22.4,8.5c7.6,2.5,15.4,4.7,23.2,7.2a119.4,119.4,0,0,1-24.5-2.7,111.9,111.9,0,0,1-23.6-7.6,66.3,66.3,0,0,1-20.8-14,40,40,0,0,1-7.5-10.3,38.6,38.6,0,0,1-2.1-6A18.5,18.5,0,0,1,173.2,266.3Z"/><path class="cls-13" d="M173,265.1s22.7-14.4,41.4,6.3c4.1,4.5,7.2,13.8,11.2,18.4,20.1,22.6,18.2,17.2,25,22.3,0,0-9.5-5.8-20.3-20.7,0,0-9.6-13.9-11.3-16.1-5.6-7.1-7.4-13.2-22.1-16.4C196.9,258.9,175.8,254.3,173,265.1Z"/><path class="cls-8" d="M168.8,267.6s-12.2,9.2-2.9,28c0,0,20.1,31.3,49.9,24.7,0,0,28.3-7.4,32.5-6.9a120.8,120.8,0,0,0-17.1,5.1s-22.9,6.8-35.2,2.8c0,0-20.7-1.4-33.9-27.3C162.1,294,150.6,276.3,168.8,267.6Z"/></g></g></g></g></g></svg>