<svg xmlns="http://www.w3.org/2000/svg" xmlns:xlink="http://www.w3.org/1999/xlink" viewBox="0 0 443.8 451.5"><defs><style>.cls-1{fill:none;}.cls-2{isolation:isolate;}.cls-3{opacity:0.5;}.cls-4{fill:url(#linear-gradient);}.cls-5{fill:#31d0e5;stroke-width:6px;stroke:url(#linear-gradient-2);}.cls-11,.cls-5,.cls-7{stroke-miterlimit:10;}.cls-6{clip-path:url(#clip-path);}.cls-7{fill:#41a022;stroke:#38841c;stroke-width:0.5px;}.cls-8{fill:#204910;opacity:0.32;}.cls-9{fill:#8fc12f;}.cls-14,.cls-9{opacity:0.51;}.cls-10{fill:#353535;}.cls-11{fill:#48bc28;stroke:#45a525;}.cls-12,.cls-13{fill:#b0e573;}.cls-12{mix-blend-mode:screen;opacity:0.69;}.cls-14{fill:#b6f261;}</style><linearGradient id="linear-gradient" x1="43.17" y1="103.28" x2="392.43" y2="342.6" gradientUnits="userSpaceOnUse"><stop offset="0" stop-color="#9b81cf"/><stop offset="1" stop-color="#3b139b"/></linearGradient><linearGradient id="linear-gradient-2" x1="16.1" y1="225.74" x2="427.68" y2="225.74" gradientUnits="userSpaceOnUse"><stop offset="0" stop-color="#4c1da9"/><stop offset="1" stop-color="#997ece"/></linearGradient><clipPath id="clip-path"><circle class="cls-1" cx="222.6" cy="226.4" r="199.8"/></clipPath></defs><g class="cls-2"><g id="SB39_Interactive_Icon_13_F1"><path class="cls-3" d="M435.1,237a208.3,208.3,0,0,0-25.4-100A211.6,211.6,0,0,0,221.9,23C105,23,10.2,117.8,10.2,234.7S105,446.3,221.9,446.3c3,0,5.9,0,8.9-.2C344.1,443.6,435.1,350.9,435.1,237Z"/><circle class="cls-4" cx="221.9" cy="225.7" r="211.7"/><circle class="cls-5" cx="221.9" cy="225.7" r="202.8"/><g id="_001" data-name="001"><g class="cls-6"><g id="_002" data-name="002"><path class="cls-7" d="M103.3,275.9s-22.2-8.4-36.3.2l-2,6.6s12.6-10.1,36.5-5.9Z"/><path class="cls-8" d="M65,282.7s12.3-10.5,36.5-5.9l.8-.4s-25.4-6.1-36.9,5Z"/><path class="cls-9" d="M67,276.1s11.1-6.4,28.2-2.4c0,0-15.1-2.8-28.2,2.7Z"/><path class="cls-1" d="M253.9,358h0Z"/><path class="cls-10" d="M255.2,357.8h.2c.2,0,.5.1.3.3a1,1,0,0,1-.7.2h-.2c-.2,0-.5,0-.3-.2a1.1,1.1,0,0,1,.7-.3h.2l-.4.5h-.2c-.2,0-.5,0-.3-.2A1.1,1.1,0,0,1,255.2,357.8Z"/><path class="cls-11" d="M137.2,321.9c-50.7-35.5-39-46.7-39-46.7-3.6-7.2,7.8-21.5,44.1-16.5,27.7,3.8,34.1,17,59.8,49.1,28.9,36.1,49,44.5,52.3,44.9C233.6,351.5,175.1,348.4,137.2,321.9Z"/><path class="cls-7" d="M72.2,302.3c.8-13.2,14.2-26,26-27.1,0,0,4,29.8,54.6,53.4,41.8,19.5,80.3,23,101.1,24.1h.5c-14.7,0-41.9,16.7-76.8,22.4C106.4,387,71,320.9,72.2,302.3Z"/><path class="cls-12" d="M172.6,375.9c.1-.1,0-.2-.3-.4l-1-.8a27.5,27.5,0,0,1-3.6-3.8,45.9,45.9,0,0,1-4.7-7.1,92.1,92.1,0,0,1-5.1-10.4c-1.3-2.9-2.6-6.1-4-9.3s-2.8-6.3-4.2-9.2a44.9,44.9,0,0,0-4.5-7l-1.9-1.9-.4-.2c-.1-.1-.1-.2-.2-.2l-.2-.2.2.2c.1,0,.1.1.2.2l.4.3a11.3,11.3,0,0,1,1.8,1.9,37.7,37.7,0,0,1,4.3,6.9c1.4,2.8,2.7,6,4,9.1l3.8,9.3c1.8,4,3.4,7.5,5.1,10.5a42.4,42.4,0,0,0,4.9,7.2,28,28,0,0,0,3.9,3.9l1.1.8Z"/><path class="cls-12" d="M113.8,304.3l1.4,1.7,1.4,2.3c.5,1,1,2.1,1.5,3.4a90.6,90.6,0,0,1,3,10.3c.9,4.2,1.9,9.2,3.3,15.1,1,4.1,2.2,8.8,3.8,13.4a67.2,67.2,0,0,0,6,13,36.8,36.8,0,0,0,3.8,5.2,42.8,42.8,0,0,0,3.7,3.7l1.6,1.2,1.2.9,1.1.7-1.1-.7-1.2-.9-1.5-1.3a25.6,25.6,0,0,1-3.6-3.7,43.3,43.3,0,0,1-3.7-5.2,63.9,63.9,0,0,1-5.7-13c-1.5-4.5-2.6-9.1-3.6-13.3-1.3-5.8-2.3-10.8-3.3-15.1a72.4,72.4,0,0,0-3.1-10.3,23.6,23.6,0,0,0-1.6-3.5,19.1,19.1,0,0,0-1.7-2.4A5.9,5.9,0,0,0,113.8,304.3Z"/><path class="cls-12" d="M97.9,277.6c-.1.1.4.6.8,2a31.5,31.5,0,0,1,1.1,6.7c.3,3.1.5,7,.7,11.9s.6,10.7,1.4,17.4a131.4,131.4,0,0,0,2.7,15.4c.6,2.6,1.4,5.2,2.2,7.6a63.9,63.9,0,0,0,2.9,7,61.1,61.1,0,0,0,3.1,5.8,34.6,34.6,0,0,0,3.1,4.3l2.2,2.7.9.9-.8-1a27.1,27.1,0,0,1-2.2-2.7,35.3,35.3,0,0,1-2.9-4.3,46.2,46.2,0,0,1-3-5.9,46.9,46.9,0,0,1-2.6-6.9c-.8-2.5-1.5-5.1-2.1-7.7-1.2-5.2-1.9-10.5-2.5-15.2-.7-6.8-1-12.5-1.3-17.4s-.5-8.8-.8-11.9a29.1,29.1,0,0,0-1.5-6.9,4.9,4.9,0,0,0-.9-1.5Z"/><path class="cls-12" d="M175.1,338.3l.8.8a15.7,15.7,0,0,1,2.1,2.5c.9,1.2,1.9,2.7,3.1,4.5l4,6.7c1.2,1.9,2.4,3.9,3.8,6a65.1,65.1,0,0,0,4.6,5.8,24.9,24.9,0,0,0,2.3,2.3,14.6,14.6,0,0,0,2.2,1.7l1.5.9.4.2h0l-.4-.2-1.5-.9-2.1-1.7-2.3-2.4a65.3,65.3,0,0,1-4.3-5.7c-1.3-2.1-2.6-4.1-3.7-6s-2.8-4.8-4-6.6-2.2-3.5-3.1-4.7l-1.4-1.5a9.3,9.3,0,0,0-1-1Z"/><path class="cls-12" d="M210.3,348.4c-.1.1,0,.2.2.5s.2.3.3.4l.4.7a13.8,13.8,0,0,1,1.1,2.4c.3,1,.7,2.3,1.1,3.8a21.3,21.3,0,0,0,1.1,3.3,6.8,6.8,0,0,0,1.8,2.8,4.7,4.7,0,0,0,2.2,1h0a3.6,3.6,0,0,1-2-1.2,7.6,7.6,0,0,1-1.6-2.8,21.4,21.4,0,0,1-.9-3.4,37.2,37.2,0,0,0-1.1-3.8,8.8,8.8,0,0,0-1.2-2.4l-.5-.7-.5-.4Z"/><path class="cls-12" d="M113.2,302.8c-.1.2.3.5,1.4.6A14.4,14.4,0,0,0,120,302a77.7,77.7,0,0,0,9.7-5.3c4-2.4,8.6-5.5,14.1-8.7a134,134,0,0,1,12.4-6.7,48.8,48.8,0,0,1,12-4.1,25.2,25.2,0,0,1,8.5-.3l2.2.6.8.2-.8-.3-2.2-.7a24.2,24.2,0,0,0-8.3-.2,47.1,47.1,0,0,0-12.1,3.7,105.4,105.4,0,0,0-12.5,6.5c-5.5,3.2-10.2,6.2-14.1,8.6s-7.1,4.2-9.6,5.4a16.1,16.1,0,0,1-5.3,1.8C113.7,302.7,113.2,302.6,113.2,302.8Z"/><path class="cls-12" d="M134.6,319c0,.1.2.1.5.1h.5l.8-.2a15.3,15.3,0,0,0,4.8-2,54.8,54.8,0,0,0,7.5-4.9c2.9-2.1,6.2-4.8,10.2-7.8l4.5-3.2c1.6-1,3.2-2.1,5-3a42,42,0,0,1,5.2-2.6l2.7-1,1.3-.4,1.3-.3,2.6-.5,1.2-.2h5.2l1.5.2,1.1.2h1l-1-.2-1.1-.2-1.5-.2h-6.5l-2.6.4-1.3.4-1.4.3-2.8.9c-1.8.7-3.6,1.6-5.4,2.5a42.7,42.7,0,0,0-5.1,3c-1.7,1-3.2,2.1-4.7,3.1-4.1,3-7.4,5.6-10.2,7.8a77.5,77.5,0,0,1-7.3,4.9,17.9,17.9,0,0,1-4.5,2.2c-.2.2-.5.2-.7.3l-.4.2Z"/><path class="cls-12" d="M155.3,328.4c-.2.3,0,.6.7.9a9.4,9.4,0,0,0,4.3-.5,50.3,50.3,0,0,0,8.8-3.5l13.4-6.6a92.3,92.3,0,0,1,11.4-4.8c3.7-1.3,7.1-1.9,9.5-1.6a6.7,6.7,0,0,1,4.9,2.7,7,7,0,0,0,.6.9l.3.8.3.6-.2-.7a9.4,9.4,0,0,1-.3-.9,6.9,6.9,0,0,0-.4-1,6.8,6.8,0,0,0-4.5-3.6c-2.3-.6-5.6-.3-9.2.8a78.8,78.8,0,0,0-11.3,4.3l-13.3,6.5c-3.8,1.8-6.7,3-8.8,3.8C157.1,328,155.7,327.7,155.3,328.4Z"/><path class="cls-12" d="M209.4,347.5q0,.2.6.3a11.1,11.1,0,0,0,2.3-.2l1.6-.4,1.9-.8,4.7-2.3a20.3,20.3,0,0,1,4.3-1.7,27.2,27.2,0,0,1,4.6-1,23.7,23.7,0,0,1,3.5-.2h0c-.8,0-2.1-.1-3.6,0a20.2,20.2,0,0,0-4.7.6,31.1,31.1,0,0,0-4.6,1.6,52.1,52.1,0,0,0-4.7,2.3l-3.3,1.3C210.3,347.2,209.4,347.2,209.4,347.5Z"/><path class="cls-12" d="M99.3,279.4c0,.1.5.3,1.5.5a13.7,13.7,0,0,0,4.6,0,42.7,42.7,0,0,0,7.9-2.1q4.7-1.8,10.8-4.8c5.9-2.8,13-6.4,18.9-8.5a31.5,31.5,0,0,1,4.1-1.3l1.8-.5,1.6-.3h0l-1.6.2-1.8.3c-1.3.3-2.8.6-4.3,1.1-6,1.9-13.3,5.3-19.2,8-4.1,1.9-7.7,3.4-10.7,4.6a56.2,56.2,0,0,1-7.6,2.2C101.3,279.4,99.4,279,99.3,279.4Z"/><path class="cls-12" d="M175.5,339.2c-.2.2,0,.5.7.8a8.1,8.1,0,0,0,3.8-.1,61.2,61.2,0,0,0,7.7-2.4c3.2-1.3,7.1-3,11.6-4.7a77.3,77.3,0,0,1,9.9-3.4,21.8,21.8,0,0,1,8.5-.7,7.7,7.7,0,0,1,4.6,2.7,3.5,3.5,0,0,1,.5.8.9.9,0,0,1,.3.6l.3.6a1.5,1.5,0,0,0-.2-.6l-.3-.8-.4-.9a7.5,7.5,0,0,0-4.3-3.3c-2.1-.7-5-.6-8.2,0a58.2,58.2,0,0,0-9.8,3c-4.5,1.6-8.4,3.3-11.6,4.5a67.1,67.1,0,0,1-7.7,2.7C177.1,339,175.8,338.6,175.5,339.2Z"/><path class="cls-13" d="M98.2,275.2a34.4,34.4,0,0,0,1.5,5.5,46.7,46.7,0,0,0,2.3,5.1,61.6,61.6,0,0,0,6.1,9.5,83.9,83.9,0,0,0,7.5,8.3l2.1,1.9,2.1,1.8c1.4,1.2,2.8,2.4,4.3,3.5a129.1,129.1,0,0,0,19.1,11.8,190.3,190.3,0,0,0,20.7,9l5.3,1.9,5.3,1.8,5.4,1.7,2.8.8,2.7.7c3.6,1.1,7.3,2.1,11,3l11,2.6c14.9,3.3,29.9,5.8,45,8.4a307.8,307.8,0,0,1-45.9-3.8,240.6,240.6,0,0,1-44.7-11.5l-5.4-2.1c-1.9-.7-3.6-1.6-5.4-2.4l-2.6-1.2-2.7-1.2c-1.7-.9-3.5-1.7-5.1-2.7l-5.1-2.9-4.9-3.2c-1.7-1.1-3.2-2.2-4.8-3.4s-3.1-2.4-4.6-3.6A78.2,78.2,0,0,1,105.7,297a54,54,0,0,1-5.2-10.5A34,34,0,0,1,98.2,275.2Z"/><path class="cls-14" d="M97.8,273s40.5-29.9,78.3,6.3c8.4,8,15.3,25,23.6,33.1,40.6,39.6,36.3,29.7,49.7,38.4,0,0-18.6-9.6-40.8-36.1,0,0-19.7-24.7-23.3-28.6-11.4-12.6-15.6-23.8-43.6-28C141.7,258.1,101.5,252.4,97.8,273Z"/><path class="cls-8" d="M90.1,278.2S68.5,297,88.5,331.1c0,0,41.8,56,96.8,39.7,0,0,52-17.6,60-17.1,0,0-11.9,3.1-31.3,11.7,0,0-42.2,15.8-65.7,10,0,0-38.9.1-67.2-46.7C81.1,328.7,57.2,296.9,90.1,278.2Z"/><path class="cls-7" d="M276.2,250.4s-15.7,3-20.9,12.9l1.3,4.5s3.6-10.3,18.9-16.3Z"/><path class="cls-8" d="M256.6,267.8s3.3-10.4,18.9-16.3l.3-.5s-16.8,5.5-19.5,16Z"/><path class="cls-9" d="M255.3,263.3s4.2-7.6,15.5-11.4c0,0-9.7,3.8-15.4,11.6Z"/><path class="cls-1" d="M392.3,244.3h-.5Z"/><path class="cls-10" d="M393,243.7h.1c.1-.1.3-.1.2.1s-.2.3-.3.4h-.1c-.1.1-.3.2-.3,0a.8.8,0,0,1,.4-.4h.1a.9.9,0,0,0-.1.5h-.1c-.1.1-.3.2-.3,0A.8.8,0,0,1,393,243.7Z"/><path class="cls-11" d="M312.1,264.9c-41.8-2.5-39.1-13.2-39.1-13.2-4.6-2.9-3.1-15.2,19.6-25.1,17.4-7.7,25.7-2.3,52,7.1,29.5,10.5,44,8.3,46.1,7.3C378.3,247.7,343.4,266.7,312.1,264.9Z"/><path class="cls-7" d="M267.7,276.6c-4.3-7.9-1.1-20.1,5.3-24.9,0,0,13,15.8,50.5,11.5,31-3.6,54.5-15.3,66.9-22h.3c-8.5,5.2-18.3,24.5-36.4,40.2C317.4,313.3,273.6,287.8,267.7,276.6Z"/><path class="cls-12" d="M351.7,283.4h-1.2a19.4,19.4,0,0,1-3.4-.9,32.9,32.9,0,0,1-5.3-2.4q-2.9-1.6-6.6-4.2l-5.6-4-5.7-3.8a27.7,27.7,0,0,0-5-2.4l-1.8-.4h0l1.7.4a29,29,0,0,1,5,2.5l5.5,3.9,5.5,3.9a56.4,56.4,0,0,0,6.7,4.3,41.2,41.2,0,0,0,5.4,2.5,18.6,18.6,0,0,0,3.6.8h1.2Z"/><path class="cls-12" d="M292.4,263c0,.1.5.1,1.4.5a11.8,11.8,0,0,1,1.6.8l2.1,1.4a53.5,53.5,0,0,1,5.3,4.9l7.3,7.5a86.8,86.8,0,0,0,6.9,6.4,46.4,46.4,0,0,0,8.2,5.4,22.8,22.8,0,0,0,4,1.7l3.4.8H334l-1.3-.2a20.1,20.1,0,0,1-3.5-.9,18.5,18.5,0,0,1-3.9-1.7,44.3,44.3,0,0,1-7.9-5.4c-2.5-2.1-4.8-4.4-6.8-6.4l-7.3-7.6a54.4,54.4,0,0,0-5.4-4.9l-2.2-1.4-1.8-.7A3,3,0,0,0,292.4,263Z"/><path class="cls-12" d="M273.7,253.2a9.9,9.9,0,0,1,1.2.9,16.7,16.7,0,0,1,3,3.5c1.3,1.6,2.8,3.9,4.6,6.6s4.2,5.9,7,9.5a72.1,72.1,0,0,0,7,7.9l4,3.7,4.1,3a40.9,40.9,0,0,0,3.9,2.2l3.3,1.4,2.3.7.8.3-.8-.3a12.8,12.8,0,0,1-2.3-.8,17.6,17.6,0,0,1-3.2-1.5,32.1,32.1,0,0,1-3.8-2.3,36,36,0,0,1-4-3.1q-1.9-1.6-3.9-3.6a96.5,96.5,0,0,1-6.8-8c-2.8-3.6-5-6.8-6.9-9.5s-3.4-4.9-4.7-6.6a21.6,21.6,0,0,0-3.3-3.4l-1.1-.6Z"/><path class="cls-12" d="M339.8,260.9h.7l2.2.7,3.3,1.6c1.4.6,2.9,1.4,4.7,2.4l4.4,2.1a42.8,42.8,0,0,0,4.6,1.7l2.2.5,1.8.2h0l-1.8-.2-2.1-.6a42.2,42.2,0,0,1-4.5-1.8l-4.3-2.1c-1.8-.9-3.3-1.8-4.7-2.4l-3.4-1.6-1.3-.4-1-.2Z"/><path class="cls-12" d="M363.7,254.2c0,.1.1.1.2.2l.4.2.5.2,1.5,1,1.9,1.8a13.9,13.9,0,0,0,1.9,1.5,4.2,4.2,0,0,0,2,1,2.7,2.7,0,0,0,1.6-.2h.2c0,.1-.1.1-.2.1a4,4,0,0,1-1.6.1,6.2,6.2,0,0,1-1.9-1.1l-1.7-1.6-2-1.9a5.3,5.3,0,0,0-1.6-.9l-.5-.2h-.7Z"/><path class="cls-12" d="M291.5,262.4c0,.1.3.1,1-.2a8.9,8.9,0,0,0,2.6-2.8,59.8,59.8,0,0,0,3.8-6.5c1.4-2.8,3-6.2,5-10a76.1,76.1,0,0,1,4.8-8.2,35,35,0,0,1,5.4-6.7,17.9,17.9,0,0,1,4.8-3.1l1.5-.5h0l-1.5.3a16.6,16.6,0,0,0-4.9,2.9,30.4,30.4,0,0,0-5.7,6.4,77.1,77.1,0,0,0-4.9,8.2c-2,3.8-3.7,7.2-5.1,10s-2.6,4.9-3.6,6.5a13.8,13.8,0,0,1-2.4,2.9C291.8,262.1,291.4,262.2,291.5,262.4Z"/><path class="cls-12" d="M309.6,264.1h.3l.3-.2.4-.4a14.5,14.5,0,0,0,2.1-2.9,40.6,40.6,0,0,0,2.5-5.4l3.1-8.1,1.5-3.5,1.8-3.5,2.1-3.4,1.2-1.5.7-.7.6-.7a6.9,6.9,0,0,1,1.3-1.1l.6-.6.7-.4.6-.5.6-.3.5-.4.6-.3.9-.4.7-.3.6-.3-.6.3-.7.2-1,.5-.5.2-.6.3-.6.4-.7.4-.6.5a1.8,1.8,0,0,0-.7.5l-1.4,1.1-.6.7a4.6,4.6,0,0,0-.7.7l-1.2,1.5a20.3,20.3,0,0,0-2.3,3.4,39,39,0,0,0-1.9,3.5c-.6,1.2-1.1,2.3-1.6,3.5-1.3,3.1-2.3,5.8-3.1,8.1a47.7,47.7,0,0,1-2.5,5.4,19.1,19.1,0,0,1-1.8,2.9l-.3.4c-.1.1-.1.2-.2.2A.8.8,0,0,0,309.6,264.1Z"/><path class="cls-12" d="M324.8,262.2c0,.2.3.3.8.2a5.1,5.1,0,0,0,2.3-1.7,44.5,44.5,0,0,0,3.8-5.2l5.4-8.6a69.4,69.4,0,0,1,4.9-6.8,15.3,15.3,0,0,1,4.9-4.3,4.7,4.7,0,0,1,3.8-.2l.6.3.5.4.4.3a1.2,1.2,0,0,0-.4-.4l-.4-.4-.6-.4a4.6,4.6,0,0,0-3.9-.5,13.8,13.8,0,0,0-5.1,3.7,55.2,55.2,0,0,0-4.9,6.5c-2.1,3.2-3.9,6.1-5.4,8.5a59.3,59.3,0,0,1-3.8,5.3C325.8,261.3,324.8,261.6,324.8,262.2Z"/><path class="cls-12" d="M362.8,254c.1.1.2.1.5-.1l1.3-.8.7-.9.9-1.1a28.6,28.6,0,0,1,1.9-3,20.3,20.3,0,0,1,1.8-2.6,15.1,15.1,0,0,1,2.3-2.1l2-1.4.6-.4h0l-.7.3-2.1,1.2a23.2,23.2,0,0,0-2.5,2.1,14.6,14.6,0,0,0-2,2.5c-.9,1.2-1.4,2.2-2,3a8.4,8.4,0,0,1-1.4,1.9C363.3,253.5,362.7,253.8,362.8,254Z"/><path class="cls-12" d="M275.2,253.7c0,.1.3.1,1-.1a13.7,13.7,0,0,0,2.7-1.7,38,38,0,0,0,3.8-4c1.3-1.8,2.9-4,4.5-6.6s5.2-8.3,7.9-11.7c.6-.8,1.3-1.5,1.9-2.2l.9-.9.8-.7.7-.5.5-.4.5-.3-.5.2-.6.4-.7.5-.8.7-1,.8-2,2.2a107.4,107.4,0,0,0-8.3,11.4c-1.7,2.6-3.2,4.7-4.5,6.5a37.2,37.2,0,0,1-3.6,3.9C276.3,253.1,275.1,253.5,275.2,253.7Z"/><path class="cls-12" d="M340.3,261.2c0,.2.3.3.7.2a5.3,5.3,0,0,0,2.2-1.4,27.7,27.7,0,0,0,3.6-4.1c1.4-1.8,3.1-4.2,5-6.8a63,63,0,0,1,4.5-5.5,15,15,0,0,1,4.7-3.4,5.6,5.6,0,0,1,3.6-.1l.6.3.4.2.3.3-.3-.3-.4-.4-.6-.3a4.7,4.7,0,0,0-3.6-.4,11.9,11.9,0,0,0-4.8,2.9,46.2,46.2,0,0,0-4.6,5.2l-5.1,6.8a48,48,0,0,1-3.5,4.2C341.2,260.6,340.3,260.8,340.3,261.2Z"/><path class="cls-13" d="M273,251.7a14.2,14.2,0,0,0,3,2.5,22,22,0,0,0,3.2,2.1,42.8,42.8,0,0,0,6.9,3.1,55.6,55.6,0,0,0,14.6,2.9c10,.8,20.1-.4,30-2.3a233.8,233.8,0,0,0,29.5-8c9.8-3.2,19.4-6.9,29.2-10.3a176.9,176.9,0,0,1-27.5,14.7,147.5,147.5,0,0,1-30,9.5c-10.4,2-21.1,2.8-31.7,1.1a54.7,54.7,0,0,1-15.3-4.9,43,43,0,0,1-6.7-4.4A24.7,24.7,0,0,1,273,251.7Z"/><path class="cls-14" d="M272,250.6s12.8-31.6,47.5-24.2c7.6,1.7,17.7,9.1,25.3,10.8,37.5,8.4,31.5,4.3,42.3,4.5,0,0-14.1,1.1-36.3-6.3,0,0-20.2-7.3-23.6-8.3-11.1-3.2-17.5-8.2-35.1-.7C292.1,226.4,266.8,237.4,272,250.6Z"/><path class="cls-8" d="M269.5,256.3s-5.9,18.6,17.8,31.1c0,0,44,17.5,69.9-11.4,0,0,23.8-28.6,28.6-31.2a152.9,152.9,0,0,0-14,17.9s-18.7,24.1-34.3,29.1c0,0-22.4,13.8-55.4-3.1C282.1,288.7,257.1,278.8,269.5,256.3Z"/><path class="cls-7" d="M193.6,166.6s-10.9,6.2-12.2,14.9l2,3s.2-8.6,10-16.9Z"/><path class="cls-8" d="M183.4,184.5s-.1-8.6,10-16.9v-.5s-11.1,8.4-10.5,16.8Z"/><path class="cls-9" d="M181.4,181.5s1.1-6.7,8.6-12.4c0,0-6.3,5.3-8.5,12.5Z"/><path class="cls-1" d="M278.4,132.8h-.1v.2Z"/><path class="cls-10" d="M278.8,132.2h0c.1-.1.2-.2.2,0s0,.2-.1.4h-.3a.5.5,0,0,1,.2-.4h0c.1.1.1.2.1.4h-.3A.5.5,0,0,1,278.8,132.2Z"/><path class="cls-11" d="M224,168.3c-31.8,8.7-32.4.1-32.4.1-4.2-1-6.1-10.5,8.2-23.6,11-10.1,18.6-8.2,40.4-7.9,24.6.5,34.9-4.9,36.2-6.1C268.9,138.9,247.7,161.8,224,168.3Z"/><path class="cls-7" d="M193.9,188.3c-5.2-4.9-5.8-14.7-2.3-19.9,0,0,13.6,8.5,40.4-4.2,22.2-10.5,36.7-25.1,44.2-33.2l.2-.2c-5,6-7.4,22.8-16.9,39.1C240.2,203,201.1,195.1,193.9,188.3Z"/><path class="cls-12" d="M258.1,172.1h-.2l-.7.2-2.8.2a28,28,0,0,1-4.5-.5,43.7,43.7,0,0,1-6-1.5l-5.2-1.5-5.1-1.4a26.9,26.9,0,0,0-4.4-.5h-.1a28.4,28.4,0,0,1,4.4.6l5,1.5,5.1,1.6,6.1,1.5a26.8,26.8,0,0,0,4.6.4,10.2,10.2,0,0,0,2.9-.3l.7-.2Z"/><path class="cls-12" d="M208.9,171.9H210l1.4.2,1.9.6a39.7,39.7,0,0,1,5.2,2.2l7.3,3.8c2.1,1,4.4,2.1,6.8,3a40.7,40.7,0,0,0,7.4,2l3.4.2,2.8-.3,1-.2.8-.2.6-.2-.6.2-.8.2-1,.2-2.8.2-3.3-.3a33.5,33.5,0,0,1-7.3-2.1c-2.4-.9-4.6-2-6.7-3l-7.2-3.8c-2.1-1-3.9-1.8-5.3-2.3l-2-.5h-1.5C209.2,171.7,208.8,171.9,208.9,171.9Z"/><path class="cls-12" d="M192.5,169.4a3.1,3.1,0,0,1,1.1.3,19.1,19.1,0,0,1,3.1,1.8l5.1,3.8c2.1,1.5,4.6,3.4,7.6,5.3a71.1,71.1,0,0,0,7.2,4.1,32.9,32.9,0,0,0,3.9,1.7l3.8,1.2a27,27,0,0,0,3.5.7l2.8.2h0l-2.8-.3-3.4-.8a27.2,27.2,0,0,1-3.7-1.3l-3.9-1.7c-2.5-1.3-4.9-2.8-7.1-4.2s-5.4-3.8-7.5-5.4l-5.2-3.7a12.9,12.9,0,0,0-3.3-1.7c-.4-.1-.7-.2-.9-.1Z"/><path class="cls-12" d="M243.6,158.4h.6a9.2,9.2,0,0,1,1.7,0l2.9.3,4.1.6,3.8.4a25.5,25.5,0,0,0,3.9.2l1.7-.2,1.4-.3.9-.3h0l-.9.3-1.4.2-1.7.2-3.8-.2-3.7-.5-4.1-.6-3-.3h-1.8Z"/><path class="cls-12" d="M259.6,147.4h1.1l1.3.4,1.9.9,1.7.7a5.6,5.6,0,0,0,1.8.1,1.6,1.6,0,0,0,1.1-.5l.2-.2h-.2a3.3,3.3,0,0,1-1.2.5,4.5,4.5,0,0,1-1.6-.3l-1.7-.8-2-.9-1.4-.3h-.7Z"/><path class="cls-12" d="M208,171.7c0,.1.3,0,.7-.4a6.6,6.6,0,0,0,1.3-2.7,40.3,40.3,0,0,0,1.1-5.8c.4-2.4.7-5.4,1.2-8.7s.9-5,1.5-7.4a28.6,28.6,0,0,1,2.4-6.3,12.1,12.1,0,0,1,2.8-3.5l1-.8.3-.2-.4.2-1,.7a12.4,12.4,0,0,0-2.9,3.3,27.5,27.5,0,0,0-2.6,6.2,68.6,68.6,0,0,0-1.6,7.3c-.6,3.4-.9,6.3-1.3,8.7a39.8,39.8,0,0,1-1,5.8,12.2,12.2,0,0,1-1.1,2.8C208.1,171.4,207.9,171.6,208,171.7Z"/><path class="cls-12" d="M221.9,168.4l.2-.2.2-.2.2-.4a8,8,0,0,0,.8-2.6,28.3,28.3,0,0,0,.5-4.8c.1-1.9.2-4.1.3-6.8.1-.9.1-1.9.2-2.9s.3-2.1.5-3.1.4-2,.7-3,.3-1,.5-1.4l.3-.7.3-.7a7.5,7.5,0,0,1,.7-1.2l.3-.5a1,1,0,0,1,.4-.5l.3-.5a.8.8,0,0,1,.4-.4l.3-.4.3-.4.6-.6.5-.4.3-.3-.4.3-.4.4-.6.6-.4.3-.3.4-.4.4-.4.5-.4.5-.3.5a7.5,7.5,0,0,0-.7,1.2c-.2.2-.2.5-.4.7l-.3.7a5.8,5.8,0,0,0-.5,1.4,28,28,0,0,0-.9,3.1c-.2,1-.4,2.1-.5,3.1l-.3,3c-.2,2.6-.2,4.9-.3,6.8a43.8,43.8,0,0,1-.4,4.6c-.2,1.2-.5,2.1-.6,2.6s-.1.3-.2.4a.4.4,0,0,1-.1.3Z"/><path class="cls-12" d="M232.8,163.1q0,.3.6,0a4.8,4.8,0,0,0,1.3-1.9,40.7,40.7,0,0,0,1.5-4.8c.5-2.1,1.1-4.8,1.9-7.7a57.9,57.9,0,0,1,1.8-6.3,14,14,0,0,1,2.6-4.5,4,4,0,0,1,2.8-1.1h1l.3.2-.3-.2-.5-.2-.5-.2a3.8,3.8,0,0,0-3,.6,10.5,10.5,0,0,0-2.8,4.1,36.4,36.4,0,0,0-2.1,6.1c-.7,2.9-1.3,5.5-1.9,7.6a41,41,0,0,1-1.4,4.9C233.3,162.2,232.6,162.7,232.8,163.1Z"/><path class="cls-12" d="M259,147.5l.3-.2a2.9,2.9,0,0,0,.7-1,5.9,5.9,0,0,0,.4-.8l.3-1.1c.2-.7.4-1.7.7-2.7a11.9,11.9,0,0,1,.7-2.3,11.4,11.4,0,0,1,1.2-2.2,14.2,14.2,0,0,1,1.1-1.6c.1-.1.3-.3.3-.4h0l-.4.4a7,7,0,0,0-1.2,1.5,11,11,0,0,0-1.4,2.1,14.4,14.4,0,0,0-.9,2.4l-.7,2.7a5.6,5.6,0,0,1-.5,1.8C259.2,147,258.9,147.4,259,147.5Z"/><path class="cls-12" d="M193.7,169.4l.7-.4a9.7,9.7,0,0,0,1.6-2,18.1,18.1,0,0,0,1.8-3.9c.6-1.7,1.1-3.7,1.7-6s1.8-7.5,2.9-10.7a22,22,0,0,1,.9-2.1,3.6,3.6,0,0,0,.4-.9l.4-.7.4-.6.3-.4.3-.4-.3.3-.3.4-.4.6-.5.7a4.1,4.1,0,0,1-.5.9l-.9,2.1a72.6,72.6,0,0,0-3.3,10.6c-.6,2.3-1.2,4.3-1.8,5.9a18.6,18.6,0,0,1-1.7,3.9C194.4,168.6,193.6,169.2,193.7,169.4Z"/><path class="cls-12" d="M244.1,158.5c0,.1.2.2.5,0a3.8,3.8,0,0,0,1.3-1.6,25.1,25.1,0,0,0,1.6-4c.6-1.7,1.2-3.9,2-6.3s1.3-3.6,2-5.2a10.3,10.3,0,0,1,2.6-3.7,4,4,0,0,1,2.7-1h.8l-.4-.2h-.5a4.3,4.3,0,0,0-2.8.6,9.8,9.8,0,0,0-2.8,3.4,37.5,37.5,0,0,0-2.1,5l-2.1,6.3a22.8,22.8,0,0,1-1.5,4.1C244.5,157.8,243.9,158.2,244.1,158.5Z"/><path class="cls-13" d="M191.6,168.4a14.2,14.2,0,0,0,2.9,1l2.9.7a28.8,28.8,0,0,0,5.9.4,49.9,49.9,0,0,0,11.5-1.7,92.7,92.7,0,0,0,21.5-9.3,229.7,229.7,0,0,0,19.9-13.3c6.5-4.7,12.8-9.8,19.4-14.6a123.4,123.4,0,0,1-16.4,18.3,120.9,120.9,0,0,1-19.9,14.8c-7.3,4.1-15.1,7.4-23.6,8.7a38.7,38.7,0,0,1-12.7,0,32.5,32.5,0,0,1-6.1-1.7A18.2,18.2,0,0,1,191.6,168.4Z"/><path class="cls-14" d="M190.6,167.9s1.5-26.8,29.1-30c6.1-.7,15.5,2.2,21.6,1.6,30-3.2,24.5-4.8,32.6-7.3,0,0-10.2,4.3-28.6,4.4,0,0-16.8-.3-19.6-.2-9.1.4-15.1-1.6-26.3,8.4C199.4,144.8,183.4,159.3,190.6,167.9Z"/><path class="cls-8" d="M190.1,172.7s.3,15.3,21.1,18.7c0,0,37.1,1.9,49.1-26.2,0,0,10.5-27.3,13.4-30.4a119,119,0,0,0-5.8,16.8s-7.9,22.7-18.3,30.3c0,0-13.1,16-41.9,11.7C207.7,193.6,186.6,192.6,190.1,172.7Z"/></g></g></g></g></g></svg>