<svg xmlns="http://www.w3.org/2000/svg" xmlns:xlink="http://www.w3.org/1999/xlink" viewBox="0 0 443.8 451.5"><defs><style>.cls-1{fill:none;}.cls-2{isolation:isolate;}.cls-3{opacity:0.5;}.cls-4{fill:url(#linear-gradient);}.cls-5{fill:#31d0e5;stroke-width:6px;stroke:url(#linear-gradient-2);}.cls-11,.cls-5,.cls-7{stroke-miterlimit:10;}.cls-6{clip-path:url(#clip-path);}.cls-7{fill:#41a022;stroke:#38841c;stroke-width:0.5px;}.cls-8{fill:#204910;opacity:0.32;}.cls-9{fill:#8fc12f;}.cls-14,.cls-9{opacity:0.51;}.cls-10{fill:#353535;}.cls-11{fill:#48bc28;stroke:#45a525;}.cls-12,.cls-13{fill:#b0e573;}.cls-12{mix-blend-mode:screen;opacity:0.69;}.cls-14{fill:#b6f261;}</style><linearGradient id="linear-gradient" x1="43.17" y1="103.28" x2="392.43" y2="342.6" gradientUnits="userSpaceOnUse"><stop offset="0" stop-color="#9b81cf"/><stop offset="1" stop-color="#3b139b"/></linearGradient><linearGradient id="linear-gradient-2" x1="16.1" y1="225.74" x2="427.68" y2="225.74" gradientUnits="userSpaceOnUse"><stop offset="0" stop-color="#4c1da9"/><stop offset="1" stop-color="#997ece"/></linearGradient><clipPath id="clip-path"><circle class="cls-1" cx="222.6" cy="226.4" r="199.8"/></clipPath></defs><g class="cls-2"><g id="SB39_Interactive_Icon_13_F1"><path class="cls-3" d="M435.1,237a208.3,208.3,0,0,0-25.4-100A211.6,211.6,0,0,0,221.9,23C105,23,10.2,117.8,10.2,234.7S105,446.3,221.9,446.3c3,0,5.9,0,8.9-.2C344.1,443.6,435.1,350.9,435.1,237Z"/><circle class="cls-4" cx="221.9" cy="225.7" r="211.7"/><circle class="cls-5" cx="221.9" cy="225.7" r="202.8"/><g id="_001" data-name="001"><g class="cls-6"><g id="_017" data-name="017"><path class="cls-7" d="M94.3,230.8s-21.9-9.1-36.2-1l-2.2,6.5s12.9-9.7,36.6-4.7Z"/><path class="cls-8" d="M55.9,236.3s12.6-10.1,36.6-4.7l.8-.3s-25.2-6.9-37,3.8Z"/><path class="cls-9" d="M58.1,229.8s11.3-6.1,28.2-1.5c0,0-15-3.2-28.3,1.8Z"/><path class="cls-1" d="M242.3,317.6h0Z"/><path class="cls-10" d="M243.6,317.4h.2c.2,0,.5.1.3.3a1.1,1.1,0,0,1-.8.2h-.2c-.1,0-.4-.1-.2-.3l.7-.2h.2c-.1.2-.3.3-.5.5h-.2c-.1,0-.4-.1-.2-.3Z"/><path class="cls-11" d="M126.8,277.8c-49.6-37-37.5-47.9-37.5-47.9-3.4-7.4,8.5-21.3,44.5-15.1,27.7,4.7,33.6,18.1,58.3,51,27.8,36.9,47.5,46,50.9,46.4C222.2,310.4,163.8,305.5,126.8,277.8Z"/><path class="cls-7" d="M62.4,256.2c1.3-13.2,15-25.6,26.9-26.3,0,0,3.1,29.9,52.9,55.1,41.1,20.8,79.5,25.5,100.3,27.3h.5c-14.8-.4-42.4,15.4-77.5,20.1C93.9,341.9,60.7,274.8,62.4,256.2Z"/><path class="cls-12" d="M160.5,332.8l-.3-.3-1-.9a25,25,0,0,1-3.5-3.9,51.1,51.1,0,0,1-4.5-7.2c-1.5-3-3.1-6.5-4.7-10.6s-2.5-6.2-3.7-9.4-2.6-6.4-4-9.3a35,35,0,0,0-4.2-7.1,19.2,19.2,0,0,0-1.9-2l-.3-.2-.2-.2c-.2-.1-.2-.2-.2-.2s0,.1.2.2l.2.2.3.2a20,20,0,0,1,1.8,2,35.1,35.1,0,0,1,4.1,7.1c1.3,2.8,2.5,6,3.7,9.2l3.5,9.4a101.5,101.5,0,0,0,4.8,10.7,43.4,43.4,0,0,0,4.6,7.4,23.6,23.6,0,0,0,3.8,3.9l1.1.8Z"/><path class="cls-12" d="M104,259.5c-.1.1.5.6,1.3,1.8a20.9,20.9,0,0,1,1.3,2.3A18.4,18.4,0,0,1,108,267a80.5,80.5,0,0,1,2.7,10.4c.8,4.2,1.6,9.2,2.8,15.1.9,4.2,1.9,8.9,3.4,13.6a64.7,64.7,0,0,0,5.6,13.2,37.6,37.6,0,0,0,3.6,5.3,45.8,45.8,0,0,0,3.6,3.8l1.5,1.3,1.2.9,1.1.7-1-.7-1.2-.9-1.5-1.3a35.2,35.2,0,0,1-3.5-3.9,37.5,37.5,0,0,1-3.5-5.3,60.9,60.9,0,0,1-5.3-13.1,136.9,136.9,0,0,1-3.2-13.5c-1.1-5.9-1.9-10.9-2.8-15.1a65.6,65.6,0,0,0-2.7-10.5c-.6-1.4-1.1-2.6-1.6-3.5a12.4,12.4,0,0,0-1.6-2.4A6.2,6.2,0,0,0,104,259.5Z"/><path class="cls-12" d="M88.9,232.3c-.1.1.4.6.8,2a30.3,30.3,0,0,1,.8,6.7c.2,3.1.3,7.1.4,12s.2,10.6.8,17.4a131.2,131.2,0,0,0,2.2,15.5c.6,2.6,1.2,5.2,2,7.7s1.7,4.8,2.6,7a64.3,64.3,0,0,0,3,5.9,37.3,37.3,0,0,0,2.9,4.4l2.2,2.7.8,1-.8-1-2.1-2.7c-.8-1.3-1.8-2.8-2.7-4.5a54.1,54.1,0,0,1-2.9-5.9c-.8-2.2-1.7-4.6-2.4-7.1s-1.3-5.1-1.8-7.7a146.2,146.2,0,0,1-2-15.3c-.5-6.8-.6-12.5-.7-17.4s-.2-8.8-.5-12a27.2,27.2,0,0,0-1.3-6.9,9.4,9.4,0,0,0-.8-1.5C89.1,232.3,88.9,232.3,88.9,232.3Z"/><path class="cls-12" d="M164.1,295.4l.8.8a28,28,0,0,1,2.1,2.6c.8,1.2,1.8,2.7,2.9,4.6l3.8,6.8c1.1,1.9,2.3,4,3.6,6.1a69.6,69.6,0,0,0,4.4,5.9,27.3,27.3,0,0,0,2.3,2.5,15.7,15.7,0,0,0,2.1,1.7l1.5,1,.4.2h0l-.4-.3a7.7,7.7,0,0,1-1.5-1,14,14,0,0,1-2-1.7,17,17,0,0,1-2.2-2.4,62.7,62.7,0,0,1-4.2-5.9l-3.5-6c-1.4-2.7-2.7-5-3.8-6.9s-2.1-3.4-3-4.7l-1.3-1.5a5.5,5.5,0,0,0-1-1.1C164.5,295.5,164.2,295.4,164.1,295.4Z"/><path class="cls-12" d="M199,306.6c-.1,0,0,.2.2.5l.3.4a5.9,5.9,0,0,1,.4.8,10.4,10.4,0,0,1,1,2.3l1,3.9a29,29,0,0,0,.9,3.4,6.7,6.7,0,0,0,1.8,2.7,3.9,3.9,0,0,0,2.1,1.1h0a3.7,3.7,0,0,1-1.9-1.2,6.2,6.2,0,0,1-1.5-2.9,20.9,20.9,0,0,1-.8-3.4l-1-3.9a9,9,0,0,0-1.1-2.4l-.5-.7-.5-.4C199.2,306.6,199,306.5,199,306.6Z"/><path class="cls-12" d="M103.4,258c-.1.1.2.5,1.3.6a13.1,13.1,0,0,0,5.5-1.2,95.8,95.8,0,0,0,9.9-5.1l14.3-8.2a136.4,136.4,0,0,1,12.7-6.3,51.4,51.4,0,0,1,12.1-3.7,23.2,23.2,0,0,1,8.4,0l2.3.6.7.3-.7-.3a10.5,10.5,0,0,0-2.2-.8,22.9,22.9,0,0,0-8.3-.5,49.7,49.7,0,0,0-12.2,3.3,99.3,99.3,0,0,0-12.7,6.1c-5.6,3-10.4,5.9-14.4,8.2a108.2,108.2,0,0,1-9.7,5.1,18.1,18.1,0,0,1-5.4,1.6C103.9,257.8,103.4,257.8,103.4,258Z"/><path class="cls-12" d="M124.3,274.9s.1.1.4,0H126a20.6,20.6,0,0,0,5-1.8c2.1-1.1,4.6-2.7,7.6-4.7l10.4-7.5,4.6-3c1.7-1,3.3-2,5.1-2.9a41.3,41.3,0,0,1,5.3-2.4l2.7-.9,1.4-.4,1.3-.3,2.6-.4h6.3l1.5.2,1.2.2.9.2-.9-.2-1.1-.3-1.5-.2h-6.5l-2.6.4-1.4.2-1.4.3-2.7.9a38.8,38.8,0,0,0-5.6,2.3A52.1,52.1,0,0,0,153,257l-4.7,3c-4.2,2.8-7.6,5.4-10.5,7.4a70,70,0,0,1-7.4,4.7,23.4,23.4,0,0,1-4.6,2.1l-.7.2-.5.2Z"/><path class="cls-12" d="M144.6,284.9c-.2.3,0,.6.7.9a9.8,9.8,0,0,0,4.3-.3,57.8,57.8,0,0,0,8.9-3.3c3.8-1.6,8.4-3.9,13.7-6.2,3.7-1.6,7.8-3.3,11.5-4.5s7.1-1.6,9.6-1.2a6.3,6.3,0,0,1,4.8,2.9,4.1,4.1,0,0,1,.5.9l.3.7.3.7-.2-.8c-.1-.2-.1-.5-.2-.8s-.3-.7-.4-1.1a6.6,6.6,0,0,0-4.4-3.6c-2.3-.7-5.6-.5-9.2.4a73.8,73.8,0,0,0-11.4,4c-5.3,2.2-9.8,4.4-13.6,6a86.5,86.5,0,0,1-8.9,3.5C146.5,284.6,145.1,284.2,144.6,284.9Z"/><path class="cls-12" d="M198.1,305.7c0,.1.2.2.7.3a8.9,8.9,0,0,0,2.2-.1l1.7-.4,1.9-.8c1.4-.5,2.9-1.3,4.8-2.1a27.3,27.3,0,0,1,4.3-1.6,27.8,27.8,0,0,1,4.6-.8,15,15,0,0,1,3.6-.1h1l-1-.2-3.6-.2a27.4,27.4,0,0,0-4.8.6,22.4,22.4,0,0,0-4.6,1.4l-4.8,2.1-3.3,1.2C199,305.4,198.1,305.4,198.1,305.7Z"/><path class="cls-12" d="M90.3,234.1c-.1.1.4.4,1.4.6a16.8,16.8,0,0,0,4.7.1,35.2,35.2,0,0,0,7.9-1.9c3.1-1,6.8-2.5,11-4.3,5.9-2.7,13.1-6.1,19.1-8l4.2-1.2,1.8-.4,1.5-.2h0l-1.6.2-1.8.2-4.3,1c-6.1,1.7-13.4,4.8-19.4,7.4-4.2,1.8-7.8,3.2-10.9,4.2a41.9,41.9,0,0,1-7.7,2C92.2,234.2,90.4,233.7,90.3,234.1Z"/><path class="cls-12" d="M164.5,296.3c-.2.2,0,.5.7.8a9.2,9.2,0,0,0,3.8,0,52.2,52.2,0,0,0,7.8-2.1l11.7-4.4a102.6,102.6,0,0,1,10-3,21.3,21.3,0,0,1,8.5-.5,7.3,7.3,0,0,1,4.5,2.8l.5.8a1.3,1.3,0,0,1,.3.7l.3.6a3.2,3.2,0,0,1-.2-.6c-.1-.3-.1-.5-.2-.8l-.5-.9a7.7,7.7,0,0,0-4.1-3.5,17,17,0,0,0-8.2-.2,58.9,58.9,0,0,0-10,2.6l-11.7,4.2a56.5,56.5,0,0,1-7.7,2.4C166.1,296.2,164.9,295.7,164.5,296.3Z"/><path class="cls-13" d="M89.3,229.9a25.9,25.9,0,0,0,1.3,5.5,34.9,34.9,0,0,0,2.2,5.3,57.8,57.8,0,0,0,5.7,9.6,74.3,74.3,0,0,0,7.3,8.5l2,2,2,1.9,4.3,3.6a131.8,131.8,0,0,0,18.7,12.4,209.3,209.3,0,0,0,20.3,9.6c1.7.8,3.5,1.4,5.3,2.1l5.3,1.9,5.3,1.9,2.7.9,2.7.8c3.6,1.2,7.2,2.4,10.9,3.3s7.3,2.1,11,3c14.7,3.7,29.6,6.8,44.6,9.9a305,305,0,0,1-45.6-5.4,230.1,230.1,0,0,1-44.4-12.9l-5.4-2.3c-1.8-.7-3.5-1.6-5.2-2.4l-2.7-1.3-2.5-1.4c-1.7-.9-3.5-1.8-5.1-2.8l-5-3.1-4.8-3.3-4.7-3.5-4.5-3.8a78.1,78.1,0,0,1-14.9-18,53.5,53.5,0,0,1-4.9-10.6A34.5,34.5,0,0,1,89.3,229.9Z"/><path class="cls-14" d="M88.9,227.7s41.5-28.7,78.1,8.7c8.1,8.3,14.5,25.5,22.5,33.9,39.4,40.8,35.4,30.8,48.5,39.9,0,0-18.2-10.1-39.6-37.4,0,0-19-25.3-22.4-29.3-11-13-14.9-24.3-42.7-29.3C133.3,214.2,93.2,207.2,88.9,227.7Z"/><path class="cls-8" d="M81.1,232.7s-22.2,18.1-3.3,52.7c0,0,40.1,57.4,95.5,42.8,0,0,52.5-16,60.6-15.3,0,0-12.1,2.8-31.8,10.8,0,0-42.6,14.4-65.9,7.9,0,0-38.9-1.1-65.7-48.8C70.5,282.8,47.7,250.3,81.1,232.7Z"/><path class="cls-7" d="M266.2,186.8s-15.7-3.5-24.3,3.5l-.7,4.7s7.5-8,23.9-7.5Z"/><path class="cls-8" d="M241.2,195s7.2-8.2,23.9-7.5l.5-.3s-17.6-1.6-24.3,6.9Z"/><path class="cls-9" d="M241.9,190.3s6.8-5.3,18.7-4.3c0,0-10.5-.3-18.7,4.5Z"/><path class="cls-1" d="M375,227.4h0Z"/><path class="cls-10" d="M375.9,227.1h.2c.1,0,.3,0,.2.2l-.5.2h-.1c-.1.1-.3,0-.2-.1s.3-.2.4-.3h.2l-.3.4h-.1c-.1.1-.3,0-.2-.1S375.8,227.2,375.9,227.1Z"/><path class="cls-11" d="M293.4,214.4c-37.5-19-30.7-27.6-30.7-27.6-3.1-4.5,3.2-15.2,28-15.3,19-.1,24.5,8.1,44.8,27.2,22.9,21.4,37.1,25.1,39.4,25.1C360.8,225,321.3,228.5,293.4,214.4Z"/><path class="cls-7" d="M247.9,207.5c-.7-9,7-18.9,14.8-20.7,0,0,5.6,19.6,41.7,30.6,29.9,9.1,56.1,7.7,70.2,6.5h.3c-9.9,1.4-26.5,15.1-49.4,22.4C278.9,261,248.9,220,247.9,207.5Z"/><path class="cls-12" d="M322.3,247.2l-.3-.2-.7-.5a13.7,13.7,0,0,1-2.8-2.2,34.7,34.7,0,0,1-3.9-4.3c-1.4-1.8-2.8-4-4.4-6.5l-3.5-5.8c-1.3-2-2.5-4-3.8-5.8a28,28,0,0,0-3.6-4.3l-1.5-1-.2-.2h0l.2.2a6,6,0,0,1,1.4,1.1,26.8,26.8,0,0,1,3.6,4.2c1.2,1.8,2.3,3.8,3.5,5.8l3.5,5.8c1.5,2.5,3,4.7,4.4,6.6a24.3,24.3,0,0,0,4,4.3,13.8,13.8,0,0,0,3,2.2l.8.5Z"/><path class="cls-12" d="M276,204.8l1.1,1,1.1,1.4a14,14,0,0,1,1.4,2.2,48.8,48.8,0,0,1,2.9,6.6c1.1,2.7,2.2,5.9,3.7,9.8s2.3,5.6,3.8,8.6a46.1,46.1,0,0,0,5.3,8.2c1,1.1,2.1,2.2,3.1,3.1a20.3,20.3,0,0,0,2.8,2.1l1.2.7.9.4.7.4-.7-.4-.9-.5-1.2-.7a20.1,20.1,0,0,1-2.7-2.1c-1-.9-2-2-3-3.1a51.6,51.6,0,0,1-5.1-8.2c-1.4-2.9-2.6-5.9-3.6-8.6s-2.6-7-3.7-9.8a52.5,52.5,0,0,0-3.1-6.6,12.5,12.5,0,0,0-2.7-3.6A5.2,5.2,0,0,0,276,204.8Z"/><path class="cls-12" d="M262.7,188.4a8,8,0,0,1,.8,1.3,25.6,25.6,0,0,1,1.4,4.4c.4,2,.9,4.6,1.6,7.9s1.4,7.1,2.6,11.5a89.9,89.9,0,0,0,3.2,10.1c.7,1.7,1.5,3.3,2.3,4.9s1.7,3,2.5,4.4,1.8,2.5,2.7,3.6a31.8,31.8,0,0,0,2.5,2.6l1.7,1.5.7.6-.6-.6a19,19,0,0,1-1.8-1.6l-2.3-2.6a39.5,39.5,0,0,1-2.6-3.7,36.2,36.2,0,0,1-2.4-4.4,42.5,42.5,0,0,1-2.1-4.9,94,94,0,0,1-3.1-10c-1.2-4.5-1.9-8.3-2.6-11.5s-1.2-5.9-1.7-8a19,19,0,0,0-1.6-4.4l-.8-.9Z"/><path class="cls-12" d="M320.3,221.7c0,.1.2.2.6.5l1.7,1.5,2.5,2.7,3.3,4.1c1,1.1,2,2.4,3.2,3.6a23.8,23.8,0,0,0,3.6,3.5,10.2,10.2,0,0,0,1.8,1.3l1.6,1,1.1.4h0a3.4,3.4,0,0,1-1.1-.5l-1.6-.9a17.7,17.7,0,0,1-1.7-1.4,37.3,37.3,0,0,1-3.5-3.4c-1.1-1.2-2.1-2.5-3-3.6s-2.4-3-3.4-4.1a25.3,25.3,0,0,0-2.5-2.8l-1-.9a3.5,3.5,0,0,0-.9-.6Z"/><path class="cls-12" d="M344.9,225.1c-.1.1,0,.2.1.3l.3.3.4.4.9,1.5,1.1,2.5a10.6,10.6,0,0,0,1.1,2.1,6.1,6.1,0,0,0,1.4,1.7,3.7,3.7,0,0,0,1.6.4h0a3.6,3.6,0,0,1-1.5-.6A5.9,5.9,0,0,1,349,232l-.9-2.2-1.1-2.5a7.6,7.6,0,0,0-1-1.5l-.5-.4-.3-.2Z"/><path class="cls-12" d="M275.4,203.9c0,.1.2.3,1,.2a9.8,9.8,0,0,0,3.5-1.5,43.9,43.9,0,0,0,6-4.4l8.6-7.2a90.2,90.2,0,0,1,7.7-5.7,39.3,39.3,0,0,1,7.6-3.9,17.9,17.9,0,0,1,5.7-1l1.5.2h.6l-.5-.2-1.6-.2a15.2,15.2,0,0,0-5.6.6,33.4,33.4,0,0,0-7.7,3.7,72.7,72.7,0,0,0-7.8,5.5c-3.4,2.7-6.2,5.2-8.7,7.1a62.8,62.8,0,0,1-5.8,4.6,14.6,14.6,0,0,1-3.4,1.7C275.8,203.7,275.4,203.7,275.4,203.9Z"/><path class="cls-12" d="M291.3,212.7h.7l.5-.2a10.6,10.6,0,0,0,3.1-1.8,29.4,29.4,0,0,0,4.5-4l6.1-6.2a33.2,33.2,0,0,1,2.7-2.5,38.8,38.8,0,0,1,3.1-2.6,36.2,36.2,0,0,1,3.2-2.2l1.7-.9.9-.4.8-.4,1.7-.5.8-.3h.8l.7-.2h0l-.8.2H321l-.8.2-1.7.6-.9.3-.9.4-1.7.9a23.9,23.9,0,0,0-3.4,2.1l-3.2,2.5-2.8,2.6c-2.4,2.3-4.4,4.4-6.1,6.1a48.7,48.7,0,0,1-4.4,4.1l-2.8,1.9-.5.2-.3.2Z"/><path class="cls-12" d="M306.1,217c-.1.2,0,.4.6.5a5.7,5.7,0,0,0,2.8-.7,40.7,40.7,0,0,0,5.5-3.2c2.4-1.5,5.2-3.6,8.4-5.7a60.4,60.4,0,0,1,7.2-4.4,14.9,14.9,0,0,1,6.2-1.9,4.6,4.6,0,0,1,3.6,1.3,2.1,2.1,0,0,1,.4.6,1.3,1.3,0,0,1,.3.5l.3.4-.2-.5-.3-.6-.4-.6a4.6,4.6,0,0,0-3.3-2,14.3,14.3,0,0,0-6.1,1.4,46.6,46.6,0,0,0-7.2,4l-8.3,5.6a46.4,46.4,0,0,1-5.6,3.4C307.3,216.6,306.3,216.5,306.1,217Z"/><path class="cls-12" d="M344.2,224.6h.5a2.9,2.9,0,0,0,1.4-.3l1.1-.4,1.2-.7,2.9-2.1,2.8-1.5a17.2,17.2,0,0,1,2.9-1.1l2.4-.5h0l-2.5.3-3.1.9a26.4,26.4,0,0,0-2.9,1.5c-1.2.8-2.1,1.5-3,2l-2,1.2C344.8,224.4,344.2,224.4,344.2,224.6Z"/><path class="cls-12" d="M263.9,189.5c0,.1.3.2,1,.2a11.3,11.3,0,0,0,3.1-.5,30.8,30.8,0,0,0,5.1-2.1,79.1,79.1,0,0,0,6.8-4.3c3.7-2.4,8.1-5.5,11.8-7.5l2.7-1.3,1.1-.4,1.1-.4.8-.2.7-.2h-.7l-.9.2-1,.3-1.2.4-2.7,1.1a124.3,124.3,0,0,0-12.1,7.2c-2.6,1.7-4.9,3.1-6.8,4.1a26.9,26.9,0,0,1-4.9,2.2C265.2,189.3,263.9,189.2,263.9,189.5Z"/><path class="cls-12" d="M320.7,222.3c-.1.2,0,.3.5.5a6.5,6.5,0,0,0,2.6-.5,38,38,0,0,0,4.9-2.3l7.3-4.3c2-1.1,4.3-2.3,6.4-3.2a14.5,14.5,0,0,1,5.6-1.3,5.1,5.1,0,0,1,3.3,1.4l.4.4.3.5.3.3a1.1,1.1,0,0,1-.2-.4l-.3-.5-.4-.5a4.6,4.6,0,0,0-3.1-1.8,10.7,10.7,0,0,0-5.6.8,39.6,39.6,0,0,0-6.3,2.9c-2.8,1.5-5.3,3-7.3,4.2l-4.9,2.5C321.7,222,320.8,221.9,320.7,222.3Z"/><path class="cls-13" d="M262.7,186.8a21.6,21.6,0,0,0,1.7,3.4l2.1,3.2a54.7,54.7,0,0,0,5.1,5.6,64.2,64.2,0,0,0,12.3,8.5,109.9,109.9,0,0,0,28.4,9.8,235.3,235.3,0,0,0,30.3,4.4c10.2,1,20.5,1.5,30.9,2.2a171,171,0,0,1-31.1,2.5,143.4,143.4,0,0,1-31.3-3.2c-10.3-2.3-20.6-5.8-29.6-11.6a52.8,52.8,0,0,1-12-10.6,36.9,36.9,0,0,1-4.4-6.7A25.3,25.3,0,0,1,262.7,186.8Z"/><path class="cls-14" d="M262.2,185.4s24.3-24,53.2-3.3c6.3,4.5,12.6,15.3,18.9,19.9,31,22.7,27.2,16.5,37.1,21,0,0-13.4-4.6-30.9-20.3,0,0-15.6-14.7-18.3-17-8.9-7.3-12.8-14.4-31.9-14.5C290.3,171.2,262.7,171.2,262.2,185.4Z"/><path class="cls-8" d="M257.6,189.6s-12.7,14.6,4,35.6c0,0,33.4,33.6,68.7,17.3,0,0,33.1-16.7,38.6-17.2A149,149,0,0,0,349,236.2s-26.8,14.6-43.1,13c0,0-26.1,3.8-49.5-24.9C256.4,224.3,237.3,205.3,257.6,189.6Z"/><path class="cls-7" d="M187.3,104s-12.6-1.3-18.7,5v3.7s5.1-6.9,18-8Z"/><path class="cls-8" d="M168.5,112.7s4.9-7.1,18-8l.3-.3s-13.9.3-18.3,7.6Z"/><path class="cls-9" d="M168.6,109s4.9-4.8,14.2-5c0,0-8.2.6-14.2,5.2Z"/><path class="cls-1" d="M275.9,125.7h0Z"/><path class="cls-10" d="M276.6,125.4h.1s.2,0,.1.1l-.3.2h-.1c-.1,0-.3,0-.2-.1s.2-.2.4-.3h.1c-.1.1-.2.2-.2.3h-.1c-.1,0-.3,0-.2-.1S276.4,125.5,276.6,125.4Z"/><path class="cls-11" d="M211,123.1c-31-11.4-26.4-18.8-26.4-18.8-2.9-3.2,1-12.1,20.4-14.5,14.8-1.8,19.8,4.1,37.4,17.2,19.8,14.6,31.3,16.2,33,15.9C264.6,125.1,234.1,131.5,211,123.1Z"/><path class="cls-7" d="M174.9,121.8c-1.4-6.9,3.7-15.3,9.7-17.5,0,0,6.1,14.8,35.3,20.1,24.1,4.3,44.4.8,55.3-1.4h.2c-7.5,2-19.2,14.2-36.4,22C204,160.7,176.8,131.6,174.9,121.8Z"/><path class="cls-12" d="M236.5,146l-.2-.2-.6-.3a10.9,10.9,0,0,1-2.4-1.4,27,27,0,0,1-3.4-3c-1.2-1.3-2.6-2.9-4-4.7l-3.3-4.2a49.7,49.7,0,0,0-3.5-4.1,14.5,14.5,0,0,0-3.2-3l-1.2-.8h-.4a.1.1,0,0,1-.1-.1.1.1,0,0,0,.1.1h.3l1.3.8a21.1,21.1,0,0,1,3.1,3c1.1,1.2,2.2,2.7,3.3,4.1l3.2,4.3c1.5,1.8,2.8,3.4,4.1,4.7a18.1,18.1,0,0,0,3.5,3,12.4,12.4,0,0,0,2.5,1.5l.7.2Z"/><path class="cls-12" d="M196.6,117.2l.9.7a4.6,4.6,0,0,1,1,1l1.3,1.5c.8,1.2,1.8,2.9,2.9,4.9s2.2,4.4,3.7,7.3,2.4,4.2,3.8,6.4a30.7,30.7,0,0,0,4.9,5.8,17.4,17.4,0,0,0,2.7,2.2,12.3,12.3,0,0,0,2.4,1.4l.9.4.8.3.6.2-.6-.2-.8-.3-.9-.4-2.4-1.5-2.6-2.1a39.3,39.3,0,0,1-4.7-5.9,71.7,71.7,0,0,1-3.6-6.4c-1.5-2.8-2.7-5.3-3.8-7.3a32.9,32.9,0,0,0-3-4.9,11.2,11.2,0,0,0-1.3-1.6l-1.2-1A3.6,3.6,0,0,0,196.6,117.2Z"/><path class="cls-12" d="M184.7,105.6c0,.1.3.3.7.9a28.6,28.6,0,0,1,1.5,3.3c.5,1.6,1.2,3.6,2,6s1.7,5.4,3,8.8,2.2,5,3.5,7.6l2.2,3.6L200,139l2.4,2.5a14.6,14.6,0,0,0,2.2,1.8l1.5,1.1.6.3-.6-.3-1.5-1.1a17,17,0,0,1-2-1.9,20.5,20.5,0,0,1-2.4-2.6,29.5,29.5,0,0,1-2.3-3.2l-2.1-3.6a70,70,0,0,1-3.3-7.6c-1.3-3.3-2.3-6.2-3.1-8.7s-1.4-4.5-2-6a12.1,12.1,0,0,0-1.7-3.3,2.2,2.2,0,0,0-.7-.7Z"/><path class="cls-12" d="M232.7,126.3l.5.3,1.4,1a17.4,17.4,0,0,1,2.2,1.9l3,2.9,2.8,2.6,3.1,2.3,1.5.9,1.4.6.9.2h0l-.9-.2-1.3-.6-1.5-.9-3-2.4-2.7-2.5-3-2.9c-.9-.8-1.6-1.5-2.3-2l-.8-.6-.7-.4Z"/><path class="cls-12" d="M252.1,126.7l.2.2.2.2.4.3.8,1.1,1.1,1.8a14,14,0,0,0,1,1.6,4.2,4.2,0,0,0,1.3,1.1,2.4,2.4,0,0,0,1.3.3h0a1.9,1.9,0,0,1-1.2-.3,6.8,6.8,0,0,1-1.2-1.2,14,14,0,0,1-.9-1.7l-1.1-1.8a13.5,13.5,0,0,0-.9-1.1l-.4-.2-.3-.2Z"/><path class="cls-12" d="M196,116.5c0,.1.2.2.8.1a5.5,5.5,0,0,0,2.6-1.5,35.6,35.6,0,0,0,4.3-4l6-6.4a66.4,66.4,0,0,1,5.5-5.1,27.7,27.7,0,0,1,5.6-3.8,15,15,0,0,1,4.3-1.3h0a13.4,13.4,0,0,0-4.3,1.1,22.5,22.5,0,0,0-5.7,3.5,66.6,66.6,0,0,0-5.6,5l-6,6.4c-1.7,1.8-3.1,3.1-4.2,4.1a8.9,8.9,0,0,1-2.5,1.6Z"/><path class="cls-12" d="M209.2,121.9h.6l.3-.2a10.8,10.8,0,0,0,2.3-1.7,30.1,30.1,0,0,0,3.1-3.5l4.2-5.4,1.9-2.3,2.1-2.2,2.4-2a9.4,9.4,0,0,1,1.2-.9l.7-.4.6-.4,1.2-.6.6-.2.6-.2.6-.2h.5l.5-.2h-.5l-.6.2H231l-.7.2-.6.3-1.2.5-.7.4-.7.3-1.2.9a24.3,24.3,0,0,0-2.5,2c-.8.7-1.5,1.5-2.2,2.2l-2,2.3-4.2,5.4a41.6,41.6,0,0,1-3.1,3.5,13.8,13.8,0,0,1-2,1.8l-.3.2h-.2Z"/><path class="cls-12" d="M221.1,123.9c0,.2.1.3.5.4a4.9,4.9,0,0,0,2.2-.8,37,37,0,0,0,4-3l6-5.3a60.4,60.4,0,0,1,5.2-4,12.4,12.4,0,0,1,4.7-2.1,3.6,3.6,0,0,1,2.9.7l.4.4.3.3.2.3-.2-.3c-.1-.1-.1-.3-.2-.4l-.4-.5a3.9,3.9,0,0,0-2.8-1.2,9.8,9.8,0,0,0-4.6,1.6,31.4,31.4,0,0,0-5.2,3.8c-2.4,1.9-4.4,3.7-6,5.1a45.6,45.6,0,0,1-4,3.2C222,123.5,221.3,123.5,221.1,123.9Z"/><path class="cls-12" d="M251.6,126.4h.3l1.2-.3.8-.5.8-.7,2.1-1.8,2-1.5,2.2-1.1,1.8-.6h0l-1.9.5a14.6,14.6,0,0,0-2.3,1,11,11,0,0,0-2.1,1.4l-2.2,1.8-1.5,1.1C252,126.1,251.5,126.2,251.6,126.4Z"/><path class="cls-12" d="M185.7,106.3c0,.1.3.1.8.1a7.5,7.5,0,0,0,2.4-.6,34.8,34.8,0,0,0,3.8-2.2c1.4-1,3-2.3,4.9-3.9a108.6,108.6,0,0,1,8.5-7l2-1.2.8-.5a2,2,0,0,0,.8-.4l.6-.2.5-.2h-.5l-.6.3-.8.3-.9.4-2,1.2a70.5,70.5,0,0,0-8.8,6.7l-4.9,3.8-3.6,2.2C186.7,106.1,185.7,106.1,185.7,106.3Z"/><path class="cls-12" d="M233,126.7c0,.2.1.3.5.3a4.8,4.8,0,0,0,1.9-.5,32.6,32.6,0,0,0,3.6-2.3l5.4-4c1.5-1.1,3.1-2.2,4.6-3.1a11.1,11.1,0,0,1,4.3-1.5,4.1,4.1,0,0,1,2.7.7c.1.2.3.2.4.4l.2.3.3.2-.2-.3-.3-.3-.3-.4a4.3,4.3,0,0,0-2.7-1.2,10,10,0,0,0-4.2,1.2,32.4,32.4,0,0,0-4.7,2.8l-5.3,4-3.6,2.4C233.8,126.4,233.1,126.4,233,126.7Z"/><path class="cls-13" d="M184.6,104.3a8.5,8.5,0,0,0,1.7,2.5,14.3,14.3,0,0,0,2,2.3,40.2,40.2,0,0,0,4.5,3.7,46.4,46.4,0,0,0,10.4,5.3,93.5,93.5,0,0,0,22.9,4.9,211.3,211.3,0,0,0,23.9.8c8.1-.1,16.1-.5,24.4-.7a131.4,131.4,0,0,1-24.1,5.4,114,114,0,0,1-24.8.5c-8.2-.9-16.6-2.8-24.2-6.6a40.2,40.2,0,0,1-10.4-7.4,26.3,26.3,0,0,1-3.9-4.9A15.5,15.5,0,0,1,184.6,104.3Z"/><path class="cls-14" d="M184,103.3s16.8-21,41.2-7.5c5.3,3,11.2,10.8,16.6,13.8,26.3,14.9,22.7,10.4,30.8,13,0,0-10.9-2.4-25.9-13,0,0-13.5-10-15.9-11.5-7.6-5-11.3-10.1-26.2-8.5C204.6,89.6,183.1,92.2,184,103.3Z"/><path class="cls-8" d="M180.8,107s-8.6,12.6,6.4,27.4c0,0,29.1,23.1,55.2,7.2,0,0,24.3-16.1,28.5-17A128.6,128.6,0,0,0,256.4,135s-19.6,13.8-32.5,14c0,0-20,5.4-40.9-14.8C183,134.2,166.4,121.1,180.8,107Z"/></g></g></g></g></g></svg>