<svg xmlns="http://www.w3.org/2000/svg" xmlns:xlink="http://www.w3.org/1999/xlink" viewBox="0 0 443.8 451.5"><defs><style>.cls-1{fill:none;}.cls-2{isolation:isolate;}.cls-3{opacity:0.5;}.cls-4{fill:url(#linear-gradient);}.cls-5{fill:#31d0e5;stroke-width:6px;stroke:url(#linear-gradient-2);}.cls-11,.cls-5,.cls-7{stroke-miterlimit:10;}.cls-6{clip-path:url(#clip-path);}.cls-7{fill:#41a022;stroke:#38841c;stroke-width:0.5px;}.cls-8{fill:#204910;opacity:0.32;}.cls-9{fill:#8fc12f;}.cls-14,.cls-9{opacity:0.51;}.cls-10{fill:#353535;}.cls-11{fill:#48bc28;stroke:#45a525;}.cls-12,.cls-13{fill:#b0e573;}.cls-12{mix-blend-mode:screen;opacity:0.69;}.cls-14{fill:#b6f261;}</style><linearGradient id="linear-gradient" x1="43.17" y1="103.28" x2="392.43" y2="342.6" gradientUnits="userSpaceOnUse"><stop offset="0" stop-color="#9b81cf"/><stop offset="1" stop-color="#3b139b"/></linearGradient><linearGradient id="linear-gradient-2" x1="16.1" y1="225.74" x2="427.68" y2="225.74" gradientUnits="userSpaceOnUse"><stop offset="0" stop-color="#4c1da9"/><stop offset="1" stop-color="#997ece"/></linearGradient><clipPath id="clip-path"><circle class="cls-1" cx="222.6" cy="226.4" r="199.8"/></clipPath></defs><g class="cls-2"><g id="SB39_Interactive_Icon_13_F1"><path class="cls-3" d="M435.1,237a208.3,208.3,0,0,0-25.4-100A211.6,211.6,0,0,0,221.9,23C105,23,10.2,117.8,10.2,234.7S105,446.3,221.9,446.3c3,0,5.9,0,8.9-.2C344.1,443.6,435.1,350.9,435.1,237Z"/><circle class="cls-4" cx="221.9" cy="225.7" r="211.7"/><circle class="cls-5" cx="221.9" cy="225.7" r="202.8"/><g id="_001" data-name="001"><g class="cls-6"><g id="_004" data-name="004"><path class="cls-7" d="M91.9,296.4S74,280.9,57.9,284l-4.2,5.5S69,284.4,90,296.6Z"/><path class="cls-8" d="M53.7,289.5s15.2-5.6,36.3,7.1h.8s-21.7-14.5-36.3-8Z"/><path class="cls-9" d="M57.9,284s12.6-2.2,27.2,7.5c0,0-13.2-7.8-27.4-7.3Z"/><path class="cls-1" d="M204.7,425.6a.1.1,0,0,1-.1-.1l-.5-.2Z"/><path class="cls-10" d="M206.1,425.8h.2c.1.1.4.2.2.4a1.1,1.1,0,0,1-.8-.1h-.2c-.1-.1-.4-.2-.2-.4s.6,0,.8,0h.2l-.6.3h-.2c-.1-.1-.4-.2-.2-.4A2.1,2.1,0,0,1,206.1,425.8Z"/><path class="cls-11" d="M107.8,351.3C72.5,300.5,87.4,294,87.4,294c-.8-8.1,14.8-17.5,47.1-.3,24.7,13.3,26.1,27.8,39.1,66.8,14.6,43.9,30.5,58.7,33.5,60.2C188,412.5,134.2,389.3,107.8,351.3Z"/><path class="cls-7" d="M53.6,310.4C59,298.3,76,290.9,87.4,294c0,0-6.5,29.4,32.7,69,32.5,32.8,67.4,49.4,86.5,57.6l.5.3c-13.8-5.1-45.1,1.1-79.9-5.6C56.4,401.7,46.1,327.5,53.6,310.4Z"/><path class="cls-12" d="M122.4,414.2l-.2-.4-.7-1.2a43.1,43.1,0,0,1-2.1-4.8,54.5,54.5,0,0,1-1.9-8.3,107.6,107.6,0,0,1-1.2-11.5c-.2-3.2-.3-6.6-.5-10.1s-.4-6.9-.8-10.1a37.7,37.7,0,0,0-1.8-8.1,19.4,19.4,0,0,0-1.1-2.4c-.1-.2-.2-.3-.2-.4l-.2-.2a.8.8,0,0,1-.1-.3.8.8,0,0,0,.1.3l.2.2c0,.1.1.2.2.4a11.5,11.5,0,0,1,1,2.4,32.2,32.2,0,0,1,1.6,8c.4,3.1.5,6.6.6,10s.3,6.8.4,10a112.6,112.6,0,0,0,1.2,11.6,46.5,46.5,0,0,0,2,8.5,24.6,24.6,0,0,0,2.4,4.9,8.1,8.1,0,0,0,.8,1.2Z"/><path class="cls-12" d="M92,326.7c-.1.1.2.7.7,2.1a15,15,0,0,1,.5,2.6c.1,1.1.2,2.3.2,3.7a64.1,64.1,0,0,1-.8,10.7c-.5,4.3-1.3,9.3-2,15.3A117,117,0,0,0,89.5,375a67.4,67.4,0,0,0,1.1,14.3,50.4,50.4,0,0,0,1.8,6.2,42.2,42.2,0,0,0,2.2,4.7,12.8,12.8,0,0,0,1,1.7l.9,1.3.7,1a5.9,5.9,0,0,0-.7-1l-.8-1.3-1-1.7a27.5,27.5,0,0,1-2.1-4.8,33.8,33.8,0,0,1-1.7-6.1,65.3,65.3,0,0,1-.8-14.1c.1-4.9.7-9.6,1.2-13.8.8-5.9,1.6-11,2.1-15.3a63.7,63.7,0,0,0,.7-10.8,21.7,21.7,0,0,0-.3-3.8c-.2-1.1-.5-2-.7-2.8A8.8,8.8,0,0,0,92,326.7Z"/><path class="cls-12" d="M86.3,296.1c-.2.1.2.7.1,2.2a35.3,35.3,0,0,1-1.3,6.6c-.8,3-2,6.8-3.5,11.5s-3.1,10.2-4.7,16.8a115.6,115.6,0,0,0-2.8,15.3c-.3,2.7-.5,5.4-.6,8s.1,5.1.3,7.5a53.7,53.7,0,0,0,.9,6.5c.5,2,.9,3.7,1.4,5.1l1.2,3.3.5,1.2-.5-1.2c-.2-.8-.6-1.9-1.1-3.3s-.8-3.2-1.2-5.1-.6-4.2-.8-6.5-.1-4.9,0-7.5a68.5,68.5,0,0,1,.7-7.8,127.8,127.8,0,0,1,3-15.2c1.6-6.6,3.4-12.1,4.8-16.8s2.6-8.4,3.3-11.5a26.8,26.8,0,0,0,1-6.9,5.3,5.3,0,0,0-.4-1.7A.7.7,0,0,0,86.3,296.1Z"/><path class="cls-12" d="M137.7,379.8c-.1,0,.1.3.5,1a25.2,25.2,0,0,1,1.1,3.1c.4,1.4.8,3.2,1.3,5.3s.9,4.7,1.5,7.7.9,4.5,1.5,6.9a51.9,51.9,0,0,0,2.2,7c.5,1.1.9,2.1,1.4,3a15.3,15.3,0,0,0,1.5,2.3,6.1,6.1,0,0,0,1.1,1.4l.3.4h.1a.1.1,0,0,0-.1-.1l-.3-.4-1.1-1.4-1.4-2.3c-.4-.9-.9-1.9-1.3-3a46.3,46.3,0,0,1-2-6.9c-.6-2.3-1.1-4.7-1.5-6.8s-1-5.5-1.4-7.7-.9-3.9-1.4-5.4a8.4,8.4,0,0,0-.7-1.9,8.1,8.1,0,0,0-.6-1.3A5.1,5.1,0,0,0,137.7,379.8Z"/><path class="cls-12" d="M167.2,401.4q-.1.2,0,.6c.1.1.1.3.2.5s.1.5.1.8a17.2,17.2,0,0,1,.2,2.6,30.1,30.1,0,0,1-.3,3.9,21.4,21.4,0,0,0-.1,3.6,6.6,6.6,0,0,0,.7,3.2,5.5,5.5,0,0,0,1.7,1.7.5.5,0,0,1,.4.2h.5l-.2-.2h-.3l-.3-.2a4.6,4.6,0,0,1-1.5-1.8,8,8,0,0,1-.5-3.2c0-1.2.2-2.4.3-3.5a31.5,31.5,0,0,0,.3-4,16.1,16.1,0,0,0-.2-2.6,9.4,9.4,0,0,0-.3-.9l-.3-.5Z"/><path class="cls-12" d="M91.9,325.1c-.1.1.1.5,1.1,1a14.7,14.7,0,0,0,5.6.6,97.5,97.5,0,0,0,11-1.7l16.2-3.3a125.7,125.7,0,0,1,13.9-1.9,47.8,47.8,0,0,1,12.7.3,21.7,21.7,0,0,1,8,2.7,8.7,8.7,0,0,1,1.9,1.3l.7.5-.6-.6-1.8-1.4a22.4,22.4,0,0,0-7.8-3.1,45.6,45.6,0,0,0-12.6-.7,105,105,0,0,0-14,1.7c-6.3,1.1-11.7,2.3-16.2,3.2s-8.1,1.5-10.9,1.8a23.4,23.4,0,0,1-5.6-.1C92.5,325.1,92,324.9,91.9,325.1Z"/><path class="cls-12" d="M106.4,347.7c0,.1.1.1.4.2l.5.2h.8a15.9,15.9,0,0,0,5.2-.2,57.5,57.5,0,0,0,8.7-2l12.3-3.8,5.3-1.4c1.9-.4,3.8-.9,5.8-1.2a56.7,56.7,0,0,1,5.8-.5,26.2,26.2,0,0,1,2.8,0h2.8l2.5.4,1.2.2,1.1.4,1.1.3,1,.3.9.4.8.4,1.4.6,1,.6.8.5-.8-.6-1-.6-1.4-.7-.8-.4-.9-.4-.9-.4-1.1-.3-1.1-.4-1.2-.3-2.6-.5-1.4-.2h-4.3c-2,0-4,.2-6,.4l-5.8,1.1-5.5,1.3-12.3,3.7c-3.4,1-6.2,1.8-8.4,2.2a30.2,30.2,0,0,1-5.1.5h-1.6Z"/><path class="cls-12" d="M122.5,363.6c-.3.3-.2.6.4,1.1a8.6,8.6,0,0,0,4.2,1.1,53.5,53.5,0,0,0,9.4-.3c4.2-.3,9.2-1,14.9-1.5a105,105,0,0,1,12.4-.6c3.9.1,7.3.7,9.5,1.8a6.4,6.4,0,0,1,3.6,4.3,4.4,4.4,0,0,1,.2,1,2.5,2.5,0,0,1,.1.8v.7a3.2,3.2,0,0,1,.1-.7,2.8,2.8,0,0,1,.1-.9c0-.4-.1-.7-.1-1.1a7,7,0,0,0-3-4.9c-2-1.4-5.1-2.3-8.9-2.5a70.5,70.5,0,0,0-12.1.2c-5.6.4-10.7,1-14.7,1.4s-7.3.5-9.6.5C124.4,363.9,123.2,363.1,122.5,363.6Z"/><path class="cls-12" d="M166.7,400.3c-.1.1.1.3.5.5a5.9,5.9,0,0,0,2.1.6l1.7.2h2.1l5.2-.6a36.5,36.5,0,0,1,4.7-.1,32.5,32.5,0,0,1,4.5.7l3.5,1,1,.4h0l-1-.5a20.4,20.4,0,0,0-3.4-1.3,17.1,17.1,0,0,0-4.6-1,26.8,26.8,0,0,0-4.8-.2l-5.3.5a14.3,14.3,0,0,1-3.5.1C167.6,400.4,166.8,400.1,166.7,400.3Z"/><path class="cls-12" d="M87,298.3c0,.1.3.5,1.2,1a15.9,15.9,0,0,0,4.4,1.6,43.5,43.5,0,0,0,8.1.7,109.6,109.6,0,0,0,11.8-.7c6.5-.6,14.4-1.6,20.6-1.5l4.4.2,1.8.2,1.6.3,1.3.3.9.3.8.2-.8-.3-.9-.3-1.3-.4-1.5-.3-1.9-.3-4.3-.5c-6.3-.3-14.3.4-20.8.9l-11.7.6a53.1,53.1,0,0,1-7.9-.6C88.8,299,87.2,298,87,298.3Z"/><path class="cls-12" d="M137.7,380.8c-.2.1-.1.5.4,1a9.1,9.1,0,0,0,3.6,1.2,56.7,56.7,0,0,0,8.1.4l12.5-.4a72.8,72.8,0,0,1,10.5.3,19.9,19.9,0,0,1,8.2,2.3,7.1,7.1,0,0,1,3.3,4l.3,1a1.7,1.7,0,0,0,.1.7v0c0-.3.1-.5.1-.8s-.1-.7-.2-1a7,7,0,0,0-2.8-4.6,17,17,0,0,0-7.7-2.9,69.6,69.6,0,0,0-10.3-.6c-4.8,0-9,.2-12.4.3a63.1,63.1,0,0,1-8.1-.2C139.3,381.2,138.3,380.4,137.7,380.8Z"/><path class="cls-13" d="M87.4,294a25.9,25.9,0,0,0-.4,5.6,54.4,54.4,0,0,0,.3,5.7,69.7,69.7,0,0,0,2.4,11,76.7,76.7,0,0,0,4.2,10.3c.4.9.9,1.7,1.3,2.5l1.3,2.5,2.9,4.8A130.4,130.4,0,0,0,113.2,354a185.1,185.1,0,0,0,16.3,15.6c1.4,1.3,2.9,2.4,4.3,3.6l4.4,3.6,4.5,3.4,2.3,1.7,2.3,1.7c3,2.2,6.1,4.5,9.2,6.5s6.3,4.3,9.5,6.3c12.8,8.2,26,15.8,39.3,23.5a292.8,292.8,0,0,1-41.7-19.5,229.8,229.8,0,0,1-38-26.3l-4.4-3.8-4.2-4.1-2.1-2-2-2.1c-1.3-1.4-2.7-2.8-3.9-4.3l-3.7-4.5-3.6-4.7c-1.1-1.5-2.2-3.2-3.3-4.8l-3-5A78.4,78.4,0,0,1,86.9,317a50.2,50.2,0,0,1-1.2-11.6A33.5,33.5,0,0,1,87.4,294Z"/><path class="cls-14" d="M87.8,291.8s48.4-14.1,71.3,33c5.1,10.4,5.7,28.8,10.6,39.2,24.4,51.2,23.8,40.5,33.4,53.3,0,0-14.1-15.4-25.8-48,0,0-9.9-30.1-11.9-35-6.4-15.7-6.5-27.7-31.2-41.3C134.2,293,98.4,273.7,87.8,291.8Z"/><path class="cls-8" d="M78.8,294S52,304.1,59,343c0,0,19.8,67.1,77,70.8,0,0,54.9,1.5,62.3,4.7,0,0-12.3-1.2-33.5.2,0,0-45,.2-65.1-13.4,0,0-36.6-13.4-46.9-67.1C52.8,338.2,41.5,300.2,78.8,294Z"/><path class="cls-7" d="M277.6,265.6s-14.7-6.7-24.6-1.5l-1.6,4.4s9-6.3,24.9-2.4Z"/><path class="cls-8" d="M251.4,268.5s8.8-6.6,24.9-2.4l.6-.3s-16.9-5.2-25.2,1.8Z"/><path class="cls-9" d="M253,264.1s7.8-3.9,19.2-.4c0,0-10.1-2.5-19.2.6Z"/><path class="cls-1" d="M375.8,327.5h0Z"/><path class="cls-10" d="M376.8,327.4h.1c.1,0,.3.1.2.2l-.5.2h-.2c-.1-.1-.3-.1-.2-.2a.7.7,0,0,1,.6-.2h.1l-.3.4h-.2c-.1,0-.3-.1-.2-.2A.7.7,0,0,1,376.8,327.4Z"/><path class="cls-11" d="M298.5,298.1c-32.8-26.2-24.3-33.3-24.3-33.3-2.1-5,6.2-14.2,30.5-9.2,18.6,3.7,22.3,12.9,38.3,35.7,18,25.7,31.2,32.2,33.4,32.6C362.4,322.2,323,317.6,298.5,298.1Z"/><path class="cls-7" d="M255.4,282.1c1.1-9,10.7-17,18.8-17.3,0,0,1.4,20.4,34.6,38.5,27.4,15,53.3,19,67.3,20.6h.3c-9.9-.6-29,9.5-52.9,11.9C274.9,340.7,253.8,294.6,255.4,282.1Z"/><path class="cls-12" d="M320.2,336.1l-.2-.3-.7-.6a14.1,14.1,0,0,1-2.3-2.7,35.1,35.1,0,0,1-2.9-5c-1-2-1.9-4.5-3-7.3s-1.5-4.2-2.2-6.4-1.7-4.4-2.5-6.4a24.4,24.4,0,0,0-2.8-4.9,5.8,5.8,0,0,0-1.2-1.4l-.2-.2h0l.2.2a9.4,9.4,0,0,1,1.2,1.4,22,22,0,0,1,2.6,4.9c.8,2,1.6,4.1,2.3,6.3s1.5,4.4,2.2,6.4a70.4,70.4,0,0,0,3,7.4,28.6,28.6,0,0,0,3,5.1,11.2,11.2,0,0,0,2.5,2.7l.7.6Z"/><path class="cls-12" d="M283.5,285.2c-.1,0,.3.4.8,1.2a7.6,7.6,0,0,1,.9,1.6,13.5,13.5,0,0,1,.8,2.4,53.2,53.2,0,0,1,1.6,7c.5,2.9.9,6.3,1.6,10.4s1.1,6,2,9.2a43,43,0,0,0,3.5,9.1,18.8,18.8,0,0,0,2.4,3.6,22.8,22.8,0,0,0,2.3,2.7l1,.9.8.7.7.5-.7-.6-.8-.6-.9-.9a16.1,16.1,0,0,1-2.3-2.7,26,26,0,0,1-2.3-3.7,41.8,41.8,0,0,1-3.3-9,87.4,87.4,0,0,1-1.8-9.2c-.7-4-1.1-7.4-1.6-10.3a39.1,39.1,0,0,0-1.7-7.1,23,23,0,0,0-.9-2.5l-1-1.6Z"/><path class="cls-12" d="M273.8,266.4a7.6,7.6,0,0,1,.5,1.4,21.8,21.8,0,0,1,.5,4.6c0,2.1,0,4.8-.1,8.1s0,7.2.2,11.8a80.5,80.5,0,0,0,1.2,10.5,45.4,45.4,0,0,0,1.2,5.3,33.8,33.8,0,0,0,1.6,4.8,31.4,31.4,0,0,0,1.9,4.1,33.8,33.8,0,0,0,1.8,3,21.1,21.1,0,0,0,1.5,1.9l.5.7-.5-.7c-.4-.4-.8-1.1-1.4-1.9l-1.8-3.1a31.7,31.7,0,0,1-1.7-4.1,33.7,33.7,0,0,1-1.5-4.8c-.4-1.7-.8-3.5-1.1-5.3-.5-3.5-.8-7.1-1-10.4s-.1-8.5-.1-11.8,0-6-.1-8.1a16.1,16.1,0,0,0-.7-4.7,8.9,8.9,0,0,0-.5-1Z"/><path class="cls-12" d="M323.4,310.8l.5.6a9.6,9.6,0,0,1,1.4,1.7l1.8,3.2,2.5,4.7c.7,1.3,1.4,2.8,2.3,4.2a32.7,32.7,0,0,0,2.8,4.1,12.9,12.9,0,0,0,1.5,1.7l1.4,1.3,1,.6.3.2h0l-.3-.2a3.7,3.7,0,0,1-1-.7,7.1,7.1,0,0,1-1.3-1.2l-1.5-1.7a32.1,32.1,0,0,1-2.6-4.1c-.9-1.4-1.6-2.8-2.3-4.1l-2.4-4.7-1.9-3.3-.9-1.1-.6-.7A2.1,2.1,0,0,0,323.4,310.8Z"/><path class="cls-12" d="M346.8,319.1c-.1.1,0,.2.1.3a.8.8,0,0,0,.2.4l.3.5a9.1,9.1,0,0,1,.6,1.6c.2.7.3,1.6.5,2.6l.6,2.3a7.5,7.5,0,0,0,1.1,2,2.9,2.9,0,0,0,1.5.7h0a2.6,2.6,0,0,1-1.3-.9,7.5,7.5,0,0,1-1-2,15.7,15.7,0,0,1-.4-2.3c-.2-1-.4-1.9-.6-2.6a7.3,7.3,0,0,0-.7-1.7l-.3-.5-.3-.3Z"/><path class="cls-12" d="M283.1,284.1c-.1.1.2.4.9.5a9.7,9.7,0,0,0,3.8-.7,62.2,62.2,0,0,0,6.7-3.2l9.9-5.3c2.7-1.4,5.8-2.8,8.7-4a39.6,39.6,0,0,1,8.3-2.2,14.5,14.5,0,0,1,5.7.2l1.5.4.5.2-.5-.2-1.4-.6a15.3,15.3,0,0,0-5.7-.5,33.1,33.1,0,0,0-8.3,2c-3,1.1-6,2.5-8.7,3.8l-9.9,5.3c-2.8,1.4-5,2.5-6.7,3.2a13.7,13.7,0,0,1-3.7,1C283.5,284.1,283.1,284,283.1,284.1Z"/><path class="cls-12" d="M296.9,296c0,.1.1.1.3.1h.9a11.7,11.7,0,0,0,3.4-1.1,54.1,54.1,0,0,0,5.2-3l7.2-4.8,3.2-2,3.5-1.9,3.7-1.5,1.8-.5.9-.2.9-.2,1.8-.2H335l.8.2h0l-.8-.2-1-.2h-4.4l-1.7.2h-1l-.9.2-1.9.5a46.3,46.3,0,0,0-7.4,3.3l-3.3,1.9-7.2,4.8a54.2,54.2,0,0,1-5.1,3,19.3,19.3,0,0,1-3.2,1.3l-.4.2h-.6Z"/><path class="cls-12" d="M310.4,303.2c-.1.2,0,.5.5.7a7.2,7.2,0,0,0,2.9-.1,34.1,34.1,0,0,0,6.1-2.1l9.4-3.9a73.5,73.5,0,0,1,7.9-2.7,15.8,15.8,0,0,1,6.5-.7,4.4,4.4,0,0,1,3.2,2.1l.3.6a1.7,1.7,0,0,1,.2.5l.2.5a1.2,1.2,0,0,1-.1-.5c-.1-.2-.1-.4-.2-.6a1.9,1.9,0,0,0-.2-.7,4.5,4.5,0,0,0-2.9-2.6,12.2,12.2,0,0,0-6.3.1,49.6,49.6,0,0,0-7.8,2.4l-9.3,3.8a48.1,48.1,0,0,1-6.1,2.2C311.7,303.1,310.8,302.8,310.4,303.2Z"/><path class="cls-12" d="M346.2,318.5c0,.1.1.1.4.2a4.2,4.2,0,0,0,1.6,0l1.1-.2,1.3-.5,3.3-1.4a21.3,21.3,0,0,1,3-.9,16.7,16.7,0,0,1,3.1-.5h2.4l-2.4-.2-3.3.3-3.1.8-3.3,1.4-2.3.7C346.8,318.3,346.2,318.3,346.2,318.5Z"/><path class="cls-12" d="M274.7,267.7c0,.1.3.3,1,.4a8.9,8.9,0,0,0,3.1.2,27.2,27.2,0,0,0,5.4-1.1c2.2-.6,4.7-1.6,7.6-2.7s9-3.8,13.1-5l2.9-.7,1.2-.2,1.1-.2h-2.4l-2.9.6a110.2,110.2,0,0,0-13.3,4.6c-2.9,1.1-5.4,2-7.5,2.6a28.5,28.5,0,0,1-5.2,1.2C276,267.8,274.8,267.4,274.7,267.7Z"/><path class="cls-12" d="M323.6,311.4c-.1.2.1.4.5.6a9.3,9.3,0,0,0,2.6.1,39.3,39.3,0,0,0,5.3-1.3l8-2.7c2.2-.7,4.7-1.4,6.9-1.9a15.7,15.7,0,0,1,5.7-.1,5.4,5.4,0,0,1,3,2l.4.6c0,.2.1.3.1.4s.2.4.2.4a1.6,1.6,0,0,0-.1-.4c-.1-.1-.1-.3-.2-.5a1.4,1.4,0,0,0-.2-.6,5.4,5.4,0,0,0-2.8-2.5,12,12,0,0,0-5.5-.3,41.8,41.8,0,0,0-6.8,1.6c-3.1.9-5.8,1.9-8,2.6a43,43,0,0,1-5.3,1.4C324.8,311.4,323.9,311,323.6,311.4Z"/><path class="cls-13" d="M274.2,264.8a23.4,23.4,0,0,0,.9,3.8,36.5,36.5,0,0,0,1.4,3.5,38.6,38.6,0,0,0,3.9,6.5,62.5,62.5,0,0,0,10.3,10.9c7.7,6.4,16.6,11.2,25.8,15.4a258.1,258.1,0,0,0,28.7,10.4c9.8,3,19.8,5.6,29.9,8.4a171.7,171.7,0,0,1-31.1-3.8,144.7,144.7,0,0,1-29.9-9.6c-9.6-4.3-18.9-9.8-26.6-17.4a50.5,50.5,0,0,1-9.6-12.8,35.5,35.5,0,0,1-2.9-7.4A21.3,21.3,0,0,1,274.2,264.8Z"/><path class="cls-14" d="M273.9,263.3s28.7-18.5,52.8,7.6c5.2,5.8,9.2,17.6,14.5,23.4,25.7,28.5,23.2,21.7,31.9,28.2,0,0-12.1-7.3-26-26.2,0,0-12.3-17.6-14.5-20.4-7.2-9-9.6-16.7-28.3-20.7C304.3,255.2,277.3,249.5,273.9,263.3Z"/><path class="cls-8" d="M268.6,266.5s-15.5,11.8-3.4,35.7c0,0,25.9,39.7,63.7,31,0,0,35.9-9.7,41.3-9a155.5,155.5,0,0,0-21.7,6.6s-29.1,8.8-44.8,3.9c0,0-26.3-1.6-43.4-34.5C260.3,300.2,245.5,277.8,268.6,266.5Z"/><path class="cls-7" d="M203.7,171.1s-10.2-7.5-18.7-5.1l-1.9,3.2s7.9-3.5,19.5,2.1Z"/><path class="cls-8" d="M183.1,169.2s7.8-3.7,19.5,2.1h.5s-12.2-6.7-19.6-2.6Z"/><path class="cls-9" d="M185,166s6.6-1.7,14.8,2.8c0,0-7.4-3.6-14.8-2.6Z"/><path class="cls-1" d="M269.5,234.2h0Z"/><path class="cls-10" d="M270.2,234.3h.1c.1.1.3.1.1.2h-.5c-.1,0-.2-.1-.1-.2h.5l-.3.2h-.1c-.1,0-.2-.1-.1-.2Z"/><path class="cls-11" d="M214.7,199.4c-21.1-25.3-13.5-29.4-13.5-29.4-.9-4.3,7-10,24.9-2.4,13.7,5.9,15.1,13.5,23.8,33.6,9.8,22.6,18.9,29.7,20.6,30.4C260,228.1,230.4,218.3,214.7,199.4Z"/><path class="cls-7" d="M184,180.3c2.3-6.7,11-11.4,17.2-10.3,0,0-2.1,15.8,20.5,35,18.7,15.9,38,23,48.6,26.5h.2c-7.6-2-23.8,2.7-42.6.8C189.7,228.5,180.8,189.6,184,180.3Z"/><path class="cls-12" d="M225.3,232v-.2l-.4-.5a17.2,17.2,0,0,1-1.4-2.5,36.4,36.4,0,0,1-1.4-4.3c-.4-1.7-.8-3.8-1.1-6.1s-.5-3.5-.8-5.3a45.1,45.1,0,0,0-.9-5.3,19,19,0,0,0-1.3-4.2,4.2,4.2,0,0,0-.7-1.2.3.3,0,0,1-.1-.2V202h0v.2a.3.3,0,0,0,.1.2,9.7,9.7,0,0,1,.7,1.2,17.7,17.7,0,0,1,1.2,4.2c.3,1.6.5,3.4.8,5.2l.6,5.3a60,60,0,0,0,1.2,6.1,18.8,18.8,0,0,0,1.5,4.4,10.1,10.1,0,0,0,1.5,2.5l.4.6Z"/><path class="cls-12" d="M205.1,187.1l.5,1.1a10.4,10.4,0,0,1,.4,1.3c.1.6.2,1.2.3,2s.1,3.4.1,5.7-.3,5-.4,8.2-.1,4.8,0,7.4a35.6,35.6,0,0,0,1.3,7.5,19.5,19.5,0,0,0,1.2,3.2,22.1,22.1,0,0,0,1.4,2.4c.2.4.5.6.6.9l.6.6.4.5-.4-.5-.5-.6-.6-.9a17,17,0,0,1-1.4-2.4,23.9,23.9,0,0,1-1.1-3.2,35.7,35.7,0,0,1-1.2-7.4c-.1-2.6,0-5.1.1-7.4s.3-5.9.4-8.2a50.1,50.1,0,0,0-.1-5.7c-.1-.8-.3-1.5-.4-2.1s-.3-1-.5-1.4A5.1,5.1,0,0,0,205.1,187.1Z"/><path class="cls-12" d="M200.7,171.2c-.1,0,.1.3.1,1.1a20.3,20.3,0,0,1-.4,3.6c-.3,1.6-.7,3.7-1.3,6.2s-1.1,5.5-1.7,9.1a70.8,70.8,0,0,0-.8,8.3c0,1.4,0,2.8.1,4.2s.3,2.8.5,4a28.4,28.4,0,0,0,.8,3.4,26.4,26.4,0,0,0,1,2.7,11.6,11.6,0,0,0,.8,1.6l.3.6-.3-.6a14.4,14.4,0,0,1-.8-1.7c-.2-.7-.6-1.6-.8-2.6a28.4,28.4,0,0,1-.8-3.4c-.1-1.3-.3-2.6-.3-4a29.4,29.4,0,0,1,0-4.2,70.9,70.9,0,0,1,.9-8.2c.5-3.5,1.2-6.5,1.7-9.1a59.2,59.2,0,0,0,1.2-6.2,9.9,9.9,0,0,0,.2-3.7,2,2,0,0,0-.2-.9C200.8,171.2,200.7,171.1,200.7,171.2Z"/><path class="cls-12" d="M231.8,213.1l.3.5.8,1.6c.2.7.6,1.6.9,2.8s.7,2.4,1.1,4,.7,2.3,1.2,3.5a23.9,23.9,0,0,0,1.5,3.7l.9,1.5.8,1.2.7.6.2.2h0l-.2-.2-.7-.7-.8-1.1a10.9,10.9,0,0,1-.8-1.5,22.4,22.4,0,0,1-1.4-3.6c-.4-1.2-.8-2.5-1.1-3.6s-.8-2.8-1.1-4l-1-2.8a7.3,7.3,0,0,0-.5-.9,4.3,4.3,0,0,0-.4-.7A1.1,1.1,0,0,0,231.8,213.1Z"/><path class="cls-12" d="M248.5,223.2q-.1,0,0,.3a.4.4,0,0,1,.1.3c0,.1.1.2.1.4a4.4,4.4,0,0,1,.2,1.3,13.4,13.4,0,0,1,.1,2.1,12.1,12.1,0,0,0,.1,1.9,3.4,3.4,0,0,0,.5,1.7,2.4,2.4,0,0,0,1,.8h0a2.2,2.2,0,0,1-.9-.8,8.5,8.5,0,0,1-.4-1.7v-1.9a14.6,14.6,0,0,0,0-2.1,2.6,2.6,0,0,0-.3-1.4c0-.2-.1-.3-.1-.4l-.2-.3Z"/><path class="cls-12" d="M205,186.2c-.1.1.1.3.6.5a6.9,6.9,0,0,0,3,.1,38.5,38.5,0,0,0,5.7-1.4l8.5-2.5a55.5,55.5,0,0,1,7.3-1.7,26.4,26.4,0,0,1,6.7-.4,13.6,13.6,0,0,1,4.4,1l1.1.6.3.3-.3-.3-1-.7a14.7,14.7,0,0,0-4.3-1.3,31,31,0,0,0-6.7.2c-2.5.4-5,1-7.3,1.6l-8.5,2.5a38.5,38.5,0,0,1-5.7,1.4,7.9,7.9,0,0,1-2.9.2C205.3,186.2,205.1,186.1,205,186.2Z"/><path class="cls-12" d="M213.7,197.6h.9a7.6,7.6,0,0,0,2.8-.3l4.5-1.5,6.3-2.6,2.8-1,3-.8a15.5,15.5,0,0,1,3.1-.6h6.1l.6.2h.5l.4.2.8.3.5.2.5.2-.5-.2-.5-.3-.8-.3-.4-.2h-.5l-.5-.2h-.6l-.6-.2H237l-3.2.5-3,.9-2.8.9-6.4,2.6a32.9,32.9,0,0,1-4.4,1.5,11.4,11.4,0,0,1-2.6.5h-.9Z"/><path class="cls-12" d="M223,205.2c-.1.2-.1.4.3.6a4.4,4.4,0,0,0,2.2.4,28.6,28.6,0,0,0,5-.6l7.9-1.5a48.4,48.4,0,0,1,6.5-.9,11.1,11.1,0,0,1,5.1.5,3.3,3.3,0,0,1,2.1,2.1,1.7,1.7,0,0,1,.2.5v-.1a4.3,4.3,0,0,1-.1-.5,3.9,3.9,0,0,0-1.8-2.5,10.5,10.5,0,0,0-4.8-.9,35.8,35.8,0,0,0-6.4.7l-7.8,1.4a48.4,48.4,0,0,1-5,.7C224,205.3,223.3,204.9,223,205.2Z"/><path class="cls-12" d="M248.1,222.6q0,.2.3.3l1.2.2h.9l1.1-.2,2.7-.5,2.5-.3,2.4.2,1.9.4h.6l-.6-.2-1.8-.6-2.5-.3-2.6.2-2.8.5-1.8.2Z"/><path class="cls-12" d="M201.2,172.3c-.1,0,.1.2.6.4a7.7,7.7,0,0,0,2.4.7h4.3l6.3-.9c3.4-.6,7.5-1.5,10.9-1.8h4.8l-.7-.2h-4.2a83.4,83.4,0,0,0-10.9,1.4l-6.2.9a29.1,29.1,0,0,1-4.2,0C202.1,172.6,201.2,172.1,201.2,172.3Z"/><path class="cls-12" d="M231.9,213.6c-.1.1-.1.3.2.5a5.6,5.6,0,0,0,2,.5,23.1,23.1,0,0,0,4.3-.2c1.8-.1,4.1-.5,6.6-.8a52.5,52.5,0,0,1,5.6-.3,10.8,10.8,0,0,1,4.4.8,4.7,4.7,0,0,1,2,2c.1.2.1.4.2.5v.4a.8.8,0,0,1,.1.3v-.8c-.1-.1-.1-.3-.2-.5a4.3,4.3,0,0,0-1.7-2.3,9.5,9.5,0,0,0-4.2-1.1,50.9,50.9,0,0,0-5.5.1l-6.6.8a22.8,22.8,0,0,1-4.3.2C232.7,213.7,232.1,213.4,231.9,213.6Z"/><path class="cls-13" d="M201.2,170a15.1,15.1,0,0,0,.2,3,13.6,13.6,0,0,0,.6,2.9,32.9,32.9,0,0,0,2.1,5.5,48.1,48.1,0,0,0,6.3,9.8,89.9,89.9,0,0,0,17.4,15.7,231.3,231.3,0,0,0,20.3,12.7c7,3.9,14.2,7.6,21.4,11.6a121,121,0,0,1-23.5-7.4,109.7,109.7,0,0,1-21.7-12c-6.7-4.9-13-10.7-17.7-17.8a42,42,0,0,1-5.3-11.6,25.9,25.9,0,0,1-.9-6.3A15.6,15.6,0,0,1,201.2,170Z"/><path class="cls-14" d="M201.2,168.8s25-9.7,39.4,14.1c3.2,5.3,4.3,15,7.5,20.3,15.3,26,14.4,20.4,20.1,26.7,0,0-8.2-7.5-15.9-24.2,0,0-6.7-15.5-7.9-18-4.1-8-4.8-14.4-18.5-20.4C225.9,167.3,206,158.7,201.2,168.8Z"/><path class="cls-8" d="M196.6,170.4s-13.8,6.6-8.2,26.9c0,0,13.6,34.6,44.1,33.9,0,0,29.2-1.8,33.2-.4a118.9,118.9,0,0,0-17.7,1.6s-23.9,2.3-35.1-4c0,0-20-5.4-28-33.4C184.9,195,177.1,175.4,196.6,170.4Z"/></g></g></g></g></g></svg>