<svg xmlns="http://www.w3.org/2000/svg" xmlns:xlink="http://www.w3.org/1999/xlink" viewBox="0 0 443.8 451.5"><defs><style>.cls-1{fill:none;}.cls-2{isolation:isolate;}.cls-3{opacity:0.5;}.cls-4{fill:url(#linear-gradient);}.cls-5{fill:#31d0e5;stroke-width:6px;stroke:url(#linear-gradient-2);}.cls-11,.cls-5,.cls-7{stroke-miterlimit:10;}.cls-6{clip-path:url(#clip-path);}.cls-7{fill:#41a022;stroke:#38841c;stroke-width:0.5px;}.cls-8{fill:#204910;opacity:0.32;}.cls-9{fill:#8fc12f;}.cls-14,.cls-9{opacity:0.51;}.cls-10{fill:#353535;}.cls-11{fill:#48bc28;stroke:#45a525;}.cls-12,.cls-13{fill:#b0e573;}.cls-12{mix-blend-mode:screen;opacity:0.69;}.cls-14{fill:#b6f261;}</style><linearGradient id="linear-gradient" x1="43.17" y1="103.28" x2="392.43" y2="342.6" gradientUnits="userSpaceOnUse"><stop offset="0" stop-color="#9b81cf"/><stop offset="1" stop-color="#3b139b"/></linearGradient><linearGradient id="linear-gradient-2" x1="16.1" y1="225.74" x2="427.68" y2="225.74" gradientUnits="userSpaceOnUse"><stop offset="0" stop-color="#4c1da9"/><stop offset="1" stop-color="#997ece"/></linearGradient><clipPath id="clip-path"><circle class="cls-1" cx="222.6" cy="226.4" r="199.8"/></clipPath></defs><g class="cls-2"><g id="SB39_Interactive_Icon_13_F1"><path class="cls-3" d="M435.1,237a208.3,208.3,0,0,0-25.4-100A211.6,211.6,0,0,0,221.9,23C105,23,10.2,117.8,10.2,234.7S105,446.3,221.9,446.3c3,0,5.9,0,8.9-.2C344.1,443.6,435.1,350.9,435.1,237Z"/><circle class="cls-4" cx="221.9" cy="225.7" r="211.7"/><circle class="cls-5" cx="221.9" cy="225.7" r="202.8"/><g id="_001" data-name="001"><g class="cls-6"><g id="_012" data-name="012"><path class="cls-7" d="M99,32.8S83.3,15.1,66.9,16.1L62,21s15.9-3.1,35.1,11.8Z"/><path class="cls-8" d="M62,21s15.8-3.5,35.1,11.8h.8S78.3,15.6,63,20.1Z"/><path class="cls-9" d="M66.9,16.1s12.8-.5,26,11c0,0-12.1-9.5-26.2-10.8Z"/><path class="cls-1" d="M194.1,175.6h-.2l-.4-.3Z"/><path class="cls-10" d="M195.5,176h.1c.2,0,.4.2.2.3a1.1,1.1,0,0,1-.8-.1c-.1,0-.2,0-.2-.1s-.4-.2-.1-.3a1.2,1.2,0,0,1,.8.1h.1l-.6.2h-.2c-.1,0-.4-.2-.1-.3A1.2,1.2,0,0,1,195.5,176Z"/><path class="cls-11" d="M107.7,89.3c-28.4-55-12.8-59.5-12.8-59.5.2-8.1,16.9-15.4,46.7,5.9C164.4,52,163.8,66.6,171.7,107c8.8,45.4,22.6,62.2,25.4,64.1C179.3,160.4,128.9,130.4,107.7,89.3Z"/><path class="cls-7" d="M59.2,41.8c6.9-11.4,24.7-16.5,35.7-12,0,0-10.3,28.3,23.4,72.7,28,36.7,60.5,57.7,78.3,68.4l.5.3c-13.1-6.9-44.9-4.8-78.5-15.9C50.1,132.6,49.6,57.7,59.2,41.8Z"/><path class="cls-12" d="M113.9,153.5c.1,0,0-.1-.1-.4a8.7,8.7,0,0,1-.5-1.2,40.3,40.3,0,0,1-1.5-5,61.5,61.5,0,0,1-.8-8.5c-.1-3.4,0-7.2.3-11.6s.6-6.6.8-10.1.5-6.9.5-10.1a32.9,32.9,0,0,0-.7-8.2,10.1,10.1,0,0,0-.8-2.6c0-.2-.1-.3-.1-.4l-.2-.3v0c0,.1.1.2.1.3l.2.4.8,2.5a40.5,40.5,0,0,1,.5,8.2c-.1,3.1-.4,6.5-.7,9.9s-.7,6.9-.9,10-.5,8.3-.4,11.7a41.7,41.7,0,0,0,1,8.7A27.3,27.3,0,0,0,113,152l.7,1.2Z"/><path class="cls-12" d="M95.2,62.9a8.7,8.7,0,0,0,.4,2.1,21,21,0,0,1,.1,2.7,24.9,24.9,0,0,1-.2,3.7,76.6,76.6,0,0,1-2.2,10.5c-1,4.2-2.5,9-4,14.9a120,120,0,0,0-2.9,13.6,63.2,63.2,0,0,0-.7,14.3,39.5,39.5,0,0,0,.9,6.4,37,37,0,0,0,1.6,5l.8,1.8.7,1.4.6,1.1-.6-1.1-.7-1.4a17.1,17.1,0,0,1-.7-1.8,37.8,37.8,0,0,1-1.5-5,40.1,40.1,0,0,1-.8-6.3,61.5,61.5,0,0,1,.9-14.1c.8-4.8,2-9.4,3.1-13.5,1.5-5.8,3-10.7,4.1-14.9a72.5,72.5,0,0,0,2.1-10.6,26.3,26.3,0,0,0,.1-3.9A20,20,0,0,0,96,65,7.8,7.8,0,0,0,95.2,62.9Z"/><path class="cls-12" d="M93.5,31.8c-.2,0,.1.7-.2,2.2a40.6,40.6,0,0,1-2.2,6.4c-1.2,2.8-2.8,6.4-4.9,10.9s-4.4,9.7-6.9,16a137.4,137.4,0,0,0-4.7,14.9A72,72,0,0,0,73,90a67.5,67.5,0,0,0-.7,7.5,47.4,47.4,0,0,0,.1,6.6c.1,2,.4,3.8.6,5.2s.6,2.6.8,3.4l.4,1.2-.3-1.2a27.9,27.9,0,0,1-.7-3.4,36.7,36.7,0,0,1-.5-5.2q-.2-3,0-6.6c.2-2.3.5-4.8.9-7.4s1.1-5.1,1.8-7.7a113.5,113.5,0,0,1,4.9-14.6c2.5-6.3,4.9-11.6,6.9-16s3.7-8.1,4.8-11a27.1,27.1,0,0,0,1.9-6.7,8.7,8.7,0,0,0-.1-1.8Z"/><path class="cls-12" d="M133.6,121.4c-.1.1.1.4.3,1.1a23.4,23.4,0,0,1,.7,3.2,36.9,36.9,0,0,1,.6,5.5c.2,2.2.3,4.7.5,7.8s.3,4.6.6,7a55.5,55.5,0,0,0,1.3,7.3c.3,1.1.7,2.2,1,3.1l1.1,2.5a7.6,7.6,0,0,0,1,1.5c.1.2.2.3.2.4h0c0-.1-.1-.2-.2-.4a8.3,8.3,0,0,1-.9-1.5,20.5,20.5,0,0,1-1.1-2.5c-.3-.9-.6-2-.9-3.1a52.7,52.7,0,0,1-1.1-7.1c-.3-2.4-.4-4.8-.5-7s-.3-5.6-.5-7.8a54.2,54.2,0,0,0-.7-5.5,10.1,10.1,0,0,0-.4-2,10.9,10.9,0,0,0-.5-1.4A6.1,6.1,0,0,0,133.6,121.4Z"/><path class="cls-12" d="M160,146.7c-.1.1-.1.2,0,.5a1.3,1.3,0,0,0,.1.6v.9a11.4,11.4,0,0,1-.1,2.5c-.2,1.1-.5,2.4-.8,3.9a19.7,19.7,0,0,0-.6,3.5,6.6,6.6,0,0,0,.3,3.2,3.4,3.4,0,0,0,1.5,1.9l.3.3h.3l.2.2-.2-.2-.3-.2-.3-.2a4.3,4.3,0,0,1-1.2-2,6.8,6.8,0,0,1-.1-3.2c.2-1.2.5-2.4.7-3.4s.7-2.9.9-4a7.9,7.9,0,0,0,.1-2.6c-.1-.4-.1-.6-.2-.9s-.1-.4-.2-.5Z"/><path class="cls-12" d="M95.3,61.2c-.2.1,0,.6.9,1.2a15,15,0,0,0,5.5,1.3,86.7,86.7,0,0,0,11.1-.2l16.5-1.2a132.3,132.3,0,0,1,14.1-.1,49.1,49.1,0,0,1,12.5,1.9,25.5,25.5,0,0,1,7.6,3.7,14.2,14.2,0,0,1,1.7,1.6l.6.6-.5-.7-1.6-1.6a22.7,22.7,0,0,0-7.3-4.1A48.1,48.1,0,0,0,144,61.3a110.8,110.8,0,0,0-14.1-.1l-16.5,1a92.3,92.3,0,0,1-11,.4,17.4,17.4,0,0,1-5.5-.9C95.8,61.4,95.4,61.1,95.3,61.2Z"/><path class="cls-12" d="M106.7,85.6l.4.2.5.2.7.3a21.8,21.8,0,0,0,5.3.5,54.4,54.4,0,0,0,8.8-.9l12.7-2.2,5.5-.7,5.8-.4a55.2,55.2,0,0,1,5.8.2l2.9.4,1.3.2,1.3.3,2.5.8,1.2.4,1.1.4,1,.5.9.5.8.4.8.5,1.3.8.9.7.7.6-.7-.6-.9-.7-1.2-.9-.8-.5-.8-.5-.9-.5-1-.5-1.1-.5-1.2-.5-2.5-.8-1.3-.4-1.4-.3-2.9-.4a38.1,38.1,0,0,0-5.9-.4l-6,.2-5.5.7-12.7,2a73.4,73.4,0,0,1-8.7,1.1,23.3,23.3,0,0,1-5-.2h-1.7Z"/><path class="cls-12" d="M120.6,103.5c-.3.1-.2.5.3,1.1a9.8,9.8,0,0,0,4,1.6,49.4,49.4,0,0,0,9.4.9l15,.4c4,.2,8.4.4,12.3,1a23.5,23.5,0,0,1,9.2,3.1,6.5,6.5,0,0,1,3,4.7,3.8,3.8,0,0,1,.1,1,2.8,2.8,0,0,1-.1.9v.7a4.5,4.5,0,0,1,.1-.8,2,2,0,0,0,.2-.9,3.7,3.7,0,0,0,.1-1.1,6.5,6.5,0,0,0-2.3-5.2,18.2,18.2,0,0,0-8.5-3.6,77.2,77.2,0,0,0-12-1.4c-5.7-.3-10.7-.4-14.8-.5a84.8,84.8,0,0,1-9.6-.8C122.4,104,121.3,103,120.6,103.5Z"/><path class="cls-12" d="M159.6,145.5c0,.1.1.3.5.6a7.2,7.2,0,0,0,2.1.9l1.6.4h2.1l5.2.2a24,24,0,0,1,4.6.5,29.6,29.6,0,0,1,4.5,1.2l3.3,1.5.9.5.3.2-.3-.2-.9-.6a19.7,19.7,0,0,0-3.1-1.8,27.5,27.5,0,0,0-4.6-1.6,26.7,26.7,0,0,0-4.7-.7,52.5,52.5,0,0,0-5.3-.2l-3.5-.4C160.5,145.7,159.8,145.3,159.6,145.5Z"/><path class="cls-12" d="M93.9,34c-.1.2.2.5,1,1.2a16,16,0,0,0,4.2,2.1,37.3,37.3,0,0,0,7.9,1.8c3.3.4,7.2.7,11.8.9,6.5.2,14.5.3,20.7,1.2l4.3.7,1.8.5,1.5.4,1.2.5.9.4.8.3-.8-.4-.8-.4-1.2-.5-1.5-.6-1.8-.5-4.3-1c-6.2-1.2-14.2-1.6-20.7-1.9q-6.7-.3-11.7-.9a44.3,44.3,0,0,1-7.7-1.6C95.6,35,94.2,33.7,93.9,34Z"/><path class="cls-12" d="M133.5,122.4c-.2.2-.2.5.3,1a6.5,6.5,0,0,0,3.4,1.7,42.8,42.8,0,0,0,7.9,1.5l12.5,1.2a85.1,85.1,0,0,1,10.3,1.7,18.9,18.9,0,0,1,7.8,3.3,7.3,7.3,0,0,1,2.9,4.5c0,.3.1.6.1.9v1.4a3.2,3.2,0,0,1,.1-.7,2.5,2.5,0,0,1,.1-.8v-1a7.6,7.6,0,0,0-2.2-4.9,17.3,17.3,0,0,0-7.3-3.8,56.4,56.4,0,0,0-10.1-2l-12.4-1.3c-3.4-.4-6.1-.8-8-1.2C135,123,134.1,122.1,133.5,122.4Z"/><path class="cls-13" d="M94.9,29.8a26.6,26.6,0,0,0-1.2,5.6,35.2,35.2,0,0,0-.4,5.6,59.8,59.8,0,0,0,1,11.2A77.8,77.8,0,0,0,97.1,63c.2.9.6,1.8.9,2.7l1,2.6,2.3,5.1a125.4,125.4,0,0,0,11.4,19.3,181.1,181.1,0,0,0,14.1,17.6c1.2,1.4,2.5,2.7,3.8,4.1s2.5,2.8,3.9,4.1l4,4,2,2,2.1,1.9c2.7,2.6,5.5,5.3,8.3,7.7s5.7,5.1,8.6,7.5c11.6,9.8,23.7,19.1,35.9,28.4a293,293,0,0,1-38.8-24.8,233.7,233.7,0,0,1-34.3-30.9l-3.8-4.4c-1.3-1.5-2.4-3.1-3.6-4.6l-1.8-2.3-1.8-2.3c-1.1-1.6-2.3-3.2-3.3-4.8L104.9,91,102,85.9c-1-1.7-1.8-3.5-2.7-5.2L97,75.3a77.1,77.1,0,0,1-5.6-22.7,57.2,57.2,0,0,1,.2-11.7A35.6,35.6,0,0,1,94.9,29.8Z"/><path class="cls-14" d="M95.5,27.7s49.8-7.7,66.4,42c3.7,10.9,1.9,29.3,5.5,40.2,17.5,54,18.3,43.2,26.2,57.2,0,0-12.1-17.1-19.4-51,0,0-5.9-31-7.3-36.1-4.2-16.5-2.8-28.4-25.6-45.1C141.3,34.9,108.4,11.1,95.5,27.7Z"/><path class="cls-8" d="M86.3,28.7s-27.9,6.6-26,46.1c0,0,10.9,69,67.2,80.1,0,0,54.2,8.6,61.1,12.8,0,0-12-2.8-33.2-4.2,0,0-44.7-5.6-62.8-21.7,0,0-34.5-18-37.8-72.6C54.8,69.2,48.5,30,86.3,28.7Z"/><path class="cls-7" d="M257.6,468.6s-5.7-15-16.3-18.3l-4.2,2s10.7,1.8,19.3,15.8Z"/><path class="cls-9" d="M241.3,450.3s8.2,2.8,13.9,13.2c0,0-5.4-8.9-14.1-13.1Z"/><path class="cls-7" d="M211.2,423.4s4.5-11.8-.1-19.3l-3.5-1.1s5.4,6.7,3.1,19.4Z"/><path class="cls-8" d="M207.6,403s5.6,6.5,3.1,19.4l.2.4s3.3-13.5-2.6-19.6Z"/><path class="cls-9" d="M211.1,404.1s3.4,5.9,1.3,15c0,0,1.5-8.1-1.4-15.1Z"/><path class="cls-11" d="M186.7,441.4c18.9-27,24.9-20.7,24.9-20.7,3.8-1.9,11.4,4.1,8.8,23.4-2.1,14.8-9.1,18.1-26.2,31.8-19.2,15.4-23.7,26.1-23.9,27.8C171,492.7,172.6,461.5,186.7,441.4Z"/><path class="cls-7" d="M197.2,406.8c7,.5,13.8,7.6,14.4,13.9,0,0-15.9,2.1-28.5,29-10.3,22.2-12.2,42.7-12.8,53.8v.2c0-7.8-8.9-22.3-11.9-40.8C152.1,425,187.3,406.2,197.2,406.8Z"/><path class="cls-12" d="M158,460.2h.2l.4-.6a24.4,24.4,0,0,1,2.1-1.9,26.1,26.1,0,0,1,3.7-2.5,49.3,49.3,0,0,1,5.6-2.7l4.9-2.1,4.9-2.3a19.8,19.8,0,0,0,3.7-2.4l1-1c.1,0,.1-.1.2-.2h.1a.1.1,0,0,1,.1-.1.1.1,0,0,0-.1.1h-.1c-.1.1-.1.2-.2.2l-1,1a27.1,27.1,0,0,1-3.7,2.3L175,450l-5,2-5.6,2.7a35.2,35.2,0,0,0-3.8,2.6,20.2,20.2,0,0,0-2.1,2.1l-.4.6Z"/><path class="cls-12" d="M196.1,429c-.1-.1-.3.2-.9.7l-1.2.7a7.5,7.5,0,0,1-1.8.8,37.3,37.3,0,0,1-5.5,1.6l-8,1.8a61,61,0,0,0-7.2,2,33.4,33.4,0,0,0-6.9,3.2,20,20,0,0,0-2.8,2,17,17,0,0,0-1.9,2l-.7.8-.5.7-.3.5.4-.5.4-.7.7-.8a18.8,18.8,0,0,1,2-1.9,15.2,15.2,0,0,1,2.8-1.9,29,29,0,0,1,6.9-3.1c2.4-.8,4.8-1.4,7-1.9l8.1-1.7a53.1,53.1,0,0,0,5.5-1.7l1.8-.9,1.3-.8Z"/><path class="cls-12" d="M210.3,420.5c0-.1-.3.2-1.1.4a11.7,11.7,0,0,1-3.5.6l-6.3.4c-2.6.1-5.7.3-9.3.7s-5.4.8-8.2,1.4l-4.1,1.2-3.7,1.5-3.1,1.7-2.3,1.6-1.4,1.2-.4.5a1.1,1.1,0,0,1,.5-.4l1.4-1.2,2.3-1.6,3.1-1.5,3.7-1.4a27.5,27.5,0,0,1,4.1-1.1,50.3,50.3,0,0,1,8.1-1.3c3.6-.4,6.7-.6,9.3-.7l6.3-.5a10.7,10.7,0,0,0,3.6-.8,1.2,1.2,0,0,0,.8-.5C210.3,420.6,210.3,420.5,210.3,420.5Z"/><path class="cls-12" d="M196.9,428.6c-.1,0-.3.2-.3.7a7.6,7.6,0,0,0,.7,3,52.9,52.9,0,0,0,2.9,5.1c1.2,2.1,2.8,4.6,4.6,7.5s2.5,4.4,3.5,6.6a24.4,24.4,0,0,1,2.2,6.4,14.4,14.4,0,0,1,.2,4.5,10.3,10.3,0,0,0-.3,1.2,1.1,1.1,0,0,1-.2.4,1.1,1.1,0,0,0,.2-.4c.1-.3.2-.7.4-1.2a12.2,12.2,0,0,0,.1-4.4,25.9,25.9,0,0,0-2-6.4,70,70,0,0,0-3.4-6.7c-1.7-2.9-3.3-5.4-4.6-7.5a52.9,52.9,0,0,1-2.9-5.1,7.8,7.8,0,0,1-.9-2.8C197,428.9,197,428.7,196.9,428.6Z"/><path class="cls-12" d="M188.3,440c-.1,0-.1.1-.1.2v.3a.8.8,0,0,1,.1.4,12.3,12.3,0,0,0,1.1,2.6,26.4,26.4,0,0,0,2.6,4c1.1,1.5,2.6,3.3,4.1,5.4l1.7,2.4,1.7,2.7a23.9,23.9,0,0,1,1.3,2.8,7.8,7.8,0,0,1,.5,1.4l.3.7c0,.2.1.5.1.7a7,7,0,0,1,.3,1.4c0,.2.1.4.1.6v.6a1.3,1.3,0,0,1,.1.6v1.1a4.3,4.3,0,0,0-.1.5v.8a1.3,1.3,0,0,0-.1.6,1.8,1.8,0,0,0-.1.5,1.8,1.8,0,0,1,.1-.5c0-.2.1-.4.1-.6a2.2,2.2,0,0,0,.1-.8,4.3,4.3,0,0,1,.1-.5v-2.3a1.7,1.7,0,0,1-.1-.7,7.8,7.8,0,0,0-.2-1.4,6.4,6.4,0,0,1-.2-.7c-.1-.2-.1-.5-.2-.7a8.8,8.8,0,0,0-.5-1.5,18.5,18.5,0,0,0-1.3-2.9c-.5-.9-1-1.8-1.6-2.7s-1.1-1.7-1.6-2.5l-4.1-5.4a35.5,35.5,0,0,1-2.7-3.9,13.1,13.1,0,0,1-1.2-2.4c0-.1-.1-.2-.1-.3s-.1-.2-.1-.3A.3.3,0,0,1,188.3,440Z"/><path class="cls-12" d="M183.3,451c-.2-.1-.4,0-.5.4a5.1,5.1,0,0,0,.2,2.3,32.5,32.5,0,0,0,1.9,4.6c.9,2,2.2,4.4,3.5,7.2a46.6,46.6,0,0,1,2.6,6.1,10.8,10.8,0,0,1,.8,5,3.3,3.3,0,0,1-1.4,2.6c-.2.1-.3.3-.5.3l-.4.2h.5l.5-.2a3.4,3.4,0,0,0,1.9-2.4,9.4,9.4,0,0,0-.3-4.9,44.2,44.2,0,0,0-2.4-6c-1.2-2.8-2.5-5.2-3.4-7.1s-1.6-3.6-2-4.7S183.6,451.2,183.3,451Z"/><path class="cls-12" d="M209.4,421.3c-.1-.1-.2.2-.3.7a6.8,6.8,0,0,0,0,2.5,26.4,26.4,0,0,0,1.1,4.2c.6,1.6,1.5,3.6,2.5,5.8a99.7,99.7,0,0,1,4.6,10c.3.8.5,1.5.7,2.2s.1.6.2.9.1.6.2.9a1.7,1.7,0,0,0,.1.7v-.7c-.1-.3-.1-.6-.2-.9s-.1-.6-.1-1-.4-1.4-.6-2.2a99.5,99.5,0,0,0-4.2-10.2,59.1,59.1,0,0,1-2.5-5.7,27.9,27.9,0,0,1-1.2-4.1C209.3,422.3,209.6,421.3,209.4,421.3Z"/><path class="cls-13" d="M211.6,420.7a14.2,14.2,0,0,0-2.9,1l-2.6,1.3a43.1,43.1,0,0,0-12.6,12.1,94.1,94.1,0,0,0-10.6,21A216.5,216.5,0,0,0,176,479c-1.9,7.8-3.6,15.7-5.6,23.7a126.4,126.4,0,0,1,1-24.6,111.7,111.7,0,0,1,5.9-24.1,69.8,69.8,0,0,1,12.5-21.8,38.2,38.2,0,0,1,9.8-8.1,27.2,27.2,0,0,1,5.8-2.6A16.3,16.3,0,0,1,211.6,420.7Z"/><path class="cls-14" d="M212.8,420.4s15.9,21.6-3.4,41.7c-4.2,4.4-13.3,8.1-17.6,12.5-21.1,21.6-15.9,19.3-20.5,26.5,0,0,5.1-9.9,19.2-21.7,0,0,13.2-10.5,15.3-12.4,6.7-6.1,12.7-8.3,14.9-23.2C220.7,443.8,223.7,422.4,212.8,420.4Z"/><path class="cls-8" d="M210,416.4s-10-11.6-28.1-.9c0,0-29.9,22.2-21.2,51.5,0,0,9.4,27.6,9.1,31.9a118,118,0,0,0-6.2-16.7s-8.4-22.4-5.3-34.9c0,0-.1-20.7,24.8-35.8C183.1,411.5,200,398.9,210,416.4Z"/></g></g></g></g></g></svg>