<svg xmlns="http://www.w3.org/2000/svg" xmlns:xlink="http://www.w3.org/1999/xlink" viewBox="0 0 443.8 451.5"><defs><style>.cls-1{fill:none;}.cls-2{isolation:isolate;}.cls-3{opacity:0.5;}.cls-4{fill:url(#linear-gradient);}.cls-5{fill:#31d0e5;stroke-width:6px;stroke:url(#linear-gradient-2);}.cls-11,.cls-5,.cls-7{stroke-miterlimit:10;}.cls-6{clip-path:url(#clip-path);}.cls-7{fill:#41a022;stroke:#38841c;stroke-width:0.5px;}.cls-8{fill:#204910;opacity:0.32;}.cls-9{fill:#8fc12f;}.cls-14,.cls-9{opacity:0.51;}.cls-10{fill:#353535;}.cls-11{fill:#48bc28;stroke:#45a525;}.cls-12,.cls-13{fill:#b0e573;}.cls-12{mix-blend-mode:screen;opacity:0.69;}.cls-14{fill:#b6f261;}</style><linearGradient id="linear-gradient" x1="43.17" y1="103.28" x2="392.43" y2="342.6" gradientUnits="userSpaceOnUse"><stop offset="0" stop-color="#9b81cf"/><stop offset="1" stop-color="#3b139b"/></linearGradient><linearGradient id="linear-gradient-2" x1="16.1" y1="225.74" x2="427.68" y2="225.74" gradientUnits="userSpaceOnUse"><stop offset="0" stop-color="#4c1da9"/><stop offset="1" stop-color="#997ece"/></linearGradient><clipPath id="clip-path"><circle class="cls-1" cx="222.6" cy="226.4" r="199.8"/></clipPath></defs><g class="cls-2"><g id="SB39_Interactive_Icon_13_F1"><path class="cls-3" d="M435.1,237a208.3,208.3,0,0,0-25.4-100A211.6,211.6,0,0,0,221.9,23C105,23,10.2,117.8,10.2,234.7S105,446.3,221.9,446.3c3,0,5.9,0,8.9-.2C344.1,443.6,435.1,350.9,435.1,237Z"/><circle class="cls-4" cx="221.9" cy="225.7" r="211.7"/><circle class="cls-5" cx="221.9" cy="225.7" r="202.8"/><g id="_001" data-name="001"><g class="cls-6"><g id="_016" data-name="016"><path class="cls-7" d="M94.6,183.9s-19.8-13-35.4-7.8l-3.4,6s14.5-7.1,36.9,2.3Z"/><path class="cls-8" d="M55.8,182.1s14.3-7.5,36.9,2.3l.9-.3S70.1,172.6,56.5,181Z"/><path class="cls-9" d="M59.2,176.1s12.2-3.8,28,3.8c0,0-14.2-6-28.1-3.5Z"/><path class="cls-1" d="M223.7,296.8h-.2l-.5-.2Z"/><path class="cls-10" d="M225.1,296.9h.2c.1,0,.4.2.2.3a.8.8,0,0,1-.8.1h-.2c-.1-.1-.4-.2-.2-.3a.8.8,0,0,1,.8-.1h.2l-.6.4h-.2c-.1-.1-.4-.2-.2-.3A.8.8,0,0,1,225.1,296.9Z"/><path class="cls-11" d="M117.7,236.2C75.9,190.5,89.8,182,89.8,182c-1.9-7.8,12.3-19.2,46.6-6.5,26.3,9.8,29.6,24.1,47.7,61,20.4,41.5,38.1,54.1,41.3,55.2C205.4,286,148.9,270.3,117.7,236.2Z"/><path class="cls-7" d="M58.5,202.9c3.7-12.8,19.6-22.4,31.3-20.9,0,0-2.5,30,41.7,64.1,36.5,28.1,73.4,39.9,93.4,45.5l.5.2c-14.4-3.2-44.5,7.1-79.9,5.2C73.4,292.9,53.4,220.8,58.5,202.9Z"/><path class="cls-12" d="M140.6,296.5l-.3-.4c-.2-.2-.4-.6-.8-1a29.1,29.1,0,0,1-2.7-4.5,49.7,49.7,0,0,1-3.1-8c-.9-3.2-1.8-6.9-2.7-11.3s-1.2-6.5-1.8-9.9-1.3-6.8-2.2-9.8a41.9,41.9,0,0,0-2.8-7.9,16.4,16.4,0,0,0-1.5-2.2c-.1-.1-.1-.3-.2-.4l-.2-.2-.2-.2.2.2.2.3.2.3a17.2,17.2,0,0,1,1.4,2.2,41.2,41.2,0,0,1,2.7,7.8c.7,3,1.3,6.4,1.9,9.8s1.1,6.7,1.7,9.8a107.3,107.3,0,0,0,2.7,11.4,50.6,50.6,0,0,0,3.2,8.1,21.4,21.4,0,0,0,3,4.6l.9,1Z"/><path class="cls-12" d="M98.7,213.9c-.1,0,.4.6,1,1.9a19.1,19.1,0,0,1,.9,2.6c.2,1,.5,2.2.7,3.6a78.5,78.5,0,0,1,.6,10.7c.1,4.3,0,9.4,0,15.4a137.3,137.3,0,0,0,.8,13.9,63,63,0,0,0,3,14.1c.8,2.1,1.7,4.1,2.6,5.9a49.1,49.1,0,0,0,2.8,4.4l1.3,1.5,1,1.2.9.9-.9-1-1-1.1-1.2-1.6a28.2,28.2,0,0,1-2.7-4.4,29,29,0,0,1-2.4-5.9,61.2,61.2,0,0,1-2.8-13.9,133.1,133.1,0,0,1-.6-13.8c0-5.9.1-11,.1-15.4a77.2,77.2,0,0,0-.8-10.8,16.7,16.7,0,0,0-.9-3.7,19.7,19.7,0,0,0-1-2.7C99.3,214.4,98.8,213.9,98.7,213.9Z"/><path class="cls-12" d="M89,184.3c-.1.1.3.7.4,2.2a36,36,0,0,1-.4,6.7c-.4,3.1-1.1,7-1.9,11.8s-1.8,10.5-2.5,17.3a129.8,129.8,0,0,0-.7,15.6c.1,2.7.2,5.3.5,7.9a58.6,58.6,0,0,0,1.3,7.5,47.3,47.3,0,0,0,1.8,6.3c.7,1.9,1.4,3.5,2,4.9l1.7,3.1.6,1-.6-1.1-1.6-3.1a43.7,43.7,0,0,1-1.8-4.9c-.6-1.9-1.2-4-1.7-6.3s-.8-4.8-1-7.4a68.5,68.5,0,0,1-.4-7.9,124.5,124.5,0,0,1,1-15.4c.7-6.8,1.7-12.5,2.5-17.3s1.4-8.7,1.7-11.8a23.5,23.5,0,0,0,.1-7,8,8,0,0,0-.6-1.7Z"/><path class="cls-12" d="M151.1,260.4l.6.9a21.9,21.9,0,0,1,1.6,2.9c.6,1.4,1.2,3.1,2,5.1s1.5,4.6,2.5,7.4,1.5,4.4,2.4,6.7a57.5,57.5,0,0,0,3.1,6.6c.6,1,1.2,2,1.8,2.8a9.8,9.8,0,0,0,1.8,2.1l1.2,1.3.4.2h0l-.3-.3a4.6,4.6,0,0,1-1.3-1.2l-1.7-2.1c-.6-.8-1.1-1.8-1.7-2.8a43.9,43.9,0,0,1-2.9-6.6c-.9-2.2-1.7-4.5-2.4-6.5s-1.7-5.4-2.4-7.4-1.5-3.9-2.1-5.2a14.5,14.5,0,0,0-1-1.8,5.7,5.7,0,0,0-.8-1.3Z"/><path class="cls-12" d="M183.2,277.9a1.8,1.8,0,0,0,.1.5l.3.5c0,.2.2.5.2.8a18.5,18.5,0,0,1,.6,2.5c.1,1.1.1,2.4.2,4a21.6,21.6,0,0,0,.3,3.5,6.3,6.3,0,0,0,1.2,3,3.6,3.6,0,0,0,1.9,1.5h.4l-.3-.2a2.9,2.9,0,0,1-1.7-1.6,8.8,8.8,0,0,1-1-3c-.1-1.2-.1-2.4-.2-3.5a24.9,24.9,0,0,0-.2-4.1,7,7,0,0,0-.6-2.5,1.5,1.5,0,0,0-.4-.8l-.3-.5C183.4,277.9,183.3,277.8,183.2,277.9Z"/><path class="cls-12" d="M98.4,212.2c-.1.2.2.6,1.2.9a12.4,12.4,0,0,0,5.7-.2,79.8,79.8,0,0,0,10.6-3c4.4-1.5,9.6-3.5,15.6-5.5,4.3-1.4,9-2.8,13.6-3.8a54.5,54.5,0,0,1,12.6-1.4,25.2,25.2,0,0,1,8.3,1.6l2.1,1,.7.5-.7-.5-2-1.2a24.3,24.3,0,0,0-8.1-2,47.7,47.7,0,0,0-12.6,1,100.6,100.6,0,0,0-13.6,3.6c-6.1,1.9-11.3,3.8-15.6,5.3s-7.9,2.6-10.5,3.2a19.2,19.2,0,0,1-5.6.6C99,212.2,98.5,212.1,98.4,212.2Z"/><path class="cls-12" d="M115.8,232.8h1.7a17.5,17.5,0,0,0,5.2-.9,65.5,65.5,0,0,0,8.4-3.1c3.2-1.5,7-3.4,11.6-5.4l5.1-2.1c1.8-.7,3.7-1.4,5.5-1.9a39.5,39.5,0,0,1,5.7-1.4l2.9-.4h6.5l1.2.2,1,.2,1.1.2.9.2.9.3,1.4.4,1.1.5.9.3-.9-.4-1.1-.4-1.4-.6-.8-.3-1-.2-1-.3-1.1-.2-1.2-.2h-1.2a11.4,11.4,0,0,0-2.6-.2h-2.8a13.6,13.6,0,0,0-2.9.3,41.2,41.2,0,0,0-5.9,1.2,52.2,52.2,0,0,0-5.6,1.8c-1.9.6-3.6,1.3-5.3,2-4.6,2-8.4,3.9-11.6,5.3a77.6,77.6,0,0,1-8.2,3.3,24,24,0,0,1-4.9,1.2h-1.2C115.9,232.6,115.8,232.7,115.8,232.8Z"/><path class="cls-12" d="M133.9,246.4c-.2.2-.1.6.6,1a9.8,9.8,0,0,0,4.2.5,58.4,58.4,0,0,0,9.4-1.5l14.5-3.6a108.1,108.1,0,0,1,12.2-2.2c3.9-.4,7.3-.3,9.6.6a6.3,6.3,0,0,1,4.2,3.7,6.9,6.9,0,0,1,.4,1c0,.3.1.6.1.8a3.2,3.2,0,0,1,.1.7v-1.7a3.6,3.6,0,0,1-.2-1.1,6.8,6.8,0,0,0-3.6-4.4c-2.2-1.1-5.4-1.5-9.2-1.3a74.2,74.2,0,0,0-12,1.8l-14.4,3.4c-4,.9-7.1,1.5-9.4,1.8C135.8,246.4,134.5,245.8,133.9,246.4Z"/><path class="cls-12" d="M182.6,276.8c-.1.1.1.3.6.4a5.4,5.4,0,0,0,2.2.4h1.7l2-.4,5.1-1.2a31.7,31.7,0,0,1,4.6-.7,23.5,23.5,0,0,1,4.6,0,24.4,24.4,0,0,1,3.6.6l1,.2h0l-1-.4c-.9-.2-2.1-.6-3.5-.8a25.8,25.8,0,0,0-9.6.1l-5.1,1.2-3.5.6C183.5,276.8,182.6,276.6,182.6,276.8Z"/><path class="cls-12" d="M90,186.4c0,.1.3.4,1.3.8a15.1,15.1,0,0,0,4.5,1,34.6,34.6,0,0,0,8.2-.4c3.3-.4,7.1-1.2,11.6-2.2,6.4-1.5,14-3.5,20.3-4.3l4.3-.4h5.7l.8.2-.8-.2-1-.2-1.2-.2h-3.5a34.7,34.7,0,0,0-4.4.2c-6.3.4-14.1,2.2-20.4,3.5-4.5,1-8.3,1.7-11.6,2.2a47.6,47.6,0,0,1-7.8.5C91.9,186.8,90.2,186,90,186.4Z"/><path class="cls-12" d="M151.3,261.3c-.2.2-.1.6.5,1a10.9,10.9,0,0,0,3.8.7,45.2,45.2,0,0,0,8-.7l12.4-2.1a89.4,89.4,0,0,1,10.4-1.1,20.7,20.7,0,0,1,8.4,1.2,7.3,7.3,0,0,1,3.9,3.6l.3.9a1.9,1.9,0,0,1,.2.7l.2.6a1.7,1.7,0,0,1-.1-.7c0-.2-.1-.4-.1-.8l-.3-.9a7,7,0,0,0-3.4-4.2,17.9,17.9,0,0,0-8-1.8,60.4,60.4,0,0,0-10.3.8c-4.7.6-8.9,1.4-12.3,1.9a64.3,64.3,0,0,1-8,.9C152.9,261.5,151.8,260.8,151.3,261.3Z"/><path class="cls-13" d="M89.8,182a36.3,36.3,0,0,0,.3,5.7,50.4,50.4,0,0,0,1.1,5.6,66.3,66.3,0,0,0,3.9,10.5,71.2,71.2,0,0,0,5.5,9.7l1.6,2.3,1.7,2.3c1.1,1.5,2.3,2.9,3.5,4.4a131,131,0,0,0,16,15.6,217.5,217.5,0,0,0,18.2,13.3l4.8,3,4.8,2.9,4.9,2.8,2.5,1.4,2.5,1.3c3.3,1.8,6.7,3.7,10.1,5.3s6.8,3.4,10.2,4.9c13.8,6.5,27.9,12.3,42.1,18.1a302.3,302.3,0,0,1-43.9-13.8c-14.3-5.7-28.3-12.4-41.2-20.9l-4.9-3.3-4.7-3.4-2.3-1.7-2.3-1.9-4.5-3.7-4.3-4-4.1-4.1-3.9-4.3c-1.3-1.5-2.4-3.1-3.7-4.6a78.8,78.8,0,0,1-11.3-20.5,56.6,56.6,0,0,1-2.8-11.3A34.7,34.7,0,0,1,89.8,182Z"/><path class="cls-14" d="M89.9,179.8S136,159.4,165,203c6.4,9.6,9.4,27.8,15.8,37.4,31,47.5,28.9,37,40.1,48.4,0,0-16-13.4-31.9-44.2,0,0-13.9-28.4-16.5-33-8.4-14.8-10.1-26.6-36.5-36.7C136,174.9,98,160.5,89.9,179.8Z"/><path class="cls-8" d="M81.3,183.2S56,196.9,68.2,234.5c0,0,28.6,63.8,85.8,59.8,0,0,54.6-5.9,62.3-3.6,0,0-12.3.4-33.1,4.6,0,0-44.6,6.2-66.3-4.6,0,0-38-8.3-55.4-60.2C61.5,230.5,45.1,194.3,81.3,183.2Z"/><path class="cls-7" d="M289.4,123.3s-13.6-8.6-24.1-4.9l-2.2,4.2s9.7-5,25,1Z"/><path class="cls-8" d="M263.1,122.6s9.6-5.3,25,1h.6s-16.1-7.5-25.2-1.7Z"/><path class="cls-9" d="M265.3,118.4s8.2-2.7,19,2.3c0,0-9.6-3.9-19.1-2.1Z"/><path class="cls-1" d="M378.2,198.2h0Z"/><path class="cls-10" d="M379.1,198.2h.2c.1.1.3.1.1.3h-.7s-.3-.1-.1-.2h.7l-.4.3h-.2c-.1,0-.3-.1-.1-.2Z"/><path class="cls-11" d="M305.7,158.4c-28.9-30.4-19.6-36.3-19.6-36.3-1.4-5.3,8.1-13.2,31.5-5,17.9,6.3,20.3,15.9,33,40.7,14.3,27.9,26.5,36.2,28.7,36.9C365.6,191.1,327.2,181.1,305.7,158.4Z"/><path class="cls-7" d="M265.2,136.6c2.3-8.7,12.9-15.4,20.9-14.5,0,0-1.4,20.3,29,42.9,25.1,18.6,50.2,26.1,63.8,29.7h.4c-9.8-2-30.1,5.4-54.1,4.4C276.4,197.4,261.9,148.8,265.2,136.6Z"/><path class="cls-12" d="M321.9,199l-.2-.3-.6-.7c-.4-.6-1.1-1.6-1.9-3a36.5,36.5,0,0,1-2.1-5.3,74.7,74.7,0,0,1-2-7.6c-.4-2.1-.9-4.4-1.4-6.7a65.8,65.8,0,0,0-1.5-6.7,23.4,23.4,0,0,0-2.1-5.2,4.8,4.8,0,0,0-1-1.5l-.2-.3h-.1v0h.1l.2.3a7.6,7.6,0,0,1,1,1.5,27.5,27.5,0,0,1,1.9,5.2c.5,2,1,4.3,1.4,6.6s.9,4.5,1.3,6.6a72.3,72.3,0,0,0,1.9,7.7,32.6,32.6,0,0,0,2.3,5.5,14.8,14.8,0,0,0,2.1,3l.6.7Z"/><path class="cls-12" d="M292.5,143.6a7.3,7.3,0,0,1,.7,1.3,10.7,10.7,0,0,1,.6,1.7l.6,2.4a47.2,47.2,0,0,1,.5,7.3c.1,2.9.1,6.3.2,10.4s.3,6.1.7,9.4a41.2,41.2,0,0,0,2.2,9.5c.6,1.4,1.2,2.8,1.8,4l2,2.9.9,1,.7.8.6.6-.6-.6-.7-.8-.8-1a19.6,19.6,0,0,1-1.9-3,23.2,23.2,0,0,1-1.8-3.9,47.5,47.5,0,0,1-2-9.4c-.4-3.3-.5-6.5-.6-9.4s0-7.5-.1-10.4a63,63,0,0,0-.6-7.3,12.6,12.6,0,0,0-.7-2.5,8.4,8.4,0,0,0-.7-1.8C293,143.9,292.6,143.5,292.5,143.6Z"/><path class="cls-12" d="M285.6,123.7c-.1,0,.2.4.3,1.4a27.2,27.2,0,0,1-.2,4.6l-1.2,8c-.5,3.2-1,7.1-1.4,11.7a73.4,73.4,0,0,0-.3,10.6c.1,1.8.2,3.6.4,5.4s.6,3.4,1,5a27,27,0,0,0,1.3,4.3l1.4,3.2,1.2,2.1.4.7-.4-.7a19,19,0,0,1-1.1-2.1,28.5,28.5,0,0,1-1.3-3.3,24.3,24.3,0,0,1-1.2-4.3,34.9,34.9,0,0,1-.8-5c-.2-1.7-.3-3.5-.4-5.3,0-3.6.2-7.2.5-10.5s1-8.4,1.5-11.7.8-5.9,1-8a18.8,18.8,0,0,0,0-4.8,6.6,6.6,0,0,0-.4-1.1C285.7,123.7,285.6,123.6,285.6,123.7Z"/><path class="cls-12" d="M328.6,174.4l.4.6a16.3,16.3,0,0,1,1.1,2c.4.9.9,2,1.4,3.4l1.8,5c.5,1.4,1,2.9,1.7,4.5a45.1,45.1,0,0,0,2.2,4.4,9.1,9.1,0,0,0,1.3,1.9,8.7,8.7,0,0,0,1.2,1.4l.8.8.3.2h0l-.3-.2-.8-.8-1.2-1.4-1.2-1.9a44.8,44.8,0,0,1-2-4.4c-.7-1.5-1.2-3-1.7-4.4s-1.2-3.6-1.8-5-1-2.6-1.4-3.5a7.5,7.5,0,0,1-.7-1.2l-.6-.8Z"/><path class="cls-12" d="M350.5,185.9v.3l.2.4.2.5a14.6,14.6,0,0,1,.4,1.7c0,.7.1,1.6.2,2.7a17.9,17.9,0,0,0,.2,2.3,5.8,5.8,0,0,0,.9,2.1,3.8,3.8,0,0,0,1.3,1h0a3.5,3.5,0,0,1-1.2-1,6.5,6.5,0,0,1-.6-2.1,19.4,19.4,0,0,1-.2-2.4,19.9,19.9,0,0,0-.2-2.7,6.1,6.1,0,0,0-.4-1.7,3.3,3.3,0,0,0-.3-.6l-.3-.3C350.7,185.9,350.6,185.8,350.5,185.9Z"/><path class="cls-12" d="M292.3,142.4c-.1.1.1.4.8.6a9,9,0,0,0,3.9-.2,41.4,41.4,0,0,0,7.1-2.2l10.5-3.8a70,70,0,0,1,9.2-2.8,39.6,39.6,0,0,1,8.5-1.1,14.7,14.7,0,0,1,5.6,1,7.1,7.1,0,0,1,1.5.7l.4.2-.4-.3-1.4-.7a13.8,13.8,0,0,0-5.5-1.3,29.3,29.3,0,0,0-8.5.8,69.4,69.4,0,0,0-9.2,2.6l-10.5,3.8a61.6,61.6,0,0,1-7.1,2.3,17.7,17.7,0,0,1-3.8.5C292.7,142.4,292.4,142.3,292.3,142.4Z"/><path class="cls-12" d="M304.3,156.1h1.2a11.8,11.8,0,0,0,3.5-.7,39.5,39.5,0,0,0,5.6-2.2l7.8-3.8,3.5-1.5,3.7-1.4a26.2,26.2,0,0,1,3.8-.9l1.9-.3H342l.6.2h.6l1,.3.7.3.6.2-.6-.2-.7-.3-1-.4-.5-.2H342l-.7-.2h-6l-2,.2-3.9.9-3.8,1.3L322,149l-7.8,3.7c-2.2,1-4,1.8-5.5,2.3a16.8,16.8,0,0,1-3.3.9h-1.1Z"/><path class="cls-12" d="M316.8,165.1c-.2.2-.1.5.3.7a6.7,6.7,0,0,0,2.9.3,46.6,46.6,0,0,0,6.3-1.1l9.9-2.6a74.5,74.5,0,0,1,8.2-1.7,14.9,14.9,0,0,1,6.5.3,4.4,4.4,0,0,1,2.9,2.5,1.4,1.4,0,0,1,.2.6,1.3,1.3,0,0,1,.1.6V164a6.4,6.4,0,0,1-.2-.7,4.5,4.5,0,0,0-2.5-3,12.6,12.6,0,0,0-6.2-.7,48.6,48.6,0,0,0-8.1,1.3l-9.7,2.5a51.5,51.5,0,0,1-6.4,1.3C318,165.2,317.1,164.7,316.8,165.1Z"/><path class="cls-12" d="M350.1,185.2l.4.2,1.5.2h1.1l1.4-.3,3.5-.9,3-.6a17.1,17.1,0,0,1,3.2,0l2.4.4h.7l-.7-.2-2.4-.6-3.2-.2-3.3.4-3.4.9-2.4.4C350.7,185.1,350.1,185,350.1,185.2Z"/><path class="cls-12" d="M286.3,125c0,.1.2.3.9.6a11.9,11.9,0,0,0,3.1.6,28.5,28.5,0,0,0,5.5-.3l7.8-1.7c4.3-1.1,9.5-2.6,13.7-3.1l2.9-.4h0l-2.9.2a113.1,113.1,0,0,0-13.9,2.6,66.7,66.7,0,0,1-7.7,1.6,29.9,29.9,0,0,1-5.4.5C287.6,125.3,286.4,124.8,286.3,125Z"/><path class="cls-12" d="M328.7,175c-.1.2,0,.4.4.7a6,6,0,0,0,2.5.4,23.7,23.7,0,0,0,5.4-.5l8.4-1.6a58.3,58.3,0,0,1,7-.9,14.4,14.4,0,0,1,5.8.7,5.1,5.1,0,0,1,2.6,2.4l.3.6a4.3,4.3,0,0,0,.1.5v-.1a.7.7,0,0,1-.1-.5c-.1-.2-.1-.4-.2-.6a4.6,4.6,0,0,0-2.4-2.8,11.7,11.7,0,0,0-5.4-1.1,42.3,42.3,0,0,0-7,.6l-8.3,1.5c-2.3.4-4.1.6-5.4.7S329,174.7,328.7,175Z"/><path class="cls-13" d="M286.1,122.1a23.3,23.3,0,0,0,.4,3.8c.3,1.3.6,2.5,1,3.7a35.6,35.6,0,0,0,2.9,7,61.5,61.5,0,0,0,8.7,12.2c6.7,7.4,14.9,13.4,23.4,18.8a241.1,241.1,0,0,0,27.1,14.3c9.3,4.3,18.8,8.3,28.3,12.4a175.8,175.8,0,0,1-30.1-8,148.2,148.2,0,0,1-28.4-13.6c-8.9-5.6-17.4-12.4-23.9-20.9a52.2,52.2,0,0,1-7.8-14,44.3,44.3,0,0,1-1.9-7.8A23.1,23.1,0,0,1,286.1,122.1Z"/><path class="cls-14" d="M286.1,120.6s31-14.4,51.2,14.8c4.4,6.4,6.7,18.7,11.1,25.1,21.6,31.8,20,24.7,27.8,32.3,0,0-11-8.9-22.2-29.5,0,0-9.7-19.1-11.5-22.2-5.9-9.9-7.2-17.9-25.2-24.4C317.3,116.7,291.4,107.4,286.1,120.6Z"/><path class="cls-8" d="M280.4,123s-17,9.5-8.3,34.9c0,0,20.1,42.8,58.9,39.4,0,0,36.8-4.6,42.1-3.2a161.3,161.3,0,0,0-22.4,3.6s-30.1,4.7-45-2.3c0,0-25.8-5.2-38.2-40.1C267.5,155.3,256,131,280.4,123Z"/><path class="cls-7" d="M241.7,28.2S238.6,16,230.5,12.5l-3.4,1.1s8.2,2.4,13.7,14.1Z"/><path class="cls-8" d="M227.1,13.6s8.3,2.2,13.7,14.1l.4.2S236.1,15,227.7,13.4Z"/><path class="cls-9" d="M230.5,12.5s6.2,2.8,9.7,11.5c0,0-3.4-7.4-9.8-11.5Z"/><path class="cls-1" d="M252.2,118.8h-.1v-.2Z"/><path class="cls-10" d="M252.7,119.4h.1c0,.1.1.3-.1.2l-.3-.2a.1.1,0,0,0-.1-.1s-.1-.2.1-.2.2.1.3.3h-.3a.1.1,0,0,0-.1-.1s-.1-.2.1-.2S252.6,119.3,252.7,119.4Z"/><path class="cls-11" d="M232.1,57.1c-.1-33,8.4-31.3,8.4-31.3,2-3.8,11.7-3.2,20.7,14.1,6.8,13.2,3,20-3,41-6.9,23.7-4.4,34.9-3.5,36.5C248.8,108,232.2,81.6,232.1,57.1Z"/><path class="cls-7" d="M220.7,22.8c6-3.7,15.7-1.8,19.8,3,0,0-11.8,10.9-6.5,40.1,4.3,24.1,14.6,41.9,20.5,51.3a.4.4,0,0,1,.1.3c-4.5-6.4-20.1-13.1-33.3-26.6C194.4,63.6,212.3,28,220.7,22.8Z"/><path class="cls-12" d="M219.5,89c.1,0,.1-.1.1-.2v-.7a14.2,14.2,0,0,1,.6-2.8,20.6,20.6,0,0,1,1.6-4.2q1.2-2.4,3-5.4l2.8-4.6c1-1.6,1.9-3.1,2.7-4.6a15.5,15.5,0,0,0,1.6-4.1,4.9,4.9,0,0,0,.3-1.5v-.2h0v0h0v.2a3.9,3.9,0,0,1-.3,1.4,16.5,16.5,0,0,1-1.7,4c-.8,1.5-1.8,3-2.7,4.6s-2,3-2.9,4.5-2.2,3.8-3,5.4a21.2,21.2,0,0,0-1.6,4.3,10.2,10.2,0,0,0-.5,2.9v1Z"/><path class="cls-12" d="M232.6,41.5c-.1,0-.1.4-.3,1.1a13.9,13.9,0,0,1-.6,1.3,10.6,10.6,0,0,1-1,1.7,29.2,29.2,0,0,1-3.6,4.4c-1.5,1.8-3.4,3.7-5.5,6.1s-3.1,3.7-4.7,5.8a36.4,36.4,0,0,0-3.8,6.6,24.4,24.4,0,0,0-1.1,3.2,17,17,0,0,0-.4,2.8,3.8,3.8,0,0,0-.1,1v.1c0-.4.1-.7.1-1.1s.3-1.7.5-2.7a25.6,25.6,0,0,1,1.2-3.2,33.3,33.3,0,0,1,3.8-6.5l4.7-5.6c2.2-2.4,4.1-4.3,5.6-6.1a35,35,0,0,0,3.5-4.5,5.4,5.4,0,0,0,1-1.8,5.3,5.3,0,0,0,.6-1.4A2.7,2.7,0,0,0,232.6,41.5Z"/><path class="cls-12" d="M239.3,26.4c-.1-.1-.1.3-.6.9a15.5,15.5,0,0,1-2.6,2.6l-4.9,3.9c-2,1.6-4.5,3.5-7.2,6a79.3,79.3,0,0,0-5.8,5.8c-1,1.1-1.8,2.2-2.7,3.4a30.2,30.2,0,0,0-2.1,3.3,31.8,31.8,0,0,0-1.6,3.2c-.4,1-.7,1.9-.9,2.6l-.5,1.8a4.2,4.2,0,0,0-.1.7,1.7,1.7,0,0,0,.1-.7l.5-1.7a18.3,18.3,0,0,1,1.1-2.6,15.3,15.3,0,0,1,1.6-3.1,31.5,31.5,0,0,1,2.2-3.3,39.2,39.2,0,0,1,2.7-3.3,78,78,0,0,1,5.9-5.7c2.7-2.4,5.1-4.3,7.1-5.9l5-4a18,18,0,0,0,2.5-2.8,1.6,1.6,0,0,0,.3-.8Q239.5,26.4,239.3,26.4Z"/><path class="cls-12" d="M236.6,78.5a2.8,2.8,0,0,1-.1.6,7.9,7.9,0,0,1-.4,1.7,25.7,25.7,0,0,1-1.1,2.7c-.4,1.1-1,2.4-1.6,3.9a26.7,26.7,0,0,0-1.4,3.4,33,33,0,0,0-1.2,3.8l-.3,1.7V99h0a.4.4,0,0,0-.1-.3v-.9a7.1,7.1,0,0,1,.1-1.4,11.3,11.3,0,0,1,.3-1.8,30.4,30.4,0,0,1,1.2-3.6l1.4-3.4,1.7-3.8a16.1,16.1,0,0,0,1-2.8,4.5,4.5,0,0,0,.3-1.1,2,2,0,0,0,.1-.7A1.2,1.2,0,0,0,236.6,78.5Z"/><path class="cls-12" d="M243,96.9v.2a.4.4,0,0,0-.1.3l-.2.5a4.9,4.9,0,0,1-.7,1.1c-.3.5-.8,1-1.3,1.7a5.8,5.8,0,0,0-1.1,1.5,3.7,3.7,0,0,0-.7,1.6,2.5,2.5,0,0,0,.3,1.3.1.1,0,0,0,.1.1c0,.1,0,.2.1.2h0V105a2.3,2.3,0,0,1-.1-1.2,5.1,5.1,0,0,1,.7-1.5l1.2-1.5,1.4-1.6a4.9,4.9,0,0,0,.6-1.3c.1-.1.1-.3.2-.4v-.3C243.1,97,243.1,96.9,243,96.9Z"/><path class="cls-12" d="M233.1,40.7c-.1,0-.2.3.1.8a8.2,8.2,0,0,0,2.3,2,45.9,45.9,0,0,0,5.3,2.5l8.1,3.5c2.2,1,4.6,2.1,6.7,3.3a27.9,27.9,0,0,1,5.5,4,12.4,12.4,0,0,1,2.7,3.6l.4,1.1.2.5a1.2,1.2,0,0,1-.1-.5l-.4-1.1a12.6,12.6,0,0,0-2.5-3.7,26.5,26.5,0,0,0-5.3-4.2c-2.1-1.2-4.5-2.4-6.6-3.4l-8.1-3.5-5.3-2.5a10,10,0,0,1-2.4-1.7C233.3,40.9,233.2,40.7,233.1,40.7Z"/><path class="cls-12" d="M232.6,55c-.1.1,0,.1.1.2l.2.3q0,.2.3.3a11.3,11.3,0,0,0,2.3,1.5l4.4,1.7,6.5,2,2.8,1,2.9,1.3a14.3,14.3,0,0,1,2.7,1.5,5.7,5.7,0,0,1,1.3.8l.5.5.6.4,1,1,.4.5c.2.1.3.3.4.4l.4.5.3.4.3.5.3.4.4.7a1.7,1.7,0,0,1,.2.5,1,1,0,0,1,.2.5,1,1,0,0,0-.2-.5,1.7,1.7,0,0,0-.2-.5,3,3,0,0,0-.4-.8l-.2-.4-.3-.4-.3-.5-.4-.5-.3-.5-.5-.5-1-1-.5-.5-.6-.4-1.2-1-2.8-1.6-2.8-1.3-2.8-1-6.5-2.1-4.4-1.6-2.4-1.3-.3-.2c-.1-.1-.1-.2-.2-.2Z"/><path class="cls-12" d="M234.8,66.9c-.1,0-.2.2-.1.6s.6.9,1.5,1.7a28.2,28.2,0,0,0,4.2,2.7l7,3.8c1.9,1.1,3.9,2.3,5.6,3.5a11.3,11.3,0,0,1,3.6,3.7,3.3,3.3,0,0,1,.3,3c-.1.1-.1.3-.2.5s-.2.2-.2.3l-.2.3.2-.3.3-.3.3-.5a3.3,3.3,0,0,0,.2-3.1,10.2,10.2,0,0,0-3.1-3.8,41.8,41.8,0,0,0-5.4-3.5l-6.9-3.9a39.6,39.6,0,0,1-4.3-2.6C235.6,67.6,235.3,66.9,234.8,66.9Z"/><path class="cls-12" d="M243.1,96.3a.8.8,0,0,0,.1.3,3.1,3.1,0,0,0,.8,1l.7.5.9.6,2.5,1.4,2,1.3a9.8,9.8,0,0,1,1.8,1.7,13.1,13.1,0,0,1,1.2,1.5l.3.4a.3.3,0,0,1,.1.2.3.3,0,0,0-.1-.2l-.2-.5c-.3-.4-.6-1-1.1-1.6a10.2,10.2,0,0,0-1.8-1.8,13,13,0,0,0-2-1.5l-2.5-1.4a7.6,7.6,0,0,1-1.5-1C243.5,96.6,243.2,96.2,243.1,96.3Z"/><path class="cls-12" d="M239,27.5c-.1.1,0,.3.2.8a6.8,6.8,0,0,0,1.5,2,14,14,0,0,0,3.3,2.8,53.7,53.7,0,0,0,5.4,3.3c3,1.7,6.7,3.6,9.5,5.5l1.8,1.4.7.7.7.6.4.5a.5.5,0,0,1,.3.4l.3.3-.2-.3-.3-.4-.5-.6a3.4,3.4,0,0,0-.6-.6,4.6,4.6,0,0,0-.7-.7l-1.7-1.5a82.5,82.5,0,0,0-9.4-5.9c-2.1-1.2-3.9-2.3-5.3-3.3a27.2,27.2,0,0,1-3.3-2.6C239.6,28.4,239.2,27.4,239,27.5Z"/><path class="cls-12" d="M236.3,79c-.1,0-.2.2-.1.5a6,6,0,0,0,1.2,1.7l3.4,2.6,5.7,3.6a49.7,49.7,0,0,1,4.4,3.2,10.9,10.9,0,0,1,2.9,3.5,3.6,3.6,0,0,1,.3,2.8c-.1.2-.1.4-.2.5s-.1.3-.2.3V98l.2-.3.2-.3.3-.5a3.8,3.8,0,0,0,.1-2.8,9.8,9.8,0,0,0-2.5-3.6,35.7,35.7,0,0,0-4.3-3.4L242,83.5,238.5,81C236.9,79.6,236.7,79,236.3,79Z"/><path class="cls-13" d="M240.5,25.8a13.7,13.7,0,0,0-1.8,2.4c-.5.9-1,1.8-1.4,2.7a36.9,36.9,0,0,0-1.9,5.6A49.6,49.6,0,0,0,234,48a91.8,91.8,0,0,0,3.5,23.2A207.9,207.9,0,0,0,245,93.9c2.9,7.5,6.1,14.9,9.1,22.6a135.7,135.7,0,0,1-13.4-20.7,116.8,116.8,0,0,1-9-23c-2.1-8.1-3.3-16.6-2.3-25.1a39.3,39.3,0,0,1,3.2-12.2,33.4,33.4,0,0,1,3.3-5.5A16.7,16.7,0,0,1,240.5,25.8Z"/><path class="cls-14" d="M241.3,24.9s25.4,8.4,21.3,36c-.9,6.1-6.2,14.3-7.2,20.4-4.7,29.8-1.8,24.9-1.4,33.4,0,0-1.6-11,3.1-28.8,0,0,4.7-16.2,5.4-18.9,1.9-8.9,5.5-14.1-1.3-27.6C261.2,39.4,251.4,20.2,241.3,24.9Z"/><path class="cls-8" d="M236.7,23.2s-14.8-3.7-23.5,15.5c0,0-11.5,35.3,12.4,54.2,0,0,23.6,17.2,25.9,20.9a130.2,130.2,0,0,0-14.7-10.1S217,90.3,212.3,78.3c0,0-12-16.9-.3-43.6C212,34.7,218.5,14.6,236.7,23.2Z"/></g></g></g></g></g></svg>