<svg xmlns="http://www.w3.org/2000/svg" xmlns:xlink="http://www.w3.org/1999/xlink" viewBox="0 0 443.8 451.5"><defs><style>.cls-1{fill:none;}.cls-2{isolation:isolate;}.cls-3{opacity:0.5;}.cls-4{fill:url(#linear-gradient);}.cls-5{fill:#31d0e5;stroke-width:6px;stroke:url(#linear-gradient-2);}.cls-10,.cls-5,.cls-7{stroke-miterlimit:10;}.cls-6{clip-path:url(#clip-path);}.cls-7{fill:#41a022;stroke:#38841c;stroke-width:0.5px;}.cls-8{fill:#204910;opacity:0.32;}.cls-9{fill:#8fc12f;}.cls-13,.cls-9{opacity:0.51;}.cls-10{fill:#48bc28;stroke:#45a525;}.cls-11,.cls-12{fill:#b0e573;}.cls-11{mix-blend-mode:screen;opacity:0.69;}.cls-13{fill:#b6f261;}.cls-14{fill:#353535;}</style><linearGradient id="linear-gradient" x1="43.17" y1="103.28" x2="392.43" y2="342.6" gradientUnits="userSpaceOnUse"><stop offset="0" stop-color="#9b81cf"/><stop offset="1" stop-color="#3b139b"/></linearGradient><linearGradient id="linear-gradient-2" x1="16.1" y1="225.74" x2="427.68" y2="225.74" gradientUnits="userSpaceOnUse"><stop offset="0" stop-color="#4c1da9"/><stop offset="1" stop-color="#997ece"/></linearGradient><clipPath id="clip-path"><circle class="cls-1" cx="222.6" cy="226.4" r="199.8"/></clipPath></defs><g class="cls-2"><g id="SB39_Interactive_Icon_13_F1"><path class="cls-3" d="M435.1,237a208.3,208.3,0,0,0-25.4-100A211.6,211.6,0,0,0,221.9,23C105,23,10.2,117.8,10.2,234.7S105,446.3,221.9,446.3c3,0,5.9,0,8.9-.2C344.1,443.6,435.1,350.9,435.1,237Z"/><circle class="cls-4" cx="221.9" cy="225.7" r="211.7"/><circle class="cls-5" cx="221.9" cy="225.7" r="202.8"/><g id="_001" data-name="001"><g class="cls-6"><g id="_007" data-name="007"><path class="cls-7" d="M91.4,352.2s2.4-23.6-9.5-35L75,317s13,9.6,15.1,33.7Z"/><path class="cls-8" d="M75,317s13.3,9.2,15.1,33.7l.6.7S90,325.2,76.3,317Z"/><path class="cls-9" d="M81.9,317.2s9.1,9.1,9.6,26.6c0,0-1.3-15.3-9.9-26.6Z"/><path class="cls-10" d="M55.8,396.9c21.1-58.2,35-49.8,35-49.8,6.1-5.3,22.8,2,27.4,38.3,3.5,27.8-7.6,37.3-31.9,70.5C59,493.2,56,514.7,56.5,518.1,52.3,497.7,40.1,440.4,55.8,396.9Z"/><path class="cls-7" d="M57.9,329c13-2.6,28.8,7,32.9,18.1,0,0-27.7,11.6-37.4,66.6-8,45.4-1.3,83.5,2.9,103.9a1.1,1.1,0,0,1,.1.5c-3.8-14.2-26.9-36.2-41.6-68.4C-15,384,39.6,332.7,57.9,329Z"/><path class="cls-11" d="M12.9,445.1c.1,0,.1-.1.3-.4l.5-1.2a40,40,0,0,1,2.7-4.5,49.7,49.7,0,0,1,5.7-6.4c2.4-2.3,5.3-4.8,8.7-7.6l7.9-6.2,7.8-6.5a42.8,42.8,0,0,0,5.6-6.2,11.4,11.4,0,0,0,1.3-2.3.8.8,0,0,0,.2-.4v-.3a.3.3,0,0,0,.1-.2.3.3,0,0,1-.1.2v.3c-.1.1-.1.3-.2.4a12.8,12.8,0,0,1-1.4,2.3,30,30,0,0,1-5.6,5.9c-2.3,2.1-5,4.2-7.7,6.3s-5.5,4.1-8,6-6.4,5.3-8.8,7.7a50.9,50.9,0,0,0-5.7,6.6,22.9,22.9,0,0,0-2.7,4.8,5.5,5.5,0,0,0-.5,1.3A1,1,0,0,0,12.9,445.1Z"/><path class="cls-11" d="M66.7,369.8c0-.1-.4.6-1.2,1.7l-1.9,2a26.7,26.7,0,0,1-2.9,2.3,71.9,71.9,0,0,1-9.1,5.5c-3.8,2.1-8.4,4.3-13.7,7.1-3.8,2.1-7.9,4.4-12,7.2a61.7,61.7,0,0,0-11,9.2,35,35,0,0,0-4,5,21.9,21.9,0,0,0-2.6,4.6,7.1,7.1,0,0,0-.8,1.8,14.7,14.7,0,0,0-.6,1.4,6.4,6.4,0,0,1-.4,1.2l.5-1.2a12.1,12.1,0,0,1,.5-1.4l.8-1.8a48.5,48.5,0,0,1,2.7-4.5,35,35,0,0,1,4.1-4.8,60.3,60.3,0,0,1,11-8.9,127.7,127.7,0,0,1,12-7l13.6-7a88.7,88.7,0,0,0,9.3-5.7c1.1-.9,2.1-1.7,2.9-2.5a14.6,14.6,0,0,0,1.8-2.2C66.6,370.5,66.8,369.8,66.7,369.8Z"/><path class="cls-11" d="M88.4,347.4c-.1-.1-.5.6-1.7,1.3a29,29,0,0,1-6.2,2.8c-2.9,1.1-6.6,2.3-11.3,3.8s-10.1,3.3-16.5,5.8a135.2,135.2,0,0,0-14.1,6.6c-2.3,1.3-4.6,2.7-6.8,4.2a58.6,58.6,0,0,0-6,4.5C24,378,22.4,379.5,21,381l-3.4,4-1.9,2.9L15,389l.7-1.1c.5-.6,1.1-1.6,2-2.8s2.1-2.5,3.5-3.9,3.1-2.9,4.9-4.4a71.5,71.5,0,0,1,6-4.4,76.9,76.9,0,0,1,6.9-3.9,144.1,144.1,0,0,1,14.1-6.4c6.3-2.4,11.8-4.2,16.4-5.7l11.3-3.9a30.7,30.7,0,0,0,6.2-3.2,6.4,6.4,0,0,0,1.2-1.3C88.4,347.6,88.5,347.4,88.4,347.4Z"/><path class="cls-11" d="M49.8,437.7l-.5,1a29.3,29.3,0,0,1-1.9,2.7,52.6,52.6,0,0,1-3.6,4.1l-5.4,5.7c-1.5,1.6-3.1,3.3-4.7,5.2a61.4,61.4,0,0,0-4.5,5.9,20.9,20.9,0,0,0-1.6,2.9,24.1,24.1,0,0,0-1.1,2.5l-.5,1.7a.9.9,0,0,1-.1.5h0a.9.9,0,0,0,.1-.5,12,12,0,0,1,.6-1.7,21.6,21.6,0,0,1,1-2.5l1.7-2.8a58.1,58.1,0,0,1,4.5-5.6c1.6-1.8,3.2-3.6,4.7-5.1l5.4-5.6a51.9,51.9,0,0,0,3.7-4.3l1.1-1.7a5.6,5.6,0,0,0,.7-1.3C49.8,438.1,49.9,437.7,49.8,437.7Z"/><path class="cls-11" d="M68,368.7c-.1,0-.4.4-.1,1.5a12.8,12.8,0,0,0,2.7,4.9,76.2,76.2,0,0,0,7.7,8c3.3,3.2,7.5,6.9,12,11.3a135.5,135.5,0,0,1,9.7,10.3,54,54,0,0,1,7.1,10.5,24.1,24.1,0,0,1,2.4,8.1,22,22,0,0,1,.1,2.3,4.5,4.5,0,0,0-.1.8,2,2,0,0,0,.1-.8,14.2,14.2,0,0,0,.1-2.3,21.8,21.8,0,0,0-1.9-8.1,50.1,50.1,0,0,0-6.7-10.7,105.7,105.7,0,0,0-9.5-10.4c-4.5-4.5-8.7-8.2-12-11.4a107.7,107.7,0,0,1-7.7-7.8,16.4,16.4,0,0,1-3.1-4.7C68.3,369.2,68.3,368.7,68,368.7Z"/><path class="cls-11" d="M57.9,393.6a1.3,1.3,0,0,0,.1.5l.2.5.3.7a20.1,20.1,0,0,0,3.2,4.2,54.3,54.3,0,0,0,6.7,5.9l10.1,7.8,4.3,3.6a52.5,52.5,0,0,1,4.2,4,53.4,53.4,0,0,1,3.9,4.4l1.6,2.3.8,1.2.6,1.2a25.3,25.3,0,0,1,1.2,2.3,5.4,5.4,0,0,0,.5,1.1l.3,1.1a4.9,4.9,0,0,1,.4,1.1l.3,1a2.9,2.9,0,0,0,.2.9c.1.3.1.6.2.9a7.7,7.7,0,0,1,.2,1.5,4.5,4.5,0,0,1,.1,1.1,6.7,6.7,0,0,1,.1,1v-1c0-.3-.1-.7-.1-1.1a7.7,7.7,0,0,0-.2-1.5c0-.3-.1-.6-.1-.9a3.6,3.6,0,0,1-.2-1l-.3-1-.3-1.1-.3-1.1-.5-1.2a25.6,25.6,0,0,0-1.1-2.4l-.6-1.2a7.5,7.5,0,0,1-.7-1.2l-1.6-2.4a59.9,59.9,0,0,0-3.8-4.7l-4.2-4.2-4.3-3.6c-3.9-3.2-7.3-5.7-10.1-7.9s-5-4.1-6.7-5.7a27.7,27.7,0,0,1-3.3-3.8,2.1,2.1,0,0,1-.4-.6l-.3-.4Z"/><path class="cls-11" d="M54.3,416c-.4-.1-.6.2-.7.9a9,9,0,0,0,1.5,4,64.3,64.3,0,0,0,5.7,7.6c2.7,3.2,6.2,6.9,9.9,11.3a94.9,94.9,0,0,1,7.6,9.7c2.2,3.3,3.7,6.4,4,8.8a6.5,6.5,0,0,1-1.4,5.5,2.3,2.3,0,0,1-.7.7l-.6.5-.6.5.7-.4.8-.5.8-.7a6.6,6.6,0,0,0,2.3-5.2c0-2.4-1.1-5.5-3.1-8.7a81,81,0,0,0-7.1-9.8L63.7,429a87.8,87.8,0,0,1-6-7.5C55.1,417.7,55,416.2,54.3,416Z"/><path class="cls-11" d="M87.1,349.3c-.2,0-.2.5-.2,1.5a14.5,14.5,0,0,0,1.3,4.5,39.8,39.8,0,0,0,4.1,7c1.9,2.7,4.4,5.8,7.3,9.3s9.7,10.8,13.2,16c.9,1.2,1.7,2.5,2.4,3.6l.8,1.6.7,1.5a6.1,6.1,0,0,1,.5,1.2,4.7,4.7,0,0,1,.3.9l.3.8-.2-.8-.3-.9c-.1-.4-.3-.8-.4-1.3a11.6,11.6,0,0,1-.6-1.5l-.8-1.6a30.7,30.7,0,0,0-2.2-3.8c-3.3-5.4-8.5-11.5-12.7-16.5-2.9-3.5-5.3-6.6-7.2-9.2a46.9,46.9,0,0,1-4.1-6.8C87.5,351.1,87.5,349.2,87.1,349.3Z"/><path class="cls-11" d="M49.1,438.3q-.5-.2-.6.9a8.2,8.2,0,0,0,1.1,3.7,41.4,41.4,0,0,0,4.3,6.8c2,2.8,4.7,6.1,7.6,10a101.1,101.1,0,0,1,5.8,8.7c1.6,2.9,2.7,5.7,2.8,8a7.4,7.4,0,0,1-1.3,5.1l-.6.7-.6.5-.5.4.6-.4.6-.4.8-.7a7.5,7.5,0,0,0,2.1-4.9,16.7,16.7,0,0,0-2.2-8,56.9,56.9,0,0,0-5.4-8.7c-2.8-3.9-5.4-7.3-7.4-10a55.6,55.6,0,0,1-4.5-6.7C49.7,439.9,49.7,438.5,49.1,438.3Z"/><path class="cls-12" d="M90.8,347.1a35,35,0,0,0-4.9,2.9l-4.4,3.5a66.2,66.2,0,0,0-7.5,8.4,84,84,0,0,0-6.1,9.4l-1.3,2.5-1.2,2.4c-.8,1.8-1.5,3.4-2.2,5.2a121.3,121.3,0,0,0-6.5,21.5,204.7,204.7,0,0,0-3.3,22.2c-.2,1.9-.3,3.8-.4,5.7s-.3,3.7-.4,5.6l-.2,5.7v5.6q-.1,5.7,0,11.4c.1,3.8.2,7.6.4,11.3.6,15.2,2,30.4,3.4,45.7A316.1,316.1,0,0,1,48,470.8a237.7,237.7,0,0,1-.5-46.2l.6-5.8c.2-1.9.6-3.9.9-5.8l.4-2.9.6-2.8c.4-1.9.7-3.8,1.2-5.7l1.5-5.7,1.8-5.5c.6-1.9,1.3-3.7,2-5.5s1.6-3.6,2.4-5.4A79.2,79.2,0,0,1,71.7,360a53.4,53.4,0,0,1,8.8-7.7A32.3,32.3,0,0,1,90.8,347.1Z"/><path class="cls-13" d="M92.8,346.1s39.5,31.4,14.3,77.3c-5.5,10.1-20.2,21.3-25.9,31.3C53.5,504.2,61.9,497.5,57,512.8c0,0,4.5-20.5,24.3-48.9,0,0,18.8-25.4,21.6-29.8,9.3-14.3,19-21.4,15.7-49.4C118.6,384.7,113.7,344.3,92.8,346.1Z"/><path class="cls-8" d="M85.8,340.1S62.1,324,34.4,352.2c0,0-43.3,54.9-13.3,103.8,0,0,30.5,45.6,32.1,53.5,0,0-6.1-10.7-19.5-27.2,0,0-26.1-36.6-26.6-60.9,0,0-10.2-37.5,27.6-76.9C34.7,344.5,59.2,313.2,85.8,340.1Z"/><path class="cls-7" d="M277.7,315.7s-5.7-15-16.4-18.4l-4.2,2s10.7,1.9,19.3,15.9Z"/><path class="cls-8" d="M257.1,299.3s10.8,1.5,19.3,15.9l.6.2s-8.4-15.6-19.1-16.5Z"/><path class="cls-9" d="M261.3,297.3s8.2,2.8,13.9,13.2c0,0-5.4-8.8-14.1-13.1Z"/><path class="cls-1" d="M303.7,428.9h-.1c0-.1-.1-.2-.2-.3Z"/><path class="cls-14" d="M304.5,429.5h.1s.1.2-.1.2l-.4-.2H304c-.1-.1-.2-.3,0-.3a.5.5,0,0,1,.5.3H304c-.1-.1-.2-.3,0-.3A.9.9,0,0,1,304.5,429.5Z"/><path class="cls-10" d="M269.6,353.5c-4.8-41.6,6.2-40.7,6.2-40.7,2-5.1,14.4-5.7,28.1,14.9,10.6,15.8,6.7,24.9,2,52.4-5.3,30.9-.5,44.8.8,46.7C297.9,415.7,273.2,384.7,269.6,353.5Z"/><path class="cls-7" d="M250.3,311.8c7.1-5.6,19.6-4.5,25.5,1,0,0-13.3,15.4-2.6,51.6,8.9,30,24.5,51.1,33.2,62.1.1.2.2.2.2.3-6.6-7.5-27.2-13.7-45.9-28.9C222.8,367.1,240.4,319.6,250.3,311.8Z"/><path class="cls-11" d="M258.2,395.7v-1.2a16.8,16.8,0,0,1,.3-3.5,32.5,32.5,0,0,1,1.4-5.6c.8-2.1,1.8-4.5,3.1-7.3s1.9-4,2.9-6.1,1.9-4.3,2.7-6.3a23.5,23.5,0,0,0,1.5-5.4,6,6,0,0,0,.1-1.8v0a11.6,11.6,0,0,1-.1,1.7,22.2,22.2,0,0,1-1.6,5.3c-.8,2-1.8,4.1-2.8,6.2s-2.1,4.1-3,6.1a56.7,56.7,0,0,0-3,7.3,26.9,26.9,0,0,0-1.5,5.7,12.6,12.6,0,0,0-.2,3.7c0,.4.1.7.1.9A.4.4,0,0,0,258.2,395.7Z"/><path class="cls-11" d="M268,333.8c-.1,0,0,.5-.2,1.4s-.3,1.1-.6,1.8a20.1,20.1,0,0,1-1,2.3,58.2,58.2,0,0,1-3.9,6.1c-1.7,2.4-3.8,5.1-6.1,8.4a85,85,0,0,0-5.1,8,43.8,43.8,0,0,0-3.9,8.9,17.4,17.4,0,0,0-.9,4.3,14.5,14.5,0,0,0-.2,3.5v1.4a3.8,3.8,0,0,1,.1,1l.2.8-.2-.8v-1a6.1,6.1,0,0,1-.1-1.4,23.6,23.6,0,0,1,.3-3.5,25.3,25.3,0,0,1,1-4.2,39.9,39.9,0,0,1,4-8.7,81,81,0,0,1,5.1-7.8l6.2-8.5a38.5,38.5,0,0,0,3.8-6.2,23.5,23.5,0,0,0,1.1-2.4c.2-.7.3-1.4.4-1.9S268.1,333.8,268,333.8Z"/><path class="cls-11" d="M274.4,313.7c-.1,0-.1.5-.6,1.3a26.4,26.4,0,0,1-2.9,3.6l-5.8,5.7c-2.3,2.3-5.1,5.1-8.2,8.5a70.3,70.3,0,0,0-6.5,8.3c-1.1,1.5-2,3-2.9,4.5s-1.6,3.1-2.3,4.6-1.1,2.9-1.5,4.2a33.4,33.4,0,0,0-.8,3.5,13.1,13.1,0,0,0-.3,2.3,6.2,6.2,0,0,0-.1.9,6.2,6.2,0,0,1,.1-.9c.1-.5.2-1.3.4-2.3s.5-2.1.9-3.4a32.2,32.2,0,0,1,1.6-4.2c.7-1.4,1.5-2.9,2.4-4.4a37.9,37.9,0,0,1,2.9-4.5,92.5,92.5,0,0,1,6.6-8.1c3.1-3.4,5.9-6.1,8.2-8.5s4.3-4.2,5.7-5.8a14.3,14.3,0,0,0,2.8-3.8l.4-1.1A.6.6,0,0,0,274.4,313.7Z"/><path class="cls-11" d="M278.3,380.1v.7a13.1,13.1,0,0,1-.3,2.3,35.6,35.6,0,0,1-1,3.6l-1.5,5c-.5,1.4-.9,3-1.3,4.6a28.1,28.1,0,0,0-.9,4.9,19.5,19.5,0,0,0-.2,2.3,9,9,0,0,0,.2,1.8,3.7,3.7,0,0,0,.2,1.2.4.4,0,0,0,.1.3h0a.4.4,0,0,1-.1-.3,3.7,3.7,0,0,1-.2-1.2,9.7,9.7,0,0,1-.1-1.8,18,18,0,0,1,.2-2.2,27.3,27.3,0,0,1,1-4.8c.4-1.6.9-3.1,1.3-4.5s1.2-3.6,1.6-5.1.7-2.6.9-3.6a9.3,9.3,0,0,0,.2-1.4v-1C278.4,380.3,278.4,380.1,278.3,380.1Z"/><path class="cls-11" d="M289,402.5a.4.4,0,0,0-.1.3.4.4,0,0,0-.1.3c-.1.2-.1.4-.2.6a6.4,6.4,0,0,1-.7,1.6l-1.4,2.2a22.5,22.5,0,0,0-1.2,2.1,4.5,4.5,0,0,0-.6,2.1,2.3,2.3,0,0,0,.5,1.6v.2c.1.1.1.2.2.2a.1.1,0,0,0,.1.1.1.1,0,0,1-.1-.1c-.1-.1-.1-.1-.1-.2l-.2-.2a2.6,2.6,0,0,1-.3-1.6,6,6,0,0,1,.7-2l1.3-2,1.5-2.3a5.6,5.6,0,0,0,.7-1.7,4.3,4.3,0,0,1,.1-.5v-.4C289.1,402.5,289.1,402.4,289,402.5Z"/><path class="cls-11" d="M268.5,332.8c-.1,0-.1.3.3.9a9.4,9.4,0,0,0,3.2,2.2,58.8,58.8,0,0,0,7,2.5l10.8,3.2a80.1,80.1,0,0,1,8.9,3.3,34.5,34.5,0,0,1,7.5,4.2,15.8,15.8,0,0,1,3.9,4.2c.4.6.6,1.1.8,1.4l.2.5-.2-.5a7.3,7.3,0,0,0-.6-1.4,16.5,16.5,0,0,0-3.7-4.4,29.4,29.4,0,0,0-7.3-4.4,74.6,74.6,0,0,0-8.9-3.5l-10.7-3.3a55,55,0,0,1-7-2.4,17.1,17.1,0,0,1-3.3-1.8C268.8,333,268.6,332.7,268.5,332.8Z"/><path class="cls-11" d="M269.9,350.9c0,.1,0,.1.2.3l.2.2c.1.1.3.2.4.4a15.1,15.1,0,0,0,3.3,1.5,35.6,35.6,0,0,0,5.8,1.6l8.5,1.7,3.7.8c1.2.4,2.5.7,3.7,1.2a23.9,23.9,0,0,1,3.7,1.5l1.7.9.8.5.8.5,1.4,1.1.6.5.6.5.5.6.5.5.4.5.4.5.6.8a4.3,4.3,0,0,0,.4.7l.3.5-.3-.6-.4-.6a2.4,2.4,0,0,0-.6-.9l-.3-.5-.4-.5c-.2-.2-.3-.4-.5-.5l-.5-.6-.6-.6-.6-.5-1.4-1.2-.7-.5-.8-.5-1.7-1a30.4,30.4,0,0,0-3.7-1.7l-3.8-1.2-3.7-1-8.5-1.7-5.8-1.4a33.3,33.3,0,0,1-3.2-1.3l-.4-.3h-.6Z"/><path class="cls-11" d="M274.4,365.6c-.2,0-.3.3-.1.8a7.5,7.5,0,0,0,2.2,1.9,29.2,29.2,0,0,0,5.7,2.9l9.4,3.8c2.5,1.1,5.3,2.3,7.6,3.6a16.1,16.1,0,0,1,5.1,4.2,4.9,4.9,0,0,1,.8,3.7,1.9,1.9,0,0,0-.2.7l-.3.5-.2.4.3-.4.3-.6.3-.6a4.2,4.2,0,0,0-.2-3.9,11.7,11.7,0,0,0-4.5-4.3,45.5,45.5,0,0,0-7.3-3.8l-9.2-3.9-5.9-2.7C275.4,366.4,275,365.5,274.4,365.6Z"/><path class="cls-11" d="M289.1,401.6c-.1,0,0,.2.1.5l1.1,1,1,.7,1.2.6,3.3,1.3,2.8,1.4a17.4,17.4,0,0,1,2.6,1.9,13.5,13.5,0,0,1,1.7,1.7l.4.5.2.2v-.2l-.5-.6-1.5-1.8a17.3,17.3,0,0,0-2.5-2.1,11.8,11.8,0,0,0-2.9-1.6l-3.3-1.4-2.1-1.1C289.6,401.9,289.2,401.5,289.1,401.6Z"/><path class="cls-11" d="M274.2,315.2c-.1.1,0,.4.3,1a10.1,10.1,0,0,0,2.1,2.3,28,28,0,0,0,4.6,3.1c2,1,4.4,2.1,7.3,3.3s9.1,3.7,12.8,5.7a18.1,18.1,0,0,1,2.5,1.6,4.1,4.1,0,0,1,1.1.7l.8.6.7.6.5.5.4.4-.4-.4a1.2,1.2,0,0,0-.5-.5l-.6-.7-.8-.7-1-.7a27.1,27.1,0,0,0-2.5-1.7,104.7,104.7,0,0,0-12.6-6.1c-2.9-1.3-5.3-2.4-7.2-3.4a29.5,29.5,0,0,1-4.5-2.9C275,316.2,274.4,315.1,274.2,315.2Z"/><path class="cls-11" d="M278.1,380.7c-.2,0-.3.3-.1.7a5.3,5.3,0,0,0,1.7,1.9,38.6,38.6,0,0,0,4.7,2.8l7.6,3.8a47.1,47.1,0,0,1,6.2,3.5,14.2,14.2,0,0,1,4.1,4,4.8,4.8,0,0,1,.7,3.5c0,.2-.1.4-.1.6s-.1.4-.2.5l-.2.4.3-.4a1.7,1.7,0,0,1,.2-.5l.3-.6a4.9,4.9,0,0,0-.3-3.7,11.4,11.4,0,0,0-3.7-4.1,34.7,34.7,0,0,0-5.9-3.7l-7.5-3.8-4.8-2.7C278.9,381.4,278.5,380.6,278.1,380.7Z"/><path class="cls-12" d="M275.8,312.8a13.8,13.8,0,0,0-2,3.3,21.7,21.7,0,0,0-1.5,3.5,45.8,45.8,0,0,0-1.8,7.3,58,58,0,0,0-.4,15c1,10,3.9,19.7,7.5,29.1a248.7,248.7,0,0,0,13,27.7c4.8,9,10.1,17.9,15.2,27a191.8,191.8,0,0,1-19.3-24.6A157,157,0,0,1,272,373.2c-3.8-9.9-6.5-20.3-6.6-31.1a57.6,57.6,0,0,1,2.2-15.9,47.5,47.5,0,0,1,3.2-7.3A21.2,21.2,0,0,1,275.8,312.8Z"/><path class="cls-13" d="M276.7,311.6s33.4,7,32,42.5c-.3,7.8-5.8,19-6.2,26.8-1.8,38.4,1.2,31.8,2.9,42.5,0,0-3.5-13.7-.1-36.9,0,0,3.7-21.1,4.1-24.7,1.3-11.4,5-18.6-5.4-34.7C304,327.1,288.8,304.2,276.7,311.6Z"/><path class="cls-8" d="M270.6,310s-19.3-2.5-27.5,23c0,0-9.6,46.3,23.4,66.9,0,0,32.2,18.4,35.6,22.7a158.7,158.7,0,0,0-20-10.6s-27-14.3-34.6-28.8c0,0-17.6-19.7-6.5-55.1C241,328.1,246.3,301.8,270.6,310Z"/><path class="cls-7" d="M178.3,228.9s-11.2-5.8-19.2-2.1l-1.4,3.4s7.3-4.6,19.6-.9Z"/><path class="cls-8" d="M157.7,230.2s7.1-4.8,19.6-.9l.5-.2s-13.1-4.7-19.8.5Z"/><path class="cls-9" d="M159.1,226.8s6.3-2.7,15.1.4c0,0-7.9-2.3-15.1-.2Z"/><path class="cls-1" d="M253.1,281.2h0Z"/><path class="cls-14" d="M253.8,281.2h.1c.1,0,.3,0,.2.1h-.6s-.2-.1-.1-.2h.5l-.2.2h-.2s-.2-.1-.1-.2Z"/><path class="cls-10" d="M193.6,255.2c-24.8-21.7-17.9-27-17.9-27-1.5-4,5.4-10.9,24.3-6.1,14.4,3.6,17,11,28.7,29.5,13.1,20.8,23.2,26.4,25,26.8C242.8,276.6,212,271.5,193.6,255.2Z"/><path class="cls-7" d="M160.3,241c1.2-6.9,9.1-12.9,15.4-12.8,0,0,.4,16,25.7,31.5,20.9,12.8,41.1,16.9,52,18.7h.3c-7.8-.8-23.1,6.4-42,7.4C173.4,287.8,158.6,250.8,160.3,241Z"/><path class="cls-11" d="M209.1,285.8s0-.1-.2-.2l-.4-.5a8.8,8.8,0,0,1-1.7-2.2,24.3,24.3,0,0,1-2.1-4c-.7-1.7-1.4-3.6-2.1-5.8s-1-3.4-1.5-5.2-1.1-3.5-1.7-5.1a17.6,17.6,0,0,0-2-3.9l-.9-1.2h-.3a.1.1,0,0,0-.1-.1.1.1,0,0,1,.1.1c.1,0,.1,0,.1.1s.1.1.2.2l.9,1.1a20.8,20.8,0,0,1,1.8,3.9c.6,1.6,1.1,3.3,1.6,5.1l1.5,5.1c.7,2.2,1.3,4.2,2,5.8a26.8,26.8,0,0,0,2.2,4.2,17.7,17.7,0,0,0,1.8,2.2l.6.5Z"/><path class="cls-11" d="M182.2,244.5l.6,1,.7,1.3c.2.5.4,1.2.6,1.9s.6,3.3.9,5.6.5,5,.9,8.2.6,4.7,1.2,7.3a29,29,0,0,0,2.4,7.2,21.4,21.4,0,0,0,1.7,3,14.2,14.2,0,0,0,1.8,2.2,4.6,4.6,0,0,0,.7.7l.6.5.5.5-.5-.5-.6-.5-.7-.8a15.4,15.4,0,0,1-1.7-2.2,15.7,15.7,0,0,1-1.6-2.9,33.7,33.7,0,0,1-2.3-7.2c-.5-2.5-.8-5-1.1-7.3s-.6-5.8-.8-8.1a32,32,0,0,0-1.1-5.7c-.2-.7-.4-1.4-.6-1.9a8.7,8.7,0,0,0-.8-1.4A3.9,3.9,0,0,0,182.2,244.5Z"/><path class="cls-11" d="M175.4,229.5c-.1,0,.2.3.3,1.1a16.3,16.3,0,0,1,.2,3.6q-.2,2.4-.3,6.3c-.2,2.6-.4,5.7-.4,9.3a83.1,83.1,0,0,0,.6,8.3c.2,1.4.4,2.8.7,4.2s.7,2.6,1.1,3.8a25.2,25.2,0,0,0,1.3,3.3,25.5,25.5,0,0,0,1.4,2.4l1,1.6.4.5-.4-.6c-.2-.3-.6-.8-1-1.5a19.7,19.7,0,0,1-1.2-2.5,25.2,25.2,0,0,1-1.3-3.3c-.4-1.2-.7-2.5-1-3.8l-.6-4.2a77.5,77.5,0,0,1-.4-8.2c0-3.6.2-6.7.3-9.2s.3-4.7.3-6.4a11.4,11.4,0,0,0-.4-3.7,1.9,1.9,0,0,0-.4-.8Z"/><path class="cls-11" d="M212.6,266.1l.4.5,1,1.4c.4.7.8,1.6,1.3,2.6l1.8,3.8a32.9,32.9,0,0,0,1.6,3.3,19.4,19.4,0,0,0,2.1,3.4,7.6,7.6,0,0,0,1.1,1.4,9.4,9.4,0,0,0,1,1l.8.6h.2l-.2-.2-.8-.5-1-1.1a14.7,14.7,0,0,1-1-1.3,36.2,36.2,0,0,1-2-3.3l-1.6-3.4-1.7-3.8-1.4-2.6-.6-.9-.5-.6Z"/><path class="cls-11" d="M230.6,273.5c0,.1,0,.1.1.3a.3.3,0,0,1,.1.2c.1.2.2.3.2.5a3.3,3.3,0,0,1,.4,1.3,8.8,8.8,0,0,1,.4,2,12.9,12.9,0,0,0,.4,1.9,2.8,2.8,0,0,0,.8,1.5,1.9,1.9,0,0,0,1.1.7h.2a.1.1,0,0,1,.1.1h.2a.1.1,0,0,1-.1-.1h-.4a2,2,0,0,1-1-.7,5.9,5.9,0,0,1-.7-1.6l-.3-1.8c-.1-.8-.2-1.6-.3-2.1a3.8,3.8,0,0,0-.5-1.4.5.5,0,0,1-.2-.4l-.3-.2Z"/><path class="cls-11" d="M182,243.7c-.1.1.1.3.7.4a7.3,7.3,0,0,0,2.9-.4,47.7,47.7,0,0,0,5.5-2.3l7.9-3.8c2.2-.9,4.6-2,7-2.8a25.2,25.2,0,0,1,6.6-1.4,11.9,11.9,0,0,1,4.5.4l1.1.4.4.2-.4-.3-1.1-.5a15.5,15.5,0,0,0-4.4-.6,25.5,25.5,0,0,0-6.6,1.3,53.4,53.4,0,0,0-7,2.7c-3.1,1.3-5.7,2.6-8,3.7l-5.3,2.3a9,9,0,0,1-2.9.6Z"/><path class="cls-11" d="M192.3,253.5h1a12,12,0,0,0,2.7-.8,44.9,44.9,0,0,0,4.2-2.2l5.8-3.5,2.6-1.4,2.8-1.3a17.6,17.6,0,0,1,3-1l1.4-.4h.8l.7-.2h5.5l.6.2h0l-.6-.2-.7-.2h-6.3l-1.6.3-3,1-2.9,1.3-2.6,1.4-5.9,3.4a35,35,0,0,1-4.1,2.2l-2.5,1h-.9Z"/><path class="cls-11" d="M202.7,259.7c-.1.1,0,.3.3.5a5.6,5.6,0,0,0,2.3,0,33.2,33.2,0,0,0,4.9-1.3l7.5-2.7a50.3,50.3,0,0,1,6.3-1.9,11.5,11.5,0,0,1,5.1-.3,3.8,3.8,0,0,1,2.5,1.8c0,.2.1.3.2.5v.4a.8.8,0,0,1,.1.3v-.4c-.1-.1-.1-.2-.1-.4s-.1-.4-.2-.6a3.3,3.3,0,0,0-2.1-2.1,10.1,10.1,0,0,0-5-.2,56.8,56.8,0,0,0-6.2,1.6l-7.4,2.7-4.9,1.5C203.7,259.6,203,259.4,202.7,259.7Z"/><path class="cls-11" d="M230.2,273c0,.1.1.1.3.2a4.7,4.7,0,0,0,1.2,0h.9l1.1-.3,2.6-1a14,14,0,0,1,2.4-.6l2.4-.3H243l-1.9-.3h-2.5l-2.5.5-2.7,1-1.8.5C230.7,272.9,230.2,272.9,230.2,273Z"/><path class="cls-11" d="M176,230.5l.7.4,2.5.2a19.1,19.1,0,0,0,4.3-.6l6-1.9a106.8,106.8,0,0,1,10.5-3.4l2.3-.5h-.1l-2.3.4a105.2,105.2,0,0,0-10.6,3l-5.9,1.8a21.5,21.5,0,0,1-4.2.8C177,230.6,176.1,230.3,176,230.5Z"/><path class="cls-11" d="M212.8,266.6c-.1.1,0,.3.3.5a5.6,5.6,0,0,0,2,.1,17.5,17.5,0,0,0,4.2-.8c1.8-.4,4-1.1,6.4-1.8a54.1,54.1,0,0,1,5.5-1.2,10.9,10.9,0,0,1,4.5.2,3.8,3.8,0,0,1,2.3,1.6l.2.5a.4.4,0,0,1,.1.3,1.1,1.1,0,0,0,.2.4,1,1,0,0,1-.1-.4c-.1-.1-.1-.2-.1-.4s-.1-.3-.2-.5a4.1,4.1,0,0,0-2.1-2,9.3,9.3,0,0,0-4.3-.5c-1.7.2-3.6.6-5.4,1l-6.4,1.7-4.2,1C213.6,266.6,213,266.3,212.8,266.6Z"/><path class="cls-12" d="M175.7,228.2a16.3,16.3,0,0,0,.7,3c.3.9.6,1.8,1,2.7a36.9,36.9,0,0,0,2.9,5.2,53.9,53.9,0,0,0,7.8,8.7c5.8,5.2,12.6,9.2,19.6,12.8a213.9,213.9,0,0,0,22,9.4c7.5,2.8,15.2,5.4,22.9,8.2a125.2,125.2,0,0,1-24.3-3.7A108.5,108.5,0,0,1,205,266a71.9,71.9,0,0,1-20.3-14.9,42.4,42.4,0,0,1-7-10.6,26.6,26.6,0,0,1-1.8-6.1A16.2,16.2,0,0,1,175.7,228.2Z"/><path class="cls-13" d="M175.6,227s23.2-13.4,41,8c4,4.7,6.6,14.1,10.5,18.9,19.2,23.3,17.5,17.8,24.1,23.2,0,0-9.3-6.1-19.5-21.5,0,0-9-14.2-10.6-16.5-5.3-7.3-6.9-13.5-21.4-17.4C199.7,221.7,178.7,216.3,175.6,227Z"/><path class="cls-8" d="M171.2,229.3s-12.5,8.7-3.9,27.9c0,0,18.7,32.1,48.8,26.7,0,0,28.5-6.3,32.7-5.5a115.7,115.7,0,0,0-17.2,4.3s-23.3,5.9-35.4,1.4c0,0-20.5-2.2-32.7-28.6C163.5,255.5,152.7,237.3,171.2,229.3Z"/></g></g></g></g></g></svg>