<svg xmlns="http://www.w3.org/2000/svg" xmlns:xlink="http://www.w3.org/1999/xlink" viewBox="0 0 443.8 451.5"><defs><style>.cls-1{fill:none;}.cls-2{isolation:isolate;}.cls-3{opacity:0.5;}.cls-4{fill:url(#linear-gradient);}.cls-5{fill:#31d0e5;stroke-width:6px;stroke:url(#linear-gradient-2);}.cls-10,.cls-5,.cls-7{stroke-miterlimit:10;}.cls-6{clip-path:url(#clip-path);}.cls-7{fill:#41a022;stroke:#38841c;stroke-width:0.5px;}.cls-8{fill:#204910;opacity:0.32;}.cls-9{fill:#8fc12f;}.cls-13,.cls-9{opacity:0.51;}.cls-10{fill:#48bc28;stroke:#45a525;}.cls-11,.cls-12{fill:#b0e573;}.cls-11{mix-blend-mode:screen;opacity:0.69;}.cls-13{fill:#b6f261;}.cls-14{fill:#353535;}</style><linearGradient id="linear-gradient" x1="43.17" y1="103.28" x2="392.43" y2="342.6" gradientUnits="userSpaceOnUse"><stop offset="0" stop-color="#9b81cf"/><stop offset="1" stop-color="#3b139b"/></linearGradient><linearGradient id="linear-gradient-2" x1="16.1" y1="225.74" x2="427.68" y2="225.74" gradientUnits="userSpaceOnUse"><stop offset="0" stop-color="#4c1da9"/><stop offset="1" stop-color="#997ece"/></linearGradient><clipPath id="clip-path"><circle class="cls-1" cx="222.6" cy="226.4" r="199.8"/></clipPath></defs><g class="cls-2"><g id="SB39_Interactive_Icon_13_F1"><path class="cls-3" d="M435.1,237a208.3,208.3,0,0,0-25.4-100A211.6,211.6,0,0,0,221.9,23C105,23,10.2,117.8,10.2,234.7S105,446.3,221.9,446.3c3,0,5.9,0,8.9-.2C344.1,443.6,435.1,350.9,435.1,237Z"/><circle class="cls-4" cx="221.9" cy="225.7" r="211.7"/><circle class="cls-5" cx="221.9" cy="225.7" r="202.8"/><g id="_001" data-name="001"><g class="cls-6"><g id="_009" data-name="009"><path class="cls-7" d="M71.6,424.1s-6.8-22.7-22.2-28.7L43,397.9s15.6,3.8,26.9,25.3Z"/><path class="cls-8" d="M43,397.9s15.7,3.3,26.9,25.3l.7.4S60,399.7,44.2,397.4Z"/><path class="cls-9" d="M49.4,395.4s11.8,4.9,19.1,20.9c0,0-7.1-13.7-19.4-20.8Z"/><path class="cls-10" d="M55.9,479c-2.9-61.8,13.2-59.4,13.2-59.4,3.6-7.2,21.8-6.9,40,24.8,13.9,24.4,7.3,37.4-2.4,77.4-11,44.9-5.4,65.9-3.6,68.8C91.3,573.5,58,525.2,55.9,479Z"/><path class="cls-7" d="M31.7,415.6c11-7.5,29.3-4.7,37.4,4,0,0-21.2,21.4-9,75.9,10,45,30.8,77.6,42.6,94.8l.3.4c-9-11.7-38.8-23-64.7-47.2C-14.5,494.3,16.3,426,31.7,415.6Z"/><path class="cls-11" d="M55.6,449.8a12.6,12.6,0,0,0-.6,2.1c-.2.7-.5,1.5-.9,2.5a18.4,18.4,0,0,1-1.8,3.3,99.4,99.4,0,0,1-6.3,8.6c-2.7,3.3-6.1,7.1-9.9,11.8a135.9,135.9,0,0,0-8.3,11.2A62,62,0,0,0,21.1,502a42.3,42.3,0,0,0-1.8,6.2,25.9,25.9,0,0,0-.6,5.2,14.1,14.1,0,0,0-.1,2,8.6,8.6,0,0,1,.1,1.5,10.9,10.9,0,0,1,.1,1.2,10.9,10.9,0,0,0-.1-1.2v-1.5a14.1,14.1,0,0,1,.1-2,36.3,36.3,0,0,1,.7-5.1,42.2,42.2,0,0,1,1.9-6.1,63.7,63.7,0,0,1,6.8-12.5c2.7-3.9,5.6-7.6,8.4-10.9L46.5,467a85.6,85.6,0,0,0,6.3-8.8,29.4,29.4,0,0,0,1.8-3.5,11.4,11.4,0,0,0,.8-2.7A7.4,7.4,0,0,0,55.6,449.8Z"/><path class="cls-11" d="M67,420.8a13.4,13.4,0,0,1-1.1,1.9,26.8,26.8,0,0,1-4.6,4.9l-9,7.9c-3.7,3.1-8.1,6.9-13,11.7a149.8,149.8,0,0,0-10.5,11.5l-4.7,6.4c-1.4,2.2-2.7,4.4-3.8,6.5a58.5,58.5,0,0,0-2.6,6.1c-.7,1.9-1.2,3.6-1.6,5a25.7,25.7,0,0,0-.7,3.4c-.1.8-.2,1.3-.2,1.3a11.3,11.3,0,0,0,.2-1.2c.2-.8.4-2,.8-3.4s1-3.1,1.7-5a62.3,62.3,0,0,1,2.8-5.9c1.2-2.1,2.5-4.2,3.9-6.4s3.1-4.2,4.8-6.3A144.1,144.1,0,0,1,40,448c4.9-4.7,9.3-8.5,13-11.7s6.7-5.7,8.9-7.9a22.4,22.4,0,0,0,4.5-5.4,5.2,5.2,0,0,0,.7-1.6C67.1,421,67.1,420.8,67,420.8Z"/><path class="cls-11" d="M56.4,448.3c-.2,0-.3.5.4,1.4s2,2.2,4.4,3.5a80.4,80.4,0,0,0,10.1,4.5l15.5,5.8a134.3,134.3,0,0,1,12.9,5.8,52.5,52.5,0,0,1,10.6,6.9,24.4,24.4,0,0,1,5.3,6.6,8.1,8.1,0,0,1,.9,2.1l.3.8-.2-.8a15.9,15.9,0,0,0-.8-2.2,21.8,21.8,0,0,0-4.9-6.7,47.8,47.8,0,0,0-10.3-7.3,113.8,113.8,0,0,0-12.8-6c-5.9-2.4-11.1-4.3-15.4-5.9a84.5,84.5,0,0,1-10.1-4.3,16.8,16.8,0,0,1-4.7-3.1C56.8,448.7,56.6,448.2,56.4,448.3Z"/><path class="cls-11" d="M66.5,423c-.1.1,0,.6.4,1.5a17.2,17.2,0,0,0,2.9,3.7,40.3,40.3,0,0,0,6.5,4.9,113.2,113.2,0,0,0,10.3,5.7c5.9,3,13.1,6.3,18.3,9.7a43.7,43.7,0,0,1,3.6,2.5l1.4,1.2,1.2,1,.9,1a4.6,4.6,0,0,1,.7.7l.5.6-.5-.6a2.1,2.1,0,0,0-.6-.8l-.8-1-1.2-1.1-1.4-1.3-3.4-2.6c-5.2-3.7-12.3-7.4-18-10.4-4.1-2.1-7.5-4-10.3-5.7a42.7,42.7,0,0,1-6.3-4.7C67.6,424.6,66.8,422.9,66.5,423Z"/><path class="cls-12" d="M69.1,419.6a26.1,26.1,0,0,0-3.4,4.6,46.7,46.7,0,0,0-2.7,4.9,67,67,0,0,0-3.8,10.6,81.8,81.8,0,0,0-2,11c-.1.9-.1,1.9-.2,2.8l-.2,2.8c0,1.9-.1,3.7-.1,5.6A140.6,140.6,0,0,0,59,484.2,210.7,210.7,0,0,0,64.5,506c.5,1.8,1.2,3.6,1.8,5.4s1.1,3.6,1.8,5.3l2,5.3,1,2.7,1,2.6c1.4,3.5,2.8,7,4.4,10.5s3.1,6.9,4.7,10.4c6.4,13.7,13.6,27.2,20.7,40.7A306,306,0,0,1,77,550.3a234.5,234.5,0,0,1-18.2-42.5l-1.6-5.6c-.6-1.9-1-3.8-1.4-5.7l-.7-2.8-.6-2.8c-.3-2-.8-3.9-1-5.8l-.8-5.8-.5-5.8c-.2-1.9-.2-3.9-.3-5.9s.1-3.9.2-5.8a78.6,78.6,0,0,1,4.3-23,60.3,60.3,0,0,1,5.2-10.5A36.8,36.8,0,0,1,69.1,419.6Z"/><path class="cls-13" d="M70.6,417.9s48.4,13.9,42.8,65.9c-1.2,11.5-10.5,27.4-11.8,38.9-6.6,56.3-1.5,46.9-.1,62.9,0,0-3.8-20.6,3.7-54.4,0,0,7.5-30.8,8.5-35.9,3-16.8,9.3-27-4.5-51.6C109.2,443.7,89.2,408.2,70.6,417.9Z"/><path class="cls-8" d="M61.8,415.1S33.7,409.3,18.9,446c0,0-18.9,67.3,27.7,100.9,0,0,45.6,30.4,50.1,37.1,0,0-9.7-7.5-28.4-17.7,0,0-38.2-23.7-48-45.9,0,0-23.8-30.8-4-81.7C16.3,438.7,26.9,400.4,61.8,415.1Z"/><path class="cls-7" d="M270.7,380.8s-5.7-15-16.3-18.3l-4.3,2s10.8,1.8,19.4,15.8Z"/><path class="cls-8" d="M250.1,364.5s10.8,1.5,19.4,15.8l.5.2s-8.3-15.6-19.1-16.4Z"/><path class="cls-9" d="M254.4,362.5s8.2,2.7,13.8,13.2c0,0-5.4-8.9-14-13.1Z"/><path class="cls-10" d="M262.6,418.7c-4.8-41.7,6.2-40.8,6.2-40.8,2.1-5.1,14.4-5.7,28.2,14.9,10.5,15.8,6.7,25,2,52.4-5.3,30.9-.6,44.8.7,46.7C291,480.8,266.2,449.8,262.6,418.7Z"/><path class="cls-7" d="M243.4,376.9c7-5.5,19.5-4.5,25.4,1,0,0-13.3,15.5-2.5,51.7,8.8,29.9,24.4,51,33.2,62.1l.2.2c-6.6-7.4-27.3-13.7-45.9-28.8C215.8,432.3,233.4,384.7,243.4,376.9Z"/><path class="cls-11" d="M251.2,460.9c.1,0,.1-.1.1-.3a2.2,2.2,0,0,1-.1-.9,31.8,31.8,0,0,1,.3-3.6,33.2,33.2,0,0,1,1.5-5.5,56.7,56.7,0,0,1,3-7.3l2.9-6.2c1-2.1,2-4.2,2.8-6.3a30,30,0,0,0,1.5-5.4,12.8,12.8,0,0,0,.1-1.8v-.5a.3.3,0,0,0-.1-.2.3.3,0,0,0,.1.2v.5a6.5,6.5,0,0,1-.2,1.8,23.7,23.7,0,0,1-1.6,5.3c-.8,2-1.8,4-2.8,6.1l-2.9,6.1a78.9,78.9,0,0,0-3.1,7.3,34.8,34.8,0,0,0-1.5,5.7,29.9,29.9,0,0,0-.2,3.8,6.4,6.4,0,0,0,.2.9Z"/><path class="cls-11" d="M261.1,398.9c-.1,0-.1.5-.3,1.5l-.5,1.7a15.8,15.8,0,0,1-1.1,2.3c-.9,1.7-2.2,3.7-3.8,6.1l-6.2,8.5c-1.6,2.4-3.5,5-5.1,7.9a49.2,49.2,0,0,0-3.9,8.9,41.5,41.5,0,0,0-.9,4.3,23,23,0,0,0-.2,3.6,5.3,5.3,0,0,0,.1,1.3,3.1,3.1,0,0,0,.1,1,6,6,0,0,1,.1.8,6,6,0,0,0-.1-.8c0-.3-.1-.6-.1-1v-1.3a24.3,24.3,0,0,1,.2-3.6,22.2,22.2,0,0,1,1-4.1,43.4,43.4,0,0,1,4-8.8c1.7-2.8,3.5-5.4,5.2-7.8s4.4-6,6.1-8.4a58.2,58.2,0,0,0,3.9-6.2,16.3,16.3,0,0,0,1-2.5,8.3,8.3,0,0,0,.5-1.8A6.3,6.3,0,0,0,261.1,398.9Z"/><path class="cls-11" d="M267.4,378.8c-.1,0-.1.5-.6,1.4a27.1,27.1,0,0,1-2.9,3.5c-1.4,1.5-3.4,3.4-5.7,5.7s-5.1,5.1-8.2,8.5a96.3,96.3,0,0,0-6.6,8.3l-2.9,4.6a48.1,48.1,0,0,0-2.2,4.6,27.5,27.5,0,0,0-1.6,4.2c-.3,1.3-.6,2.5-.8,3.5s-.2,1.7-.3,2.3a2.8,2.8,0,0,1-.1.8,2.8,2.8,0,0,0,.1-.8c.1-.6.2-1.3.4-2.3s.5-2.2.9-3.5a27.5,27.5,0,0,1,1.7-4.1,31.9,31.9,0,0,1,2.3-4.5c.9-1.5,1.9-3,2.9-4.4a94.9,94.9,0,0,1,6.7-8.2c3.1-3.3,5.9-6.1,8.2-8.4l5.7-5.8a23.3,23.3,0,0,0,2.8-3.8,3.5,3.5,0,0,0,.3-1.2C267.5,379,267.5,378.8,267.4,378.8Z"/><path class="cls-11" d="M271.4,445.2c-.1,0,0,.3-.1.8a12.2,12.2,0,0,1-.3,2.2q-.3,1.5-.9,3.6c-.4,1.4-1,3.1-1.6,5.1s-.9,2.9-1.3,4.6a42.1,42.1,0,0,0-.9,4.9,17,17,0,0,0-.1,2.2,11.5,11.5,0,0,0,.1,1.9,8.9,8.9,0,0,1,.2,1.1v.3h0v-.3c0-.2-.1-.6-.2-1.2a10.7,10.7,0,0,1,0-1.8,17,17,0,0,1,.1-2.2,45.7,45.7,0,0,1,1-4.8c.4-1.5.9-3.1,1.3-4.5s1.2-3.6,1.6-5a27.6,27.6,0,0,0,.9-3.7,7.8,7.8,0,0,0,.2-1.4,3.8,3.8,0,0,0,.1-1A2.8,2.8,0,0,0,271.4,445.2Z"/><path class="cls-11" d="M261.5,397.9c-.1,0-.1.4.4,1A9.2,9.2,0,0,0,265,401a55.2,55.2,0,0,0,7.1,2.5l10.7,3.3c2.9.9,6.1,2,9,3.2a40.1,40.1,0,0,1,7.5,4.3,17.7,17.7,0,0,1,3.9,4.1c.3.6.6,1.1.7,1.4a1.6,1.6,0,0,1,.2.5,2.8,2.8,0,0,0-.1-.5l-.7-1.4a14.3,14.3,0,0,0-3.6-4.3,31.5,31.5,0,0,0-7.3-4.5,81,81,0,0,0-8.9-3.4c-4.1-1.4-7.8-2.4-10.7-3.3s-5.4-1.7-7.1-2.4a12.4,12.4,0,0,1-3.3-1.9C261.9,398.1,261.7,397.9,261.5,397.9Z"/><path class="cls-11" d="M262.9,416.1l.2.2.3.3.4.3a13.3,13.3,0,0,0,3.2,1.6,52.5,52.5,0,0,0,5.8,1.5l8.5,1.7,3.7.9,3.8,1.1,3.7,1.5,1.7.9.8.5.7.5,1.4,1.1.6.5.6.6.5.5.5.5.5.5.3.5a4.7,4.7,0,0,1,.6.9l.4.6.4.6-.3-.6a4.3,4.3,0,0,1-.4-.7l-.6-.8a1,1,0,0,0-.4-.5,2.1,2.1,0,0,0-.4-.6l-.4-.5-.6-.6-.5-.5-.6-.6-1.4-1.1-.8-.6-.8-.5-1.7-1a24.3,24.3,0,0,0-3.7-1.6l-3.8-1.3-3.7-.9c-3.3-.8-6.1-1.3-8.5-1.8a38.1,38.1,0,0,1-5.8-1.4,16.9,16.9,0,0,1-3.1-1.3l-.5-.2-.3-.2A.2.2,0,0,0,262.9,416.1Z"/><path class="cls-11" d="M267.5,430.7c-.3.1-.3.3-.1.8a4.9,4.9,0,0,0,2.1,2,45.9,45.9,0,0,0,5.8,2.8l9.4,3.9c2.5,1.1,5.2,2.3,7.5,3.6a16,16,0,0,1,5.1,4.1,4.2,4.2,0,0,1,.8,3.7,6.4,6.4,0,0,1-.2.7,1.7,1.7,0,0,0-.2.5l-.2.4a1.1,1.1,0,0,0,.2-.4l.4-.5.3-.7a4.3,4.3,0,0,0-.2-3.8,13.5,13.5,0,0,0-4.5-4.4,55.9,55.9,0,0,0-7.3-3.8l-9.3-3.8a57.3,57.3,0,0,1-5.9-2.8C268.5,431.5,268,430.6,267.5,430.7Z"/><path class="cls-11" d="M267.2,380.4c-.1,0,0,.3.4.9a9.7,9.7,0,0,0,2.1,2.4,30.6,30.6,0,0,0,4.6,3,74.3,74.3,0,0,0,7.3,3.4c4,1.7,9.1,3.6,12.8,5.7l2.5,1.5,1,.7.9.7.6.6.5.4.4.4-.4-.4-.4-.5-.6-.6-.9-.7-1-.8a25,25,0,0,0-2.4-1.6,106.7,106.7,0,0,0-12.7-6.2c-2.8-1.2-5.2-2.3-7.2-3.4a36.6,36.6,0,0,1-4.5-2.8C268,381.4,267.4,380.2,267.2,380.4Z"/><path class="cls-11" d="M271.1,445.8c-.2.1-.2.3-.1.8a5.7,5.7,0,0,0,1.8,1.8,34.6,34.6,0,0,0,4.6,2.9l7.7,3.7c2,1.1,4.2,2.3,6.1,3.5a14.8,14.8,0,0,1,4.2,4,4.9,4.9,0,0,1,.7,3.5,6.4,6.4,0,0,1-.2.7.8.8,0,0,1-.2.4,1.6,1.6,0,0,0-.1.4l.2-.4.3-.4a6.4,6.4,0,0,0,.2-.7,5.1,5.1,0,0,0-.2-3.6,11.8,11.8,0,0,0-3.7-4.2,58.7,58.7,0,0,0-5.9-3.7l-7.6-3.8a29.7,29.7,0,0,1-4.7-2.7C271.9,446.6,271.5,445.8,271.1,445.8Z"/><path class="cls-12" d="M268.8,377.9a29,29,0,0,0-2,3.3c-.5,1.2-1,2.3-1.4,3.5a38.3,38.3,0,0,0-1.9,7.4,61.8,61.8,0,0,0-.3,14.9c.9,10,3.8,19.7,7.4,29.2a248,248,0,0,0,13.1,27.6c4.8,9.1,10,17.9,15.2,27a170,170,0,0,1-19.3-24.6A148,148,0,0,1,265,438.3c-3.7-9.8-6.4-20.3-6.5-31a50.1,50.1,0,0,1,2.2-15.9,32.5,32.5,0,0,1,3.2-7.4A23.9,23.9,0,0,1,268.8,377.9Z"/><path class="cls-13" d="M269.7,376.7s33.4,7.1,32.1,42.5c-.3,7.8-5.9,19-6.2,26.9-1.9,38.3,1.2,31.7,2.8,42.4,0,0-3.5-13.7,0-36.9,0,0,3.7-21.1,4.1-24.6,1.2-11.5,5-18.7-5.5-34.7C297,392.3,281.8,369.3,269.7,376.7Z"/><path class="cls-8" d="M263.7,375.2s-19.3-2.6-27.6,22.9c0,0-9.6,46.4,23.4,66.9,0,0,32.3,18.4,35.7,22.7a166.1,166.1,0,0,0-20.1-10.6s-26.9-14.2-34.6-28.8c0,0-17.5-19.7-6.5-55C234,393.3,239.4,366.9,263.7,375.2Z"/><path class="cls-7" d="M207.3,287.4s-3.2-12.2-11.2-15.8l-3.5,1.2s8.3,2.4,13.7,14.1Z"/><path class="cls-8" d="M192.6,272.8s8.3,2.1,13.7,14.1l.5.2s-5.2-12.9-13.5-14.5Z"/><path class="cls-9" d="M196.1,271.6s6.2,2.9,9.7,11.6c0,0-3.5-7.5-9.9-11.5Z"/><path class="cls-1" d="M217.7,378h0c-.1,0-.1-.1-.2-.2S217.7,377.9,217.7,378Z"/><path class="cls-14" d="M218.3,378.5h0c.1.1.1.2,0,.2l-.3-.2a.1.1,0,0,1-.1-.1c0-.1-.1-.2,0-.2l.4.2h-.4c-.1-.1-.1-.2,0-.2Z"/><path class="cls-10" d="M197.7,316.2c-.2-32.9,8.3-31.3,8.3-31.3,2.1-3.7,11.8-3.2,20.7,14.1,6.9,13.3,3.1,20.1-3,41.1-6.8,23.6-4.3,34.9-3.4,36.5C214.4,367.2,197.8,340.8,197.7,316.2Z"/><path class="cls-7" d="M186.3,282c6-3.8,15.6-1.9,19.7,2.9,0,0-11.7,10.9-6.5,40.2,4.4,24.1,14.7,41.9,20.6,51.3a.3.3,0,0,0,.1.2c-4.5-6.4-20.1-13.1-33.3-26.5C159.9,322.8,177.8,287.2,186.3,282Z"/><path class="cls-11" d="M185.1,348.2v-.3a5.6,5.6,0,0,0,.1-.7c.1-.6.2-1.5.5-2.7a30.8,30.8,0,0,1,1.7-4.2,50.2,50.2,0,0,1,2.9-5.5l2.8-4.5a46.6,46.6,0,0,0,2.7-4.7,18.9,18.9,0,0,0,1.7-4.1,3.6,3.6,0,0,0,.2-1.4c.1-.1.1-.1.1-.2v-.2h0v.2c0,.1-.1.1-.1.2a9.3,9.3,0,0,1-.2,1.4,29.5,29.5,0,0,1-1.7,4c-.8,1.5-1.8,3-2.8,4.5l-2.8,4.5a34.1,34.1,0,0,0-3,5.5,22.3,22.3,0,0,0-1.7,4.3c-.3,1.3-.4,2.3-.5,2.9s0,.6.1.7Z"/><path class="cls-11" d="M198.2,300.7c-.1,0-.1.3-.4,1.1l-.5,1.3-1,1.7c-.9,1.2-2.1,2.7-3.6,4.4l-5.5,6.1a71.5,71.5,0,0,0-4.7,5.7,32,32,0,0,0-3.8,6.7,15.2,15.2,0,0,0-1.1,3.2,16.6,16.6,0,0,0-.5,2.8v1c0,.3-.1.6,0,.8v-.8a3.8,3.8,0,0,1,.1-1,15.7,15.7,0,0,1,.5-2.7,13.5,13.5,0,0,1,1.1-3.2,40,40,0,0,1,3.9-6.5,55.4,55.4,0,0,1,4.7-5.6l5.5-6.1a29.3,29.3,0,0,0,3.6-4.5,18,18,0,0,0,1-1.8,6,6,0,0,0,.5-1.4A5.6,5.6,0,0,0,198.2,300.7Z"/><path class="cls-11" d="M204.9,285.5c-.1,0-.2.4-.6,1a21.5,21.5,0,0,1-2.6,2.5l-5,4c-2,1.6-4.4,3.5-7.1,5.9s-4,3.8-5.9,5.9l-2.6,3.3-2.2,3.4a30,30,0,0,0-1.5,3.2l-1,2.6c-.2.8-.3,1.4-.4,1.8a3.2,3.2,0,0,0-.1.7,3.2,3.2,0,0,1,.1-.7l.5-1.8,1-2.6,1.6-3.1c.7-1,1.4-2.1,2.3-3.2l2.6-3.3a78,78,0,0,1,5.9-5.7c2.7-2.4,5.2-4.3,7.2-5.9s3.7-2.9,4.9-4.1a11.3,11.3,0,0,0,2.5-2.7,1.8,1.8,0,0,0,.4-.9Z"/><path class="cls-11" d="M202.2,337.7c-.1,0-.1.2-.1.6a9.6,9.6,0,0,1-.5,1.7c-.2.7-.6,1.6-1,2.7l-1.7,3.8c-.4,1.1-.9,2.3-1.4,3.5s-.8,2.5-1.1,3.8a5.5,5.5,0,0,0-.3,1.7,7.1,7.1,0,0,0-.1,1.4c0,.5.1.8.1,1v.2h0v-.2c0-.2-.1-.5-.1-1s.1-.8.1-1.4a13.6,13.6,0,0,1,.4-1.7,24.7,24.7,0,0,1,1.1-3.6c.5-1.2,1-2.4,1.5-3.4s1.2-2.8,1.7-3.8.8-2.1,1-2.8l.3-1.1c0-.3.1-.5.1-.8Z"/><path class="cls-11" d="M208.6,356.1c-.1,0-.1.1-.2.2a.4.4,0,0,1-.1.3c0,.1-.1.3-.1.4a12.3,12.3,0,0,1-.8,1.2,8.3,8.3,0,0,1-1.3,1.6l-1.1,1.5a3.9,3.9,0,0,0-.6,1.7,2.2,2.2,0,0,0,.2,1.2.3.3,0,0,0,.1.2c.1.1.1.1.1.2h0c0-.1,0-.1-.1-.2v-.2a1.2,1.2,0,0,1-.1-1.2,2.8,2.8,0,0,1,.7-1.6,8.1,8.1,0,0,1,1.2-1.4,15.5,15.5,0,0,0,1.3-1.7,3.1,3.1,0,0,0,.7-1.2.8.8,0,0,0,.1-.4c0-.2.1-.3.1-.4Z"/><path class="cls-11" d="M198.6,299.9c-.1,0-.1.3.2.8a5.9,5.9,0,0,0,2.3,1.9,37.4,37.4,0,0,0,5.3,2.6l8.1,3.5c2.1.9,4.5,2.1,6.7,3.3a27,27,0,0,1,5.4,4,10.8,10.8,0,0,1,2.7,3.6l.5,1.1a1.6,1.6,0,0,1,.1.4,1.6,1.6,0,0,0-.1-.4l-.4-1.2a11.2,11.2,0,0,0-2.4-3.7,26.3,26.3,0,0,0-5.3-4.1,60.2,60.2,0,0,0-6.7-3.4l-8.1-3.5c-2.2-1-4-1.8-5.2-2.5a10.1,10.1,0,0,1-2.5-1.8C198.8,300.1,198.7,299.9,198.6,299.9Z"/><path class="cls-11" d="M198.1,314.2a.3.3,0,0,0,.1.2c.1.1.1.2.2.2l.3.3a11.2,11.2,0,0,0,2.4,1.5,28.2,28.2,0,0,0,4.4,1.8l6.5,2,2.8,1,2.8,1.2,2.8,1.5,1.2.9.6.4c.2.2.4.3.5.5a4.7,4.7,0,0,1,1,1l.5.4.4.5.4.5.3.4.3.4c.1.2.1.3.2.4a3,3,0,0,1,.4.8l.3.5.2.5-.2-.5c-.1-.2-.1-.4-.2-.6a4.3,4.3,0,0,1-.4-.7l-.3-.4a.5.5,0,0,0-.2-.4l-.3-.5-.4-.5-.4-.5-.4-.5-1-1-.5-.5-.6-.5-1.3-.9a24,24,0,0,0-2.7-1.6l-2.9-1.3-2.8-1.1-6.5-2.1a28.5,28.5,0,0,1-4.3-1.6,9.8,9.8,0,0,1-2.4-1.3l-.3-.2h-.5Z"/><path class="cls-11" d="M200.4,326c-.2.1-.3.2-.2.6a6.2,6.2,0,0,0,1.5,1.8l4.3,2.7,7,3.8c1.9,1.1,3.9,2.3,5.6,3.5a12.4,12.4,0,0,1,3.6,3.7,3.4,3.4,0,0,1,.3,2.9,1.7,1.7,0,0,0-.2.5l-.3.4-.2.3.3-.3.3-.4.3-.5a3.7,3.7,0,0,0,.2-3,10.6,10.6,0,0,0-3.2-3.8,32.4,32.4,0,0,0-5.3-3.5c-2.6-1.6-5-2.8-6.9-3.9a42.9,42.9,0,0,1-4.4-2.6C201.1,326.7,200.8,326,200.4,326Z"/><path class="cls-11" d="M208.7,355.4c-.1.1,0,.2.1.4a2.4,2.4,0,0,0,.7.9l.7.6.9.6,2.5,1.3,2.1,1.4,1.8,1.6,1.2,1.5.3.5v0l-.3-.5a9.3,9.3,0,0,0-1.1-1.6,9.7,9.7,0,0,0-1.7-1.9l-2.1-1.5-2.4-1.3a7.4,7.4,0,0,1-1.6-1.1Z"/><path class="cls-11" d="M204.6,286.7c-.1,0-.1.3.2.8a6.1,6.1,0,0,0,1.4,2,26.3,26.3,0,0,0,3.3,2.8,59.5,59.5,0,0,0,5.4,3.2c3,1.7,6.8,3.7,9.5,5.6l1.9,1.4.7.7.6.6c.2.1.3.3.5.5l.3.4.3.3-.3-.4-.3-.4-.4-.5-.6-.6a4.6,4.6,0,0,0-.7-.7l-1.8-1.5a73.3,73.3,0,0,0-9.3-5.9c-2.1-1.2-3.9-2.3-5.3-3.3a29.3,29.3,0,0,1-3.3-2.6C205.1,287.6,204.7,286.6,204.6,286.7Z"/><path class="cls-11" d="M201.9,338.1c-.1.1-.2.2-.1.6a3.4,3.4,0,0,0,1.2,1.6,24.2,24.2,0,0,0,3.4,2.6c1.5,1.1,3.5,2.2,5.6,3.6a52.2,52.2,0,0,1,4.5,3.3,10.9,10.9,0,0,1,2.9,3.5,3.5,3.5,0,0,1,.2,2.8c0,.2-.1.3-.1.5l-.2.3-.2.3.2-.3.3-.3.2-.5a3.7,3.7,0,0,0,.2-2.8,9.1,9.1,0,0,0-2.6-3.6,29.3,29.3,0,0,0-4.3-3.4l-5.5-3.6a35.3,35.3,0,0,1-3.5-2.6C202.5,338.8,202.3,338.1,201.9,338.1Z"/><path class="cls-12" d="M206,284.9a22,22,0,0,0-1.7,2.5c-.5.9-1,1.8-1.4,2.7a27.6,27.6,0,0,0-1.9,5.5,45.5,45.5,0,0,0-1.4,11.6,91.7,91.7,0,0,0,3.4,23.2,208.5,208.5,0,0,0,7.6,22.7c2.9,7.5,6.1,14.9,9.1,22.6A122.1,122.1,0,0,1,206.3,355a109.9,109.9,0,0,1-9.1-23.1,69.8,69.8,0,0,1-2.3-25,43.9,43.9,0,0,1,3.3-12.3,30,30,0,0,1,3.3-5.4A18.3,18.3,0,0,1,206,284.9Z"/><path class="cls-13" d="M206.8,284.1s25.5,8.4,21.3,36c-.9,6-6.2,14.3-7.1,20.4-4.8,29.7-1.8,24.8-1.5,33.4,0,0-1.5-11.1,3.2-28.9,0,0,4.7-16.1,5.3-18.9,2-8.8,5.6-14.1-1.2-27.5C226.8,298.6,216.9,279.4,206.8,284.1Z"/><path class="cls-8" d="M202.2,282.4s-14.8-3.7-23.4,15.5c0,0-11.6,35.3,12.4,54.2,0,0,23.6,17.2,25.8,20.9a115.5,115.5,0,0,0-14.7-10.1s-19.8-13.5-24.5-25.5c0,0-12-16.9-.3-43.5C177.5,293.9,184,273.8,202.2,282.4Z"/></g></g></g></g></g></svg>