<svg xmlns="http://www.w3.org/2000/svg" xmlns:xlink="http://www.w3.org/1999/xlink" viewBox="0 0 443.8 451.5"><defs><style>.cls-1{fill:none;}.cls-2{isolation:isolate;}.cls-3{opacity:0.5;}.cls-4{fill:url(#linear-gradient);}.cls-5{fill:#31d0e5;stroke-width:6px;stroke:url(#linear-gradient-2);}.cls-11,.cls-5,.cls-7{stroke-miterlimit:10;}.cls-6{clip-path:url(#clip-path);}.cls-7{fill:#41a022;stroke:#38841c;stroke-width:0.5px;}.cls-8{fill:#204910;opacity:0.32;}.cls-9{fill:#8fc12f;}.cls-14,.cls-9{opacity:0.51;}.cls-10{fill:#353535;}.cls-11{fill:#48bc28;stroke:#45a525;}.cls-12,.cls-13{fill:#b0e573;}.cls-12{mix-blend-mode:screen;opacity:0.69;}.cls-14{fill:#b6f261;}</style><linearGradient id="linear-gradient" x1="43.17" y1="103.28" x2="392.43" y2="342.6" gradientUnits="userSpaceOnUse"><stop offset="0" stop-color="#9b81cf"/><stop offset="1" stop-color="#3b139b"/></linearGradient><linearGradient id="linear-gradient-2" x1="16.1" y1="225.74" x2="427.68" y2="225.74" gradientUnits="userSpaceOnUse"><stop offset="0" stop-color="#4c1da9"/><stop offset="1" stop-color="#997ece"/></linearGradient><clipPath id="clip-path"><circle class="cls-1" cx="222.6" cy="226.4" r="199.8"/></clipPath></defs><g class="cls-2"><g id="SB39_Interactive_Icon_13_F1"><path class="cls-3" d="M435.1,237a208.3,208.3,0,0,0-25.4-100A211.6,211.6,0,0,0,221.9,23C105,23,10.2,117.8,10.2,234.7S105,446.3,221.9,446.3c3,0,5.9,0,8.9-.2C344.1,443.6,435.1,350.9,435.1,237Z"/><circle class="cls-4" cx="221.9" cy="225.7" r="211.7"/><circle class="cls-5" cx="221.9" cy="225.7" r="202.8"/><g id="_001" data-name="001"><g class="cls-6"><g id="_001-2" data-name="001"><path class="cls-7" d="M97.8,264.1s-22.9-6.2-36.1,3.6l-1.3,6.8s11.6-11.3,35.7-9.3Z"/><path class="cls-8" d="M60.4,274.5s11.2-11.6,35.7-9.3l.8-.5s-25.9-3.6-36.3,8.5Z"/><path class="cls-9" d="M61.7,267.7s10.4-7.4,27.8-5.1c0,0-15.3-1.2-27.8,5.4Z"/><path class="cls-1" d="M255.6,331.4h0Z"/><path class="cls-10" d="M256.9,331h.2c.2,0,.5,0,.3.2s-.4.3-.7.4h-.2c-.1,0-.5,0-.3-.3s.5-.3.7-.3h.2l-.4.6h-.2c-.1,0-.5,0-.3-.3A1.1,1.1,0,0,1,256.9,331Z"/><path class="cls-11" d="M136,306.7c-53.9-30.5-43.3-42.8-43.3-42.8-4.3-6.9,5.7-22.2,42.2-20.7,28.1,1.1,35.6,13.7,64.3,43.1,32.3,33.2,53,39.6,56.4,39.7C234.8,326.8,176.3,329.4,136,306.7Z"/><path class="cls-7" d="M69.4,293.4c-.5-13.3,11.6-27.3,23.3-29.5,0,0,6.9,29.3,59.4,47.9,43.5,15.4,82.2,15.1,103,14.3h.5c-14.6,1.4-40.1,20.6-74.3,29.7C111.5,374.4,70,312,69.4,293.4Z"/><path class="cls-12" d="M176.4,356.9l-.3-.3-1.1-.7a38.6,38.6,0,0,1-4-3.4,74.3,74.3,0,0,1-5.4-6.6,114.5,114.5,0,0,1-6-10c-1.6-2.7-3.2-5.8-4.9-8.8s-3.3-6-5.1-8.7a34.2,34.2,0,0,0-5.1-6.5,14.5,14.5,0,0,0-2.1-1.8l-.3-.2h-.3l-.2-.2.2.2h.3l.3.3a9,9,0,0,1,2,1.7,34.2,34.2,0,0,1,5,6.5c1.6,2.7,3.2,5.7,4.8,8.7s3.2,6.1,4.7,8.8a113.3,113.3,0,0,0,6.1,10,40.3,40.3,0,0,0,5.6,6.7,30.4,30.4,0,0,0,4.2,3.5l1.2.7Z"/><path class="cls-12" d="M111,291.4c0,.1.6.5,1.5,1.5a24.6,24.6,0,0,1,1.7,2.2,22.8,22.8,0,0,1,1.8,3.2,84.2,84.2,0,0,1,3.9,10c1.4,4,2.9,8.9,4.8,14.6,1.4,4.1,3,8.6,5,13a68.6,68.6,0,0,0,7.3,12.4,51.9,51.9,0,0,0,4.3,4.8,26.6,26.6,0,0,0,4,3.3,12,12,0,0,0,1.7,1.1l1.3.8,1.1.6-1.1-.6a7.4,7.4,0,0,0-1.3-.8l-1.6-1.1a36.4,36.4,0,0,1-4-3.4,51.1,51.1,0,0,1-4.1-4.8,61.9,61.9,0,0,1-6.9-12.4,123.8,123.8,0,0,1-4.9-12.9c-1.9-5.7-3.3-10.6-4.7-14.7a67.9,67.9,0,0,0-4.1-10,23.9,23.9,0,0,0-2-3.3,15.2,15.2,0,0,0-1.8-2.2C111.8,291.7,111.1,291.3,111,291.4Z"/><path class="cls-12" d="M92.6,266.3c-.1.1.5.6,1,1.9a28.9,28.9,0,0,1,1.7,6.6c.6,3,1.2,6.9,1.9,11.7s1.6,10.6,3,17.3a142.8,142.8,0,0,0,4.2,15c.9,2.5,1.9,5,3,7.4a50.9,50.9,0,0,0,3.4,6.6,52.4,52.4,0,0,0,3.8,5.5,38.7,38.7,0,0,0,3.4,4,25.1,25.1,0,0,0,2.5,2.4l1,.9-1-.9a30.8,30.8,0,0,1-2.4-2.5c-1-1.1-2.1-2.4-3.3-4a41.5,41.5,0,0,1-3.5-5.6,52.2,52.2,0,0,1-3.3-6.7,58,58,0,0,1-2.8-7.3,118.9,118.9,0,0,1-3.9-15c-1.4-6.6-2.3-12.4-3-17.2s-1.3-8.7-2-11.8a30.2,30.2,0,0,0-2.1-6.6,4.5,4.5,0,0,0-1.1-1.4C92.8,266.3,92.6,266.3,92.6,266.3Z"/><path class="cls-12" d="M175.3,319.3l.8.7a23,23,0,0,1,2.4,2.3c1,1.1,2.1,2.5,3.5,4.2s2.8,3.9,4.7,6.3,2.7,3.6,4.3,5.5a52.4,52.4,0,0,0,5.1,5.4,23.9,23.9,0,0,0,2.6,2.1l2.3,1.5,1.6.7.4.2h0l-.4-.2a11.8,11.8,0,0,1-1.6-.8l-2.3-1.5a22.5,22.5,0,0,1-2.4-2.1,49.6,49.6,0,0,1-4.9-5.3c-1.5-1.9-3-3.8-4.2-5.5s-3.3-4.6-4.7-6.3a35.2,35.2,0,0,0-3.6-4.3l-1.4-1.4-1.2-.9Z"/><path class="cls-12" d="M211.2,326l.3.4c.1.1.2.3.4.4l.5.7a10.8,10.8,0,0,1,1.2,2.2,35.2,35.2,0,0,1,1.5,3.7,23.3,23.3,0,0,0,1.4,3.3,8.7,8.7,0,0,0,2.1,2.5,3.7,3.7,0,0,0,2.2.8h1.1s-.1.1-.3,0h-.7a3.7,3.7,0,0,1-2.1-1,6.5,6.5,0,0,1-1.9-2.6,21.9,21.9,0,0,1-1.2-3.3c-.6-1.5-1-2.7-1.5-3.7a9.2,9.2,0,0,0-1.4-2.3,1.7,1.7,0,0,0-.6-.6l-.5-.4C211.4,325.9,211.3,325.9,211.2,326Z"/><path class="cls-12" d="M110.2,289.9c-.1.2.4.5,1.5.5a14.2,14.2,0,0,0,5.3-2,78.4,78.4,0,0,0,9.1-6.2l13.2-10a140.7,140.7,0,0,1,11.7-7.9,54.3,54.3,0,0,1,11.5-5.2,23.2,23.2,0,0,1,8.4-1,10.7,10.7,0,0,1,2.3.3l.8.2-.8-.3-2.2-.5a26.2,26.2,0,0,0-8.4.6,50,50,0,0,0-11.6,4.9,120.4,120.4,0,0,0-11.9,7.6c-5.1,3.7-9.5,7.2-13.2,9.9a73.3,73.3,0,0,1-9,6.3,17.7,17.7,0,0,1-5.1,2.4C110.8,289.7,110.3,289.7,110.2,289.9Z"/><path class="cls-12" d="M133.1,304c0,.1.2.1.5,0h.5l.8-.2a17,17,0,0,0,4.6-2.4,54.9,54.9,0,0,0,6.9-5.6c2.7-2.5,5.7-5.4,9.4-8.7l4.2-3.7,4.7-3.5a36.8,36.8,0,0,1,5-3l2.6-1.3,1.3-.5,1.2-.5a13.6,13.6,0,0,1,2.5-.7l1.2-.3,1.1-.2,1.1-.2h-1.1l-1.2.2-1.2.2-2.6.7-1.3.4-1.3.5c-.9.4-1.8.7-2.7,1.2a37.8,37.8,0,0,0-5.1,3l-4.9,3.4-4.3,3.6c-3.7,3.3-6.8,6.3-9.4,8.7s-4.9,4.3-6.7,5.6a29.3,29.3,0,0,1-4.3,2.7l-.7.3-.5.2Z"/><path class="cls-12" d="M154.6,311.3c-.2.4.1.7.8.8a9,9,0,0,0,4.2-.8,49.7,49.7,0,0,0,8.4-4.4l12.8-7.8a82.3,82.3,0,0,1,10.8-5.9c3.6-1.7,6.9-2.6,9.4-2.5a6.5,6.5,0,0,1,5.1,2.2l.7.8.3.8.4.6-.3-.7a4.6,4.6,0,0,1-.3-.9l-.6-.9a6.2,6.2,0,0,0-4.7-3.1c-2.4-.4-5.6.2-9.2,1.6a77.7,77.7,0,0,0-10.8,5.4L169,304.2a71.2,71.2,0,0,1-8.4,4.6C156.4,310.8,154.9,310.6,154.6,311.3Z"/><path class="cls-12" d="M210.3,325.2c0,.1.2.1.7.2a7.9,7.9,0,0,0,2.2-.4l1.6-.6,1.8-1c1.3-.7,2.7-1.7,4.5-2.8l4.1-2.1a37.3,37.3,0,0,1,4.4-1.4,32.4,32.4,0,0,1,3.5-.5h0l-3.6.3a28.9,28.9,0,0,0-4.7,1.1l-4.3,2-4.6,2.8-3.1,1.6C211.1,324.8,210.3,324.9,210.3,325.2Z"/><path class="cls-12" d="M94.2,267.9c0,.2.5.3,1.5.4a14.5,14.5,0,0,0,4.6-.5,40.6,40.6,0,0,0,7.6-2.8c3-1.5,6.5-3.4,10.4-5.8,5.6-3.3,12.2-7.7,17.9-10.3,1.4-.7,2.8-1.2,4-1.7l1.8-.6,1.5-.5,1.3-.2.9-.2h0l-.9.2-1.3.2-1.6.3-1.8.5c-1.2.5-2.6.9-4.1,1.6-5.8,2.4-12.7,6.4-18.3,9.7-4,2.3-7.4,4.2-10.3,5.6a42.4,42.4,0,0,1-7.4,3C96.1,267.8,94.2,267.5,94.2,267.9Z"/><path class="cls-12" d="M175.7,320.1c-.1.3.1.6.8.8a8.4,8.4,0,0,0,3.8-.5,46,46,0,0,0,7.4-3.1c3.1-1.6,6.9-3.7,11.2-5.8a67.5,67.5,0,0,1,9.5-4.3,19.7,19.7,0,0,1,8.4-1.5,7.2,7.2,0,0,1,4.8,2.2l.6.7.4.6.3.6-.3-.7-.3-.7-.6-.8a6.9,6.9,0,0,0-4.5-2.9,16.2,16.2,0,0,0-8.2.8,59.4,59.4,0,0,0-9.5,3.9L188.4,315a68.6,68.6,0,0,1-7.4,3.4C177.3,319.8,176,319.5,175.7,320.1Z"/><path class="cls-13" d="M92.7,263.9a33.9,33.9,0,0,0,2,5.3c.9,1.7,1.8,3.3,2.8,4.9a59.5,59.5,0,0,0,6.9,8.8,84.9,84.9,0,0,0,8.3,7.6,18.8,18.8,0,0,0,2.3,1.6l2.2,1.7c1.6,1,3.1,2.1,4.7,3a125,125,0,0,0,20.1,9.9,198.1,198.1,0,0,0,21.4,7l5.5,1.3c1.9.5,3.7,1,5.5,1.3l5.6,1.2,2.7.6,2.8.4c3.8.7,7.5,1.4,11.2,1.9s7.5,1.1,11.3,1.5c15.1,1.9,30.3,3,45.6,4.1a294.4,294.4,0,0,1-46,.6,236.2,236.2,0,0,1-45.7-7.1l-5.6-1.6-5.5-1.8-2.8-1-2.7-1a50.9,50.9,0,0,1-5.4-2.2l-5.4-2.4-5.2-2.6-5-2.9-4.9-3.3a78.8,78.8,0,0,1-17.2-15.9,56.1,56.1,0,0,1-6.1-9.9A33.5,33.5,0,0,1,92.7,263.9Z"/><path class="cls-14" d="M92,261.7s37.5-33.7,78.6-1.3c9.1,7.2,17.7,23.5,26.6,30.7,44.3,35.5,39,26.2,53.3,33.5,0,0-19.5-7.7-44.2-32,0,0-22-22.7-25.9-26.3-12.5-11.4-17.9-22.2-46-23.6C134.4,242.7,93.7,240.9,92,261.7Z"/><path class="cls-8" d="M84.9,267.6s-19.7,20.8,3.5,52.8c0,0,47,51.8,100.2,30.2,0,0,50-22.5,58.1-22.8,0,0-11.6,4.3-30.1,14.7,0,0-40.5,19.8-64.5,16.3,0,0-38.7,3.8-71.3-40C80.8,318.8,54,289.4,84.9,267.6Z"/><path class="cls-7" d="M274.5,248.4s-14.5,6.8-17,17.6l2.3,4.1s1-10.9,14.3-20.5Z"/><path class="cls-8" d="M259.8,270.1s.7-10.9,14.3-20.5l.2-.5s-14.9,9.4-15,20.2Z"/><path class="cls-9" d="M257.5,266s2.1-8.4,12.1-14.8c0,0-8.4,6.1-12,15Z"/><path class="cls-1" d="M385.5,213.9h-.1l-.2.2Z"/><path class="cls-10" d="M386,213.1h.1c.1-.1.3-.2.3,0a.8.8,0,0,1-.2.5h-.1c-.1.1-.3.2-.3,0a.8.8,0,0,1,.2-.5h.1a.9.9,0,0,0,.1.5h-.1c-.1.1-.3.2-.3,0A.8.8,0,0,1,386,213.1Z"/><path class="cls-11" d="M312.9,253.6c-41.2,7.9-41.1-3.1-41.1-3.1-5.2-1.7-6.8-14,12.8-29.2,14.9-11.7,24.3-8.6,52.1-5.9,31.1,2.9,44.7-2.9,46.4-4.3C372.8,220.6,343.7,247.6,312.9,253.6Z"/><path class="cls-7" d="M272.7,275.9c-6-6.6-5.9-19.2-.9-25.4,0,0,16.4,12.1,51.7-1.4,29.2-11.1,49.1-28.2,59.4-37.7.2-.1.2-.2.3-.3-6.9,7.2-11.7,28.3-25.3,48C330,299.2,281.2,285.3,272.7,275.9Z"/><path class="cls-12" d="M355.8,261.8h-1.1c-.8,0-2,.1-3.6,0a40,40,0,0,1-5.7-1.1,72.9,72.9,0,0,1-7.5-2.5l-6.3-2.4-6.5-2.3a28,28,0,0,0-5.5-1.1h0a21.3,21.3,0,0,1,5.4,1.2c2,.6,4.1,1.5,6.3,2.3l6.3,2.5a72.9,72.9,0,0,0,7.5,2.5,41.1,41.1,0,0,0,5.8,1.1,19.7,19.7,0,0,0,3.7-.1l1-.2Z"/><path class="cls-12" d="M293.3,256.6l1.5.2a7.4,7.4,0,0,1,1.8.4,12.7,12.7,0,0,1,2.3.8,59.9,59.9,0,0,1,6.4,3.4l8.9,5.5a91.1,91.1,0,0,0,8.3,4.5,42,42,0,0,0,9.2,3.2,17.1,17.1,0,0,0,4.3.6,21.5,21.5,0,0,0,3.6,0l1.3-.2,1-.2.8-.2-.8.2-1,.2h-4.8a22.6,22.6,0,0,1-4.3-.7,44.4,44.4,0,0,1-9-3.3c-2.9-1.4-5.7-3.1-8.2-4.6l-8.8-5.5a71.1,71.1,0,0,0-6.5-3.4l-2.5-.8-1.9-.3A3.8,3.8,0,0,0,293.3,256.6Z"/><path class="cls-12" d="M272.8,251.8a7.5,7.5,0,0,1,1.4.5,19.8,19.8,0,0,1,3.7,2.6l6.2,5.3c2.5,2.2,5.4,4.7,9.1,7.6s5.6,4,8.7,5.9,3.2,1.8,4.8,2.5a35.6,35.6,0,0,0,4.7,1.9l4.3,1.2,3.6.6h2.3l-2.3-.2a18,18,0,0,1-3.5-.7,29.3,29.3,0,0,1-4.3-1.3,35.7,35.7,0,0,1-4.6-2c-1.6-.8-3.1-1.6-4.7-2.6s-6-4-8.6-6-6.5-5.4-9-7.5-4.5-4-6.2-5.3a18.4,18.4,0,0,0-4-2.5,3,3,0,0,0-1.2-.2C272.9,251.7,272.8,251.7,272.8,251.8Z"/><path class="cls-12" d="M338.7,242.9h.8a8.9,8.9,0,0,1,2.2.1,23.2,23.2,0,0,1,3.7.7l5.1,1.1,4.7,1a29.2,29.2,0,0,0,5,.5h2.2l1.9-.3,1.1-.3h0l-1.1.3-1.8.2a8.8,8.8,0,0,1-2.3,0,41.9,41.9,0,0,1-4.8-.6l-4.6-1-5.2-1.2-3.7-.6h-2.4Z"/><path class="cls-12" d="M360.2,230.5l.4.2h.9l1.6.6,2.4,1.3,2.1,1.1a10.3,10.3,0,0,0,2.2.4,3.6,3.6,0,0,0,1.5-.6l.3-.2c0-.1.1-.1.1-.2h0c0,.1-.1.1-.2.2h-.2a2.2,2.2,0,0,1-1.5.4,5.8,5.8,0,0,1-2.1-.5l-2.1-1.2-2.4-1.3a4.5,4.5,0,0,0-1.7-.5h-1.3Z"/><path class="cls-12" d="M292.3,256.2c0,.1.4.1.9-.4a8.3,8.3,0,0,0,1.9-3.3,52.7,52.7,0,0,0,2-7.2c.7-3.1,1.4-6.8,2.4-11s1.6-6.2,2.6-9.2a36.8,36.8,0,0,1,3.7-7.7,16.2,16.2,0,0,1,3.8-4.2l1.4-.9.5-.2-.5.2-1.4.7a16.5,16.5,0,0,0-4.1,4,33.6,33.6,0,0,0-3.9,7.6,78.4,78.4,0,0,0-2.7,9.1c-1.1,4.2-1.8,7.9-2.5,11s-1.3,5.4-1.9,7.1a14.8,14.8,0,0,1-1.6,3.5C292.5,255.9,292.2,256.1,292.3,256.2Z"/><path class="cls-12" d="M310.3,253.5l.2-.2.3-.3.2-.4a12.8,12.8,0,0,0,1.4-3.4,45.1,45.1,0,0,0,1.1-5.9c.3-2.4.6-5.3,1-8.6l.6-3.7c.3-1.3.5-2.6.9-3.9a27.8,27.8,0,0,1,1.2-3.8,13,13,0,0,1,.8-1.7l.4-.9a5.6,5.6,0,0,0,.5-.8l.9-1.4.5-.7.5-.6.5-.6.5-.5.5-.4c.1-.2.3-.3.4-.4l.8-.7.6-.5a1.1,1.1,0,0,0,.5-.4l-.5.4-.6.4-.9.7-.4.4-.5.4-.5.5-.5.6-.6.6-.5.6a13,13,0,0,0-1,1.5l-.5.8a5.6,5.6,0,0,1-.5.8,14.2,14.2,0,0,0-.8,1.8,24.6,24.6,0,0,0-1.4,3.8c-.4,1.3-.7,2.6-1,3.9l-.6,3.8c-.5,3.3-.8,6.2-1.1,8.6a45.4,45.4,0,0,1-1,5.8,28.2,28.2,0,0,1-1,3.3c-.1.2-.2.3-.2.4l-.2.4C310.3,253.3,310.2,253.4,310.3,253.5Z"/><path class="cls-12" d="M324.6,247.8c0,.3.3.3.7.1a6,6,0,0,0,1.8-2.3,32.4,32.4,0,0,0,2.5-5.9c.9-2.7,1.9-6,3.1-9.7s1.9-5.4,3-7.8a15.9,15.9,0,0,1,3.8-5.4,4.6,4.6,0,0,1,3.6-1.1l.7.2.5.2.5.2-.5-.3-.5-.3-.7-.2a4.6,4.6,0,0,0-3.9.4,12.9,12.9,0,0,0-4,4.9,51.3,51.3,0,0,0-3.2,7.5c-1.2,3.6-2.2,6.9-3.1,9.6s-1.7,4.6-2.3,6C325.3,246.8,324.4,247.3,324.6,247.8Z"/><path class="cls-12" d="M359.4,230.5c0,.1.2.1.4-.1a4.2,4.2,0,0,0,1-1.2l.6-1a11.2,11.2,0,0,1,.5-1.3c.3-1,.6-2.1,1.1-3.4a22.4,22.4,0,0,1,1.2-2.9c.5-1,1.1-1.9,1.6-2.7l1.6-1.8.5-.5.2-.2-.2.2-.5.4a15.1,15.1,0,0,0-1.8,1.8,19.5,19.5,0,0,0-1.9,2.6,25.3,25.3,0,0,0-1.4,2.9c-.5,1.4-.8,2.5-1.1,3.4a9.8,9.8,0,0,1-.9,2.2C359.7,230,359.3,230.4,359.4,230.5Z"/><path class="cls-12" d="M274.4,251.9c0,.1.3,0,.9-.4a16.8,16.8,0,0,0,2.2-2.3,45.9,45.9,0,0,0,2.7-4.8c.9-2.1,1.8-4.6,2.8-7.6s2.9-9.3,4.7-13.2L289,221l.7-1.1.6-.9.5-.7.4-.5.4-.4a1.2,1.2,0,0,0-.4.4l-.5.5-.5.7-.7.8-.7,1.1a12.6,12.6,0,0,0-1.4,2.6,97.9,97.9,0,0,0-5.2,13c-1,3-2,5.4-2.9,7.5a32.6,32.6,0,0,1-2.5,4.7C275.3,251,274.2,251.7,274.4,251.9Z"/><path class="cls-12" d="M339.3,243.1c.1.2.3.2.8,0a5.5,5.5,0,0,0,1.7-1.9,33.7,33.7,0,0,0,2.5-4.8c.9-2.2,1.9-4.9,3.2-7.9a54,54,0,0,1,3-6.4,13.3,13.3,0,0,1,3.7-4.5,4.7,4.7,0,0,1,3.4-.9h1.1l.5.2-.5-.2-.5-.3-.6-.2a5.3,5.3,0,0,0-3.6.5,12.9,12.9,0,0,0-3.9,4.1,39.1,39.1,0,0,0-3.2,6.1c-1.3,3-2.3,5.7-3.2,7.8a39.9,39.9,0,0,1-2.4,5C340,242.2,339.2,242.7,339.3,243.1Z"/><path class="cls-13" d="M271.8,250.5a27,27,0,0,0,3.4,1.7,22.9,22.9,0,0,0,3.7,1.2,45.8,45.8,0,0,0,7.4,1.3,57.2,57.2,0,0,0,14.9-.8c9.9-1.7,19.4-5.3,28.5-9.6a260.8,260.8,0,0,0,26.7-15.1c8.6-5.5,17.1-11.4,25.7-17.2a183.9,183.9,0,0,1-23,21.1,153.6,153.6,0,0,1-26.8,16.6c-9.5,4.5-19.8,8-30.5,8.9a53.9,53.9,0,0,1-16-1,39.5,39.5,0,0,1-7.5-2.7A20.7,20.7,0,0,1,271.8,250.5Z"/><path class="cls-14" d="M270.5,249.7s4.6-33.9,40-35.2c7.8-.3,19.4,4.4,27.2,4.2,38.4-1.1,31.6-3.6,42.2-6.1,0,0-13.4,4.6-36.8,2.9,0,0-21.4-2.1-24.9-2.3-11.5-.4-19-3.6-34.2,8.1C284,221.3,262.2,238.1,270.5,249.7Z"/><path class="cls-8" d="M269.5,255.8s-1.1,19.4,24.9,25.7c0,0,46.9,6.2,64.9-28.3,0,0,16-33.5,20-37.2,0,0-4.1,7.2-9,20.8,0,0-12.3,27.9-26.2,36.6,0,0-18.3,19-54.4,10.6C289.7,284,263,280.6,269.5,255.8Z"/><path class="cls-7" d="M196.9,155.3s-10.1,7.5-10.3,16.3l2.4,2.8s-.9-8.6,7.8-18.1Z"/><path class="cls-8" d="M189,174.4s-1.2-8.5,7.8-18.1v-.4s-10,9.6-8.2,18Z"/><path class="cls-9" d="M186.6,171.6s.3-6.8,7-13.3c0,0-5.6,6-6.9,13.4Z"/><path class="cls-1" d="M276.7,111h-.1c0,.1-.1.1-.1.2Z"/><path class="cls-10" d="M277,110.3h0s.2-.1.2,0a.6.6,0,0,1-.1.4h0c-.1.1-.2.2-.2.1a.4.4,0,0,1,.1-.5h0c0,.2.1.3.1.4h0c-.1.1-.2.2-.2.1A.4.4,0,0,1,277,110.3Z"/><path class="cls-11" d="M227.2,153.1c-30.4,12.7-32.1,4.2-32.1,4.2-4.3-.4-7.4-9.6,5.1-24.5,9.7-11.3,17.4-10.4,39.2-12.8,24.4-2.7,33.9-9.4,35-10.8C268,118.3,249.9,143.7,227.2,153.1Z"/><path class="cls-7" d="M199.9,176.8c-5.7-4.2-7.7-13.8-4.8-19.5,0,0,14.6,6.7,39.6-9.3,20.6-13.2,33.2-29.5,39.6-38.5.1-.1.1-.2.2-.2-4.2,6.6-4.5,23.6-11.8,40.9C247.6,185.5,207.9,182.6,199.9,176.8Z"/><path class="cls-12" d="M261.5,152.6h-.2l-.7.3a22.4,22.4,0,0,1-2.7.5,21.6,21.6,0,0,1-4.5.1,53.4,53.4,0,0,1-6.2-.7l-5.3-.8a51.5,51.5,0,0,0-5.3-.7,16.1,16.1,0,0,0-4.4,0l-1.4.3h0l1.4-.3a21.3,21.3,0,0,1,4.3.1l5.3.8,5.2.9a53.4,53.4,0,0,0,6.2.7,33.3,33.3,0,0,0,4.6-.1,17.6,17.6,0,0,0,2.9-.7l.6-.3Z"/><path class="cls-12" d="M212.6,158.6c.1.1.4,0,1.2-.1h1.4l2,.3a49.2,49.2,0,0,1,5.4,1.6l7.8,2.8a54.7,54.7,0,0,0,7.1,2.1,32.9,32.9,0,0,0,7.5,1,13.5,13.5,0,0,0,3.5-.2,18.1,18.1,0,0,0,2.7-.6l1-.4.7-.3.6-.2-.6.2-.7.3-1,.3a10.7,10.7,0,0,1-2.7.6l-3.4.2a33.4,33.4,0,0,1-7.5-1.2c-2.5-.6-4.9-1.4-7-2.1l-7.7-2.9a53.2,53.2,0,0,0-5.5-1.5l-2.1-.3h-1.5Z"/><path class="cls-12" d="M196.1,158.2c0,.1.4,0,1.1.2a13.2,13.2,0,0,1,3.3,1.4l5.6,3.1c2.3,1.2,4.9,2.7,8.2,4.3a68.5,68.5,0,0,0,7.7,3.2l4.1,1.1a27,27,0,0,0,3.9.8l3.5.2h2.8l1.8-.3h0l-1.8.2h-2.8L230,172a28.7,28.7,0,0,1-3.8-.8c-1.4-.3-2.7-.8-4.1-1.2a73.7,73.7,0,0,1-7.5-3.3l-8.2-4.3-5.6-3.1a13.1,13.1,0,0,0-3.5-1.2h-1.2Z"/><path class="cls-12" d="M245.4,140.8h.5l1.8-.3h10.8l3.9-.4,1.7-.4a4.6,4.6,0,0,0,1.4-.5l.8-.4h0l-.8.4-1.4.5-1.7.3a23.4,23.4,0,0,1-3.8.3H247.8l-1.1.2h-.8Z"/><path class="cls-12" d="M259.9,127.9h1l1.4.2,2,.6,1.8.5a3.6,3.6,0,0,0,1.8-.1,1.5,1.5,0,0,0,1-.7l.2-.2h0l-.2.2a2.3,2.3,0,0,1-1.1.6,5,5,0,0,1-1.7-.1l-1.8-.6-2-.6-1.4-.2h-.8C260,127.8,259.9,127.8,259.9,127.9Z"/><path class="cls-12" d="M211.8,158.5c0,.1.3,0,.6-.5a5.6,5.6,0,0,0,.9-2.8,31.3,31.3,0,0,0,.4-5.9c.1-2.5,0-5.4.1-8.8a64.9,64.9,0,0,1,.6-7.5,28.3,28.3,0,0,1,1.5-6.5,13.3,13.3,0,0,1,2.3-3.9l.9-.9.4-.2-.4.2a5.7,5.7,0,0,0-.9.8,11.8,11.8,0,0,0-2.5,3.7,25.3,25.3,0,0,0-1.8,6.5,61.7,61.7,0,0,0-.7,7.4c-.1,3.4-.1,6.4-.1,8.8a45.8,45.8,0,0,1-.3,5.9,15.2,15.2,0,0,1-.7,2.9C211.9,158.2,211.7,158.4,211.8,158.5Z"/><path class="cls-12" d="M225.2,153.5v-.2l.2-.3c0-.1.1-.2.1-.3a11.8,11.8,0,0,0,.5-2.8,25.6,25.6,0,0,0-.1-4.7c-.1-1.9-.4-4.2-.6-6.8,0-1-.1-2-.1-3v-3.1c.1-1,.2-2.1.4-3.1l.3-1.5a2.5,2.5,0,0,1,.2-.7,6.4,6.4,0,0,0,.2-.7l.5-1.2.3-.6.3-.6c.1-.2.2-.3.2-.5s.3-.3.3-.5l.3-.4.3-.4.5-.6.4-.5.4-.4-.4.4-.4.5a1.7,1.7,0,0,0-.6.6q0,.2-.3.3c0,.2-.1.3-.2.5l-.4.4-.3.6-.3.5-.3.6c-.2.4-.3.8-.5,1.3l-.3.7a2.5,2.5,0,0,1-.2.7c-.1.5-.3,1-.4,1.5s-.3,2.1-.4,3.1-.1,2.2-.1,3.2,0,2,.1,3c.1,2.6.4,4.9.5,6.8a41.2,41.2,0,0,1,.2,4.6c-.1,1.3-.2,2.1-.3,2.7s-.1.3-.1.4v.3C225.1,153.4,225.1,153.5,225.2,153.5Z"/><path class="cls-12" d="M235.3,146.9c0,.1.2.1.6-.1a5.9,5.9,0,0,0,1-2,47.6,47.6,0,0,0,.9-5c.3-2.2.5-4.9.9-7.9a44.1,44.1,0,0,1,1-6.5,13.6,13.6,0,0,1,2-4.8,3.8,3.8,0,0,1,2.7-1.4h1.3l-.4-.2h-1a3.7,3.7,0,0,0-2.9,1,10.6,10.6,0,0,0-2.3,4.4,39.1,39.1,0,0,0-1.2,6.3q-.6,4.5-.9,7.8c-.3,2.2-.6,3.9-.8,5S235.1,146.5,235.3,146.9Z"/><path class="cls-12" d="M259.3,128l.3-.2a3.8,3.8,0,0,0,.5-1.1l.3-.8c.1-.4.1-.7.2-1.1s.2-1.7.3-2.8a11.4,11.4,0,0,1,.5-2.4,15.5,15.5,0,0,1,.8-2.3c.3-.7.7-1.3.9-1.7s.3-.3.3-.5h0l-.3.5a14.2,14.2,0,0,0-1.1,1.6,9.4,9.4,0,0,0-1,2.3,11.4,11.4,0,0,0-.6,2.5c-.2,1.1-.3,2-.4,2.8s-.2,1.4-.3,1.8S259.1,127.9,259.3,128Z"/><path class="cls-12" d="M197.3,158c.1.1.3-.1.7-.4a11.4,11.4,0,0,0,1.3-2.2,28.8,28.8,0,0,0,1.3-4.1c.3-1.7.6-3.8.9-6.2s.8-7.7,1.5-10.9l.6-2.3a3.6,3.6,0,0,1,.4-.9l.3-.8.3-.6c0-.2.1-.3.2-.5l.2-.3-.2.3-.3.5-.3.6-.4.8a4.6,4.6,0,0,0-.3.9c-.3.6-.5,1.4-.8,2.2a77.5,77.5,0,0,0-1.8,10.9c-.4,2.4-.7,4.4-1,6.1a30.5,30.5,0,0,1-1.2,4.1C197.9,157.2,197.2,157.9,197.3,158Z"/><path class="cls-12" d="M245.9,140.9c0,.1.2.1.5-.1a5.1,5.1,0,0,0,1.1-1.8,25.2,25.2,0,0,0,1.1-4.1c.3-1.8.7-4.1,1.2-6.6a32.7,32.7,0,0,1,1.3-5.4,10.7,10.7,0,0,1,2.1-4,4.1,4.1,0,0,1,2.5-1.3h-.1a3.5,3.5,0,0,0-2.7.9,9.4,9.4,0,0,0-2.3,3.7,41,41,0,0,0-1.5,5.3c-.5,2.5-.9,4.7-1.2,6.5s-.7,3.2-1,4.2S245.7,140.6,245.9,140.9Z"/><path class="cls-13" d="M195.1,157.3a10.9,10.9,0,0,0,3,.7,13.6,13.6,0,0,0,2.9.3,56.8,56.8,0,0,0,5.9-.3,47.9,47.9,0,0,0,11.2-3.2c7.2-2.9,13.9-7.3,20.2-12a221,221,0,0,0,18.1-15.7c5.8-5.5,11.4-11.3,17.4-17a128.5,128.5,0,0,1-14,20.3,112.3,112.3,0,0,1-17.9,17.2c-6.6,5-14,9.3-22.2,11.6a41.9,41.9,0,0,1-12.7,1.7,25.9,25.9,0,0,1-6.2-1A15.5,15.5,0,0,1,195.1,157.3Z"/><path class="cls-14" d="M194,156.9s-1.9-26.7,25.1-33.4c6-1.5,15.6.3,21.6-1.1,29.4-7,23.7-7.9,31.5-11.4,0,0-9.6,5.6-27.9,8,0,0-16.7,1.8-19.5,2.3-8.9,1.5-15.2.3-25,11.6C199.8,132.9,185.8,149.4,194,156.9Z"/><path class="cls-8" d="M194.2,161.8s2.2,15.1,23.2,15.8c0,0,37.1-2.8,45.5-32.2,0,0,6.9-28.3,9.4-31.8a127,127,0,0,0-3.7,17.4s-4.9,23.5-14.2,32.4c0,0-11.1,17.5-40.1,16.9C214.3,180.3,193.2,181.9,194.2,161.8Z"/></g></g></g></g></g></svg>