<svg xmlns="http://www.w3.org/2000/svg" xmlns:xlink="http://www.w3.org/1999/xlink" viewBox="0 0 443.8 451.5"><defs><style>.cls-1{fill:none;}.cls-2{isolation:isolate;}.cls-3{opacity:0.5;}.cls-4{fill:url(#linear-gradient);}.cls-5{fill:#31d0e5;stroke-width:6px;stroke:url(#linear-gradient-2);}.cls-11,.cls-5,.cls-7{stroke-miterlimit:10;}.cls-6{clip-path:url(#clip-path);}.cls-7{fill:#41a022;stroke:#38841c;stroke-width:0.5px;}.cls-8{fill:#204910;opacity:0.32;}.cls-9{fill:#8fc12f;}.cls-14,.cls-9{opacity:0.51;}.cls-10{fill:#353535;}.cls-11{fill:#48bc28;stroke:#45a525;}.cls-12,.cls-13{fill:#b0e573;}.cls-12{mix-blend-mode:screen;opacity:0.69;}.cls-14{fill:#b6f261;}</style><linearGradient id="linear-gradient" x1="43.17" y1="103.28" x2="392.43" y2="342.6" gradientUnits="userSpaceOnUse"><stop offset="0" stop-color="#9b81cf"/><stop offset="1" stop-color="#3b139b"/></linearGradient><linearGradient id="linear-gradient-2" x1="16.1" y1="225.74" x2="427.68" y2="225.74" gradientUnits="userSpaceOnUse"><stop offset="0" stop-color="#4c1da9"/><stop offset="1" stop-color="#997ece"/></linearGradient><clipPath id="clip-path"><circle class="cls-1" cx="222.6" cy="226.4" r="199.8"/></clipPath></defs><g class="cls-2"><g id="SB39_Interactive_Icon_13_F1"><path class="cls-3" d="M435.1,237a208.3,208.3,0,0,0-25.4-100A211.6,211.6,0,0,0,221.9,23C105,23,10.2,117.8,10.2,234.7S105,446.3,221.9,446.3c3,0,5.9,0,8.9-.2C344.1,443.6,435.1,350.9,435.1,237Z"/><circle class="cls-4" cx="221.9" cy="225.7" r="211.7"/><circle class="cls-5" cx="221.9" cy="225.7" r="202.8"/><g id="_001" data-name="001"><g class="cls-6"><g id="_013" data-name="013"><path class="cls-7" d="M73.1,97.9s-19.8-13-35.4-7.8l-3.4,6.1s14.5-7.1,36.9,2.2Z"/><path class="cls-8" d="M34.3,96.2s14.3-7.6,36.9,2.2l.8-.2S48.5,86.7,34.9,95Z"/><path class="cls-9" d="M37.7,90.1s12.2-3.8,28,3.9c0,0-14.2-6-28.2-3.6Z"/><path class="cls-1" d="M202.2,210.9h-.7Z"/><path class="cls-10" d="M203.6,210.9h.2c.1,0,.4.1.2.3h-1c-.1,0-.4-.1-.2-.3h1l-.6.4H203c-.1,0-.4-.1-.2-.3Z"/><path class="cls-11" d="M96.2,150.2C54.4,104.5,68.3,96.1,68.3,96.1c-1.9-7.8,12.3-19.3,46.6-6.5,26.3,9.8,29.6,24,47.7,60.9,20.4,41.6,38.1,54.1,41.3,55.2C183.8,200.1,127.4,184.3,96.2,150.2Z"/><path class="cls-7" d="M37,116.9c3.7-12.7,19.5-22.3,31.3-20.8,0,0-2.6,30,41.6,64,36.6,28.2,73.4,39.9,93.5,45.6h.5c-14.4-3.2-44.6,7.2-79.9,5.2C51.9,207,31.8,134.8,37,116.9Z"/><path class="cls-12" d="M119,210.6c0-.1,0-.2-.2-.4l-.8-1.1a30.9,30.9,0,0,1-2.8-4.5,55.4,55.4,0,0,1-3-7.9c-1-3.2-1.8-7-2.7-11.3s-1.2-6.5-1.9-9.9-1.3-6.8-2.1-9.9a34.6,34.6,0,0,0-2.9-7.8,13.6,13.6,0,0,0-1.4-2.3l-.3-.3-.2-.2v0l.2.2.3.3a19.5,19.5,0,0,1,1.4,2.3,36.3,36.3,0,0,1,2.6,7.7c.8,3.1,1.4,6.4,2,9.8s1.1,6.8,1.7,9.9a99.6,99.6,0,0,0,2.7,11.3,37.9,37.9,0,0,0,3.2,8.2,28.2,28.2,0,0,0,3,4.6l.9,1Z"/><path class="cls-12" d="M77.2,127.9c-.1.1.3.7.9,2a23,23,0,0,1,.9,2.5,29.6,29.6,0,0,1,.8,3.7,77.4,77.4,0,0,1,.6,10.7c.1,4.3-.1,9.4,0,15.4a114.4,114.4,0,0,0,.8,13.9,63.3,63.3,0,0,0,3,14,29.1,29.1,0,0,0,2.6,5.9,24,24,0,0,0,2.8,4.4,11.2,11.2,0,0,0,1.3,1.6l1,1.1.8.9-.8-.9-1-1.1-1.2-1.6A33.9,33.9,0,0,1,87,196a45.5,45.5,0,0,1-2.5-5.9,62.2,62.2,0,0,1-2.7-13.9,133.1,133.1,0,0,1-.6-13.8c0-6,.1-11.1,0-15.4a65.8,65.8,0,0,0-.7-10.8c-.3-1.5-.6-2.7-.9-3.8a10.7,10.7,0,0,0-1.1-2.6A6.2,6.2,0,0,0,77.2,127.9Z"/><path class="cls-12" d="M67.4,98.4c-.1.1.3.7.4,2.1a29.7,29.7,0,0,1-.4,6.8c-.4,3.1-1,6.9-1.9,11.8s-1.7,10.5-2.4,17.3a129.1,129.1,0,0,0-.7,15.5,70.1,70.1,0,0,0,.5,8c.3,2.6.7,5.1,1.2,7.4s1.2,4.5,1.9,6.4a38.9,38.9,0,0,0,2,4.8,27.7,27.7,0,0,0,1.6,3.1l.7,1.1-.6-1.1c-.4-.7-1-1.8-1.6-3.1s-1.2-3-1.9-4.9-1.1-4.1-1.6-6.4-.8-4.8-1.1-7.3-.3-5.3-.3-7.9a150.5,150.5,0,0,1,.9-15.5c.8-6.7,1.7-12.4,2.5-17.2s1.5-8.7,1.8-11.8a26.4,26.4,0,0,0,0-7,4.3,4.3,0,0,0-.5-1.7C67.7,98.5,67.5,98.4,67.4,98.4Z"/><path class="cls-12" d="M129.6,174.4l.6,1a24,24,0,0,1,1.5,2.9,49.7,49.7,0,0,1,2,5.1c.8,2.1,1.5,4.5,2.5,7.4s1.5,4.3,2.5,6.6a51.1,51.1,0,0,0,3.1,6.7c.6,1,1.2,2,1.8,2.8l1.7,2.1,1.3,1.2.4.3h0l-.4-.3-1.2-1.2a19.3,19.3,0,0,1-1.7-2.1,26.1,26.1,0,0,1-1.7-2.8,57.3,57.3,0,0,1-3-6.6l-2.3-6.6c-.9-2.8-1.7-5.3-2.5-7.4s-1.4-3.8-2-5.2l-1-1.8-.8-1.2Z"/><path class="cls-12" d="M161.7,191.9c-.1.1,0,.3.1.5s.1.4.2.6a3.4,3.4,0,0,1,.3.8,10.9,10.9,0,0,1,.5,2.5q.1,1.6.3,3.9a20.7,20.7,0,0,0,.3,3.5,7.2,7.2,0,0,0,1.2,3.1,4.4,4.4,0,0,0,1.9,1.5h.4l-.4-.2a5,5,0,0,1-1.7-1.6,7.1,7.1,0,0,1-.9-3.1c-.1-1.1-.2-2.4-.2-3.5s-.1-2.9-.2-4a7.7,7.7,0,0,0-.6-2.6c-.1-.3-.3-.5-.4-.8l-.4-.4Z"/><path class="cls-12" d="M76.9,126.3c-.1.1.1.6,1.2.9a13.6,13.6,0,0,0,5.6-.2,79.2,79.2,0,0,0,10.7-3.1l15.6-5.4c4.3-1.4,9-2.8,13.6-3.8a48.6,48.6,0,0,1,12.6-1.4,23.4,23.4,0,0,1,8.3,1.6,12.1,12.1,0,0,1,2,1l.8.4a2.1,2.1,0,0,1-.7-.5l-2-1.1a20.7,20.7,0,0,0-8.1-2,47.3,47.3,0,0,0-12.6.9,117.9,117.9,0,0,0-13.6,3.6l-15.7,5.4a100.4,100.4,0,0,1-10.5,3.2,18.4,18.4,0,0,1-5.5.6C77.5,126.3,77,126.1,76.9,126.3Z"/><path class="cls-12" d="M94.3,146.8l.4.2H96a18,18,0,0,0,5.2-.9,50.7,50.7,0,0,0,8.3-3.2l11.7-5.3c1.6-.8,3.3-1.5,5.1-2.2l5.5-1.9c1.9-.5,3.8-1,5.7-1.3l2.8-.4H148l1.1.2,1,.2,1,.3.8.2,1.5.5,1,.4.9.4-.8-.4-1.1-.5-1.4-.5-.9-.3-.9-.3-1-.2-1.1-.2-1.2-.2-1.2-.2H143a6.5,6.5,0,0,0-1.4,0h-1.4l-2.9.3c-1.9.3-3.9.7-5.8,1.2l-5.7,1.8-5.2,2.1L108.9,142a69.4,69.4,0,0,1-8.1,3.3,36.7,36.7,0,0,1-4.9,1.2H94.7Z"/><path class="cls-12" d="M112.4,160.4c-.3.3-.1.7.5,1.1a10.4,10.4,0,0,0,4.3.5,49.9,49.9,0,0,0,9.3-1.6l14.6-3.5a108.1,108.1,0,0,1,12.2-2.2,22.2,22.2,0,0,1,9.6.5,6.4,6.4,0,0,1,4.2,3.8,3.2,3.2,0,0,1,.3.9,3.1,3.1,0,0,1,.2.8,4.2,4.2,0,0,1,.1.7v-.7a2.8,2.8,0,0,0-.1-.9,4.3,4.3,0,0,0-.2-1.1,6.8,6.8,0,0,0-3.5-4.5,19.2,19.2,0,0,0-9.2-1.2,74.2,74.2,0,0,0-12,1.8l-14.4,3.3a66.8,66.8,0,0,1-9.4,1.8C114.3,160.5,113,159.9,112.4,160.4Z"/><path class="cls-12" d="M161,190.9l.6.4a6.3,6.3,0,0,0,2.3.3,4.5,4.5,0,0,0,1.6-.1,7.6,7.6,0,0,0,2.1-.3l5.1-1.3a31.7,31.7,0,0,1,4.6-.7,23.4,23.4,0,0,1,4.6.1l3.5.5,1.1.3h.3l-.3-.2-1-.3-3.6-.9a28.5,28.5,0,0,0-9.5.2l-5.2,1.2a17.4,17.4,0,0,1-3.4.5C162,190.8,161.1,190.6,161,190.9Z"/><path class="cls-12" d="M68.5,100.4q-.1.3,1.2.9a17.6,17.6,0,0,0,4.6.9,38.9,38.9,0,0,0,8.1-.3,103.4,103.4,0,0,0,11.7-2.3c6.3-1.4,14-3.5,20.2-4.2l4.4-.4h3.4l1.3.2h1.8l-.8-.2h-1l-1.3-.2-1.6-.2h-1.8l-4.4.2c-6.3.5-14.1,2.2-20.5,3.6-4.4,1-8.3,1.7-11.5,2.2a62.7,62.7,0,0,1-7.9.5C70.3,100.9,68.6,100.1,68.5,100.4Z"/><path class="cls-12" d="M129.8,175.4c-.2.2-.1.5.5.9a8,8,0,0,0,3.7.8,58.6,58.6,0,0,0,8.1-.7l12.3-2.1a94.2,94.2,0,0,1,10.4-1.1,21,21,0,0,1,8.5,1.2,6.9,6.9,0,0,1,3.8,3.5l.4.9a6.4,6.4,0,0,0,.2.7,3.2,3.2,0,0,1,.1.7v-.7a1.9,1.9,0,0,1-.1-.8l-.3-1a6.8,6.8,0,0,0-3.4-4.1,18.3,18.3,0,0,0-8.1-1.8,59.7,59.7,0,0,0-10.2.7l-12.3,2q-5.1.8-8.1.9C131.4,175.6,130.2,174.9,129.8,175.4Z"/><path class="cls-13" d="M68.3,96.1a27.3,27.3,0,0,0,.3,5.7,48.6,48.6,0,0,0,1.1,5.5,63.9,63.9,0,0,0,3.9,10.6,77.8,77.8,0,0,0,5.5,9.7l1.6,2.3,1.6,2.3,3.5,4.3a131.9,131.9,0,0,0,16.1,15.6,169.6,169.6,0,0,0,18.2,13.3c1.5,1.1,3.2,2,4.8,3l4.8,3,4.9,2.8,2.5,1.4,2.5,1.3c3.3,1.8,6.6,3.6,10.1,5.2s6.7,3.4,10.2,5c13.8,6.4,27.8,12.2,42,18.1A310.2,310.2,0,0,1,158,191.4a235.1,235.1,0,0,1-41.2-21l-4.8-3.2-4.7-3.4L105,162l-2.3-1.8c-1.5-1.3-3.1-2.4-4.5-3.7l-4.3-4-4.1-4.1L85.9,144c-1.3-1.5-2.5-3-3.7-4.6A80.2,80.2,0,0,1,70.8,119a63,63,0,0,1-2.7-11.4A34.2,34.2,0,0,1,68.3,96.1Z"/><path class="cls-14" d="M68.3,93.9s46.1-20.4,75.1,23.2c6.4,9.6,9.5,27.7,15.8,37.4,31,47.5,29,36.9,40.2,48.3,0,0-16.1-13.4-32-44.1,0,0-13.8-28.4-16.4-33-8.4-14.8-10.2-26.7-36.5-36.8C114.5,88.9,76.4,74.5,68.3,93.9Z"/><path class="cls-8" d="M59.8,97.3s-25.3,13.6-13.1,51.2c0,0,28.6,63.8,85.8,59.9,0,0,54.5-5.9,62.3-3.7,0,0-12.3.5-33.2,4.6,0,0-44.5,6.3-66.3-4.5,0,0-38-8.4-55.4-60.2C39.9,144.6,23.6,108.4,59.8,97.3Z"/><path class="cls-1" d="M307.7,82.4c0-.1,0-.1-.1-.1l-.2-.3Z"/><path class="cls-10" d="M308.5,83h.1s.1.2-.1.2l-.4-.2H308c-.1-.1-.2-.3,0-.3a.5.5,0,0,1,.5.3H308c-.1-.1-.2-.3,0-.3A.5.5,0,0,1,308.5,83Z"/><path class="cls-11" d="M273.6,7c-4.8-41.6,6.2-40.8,6.2-40.8,2-5,14.4-5.7,28.1,15,10.6,15.8,6.7,24.9,2,52.4-5.3,30.8-.5,44.8.8,46.6C301.9,69.2,277.2,38.1,273.6,7Z"/><path class="cls-7" d="M254.3-34.7c7.1-5.6,19.6-4.5,25.5.9,0,0-13.3,15.5-2.6,51.7,8.9,30,24.5,51.1,33.2,62.1l.2.3c-6.6-7.5-27.2-13.8-45.9-28.9C226.8,20.6,244.4-27,254.3-34.7Z"/><path class="cls-12" d="M262.2,49.2V48a16.8,16.8,0,0,1,.3-3.5,30.4,30.4,0,0,1,1.4-5.6,78.9,78.9,0,0,1,3.1-7.3c.8-1.9,1.9-4,2.9-6.2s1.9-4.2,2.7-6.2a23.5,23.5,0,0,0,1.5-5.4,6.5,6.5,0,0,0,.1-1.9v-.5h0v.5a12.1,12.1,0,0,1-.1,1.8,22.2,22.2,0,0,1-1.6,5.3c-.8,2-1.8,4.1-2.8,6.2s-2.1,4.1-3,6a64,64,0,0,0-3,7.4,25.5,25.5,0,0,0-1.5,5.7A12.6,12.6,0,0,0,262,48c0,.4.1.7.1.9A.4.4,0,0,0,262.2,49.2Z"/><path class="cls-12" d="M272-12.7c-.1,0-.1.5-.2,1.4a17.7,17.7,0,0,1-.6,1.7,14.6,14.6,0,0,1-1,2.3,49.6,49.6,0,0,1-3.9,6.2c-1.7,2.3-3.8,5.1-6.1,8.4a85,85,0,0,0-5.1,8,38.9,38.9,0,0,0-3.9,8.9,17.6,17.6,0,0,0-.9,4.2,15.6,15.6,0,0,0-.2,3.6v1.3a4.1,4.1,0,0,1,.1,1,6.6,6.6,0,0,0,.2.9,6.6,6.6,0,0,1-.2-.9v-1a5.3,5.3,0,0,1-.1-1.3,23.6,23.6,0,0,1,.3-3.5,23.2,23.2,0,0,1,1-4.2,39.9,39.9,0,0,1,4-8.7,70.2,70.2,0,0,1,5.1-7.8l6.2-8.5a38.5,38.5,0,0,0,3.8-6.2,23.5,23.5,0,0,0,1.1-2.4c.2-.7.3-1.4.4-1.9S272.1-12.7,272-12.7Z"/><path class="cls-12" d="M278.4-32.8c-.1,0-.1.4-.6,1.3a27.1,27.1,0,0,1-2.9,3.5l-5.8,5.8c-2.3,2.3-5.1,5-8.2,8.5a78.2,78.2,0,0,0-6.5,8.2c-1.1,1.6-2,3.1-2.9,4.6s-1.6,3.1-2.3,4.6-1.1,2.9-1.5,4.2a33.4,33.4,0,0,0-.8,3.5,13.1,13.1,0,0,0-.3,2.3,6.2,6.2,0,0,0-.1.9,6.2,6.2,0,0,1,.1-.9c.1-.5.2-1.3.4-2.3s.5-2.1.9-3.4a32.2,32.2,0,0,1,1.6-4.2c.7-1.4,1.5-2.9,2.4-4.4a37.9,37.9,0,0,1,2.9-4.5,92.5,92.5,0,0,1,6.6-8.1c3.1-3.4,5.9-6.2,8.2-8.5s4.3-4.2,5.7-5.8a16.1,16.1,0,0,0,2.8-3.8l.4-1.1A.6.6,0,0,0,278.4-32.8Z"/><path class="cls-12" d="M282.3,33.6v.7a11.2,11.2,0,0,1-.3,2.2,25.4,25.4,0,0,1-1,3.6c-.4,1.5-.9,3.1-1.5,5.1s-.9,3-1.3,4.6a28.1,28.1,0,0,0-.9,4.9,18,18,0,0,0-.2,2.2,10.1,10.1,0,0,0,.2,1.9,3.7,3.7,0,0,0,.2,1.2.4.4,0,0,0,.1.3h0a.4.4,0,0,1-.1-.3,3.7,3.7,0,0,1-.2-1.2,10.3,10.3,0,0,1-.1-1.8,16.4,16.4,0,0,1,.2-2.2,27.3,27.3,0,0,1,1-4.8c.4-1.6.9-3.2,1.3-4.5s1.2-3.7,1.6-5.1.7-2.7.9-3.7.1-.9.2-1.3v-1C282.4,33.8,282.4,33.6,282.3,33.6Z"/><path class="cls-12" d="M293,55.9a.4.4,0,0,0-.1.3.6.6,0,0,0-.1.4c-.1.2-.1.4-.2.6a6.4,6.4,0,0,1-.7,1.6c-.4.6-.9,1.3-1.4,2.2a10.5,10.5,0,0,0-1.2,2.1,4.5,4.5,0,0,0-.6,2.1,2.5,2.5,0,0,0,.5,1.6c0,.1.1.1.1.2l.2.2h0V67c-.1-.1-.1-.2-.2-.2a2.6,2.6,0,0,1-.3-1.6,6,6,0,0,1,.7-2l1.3-2,1.5-2.3a5.6,5.6,0,0,0,.7-1.7c0-.2.1-.4.1-.6v-.4C293.1,56,293.1,55.9,293,55.9Z"/><path class="cls-12" d="M272.5-13.8c-.1.1-.1.4.3,1a9.6,9.6,0,0,0,3.2,2.1,51,51,0,0,0,7,2.6l10.8,3.2a80.1,80.1,0,0,1,8.9,3.3,30.8,30.8,0,0,1,7.5,4.2,14.5,14.5,0,0,1,3.9,4.2l.8,1.4.2.5-.2-.5a7.7,7.7,0,0,0-.6-1.5,18.1,18.1,0,0,0-3.7-4.3,32.8,32.8,0,0,0-7.3-4.5,74,74,0,0,0-8.9-3.4c-4.1-1.4-7.7-2.4-10.7-3.3s-5.3-1.7-7-2.4a12.4,12.4,0,0,1-3.3-1.9Z"/><path class="cls-12" d="M273.9,4.4l.2.3.2.2.4.3a11.7,11.7,0,0,0,3.2,1.6,40.4,40.4,0,0,0,5.9,1.6l8.5,1.6,3.7.9,3.7,1.1,3.7,1.6a9.1,9.1,0,0,1,1.7.9l.8.5.8.5,1.4,1,.6.6.6.5.5.5.5.6.4.5.4.5.6.8.4.6.3.6-.3-.6-.4-.6a2.4,2.4,0,0,0-.6-.9l-.3-.5-.4-.5-.5-.6c-.1-.2-.3-.3-.5-.5l-.6-.6-.6-.6-1.4-1.1-.7-.5-.8-.6a14,14,0,0,0-1.7-.9,30.4,30.4,0,0,0-3.7-1.7l-3.8-1.3-3.7-.9-8.5-1.7a52.5,52.5,0,0,1-5.8-1.5,12.9,12.9,0,0,1-3.2-1.3l-.4-.2h-.6Z"/><path class="cls-12" d="M278.4,19.1c-.2,0-.3.3-.1.7a6.3,6.3,0,0,0,2.2,2,36.2,36.2,0,0,0,5.7,2.9l9.4,3.8c2.5,1.1,5.3,2.3,7.6,3.6a17.4,17.4,0,0,1,5.1,4.1,5.2,5.2,0,0,1,.8,3.8,1.4,1.4,0,0,0-.2.6l-.3.5-.2.5.3-.5.3-.5.3-.7a4,4,0,0,0-.2-3.8,11.8,11.8,0,0,0-4.5-4.4,45.3,45.3,0,0,0-7.3-3.7c-3.5-1.6-6.7-2.8-9.2-3.9l-5.9-2.7C279.4,19.8,279,19,278.4,19.1Z"/><path class="cls-12" d="M293.1,55.1c-.1,0-.1.2.1.5l1.1,1,1,.6,1.2.6,3.3,1.4a18.3,18.3,0,0,1,2.8,1.4,17.4,17.4,0,0,1,2.6,1.9,13.5,13.5,0,0,1,1.7,1.7l.4.5c.2.1.2.2.2.2a.3.3,0,0,0-.1-.2l-.5-.6c-.3-.5-.9-1.1-1.5-1.9a27.6,27.6,0,0,0-2.5-2.1,26.9,26.9,0,0,0-2.9-1.6,20.3,20.3,0,0,0-3.3-1.3l-2.1-1.1C293.6,55.4,293.2,55,293.1,55.1Z"/><path class="cls-12" d="M282,34.2c-.1,0-.2.2,0,.7a6.3,6.3,0,0,0,1.7,1.9,38.6,38.6,0,0,0,4.7,2.8l7.6,3.8a47.1,47.1,0,0,1,6.2,3.5,12.1,12.1,0,0,1,4.1,4,4.8,4.8,0,0,1,.7,3.5c0,.2-.1.4-.1.6l-.2.5-.2.4.3-.4c0-.2.1-.3.2-.5l.3-.6a4.9,4.9,0,0,0-.3-3.7,11.6,11.6,0,0,0-3.7-4.2,42,42,0,0,0-5.9-3.6l-7.5-3.8-4.8-2.7C282.9,34.9,282.5,34.1,282,34.2Z"/><path class="cls-13" d="M279.8-33.8a16.8,16.8,0,0,0-2,3.4,21.7,21.7,0,0,0-1.5,3.5,45.8,45.8,0,0,0-1.8,7.3,58,58,0,0,0-.4,15c1,9.9,3.9,19.7,7.5,29.1a248.7,248.7,0,0,0,13,27.7c4.8,9,10.1,17.9,15.2,26.9a184.2,184.2,0,0,1-19.3-24.5A160.5,160.5,0,0,1,276,26.7c-3.8-9.9-6.5-20.4-6.6-31.1a56.5,56.5,0,0,1,2.2-15.9,47.5,47.5,0,0,1,3.2-7.3A23.1,23.1,0,0,1,279.8-33.8Z"/><path class="cls-14" d="M280.7-35s33.4,7.1,32,42.6c-.3,7.8-5.8,19-6.2,26.8-1.8,38.3,1.2,31.7,2.9,42.5,0,0-3.5-13.8-.1-37,0,0,3.7-21.1,4.1-24.6,1.3-11.5,5-18.7-5.4-34.7C308-19.4,292.8-42.4,280.7-35Z"/><path class="cls-8" d="M274.6-36.5S255.3-39,247.1-13.6c0,0-9.6,46.4,23.4,66.9,0,0,32.2,18.5,35.6,22.8,0,0-6.9-4.7-20-10.6,0,0-27-14.3-34.6-28.9,0,0-17.6-19.6-6.5-55C245-18.4,250.3-44.8,274.6-36.5Z"/><path class="cls-7" d="M192.9,444.9s-3.1-12.2-11.1-15.7l-3.5,1.2s8.2,2.4,13.7,14.1Z"/><path class="cls-8" d="M178.3,430.4s8.3,2.1,13.7,14.1l.4.2s-5.1-12.9-13.5-14.5Z"/><path class="cls-9" d="M181.8,429.2s6.2,2.9,9.6,11.5c0,0-3.4-7.4-9.8-11.4Z"/><path class="cls-11" d="M183.4,473.8c-.2-32.9,8.3-31.3,8.3-31.3,2.1-3.8,11.8-3.2,20.7,14.1,6.9,13.3,3.1,20-3,41.1-6.8,23.6-4.3,34.9-3.5,36.5C200.1,524.8,183.4,498.4,183.4,473.8Z"/><path class="cls-7" d="M171.9,439.5c6-3.7,15.7-1.8,19.8,3,0,0-11.7,10.9-6.5,40.1,4.3,24.2,14.7,42,20.5,51.4.1.1.1.2.2.2-4.5-6.4-20.1-13.1-33.3-26.5C145.6,480.3,163.5,444.7,171.9,439.5Z"/><path class="cls-12" d="M190.6,443.1c-.1,0-.2.4-.7,1a14.3,14.3,0,0,1-2.5,2.5l-5,4c-2,1.6-4.4,3.5-7.1,5.9a54.7,54.7,0,0,0-5.9,5.9l-2.6,3.3a32.6,32.6,0,0,0-2.2,3.4c-.6,1.1-1.1,2.2-1.5,3.1a13,13,0,0,0-1,2.7c-.2.7-.3,1.4-.4,1.8a3.2,3.2,0,0,1-.2.6,3.2,3.2,0,0,0,.2-.6,13.2,13.2,0,0,1,.5-1.8c.2-.7.6-1.6,1-2.6a30.7,30.7,0,0,1,1.6-3.1c.7-1.1,1.4-2.2,2.2-3.3l2.7-3.2a80,80,0,0,1,5.9-5.8c2.7-2.3,5.1-4.2,7.2-5.8l4.9-4.1a14,14,0,0,0,2.5-2.7l.4-.9Z"/><path class="cls-12" d="M190.2,444.3a2.4,2.4,0,0,0,.2.8,9.3,9.3,0,0,0,1.5,2,38.7,38.7,0,0,0,3.3,2.8c1.5,1,3.3,2,5.4,3.2s6.8,3.7,9.5,5.6a14.1,14.1,0,0,1,1.8,1.4l.8.6a1.7,1.7,0,0,0,.6.6l.5.5.3.4.3.4-.3-.4-.3-.4-.4-.5-.6-.7-.7-.6-1.8-1.5c-2.7-2.1-6.4-4.2-9.3-6s-3.9-2.2-5.4-3.2a26.7,26.7,0,0,1-3.2-2.6C190.8,445.1,190.4,444.2,190.2,444.3Z"/><path class="cls-13" d="M191.7,442.5A13.8,13.8,0,0,0,190,445a16.5,16.5,0,0,0-1.4,2.6,41.8,41.8,0,0,0-2,5.6,50.3,50.3,0,0,0-1.3,11.6c-.1,7.8,1.4,15.5,3.4,23.2a216,216,0,0,0,7.6,22.7c2.9,7.5,6.1,14.9,9.1,22.6A126.2,126.2,0,0,1,192,512.6a109.9,109.9,0,0,1-9.1-23.1c-2.1-8.1-3.3-16.5-2.3-25a40.8,40.8,0,0,1,3.3-12.3,26.9,26.9,0,0,1,3.3-5.4A16.7,16.7,0,0,1,191.7,442.5Z"/><path class="cls-14" d="M192.5,441.6s25.5,8.5,21.3,36c-.9,6.1-6.2,14.4-7.1,20.4-4.8,29.8-1.9,24.9-1.5,33.4,0,0-1.5-11,3.2-28.8,0,0,4.7-16.1,5.3-18.9,2-8.8,5.5-14.1-1.2-27.5C212.5,456.2,202.6,436.9,192.5,441.6Z"/><path class="cls-8" d="M187.9,439.9s-14.8-3.6-23.5,15.5c0,0-11.5,35.4,12.5,54.3,0,0,23.6,17.2,25.8,20.8a123.6,123.6,0,0,0-14.7-10S168.2,507,163.5,495c0,0-12-16.9-.3-43.5C163.2,451.5,169.7,431.4,187.9,439.9Z"/></g></g></g></g></g></svg>