<svg xmlns="http://www.w3.org/2000/svg" xmlns:xlink="http://www.w3.org/1999/xlink" viewBox="0 0 443.8 451.5"><defs><style>.cls-1{fill:none;}.cls-2{isolation:isolate;}.cls-3{opacity:0.5;}.cls-4{fill:url(#linear-gradient);}.cls-5{fill:#31d0e5;stroke-width:6px;stroke:url(#linear-gradient-2);}.cls-11,.cls-5,.cls-7{stroke-miterlimit:10;}.cls-6{clip-path:url(#clip-path);}.cls-7{fill:#41a022;stroke:#38841c;stroke-width:0.5px;}.cls-8{fill:#204910;opacity:0.32;}.cls-9{fill:#8fc12f;}.cls-14,.cls-9{opacity:0.51;}.cls-10{fill:#353535;}.cls-11{fill:#48bc28;stroke:#45a525;}.cls-12,.cls-13{fill:#b0e573;}.cls-12{mix-blend-mode:screen;opacity:0.69;}.cls-14{fill:#b6f261;}</style><linearGradient id="linear-gradient" x1="43.17" y1="103.28" x2="392.43" y2="342.6" gradientUnits="userSpaceOnUse"><stop offset="0" stop-color="#9b81cf"/><stop offset="1" stop-color="#3b139b"/></linearGradient><linearGradient id="linear-gradient-2" x1="16.1" y1="225.74" x2="427.68" y2="225.74" gradientUnits="userSpaceOnUse"><stop offset="0" stop-color="#4c1da9"/><stop offset="1" stop-color="#997ece"/></linearGradient><clipPath id="clip-path"><circle class="cls-1" cx="222.6" cy="226.4" r="199.8"/></clipPath></defs><g class="cls-2"><g id="SB39_Interactive_Icon_13_F1"><path class="cls-3" d="M435.1,237a208.3,208.3,0,0,0-25.4-100A211.6,211.6,0,0,0,221.9,23C105,23,10.2,117.8,10.2,234.7S105,446.3,221.9,446.3c3,0,5.9,0,8.9-.2C344.1,443.6,435.1,350.9,435.1,237Z"/><circle class="cls-4" cx="221.9" cy="225.7" r="211.7"/><circle class="cls-5" cx="221.9" cy="225.7" r="202.8"/><g id="_001" data-name="001"><g class="cls-6"><g id="_014" data-name="014"><path class="cls-7" d="M70.5,129.9s-19.8-13-35.4-7.8l-3.4,6s14.5-7.1,36.9,2.3Z"/><path class="cls-8" d="M31.7,128.1s14.3-7.5,36.9,2.3l.9-.2S46,118.7,32.4,127Z"/><path class="cls-9" d="M35.1,122.1s12.2-3.8,28,3.8c0,0-14.1-6-28.1-3.5Z"/><path class="cls-1" d="M199.6,242.8h-.2l-.5-.2Z"/><path class="cls-10" d="M201,242.9h.2c.1,0,.4.2.2.3a.8.8,0,0,1-.8.1h-.2c-.1,0-.4-.2-.2-.3a.8.8,0,0,1,.8-.1h.2l-.6.4h-.2c-.1,0-.4-.2-.2-.3A.8.8,0,0,1,201,242.9Z"/><path class="cls-11" d="M93.6,182.2C51.8,136.5,65.7,128,65.7,128c-1.9-7.8,12.3-19.2,46.6-6.5,26.3,9.8,29.6,24.1,47.7,61,20.4,41.5,38.1,54.1,41.3,55.2C181.3,232,124.8,216.3,93.6,182.2Z"/><path class="cls-7" d="M34.4,148.9C38.1,136.1,54,126.6,65.7,128c0,0-2.5,30.1,41.7,64.1,36.5,28.1,73.4,39.9,93.4,45.5l.5.2c-14.4-3.2-44.5,7.1-79.9,5.2C49.4,238.9,29.3,166.8,34.4,148.9Z"/><path class="cls-12" d="M116.5,242.5l-.3-.4-.8-1a29.1,29.1,0,0,1-2.7-4.5,56.1,56.1,0,0,1-3.1-8c-.9-3.2-1.8-6.9-2.7-11.3s-1.2-6.5-1.8-9.9-1.3-6.8-2.1-9.8a37.9,37.9,0,0,0-2.9-7.8,13.6,13.6,0,0,0-1.4-2.3l-.3-.3-.2-.3-.2-.2.2.2.2.3.2.3a13.6,13.6,0,0,1,1.4,2.3,39.9,39.9,0,0,1,2.7,7.7c.7,3,1.3,6.4,1.9,9.8s1.1,6.7,1.7,9.8,1.7,8.1,2.7,11.4a47,47,0,0,0,3.2,8.1,21.4,21.4,0,0,0,3,4.6l.9,1Z"/><path class="cls-12" d="M74.6,159.9c0,.1.4.6,1,2a17.2,17.2,0,0,1,.9,2.5,25.6,25.6,0,0,1,.7,3.6,97.2,97.2,0,0,1,.7,10.7c0,4.3-.1,9.4-.1,15.4a137.3,137.3,0,0,0,.8,13.9,63,63,0,0,0,3,14.1c.8,2.1,1.7,4.1,2.6,5.9a48.1,48.1,0,0,0,2.9,4.4l1.2,1.6,1,1.1.9.9-.9-.9-1-1.2-1.2-1.5a40.9,40.9,0,0,1-2.7-4.5,38.9,38.9,0,0,1-2.4-5.8,63.5,63.5,0,0,1-2.8-13.9,134.3,134.3,0,0,1-.6-13.8c0-6,.1-11.1.1-15.5a77.2,77.2,0,0,0-.8-10.8,26.1,26.1,0,0,0-.8-3.7c-.4-1.1-.8-2-1.1-2.7S74.7,159.9,74.6,159.9Z"/><path class="cls-12" d="M64.9,130.3c-.1.1.3.7.4,2.2a36,36,0,0,1-.4,6.7c-.4,3.1-1.1,7-1.9,11.8s-1.8,10.5-2.5,17.3a129.8,129.8,0,0,0-.7,15.6c.1,2.7.3,5.4.5,8s.8,5,1.3,7.4a47.3,47.3,0,0,0,1.8,6.3c.7,1.9,1.4,3.6,2,4.9l1.7,3.1.6,1-.6-1c-.4-.8-.9-1.8-1.5-3.2a42.2,42.2,0,0,1-1.9-4.9c-.6-1.9-1.2-4-1.7-6.3s-.8-4.8-1-7.4-.4-5.2-.4-7.9a125.8,125.8,0,0,1,1-15.4c.7-6.7,1.7-12.4,2.5-17.3s1.4-8.7,1.7-11.8a23.6,23.6,0,0,0,.1-7,6.8,6.8,0,0,0-.6-1.6A1.1,1.1,0,0,0,64.9,130.3Z"/><path class="cls-12" d="M127,206.4l.6.9a21.9,21.9,0,0,1,1.6,2.9c.6,1.4,1.2,3.1,2,5.1l2.5,7.5c.7,2,1.5,4.3,2.4,6.6a57.5,57.5,0,0,0,3.1,6.6,22.7,22.7,0,0,0,1.8,2.8,9.8,9.8,0,0,0,1.8,2.1l1.3,1.3.3.3h0l-.3-.3-1.3-1.3-1.7-2.1-1.7-2.8a47.6,47.6,0,0,1-2.9-6.5c-.9-2.3-1.7-4.6-2.3-6.6l-2.5-7.4a39.7,39.7,0,0,0-2.1-5.2,15,15,0,0,0-.9-1.8,6.2,6.2,0,0,0-.9-1.2C127.4,206.6,127.1,206.4,127,206.4Z"/><path class="cls-12" d="M159.2,223.9c-.1.1-.1.2.1.5l.2.5.3.8c.2.6.3,1.5.5,2.5s.1,2.4.2,4,.1,2.3.3,3.5a8.7,8.7,0,0,0,1.2,3.1,4.4,4.4,0,0,0,1.9,1.4l.4.2h.1a.5.5,0,0,1-.4-.2,3,3,0,0,1-1.7-1.5,10.3,10.3,0,0,1-1-3.1c-.1-1.2-.1-2.4-.1-3.5s-.1-2.9-.2-4a10.5,10.5,0,0,0-.7-2.6l-.3-.8-.4-.5Z"/><path class="cls-12" d="M74.3,158.3c-.1.1.2.5,1.3.8a12,12,0,0,0,5.6-.2,75.8,75.8,0,0,0,10.6-3c4.4-1.5,9.6-3.5,15.6-5.4a124.6,124.6,0,0,1,13.6-3.9,54.5,54.5,0,0,1,12.6-1.4,24.7,24.7,0,0,1,8.3,1.6l2.1,1.1.7.4-.7-.5-1.9-1.2a25.7,25.7,0,0,0-8.2-2,47.7,47.7,0,0,0-12.6,1,104.6,104.6,0,0,0-13.6,3.6c-6.1,1.9-11.3,3.8-15.6,5.3s-7.9,2.6-10.5,3.2a19.2,19.2,0,0,1-5.6.6C74.9,158.3,74.4,158.1,74.3,158.3Z"/><path class="cls-12" d="M91.7,178.8h1.8a21.8,21.8,0,0,0,5.2-.8A74.3,74.3,0,0,0,107,175l11.6-5.4,5.1-2.1a52.7,52.7,0,0,1,5.6-1.9,39.5,39.5,0,0,1,5.7-1.4l2.8-.4h6.5l1.2.2,1.1.2,1,.2.9.2.9.3,1.4.4,1.1.5.9.3-.9-.4-1-.4-1.5-.6-.8-.3-1-.2-1-.3-1.1-.2-1.2-.2h-1.2l-2.6-.2h-2.8l-2.9.3a41.2,41.2,0,0,0-5.9,1.2,52.2,52.2,0,0,0-5.6,1.8l-5.2,2.1c-4.6,1.9-8.5,3.8-11.7,5.3s-6,2.5-8.1,3.2a26.2,26.2,0,0,1-5,1.2H92.1C91.8,178.7,91.7,178.7,91.7,178.8Z"/><path class="cls-12" d="M109.8,192.4c-.2.2-.1.6.6,1s2,.6,4.2.5a58.4,58.4,0,0,0,9.4-1.5l14.5-3.5a90.1,90.1,0,0,1,12.2-2.3c3.9-.4,7.3-.3,9.7.6a6.8,6.8,0,0,1,4.2,3.7l.3,1a2.5,2.5,0,0,1,.1.8l.2.7a2.8,2.8,0,0,1-.1-.8v-.9a3.1,3.1,0,0,1-.2-1.1,6.8,6.8,0,0,0-3.6-4.4c-2.2-1.1-5.4-1.5-9.2-1.3a71.4,71.4,0,0,0-11.9,1.8c-5.6,1.2-10.5,2.5-14.5,3.4s-7.1,1.5-9.4,1.8C111.7,192.5,110.4,191.8,109.8,192.4Z"/><path class="cls-12" d="M158.5,222.8c-.1.1.1.3.6.5a9.6,9.6,0,0,0,2.2.3H163l2-.4,5.1-1.2a31.7,31.7,0,0,1,4.6-.7,23.5,23.5,0,0,1,4.6,0l3.6.6,1,.2h0l-1-.4a31.7,31.7,0,0,0-3.5-.8,25.8,25.8,0,0,0-9.6.1l-5.1,1.2a19.7,19.7,0,0,1-3.5.6C159.4,222.8,158.6,222.6,158.5,222.8Z"/><path class="cls-12" d="M65.9,132.4c0,.1.4.4,1.3.8a15.2,15.2,0,0,0,4.6,1,39,39,0,0,0,8.1-.3c3.3-.5,7.1-1.3,11.6-2.3,6.4-1.5,14.1-3.5,20.3-4.3l4.3-.3h4.7l1,.2h.8l-.8-.2-.9-.2-1.3-.2h-3.5a34.7,34.7,0,0,0-4.4.2c-6.3.4-14.1,2.2-20.4,3.5-4.5,1-8.3,1.8-11.5,2.2a49.4,49.4,0,0,1-7.9.5C67.8,132.9,66.1,132,65.9,132.4Z"/><path class="cls-12" d="M127.2,207.3c-.2.2,0,.6.6,1a8.4,8.4,0,0,0,3.7.7,45.2,45.2,0,0,0,8-.7l12.4-2a73.6,73.6,0,0,1,10.4-1.2,20.7,20.7,0,0,1,8.4,1.2,7.3,7.3,0,0,1,3.9,3.6l.4.9c0,.3.1.5.1.7a3.2,3.2,0,0,0,.2.6,4.2,4.2,0,0,0-.1-.7c0-.2-.1-.4-.1-.8a4.6,4.6,0,0,1-.3-.9,7.3,7.3,0,0,0-3.4-4.2,17.5,17.5,0,0,0-8-1.8,60.4,60.4,0,0,0-10.3.8c-4.7.6-8.9,1.4-12.3,1.9a48.3,48.3,0,0,1-8,.9C128.9,207.5,127.7,206.9,127.2,207.3Z"/><path class="cls-13" d="M65.7,128a35.1,35.1,0,0,0,.3,5.7c.3,1.9.7,3.8,1.1,5.6A62.8,62.8,0,0,0,71,149.8a65.7,65.7,0,0,0,5.5,9.7l1.6,2.3,1.7,2.3c1.1,1.5,2.3,3,3.5,4.4a131,131,0,0,0,16,15.6,217.5,217.5,0,0,0,18.2,13.3l4.8,3c1.6,1,3.2,2,4.9,2.9l4.9,2.8,2.4,1.4,2.5,1.4c3.4,1.7,6.7,3.6,10.1,5.2l10.2,5c13.8,6.4,27.9,12.2,42.1,18a282.9,282.9,0,0,1-43.9-13.8,231.2,231.2,0,0,1-41.2-20.9l-4.8-3.3a56.6,56.6,0,0,1-4.7-3.4l-2.4-1.7-2.3-1.9c-1.5-1.2-3-2.4-4.4-3.7l-4.3-3.9-4.2-4.2L83.3,176c-1.3-1.5-2.4-3.1-3.7-4.6a78.8,78.8,0,0,1-11.3-20.5,54.9,54.9,0,0,1-2.8-11.3A34.7,34.7,0,0,1,65.7,128Z"/><path class="cls-14" d="M65.8,125.8s46.1-20.4,75.1,23.2c6.4,9.6,9.5,27.8,15.8,37.4,31,47.5,28.9,37,40.2,48.4,0,0-16.1-13.4-32-44.2,0,0-13.9-28.4-16.5-33-8.4-14.8-10.1-26.6-36.5-36.7C111.9,120.9,73.9,106.5,65.8,125.8Z"/><path class="cls-8" d="M57.2,129.2s-25.3,13.7-13.1,51.3c0,0,28.6,63.8,85.9,59.8,0,0,54.5-5.9,62.2-3.6,0,0-12.3.4-33.1,4.6,0,0-44.6,6.2-66.3-4.5,0,0-38-8.4-55.4-60.3C37.4,176.5,21,140.3,57.2,129.2Z"/><path class="cls-7" d="M279.1,1.1s-5.7-15-16.3-18.3l-4.3,1.9S269.3-13.4,277.9.6Z"/><path class="cls-8" d="M258.5-15.3S269.3-13.7,277.9.6l.5.2s-8.3-15.6-19.1-16.4Z"/><path class="cls-1" d="M305.2,114.3h-.1c-.1,0-.1-.1-.2-.2Z"/><path class="cls-10" d="M305.9,114.9h.1c.1.1.2.3,0,.3a.9.9,0,0,1-.5-.3h-.1c0-.1-.1-.3,0-.3a.9.9,0,0,1,.5.3h-.5c0-.1-.1-.3,0-.3A.9.9,0,0,1,305.9,114.9Z"/><path class="cls-11" d="M271,39c-4.8-41.7,6.2-40.8,6.2-40.8,2.1-5.1,14.4-5.7,28.2,14.9,10.5,15.8,6.7,24.9,2,52.4-5.3,30.9-.6,44.8.7,46.7C299.4,101.1,274.6,70.1,271,39Z"/><path class="cls-7" d="M251.8-2.8c7-5.5,19.5-4.5,25.4,1,0,0-13.3,15.5-2.5,51.7,8.8,29.9,24.4,51,33.2,62.1.1.1.1.2.2.2-6.6-7.4-27.3-13.7-45.9-28.8C224.2,52.6,241.8,5,251.8-2.8Z"/><path class="cls-12" d="M259.6,81.2c.1,0,.1-.1.1-.3a2.2,2.2,0,0,1-.1-.9,31.8,31.8,0,0,1,.3-3.6,36.8,36.8,0,0,1,1.5-5.6,62.5,62.5,0,0,1,3-7.2l2.9-6.2a66.3,66.3,0,0,0,2.7-6.3,24.3,24.3,0,0,0,1.6-5.4,12.8,12.8,0,0,0,.1-1.8v0a6.9,6.9,0,0,1-.2,1.8,23.7,23.7,0,0,1-1.6,5.3c-.8,1.9-1.8,4-2.8,6.1l-2.9,6.1a78.9,78.9,0,0,0-3.1,7.3,34.8,34.8,0,0,0-1.5,5.7,29.9,29.9,0,0,0-.2,3.8,6.4,6.4,0,0,0,.2.9Z"/><path class="cls-12" d="M269.5,19.2c-.1,0-.1.5-.3,1.5l-.5,1.7a15.8,15.8,0,0,1-1.1,2.3c-.9,1.7-2.2,3.7-3.8,6.1s-3.8,5.1-6.2,8.5a90.5,90.5,0,0,0-5.1,7.9,49.2,49.2,0,0,0-3.9,8.9,41.5,41.5,0,0,0-.9,4.3,22.4,22.4,0,0,0-.2,3.5,6.1,6.1,0,0,0,.1,1.4,3.1,3.1,0,0,0,.1,1,4.5,4.5,0,0,1,.1.8,4.5,4.5,0,0,0-.1-.8c0-.3-.1-.6-.1-1V63.9a22.4,22.4,0,0,1,.2-3.5,25.3,25.3,0,0,1,1-4.2,45.2,45.2,0,0,1,4-8.7c1.7-2.8,3.5-5.4,5.2-7.8s4.4-6,6.1-8.4A49.8,49.8,0,0,0,268,25a15.4,15.4,0,0,0,1-2.4c.2-.7.4-1.3.5-1.8A6.3,6.3,0,0,0,269.5,19.2Z"/><path class="cls-12" d="M275.8-.9c-.1,0-.1.5-.6,1.3A21.4,21.4,0,0,1,272.3,4l-5.7,5.7c-2.4,2.3-5.1,5.1-8.2,8.5a96.3,96.3,0,0,0-6.6,8.3c-1,1.5-2,3-2.9,4.6s-1.6,3.1-2.2,4.5a33.2,33.2,0,0,0-1.6,4.3c-.3,1.3-.6,2.4-.8,3.4s-.2,1.8-.3,2.4a2.8,2.8,0,0,1-.1.8,2.8,2.8,0,0,0,.1-.8c.1-.6.2-1.4.4-2.3s.5-2.2.9-3.5a27.5,27.5,0,0,1,1.7-4.1,31.9,31.9,0,0,1,2.3-4.5c.9-1.5,1.9-3,2.9-4.5a93.1,93.1,0,0,1,6.7-8.1c3.1-3.4,5.9-6.1,8.2-8.4l5.7-5.8A19.7,19.7,0,0,0,275.6.6a2.6,2.6,0,0,0,.3-1.1C275.9-.8,275.9-.9,275.8-.9Z"/><path class="cls-12" d="M279.8,65.5c-.1,0,0,.3-.1.8a12.2,12.2,0,0,1-.3,2.2q-.3,1.5-.9,3.6c-.4,1.4-1,3.1-1.6,5s-.9,3-1.3,4.6-.7,3.4-.9,4.9a18.5,18.5,0,0,0-.1,2.3,9.7,9.7,0,0,0,.1,1.8c.1.6.2,1,.2,1.2a.8.8,0,0,1,.1.3h0a.8.8,0,0,0-.1-.3,7.4,7.4,0,0,0-.2-1.2,10.7,10.7,0,0,1,0-1.8,17,17,0,0,1,.1-2.2,45.7,45.7,0,0,1,1-4.8c.4-1.6.9-3.1,1.3-4.5s1.2-3.6,1.6-5a27.6,27.6,0,0,0,.9-3.7,7.8,7.8,0,0,0,.2-1.4,3.8,3.8,0,0,0,.1-1A2.8,2.8,0,0,0,279.8,65.5Z"/><path class="cls-12" d="M290.5,87.9c-.1,0-.1.1-.2.3a.8.8,0,0,1-.1.4,4.3,4.3,0,0,0-.1.5,11.8,11.8,0,0,1-.8,1.6,23.8,23.8,0,0,1-1.4,2.3l-1.2,2a6.6,6.6,0,0,0-.6,2.2,3,3,0,0,0,.5,1.5l.2.3h.1v0h-.1v-.3a2.2,2.2,0,0,1-.3-1.5,4.4,4.4,0,0,1,.7-2.1,13.7,13.7,0,0,1,1.3-2,15.8,15.8,0,0,0,1.4-2.3,5.2,5.2,0,0,0,.7-1.6,1.8,1.8,0,0,0,.1-.6v-.4A.4.4,0,0,0,290.5,87.9Z"/><path class="cls-12" d="M269.9,18.2c-.1,0-.1.4.4.9a7.9,7.9,0,0,0,3.1,2.2,55.2,55.2,0,0,0,7.1,2.5L291.2,27c2.9,1,6.1,2.1,9,3.3a35.2,35.2,0,0,1,7.5,4.3,17.7,17.7,0,0,1,3.9,4.1l.7,1.4a1,1,0,0,1,.2.5,1.8,1.8,0,0,0-.1-.5l-.7-1.4a15.8,15.8,0,0,0-3.6-4.4,35.2,35.2,0,0,0-7.3-4.4,82,82,0,0,0-8.9-3.5l-10.7-3.2c-3-.9-5.4-1.7-7.1-2.4a16,16,0,0,1-3.3-1.9C270.3,18.4,270.1,18.1,269.9,18.2Z"/><path class="cls-12" d="M271.3,36.3c0,.1.1.2.2.3l.3.3.4.3a18.5,18.5,0,0,0,3.2,1.6,52.5,52.5,0,0,0,5.8,1.5l8.5,1.7,3.7.9,3.8,1.1a28.7,28.7,0,0,1,3.7,1.5l1.7.9.8.5.7.5,1.4,1.1.6.5.6.6c.2.2.4.3.5.5l.5.5.5.5.3.5.6.8.4.7.4.5-.3-.5a4.3,4.3,0,0,1-.4-.7,7,7,0,0,1-.6-.9l-.4-.5-.4-.5-.4-.5-.6-.6-.5-.6-.6-.5-1.4-1.1-.8-.6-.8-.5-1.7-1-3.7-1.7-3.8-1.2-3.7-.9c-3.3-.8-6.1-1.3-8.5-1.8a55.6,55.6,0,0,1-5.8-1.4,16.9,16.9,0,0,1-3.1-1.3l-.5-.2-.3-.2Z"/><path class="cls-12" d="M275.9,51c-.3.1-.3.3-.1.8s.8,1.1,2.1,2a45.9,45.9,0,0,0,5.8,2.8l9.3,3.9a48.2,48.2,0,0,1,7.6,3.6,16,16,0,0,1,5.1,4.1,4.2,4.2,0,0,1,.8,3.7,6.4,6.4,0,0,1-.2.7c-.1.2-.2.3-.2.5l-.2.4a1.1,1.1,0,0,0,.2-.4l.4-.5.3-.7a4.9,4.9,0,0,0-.2-3.9,14.4,14.4,0,0,0-4.5-4.3,55.9,55.9,0,0,0-7.3-3.8l-9.3-3.8a57.3,57.3,0,0,1-5.9-2.8C276.9,51.8,276.4,50.9,275.9,51Z"/><path class="cls-12" d="M290.5,87c-.1.1,0,.2.2.5a3.7,3.7,0,0,0,1.1,1.1l.9.6,1.3.6,3.3,1.3a19.1,19.1,0,0,1,2.8,1.5,16,16,0,0,1,2.5,1.8l1.7,1.7.5.6.2.2-.2-.2a2.1,2.1,0,0,0-.4-.6,20.2,20.2,0,0,0-1.6-1.9,13.2,13.2,0,0,0-2.5-2.1,20,20,0,0,0-2.8-1.6l-3.3-1.4a10,10,0,0,1-2.1-1.1C291,87.4,290.7,86.9,290.5,87Z"/><path class="cls-12" d="M275.6.7c-.1,0,0,.3.4.9A9.7,9.7,0,0,0,278.1,4a30.6,30.6,0,0,0,4.6,3,74.3,74.3,0,0,0,7.3,3.4c4,1.7,9.1,3.6,12.8,5.7l2.5,1.5,1,.7.9.7.6.5.5.5.4.4-.4-.4-.4-.5-.6-.6-.9-.7-1-.8L303,15.7a124.1,124.1,0,0,0-12.7-6.1c-2.8-1.2-5.2-2.4-7.2-3.4a36.6,36.6,0,0,1-4.5-2.8C276.4,1.6,275.8.5,275.6.7Z"/><path class="cls-12" d="M279.5,66.1c-.2,0-.2.3-.1.7a4.9,4.9,0,0,0,1.8,1.9,27.3,27.3,0,0,0,4.6,2.8l7.7,3.8c2,1.1,4.2,2.3,6.1,3.5a14.8,14.8,0,0,1,4.2,4,4.8,4.8,0,0,1,.7,3.5c-.1.3-.1.5-.2.6a.8.8,0,0,1-.2.5v.4a1.1,1.1,0,0,0,.2-.4l.3-.5c.1-.1.1-.4.2-.6a5.1,5.1,0,0,0-.2-3.6,11.8,11.8,0,0,0-3.7-4.2,58.7,58.7,0,0,0-5.9-3.7L287.3,71a29.7,29.7,0,0,1-4.7-2.7C280.3,66.9,279.9,66,279.5,66.1Z"/><path class="cls-13" d="M277.2-1.8a22.3,22.3,0,0,0-2,3.3c-.5,1.2-1,2.3-1.4,3.5a39.3,39.3,0,0,0-1.9,7.3,62.8,62.8,0,0,0-.3,15c.9,10,3.8,19.7,7.4,29.2a266.4,266.4,0,0,0,13,27.6c4.9,9.1,10.1,17.9,15.3,27A170,170,0,0,1,288,86.5a148,148,0,0,1-14.6-27.9c-3.7-9.8-6.4-20.3-6.5-31.1a49.9,49.9,0,0,1,2.2-15.8,32.5,32.5,0,0,1,3.2-7.4A22.3,22.3,0,0,1,277.2-1.8Z"/><path class="cls-14" d="M278.1-3s33.4,7.1,32.1,42.5c-.3,7.8-5.9,19-6.2,26.8-1.9,38.4,1.2,31.8,2.8,42.5,0,0-3.5-13.7,0-36.9,0,0,3.7-21.1,4.1-24.7,1.2-11.4,5-18.6-5.5-34.6C305.4,12.6,290.2-10.4,278.1-3Z"/><path class="cls-8" d="M272.1-4.5s-19.3-2.6-27.6,22.9c0,0-9.6,46.4,23.4,66.9,0,0,32.3,18.4,35.7,22.7a166.1,166.1,0,0,0-20.1-10.6s-26.9-14.3-34.6-28.8c0,0-17.5-19.7-6.5-55C242.4,13.6,247.8-12.8,272.1-4.5Z"/></g></g></g></g></g></svg>