<svg xmlns="http://www.w3.org/2000/svg" xmlns:xlink="http://www.w3.org/1999/xlink" viewBox="0 0 443.8 451.5"><defs><style>.cls-1{fill:none;}.cls-2{isolation:isolate;}.cls-3{opacity:0.5;}.cls-4{fill:url(#linear-gradient);}.cls-5{fill:#31d0e5;stroke-width:6px;stroke:url(#linear-gradient-2);}.cls-10,.cls-5,.cls-7{stroke-miterlimit:10;}.cls-6{clip-path:url(#clip-path);}.cls-7{fill:#41a022;stroke:#38841c;stroke-width:0.5px;}.cls-8{fill:#204910;opacity:0.32;}.cls-9{fill:#8fc12f;}.cls-13,.cls-9{opacity:0.51;}.cls-10{fill:#48bc28;stroke:#45a525;}.cls-11,.cls-12{fill:#b0e573;}.cls-11{mix-blend-mode:screen;opacity:0.69;}.cls-13{fill:#b6f261;}.cls-14{fill:#353535;}</style><linearGradient id="linear-gradient" x1="43.17" y1="103.28" x2="392.43" y2="342.6" gradientUnits="userSpaceOnUse"><stop offset="0" stop-color="#9b81cf"/><stop offset="1" stop-color="#3b139b"/></linearGradient><linearGradient id="linear-gradient-2" x1="16.1" y1="225.74" x2="427.68" y2="225.74" gradientUnits="userSpaceOnUse"><stop offset="0" stop-color="#4c1da9"/><stop offset="1" stop-color="#997ece"/></linearGradient><clipPath id="clip-path"><circle class="cls-1" cx="222.6" cy="226.4" r="199.8"/></clipPath></defs><g class="cls-2"><g id="SB39_Interactive_Icon_13_F1"><path class="cls-3" d="M435.1,237a208.3,208.3,0,0,0-25.4-100A211.6,211.6,0,0,0,221.9,23C105,23,10.2,117.8,10.2,234.7S105,446.3,221.9,446.3c3,0,5.9,0,8.9-.2C344.1,443.6,435.1,350.9,435.1,237Z"/><circle class="cls-4" cx="221.9" cy="225.7" r="211.7"/><circle class="cls-5" cx="221.9" cy="225.7" r="202.8"/><g id="_001" data-name="001"><g class="cls-6"><g id="_006" data-name="006"><path class="cls-7" d="M85,328.1s-6.8-22.7-22.2-28.7l-6.4,2.5s15.7,3.8,26.9,25.3Z"/><path class="cls-8" d="M56.4,301.9s15.8,3.3,26.9,25.3l.8.4s-10.7-23.9-26.5-26.2Z"/><path class="cls-9" d="M62.8,299.4s11.9,4.9,19.1,20.9c0,0-7.1-13.7-19.4-20.8Z"/><path class="cls-10" d="M69.3,383c-2.8-61.8,13.2-59.4,13.2-59.4,3.6-7.2,21.8-6.9,40,24.8,13.9,24.4,7.3,37.4-2.4,77.4-10.9,44.9-5.4,65.9-3.6,68.8C104.7,477.5,71.4,429.2,69.3,383Z"/><path class="cls-7" d="M45.2,319.6c10.9-7.5,29.3-4.7,37.3,4,0,0-21.1,21.4-9,75.9,10,45,30.8,77.6,42.6,94.8l.3.4c-9-11.7-38.8-23-64.7-47.2C-1.1,398.3,29.7,330,45.2,319.6Z"/><path class="cls-11" d="M48.2,444a1.2,1.2,0,0,0,.1-.5v-1.3a42,42,0,0,1,.8-5.2,50.1,50.1,0,0,1,2.7-8c1.4-3.1,3.1-6.6,5.2-10.4s3.2-5.8,4.9-8.8,3.4-6.1,4.7-9a37.3,37.3,0,0,0,2.8-7.8c.2-1.1.3-2,.4-2.7v-1s-.1.1,0,.3v.3c0,.1-.1.3-.1.4a13.8,13.8,0,0,1-.3,2.6,36.5,36.5,0,0,1-3,7.7c-1.3,2.8-3,5.8-4.7,8.7s-3.5,5.9-5,8.7a115.3,115.3,0,0,0-5.3,10.5,48.5,48.5,0,0,0-2.7,8.2,29,29,0,0,0-.7,5.5,8.2,8.2,0,0,1,.1,1.4A.6.6,0,0,0,48.2,444Z"/><path class="cls-11" d="M69,353.8a9.1,9.1,0,0,0-.5,2.1c-.3.7-.5,1.5-1,2.5a18.4,18.4,0,0,1-1.8,3.3,99.4,99.4,0,0,1-6.3,8.6c-2.7,3.3-6.1,7.1-9.9,11.8a135.9,135.9,0,0,0-8.3,11.2A62,62,0,0,0,34.5,406a42.3,42.3,0,0,0-1.8,6.2,36.1,36.1,0,0,0-.6,5.2c-.1.7,0,1.4-.1,2a8.6,8.6,0,0,1,.1,1.5,10.9,10.9,0,0,1,.1,1.2,10.9,10.9,0,0,0-.1-1.2v-1.5a14.1,14.1,0,0,1,.1-2,36.3,36.3,0,0,1,.7-5.1,59.9,59.9,0,0,1,1.9-6.1,63.7,63.7,0,0,1,6.8-12.5c2.7-3.9,5.7-7.6,8.4-10.9L59.9,371a72.6,72.6,0,0,0,6.3-8.8,29.4,29.4,0,0,0,1.8-3.5,11.4,11.4,0,0,0,.8-2.7A7.4,7.4,0,0,0,69,353.8Z"/><path class="cls-11" d="M80.4,324.8a13.4,13.4,0,0,1-1.1,1.9,26.8,26.8,0,0,1-4.6,4.9l-9,7.9c-3.7,3.1-8.1,6.9-13,11.7a149.8,149.8,0,0,0-10.5,11.5l-4.7,6.4c-1.4,2.2-2.7,4.4-3.8,6.5s-1.9,4.2-2.6,6.1-1.2,3.6-1.6,5-.6,2.6-.7,3.4-.2,1.3-.2,1.3a11.3,11.3,0,0,0,.2-1.2c.2-.8.5-2,.8-3.4s1-3.1,1.7-5a62.3,62.3,0,0,1,2.8-5.9c1.2-2.1,2.5-4.2,4-6.4s3-4.2,4.7-6.3A144.1,144.1,0,0,1,53.4,352c4.9-4.7,9.3-8.5,13-11.7s6.7-5.7,8.9-7.9a26.3,26.3,0,0,0,4.6-5.4,8.2,8.2,0,0,0,.6-1.6C80.5,325,80.5,324.8,80.4,324.8Z"/><path class="cls-11" d="M79.4,423a8.7,8.7,0,0,1-.1,1.1,24.9,24.9,0,0,1-.7,3.3,50.3,50.3,0,0,1-1.7,5.1l-2.8,7.3c-.8,2.1-1.7,4.3-2.4,6.7a62.2,62.2,0,0,0-1.9,7.1c-.2,1.2-.3,2.3-.4,3.3v2.7c.1.8.1,1.4.2,1.8a1.1,1.1,0,0,1,.1.5h0a1.1,1.1,0,0,0-.1-.5c0-.4-.1-1-.1-1.8a12,12,0,0,1,0-2.7c.1-1,.3-2.1.5-3.2a47.6,47.6,0,0,1,1.9-6.9c.8-2.3,1.7-4.6,2.5-6.6l2.8-7.2a38.9,38.9,0,0,0,1.7-5.3c.2-.8.4-1.4.5-2a8.6,8.6,0,0,0,.1-1.5C79.6,423.4,79.5,423,79.4,423Z"/><path class="cls-11" d="M69.8,352.3c-.2,0-.2.5.4,1.4s2,2.2,4.4,3.5a76.5,76.5,0,0,0,10.2,4.5l15.4,5.8a134.3,134.3,0,0,1,12.9,5.8,49.8,49.8,0,0,1,10.6,6.9,24.4,24.4,0,0,1,5.3,6.6,17.8,17.8,0,0,1,1,2.1,7.3,7.3,0,0,0,.2.8,2.4,2.4,0,0,0-.2-.8,15.9,15.9,0,0,0-.8-2.2,21.8,21.8,0,0,0-4.9-6.7,47.8,47.8,0,0,0-10.3-7.3,113.8,113.8,0,0,0-12.8-6c-5.9-2.4-11.1-4.3-15.4-5.9a84.5,84.5,0,0,1-10.1-4.3,18.6,18.6,0,0,1-4.7-3.1C70.2,352.7,70,352.2,69.8,352.3Z"/><path class="cls-11" d="M70,379.2a.6.6,0,0,0,.2.4l.4.4.6.5a20.1,20.1,0,0,0,4.5,2.7,65,65,0,0,0,8.5,2.8c3.4,1,7.6,2,12.3,3.4l5.3,1.6c1.8.6,3.7,1.3,5.5,2.1a42,42,0,0,1,5.2,2.6l2.5,1.5,1.1.8,1.1.8,1.9,1.7.9.9.8.9.7.8.6.8.6.8.5.7.8,1.3.5,1,.5.9-.4-.9-.5-1-.8-1.3a23079417590755.2,23079417590755.2,0,0,1-1-1.6l-.6-.9-.7-.8-.8-.9-.9-.9a10.9,10.9,0,0,0-1.9-1.8,8.1,8.1,0,0,0-1-.9l-1.2-.9-2.4-1.6a37.8,37.8,0,0,0-5.3-2.8c-1.8-.9-3.6-1.6-5.4-2.3l-5.4-1.7-12.4-3.4c-3.4-1-6.2-1.9-8.3-2.7a48.1,48.1,0,0,1-4.5-2.2l-.6-.4-.5-.3Z"/><path class="cls-11" d="M75.2,401.3c-.4,0-.5.4-.2,1.1a8.3,8.3,0,0,0,2.9,3.1,66.6,66.6,0,0,0,8.2,4.8c3.6,1.9,8.3,4.1,13.4,6.6a112.1,112.1,0,0,1,10.8,6.1,21.8,21.8,0,0,1,7.1,6.6,7.3,7.3,0,0,1,.8,5.6,3.6,3.6,0,0,0-.4.9,4.3,4.3,0,0,1-.4.7l-.4.6.5-.6.6-.7a4.1,4.1,0,0,1,.5-.9,6.6,6.6,0,0,0,.1-5.7c-1-2.3-3.2-4.7-6.2-6.9a82.1,82.1,0,0,0-10.4-6.3c-5-2.6-9.6-4.8-13.2-6.6a85.2,85.2,0,0,1-8.4-4.7C76.6,402.5,76,401.2,75.2,401.3Z"/><path class="cls-11" d="M79.9,327c-.1.1,0,.6.4,1.5a17.2,17.2,0,0,0,2.9,3.7,40.3,40.3,0,0,0,6.5,4.9,103.8,103.8,0,0,0,10.4,5.7c5.8,3,13,6.3,18.3,9.7l3.5,2.5,1.5,1.2,1.1,1,1,1,.6.7.6.6-.6-.6a2.1,2.1,0,0,0-.6-.8l-.8-1-1.2-1.1a15.9,15.9,0,0,1-1.3-1.3l-3.5-2.6c-5.2-3.7-12.3-7.4-18-10.4-4.1-2.1-7.5-4-10.3-5.7a42.7,42.7,0,0,1-6.3-4.7C81,328.6,80.2,326.9,79.9,327Z"/><path class="cls-11" d="M79,423.9c-.3,0-.4.3-.2,1a8.4,8.4,0,0,0,2.4,3,41.9,41.9,0,0,0,6.6,4.6c2.9,1.8,6.7,3.9,10.8,6.3a93.9,93.9,0,0,1,8.7,5.8,20.2,20.2,0,0,1,5.7,6.3,7,7,0,0,1,.7,5.3l-.3.9a3.3,3.3,0,0,1-.3.6l-.3.6a2.5,2.5,0,0,0,.4-.6l.4-.6.5-.9a7.7,7.7,0,0,0,0-5.4,17.8,17.8,0,0,0-5-6.5,63.8,63.8,0,0,0-8.4-6c-4-2.6-7.7-4.6-10.7-6.4a75.4,75.4,0,0,1-6.7-4.5C80.1,425,79.6,423.8,79,423.9Z"/><path class="cls-12" d="M82.5,323.6a26.1,26.1,0,0,0-3.4,4.6,46.7,46.7,0,0,0-2.7,4.9,67,67,0,0,0-3.8,10.6,68.4,68.4,0,0,0-1.9,11,26.6,26.6,0,0,0-.3,2.8l-.2,2.8c0,1.9-.1,3.7-.1,5.6a130,130,0,0,0,2.4,22.3A187.5,187.5,0,0,0,77.9,410c.5,1.8,1.2,3.6,1.8,5.4s1.1,3.6,1.8,5.3l2,5.3,1,2.7,1,2.6c1.5,3.5,2.8,7,4.4,10.5l4.7,10.4c6.5,13.7,13.6,27.2,20.7,40.7a317.6,317.6,0,0,1-24.9-38.6,249.4,249.4,0,0,1-18.2-42.5l-1.6-5.6c-.6-1.9-.9-3.8-1.4-5.7l-.7-2.8-.6-2.8c-.3-2-.8-3.9-1-5.8l-.8-5.8-.5-5.8c-.2-1.9-.2-3.9-.3-5.9s.1-3.9.2-5.8a78.6,78.6,0,0,1,4.3-23A60.3,60.3,0,0,1,75,332.3,36.8,36.8,0,0,1,82.5,323.6Z"/><path class="cls-13" d="M84,321.9s48.5,13.9,42.8,65.9c-1.2,11.5-10.5,27.4-11.8,38.9-6.6,56.3-1.4,46.9-.1,62.9,0,0-3.8-20.6,3.7-54.4,0,0,7.5-30.8,8.5-35.9,3-16.8,9.3-27-4.5-51.6C122.6,347.7,102.6,312.2,84,321.9Z"/><path class="cls-8" d="M75.2,319.1S47.1,313.3,32.4,350c0,0-18.9,67.3,27.6,100.9,0,0,45.6,30.4,50.1,37.1,0,0-9.7-7.5-28.4-17.7,0,0-38.2-23.7-48-45.9,0,0-23.8-30.8-4-81.7C29.7,342.7,40.3,304.4,75.2,319.1Z"/><path class="cls-7" d="M270.1,287.1s-9.9-12.6-21.1-12.6l-3.4,3.2s10.8-1.5,23.2,9.3Z"/><path class="cls-8" d="M245.6,277.7s10.8-1.8,23.2,9.3h.6s-12.6-12.4-23.2-10Z"/><path class="cls-9" d="M249,274.5s8.7.2,17.2,8.5c0,0-7.8-6.9-17.3-8.3Z"/><path class="cls-1" d="M328.8,387.4h-.2l-.2-.2Z"/><path class="cls-14" d="M329.6,387.8h.2c0,.1.2.2,0,.3s-.4,0-.5-.1h-.1c-.1,0-.3-.2-.1-.2a.4.4,0,0,1,.5.1h.2l-.5.2h-.1c-.1,0-.3-.2-.1-.2A.4.4,0,0,1,329.6,387.8Z"/><path class="cls-10" d="M273.7,325.7c-17-38.3-6.3-40.8-6.3-40.8.5-5.4,12.1-9.7,31.4,5.9,14.7,11.9,13.8,21.8,17.5,49.4,4.2,31,12.8,42.9,14.7,44.3C319.3,376.6,286.4,354.3,273.7,325.7Z"/><path class="cls-7" d="M242.9,291.6c5.1-7.4,17.3-10.2,24.5-6.7,0,0-8.1,18.8,13,50.1,17.4,26,38.6,41.4,50.2,49.4.2.1.3.1.3.2-8.5-5.2-30.1-5-52.4-13.9C233.1,352.6,235.7,302,242.9,291.6Z"/><path class="cls-11" d="M275.4,369.4v-.3a2.3,2.3,0,0,0-.3-.9,24.2,24.2,0,0,1-.7-3.4,25.7,25.7,0,0,1-.3-5.8c.1-2.3.3-4.9.7-7.9s.6-4.4.9-6.7a56.9,56.9,0,0,0,.8-6.8,24.5,24.5,0,0,0-.2-5.6,12.7,12.7,0,0,0-.4-1.8c0-.1-.1-.2-.1-.3s-.1-.1-.1-.2h0a.3.3,0,0,0,.1.2c0,.1.1.2.1.3a14.6,14.6,0,0,1,.4,1.7,26,26,0,0,1,0,5.6c-.1,2.1-.5,4.4-.8,6.7s-.8,4.6-1,6.7-.7,5.6-.8,7.9a49.1,49.1,0,0,0,.3,5.9,21.3,21.3,0,0,0,1,3.6,3.4,3.4,0,0,0,.3.8Z"/><path class="cls-11" d="M266.3,307.3c-.1,0,.1.5.2,1.5a10.7,10.7,0,0,1,0,1.8,12.9,12.9,0,0,1-.3,2.5,50.6,50.6,0,0,1-1.9,7L261,330a91.2,91.2,0,0,0-2.5,9.1,46.5,46.5,0,0,0-1.1,9.7,28.6,28.6,0,0,0,.4,4.3c.3,1.3.6,2.5.9,3.4a5,5,0,0,0,.5,1.3,1.9,1.9,0,0,0,.4.9l.3.8-.3-.8a3.9,3.9,0,0,1-.4-.9,11.2,11.2,0,0,0-.5-1.3,22.4,22.4,0,0,1-.7-3.4,28.6,28.6,0,0,1-.4-4.3,40.2,40.2,0,0,1,1.3-9.5,68.5,68.5,0,0,1,2.6-9c1.2-3.9,2.4-7.1,3.3-9.9a46.1,46.1,0,0,0,1.8-7.1,13,13,0,0,0,.3-2.6,10.3,10.3,0,0,0-.1-1.9A5.1,5.1,0,0,0,266.3,307.3Z"/><path class="cls-11" d="M266.4,286.2c-.1,0,0,.5-.2,1.5a21.3,21.3,0,0,1-1.7,4.2c-.9,1.9-2.2,4.3-3.8,7.2s-3.4,6.4-5.3,10.6-2.7,6.4-3.8,9.8a51.1,51.1,0,0,0-1.3,5.3,30.5,30.5,0,0,0-.8,5,23.3,23.3,0,0,0-.2,4.5,34.9,34.9,0,0,0,.2,3.5c.1,1,.3,1.8.4,2.4l.2.8-.2-.8q-.2-.9-.3-2.4a19.6,19.6,0,0,1-.1-3.5,36.4,36.4,0,0,1,.3-4.5,46.3,46.3,0,0,1,.9-4.9c.4-1.7.9-3.5,1.4-5.2,1.2-3.4,2.6-6.7,4-9.7s3.7-7.6,5.3-10.5,2.8-5.3,3.7-7.2a20.9,20.9,0,0,0,1.5-4.5,4.5,4.5,0,0,0,0-1.2Z"/><path class="cls-11" d="M290,348.4c-.1,0,0,.3.1.8a8.7,8.7,0,0,1,.4,2.2,35.7,35.7,0,0,1,.2,3.7v5.3c0,1.4,0,3.1.1,4.8a41,41,0,0,0,.6,4.9l.6,2.2a16.2,16.2,0,0,0,.6,1.7,6.4,6.4,0,0,1,.6,1.1l.2.2h0l-.2-.2-.5-1.1a8.5,8.5,0,0,1-.6-1.7,14.2,14.2,0,0,1-.5-2.2,25.2,25.2,0,0,1-.5-4.8c-.1-1.7-.1-3.3-.1-4.7v-5.3a37.9,37.9,0,0,0-.2-3.8,7.8,7.8,0,0,1-.2-1.4l-.3-.9Z"/><path class="cls-11" d="M306.8,366.6v1.3a5.9,5.9,0,0,1-.2,1.7,20.8,20.8,0,0,1-.7,2.6,15.5,15.5,0,0,0-.5,2.3,5.9,5.9,0,0,0,.1,2.3,3.3,3.3,0,0,0,.9,1.3l.2.2h.2l-.2-.2h-.2a3.7,3.7,0,0,1-.7-1.4,5.4,5.4,0,0,1,0-2.2c.2-.8.5-1.6.7-2.3a20.8,20.8,0,0,0,.7-2.6,6.2,6.2,0,0,0,.2-1.8c0-.2-.1-.4-.1-.6a.6.6,0,0,1-.1-.4C307,366.6,306.9,366.6,306.8,366.6Z"/><path class="cls-11" d="M266.4,306.2s0,.4.7.8a8.4,8.4,0,0,0,3.6,1.1,53.3,53.3,0,0,0,7.5.3h11.2a78.2,78.2,0,0,1,9.6.5,31.8,31.8,0,0,1,8.3,1.8,14,14,0,0,1,5,2.8,5.6,5.6,0,0,1,1.1,1.1l.4.4-.3-.4-1-1.2a18.9,18.9,0,0,0-4.8-3.1,36.1,36.1,0,0,0-8.3-2,77.3,77.3,0,0,0-9.5-.7H278.7c-3.2,0-5.6,0-7.5-.2a13.9,13.9,0,0,1-3.7-.8C266.8,306.3,266.6,306.1,266.4,306.2Z"/><path class="cls-11" d="M273.2,323.1l.3.2.3.2h.5a11.7,11.7,0,0,0,3.5.6,33.2,33.2,0,0,0,6-.3l8.7-.9,3.7-.3h4a25.8,25.8,0,0,1,3.9.4,10.8,10.8,0,0,1,1.9.3l.9.2.9.3,1.7.6.7.3.7.4.7.3.6.4.6.3.4.4.9.6.6.5.5.4-.5-.4-.6-.6-.8-.6-.5-.4-.5-.3-.6-.4-.7-.4-.7-.4-.8-.3-1.6-.7-.9-.3-.9-.3-2-.4-4-.5a26.7,26.7,0,0,0-4,0l-3.8.2-8.6.9-6,.3a14.6,14.6,0,0,1-3.4-.3h-1.1Z"/><path class="cls-11" d="M281.9,335.8c-.2.1-.2.3.1.7a6,6,0,0,0,2.7,1.3,41.6,41.6,0,0,0,6.3,1l10.1.9a72.2,72.2,0,0,1,8.3,1.1,15.1,15.1,0,0,1,6.1,2.5,4.4,4.4,0,0,1,1.9,3.3v.7a4.3,4.3,0,0,1-.1.5,1.2,1.2,0,0,1-.1.5l.2-.5a1.4,1.4,0,0,1,.2-.6,1.7,1.7,0,0,1,.1-.7,5,5,0,0,0-1.4-3.7,13.3,13.3,0,0,0-5.6-2.8,52.7,52.7,0,0,0-8.1-1.4l-10-.9-6.4-.9C283.1,336.2,282.4,335.5,281.9,335.8Z"/><path class="cls-11" d="M306.6,365.8l.3.4,1.4.7,1.1.3,1.4.2,3.5.3a16.7,16.7,0,0,1,3.1.5,13.2,13.2,0,0,1,3,1l2.1,1.1.6.4h0l-.5-.4-2.1-1.4a20.8,20.8,0,0,0-3-1.2,13.2,13.2,0,0,0-3.2-.7l-3.5-.4-2.4-.3C307.2,365.9,306.7,365.6,306.6,365.8Z"/><path class="cls-11" d="M266.6,287.8a2.2,2.2,0,0,0,.7.8,13.5,13.5,0,0,0,2.7,1.6,22.9,22.9,0,0,0,5.3,1.5c2.2.4,4.8.8,7.9,1.1a127.5,127.5,0,0,1,14,1.6,19.1,19.1,0,0,1,2.8.7l1.2.3,1,.4.8.4.6.3.5.2-.5-.2-.5-.4-.8-.4-1-.4-1.2-.5-2.8-.8a129.4,129.4,0,0,0-13.9-2.1c-3.1-.3-5.7-.7-7.9-1.1a28.9,28.9,0,0,1-5.2-1.4C267.7,288.5,266.8,287.6,266.6,287.8Z"/><path class="cls-11" d="M289.9,349.1c-.2.1-.2.3.1.7a6.2,6.2,0,0,0,2.3,1.3,33.9,33.9,0,0,0,5.3,1.3l8.4,1.3c2.2.4,4.7.9,6.9,1.5a12.8,12.8,0,0,1,5.1,2.6,4.8,4.8,0,0,1,1.8,3.1v1.2a1,1,0,0,0-.1.4,1.2,1.2,0,0,0,.1-.5,4.3,4.3,0,0,0,.1-.5,2,2,0,0,1,.1-.7,5.2,5.2,0,0,0-1.3-3.4,11.5,11.5,0,0,0-4.8-2.8,37.7,37.7,0,0,0-6.8-1.8l-8.3-1.4a42.8,42.8,0,0,1-5.3-1.1C290.9,349.6,290.3,348.9,289.9,349.1Z"/><path class="cls-12" d="M267.4,284.9a17.2,17.2,0,0,0-.8,3.8,24.5,24.5,0,0,0-.4,3.8,37.8,37.8,0,0,0,.4,7.5,64.2,64.2,0,0,0,4.1,14.4c3.9,9.2,9.6,17.7,15.9,25.6a256.5,256.5,0,0,0,20.6,22.5c7.3,7.2,15,14.1,22.6,21.2A172.6,172.6,0,0,1,304.1,366a141.9,141.9,0,0,1-22.2-22.3c-6.6-8.3-12.3-17.4-15.6-27.7a52.8,52.8,0,0,1-2.6-15.8,41.5,41.5,0,0,1,.8-7.9A23.8,23.8,0,0,1,267.4,284.9Z"/><path class="cls-13" d="M267.9,283.5s34-3.2,43.3,31.1c2,7.5.1,19.8,2.1,27.4,9.7,37.2,10.6,29.9,15.4,39.7,0,0-7.4-12.1-11-35.2,0,0-2.8-21.3-3.5-24.8-2.2-11.3-.8-19.3-15.5-31.4C298.7,290.3,277.3,272.8,267.9,283.5Z"/><path class="cls-8" d="M261.7,283.9s-19.2,3.3-19.4,30.1c0,0,4.6,47.1,42.2,56.9,0,0,36.3,7.9,40.8,11,0,0-8-2.4-22.3-4.1,0,0-29.9-5.6-41.6-17.2,0,0-22.6-13.6-22.6-50.6C238.8,310,236.1,283.2,261.7,283.9Z"/><path class="cls-7" d="M175.2,221.9s-12.5-1.7-18.8,4.3l-.3,3.7s5.4-6.7,18.2-7.3Z"/><path class="cls-8" d="M156.1,229.9s5.1-6.9,18.2-7.3l.4-.3s-13.9-.2-18.5,6.9Z"/><path class="cls-9" d="M156.4,226.2s5-4.6,14.3-4.5c0,0-8.2.3-14.3,4.7Z"/><path class="cls-1" d="M263,246.6h0Z"/><path class="cls-14" d="M263.7,246.3h.1s.2,0,.1.1l-.3.2h-.1c-.1,0-.3,0-.2-.1s.2-.2.4-.3h.1l-.2.3h-.1c-.1,0-.3,0-.2-.1S263.5,246.4,263.7,246.3Z"/><path class="cls-10" d="M198.2,241.7c-30.5-12.4-25.8-19.6-25.8-19.6-2.7-3.3,1.5-12.1,20.9-13.8,14.9-1.3,19.7,4.8,36.9,18.4,19.3,15.3,30.6,17.3,32.4,17.1C251.7,245.6,221,251,198.2,241.7Z"/><path class="cls-7" d="M162.2,239.3c-1.2-7,4.2-15.2,10.2-17.2,0,0,5.7,15,34.7,21.2,24,5.2,44.4,2.4,55.3.6h.2c-7.6,1.8-19.7,13.6-37.2,20.8C189.9,279.1,163.8,249,162.2,239.3Z"/><path class="cls-11" d="M223,265.5h-.2l-.7-.4a10.5,10.5,0,0,1-2.3-1.5,29.9,29.9,0,0,1-3.3-3.1,56.9,56.9,0,0,1-3.9-4.8l-3.1-4.4c-1.1-1.4-2.2-2.9-3.3-4.2a18.3,18.3,0,0,0-3.2-3.1,6.2,6.2,0,0,0-1.2-.8h0l1.2.8a22.5,22.5,0,0,1,3.1,3.1c1,1.3,2.1,2.8,3.1,4.3l3.1,4.3c1.4,1.9,2.7,3.5,3.9,4.9a18.7,18.7,0,0,0,3.4,3.1,14,14,0,0,0,2.5,1.6l.6.2Z"/><path class="cls-11" d="M184,235.4l.9.7,1,1a11.1,11.1,0,0,1,1.2,1.6,42.2,42.2,0,0,1,2.7,5l3.6,7.4a70.5,70.5,0,0,0,3.5,6.5,35.6,35.6,0,0,0,4.7,6,13.8,13.8,0,0,0,2.6,2.3l2.3,1.5,1,.4.7.3.6.3-.6-.3-.7-.3-.9-.5-2.4-1.5a24.6,24.6,0,0,1-2.5-2.2,40.1,40.1,0,0,1-4.5-6.1c-1.3-2.2-2.4-4.4-3.4-6.5l-3.5-7.4a40.8,40.8,0,0,0-2.8-5l-1.3-1.6a11.3,11.3,0,0,0-1.1-1.1Z"/><path class="cls-11" d="M172.6,223.4c-.1.1.2.3.6.9a17.5,17.5,0,0,1,1.4,3.4c.5,1.5,1.1,3.6,1.8,6.1s1.5,5.4,2.7,8.8a71.3,71.3,0,0,0,3.3,7.7c.6,1.3,1.3,2.5,2,3.7s1.5,2.3,2.3,3.3l2.3,2.6,2.1,1.9,1.5,1.1.6.3-.6-.3-1.4-1.2a17,17,0,0,1-2-1.9,32.3,32.3,0,0,1-2.3-2.7c-.7-1-1.5-2.1-2.2-3.3s-1.3-2.4-1.9-3.7a58,58,0,0,1-3.1-7.6c-1.2-3.4-2-6.4-2.8-8.9s-1.3-4.5-1.8-6.1a14.4,14.4,0,0,0-1.6-3.3,1.5,1.5,0,0,0-.7-.7Z"/><path class="cls-11" d="M219.8,245.7l.5.3,1.4,1.1a18.3,18.3,0,0,1,2.1,2l2.9,3,2.7,2.6a33.1,33.1,0,0,0,3,2.5l1.5.9,1.3.6.9.3h0l-.8-.3-1.3-.6-1.5-1a22.6,22.6,0,0,1-2.9-2.5L227,252l-2.9-3-2.2-2-.8-.6c-.3-.2-.5-.4-.7-.4Z"/><path class="cls-11" d="M239.2,246.8l.2.2.2.2.3.3a5.2,5.2,0,0,1,.8,1.1,10.6,10.6,0,0,1,1.1,1.9,12.9,12.9,0,0,0,.9,1.6,4.9,4.9,0,0,0,1.3,1.2,1.8,1.8,0,0,0,1.2.2h0a1.9,1.9,0,0,1-1.1-.4,4.6,4.6,0,0,1-1.2-1.2l-.9-1.7a16.5,16.5,0,0,0-1-1.9,5.3,5.3,0,0,0-.9-1.1l-.3-.3h-.3Q239.2,246.7,239.2,246.8Z"/><path class="cls-11" d="M183.5,234.7c-.1,0,.2.2.8.1a7.4,7.4,0,0,0,2.6-1.4,42.6,42.6,0,0,0,4.4-3.9l6.3-6.2c1.7-1.6,3.7-3.4,5.6-4.9a31.7,31.7,0,0,1,5.8-3.6,12.8,12.8,0,0,1,4.3-1.1h0a12.1,12.1,0,0,0-4.3.9,24.9,24.9,0,0,0-5.8,3.3c-2,1.5-4,3.2-5.8,4.8l-6.3,6.2a43.2,43.2,0,0,1-4.3,3.9,10.5,10.5,0,0,1-2.5,1.6C183.7,234.5,183.5,234.5,183.5,234.7Z"/><path class="cls-11" d="M196.5,240.5h.9a8.8,8.8,0,0,0,2.3-1.7,36.8,36.8,0,0,0,3.3-3.4l4.3-5.2,2-2.2a22.8,22.8,0,0,1,2.2-2.2,15,15,0,0,1,2.5-1.9l1.2-.9.7-.3.6-.4,1.3-.5.6-.3.6-.2h1.1l.5-.2h-1.1l-.6.2-.6.2-.6.2-1.3.5-.7.3-.7.4-1.3.8-2.5,1.9a23.9,23.9,0,0,0-2.3,2.2l-2,2.1c-1.8,2-3.2,3.8-4.5,5.3a38.3,38.3,0,0,1-3.1,3.4,17.3,17.3,0,0,1-2.1,1.7l-.3.2-.2.2Z"/><path class="cls-11" d="M208.3,242.9c0,.2.1.4.5.4a6.3,6.3,0,0,0,2.2-.7,33,33,0,0,0,4.1-2.9l6.2-5a59.8,59.8,0,0,1,5.3-3.9,11.9,11.9,0,0,1,4.8-1.9,3.6,3.6,0,0,1,2.9.8c.1.2.3.3.4.4s.1.3.2.4.2.3.2.3a.6.6,0,0,0-.2-.4.8.8,0,0,0-.2-.4l-.3-.5a3.6,3.6,0,0,0-2.8-1.3,10.1,10.1,0,0,0-4.7,1.5,33.1,33.1,0,0,0-5.3,3.6l-6.2,4.9a29,29,0,0,1-4.1,3C209.2,242.5,208.5,242.5,208.3,242.9Z"/><path class="cls-11" d="M238.7,246.4h.3l1.2-.3.8-.5.9-.6,2.1-1.8a11,11,0,0,1,2.1-1.4,10.7,10.7,0,0,1,2.2-1l1.8-.6h0a9.3,9.3,0,0,0-1.9.4l-2.4.9-2.1,1.3-2.2,1.8a5.9,5.9,0,0,1-1.6,1C239.1,246.2,238.6,246.3,238.7,246.4Z"/><path class="cls-11" d="M173.5,224.1c0,.1.3.2.8.2a10.3,10.3,0,0,0,2.4-.6,24.2,24.2,0,0,0,3.9-2l5-3.8c2.7-2.1,6-4.9,8.8-6.7l2-1.1.9-.5.7-.3.7-.2.5-.2h-.5l-.7.2-.8.3-.9.4-2.1,1.1a87.4,87.4,0,0,0-9,6.4c-1.9,1.5-3.6,2.7-5,3.6a31.7,31.7,0,0,1-3.7,2.1C174.5,223.9,173.5,223.9,173.5,224.1Z"/><path class="cls-11" d="M220.1,246.1c-.1.2.1.3.5.4a4.8,4.8,0,0,0,1.9-.5,23.4,23.4,0,0,0,3.7-2.2c1.6-1,3.4-2.4,5.5-3.8a39.9,39.9,0,0,1,4.7-2.9,9.3,9.3,0,0,1,4.3-1.4,3.8,3.8,0,0,1,2.7.8l.4.4.3.3c.1.2.2.2.2.2l-.2-.3-.2-.3-.4-.4a3.4,3.4,0,0,0-2.6-1.2,9.2,9.2,0,0,0-4.3.9,37.7,37.7,0,0,0-4.7,2.7l-5.5,3.8-3.6,2.3C220.9,245.8,220.2,245.8,220.1,246.1Z"/><path class="cls-12" d="M172.4,222.1a14.5,14.5,0,0,0,1.7,2.6,20,20,0,0,0,1.9,2.2,33.1,33.1,0,0,0,4.4,4,56.1,56.1,0,0,0,10.2,5.6,92.2,92.2,0,0,0,22.7,5.7,237.8,237.8,0,0,0,23.9,1.6h24.4a124.6,124.6,0,0,1-24.2,4.6,114.3,114.3,0,0,1-24.8-.4,68.9,68.9,0,0,1-24.1-7.4,39.8,39.8,0,0,1-10.1-7.7,26.6,26.6,0,0,1-3.7-5.1A16,16,0,0,1,172.4,222.1Z"/><path class="cls-13" d="M171.9,221s17.5-20.3,41.4-6c5.3,3.1,10.9,11.2,16.2,14.4,25.7,15.7,22.3,11.1,30.3,14,0,0-10.8-2.8-25.4-13.9,0,0-13.2-10.5-15.5-12.1-7.4-5.2-10.9-10.5-25.9-9.3C193,208.1,171.4,209.9,171.9,221Z"/><path class="cls-8" d="M168.6,224.6s-9,12.3,5.4,27.6c0,0,28.4,24.1,54.9,9.1,0,0,24.9-15.2,29.1-15.9a116.2,116.2,0,0,0-14.8,9.8s-20,13.1-32.9,12.9c0,0-20.2,4.7-40.4-16.2C169.9,251.9,153.8,238.2,168.6,224.6Z"/></g></g></g></g></g></svg>