<svg id="SB39_Interactive_Icon_02_F1" xmlns="http://www.w3.org/2000/svg" xmlns:xlink="http://www.w3.org/1999/xlink" viewBox="0 0 718 661"><defs><style>.cls-1{fill:url(#linear-gradient);}.cls-2{fill:#31d0e5;stroke-miterlimit:10;stroke-width:6px;stroke:url(#linear-gradient-2);}.cls-3{opacity:0.5;}.cls-4{fill:#fff;}.cls-5{fill:#bcbec0;}.cls-6{fill:#58595b;}.cls-7{fill:#f7941e;}.cls-8{fill:#f17c29;}.cls-9{fill:#e6e7e8;}.cls-10{fill:#474747;}.cls-11{fill:#414042;}.cls-12{fill:#6d6e71;}.cls-13{fill:#d1d3d4;}.cls-14{fill:#f77c0c;}.cls-15{fill:#3c2415;}.cls-16{fill:#fbb040;}</style><linearGradient id="linear-gradient" x1="104.06" y1="155.82" x2="602.27" y2="497.19" gradientUnits="userSpaceOnUse"><stop offset="0" stop-color="#9b81cf"/><stop offset="1" stop-color="#3b139b"/></linearGradient><linearGradient id="linear-gradient-2" x1="66.74" y1="330.5" x2="651.26" y2="330.5" gradientUnits="userSpaceOnUse"><stop offset="0" stop-color="#4c1da9"/><stop offset="1" stop-color="#997ece"/></linearGradient></defs><g id="Layer_1" data-name="Layer 1"><circle class="cls-1" cx="359" cy="330.5" r="301.9"/><circle class="cls-2" cx="359" cy="330.5" r="289.3"/><g id="_01" data-name="01"><g id="_001" data-name="001" class="cls-3"><g class="cls-3"><path class="cls-4" d="M166.5,234.5s12.1-31.7,44.5-1.5-38.5,22-69.7,11S166.5,234.5,166.5,234.5Z"/><path class="cls-4" d="M240.3,217c27.9,20.1-.6,22.5-25.6,17.1S212.4,196.8,240.3,217Z"/></g><g class="cls-3"><path class="cls-4" d="M551,320.7s12.1-31.7,44.5-1.5-38.5,22-69.6,11S551,320.7,551,320.7Z"/><path class="cls-4" d="M624.8,303.2c27.9,20.1-.5,22.5-25.6,17.1S596.9,283,624.8,303.2Z"/></g></g><g id="_01_03" data-name="01,03"><path class="cls-5" d="M453.6,408.3l-.6-.2c-19.1-8.3-39.4-14.7-56-27.3-1.3-3.3-2.5-6.7-3.8-10.1l2.6-.2a370.5,370.5,0,0,1,225.1,41.8c.1,3.1-4.9,3.2-7.9,3.7a64.4,64.4,0,0,1-38.6-6.2c1.7,1.3,1.2,4.2-.6,5.4s-4.1,1.2-6.3,1a41.2,41.2,0,0,1-19.8-8.4c.2,1.8.3,3.7.4,5.6a86,86,0,0,1-38.4-10C491.3,407.9,472.3,410.5,453.6,408.3Z"/><path class="cls-6" d="M453.6,408.3l-.6-.2c-10-4.4-20.3-8.2-30.2-12.6,20.5,3.1,41.7,3,62.5,1.4,26.2-2.1,52.1-6.5,78.2-9.8a362.1,362.1,0,0,1,57.4,25.2c.1,3.1-4.9,3.2-7.9,3.7a64.4,64.4,0,0,1-38.6-6.2c1.7,1.3,1.2,4.2-.6,5.4s-4.1,1.2-6.3,1a41.2,41.2,0,0,1-19.8-8.4c.2,1.8.3,3.7.4,5.6a86,86,0,0,1-38.4-10C491.3,407.9,472.3,410.5,453.6,408.3Z"/><path class="cls-7" d="M258.2,396.1l-35.8-8.2c-1.7-.4-.9-3.1.8-2.7l35.8,8.3C260.7,393.9,260,396.5,258.2,396.1Z"/><path class="cls-7" d="M245.4,388.5a3.1,3.1,0,0,0-3.8,2.4,3.2,3.2,0,0,0,6.2,1.4A3.1,3.1,0,0,0,245.4,388.5Z"/><path class="cls-7" d="M225,387.2c.1-.4-10.3-9.5-13.1-11.8-.2-.2-.5-.1-.5.1l.6,2.7a3.3,3.3,0,0,1-2.4,3.7l-2.5.9a.2.2,0,0,0-.1.4l1.8,1.9a3.3,3.3,0,0,1,.6,4.4l-1.7,2.2c-.2.2.1.4.4.3C211.6,391.1,224.9,387.6,225,387.2Z"/><path class="cls-8" d="M218.3,383.9l-8.2-2.2a3.3,3.3,0,0,0,1.8-1.9Z"/><path class="cls-8" d="M209.2,385.5l8.4,1.7-7.6.8A3.6,3.6,0,0,0,209.2,385.5Z"/><path class="cls-9" d="M222.1,176.5c-4.8-8.7-6.9-19.6-3.4-28.8a.9.9,0,0,1,1.7-.1c1.3,2.1,1.5,2.9,4.3,4.9a64.9,64.9,0,0,1-6.9-51.6,1.3,1.3,0,0,1,2.1-.6c21.9,17.3,33.2,44.7,49.6,67.5,12.8,17.6,34,45.6,51.2,59.4,35.6,28.6,54.2,95.7,76.3,153.6,16.6,12.6,36.9,19,56,27.3s38.2,19.7,47.8,38.1c-2.1,2-16.6,7.9-21.3,7.3,5.7,5.9,5.8,4.1,10.6,10.8-24.1,5.3-44.6,7.6-69.3,9s-57.4-2.2-80-12.1c-32.2-14.2-55-37.8-77.8-64.6-16-3.6-37.8-11.7-54-17.2h-.1l-7.5-2.7c-4.3-1.6-6.8-2.5-8.6-3.7a3.9,3.9,0,0,1-1.5-1.6,1.8,1.8,0,0,1-.1-2,2.5,2.5,0,0,1,2.5-.7c2.5.3,2.9.5,5.1.9-2.1-1.4-2.2-1.2-4.2-2.6a9.2,9.2,0,0,1-3.2-3h0a2.2,2.2,0,0,1,2.6-3.2l3.2.9h-.1a41.2,41.2,0,0,1-9.8-9.3,8.6,8.6,0,0,1-1.8-3.4h0a2.7,2.7,0,0,1,3.3-2.9,17.8,17.8,0,0,1,5.5,1.8v-.3a39.2,39.2,0,0,1-8.4-9.3,5.6,5.6,0,0,1-1.2-3c-.3-5,6.7-1.7,8.8-1a21.4,21.4,0,0,1-3.9-3.7,14.8,14.8,0,0,1-2.9-5.2,2.7,2.7,0,0,1,3.6-3.3,33.4,33.4,0,0,1,3.8,1.9h0l.7.4c3.2,1.8,6.6,4.1,7.9,5l1.6,1.2c21.5,14,44.3,28.3,64.7,42.1a402.6,402.6,0,0,1,52.6,4.3,143.7,143.7,0,0,1-39.7-68.8c-4.8-19.3-12.7-37.8-24.7-53.7a44.4,44.4,0,0,1-7-13.7,1.5,1.5,0,0,1,2-1.8l10,4.4a67,67,0,0,1-31.9-47.7,2,2,0,0,1,2.8-2.1,40.3,40.3,0,0,1,10,6.8C235.3,193.1,227.3,185.7,222.1,176.5Z"/><path class="cls-9" d="M238.2,206.5a46.7,46.7,0,0,0-6.7-5,8.5,8.5,0,0,1-.4-1.7C233.4,202.1,235.8,204.3,238.2,206.5Z"/><path class="cls-9" d="M252.4,246.3a53.9,53.9,0,0,0,5,3.3l-4.4-1.9Z"/><path class="cls-9" d="M189.4,353.8v.3l-1.3-.7-.8-1a13,13,0,0,1-1-1.5C187.3,351.9,188.3,352.9,189.4,353.8Z"/><path class="cls-9" d="M217,156.2a16.4,16.4,0,0,1,.2-2.2q1.2,2.4,2.7,4.8A11.1,11.1,0,0,1,217,156.2Z"/><path class="cls-9" d="M185.7,337.9a31.4,31.4,0,0,0,2.9,2.5l-1.5-.5-1.2-1.7Z"/><path class="cls-10" d="M450.4,413.2c-19.1-8.3-43.6-13.6-60.2-26.2-22.1-57.8-46.1-121.2-76.3-153.5-15-16.1-38.3-41.8-51.1-59.5-16.2-22.2-25.7-48.5-46.8-66,.4-2.2-.7-4.9-.1-7.1a1.3,1.3,0,0,1,2.1-.6c21.9,17.3,33.1,44.7,49.6,67.5,12.8,17.6,34,45.6,51.2,59.4,35.5,28.6,54.2,95.7,76.3,153.6,16.6,12.6,36.9,19,56,27.3s38.2,19.7,47.8,38.1c-.8.8-.3.7-3.4,2C485.5,431.5,468.4,421,450.4,413.2Z"/><path class="cls-4" d="M452.5,432a10,10,0,1,0,19.6,3.8,10,10,0,0,0-19.6-3.8Z"/><path class="cls-11" d="M454.8,432.5a7.6,7.6,0,1,0,8.9-6.1A7.6,7.6,0,0,0,454.8,432.5Z"/><path class="cls-4" d="M466.3,429.1a1.8,1.8,0,0,0,1.5,2.2,1.9,1.9,0,0,0,2.2-1.5,2,2,0,0,0-1.5-2.3A1.9,1.9,0,0,0,466.3,429.1Z"/><path class="cls-12" d="M219.1,152.7c1.3,2.2,1.5,3,4.3,5a65.2,65.2,0,0,1-6.9-51.7,1.4,1.4,0,0,1,2.1-.6c21.9,17.4,31.8,47.8,48.3,70.5,6.6,9.1,72.4,83.4,77,94.9,31.6,52.5,28,65,50.1,119.9-5.5-1-68.5-8.3-74.1-9a143.4,143.4,0,0,1-39.3-68.5c-4.8-19.3-12.8-37.8-24.7-53.6a45,45,0,0,1-7-13.8,1.5,1.5,0,0,1,2-1.7l10,4.4A67.1,67.1,0,0,1,229,200.7a2,2,0,0,1,2.8-2,39.8,39.8,0,0,1,10,6.7c-7.8-7.2-15.8-14.5-21-23.8s-6.9-19.5-3.4-28.8A1,1,0,0,1,219.1,152.7Z"/><path class="cls-9" d="M231.5,201.5a8.5,8.5,0,0,1-.4-1.7A8.5,8.5,0,0,0,231.5,201.5Z"/><path class="cls-9" d="M189.4,354.1l-1.3-.7-.8-1a13,13,0,0,1-1-1.5c1,1,2,2,3.1,2.9Z"/><path class="cls-9" d="M188.6,340.4l-1.5-.5-1.2-1.7-.2-.3A31.4,31.4,0,0,0,188.6,340.4Z"/><path class="cls-4" d="M278.3,179.7a3.5,3.5,0,0,1-.5-.8A3.5,3.5,0,0,0,278.3,179.7Z"/><path class="cls-4" d="M275.3,175.7l-.5-.7Z"/><path class="cls-4" d="M272.7,172.1l-.6-.8Z"/><path class="cls-4" d="M284.8,188.1l-.8-1Z"/><path class="cls-4" d="M291.6,196.6l-1-1.1Z"/><path class="cls-4" d="M288.1,192.3l-.8-1Z"/><path class="cls-4" d="M281.5,183.9l-.7-.9Z"/><path class="cls-4" d="M246.7,132a188,188,0,0,0-12.1-17.1A188,188,0,0,1,246.7,132Z"/><path class="cls-4" d="M234.6,114.9c-1.7-2-3.5-3.9-5.3-5.8C231.1,111,232.9,112.9,234.6,114.9Z"/><path class="cls-7" d="M259.6,387.4l-32.9-16.3c-1.6-.8-.2-3.2,1.3-2.4l32.9,16.4C262.5,385.9,261.1,388.2,259.6,387.4Z"/><path class="cls-7" d="M248.9,377a3.2,3.2,0,0,0-4.3,1.5,3.3,3.3,0,0,0,1.4,4.3,3.2,3.2,0,1,0,2.9-5.8Z"/><path class="cls-7" d="M229.4,371c.1-.3-7.9-11.5-10.1-14.5-.1-.2-.5-.2-.5.1v2.7c0,1.7-1.3,2.9-3.2,3.1l-2.6.3c-.2,0-.3.1-.2.3l1.4,2.3a3.1,3.1,0,0,1-.5,4.3l-2.2,1.8c-.1.1.1.5.3.4C215.4,371.8,229.2,371.4,229.4,371Z"/><path class="cls-8" d="M223.6,366.3l-7.5-4a4,4,0,0,0,2.2-1.5Z"/><path class="cls-8" d="M214.4,365.8l7.7,3.5-7.6-.9A3.4,3.4,0,0,0,214.4,365.8Z"/><path class="cls-13" d="M259.4,390.4c-5.4-3.4,5.7,3,0,0Z"/><path class="cls-13" d="M216.3,376.7c10,5.3,33.1,8.4,43.1,13.7s27.2,26.4,36.6,33c54.2,37.7,124.8,50.8,188.9,35,1.5,1.2,2.7,2.4,5.2,5.9-24.1,5.3-44.6,7.6-69.3,9s-57.4-2.2-80-12.1c-32.2-14.2-55-37.8-77.8-64.6-12.7-2.9-29-8.5-43.3-13.5C220,381.4,215.7,378.3,216.3,376.7Z"/><path class="cls-6" d="M191.3,371.5a1.8,1.8,0,0,1-.1-2,2.5,2.5,0,0,1,2.5-.7c2.5.3,2.9.5,5.1.9-2.1-1.4-2.2-1.2-4.2-2.6a9.2,9.2,0,0,1-3.2-3h0a2.2,2.2,0,0,1,2.6-3.2l3.2.9h-.1a41.2,41.2,0,0,1-9.8-9.3,8.6,8.6,0,0,1-1.8-3.4h0a2.7,2.7,0,0,1,3.3-2.9,17.8,17.8,0,0,1,5.5,1.8v-.3a39.2,39.2,0,0,1-8.4-9.3,5.6,5.6,0,0,1-1.2-3c-.3-5,6.7-1.7,8.8-1a21.4,21.4,0,0,1-3.9-3.7,14.8,14.8,0,0,1-2.9-5.2,2.7,2.7,0,0,1,3.6-3.3,33.4,33.4,0,0,1,3.8,1.9h0l.7.4c3.2,1.8,6.6,4.1,7.9,5l1.6,1.2,30.9,19.9-6-2.2c-6.5-2.3-14.6-3.3-19.4,1.6s-3.9,10.3-1.7,15.3,6.2,8.8,10.1,12.6l8.2,7.7-17.4-6h-.1l-7.5-2.7c-4.3-1.6-6.8-2.5-8.6-3.7A3.9,3.9,0,0,1,191.3,371.5Z"/><path class="cls-7" d="M479.4,453.9l8.7,9.8,30.7,8.6a40.6,40.6,0,0,1,10.5,4c3.2,2,5.1,4,6,7.7,2.3-9.7-1.7-20.2-8.7-27s-16.6-10.1-26.2-11C500.4,446,486.5,451.5,479.4,453.9Z"/><path class="cls-14" d="M480.9,454.2c7.2,3,14.9,4.4,22.5,6.2s17.4,4.6,24.3,10.3a28.8,28.8,0,0,1,8.1,10.5,23.3,23.3,0,0,1-.5,2.8c-.9-3.7-2.8-5.7-6-7.7a40.6,40.6,0,0,0-10.5-4l-30.7-8.6C485.1,460.4,483.8,457.5,480.9,454.2Z"/><path class="cls-15" d="M502.9,449.9a5.8,5.8,0,0,0,5-.2,9.9,9.9,0,0,0-4-1.6c-.4,0-.9-.1-1.2.1a1,1,0,0,0-.6,1C502.2,449.5,502.6,449.7,502.9,449.9Z"/><path class="cls-16" d="M525,457.6c-6.8-6.2-16.7-9.6-25.8-11.1l1.2-.5c9.6.9,19.2,4.2,26.2,11a30.8,30.8,0,0,1,9,17.8C532.9,468.6,530.1,462.2,525,457.6Z"/></g><g id="_01-2" data-name="01" class="cls-3"><g class="cls-3"><path class="cls-4" d="M357,553.7s12.1-31.7,44.5-1.5-38.5,22-69.6,11S357,553.7,357,553.7Z"/><path class="cls-4" d="M430.8,536.2c27.9,20.1-.5,22.5-25.6,17.1S402.9,516,430.8,536.2Z"/></g></g></g></g></svg>