<svg id="SB39_Interactive_Icon_02_F1" xmlns="http://www.w3.org/2000/svg" xmlns:xlink="http://www.w3.org/1999/xlink" viewBox="0 0 718 661"><defs><style>.cls-1{fill:url(#linear-gradient);}.cls-2{fill:#31d0e5;stroke-miterlimit:10;stroke-width:6px;stroke:url(#linear-gradient-2);}.cls-3,.cls-4{opacity:0.5;}.cls-11,.cls-4{fill:#fff;}.cls-5{fill:#bcbec0;}.cls-6{fill:#58595b;}.cls-7{fill:#f7941e;}.cls-8{fill:#f17c29;}.cls-9{fill:#e6e7e8;}.cls-10{fill:#474747;}.cls-12{fill:#414042;}.cls-13{fill:#6d6e71;}.cls-14{fill:#d1d3d4;}.cls-15{fill:#f77c0c;}.cls-16{fill:#3c2415;}.cls-17{fill:#fbb040;}</style><linearGradient id="linear-gradient" x1="104.06" y1="155.82" x2="602.27" y2="497.19" gradientUnits="userSpaceOnUse"><stop offset="0" stop-color="#9b81cf"/><stop offset="1" stop-color="#3b139b"/></linearGradient><linearGradient id="linear-gradient-2" x1="66.74" y1="330.5" x2="651.26" y2="330.5" gradientUnits="userSpaceOnUse"><stop offset="0" stop-color="#4c1da9"/><stop offset="1" stop-color="#997ece"/></linearGradient></defs><g id="Layer_1" data-name="Layer 1"><circle class="cls-1" cx="359" cy="330.5" r="301.9"/><circle class="cls-2" cx="359" cy="330.5" r="289.3"/><g id="_02" data-name="02"><g id="_002" data-name="002" class="cls-3"><path class="cls-4" d="M545.2,292.4c-10-7.2-19.4-7.7-26.1-5.2-22.4-12.6-31.3,5.9-31.3,5.9-3-.4-64.3-9.1-46.3,17.9,7.8,11.8,81,15.4,94.7,1.3C559.6,314.6,565.5,307.1,545.2,292.4Z"/><path class="cls-4" d="M163.1,203.8c-9.4-6.7-18.1-7.6-24.7-5.6-21.1-9.2-34.5,1.7-34.5,1.7s-7.6,8.7-12.6,25.2c-4.3,14.7,71.7,16.7,73.4-1.9C176.1,221.8,180.1,216.1,163.1,203.8Z"/></g><g id="_02-2" data-name="02"><path class="cls-5" d="M453.2,408.5l-.6-.3c-19.1-8.4-39.4-14.8-55.9-27.5-1.3-3.3-2.5-6.7-3.7-10l2.5-.3a370.6,370.6,0,0,1,225,42.7c0,3.1-4.9,3.2-8,3.6a64.4,64.4,0,0,1-38.6-6.3c1.8,1.3,1.2,4.2-.5,5.4s-4.2,1.2-6.3.9a39.5,39.5,0,0,1-19.8-8.5c.1,1.9.3,3.8.4,5.7a84.6,84.6,0,0,1-38.4-10.2C490.9,408.2,471.9,410.7,453.2,408.5Z"/><path class="cls-6" d="M453.2,408.5l-.6-.3c-10-4.4-20.3-8.2-30.2-12.7,20.6,3.2,41.7,3.2,62.5,1.7,26.2-2,52.1-6.3,78.2-9.5a363,363,0,0,1,57.4,25.4c0,3.1-4.9,3.2-8,3.6a64.4,64.4,0,0,1-38.6-6.3c1.8,1.3,1.2,4.2-.5,5.4s-4.2,1.2-6.3.9a39.5,39.5,0,0,1-19.8-8.5c.1,1.9.3,3.8.4,5.7a84.6,84.6,0,0,1-38.4-10.2C490.9,408.2,471.9,410.7,453.2,408.5Z"/><path class="cls-7" d="M257.9,395.5l-35.8-8.4c-1.7-.4-1-3,.7-2.6l35.8,8.4C260.3,393.3,259.6,395.9,257.9,395.5Z"/><path class="cls-7" d="M245.1,387.8a3.2,3.2,0,1,0,2.4,3.9A3.2,3.2,0,0,0,245.1,387.8Z"/><path class="cls-7" d="M224.7,386.4c.1-.3-10.3-9.4-13.1-11.8a.3.3,0,0,0-.5.2l.5,2.7c.4,1.6-.6,3-2.4,3.7l-2.5.8c-.1.1-.2.3,0,.4l1.8,1.9a3.3,3.3,0,0,1,.5,4.4l-1.7,2.2c-.1.2.1.4.4.4C211.2,390.3,224.6,386.8,224.7,386.4Z"/><path class="cls-8" d="M218,383.2l-8.2-2.3a2.9,2.9,0,0,0,1.7-1.9Z"/><path class="cls-8" d="M208.9,384.8l8.4,1.6-7.7.9A3.2,3.2,0,0,0,208.9,384.8Z"/><path class="cls-9" d="M222.6,175.7c-4.8-8.7-6.9-19.5-3.4-28.7a1,1,0,0,1,1.8-.2c1.2,2.2,1.4,3,4.2,5a65.1,65.1,0,0,1-6.6-51.7,1.3,1.3,0,0,1,2-.6c21.9,17.5,33,44.9,49.4,67.7,12.8,17.7,33.8,45.8,51,59.7,35.4,28.6,53.8,95.9,75.7,153.8,16.5,12.7,36.8,19.1,55.9,27.5s38.1,19.8,47.6,38.3c-2.1,2-16.6,7.8-21.3,7.2,5.7,6,5.8,4.1,10.6,10.9-24.1,5.2-44.7,7.4-69.3,8.7s-57.5-2.4-80-12.4c-32.2-14.3-54.9-37.9-77.6-64.8-15.9-3.7-37.8-11.9-53.9-17.5h-.1l-7.5-2.7c-4.3-1.6-6.8-2.6-8.6-3.8a4.3,4.3,0,0,1-1.5-1.5,1.8,1.8,0,0,1,0-2.1c.5-.7,1.5-.7,2.4-.6,2.5.3,2.9.5,5.1.9-2-1.4-2.2-1.2-4.2-2.6a13.1,13.1,0,0,1-3.2-3h0a2.3,2.3,0,0,1,2.7-3.3l3.1,1v-.2a37.7,37.7,0,0,1-9.8-9.3,8.6,8.6,0,0,1-1.8-3.4h0a2.7,2.7,0,0,1,3.3-3,18,18,0,0,1,5.5,1.9v-.3a39.6,39.6,0,0,1-8.4-9.4,6.6,6.6,0,0,1-1.2-3c-.2-5,6.8-1.6,8.8-1a28.4,28.4,0,0,1-3.9-3.6,18,18,0,0,1-2.8-5.3,2.7,2.7,0,0,1,3.6-3.3,23.8,23.8,0,0,1,3.8,2h0l.7.4c3.2,1.9,6.6,4.2,7.8,5.1l1.7,1.2c21.4,14.1,44.2,28.5,64.5,42.3a401.3,401.3,0,0,1,52.6,4.5,141.9,141.9,0,0,1-39.4-68.9c-4.8-19.3-12.6-37.9-24.5-53.8a43.9,43.9,0,0,1-7-13.8,1.5,1.5,0,0,1,2-1.7l10,4.4a66.9,66.9,0,0,1-31.7-47.8,2,2,0,0,1,2.8-2.1,42.2,42.2,0,0,1,10,6.8C235.7,192.4,227.8,185,222.6,175.7Z"/><path class="cls-9" d="M238.6,205.9a41.6,41.6,0,0,0-6.8-5.1l-.3-1.7Z"/><path class="cls-9" d="M252.6,245.7c1.6,1.1,3.2,2.3,4.9,3.3l-4.3-2Z"/><path class="cls-9" d="M189.2,352.9v.3l-1.3-.6a7.6,7.6,0,0,1-.8-1.1,7.8,7.8,0,0,1-1-1.5C187.1,351,188.1,352,189.2,352.9Z"/><path class="cls-9" d="M217.5,155.5c.1-.8.1-1.5.2-2.3a46.7,46.7,0,0,0,2.7,4.9A16.2,16.2,0,0,1,217.5,155.5Z"/><path class="cls-9" d="M185.5,337l2.9,2.6-1.5-.6-1.2-1.7C185.7,337.2,185.6,337.1,185.5,337Z"/><path class="cls-10" d="M449.9,413.3c-19-8.4-43.5-13.7-60-26.4C368,329,344.3,265.6,314.2,233.1c-15-16.2-38.2-41.9-51-59.6-16-22.4-25.5-48.7-46.5-66.2.4-2.3-.7-5,0-7.2a1.3,1.3,0,0,1,2-.6c21.8,17.5,33,44.9,49.4,67.7,12.7,17.7,33.8,45.8,50.9,59.6,35.5,28.7,53.9,96,75.8,153.9,16.5,12.7,36.8,19.1,55.8,27.5s38.2,19.8,47.7,38.3c-.8.8-.2.8-3.4,2C485,431.8,468,421.2,449.9,413.3Z"/><path class="cls-11" d="M452,432.2a10,10,0,1,0,19.6,3.8,10.1,10.1,0,0,0-7.9-11.7A9.9,9.9,0,0,0,452,432.2Z"/><path class="cls-12" d="M454.3,432.6a7.6,7.6,0,1,0,8.9-6A7.7,7.7,0,0,0,454.3,432.6Z"/><path class="cls-11" d="M465.8,429.3a1.8,1.8,0,0,0,1.5,2.2,1.9,1.9,0,0,0,2.2-1.5,2,2,0,0,0-1.5-2.3A1.9,1.9,0,0,0,465.8,429.3Z"/><path class="cls-13" d="M219.7,152c1.2,2.1,1.4,2.9,4.2,5a65.6,65.6,0,0,1-6.7-51.7,1.3,1.3,0,0,1,2.1-.6c21.8,17.4,31.7,47.9,48.1,70.7,6.5,9.1,72,83.6,76.6,95.1,31.4,52.7,27.7,65.1,49.6,120.2-5.5-1.1-68.4-8.7-74-9.4a143.3,143.3,0,0,1-39.1-68.6c-4.7-19.3-12.6-37.8-24.5-53.7a45.8,45.8,0,0,1-6.9-13.8,1.5,1.5,0,0,1,2-1.8l10,4.5A67,67,0,0,1,229.4,200a2,2,0,0,1,2.8-2,41.8,41.8,0,0,1,9.9,6.8c-7.8-7.3-15.7-14.6-20.8-23.9s-6.9-19.6-3.4-28.8A1,1,0,0,1,219.7,152Z"/><path class="cls-9" d="M231.8,200.8l-.3-1.7Z"/><path class="cls-9" d="M189.2,353.2l-1.3-.6a7.6,7.6,0,0,1-.8-1.1,7.8,7.8,0,0,1-1-1.5c1,1,2,2,3.1,2.9Z"/><path class="cls-9" d="M188.4,339.6l-1.5-.6-1.2-1.7c0-.1-.1-.2-.2-.3Z"/><path class="cls-11" d="M278.8,179.2l-.6-.8Z"/><path class="cls-11" d="M275.8,175.2l-.5-.7Z"/><path class="cls-11" d="M273.1,171.5a5.6,5.6,0,0,1-.5-.8A5.6,5.6,0,0,0,273.1,171.5Z"/><path class="cls-11" d="M285.2,187.6l-.8-1Z"/><path class="cls-11" d="M291.9,196.2,291,195Z"/><path class="cls-11" d="M288.5,191.8a3.9,3.9,0,0,1-.8-1A3.9,3.9,0,0,0,288.5,191.8Z"/><path class="cls-11" d="M281.9,183.4l-.7-1Z"/><path class="cls-11" d="M247.4,131.4a164.5,164.5,0,0,0-12.2-17.1A164.5,164.5,0,0,1,247.4,131.4Z"/><path class="cls-11" d="M235.2,114.3c-1.6-2.1-3.4-4-5.1-6C231.8,110.3,233.6,112.2,235.2,114.3Z"/><path class="cls-7" d="M259.2,386.8l-32.8-16.4c-1.6-.8-.2-3.2,1.4-2.4l32.8,16.5C262.2,385.3,260.8,387.6,259.2,386.8Z"/><path class="cls-7" d="M248.6,376.4a3.2,3.2,0,1,0,1.4,4.3A3.2,3.2,0,0,0,248.6,376.4Z"/><path class="cls-7" d="M229.1,370.3c.1-.3-7.9-11.6-10-14.5-.1-.3-.5-.2-.5,0v2.8a3.3,3.3,0,0,1-3.2,3l-2.7.3a.2.2,0,0,0-.1.3l1.3,2.3a3.2,3.2,0,0,1-.5,4.4l-2.1,1.7c-.2.2,0,.5.3.5C215.1,371,228.9,370.7,229.1,370.3Z"/><path class="cls-8" d="M223.3,365.6l-7.4-4.1a3.2,3.2,0,0,0,2.1-1.4Z"/><path class="cls-8" d="M214.1,365l7.8,3.6-7.7-1A3.4,3.4,0,0,0,214.1,365Z"/><path class="cls-14" d="M259.1,389.8c-5.4-3.4,5.6,3,0,0Z"/><path class="cls-14" d="M216,375.9c10,5.4,33.1,8.6,43.1,13.9s27,26.6,36.4,33.2c54.1,37.8,124.7,51.2,188.8,35.7a25.7,25.7,0,0,1,5.2,5.9c-24.1,5.2-44.7,7.4-69.3,8.7s-57.5-2.4-80-12.4c-32.2-14.3-54.9-37.9-77.6-64.8-12.6-3-29-8.7-43.2-13.7C219.7,380.7,215.4,377.6,216,375.9Z"/><path class="cls-6" d="M191,370.7a1.8,1.8,0,0,1,0-2.1c.5-.7,1.5-.7,2.4-.6,2.5.3,2.9.5,5.1.9-2-1.4-2.2-1.2-4.2-2.6a13.1,13.1,0,0,1-3.2-3h0a2.3,2.3,0,0,1,2.7-3.3l3.1,1v-.2a37.7,37.7,0,0,1-9.8-9.3,8.6,8.6,0,0,1-1.8-3.4h0a2.7,2.7,0,0,1,3.3-3,18,18,0,0,1,5.5,1.9v-.3a39.6,39.6,0,0,1-8.4-9.4,6.6,6.6,0,0,1-1.2-3c-.2-5,6.8-1.6,8.8-1a28.4,28.4,0,0,1-3.9-3.6,18,18,0,0,1-2.8-5.3,2.7,2.7,0,0,1,3.6-3.3,23.8,23.8,0,0,1,3.8,2h0l.7.4c3.2,1.9,6.6,4.2,7.8,5.1l1.7,1.2c10.1,6.7,20.5,13.4,30.8,20.1l-6-2.3c-6.4-2.3-14.6-3.4-19.4,1.6s-3.9,10.2-1.8,15.2,6.2,8.9,10.1,12.6l8.1,7.8-17.3-6.1h-.1l-7.5-2.7c-4.3-1.6-6.8-2.6-8.6-3.8A4.3,4.3,0,0,1,191,370.7Z"/><path class="cls-7" d="M478.8,454.1l8.6,9.9,30.7,8.7a43,43,0,0,1,10.5,4c3.2,2,5.1,4,6,7.8,2.3-9.8-1.6-20.3-8.6-27.1s-16.6-10.2-26.2-11.1C499.8,446.3,486,451.8,478.8,454.1Z"/><path class="cls-15" d="M480.3,454.4c7.2,3,14.9,4.5,22.5,6.3s17.3,4.7,24.2,10.4a29.2,29.2,0,0,1,8.1,10.6c-.1.9-.3,1.8-.5,2.8-.9-3.8-2.8-5.8-6-7.8a43,43,0,0,0-10.5-4L487.4,464C484.5,460.6,483.1,457.7,480.3,454.4Z"/><path class="cls-16" d="M502.3,450.2a5.8,5.8,0,0,0,5-.2,9.4,9.4,0,0,0-4-1.6,2.5,2.5,0,0,0-1.2.1,1,1,0,0,0-.6,1C501.6,449.8,502,450,502.3,450.2Z"/><path class="cls-17" d="M524.4,458c-6.8-6.2-16.7-9.6-25.8-11.2l1.2-.5c9.6.9,19.2,4.3,26.2,11.1a31,31,0,0,1,9,17.9C532.2,469,529.5,462.6,524.4,458Z"/></g><g id="_02-3" data-name="02" class="cls-3"><g class="cls-3"><path class="cls-11" d="M295,535.7s12.1-31.7,44.5-1.5-38.5,22-69.6,11S295,535.7,295,535.7Z"/><path class="cls-11" d="M368.8,518.2c27.9,20.1-.5,22.5-25.6,17.1S340.9,498,368.8,518.2Z"/></g></g></g></g></svg>