<svg id="SB39_Interactive_Icon_04_F1" xmlns="http://www.w3.org/2000/svg" xmlns:xlink="http://www.w3.org/1999/xlink" viewBox="0 0 718 661"><defs><style>.cls-1{fill:url(#linear-gradient);}.cls-2{fill:#31d0e5;stroke-miterlimit:10;stroke-width:6px;stroke:url(#linear-gradient-2);}.cls-3{fill:#f2f2f2;}.cls-4{fill:#616161;}.cls-5{fill:#474747;}.cls-6{fill:#858585;}.cls-7{fill:url(#linear-gradient-3);}.cls-8{fill:#b5c2cc;}.cls-9{fill:url(#linear-gradient-4);}.cls-10{fill:#f4f4f4;}.cls-11{fill:#428eea;}.cls-12{fill:url(#linear-gradient-5);}.cls-13{fill:#0f7d99;}.cls-14{fill:url(#linear-gradient-6);}.cls-15{opacity:0.3;}.cls-16{fill:#fff;}</style><linearGradient id="linear-gradient" x1="104.06" y1="155.82" x2="602.27" y2="497.19" gradientUnits="userSpaceOnUse"><stop offset="0" stop-color="#9b81cf"/><stop offset="1" stop-color="#3b139b"/></linearGradient><linearGradient id="linear-gradient-2" x1="66.74" y1="330.5" x2="651.26" y2="330.5" gradientUnits="userSpaceOnUse"><stop offset="0" stop-color="#4c1da9"/><stop offset="1" stop-color="#997ece"/></linearGradient><linearGradient id="linear-gradient-3" x1="511.81" y1="225.73" x2="511.81" y2="198.28" gradientTransform="translate(-158.5 171.2) rotate(2.3)" gradientUnits="userSpaceOnUse"><stop offset="0" stop-color="#949494"/><stop offset="1" stop-color="#e6e6e6"/></linearGradient><linearGradient id="linear-gradient-4" x1="652.88" y1="103.08" x2="652.88" y2="75.63" xlink:href="#linear-gradient-3"/><linearGradient id="linear-gradient-5" x1="615.16" y1="93.43" x2="645.09" y2="93.43" gradientTransform="matrix(-1, 0.1, 0.1, 1, 893.12, 99.67)" gradientUnits="userSpaceOnUse"><stop offset="0" stop-color="#005c9c"/><stop offset="1" stop-color="#0099c9"/></linearGradient><linearGradient id="linear-gradient-6" x1="670.69" y1="135.69" x2="758.04" y2="135.69" xlink:href="#linear-gradient-5"/></defs><g id="Layer_1" data-name="Layer 1"><circle class="cls-1" cx="359" cy="330.5" r="301.9"/><circle class="cls-2" cx="359" cy="330.5" r="289.3"/><path class="cls-3" d="M298.3,389.8c-3,16.5,30.1,27.2,44.7,27.2,6.5,0,12.9-18.9,6-24.7s-37.6-14.6-37.6-14.6S295.4,382,298.3,389.8Z"/><path class="cls-4" d="M337.7,403c-2.1,14.1,11.7,16,13.5,1.9S339.5,388.9,337.7,403Z"/><path class="cls-5" d="M346,393.1l.9.3c2.4,6.2.1,17.4-4.8,21.2C334.3,412.3,337.6,391.7,346,393.1Z"/><path class="cls-6" d="M337.7,402.7c-.6,4,2.8,4.5,3.3.5S338.3,398.7,337.7,402.7Z"/><path class="cls-7" d="M336.2,402.8c-2.5,17.1,14.3,19.5,16.5,2.3S338.4,385.6,336.2,402.8Zm1.5.2c1.8-14.1,15.6-12.1,13.5,1.9S335.6,417.1,337.7,403Z"/><path class="cls-4" d="M338.6,405.9c-.3,1.1-1,3.4-.3,4.4l.6-4.3Z"/><path class="cls-4" d="M340.3,405.2l-.2.2,2.6,8.6.6-.7Z"/><path class="cls-4" d="M340.9,403.9l5.6,3.7a4.9,4.9,0,0,0,.4-1.1l-6-2.8Z"/><path class="cls-4" d="M347.9,399.9l-6.8,2.4v.4l6.7-.7C347.8,401.3,347.9,400.6,347.9,399.9Z"/><path class="cls-4" d="M346,393.1h-.6l-4.6,7.6a.4.4,0,0,0,.1.3l5.9-7.7Z"/><path class="cls-8" d="M311.4,377.7s-16,4.3-13.1,12.1c-1,5.2,1.7,9.9,6.3,13.8,10.5-5.5,33.7-13.5,38.4-15.1C331.3,382.7,311.4,377.7,311.4,377.7Z"/><path class="cls-3" d="M444.1,272.8c-2.2,17.1,33.3,29.4,44.7,27.3,6.4-1.2,12.9-18.9,6.1-24.8-8.5-7.1-37.6-14.5-37.6-14.5S441.3,265.1,444.1,272.8Z"/><path class="cls-4" d="M483.5,286.1c-2.1,14,11.7,16,13.5,1.9S485.4,272,483.5,286.1Z"/><path class="cls-5" d="M491.8,276.2l.9.2c2.5,6.2.1,17.5-4.8,21.2C480.1,295.3,483.4,274.8,491.8,276.2Z"/><path class="cls-6" d="M483.6,285.8c-.6,4,2.7,4.5,3.3.4S484.1,281.7,483.6,285.8Z"/><path class="cls-9" d="M482,285.9c-2.5,17.1,14.3,19.5,16.5,2.3S484.3,268.7,482,285.9Zm1.5.2c1.9-14.1,15.6-12.2,13.5,1.9S481.4,300.1,483.5,286.1Z"/><path class="cls-4" d="M484.5,289c-.4,1.1-1.1,3.3-.3,4.4l.6-4.3Z"/><path class="cls-4" d="M486.1,288.3l-.2.2,2.6,8.6.7-.7Z"/><path class="cls-4" d="M486.7,287l5.7,3.7.3-1.1-5.9-2.9A.4.4,0,0,0,486.7,287Z"/><path class="cls-4" d="M493.7,283l-6.8,2.4v.4l6.7-.8A13.4,13.4,0,0,0,493.7,283Z"/><path class="cls-4" d="M491.8,276.2h-.6l-4.6,7.5c0,.1.1.2.1.3l5.9-7.6Z"/><path class="cls-10" d="M419.7,363.9,124.2,443.8l-12.8-5,222.1-79c8.7-2.8,4.3-10.7,3.1-16.3Z"/><polygon class="cls-11" points="111.4 438.8 124.2 443.8 419.7 363.9 419.3 366.9 124.3 445.2 111.2 440.4 111.4 438.8"/><polygon class="cls-3" points="405.2 302.4 433.9 281.6 509.4 186.5 524.5 186.3 458.5 309.9 405.2 302.4"/><polygon class="cls-11" points="458.5 309.9 524.5 186.3 524.1 189.4 460.8 311.3 458.5 309.9"/><polygon class="cls-10" points="261.8 273.8 287.6 232 283.4 231.4 247.5 263.1 261.8 273.8"/><polygon class="cls-12" points="287.6 232 287.9 232.8 262.5 274.4 261.8 273.8 287.6 232"/><path class="cls-3" d="M604.8,374.1c-44.6-55.1-89.4-54.1-184-73.5.7,3-219.1-45.6-195.4-18.1,28.9,46.9,82,56.7,109.1,64.7S503,391.1,563.3,399.4c16.5,2.3,31.6-5.9,37.4-9.1S610.5,383.2,604.8,374.1Z"/><path class="cls-13" d="M577.5,350.1c-.2.5-4.5,4.7-3,5.7l4.5,4.4s.8.9,1.5-.3,3.8-5.1,2.8-6.2S578.7,348.6,577.5,350.1Z"/><path class="cls-13" d="M571.1,356.8l-11.7,4.8a.6.6,0,0,0-.3,1.1c1.2,1,3.3,6.4,5.4,5.6l12.4-5.3a.9.9,0,0,0,.4-1.4C576.4,361.1,572.3,355.5,571.1,356.8Z"/><path class="cls-13" d="M554.9,362.9l-2.9.2c-1.7,1,1.7,5.4,2.2,7.5a1.4,1.4,0,0,0,1.6.9c.8-.6,4.9-.8,4.3-2.3S556.7,362.4,554.9,362.9Z"/><path class="cls-11" d="M283.8,284.5c-34.4,3-55.3-6.3-55.3-6.3l-53.4-91.3,10.1,1s60.1,71.4,69.8,79S286.1,283.4,283.8,284.5Z"/><path class="cls-13" d="M547.4,363c-1.6.4-7.6-1.7-7.9,1.1s-.4,5.4,1.6,5.3,12.3,4.3,10.8.7C551.3,368.4,549.7,362.4,547.4,363Z"/><path class="cls-3" d="M175.1,186.9l26,44.5c12.4.8,22.2,8.8,29.7,10.9-20.4-23.1-46.4-53.9-46.4-53.9Z"/><path class="cls-3" d="M237.9,292.3c-4.9-3.9-10.5-11.8-10.5-11.8l-75.3,30.9,5.3,1.9Z"/><polygon class="cls-14" points="152.1 311.4 157.4 313.3 237.9 292.3 237.7 293.5 158.2 313.9 152 312 152.1 311.4"/><path class="cls-13" d="M496.8,367.9a1.9,1.9,0,0,0,1.9,1.8c2.5-.1,2-6.8-.5-6.5S496.8,366.5,496.8,367.9Z"/><path class="cls-13" d="M490.9,364c.1,1.4-.1,4.6,2.1,4.4s1.9-6.8-.6-6.4A1.8,1.8,0,0,0,490.9,364Z"/><path class="cls-13" d="M485.1,362.8c.2,1.4-.1,4.6,2.1,4.4s1.9-6.8-.5-6.5A1.8,1.8,0,0,0,485.1,362.8Z"/><path class="cls-13" d="M479.4,361.5c.1,1.4-.1,4.6,2.1,4.4s1.9-6.8-.6-6.4A1.7,1.7,0,0,0,479.4,361.5Z"/><path class="cls-13" d="M473.6,360.3c.2,1.4-.1,4.6,2.1,4.4s1.9-6.8-.5-6.5A1.8,1.8,0,0,0,473.6,360.3Z"/><path class="cls-13" d="M467.9,359c.1,1.4-.1,4.6,2.1,4.4s1.9-6.8-.6-6.4A1.7,1.7,0,0,0,467.9,359Z"/><path class="cls-13" d="M462.1,357.7c.2,1.5-.1,4.7,2.1,4.5s1.9-6.9-.5-6.5A1.8,1.8,0,0,0,462.1,357.7Z"/><path class="cls-13" d="M456.4,356.5c.1,1.4-.1,4.6,2,4.4s2-6.8-.5-6.4A1.7,1.7,0,0,0,456.4,356.5Z"/><path class="cls-13" d="M450.6,355.2c.2,1.5-.1,4.7,2.1,4.4s1.9-6.7-.5-6.4A1.8,1.8,0,0,0,450.6,355.2Z"/><path class="cls-13" d="M444.8,354c.2,1.4,0,4.6,2.1,4.4s2-6.8-.5-6.4A1.8,1.8,0,0,0,444.8,354Z"/><path class="cls-13" d="M439.1,352.7c.1,1.4-.1,4.7,2.1,4.4s1.9-6.8-.6-6.4A1.8,1.8,0,0,0,439.1,352.7Z"/><path class="cls-13" d="M433.3,351.5c.2,1.4-.1,4.6,2.1,4.4s2-6.8-.5-6.5A1.8,1.8,0,0,0,433.3,351.5Z"/><path class="cls-13" d="M427.6,350.2c.1,1.4-.1,4.6,2.1,4.4s1.9-6.8-.6-6.4A1.8,1.8,0,0,0,427.6,350.2Z"/><path class="cls-13" d="M421.8,349c.2,1.4-.1,4.6,2.1,4.4s2-6.8-.5-6.5A1.8,1.8,0,0,0,421.8,349Z"/><path class="cls-13" d="M416.1,347.7c.1,1.4-.1,4.6,2.1,4.4s1.9-6.8-.6-6.4A1.8,1.8,0,0,0,416.1,347.7Z"/><path class="cls-13" d="M410.3,346.5c.2,1.4-.1,4.6,2.1,4.4s1.9-6.8-.5-6.5A1.8,1.8,0,0,0,410.3,346.5Z"/><path class="cls-13" d="M404.8,347.9a1.8,1.8,0,0,0,1.9,1.7c2.4,0,1.9-6.8-.6-6.4S404.7,346.4,404.8,347.9Z"/><path class="cls-13" d="M385.2,343.7a1.9,1.9,0,0,0,1.8,1.8c2.5-.1,2-6.9-.5-6.5S385.1,342.3,385.2,343.7Z"/><path class="cls-13" d="M379.6,339.8c.1,1.4-.1,4.6,2.1,4.4s1.9-6.8-.6-6.4A1.8,1.8,0,0,0,379.6,339.8Z"/><path class="cls-13" d="M374.2,338.6c.2,1.3-.1,4.5,2.1,4.3s1.9-6.7-.6-6.4A1.8,1.8,0,0,0,374.2,338.6Z"/><path class="cls-13" d="M368.8,337.3c.2,1.4,0,4.6,2.1,4.4s1.9-6.7-.5-6.4A1.9,1.9,0,0,0,368.8,337.3Z"/><path class="cls-13" d="M363.5,336.1c.1,1.3-.1,4.5,2,4.3s1.9-6.7-.5-6.3A1.7,1.7,0,0,0,363.5,336.1Z"/><path class="cls-13" d="M358.1,334.8c.2,1.4-.1,4.5,2,4.3s1.8-6.6-.5-6.2A1.7,1.7,0,0,0,358.1,334.8Z"/><path class="cls-13" d="M352.8,333.6c.1,1.3-.1,4.4,1.9,4.3s1.8-6.6-.5-6.3A1.7,1.7,0,0,0,352.8,333.6Z"/><path class="cls-13" d="M347.4,332.3c.1,1.4-.1,4.5,1.9,4.3s1.8-6.5-.5-6.2A1.7,1.7,0,0,0,347.4,332.3Z"/><path class="cls-13" d="M342,331.1c.2,1.3-.1,4.4,2,4.2s1.7-6.5-.6-6.1A1.6,1.6,0,0,0,342,331.1Z"/><path class="cls-13" d="M336.7,329.9c.1,1.3-.1,4.3,1.9,4.2s1.7-6.5-.5-6.2A1.7,1.7,0,0,0,336.7,329.9Z"/><path class="cls-13" d="M331.3,328.6c.1,1.3-.1,4.4,1.9,4.2s1.7-6.4-.5-6.1A1.6,1.6,0,0,0,331.3,328.6Z"/><path class="cls-13" d="M325.9,327.4c.2,1.3-.1,4.3,1.9,4.1s1.7-6.3-.5-6A1.6,1.6,0,0,0,325.9,327.4Z"/><path class="cls-13" d="M320.6,326.1c.1,1.3-.1,4.3,1.8,4.2s1.7-6.4-.5-6.1A1.7,1.7,0,0,0,320.6,326.1Z"/><path class="cls-13" d="M315.2,324.9c.1,1.2-.1,4.3,1.8,4.1s1.7-6.3-.5-6A1.6,1.6,0,0,0,315.2,324.9Z"/><path class="cls-13" d="M309.8,323.6c.2,1.3-.1,4.3,1.9,4.1s1.6-6.2-.5-5.9S309.8,322.7,309.8,323.6Z"/><path class="cls-13" d="M304.5,322.4c.1,1.2-.1,4.2,1.8,4.1s1.6-6.2-.5-6A1.6,1.6,0,0,0,304.5,322.4Z"/><path class="cls-13" d="M299.1,321.2c.2,1.2-.1,4.2,1.8,4s1.6-6.2-.5-5.9A1.6,1.6,0,0,0,299.1,321.2Z"/><path class="cls-13" d="M293.7,319.9c.2,1.2,0,4.2,1.8,4s1.6-6.1-.5-5.8A1.7,1.7,0,0,0,293.7,319.9Z"/><path class="cls-13" d="M288.4,318.7c.1,1.2-.1,4.1,1.7,4s1.6-6.1-.5-5.8S288.3,317.7,288.4,318.7Z"/><path class="cls-13" d="M283,317.4c.2,1.2-.1,4.2,1.7,4s1.6-6-.5-5.8A1.6,1.6,0,0,0,283,317.4Z"/><path class="cls-13" d="M277.6,316.2c.2,1.2,0,4.1,1.7,3.9s1.6-6-.4-5.7A1.7,1.7,0,0,0,277.6,316.2Z"/><path class="cls-13" d="M272.3,314.9c.1,1.2-.1,4.1,1.7,4s1.4-6-.5-5.7S272.2,314,272.3,314.9Z"/><path class="cls-13" d="M267.1,316c.1,1,.7,1.7,1.5,1.6s1.4-5.9-.5-5.7S267.1,314.9,267.1,316Z"/><path class="cls-11" d="M414.6,358.1C346,341.8,296.8,329.7,258,315.7l-.4.7c86,45,189.3,58.3,305.7,83,19.7,1.4,36.6-5.8,43.8-15C574.2,395.5,484.7,374.8,414.6,358.1Z"/></g><g id="_002" data-name="002" class="cls-15"><path class="cls-16" d="M409.6,503.4s17.1-29.3,44.1,5.9-41.6,15.3-70.5-.6S409.6,503.4,409.6,503.4Z"/><path class="cls-16" d="M485.3,498.3c24.2,24.4-4.3,22.1-28.1,12.7S461,473.8,485.3,498.3Z"/><g id="_009" data-name="009"><path class="cls-16" d="M191.7,97.6c24.2,24.4-6.5,35.8-30.3,26.4"/></g></g></svg>