<svg xmlns="http://www.w3.org/2000/svg" xmlns:xlink="http://www.w3.org/1999/xlink" viewBox="0 0 718 661"><defs><style>.cls-1,.cls-111,.cls-42,.cls-76,.cls-79{fill:none;}.cls-2{isolation:isolate;}.cls-3{fill:url(#linear-gradient);}.cls-4{fill:#31d0e5;stroke-width:6px;stroke:url(#linear-gradient-2);}.cls-111,.cls-19,.cls-20,.cls-21,.cls-24,.cls-25,.cls-26,.cls-29,.cls-31,.cls-32,.cls-33,.cls-39,.cls-4,.cls-40,.cls-42,.cls-43,.cls-44,.cls-45,.cls-46,.cls-47,.cls-62,.cls-63,.cls-64,.cls-65,.cls-66,.cls-67,.cls-69,.cls-70,.cls-71,.cls-73,.cls-75,.cls-76,.cls-77,.cls-79,.cls-83,.cls-84,.cls-91,.cls-93{stroke-miterlimit:10;}.cls-5{clip-path:url(#clip-path);}.cls-6{fill:#a6ebf7;}.cls-7{fill:#d3fff3;}.cls-8{fill:#c5db7f;}.cls-9{fill:#98bc5c;}.cls-10{fill:#799640;opacity:0.46;}.cls-11{opacity:0.3;}.cls-12,.cls-15{fill:#042f33;}.cls-12{opacity:0.69;}.cls-13{fill:#fff;}.cls-14{fill:#00470c;}.cls-16{opacity:0.38;}.cls-17{opacity:0.45;}.cls-18{fill:#77c9b0;}.cls-19,.cls-60{fill:#f9dad2;}.cls-19{stroke:#4c2606;}.cls-111,.cls-19,.cls-20,.cls-21,.cls-24,.cls-25,.cls-26,.cls-29,.cls-31,.cls-32,.cls-33,.cls-39,.cls-40,.cls-42,.cls-43,.cls-44,.cls-45,.cls-46,.cls-47,.cls-62,.cls-63,.cls-64,.cls-65,.cls-66,.cls-67,.cls-69,.cls-70,.cls-71,.cls-73,.cls-75,.cls-76,.cls-77,.cls-79,.cls-83,.cls-84,.cls-91,.cls-93{stroke-width:0.25px;}.cls-20{fill:#ee7bae;}.cls-20,.cls-39,.cls-40,.cls-43{stroke:#633954;}.cls-21{fill:#fe66ca;}.cls-21,.cls-24{stroke:#af1086;}.cls-22{fill:#fffa71;}.cls-23{fill:#cc0098;}.cls-24{fill:#e852bb;}.cls-25{fill:#191512;stroke:#301d10;}.cls-26{fill:#fdd3ca;}.cls-26,.cls-42,.cls-62{stroke:#af8680;}.cls-27{fill:#e3ae9f;}.cls-28{fill:#342516;}.cls-29{fill:#e94e41;stroke:#874a46;}.cls-30{fill:#b26b51;}.cls-31{fill:#e7d760;stroke:#baa73b;}.cls-32,.cls-34{fill:#f9f6f2;}.cls-32,.cls-64,.cls-69,.cls-70,.cls-71,.cls-77,.cls-79,.cls-84{stroke:#323232;}.cls-33,.cls-35{fill:#3d2d16;}.cls-33{stroke:#3d2d16;}.cls-36{fill:#ed6b64;}.cls-37{fill:#7a2f2b;}.cls-38{fill:#ef786c;}.cls-39{fill:#d880aa;}.cls-40{fill:#c66a96;}.cls-41{fill:#bc6c96;}.cls-43{fill:#f4ec62;}.cls-44{fill:#b7767b;}.cls-44,.cls-45,.cls-46,.cls-63,.cls-65,.cls-66,.cls-67{stroke:#562d30;}.cls-44,.cls-63,.cls-67{opacity:0.35;}.cls-45{fill:#904a4c;}.cls-46{fill:#ad7f82;}.cls-47{fill:#faf079;stroke:#9a9435;}.cls-48{fill:#b8832c;}.cls-49{fill:#f16a21;}.cls-50{fill:#02b5fd;}.cls-51{fill:#fc9512;}.cls-52{fill:#0833f1;}.cls-53{fill:#5fce3d;}.cls-54{fill:#05a4d6;}.cls-55{fill:#9e4ac6;}.cls-56{mix-blend-mode:screen;opacity:0.2;}.cls-57{fill:url(#linear-gradient-3);}.cls-58{fill:url(#linear-gradient-4);}.cls-59{fill:url(#linear-gradient-5);}.cls-61{fill:#4c2606;}.cls-62{fill:#f9c4bb;}.cls-63{fill:#d6fcfc;}.cls-64{fill:#6bb7ce;}.cls-65{fill:#a6f7f7;}.cls-66{fill:#b4f9f9;}.cls-67{fill:#defeff;}.cls-68{fill:#b9908b;}.cls-69{fill:#587ab1;}.cls-70{fill:#7199c6;}.cls-71{fill:#759ac4;}.cls-72{fill:#1b3f72;opacity:0.76;}.cls-73{fill:#efdeda;}.cls-73,.cls-75,.cls-76,.cls-91{stroke:#453323;}.cls-74{fill:#dd998c;}.cls-75,.cls-80{fill:#fbd3c7;}.cls-77{fill:#facc35;}.cls-78{fill:#be9030;}.cls-81{fill:#453323;}.cls-82{fill:#d89284;}.cls-83{fill:#d95c78;stroke:#8d2338;}.cls-84,.cls-91{fill:#f7c7bc;}.cls-85{fill:#d39184;}.cls-86{fill:#f3eae3;}.cls-87{fill:#4f3317;}.cls-88{fill:#ba7e70;}.cls-89{fill:#451e15;}.cls-90{fill:#dee8ee;}.cls-92{fill:#d69385;}.cls-93{fill:#3f1d1d;stroke:#221f1f;}.cls-94{fill:#431b15;}.cls-95{fill:#c48a74;}.cls-96{fill:#e4a68d;}.cls-97{fill:#561211;}.cls-98{fill:#e20c49;}.cls-99{fill:#bc7757;}.cls-100{fill:#f5dc90;}.cls-101{fill:#3fc416;}.cls-102{fill:#00a6fd;}.cls-103{fill:#fb8000;}.cls-104{fill:#e53963;}.cls-105{fill:url(#linear-gradient-6);}.cls-106{mix-blend-mode:multiply;opacity:0.5;}.cls-107{fill:url(#linear-gradient-7);}.cls-108{fill:url(#linear-gradient-8);}.cls-109{fill:red;}.cls-110{fill:#00a3fd;}.cls-111{stroke:#2f404f;}</style><linearGradient id="linear-gradient" x1="104.06" y1="155.82" x2="602.27" y2="497.19" gradientUnits="userSpaceOnUse"><stop offset="0" stop-color="#9b81cf"/><stop offset="1" stop-color="#3b139b"/></linearGradient><linearGradient id="linear-gradient-2" x1="66.74" y1="330.5" x2="651.26" y2="330.5" gradientUnits="userSpaceOnUse"><stop offset="0" stop-color="#4c1da9"/><stop offset="1" stop-color="#997ece"/></linearGradient><clipPath id="clip-path"><circle class="cls-1" cx="359" cy="330.5" r="286.5"/></clipPath><linearGradient id="linear-gradient-3" x1="-5683.14" y1="-7744.83" x2="-5648.93" y2="-7744.83" gradientTransform="translate(11755.7 14795.1) rotate(-1.9) scale(1.92)" gradientUnits="userSpaceOnUse"><stop offset="0" stop-color="#fdbf05"/><stop offset="0.31" stop-color="#fea712"/><stop offset="0.96" stop-color="#ff6a34"/><stop offset="1" stop-color="#ff6636"/></linearGradient><linearGradient id="linear-gradient-4" x1="-10907.07" y1="-7743.94" x2="-10906.69" y2="-7699.2" gradientTransform="matrix(-1.92, 0.07, 0.07, 1.92, -19963.46, 15896.34)" gradientUnits="userSpaceOnUse"><stop offset="0" stop-color="#d59647"/><stop offset="0.2" stop-color="#bd843e"/><stop offset="0.74" stop-color="#805426"/><stop offset="1" stop-color="#68421d"/></linearGradient><linearGradient id="linear-gradient-5" x1="-10932.18" y1="-7725.14" x2="-10881.58" y2="-7725.14" xlink:href="#linear-gradient-4"/><linearGradient id="linear-gradient-6" x1="-3491.09" y1="-8232.8" x2="-3459.6" y2="-8232.8" gradientTransform="translate(11287.3 12681) rotate(-18) scale(1.86)" gradientUnits="userSpaceOnUse"><stop offset="0" stop-color="#ff0a3b"/><stop offset="0.67" stop-color="#ff576b"/><stop offset="1" stop-color="#ff7880"/></linearGradient><linearGradient id="linear-gradient-7" x1="-3467.98" y1="-8245.36" x2="-3467.63" y2="-8204.16" gradientTransform="translate(11287.3 12681) rotate(-18) scale(1.86)" gradientUnits="userSpaceOnUse"><stop offset="0" stop-color="#cc8122"/><stop offset="0.32" stop-color="#9e5e16"/><stop offset="0.78" stop-color="#612f06"/><stop offset="1" stop-color="#491c00"/></linearGradient><linearGradient id="linear-gradient-8" x1="-3491.09" y1="-8228.04" x2="-3444.5" y2="-8228.04" xlink:href="#linear-gradient-7"/></defs><g class="cls-2"><g id="SB39_Interactive_Icon_01_F1"><circle class="cls-3" cx="359" cy="330.5" r="301.9"/><circle class="cls-4" cx="359" cy="330.5" r="289.3"/><g class="cls-5"><ellipse class="cls-6" cx="353.8" cy="303.8" rx="291.6" ry="291.3"/><path class="cls-7" d="M670.9,275.7c0,146.6-139.9,265.5-312.6,265.5S30.5,435.2,30.5,288.5,185.7,10.1,358.3,10.1,670.9,129,670.9,275.7Z"/><path class="cls-8" d="M136.6,697S553.3,376.8-65.6,399"/><path class="cls-9" d="M413.2,627.5c-153.1,0-359.5-24.1-359.5-69.9S237,385.9,633.2,364.6C786.1,356.4,566.2,627.5,413.2,627.5Z"/><path class="cls-10" d="M429.8,682.2C286.7,653.3,97.8,594.1,105.5,556s200.4-108.4,574.4-51.1C824.2,527,572.9,711.2,429.8,682.2Z"/><ellipse class="cls-11" cx="249.2" cy="524.6" rx="55.3" ry="12.8" transform="translate(-44 23.2) rotate(-4.9)"/><ellipse class="cls-11" cx="484.8" cy="531.8" rx="55.3" ry="13" transform="translate(-77.6 82.9) rotate(-9.1)"/><path class="cls-12" d="M580,370s-10.5-15.4,7-13.8c0,0-.8-25.5,16.7-16.1,0,0-5.4-21.5,24.4-14.6,0,0,35.9-7.3,17.7,18.3,0,0,28.8,4.1,11.3,22.2Z"/><path class="cls-13" d="M158.9,147.1a30,30,0,0,0,18.7-11.6c5.4-7.4,16.9-14.3,39.9,1,37.1,24.8-35.1,27.5-67.9,21.5C128.2,154.1,144.8,149.7,158.9,147.1Z"/><path class="cls-13" d="M244.2,116.3c31.1,15.5,3,22.2-22.9,20.8S213.2,100.8,244.2,116.3Z"/><path class="cls-14" d="M400.2,610.4s-45.7,7.4-49.3-4.4,37.8-7.7,55.3-2.2c-55.8-30.3-26.2-12.2-42.8-23.4s-7.2-25,21.1-9.3l31,21.7s-22.5-27.4-32.8-42.6.8-33.5,22.3-8.6c-.6-10.6-.7-11.7-.7-11.7s1.3,15.9-.7-2.4,15.5-14.7,15.7,13.4c5.7-12.9-2.3,2.4,6.8-12s27.2-11,18.3,16.2-5.9,19.4-5.9,19.4l-6.7,17.6,24.6-25.6c17.5-15.6,28.9-10.4,11.4,14-11.9,13.9-22.3,25-22.3,25s12.2-5.8,31.8-16,25,7,2.1,16.9c-28.8,4.8-79.2,14-79.2,14"/><path class="cls-15" d="M430.3,597.3l40.5-43.8s-33.9,40.3-40.5,43.8"/><path class="cls-15" d="M421.9,580.9l15.1-54s-9.4,45.8-15.1,54"/><path class="cls-15" d="M407.7,522.2s12.5,69.1,15.6,76.6c1.5-3.7-13.6-76.3-15.6-76.6"/><path class="cls-15" d="M423.1,594.5s-37.2-55.2-38.1-57.1,32.8,39.1,32.6,47.1"/><path class="cls-15" d="M437.1,601.9s41.2-15.1,47.1-19-16.2,11.6-47.1,19"/><path class="cls-15" d="M363.8,571.8s45.5,29.7,51,31.8c0,0-46.9-32.7-51-31.8"/><path class="cls-15" d="M404.9,607.1s-47.4.6-48.6-.1,43.3-1.5,48.6.1"/><path class="cls-15" d="M426.8,563.5l12.4-9.5s-11.3,5.6-12.4,9.5"/><path class="cls-15" d="M429.2,554.9s-5.2-12.1-5.9-13.3,5.9,7.8,5.9,13.3"/><path class="cls-15" d="M432.7,546.1s11.7-8.8,11.6-10.3-10.1,8.7-11.6,10.3"/><path class="cls-15" d="M432.1,541.9l-4.4-9.9s5,5,4.4,9.9"/><path class="cls-15" d="M437.8,589.1s3.1-13.9,4.5-15.5-3.6,13.1-4.5,15.5"/><path class="cls-15" d="M445.8,582.2l15.7-7.7s-9,2-15.7,7.7"/><path class="cls-15" d="M457.3,568.1s-.8-8.9.4-10.5.9,9.1-.4,10.5"/><path class="cls-15" d="M462.7,563.1l10.1-5s-2.9,3.3-10.1,5"/><path class="cls-15" d="M460.5,593.1s9.8-8.5,13-9.7-6.5,5.8-13,9.7"/><path class="cls-15" d="M465.7,592.2s17.2-1.8,19.5-3.1-16.9,2-19.5,3.1"/><path class="cls-15" d="M451.7,597.6l17-.8s-11.5-.9-17,.8"/><path class="cls-15" d="M416,557c-.1-.7,3.9-8.9,3.9-8.9s-3,1.4-4,8.2"/><path class="cls-15" d="M412.3,550.4s-5.2-6.7-5.3-6.4,3.9,1,5.3,6.4"/><path class="cls-15" d="M412.7,540.6l1.6-10.9s-3,4.2-1.6,10.9"/><path class="cls-15" d="M406,563.9s-2.6-15-2.5-15.7-1.4,8.3,2.5,15.7"/><path class="cls-15" d="M395.1,549.5s-3.3-7.8-3.1-10.9,3.1,8.2,3.1,10.9"/><path class="cls-15" d="M398.4,557.1l-10.9-3.8a18,18,0,0,1,10.9,3.8"/><path class="cls-15" d="M409.5,573l-10.2-1.7s6.2-.7,10.2,1.7"/><path class="cls-15" d="M376,577.9s-6.8-7-7.5-8.9,5.8,3.5,7.5,8.9"/><path class="cls-15" d="M384.1,584.9l-13.4-1.4a29.2,29.2,0,0,1,13.4,1.4"/><path class="cls-15" d="M390.9,587.4c.1,0-4.2-5.9-4.1-9.2s2.6,6.4,4.2,9.2"/><path class="cls-15" d="M400.6,593.8s-3.6-7.2-3.8-9.8,4.7,6.7,3.8,9.8"/><path class="cls-15" d="M375.5,599.9l14.5,6.3s-5.5-.1-14.5-6.3"/><path class="cls-15" d="M370.3,606.3s-9.9-3-11.6-4.5,9.8,2.4,11.6,4.5"/><path class="cls-15" d="M382.3,607.3s-11.9,4.3-14.6,4.7,6.9-3.6,14.6-4.7"/><path class="cls-14" d="M177.2,574.4s-21.9-8-20.5-14.1,18.5,6,24.8,12.7c-17-27.1-8.5-11.8-13-20.8s3.1-12.8,11.6,1.1l8.2,17.2s-3.1-17.6-3.8-26.8,8.6-14.5,11.9,1.8c2.3-4.8,2.6-5.3,2.6-5.3s-3.4,7.3.3-1.3,10.4-2.6,3.5,9.8c5.7-4.3-1.6.5,6-3.6s14.6,1.9,4,11.7-7.4,7-7.4,7l-7.3,6,17.1-5.1c11.5-2.5,15.3,2.6,1.6,9-8.7,3.1-16,5.4-16,5.4s6.8.5,17.9.8,9.2,9.3-3.3,8c-13.8-5-38.2-13.5-38.2-13.5"/><path class="cls-15" d="M193.7,576.1l28.6-9.1s-24.8,9.2-28.6,9.1"/><path class="cls-15" d="M194.1,566.9l20-20s-15.5,17.8-20,20"/><path class="cls-15" d="M202.4,537.6s-11.7,33.4-12.2,37.5c1.6-1.3,13-36.8,12.2-37.5"/><path class="cls-15" d="M191.2,573.1s-2.6-33.4-2.6-34.4,4.8,25.2,2.7,28.7"/><path class="cls-15" d="M195.5,579.8s21.8,3.6,25.4,3.3a86.7,86.7,0,0,1-25.4-3.3"/><path class="cls-15" d="M170.8,548.5s12.6,24.3,14.5,26.6c0,0-12.5-25.9-14.5-26.6"/><path class="cls-15" d="M180.1,574.2s-20.9-11.5-21.3-12.1,19.4,10.1,21.3,12.1"/><path class="cls-15" d="M200.5,560.4l7.8-1.1s-6.4-.3-7.8,1.1"/><path class="cls-15" d="M203.7,557.3s.7-6.6.7-7.3.7,4.9-.7,7.3"/><path class="cls-15" d="M207.4,554.3s7.3-1,7.6-1.7-6.5,1.4-7.6,1.7"/><path class="cls-15" d="M208.2,552.3l.5-5.4s.9,3.4-.5,5.4"/><path class="cls-15" d="M199,574.4s4.8-5.3,5.8-5.7-4.8,4.9-5.8,5.7"/><path class="cls-15" d="M204.2,573.3l8.8.6a20.7,20.7,0,0,0-8.8-.6"/><path class="cls-15" d="M212.8,570s1.8-4.1,2.7-4.5-1.8,4.2-2.7,4.5"/><path class="cls-15" d="M216.4,569.1l5.6.4a9.8,9.8,0,0,1-5.6-.4"/><path class="cls-15" d="M208,581.8s6.3-1.3,8-1.1-4.2,1-8,1.1"/><path class="cls-15" d="M210.5,582.7s7.9,3.4,9.3,3.4-7.9-3.3-9.3-3.4"/><path class="cls-15" d="M203,581.6l7.6,3.8s-4.8-3.2-7.6-3.8"/><path class="cls-15" d="M197.4,554.9a43.4,43.4,0,0,1,3.9-2.9s-1.7-.1-3.8,2.6"/><path class="cls-15" d="M197.4,551.1s-.6-4.2-.8-4.1a4.6,4.6,0,0,1,.8,4.1"/><path class="cls-15" d="M200,546.9l3.4-4.3a6.8,6.8,0,0,0-3.4,4.3"/><path class="cls-15" d="M191.3,555.5s2.6-7.2,2.8-7.5a14.2,14.2,0,0,0-2.8,7.5"/><path class="cls-15" d="M190.1,546.5s.5-4.3,1.3-5.6-.7,4.4-1.3,5.6"/><path class="cls-15" d="M189.7,550.6l-3.9-4.3a9.1,9.1,0,0,1,3.9,4.3"/><path class="cls-15" d="M190.6,560.3l-4.1-3.2a9.9,9.9,0,0,1,4.1,3.2"/><path class="cls-15" d="M174.7,554.2s-1.3-4.7-1.1-5.7,1.7,2.9,1.1,5.7"/><path class="cls-15" d="M176.5,559.3l-5.5-3.9a13.7,13.7,0,0,1,5.5,3.9"/><path class="cls-15" d="M178.9,562.1s-.4-3.7.4-5.1-.4,3.4-.4,5.1"/><path class="cls-15" d="M181.5,567.3s.2-4.1.8-5.3.4,4.1-.8,5.3"/><path class="cls-15" d="M169,563.7l4.8,6.4s-2.4-1.4-4.8-6.4"/><path class="cls-15" d="M165.1,565.3s-3.6-3.8-4-4.9,3.8,3.5,4,4.9"/><path class="cls-15" d="M170.1,568.7s-6.3-1.1-7.5-1.6,3.9.1,7.5,1.6"/><g class="cls-16"><path class="cls-14" d="M348.2,486.5s-13.9,0-14.4-3.6,11.6-.5,16.5,1.9c-15.1-11.6-7.2-4.8-11.6-8.9s-.9-7.8,6.7-1.8l8.2,7.9s-5.4-9.2-7.7-14.1,1.8-9.9,7-1.5c.3-3.2.3-3.5.3-3.5s-.3,4.7-.1-.8,5.3-3.6,4.1,4.7c2.2-3.5-.8.6,2.5-3.2s8.6-2,4.7,5.7-2.7,5.4-2.7,5.4l-2.8,4.9,8.5-6.4c5.9-3.8,9.1-1.7,2.7,4.7-4.2,3.5-7.8,6.3-7.8,6.3s3.9-1.1,10.2-3.2,7.1,3.2-.2,5.1l-24.1.4"/><path class="cls-15" d="M357.7,484l14.1-11s-11.9,10.3-14.1,11"/><path class="cls-15" d="M356,478.8l7.1-15.3s-5,13.1-7.1,15.3"/><path class="cls-15" d="M354.6,460.7s.4,21.1,1,23.4c.6-1-.4-23.2-1-23.4"/><path class="cls-15" d="M355.8,482.9s-8.4-18.1-8.6-18.7,7.8,13.1,7.4,15.4"/><path class="cls-15" d="M359.5,485.7s13-2.5,14.9-3.4a54.8,54.8,0,0,1-14.9,3.4"/><path class="cls-15" d="M339.3,473.3s12,11,13.6,11.9c0,0-12.4-11.9-13.6-11.9"/><path class="cls-15" d="M349.8,485.7s-14.1-2-14.4-2.3,12.9,1.6,14.4,2.3"/><path class="cls-15" d="M358.3,473.8l4.1-2.2s-3.6,1.2-4.1,2.2"/><path class="cls-15" d="M359.4,471.4l-1.1-4.2c-.1-.4,1.4,2.6,1.1,4.2"/><path class="cls-15" d="M360.9,469s3.9-2.1,3.9-2.5-3.4,2.1-3.9,2.5"/><path class="cls-15" d="M360.9,467.7l-.8-3.1s1.2,1.7.8,3.1"/><path class="cls-15" d="M360.4,482s1.5-4,2-4.4-1.7,3.7-2,4.4"/><path class="cls-15" d="M363,480.3l5.1-1.5a11.9,11.9,0,0,0-5.1,1.5"/><path class="cls-15" d="M367.1,476.7s.2-2.7.6-3.1-.1,2.7-.6,3.1"/><path class="cls-15" d="M368.9,475.4l3.3-1a5.5,5.5,0,0,1-3.3,1"/><path class="cls-15" d="M366.9,484.2a27.4,27.4,0,0,1,4.3-2.2c1-.3-2.2,1.4-4.3,2.2"/><path class="cls-15" d="M368.5,484.2s5.1.3,5.9,0-5.1-.2-5.9,0"/><path class="cls-15" d="M364.1,485.1l5,.6a19.9,19.9,0,0,0-5-.6"/><path class="cls-15" d="M355.4,471.4A25,25,0,0,1,357,469s-1,.3-1.6,2.2"/><path class="cls-15" d="M354.6,469.3l-1.2-2.1a2.7,2.7,0,0,1,1.2,2.1"/><path class="cls-15" d="M355.2,466.4l1-3.1a4.3,4.3,0,0,0-1,3.1"/><path class="cls-15" d="M352.1,473v-4.8a9.3,9.3,0,0,0,0,4.8"/><path class="cls-15" d="M349.6,468.2a12.2,12.2,0,0,1-.4-3.3c.2-.9.5,2.5.4,3.3"/><path class="cls-15" d="M350.2,470.6l-3-1.6a5.7,5.7,0,0,1,3,1.6"/><path class="cls-15" d="M352.8,475.8l-3-.9a6.7,6.7,0,0,1,3,.9"/><path class="cls-15" d="M342.6,475.7a18.1,18.1,0,0,1-1.8-3c-.1-.5,1.5,1.3,1.8,3"/><path class="cls-15" d="M344.7,478.2l-3.9-1.1a8.7,8.7,0,0,1,3.9,1.1"/><path class="cls-15" d="M346.6,479.2a5.9,5.9,0,0,1-.8-2.9c.2-1,.4,2,.8,3"/><path class="cls-15" d="M349.1,481.6a12.9,12.9,0,0,1-.6-3.1c0-.7,1,2.2.6,3.1"/><path class="cls-15" d="M341.4,482.2l4,2.6s-1.6-.3-4-2.6"/><path class="cls-15" d="M339.6,483.9a25.9,25.9,0,0,1-3.3-1.9c-.4-.5,2.8,1.1,3.3,1.9"/><path class="cls-15" d="M343.1,484.7s-3.8.7-4.6.7,2.2-.7,4.6-.7"/></g><g class="cls-16"><path class="cls-14" d="M568.1,491.4s-13.8,0-14.3-3.6,11.5-.5,16.4,1.9c-15.1-11.6-7.1-4.8-11.5-8.9s-1-7.8,6.6-1.8l8.2,7.9s-5.4-9.2-7.7-14.1,1.8-9.9,7-1.5a33.7,33.7,0,0,1,.4-3.5s-.4,4.7-.1-.8,5.3-3.6,4,4.7c2.3-3.5-.8.6,2.6-3.2s8.5-2,4.6,5.7-2.7,5.4-2.7,5.4l-2.8,4.9,8.5-6.4c5.9-3.8,9.1-1.7,2.7,4.7-4.1,3.5-7.7,6.3-7.7,6.3s3.8-1.1,10.1-3.2,7.1,3.2-.1,5.1l-24.2.4"/><path class="cls-15" d="M577.7,488.9l14-11s-11.9,10.3-14,11"/><path class="cls-15" d="M576,483.7l7-15.3s-5,13.1-7,15.3"/><path class="cls-15" d="M574.5,465.6s.5,21.1,1,23.5c.7-1.1-.4-23.3-1-23.5"/><path class="cls-15" d="M575.7,487.8s-8.4-18.1-8.6-18.7,7.9,13.1,7.4,15.5"/><path class="cls-15" d="M579.5,490.6s12.9-2.5,14.8-3.4a52.9,52.9,0,0,1-14.8,3.4"/><path class="cls-15" d="M559.2,478.2s12.1,11,13.6,11.9-12.3-11.9-13.6-11.9"/><path class="cls-15" d="M569.7,490.6s-14.1-2-14.4-2.3,12.9,1.6,14.4,2.3"/><path class="cls-15" d="M578.2,478.8l4.2-2.3s-3.7,1.2-4.2,2.3"/><path class="cls-15" d="M579.3,476.3s-.9-3.8-1.1-4.2,1.4,2.6,1.1,4.2"/><path class="cls-15" d="M580.8,473.9s3.9-2.1,3.9-2.5-3.4,2.1-3.9,2.5"/><path class="cls-15" d="M580.8,472.6l-.8-3.1s1.2,1.7.8,3.1"/><path class="cls-15" d="M580.3,486.9s1.5-4,2-4.4-1.6,3.7-2,4.4"/><path class="cls-15" d="M583,485.2l5-1.5a11.3,11.3,0,0,0-5,1.5"/><path class="cls-15" d="M587,481.6s.2-2.7.7-3.1-.2,2.7-.7,3.1"/><path class="cls-15" d="M588.9,480.3l3.2-1a5.3,5.3,0,0,1-3.2,1"/><path class="cls-15" d="M586.8,489.1a27.4,27.4,0,0,1,4.3-2.2c1-.2-2.2,1.4-4.3,2.2"/><path class="cls-15" d="M588.4,489.1s5.2.3,5.9,0-5.1-.2-5.9,0"/><path class="cls-15" d="M584,490.1l5,.5a17,17,0,0,0-5-.5"/><path class="cls-15" d="M575.4,476.3a25.2,25.2,0,0,1,1.5-2.4s-.9.3-1.5,2.2"/><path class="cls-15" d="M574.6,474.2s-1.3-2.2-1.3-2.1a2.9,2.9,0,0,1,1.3,2.1"/><path class="cls-15" d="M575.1,471.3l1-3.1a4.3,4.3,0,0,0-1,3.1"/><path class="cls-15" d="M572,477.9v-4.8a10.8,10.8,0,0,0,0,4.8"/><path class="cls-15" d="M569.5,473.1a11.6,11.6,0,0,1-.4-3.3c.2-.9.5,2.5.4,3.3"/><path class="cls-15" d="M570.1,475.5l-3-1.6a5.7,5.7,0,0,1,3,1.6"/><path class="cls-15" d="M572.7,480.8l-3-1a6,6,0,0,1,3,1"/><path class="cls-15" d="M562.5,480.6a21.5,21.5,0,0,1-1.8-2.9c-.1-.6,1.6,1.2,1.8,2.9"/><path class="cls-15" d="M564.6,483.1l-3.9-1a7.8,7.8,0,0,1,3.9,1"/><path class="cls-15" d="M566.5,484.2s-1-2-.8-3,.5,2,.8,3"/><path class="cls-15" d="M569,486.5a12.9,12.9,0,0,1-.6-3.1c.1-.7,1,2.2.6,3.1"/><path class="cls-15" d="M561.3,487.1l4,2.6s-1.6-.3-4-2.6"/><path class="cls-15" d="M559.5,488.8a20.2,20.2,0,0,1-3.2-1.9c-.5-.5,2.7,1.2,3.2,1.9"/><path class="cls-15" d="M563,489.6a30.2,30.2,0,0,1-4.6.7c-.8,0,2.3-.7,4.6-.7"/></g><g class="cls-17"><path class="cls-18" d="M81.3,383s13.9-8.3,21.1,1.7,2.7,6.9-11.5,5.8S76.2,385.2,81.3,383Z"/><path class="cls-18" d="M87.4,402.7s4.6-7.6,3.5-12.2,1.2-2.1,1.2-2.1l.5,4.7,4.9-1.9s-5.4,2.1-4.5,6a13.5,13.5,0,0,0,2.6,5.5Z"/></g><path class="cls-19" d="M453.3,369.1l-6.4.6a72.2,72.2,0,0,0-11.2-6.5c-7.4-3.5-18.6-8.2-21.4-13.7l-5.8,8a33.3,33.3,0,0,0,4.8,5.4c6.8,6,19.7,16.1,30.1,18.5,0,0,6.9,3.6,18.4-.9"/><path class="cls-19" d="M409.4,358.7c-7.5-.2-12.4-3.3-17.3-6.9s-2.6-4.4-2.6-4.4l-1.8-1.5c-3.7-2.8-2.3-4.2-2.3-4.2-1.3-2.9.7-2.5.7-2.5-1.9-3.4.5-2.6.5-2.6,2.4,2.3,9.2,5.8,12.7,7.5s9,.9,9,.9,5,.9,5.8,5.8"/><path class="cls-19" d="M385.7,338.3a32.2,32.2,0,0,0,12.5,8.2"/><path class="cls-19" d="M385.3,341.4s3.5,4.2,12.1,7.6"/><path class="cls-19" d="M389,347.1a26.2,26.2,0,0,0,7.6,3.8"/><path class="cls-19" d="M414.5,351.4a12.9,12.9,0,0,0-3.5-8.2c-3.7-3.9-8.5-5.9-10.3-9.1,0,0-3,1,2.7,7.6,0,0,2.3,1.7,2.3,3.8s-.4,4,2.2,6.9"/><path class="cls-19" d="M400.1,344.5s-4.2,2.9-2.9,9.6"/><path class="cls-20" d="M477.8,367.1l-27.2,1.6s3.1,1.5,4.2,7.3.1,8.3.1,8.3l19.9-3.6"/><path class="cls-21" d="M490.8,272.2c-.4-4.7-4-8.7,3.1-8.2s13.5,9.3,13.5,9.3-5,8.1-12.1,7.6S491.2,276.8,490.8,272.2Z"/><path class="cls-21" d="M524.4,274.4c-.4-4.6,2.5-8.2-4.6-8.7s-12.1,7.6-12.1,7.6,6.5,8.9,13.5,9.3S524.8,279.1,524.4,274.4Z"/><ellipse class="cls-22" cx="519.8" cy="279.1" rx="1" ry="1.1" transform="translate(0.5 559.2) rotate(-56.6)"/><ellipse class="cls-22" cx="515.3" cy="277.2" rx="1" ry="1.1" transform="translate(0.1 554.6) rotate(-56.6)"/><ellipse class="cls-22" cx="519.3" cy="273.1" rx="1" ry="1.1" transform="translate(5.3 556.1) rotate(-56.6)"/><path class="cls-22" d="M513.7,270.7a.9.9,0,0,1,1-.9,1.3,1.3,0,0,1,1.2,1.1.9.9,0,0,1-1,.9A1.3,1.3,0,0,1,513.7,270.7Z"/><ellipse class="cls-22" cx="518.9" cy="269.1" rx="1" ry="1.1" transform="translate(8.5 554) rotate(-56.6)"/><path class="cls-22" d="M512.1,276.6c0-.5-.6-1-1.1-1.1a1,1,0,0,0-.8.3l1.6,1.6A1.1,1.1,0,0,0,512.1,276.6Z"/><path class="cls-22" d="M515.6,279.8l-.6.2,1.7,1h0A1.3,1.3,0,0,0,515.6,279.8Z"/><path class="cls-22" d="M515.6,266.9h-.1l-1.5.8.6.2A.9.9,0,0,0,515.6,266.9Z"/><path class="cls-22" d="M510.6,271.5a.8.8,0,0,0,1-.9,1,1,0,0,0-.5-.8l-1.3,1.4A1.1,1.1,0,0,0,510.6,271.5Z"/><path class="cls-22" d="M522.8,277.3a1.3,1.3,0,0,0,1.2,1.1,1.1,1.1,0,0,0,.8-.3,8.3,8.3,0,0,1-.4-1.5l-.6-.2A.9.9,0,0,0,522.8,277.3Z"/><path class="cls-22" d="M524.1,280.4a.9.9,0,0,0-.9,1,1,1,0,0,0,.4.7,1.8,1.8,0,0,0,1.5-1.1A1.3,1.3,0,0,0,524.1,280.4Z"/><path class="cls-22" d="M523.3,270.4a.8.8,0,0,0-1,.9,1.4,1.4,0,0,0,1.2,1.1h.5c.1-.5.1-1,.2-1.5A1.8,1.8,0,0,0,523.3,270.4Z"/><path class="cls-22" d="M522,267.3a1.1,1.1,0,0,0,2,.7,2.7,2.7,0,0,0-1.7-1.4A.8.8,0,0,0,522,267.3Z"/><ellipse class="cls-22" cx="496.2" cy="277.5" rx="1" ry="1.1" transform="translate(-8.8 538.8) rotate(-56.6)"/><ellipse class="cls-22" cx="500.3" cy="275.8" rx="1" ry="1.1" transform="translate(-5.5 541.5) rotate(-56.6)"/><ellipse class="cls-22" cx="495.7" cy="271.5" rx="1" ry="1.1" transform="translate(-3.9 535.7) rotate(-56.6)"/><path class="cls-22" d="M500.9,269.9a1.2,1.2,0,0,0-1.2-1.1.8.8,0,0,0-.9.9,1.1,1.1,0,0,0,1.1,1.1A.9.9,0,0,0,500.9,269.9Z"/><ellipse class="cls-22" cx="495.4" cy="267.5" rx="1" ry="1.1" transform="matrix(0.55, -0.83, 0.83, 0.55, -0.74, 533.6)"/><path class="cls-22" d="M503.5,276a.9.9,0,0,1,1-.9,1.2,1.2,0,0,1,.8.4l-1.3,1.3A1.6,1.6,0,0,1,503.5,276Z"/><path class="cls-22" d="M500.6,278.8l.6.2a8,8,0,0,1-1.6.8h0A.9.9,0,0,1,500.6,278.8Z"/><path class="cls-22" d="M498.4,265.7h0a9.5,9.5,0,0,1,1.7,1h-.5A1.4,1.4,0,0,1,498.4,265.7Z"/><path class="cls-22" d="M504.2,271.1A1.4,1.4,0,0,1,503,270a.7.7,0,0,1,.4-.7,10.6,10.6,0,0,1,1.5,1.5A.8.8,0,0,1,504.2,271.1Z"/><path class="cls-22" d="M492.8,275.3a.8.8,0,0,1-.9.9,1,1,0,0,1-.9-.4c0-.4.1-.9.1-1.5h.6A1.3,1.3,0,0,1,492.8,275.3Z"/><path class="cls-22" d="M492,278.3a1.3,1.3,0,0,1,1.2,1,1.1,1.1,0,0,1-.3.8c-1-.4-1.5-.8-1.7-1.4A.6.6,0,0,1,492,278.3Z"/><path class="cls-22" d="M491.2,268.2a1.1,1.1,0,0,1,1.1,1.1.8.8,0,0,1-1,.9l-.5-.2a8.3,8.3,0,0,1-.4-1.5A1,1,0,0,1,491.2,268.2Z"/><path class="cls-22" d="M492,265.3a.9.9,0,0,1-1,.9,1.1,1.1,0,0,1-.9-.5q.1-.9,1.5-1.2A1.2,1.2,0,0,1,492,265.3Z"/><path class="cls-23" d="M519.1,276.1c.3-1.8-7.1-2-7.1-2S518.8,277.8,519.1,276.1Z"/><path class="cls-23" d="M517.2,271.8c-.5-1.3-5.6,1.1-5.6,1.1S517.6,273,517.2,271.8Z"/><path class="cls-23" d="M496.4,274.5c-.6-1.8,6.9-1,6.9-1S497,276.4,496.4,274.5Z"/><path class="cls-23" d="M497.6,270.4c.3-1.1,5.9,1.9,5.9,1.9S497.4,271.6,497.6,270.4Z"/><path class="cls-24" d="M510.7,272.3a2.2,2.2,0,0,0-2.1-1.9l-2.6-.2a1.5,1.5,0,0,0-1.7,1.7l.2,2.4a2.1,2.1,0,0,0,2,1.9l2.6.2a1.5,1.5,0,0,0,1.8-1.6Z"/><path class="cls-25" d="M474.3,339.3s-9,14.3,0,20.6c3.5,2.5,12.6,1.3,13.5-1.1s5.1-7.2,4.9-9.2S474.3,339.3,474.3,339.3Z"/><g id="face"><path class="cls-26" d="M488.8,350l-3.4,8.8L484,364s12.5,3.7,17.4-4l2.9-12.2Z"/><path class="cls-27" d="M486.7,356.1s13.4,1.1,15.4-1.1l1.1-3.8-14.5-.4Z"/><path class="cls-19" d="M497,285.3a25.1,25.1,0,0,0-17.3,15.5c-.4,1.3-.8,3.6-1.6,4.9-6.1,8.8-13.8,21.8-2.1,40.4,7.4,11.9,22.7,10.6,32.7,8.4a23.2,23.2,0,0,0,16.2-13.1s11.7,3,7-1.9-2.4.3-2.4.3l.3-2.3s-7.3-13-7.5-33.3c0,0-4.5-16.1-4-20.5a30,30,0,0,0-14.1,0Z"/></g><path class="cls-27" d="M506.2,285.1s-10.4,16.8,15.1,23.2c0,0-16.2-11.3-13.5-23.2"/><path class="cls-28" d="M520.3,281.5s-5-1.5.7,17.8l1.3,4.9a100,100,0,0,0,.8,11.1c.8,4.5,3.1,16.3,6.7,22.2l-.3,2.3s4.1-5,8.4-1.8-3.6.7-7.8,4.5-4.7,15.7-8.9,4.9c0,0-8.1,7.1-14.9,7.4l-4.1.6-.9,2.8s1.1,5.8,5.6,14.2c0,0,14.3,25.9,37.1,6.1,2.7-2.4,32.2-81.6.5-96.1,0,0-12-8.8-24.8-9.2s-16.9-7.2-31.6,3.5c0,0-15,14-10.8,28.5l7.1-12.3s7.1-7.3,22-9.7c0,0,9.1-.8,11.9.5C518.3,283.7,518.8,281.3,520.3,281.5Z"/><path class="cls-29" d="M520,273.2s17.2,3.6,22.2,14.7,3.4,22.2-6.4,49.7l1.9,2.6s28.5-49.1-4.1-63.7A55,55,0,0,0,520,273.2Z"/><path class="cls-28" d="M509.1,283s-12.9,21.3,17.2,25.9a25.6,25.6,0,0,1-8-25.2,38.9,38.9,0,0,0-5-.7"/><path class="cls-19" d="M528.8,335c3.6-2.3,6.2-1.7,8.1-.3s2.4,4.9-.3,8.9-4.8,5.8-9.4,6.7-6.9,1.3-9.1-2.8"/><path class="cls-30" d="M519.7,346.5a2.5,2.5,0,0,0,1.4.6h1.5a4.3,4.3,0,0,0,2.8-1.1,4.4,4.4,0,0,0,1.6-2.6,3.2,3.2,0,0,0-.1-1.7l1.1-.6,2.8-1.3a6.5,6.5,0,0,1,2.9-.7,1.7,1.7,0,0,1,1.3.7,1.2,1.2,0,0,1,.2,1.4,1.5,1.5,0,0,0,0-1.6,1.9,1.9,0,0,0-1.4-.9,5.9,5.9,0,0,0-3.2.6,24.4,24.4,0,0,0-2.8,1.4l-.9.7h-.2v.3a3.8,3.8,0,0,1-.1,1.5,5.5,5.5,0,0,1-1.5,2.4,4.6,4.6,0,0,1-2.5,1h-1.5A2.4,2.4,0,0,1,519.7,346.5Zm8.3.9-3.2.3a17.1,17.1,0,0,0,3.2.1,5.8,5.8,0,0,0,3.1-1.1,5,5,0,0,0,2-2.7,17,17,0,0,0,.6-3.1c-.3,1-.6,2-1,3a5,5,0,0,1-1.9,2.4A5.7,5.7,0,0,1,528,347.4Z"/><path class="cls-31" d="M523.8,348.5s-5.8,4.3-2.9,7.1,5.2-4.3,5.2-4.3-3.7,5.1-3,1.1Z"/><ellipse class="cls-32" cx="486.6" cy="308.9" rx="6.9" ry="6.3" transform="translate(120.5 754.2) rotate(-83)"/><ellipse class="cls-33" cx="486" cy="307.5" rx="4" ry="3.8" transform="translate(127.6 757.2) rotate(-83.8)"/><ellipse class="cls-34" cx="487.4" cy="304.4" rx="0.8" ry="0.8" transform="translate(132 755.9) rotate(-83.8)"/><ellipse class="cls-32" cx="507.6" cy="320.2" rx="6.9" ry="6.7" transform="translate(134.3 790.1) rotate(-83.8)"/><ellipse class="cls-33" cx="506.4" cy="318.9" rx="4.3" ry="4.2" transform="translate(134.5 787.7) rotate(-83.8)"/><ellipse class="cls-34" cx="508" cy="315.5" rx="0.8" ry="0.8" transform="translate(139.3 786.4) rotate(-83.8)"/><path class="cls-35" d="M494.6,298a8.1,8.1,0,0,0-9.8-.3s.4-2.9,5.9-3.4C490.7,294.3,494.5,294.4,494.6,298Z"/><path class="cls-35" d="M511.9,307.3a7.5,7.5,0,0,1,6.5,7s2-2.3-1.1-6.7C517.3,307.6,514.7,304.9,511.9,307.3Z"/><path class="cls-36" d="M498.7,334.1s-8.1,7-14.4,5.3c-8.6-2.2-5-13.7-5-13.7l7.6,5.7Z"/><path class="cls-37" d="M498.7,334.1s-8.4,5.5-15,2.6c-4.8-2-4.3-11.4-4.3-11.4S485.5,333.3,498.7,334.1Z"/><path class="cls-19" d="M492.3,313.5s-.7,3.1-5.2,4.5-3.4,7.4,3.3,6.5"/><path class="cls-34" d="M481,327.1h0c-.6,2.2-.1,4.8,3.6,6.6s8.9,2.8,12.3.7c1-.6-.5-.4-.5-.4s-11.9-2.5-15-6.6"/><path class="cls-38" d="M498,334.2s-14.9-3.2-19.6-10.9C478.4,323.3,480.7,333.8,498,334.2Z"/><path class="cls-27" d="M499.1,332.5s3.1,1.1.4,3.6A2.8,2.8,0,0,0,499.1,332.5Z"/><path class="cls-27" d="M479.7,322.6s-1.7.3-1.3,3.2C478.4,325.8,476.7,322.7,479.7,322.6Z"/><path class="cls-27" d="M489.2,337.4s-.6-1.8-3.8-2.2a4.7,4.7,0,0,0-4.4-1.6S481.9,338.1,489.2,337.4Z"/><path class="cls-26" d="M461.9,480.3s7,32.4,8.9,35.2,9.7,6.6,15,6c0,0-3.8-33.3-6.1-38.5S461.9,480.3,461.9,480.3Z"/><path class="cls-26" d="M485.8,484.1s6.8,29.1,7.8,33.2,13.5,6.4,18.1,5c0,0-7.5-35.2-9.7-39.1S485.8,484.1,485.8,484.1Z"/><path class="cls-27" d="M486,484.7l8.6,1.9a30.5,30.5,0,0,0,9,.3s-.4-2.6-1.1-3.1-17.3-2.4-17.3-2.4Z"/><path class="cls-27" d="M462.6,482.9l8.6,1.9a30.5,30.5,0,0,0,9,.3s-.4-2.6-1.1-3.1-17.2-2.3-17.2-2.3Z"/><path class="cls-39" d="M450.5,422.4l-25.9,39.8s-1.4,13.1,51.3,20.8,49.9-19.8,49.9-19.8-23.6-24.8-24.7-33.1c0,0-43.7-1.3-50.6-7.7"/><path class="cls-20" d="M485.8,357.2l-3.1.4a27.6,27.6,0,0,0-16.6,9.9H466l.7,1.6-5.3,9.4s-7.6,14.7-12.1,42.9c0,0,13.3,10.6,52.3,4.7,0,0,5.6-18.6,6.7-22.8s11-32.7-3.4-43.2l-3.1-1.9s0,6.6-11,6.6c-8.5,0-6-5.3-6-5.3Z"/><line class="cls-40" x1="461.4" y1="378.6" x2="474.3" y2="374.6"/><polygon class="cls-41" points="456.3 428 444.4 452.6 457.8 428.7 456.3 428"/><polygon class="cls-41" points="470.9 430.5 464.1 458.2 472.4 430.8 470.9 430.5"/><polygon class="cls-41" points="480.7 431.4 479.5 460.8 481.9 431.5 480.7 431.4"/><path class="cls-41" d="M490.6,431.7,501,461.3s-8.3-27.9-8.1-29.6Z"/><path class="cls-42" d="M475.1,372.5a4.1,4.1,0,0,1,.5,2.8"/><path class="cls-42" d="M445.3,342.3a8.1,8.1,0,0,0,5.8-.7"/><path class="cls-43" d="M449.1,417.6s13.2,11.8,53.5,6l-1.7,7.1s-32.9,8-51.9-5.8A8.1,8.1,0,0,1,449.1,417.6Z"/><path class="cls-44" d="M467.4,504.1a23.2,23.2,0,0,0,16.1-1.4l2.6,18.9s-12.2,1.3-14.7-2.5Z"/><path class="cls-45" d="M462.7,521.3s.5-5.7,5.9-5.4,9.3-1.3,11.2,1.6-.2,4.5,6.3,2.8V518s3.3-1,4,1.1.9,6.5,2,8.7,1.3,3.5,0,4-21,10.9-38.5,4.5C453.5,536.3,443.1,523.3,462.7,521.3Z"/><path class="cls-45" d="M458.4,522s8.8-1.1,12.3,6.9a10.6,10.6,0,0,1,1.1,4.3"/><path class="cls-46" d="M492.3,528.4s-13.9,6.1-19.8,7.2-20-.8-20.4-1.6,1.4,2.3,1.4,2.3a39.9,39.9,0,0,0,18.6,1.6,66.4,66.4,0,0,0,19.9-6.1S494,531.2,492.3,528.4Z"/><path class="cls-46" d="M462.7,521.3s7.3-.8,9.1,3.5-3.1.9-3.1.9-2.6-4.2-9.2-3.7C459.5,522,459.9,520.6,462.7,521.3Z"/><path class="cls-46" d="M463.2,519.4s6.4-1,8.2,2.1,0,2.5,0,2.5-1.9-3.1-8.7-2.7Z"/><path class="cls-44" d="M466.3,499.5s11.7,2.3,16.4-1l.6,2.9s-11.5,2.3-16.4.8Z"/><path class="cls-44" d="M491,506.4a24.9,24.9,0,0,0,16.8-1.3l4.5,18.5s-15,1.1-17.6-2.7Z"/><path class="cls-45" d="M488.2,523.3s.5-5.7,5.9-5.4,9.3-1.3,11.2,1.6-.1,4.5,6.3,2.8V520s3.3-1,4,1.1,1,6.5,2,8.7,1.3,3.5,0,4-21,10.9-38.4,4.5C479.1,538.3,468.7,525.4,488.2,523.3Z"/><path class="cls-45" d="M484,524s8.8-1.1,12.3,6.9a11.6,11.6,0,0,1,1,4.3"/><path class="cls-46" d="M517.8,530.4s-13.9,6.1-19.8,7.2-20-.8-20.4-1.6a23.2,23.2,0,0,1,1.5,2.3,39.6,39.6,0,0,0,18.6,1.6,66.4,66.4,0,0,0,19.8-6.1S519.5,533.2,517.8,530.4Z"/><path class="cls-46" d="M488.2,523.3s7.3-.8,9.1,3.5-3,.9-3,.9-2.7-4.2-9.3-3.7C485,524,485.5,522.6,488.2,523.3Z"/><path class="cls-46" d="M488.7,521.4s6.4-1,8.2,2.1,0,2.5,0,2.5-1.9-3.1-8.7-2.7Z"/><path class="cls-44" d="M489.9,501.7s12.1,2.3,17-.9l.7,2.9s-12,2.3-17,.8Z"/><path class="cls-47" d="M456.8,395.3a2.9,2.9,0,0,0-.2.9,6.4,6.4,0,0,0,.3,2c.5.9,2.5,2.1,3.4,1.1-1.1,1.2-1.9,1.5-2.3,3.4a10.9,10.9,0,0,0-.1,1.8c0,.3.1.6.1.9a5.8,5.8,0,0,0,.5,1.4l.6.8.4.3c1.8,1.2,4.6-.9,5.7-4a4.6,4.6,0,0,0,.7,2.6,3.2,3.2,0,0,0,2.2,1.6h.9l.7-.2a4.7,4.7,0,0,0,1.8-1.9h0l.3-.6c0-.1.1-.1.1-.2,1.2-2.7.7-5.8-1.4-6.3,1.7-.8,3.5-2.1,3.9-3.9a1.9,1.9,0,0,0,.1-.8,5.4,5.4,0,0,0-.4-2l-.3-.6-.6-.6c-1-.8-2.6-.4-3.8,1.1a7.4,7.4,0,0,0,.5-5.8,2.5,2.5,0,0,0-1.1-1.2l-.8-.3h0a2.8,2.8,0,0,0-2,.1.7.7,0,0,0-.6.3l-.4.2c-2.4,1.8-2.1,5.4-1.8,8-.9-2-3.4-2.4-5.2-.6l-.5.8h-.1A4.4,4.4,0,0,0,456.8,395.3Z"/><path class="cls-48" d="M462.2,399.4c-.4-2.4.7-5.5,3.2-6.5s4.1.9,4,3.9-1.8,5.5-3.9,5.7S462.5,401.2,462.2,399.4Z"/><path class="cls-49" d="M462.8,399.1c-.4-2,.5-4.7,2.6-5.5s3.5.8,3.4,3.3-1.5,4.7-3.3,4.9S463,400.7,462.8,399.1Z"/><path class="cls-50" d="M363.6,336.8h0c0-.1-.1-.1-.1-.2a1.7,1.7,0,0,0-.2-.5,5.6,5.6,0,0,1-.5-.8l-.8-.9-1-1-1-1.1-.3-.7-.2-.3v-.4a2.1,2.1,0,0,1,.3-1.5l.8-1.3.2-.2v-.2c.1-.1.2-.2.2-.3a3,3,0,0,0,.4-.8,4.4,4.4,0,0,0,.5-1.5,7.1,7.1,0,0,0,.1-1.4,4.1,4.1,0,0,0-.1-1.2,6.4,6.4,0,0,0-.2-.9c-.1-.3-.2-.4-.2-.6h-.2v.2c.1.1.1.3.2.5s.1.6.1.9a4.8,4.8,0,0,1,0,1.2,6.2,6.2,0,0,1-.1,1.3,14.7,14.7,0,0,1-.6,1.4,2.1,2.1,0,0,1-.4.6.5.5,0,0,1-.2.4h-.1v.2a4,4,0,0,0-1,1.5,1.1,1.1,0,0,0-.3.8,1.1,1.1,0,0,0-.1.5v.5c0,.2.1.3.1.5s.1.3.2.4a.8.8,0,0,0,.2.4l.2.3,1.1,1.2,1.1.9a6,6,0,0,0,.8.8l.5.7.4.5v.2h.1Z"/><path class="cls-51" d="M361.3,320.7a.3.3,0,0,0,.1.2,3.9,3.9,0,0,0,.2.6l.4.8.3,1.2.3,1.4v1.6c-.1.2-.1.5-.2.8l-.2.3h0a.3.3,0,0,0-.1.2l-1,1.5-1.2,1.3a7.8,7.8,0,0,0-1,1.5,10.1,10.1,0,0,0-.7,1.5c-.1.6-.1,1.1-.2,1.5a5.3,5.3,0,0,0,.1,1.3c0,.4.1.7.1,1a.4.4,0,0,0,.1.3v.5h.1v-.3a3.5,3.5,0,0,1-.1-.6v-.9a4.9,4.9,0,0,1,.1-1.2,6.8,6.8,0,0,1,.2-1.4,6.1,6.1,0,0,1,.7-1.4l1-1.4,1.2-1.3.6-.8a5.6,5.6,0,0,0,.5-.8c0-.1,0-.1.1-.2h.1c0-.2.1-.3.1-.5s.1-.6.2-.9a9.7,9.7,0,0,0-.1-1.7,5.8,5.8,0,0,0-.3-1.4,7.3,7.3,0,0,0-.5-1.2l-.5-.9-.3-.5v-.2h-.1C361.2,320.7,361.2,320.7,361.3,320.7Z"/><path class="cls-52" d="M361.3,320.6h0c0,.1.1.1.1.2v.6a4.4,4.4,0,0,1-.2,1,6.1,6.1,0,0,1-.5,1.2l-.9,1.2-.6.7a2.2,2.2,0,0,0-.5.8,3,3,0,0,0-.4,1,3.4,3.4,0,0,0,.1,1,1.7,1.7,0,0,0,.3,1,1.9,1.9,0,0,0,.5.9l1.2,1.6a3.5,3.5,0,0,1,.5.8l.3.3v.2h.2a.3.3,0,0,0,.1.2v.5c0,.2.1.5.1.8a3.7,3.7,0,0,1-.4,1.4,3.9,3.9,0,0,1-.8,1l-.7.8-.4.5-.2.2h.3l.5-.5.8-.7a4.5,4.5,0,0,0,.9-1l.3-.8a1.9,1.9,0,0,0,.2-.8,3.8,3.8,0,0,0-.1-1v-.2c0-.1,0-.1-.1-.2v-.4h-.1v-.2c-.1-.2-.2-.3-.2-.5l-.6-.8-1.2-1.5a6.1,6.1,0,0,1-.7-1.7,1.1,1.1,0,0,1,0-.8,1.9,1.9,0,0,1,.2-.8l.4-.8.6-.6.5-.7a2.5,2.5,0,0,1,.4-.7,1.9,1.9,0,0,0,.2-.7,1.4,1.4,0,0,0,.2-.6,4.5,4.5,0,0,0,.1-1.1c0-.3,0-.5-.1-.6a.4.4,0,0,0-.1-.3h0c-.1,0-.1,0-.1.1Z"/><path class="cls-53" d="M457.1,317.6l.2.6a10.2,10.2,0,0,1,.4,1.5,4.3,4.3,0,0,1,.2,1.1v1.1a1.3,1.3,0,0,1-.1.6c-.1.2-.1.4-.2.6a6.5,6.5,0,0,0-.4,1.3,7.7,7.7,0,0,0-.2,1.5,3.3,3.3,0,0,0,.1,1.4,5,5,0,0,0,.5,1.3,2.4,2.4,0,0,0,.8.9,1.9,1.9,0,0,0,.7.6l.6.4.6.4-.4-.5-1.1-1.3-.5-.9-.3-1V326l.3-1.3.3-1.3a1.4,1.4,0,0,0,.2-.7,1.7,1.7,0,0,0,.1-.7,6.8,6.8,0,0,0-.2-1.4,4.9,4.9,0,0,0-.4-1.1l-.4-.8a1.5,1.5,0,0,0-.4-.6A1.1,1.1,0,0,0,457.1,317.6Z"/><path class="cls-50" d="M457,317.7l.8.5.7.7a4.4,4.4,0,0,1,.8,1.1,3.3,3.3,0,0,1,.4,1.4,2.4,2.4,0,0,1-.3,1.6,6,6,0,0,1-.9,1.5l-.3.3-.4.4-.7.8-.6.8a5.3,5.3,0,0,0-.6,1,3.6,3.6,0,0,0-.4.9c-.1.2-.1.4-.2.5a4.3,4.3,0,0,1-.1.5c0,.4-.1.7-.1,1.1v.9a.9.9,0,0,0,.1.5.6.6,0,0,0,.1.4l.3.8a1.6,1.6,0,0,0,.4.7,1,1,0,0,0,.4.5,1,1,0,0,0,.4.5l.3.4.4.2.2.2h.2c.1.1.1,0,.2,0H458l-.2-.2-.3-.3-.3-.4-.3-.5-.3-.5a6.4,6.4,0,0,1-.2-.7,1.4,1.4,0,0,1-.2-.7v-.8c-.1-.1-.1-.2-.1-.4v-.8c0-.2.1-.3.1-.4s.1-.3.1-.5.1-.3.2-.4a.8.8,0,0,1,.2-.4.5.5,0,0,1,.2-.4,2.2,2.2,0,0,1,.5-.8,3.5,3.5,0,0,1,.5-.8,2.7,2.7,0,0,0,.7-.8l.4-.3.3-.4a7.2,7.2,0,0,0,1.1-1.9,4.6,4.6,0,0,0,.2-2,1.6,1.6,0,0,0-.3-.9,2,2,0,0,0-.4-.8l-1-1.1a2.4,2.4,0,0,0-.9-.6l-.6-.3h-.3c0-.1-.1,0-.1,0Z"/><path class="cls-51" d="M457,317.7h.2l.4.4a7.9,7.9,0,0,1,.4.9,3.7,3.7,0,0,1,.1,1.1,7.8,7.8,0,0,1-.2,1.4,14.7,14.7,0,0,1-.6,1.4l-.4.8-.5.7a10.8,10.8,0,0,0-.8,1.9,6.6,6.6,0,0,0-.1,2,4.2,4.2,0,0,0,.6,1.9,7.6,7.6,0,0,0,1.1,1.4l1.3.9a6.4,6.4,0,0,0,2.2.9h.8a.1.1,0,0,0,.1-.1h-.3l-.5-.2-1.9-1.1-1-1a3.4,3.4,0,0,1-.9-1.2,4.4,4.4,0,0,1-.5-1.5,5,5,0,0,1,.2-1.7,10.1,10.1,0,0,1,.7-1.5,11.9,11.9,0,0,0,.8-1.6,7,7,0,0,0,.6-1.7,9.2,9.2,0,0,0,.1-1.6,5.7,5.7,0,0,0-.4-1.4l-.6-.8-.5-.4h-.3c0-.1-.1,0-.1,0Z"/><path class="cls-54" d="M418.4,426.7v-.2c-.1-.1-.1-.2-.2-.5l-.9-1.8a18.6,18.6,0,0,0-1.7-2.6,32.9,32.9,0,0,0-2.6-3.1l-3.2-3.3a23.7,23.7,0,0,1-3.3-3.8,9.8,9.8,0,0,1-1.3-2.2,5.6,5.6,0,0,1-.4-1.2,5,5,0,0,1-.2-1.2,9,9,0,0,1,1-5,21.3,21.3,0,0,1,2.9-4.7l.4-.5.4-.6.9-1.2c.5-.9.9-1.7,1.3-2.6a20,20,0,0,0,1.6-5.1,20.3,20.3,0,0,0,.4-4.8,22.5,22.5,0,0,0-.4-4c-.2-1.2-.5-2.2-.7-3a16.7,16.7,0,0,0-.7-1.9,1.7,1.7,0,0,1-.2-.5v-.2h-.3a.4.4,0,0,0-.1.3h0v.2c.1.1.1.3.2.5l.5,1.8c.1.9.3,1.9.4,3a24.7,24.7,0,0,1,.1,3.9,17.2,17.2,0,0,1-.6,4.4,20.4,20.4,0,0,1-1.7,4.7,17.6,17.6,0,0,1-1.4,2.3l-.7,1.1-.5.5-.4.6a25.5,25.5,0,0,0-3.3,5,14.5,14.5,0,0,0-1.1,2.9c-.1.6-.1,1.1-.2,1.6a8.1,8.1,0,0,0,.1,1.6,4.1,4.1,0,0,0,.3,1.6,8.8,8.8,0,0,0,.5,1.5l.7,1.3.9,1.2a23,23,0,0,0,3.7,3.9l3.4,3.1a36.9,36.9,0,0,1,2.8,2.8,17.7,17.7,0,0,1,1.9,2.3,9.3,9.3,0,0,1,1.1,1.6l.3.6h.3C418.4,426.9,418.5,426.8,418.4,426.7Z"/><path class="cls-51" d="M410.6,372.4l.3.6.9,1.9a28.5,28.5,0,0,1,1.2,2.9,35.9,35.9,0,0,1,1.2,3.9,35.5,35.5,0,0,1,.9,4.7c0,.9.1,1.8.1,2.6a24.5,24.5,0,0,1-.2,2.7l-.6,2.7a6.9,6.9,0,0,1-.5,1.3v.7l-.3.6a21.7,21.7,0,0,1-3.2,4.9l-4,4.5a28.7,28.7,0,0,0-3.7,4.9,23.4,23.4,0,0,0-2.8,10.4c0,1.6,0,3,.1,4.3s.3,2.3.5,3.2a5,5,0,0,0,.2,1.2,1.9,1.9,0,0,0,.2.8,4.5,4.5,0,0,1,.1.8.2.2,0,0,0,.3.1c.1,0,.2-.1.1-.2h0v-.7c-.1-.5-.1-1.2-.2-2.1s-.1-2-.1-3.2.1-2.6.2-4.1a28.3,28.3,0,0,1,1-4.7,16.7,16.7,0,0,1,2.1-4.8,36.4,36.4,0,0,1,3.5-4.5q2.1-2.1,4.2-4.5c.7-.8,1.3-1.7,1.9-2.5s1.1-1.9,1.6-2.8l.3-.8.2-.3v-.4l.5-1.5a15.9,15.9,0,0,0,.6-3,27.9,27.9,0,0,0-.1-5.8,31.9,31.9,0,0,0-1.2-4.9c-.6-1.5-1.1-2.8-1.7-4a17.4,17.4,0,0,0-1.6-2.8,11.8,11.8,0,0,0-1.1-1.8l-.5-.6a.2.2,0,0,0-.3.3Z"/><path class="cls-52" d="M410.8,371.8h.1v.6a12.8,12.8,0,0,1,.1,2.2,29.7,29.7,0,0,1-.6,3.3,22.7,22.7,0,0,1-1.8,4,27.3,27.3,0,0,1-3,4.2,23,23,0,0,0-2,2.2,12.7,12.7,0,0,0-1.8,2.7,11.5,11.5,0,0,0-1,3.3,10.9,10.9,0,0,0,0,3.6,13.5,13.5,0,0,0,1.1,3.4c.5,1,1.1,2,1.7,3s2.7,3.6,4,5.3,1.3,1.7,1.9,2.5l.7,1.3a1.6,1.6,0,0,1,.4.7h0v.6l.2.3v.3a2.5,2.5,0,0,1,.2.7,2.5,2.5,0,0,1,.2.7c.1.2.1.5.2.7a12.4,12.4,0,0,1,.3,2.7,11.7,11.7,0,0,1-1.3,4.7,20.9,20.9,0,0,1-2.6,3.6l-2.3,2.6-1.5,1.7-.5.6a.2.2,0,0,0,0,.3h.3l.6-.6,1.7-1.5,2.6-2.3a22.7,22.7,0,0,0,2.9-3.6,11.5,11.5,0,0,0,1.2-2.5,7.2,7.2,0,0,0,.6-2.9,17.1,17.1,0,0,0-.1-3.2l-.2-.7c-.1-.3-.1-.6-.2-.8a2.4,2.4,0,0,1-.2-.8l-.2-.4v-.9h-.1l-.3-.8a10.9,10.9,0,0,1-.8-1.5l-2-2.7c-1.3-1.8-2.7-3.5-3.9-5.3a17,17,0,0,1-2.5-5.5,9.4,9.4,0,0,1-.1-2.9,14.3,14.3,0,0,1,.9-2.7,13.8,13.8,0,0,1,1.4-2.4l1.8-2.3c.6-.8,1.2-1.5,1.7-2.3l1.3-2.3c.4-.8.7-1.6,1-2.3s.4-1.5.5-2.1a17.1,17.1,0,0,0,.4-3.6c-.1-1-.2-1.8-.3-2.3l-.3-.8c0-.1-.1-.2-.3-.1s-.1.1-.1.2Z"/><polygon class="cls-55" points="360.7 321.1 411 367.8 457.8 317.5 407.5 270.8 360.7 321.1"/><g class="cls-56"><path class="cls-57" d="M425.5,294.7a38.1,38.1,0,0,1-15.7,32.1l-.7.5a38.6,38.6,0,0,1-38.5,2.9l-9.9-9.3,46.9-50.1,16.7,15.6A38.7,38.7,0,0,1,425.5,294.7Z"/></g><path class="cls-58" d="M408.9,319.5l.3,7.3c.1,3.6.2,7.2.4,10.6.2,5.7.4,11,.6,15.5s.4,8.4.5,11.1.2,3,.2,3.7v.4h.3v-.4a35.6,35.6,0,0,1-.1-3.8c-.1-2.6-.2-6.4-.3-11s-.4-9.9-.5-15.6c-.2-3.2-.3-6.6-.4-10l-.3-7.8c-.2-6.1-.4-12.2-.7-17.9s-.4-11-.6-15.6-.4-8.4-.5-11-.2-3.6-.2-4v-.2l-.2.2a32.7,32.7,0,0,1,.1,4c.1,2.7.2,6.5.4,11s.3,9.9.5,15.6S408.7,313.4,408.9,319.5Z"/><path class="cls-59" d="M360.7,321.1l.7.6a87.5,87.5,0,0,1,95.7-3.4l.7-.8L455,315a89.6,89.6,0,0,0-91.6,3.2Z"/><polygon class="cls-55" points="420.1 373.8 411 366.7 402.3 374.4 420.1 373.8"/><path class="cls-19" d="M487.1,367.8l-12.3.2s-15-22.4-17.8-25.8l-6.9,5.6s4.2,20.7,16.2,35.4c0,0,13.2,3.7,25,.2"/><path class="cls-20" d="M504.4,367l-20.5.6s3.9,1,4.3,10.7c.2,5.5-3,7.3-3,7.3h20.7"/><path class="cls-19" d="M458.2,343.9s-5.9-10.5-11.8-14.1a16,16,0,0,0-2.7,2.9,16.6,16.6,0,0,1-8.8-.4c-5.2-1.4-9.7-4.3-11.5-7.1,0,0-1.4-.7-.7,2,0,0-.3,2.2,2.2,5.2s.5.5.5.5-.6,2.1,2.4,5l1.7,1.7-1.8-.5s-1.6,0,0,1.8a12.7,12.7,0,0,0,8.8,4.7c4.4.3,11.6.2,11.6.2s3.2,4.9,3.5,7.5"/><path class="cls-60" d="M422.6,327a14.9,14.9,0,0,0,8.3,7.1c6.2,2.3,8.3,1.8,8.3,1.8"/><path class="cls-61" d="M422.7,327a15.2,15.2,0,0,0,7,6.6,26,26,0,0,0,4.7,1.6,21,21,0,0,0,2.4.6,9.7,9.7,0,0,0,2.4.1,9.7,9.7,0,0,1-2.4-.1l-2.4-.5a26,26,0,0,1-4.7-1.6,18.8,18.8,0,0,1-4.2-2.7,12.7,12.7,0,0,1-3-3.9Z"/><path class="cls-60" d="M425.5,333.2s4,4.8,8.5,6.1l3.3.2"/><path class="cls-61" d="M425.6,333.1a25.8,25.8,0,0,0,3.8,3.6,13.8,13.8,0,0,0,4.6,2.5h0l3.3.3-3.3-.2h0a16.1,16.1,0,0,1-4.7-2.4,33.3,33.3,0,0,1-3.9-3.6Z"/><path class="cls-60" d="M429.3,339.5s2.7,3.1,6.1,3.4"/><path class="cls-61" d="M429.3,339.4a15.6,15.6,0,0,0,2.8,2.3,9.3,9.3,0,0,0,3.3,1.2,8.5,8.5,0,0,1-3.4-1.1,12.3,12.3,0,0,1-2.8-2.3Z"/><path class="cls-60" d="M474.8,368s2.8,1.8,1.2,8.5"/><path class="cls-61" d="M474.8,367.9a4.1,4.1,0,0,1,1.3,1.9,5.9,5.9,0,0,1,.4,2.3,8.1,8.1,0,0,1-.1,2.2,14.3,14.3,0,0,1-.4,2.2,14.3,14.3,0,0,0,.4-2.2,16.2,16.2,0,0,0,0-2.2,5.4,5.4,0,0,0-.5-2.2,3.2,3.2,0,0,0-1.2-1.8Z"/><ellipse class="cls-1" cx="353.8" cy="303.8" rx="291.7" ry="291.3"/></g><g id="_001" data-name="001"><path class="cls-62" d="M271.6,466.1s-7.7,35.4-9.7,38.4-10.6,7.2-16.3,6.5c0,0,4.1-36.3,6.6-42S271.6,466.1,271.6,466.1Z"/><path class="cls-62" d="M245.6,470.3,237,506.5c-1.2,4.5-14.7,6.9-19.7,5.4,0,0,8.2-38.4,10.6-42.6S245.6,470.3,245.6,470.3Z"/><path class="cls-27" d="M227.3,469.9c1.1-.8,18.8-2.6,18.8-2.6l-.8,3.6-9.4,2.1"/><path class="cls-63" d="M265.6,492.1a25.8,25.8,0,0,1-17.6-1.5l-2.8,20.6s13.3,1.3,16.1-2.8Z"/><path class="cls-64" d="M270.7,510.8s-.6-6.2-6.4-5.8-10.1-1.5-12.2,1.7.2,4.9-6.9,3v-2.5s-3.6-1.1-4.4,1.3-1,7-2.1,9.4-1.5,3.8,0,4.4,22.9,11.9,41.9,4.9C280.7,527.2,292.1,513.1,270.7,510.8Z"/><path class="cls-64" d="M275.4,511.6s-9.6-1.2-13.5,7.5a14.4,14.4,0,0,0-1.1,4.7"/><path class="cls-65" d="M238.5,518.6s15.1,6.6,21.5,7.8,21.9-.9,22.3-1.8-1.6,2.6-1.6,2.6-8.4,3.3-20.3,1.8a74,74,0,0,1-21.6-6.7S236.6,521.6,238.5,518.6Z"/><path class="cls-66" d="M270.7,510.8s-7.9-.9-9.9,3.8,3.3,1.1,3.3,1.1,2.9-4.7,10.1-4.2C274.2,511.5,273.7,510,270.7,510.8Z"/><path class="cls-66" d="M270.2,508.7s-7-1-8.9,2.3,0,2.7,0,2.7,2-3.3,9.4-2.9Z"/><path class="cls-67" d="M266.8,487s-12.8,2.5-17.9-1.1l-.7,3.3s12.6,2.4,17.9.8Z"/><path class="cls-63" d="M239.8,494.6a27,27,0,0,1-18.3-1.5l-4.9,20.3s16.3,1.1,19.3-3Z"/><path class="cls-64" d="M242.9,513s-.6-6.2-6.4-5.8-10.1-1.5-12.3,1.6.2,5-6.9,3.1l.2-2.5s-3.6-1.1-4.4,1.2-1,7.1-2.1,9.5-1.5,3.8,0,4.3,22.9,11.9,41.9,5C252.9,529.4,264.2,515.2,242.9,513Z"/><path class="cls-64" d="M247.5,513.8s-9.6-1.3-13.4,7.5a13,13,0,0,0-1.2,4.7"/><path class="cls-65" d="M210.6,520.7s15.2,6.7,21.6,7.9,21.9-.9,22.3-1.8-1.6,2.6-1.6,2.6a45.3,45.3,0,0,1-20.3,1.8,71.2,71.2,0,0,1-21.6-6.8S208.7,523.8,210.6,520.7Z"/><path class="cls-66" d="M242.9,513s-8-.9-10,3.8,3.4,1.1,3.4,1.1,2.9-4.7,10.1-4.2C246.4,513.7,245.9,512.2,242.9,513Z"/><path class="cls-66" d="M242.3,510.9s-7-1-8.9,2.3,0,2.7,0,2.7,2.1-3.4,9.5-2.9Z"/><path class="cls-67" d="M241,489.5s-13.2,2.5-18.5-1.1l-.7,3.2s13.1,2.5,18.5.9Z"/><path class="cls-68" d="M273.1,456.6c-.1,1.6-.3,3.4-.5,5.5s-1.8,6.4-2.4,9.7a47.4,47.4,0,0,1-8.4.5c-2.1-.2-5.8-.5-8.3-2.3l.9-11,4.4-3.9a20.7,20.7,0,0,1,6.4-.6A20.2,20.2,0,0,1,273.1,456.6Z"/><path class="cls-68" d="M251.6,468.7c-.7,2-6-.5-7.4,7.3a44.1,44.1,0,0,1-13-2,21.7,21.7,0,0,1-4.4-2.1,58.9,58.9,0,0,0,.5-6.6S260.9,439.6,251.6,468.7Z"/><polygon class="cls-69" points="278.7 427.1 276.3 437.2 276.3 437.3 276.3 444.6 276.2 456.9 276.2 461.3 272.7 461.2 255.5 460.6 254.3 460.5 253.2 460.5 250.3 460.4 250.4 457.5 250.4 457.1 250.5 455.2 250.7 450 250.7 448.5 251 439.1 251.2 434.1 251.3 432.6 251.9 415.8 278.7 427.1"/><path class="cls-70" d="M249.7,457.4c3.6.7,20.4,3.5,26.6-.6a.7.7,0,0,1,1.1.6l-.6,8c0,.3-.2.6-.4.6-2.7.9-17.2,5.1-28-1.4a.7.7,0,0,1-.4-.7l.9-5.9C249,457.6,249.3,457.3,249.7,457.4Z"/><path class="cls-69" d="M272.4,438.1l-7.9,8.1-3.2,3.1-3.8,3.6-1.1,4.2v.2l-.3,1.1-.6,2.2-.3,1.2-1.1,4.1h-.3l-.7.2-.8.2h-.1c-6.7,1.5-17.8-.7-23.5-2.1l-3.9-1V438l.9-12.1,25.6,6.7,5.9,1.5,13.6,3.6Z"/><path class="cls-71" d="M225.1,458.4c4.6,1.7,18.1,6.2,29.2,3.3a1.3,1.3,0,0,1,1.6,1.5l-1.1,6.8a1.3,1.3,0,0,1-.9,1c-3.6,1-19,4.6-30.5-4.8a1.3,1.3,0,0,1-.5-1.1l.5-5.6A1.2,1.2,0,0,1,225.1,458.4Z"/><path class="cls-72" d="M276.3,437.2h0v7.3a54.2,54.2,0,0,1-15,4.7,64.3,64.3,0,0,1-10.6.7,76.9,76.9,0,0,1-25.9-4.8v-6.7c5.8,1.2,16.2,1.1,26.2.6,7.5-.4,14.7-1,19.8-1.4Z"/><path class="cls-73" d="M301.2,370.4s-.8,7.9-12.7,8a41.4,41.4,0,0,1-10.9-1.6c-9.8-2.5.9-18.2.9-18.2h8.6l10.1.8S308.3,362.3,301.2,370.4Z"/><path class="cls-74" d="M287.1,358.7c1.3,3.9,2.6,10.4,1.3,19.5a39.3,39.3,0,0,1-10.8-1.4c-9.8-2.5.9-18.2.9-18.2Z"/><path class="cls-73" d="M293,377.7c12.9-3.2,26.1-12.1,35.5-30l-4.8-5.2c-1,0-22.8,15-27.8,16.8"/><path class="cls-73" d="M328.7,334.8s6.3-8.3,12-5.3c3.8,1.9,2.7,2.6.5,5.3,0,0,4.3,2.8,1.5,5.8,0,0,3.9,3.2.6,4.8,0,0,1.8,1.6-1,3s-15.8,3.7-17.8,3.1"/><path class="cls-73" d="M320.5,345.4a15.3,15.3,0,0,1,3.6-11.4c4.2-4.7,6.3-1.9,8.4-1.5s6,1,1.5,3.2-4.2-.7-5.1,4.5-1.9,4.6-3,5.8"/><path class="cls-75" d="M341.2,334.8c-8.5,4.9-9.2,1.7-9.2,1.7"/><path class="cls-75" d="M333.4,332.8c2.7-1.9,4.1-1.5,4.1-1.5"/><path class="cls-76" d="M342.7,340.6s-5.5,2.3-7.8,1.1-3.8-4.2-1.2-4.2"/><path class="cls-76" d="M343.5,345.1s-5.5,2.2-7.8,1.1-3.8-4.3-1.2-4.3"/><path class="cls-76" d="M343.3,348.2s-5.5,2.2-7.8,1.1-3.8-4.2-1.2-4.3"/><path class="cls-77" d="M257,353.8c-5.1-.2,10.3,1.7,21.7,2h2.2s6.4,15.7,1.8,27.2h-1.9c-4.6,0-17.5-.7-35.2-6.1"/><path class="cls-78" d="M280.6,356.1s6.3,14.9,2,26.8h-1.9c2.3-14-1.1-23.7-2.2-26.7Z"/><path class="cls-77" d="M267.2,367.4c2.6,3.7,4.7,8.7,6.4,16.5.4,1.8,1.4,3.6,1.8,5.6,3.5,17.9,2.8,52.7,2.8,52.7s-23.6,15.2-56.6,0c0,0-.8-20-.7-39.4,0-2.1,0-4.1.1-6.1s0-4.7.1-6.9.2-4.1.2-6.1.3-4.4.5-6.4c1.4-16.2,8.6-23.5,13.6-26.4a18.4,18.4,0,0,1,3.7-1.7c4-1.2,14.5,5.4,14.5,5.4"/><path class="cls-78" d="M258.9,359.6c-3,1.2-7.1,1.3-11.7.1-6.2-1.7-10.7-5.1-11.7-8.6a22,22,0,0,1,3.8-1.9c3.9-1.1,14.3,5.4,14.3,5.4S256.9,353.3,258.9,359.6Z"/><path class="cls-78" d="M273.7,389.1c-7.8,3.3-24.7,13.1-52.2,0,.1-2.1.2-4.1.2-6,6.3,4,27.9,14.9,51.4,0a43.4,43.4,0,0,1,1.4,4.3A1.4,1.4,0,0,1,273.7,389.1Z"/><path class="cls-78" d="M276.8,402.9c-9.6,2.9-23.6,11.1-55.5-.8,0-2.1,0-4.1.1-6.1,7.5,2.6,28.8,14.5,54.9.8C276.7,398.8,276.5,401,276.8,402.9Z"/><path class="cls-73" d="M313.4,385.1v8.5l-23.6,12.3c-11.6,6-19.1,3.5-23.1.6l-12.4-9.1-8.7-6.3L259.4,378c.4,0,2.5,1.6,5.2,3.6,5.4,4.2,12.8,10.3,12.8,10.3Z"/><path class="cls-74" d="M264.6,382.1c-1.7,6.7-7,11.9-9.9,14.9l-9.1-5.9L259.4,378C259.8,378,261.9,380,264.6,382.1Z"/><path class="cls-77" d="M247.2,361.8c.3,1.1,7,8.9,14.7,16.2l1.5,1.4s-5.8,16-17,21.4l-1.4-1.3c-3.4-3.2-12.5-12.4-21.9-28.3"/><path class="cls-78" d="M263.1,379.4s-5.4,15.3-16.6,21.2a14.7,14.7,0,0,0-1.4-1.4c11.1-8.8,15.2-18.2,16.4-21.2Z"/><path class="cls-79" d="M278.3,391.7a6.3,6.3,0,0,0-4,2.1,5.6,5.6,0,0,0-1.4,4.1"/><line class="cls-75" x1="328" y1="386.7" x2="327.2" y2="385.9"/><path class="cls-80" d="M334.7,390.4s-.8-1.2-3.4-.7"/><path class="cls-81" d="M334.7,390.4l-.8-.5-.8-.2h-1.8l.9-.2a1.4,1.4,0,0,1,.9,0A2.4,2.4,0,0,1,334.7,390.4Z"/><path class="cls-80" d="M332.5,390.1s-5.3-1.3-6.3-5.8"/><path class="cls-81" d="M332.5,390.1a9.4,9.4,0,0,1-4-2,6.6,6.6,0,0,1-1.6-1.7,4.8,4.8,0,0,1-.7-2.1h0a7.2,7.2,0,0,0,.9,2,12.2,12.2,0,0,0,1.5,1.7,11.3,11.3,0,0,0,3.9,2.1Z"/><path class="cls-73" d="M308.8,396c4.6-1.8,5.7-1.4,5.7-1.4.2,1.8,5.6,5.3,9.1,5.4s3.6-1.8,3.6-1.8c3.9-.7,3.1-2.8,3.1-2.8,3.8-.6,2.7-3.2,2.7-3.2,1.7-.3,2.9-1.9,2.2-3.4s-5.9-2.9-5.9-2.9l-.3-4.8a5.4,5.4,0,0,0-4.6-2.7c-3.3-.2-6,2.9-6,2.9s-7.5,4.8-12.6,5.2"/><path class="cls-75" d="M333.8,392.1a6.6,6.6,0,0,1-5.2-.9"/><path class="cls-75" d="M330.8,395.3s-1.5.7-4.8-1.1"/><path class="cls-75" d="M327.7,398.1s-1.5.5-4.4-1.3"/><path class="cls-76" d="M331.9,387.9s-4.5-1.5-5.2-5"/><path class="cls-73" d="M258.9,341.8c-3.2,4-3.1,9.5-2.5,13.1a5,5,0,0,1,.2,1.2,1.9,1.9,0,0,1-1.9,2.4c-8.7.1-13.5-3.9-15.6-6.3a5.2,5.2,0,0,1-1.2-1.6.5.5,0,0,1,0-.5c3.7-3.8,4-11.6,4-13.1C241.9,337,264.1,335.5,258.9,341.8Z"/><path class="cls-82" d="M258.3,341.8c-3,4-2.7,9.5-2.2,13.1a35.3,35.3,0,0,1-16.7-2.7,9.5,9.5,0,0,1-1.4-1.9c3.7-3.7,4.1-11.8,4.1-13.3C242.1,337,263.2,335.5,258.3,341.8Z"/><path class="cls-83" d="M221.9,295.3s-11.2-32.8,1.5-32c5.1.4,8.4,4.8,9.7,7.4,2.7,5.5-5.6,9.5-8.3,4.1a19.8,19.8,0,0,1-1.1-3.2c-2.2-9.6-4.3,1.4-1,22Z"/><path class="cls-84" d="M280,298.4s-.5-6.8,4-4.5,7,14,2.3,20S280,298.4,280,298.4Z"/><path class="cls-85" d="M280.9,300.6s-.3-4.7,2.7-3.2,4.7,9.6,1.4,13.8S280.9,300.6,280.9,300.6Z"/><path class="cls-73" d="M270.6,273.8c11.3,19.8,11.2,19.9,16.8,37.8,4.1,13.2-4.4,27.7-14.5,32.5-14.8,6.9-39.3,5.2-47.8-10.8-6.3-11.9-11.6-17-14.6-21.1-9.5-13.2-6.1-47.5,12.7-55.4S258.2,252.1,270.6,273.8Z"/><path class="cls-86" d="M240.6,305.3c-3.5,2-4.5,7.1-2.3,11.5s6.6,5.2,10,3.2,4.7-5.9,2.5-10.3S244,303.4,240.6,305.3Z"/><path class="cls-87" d="M240.6,305.3a7.3,7.3,0,0,0-3.3,5,10.8,10.8,0,0,0,.8,5.9,7.9,7.9,0,0,0,4.1,4.3,6.9,6.9,0,0,0,5.8-.5,8.4,8.4,0,0,0,2.4-1.8,7.2,7.2,0,0,0,1.2-2.7,8.7,8.7,0,0,0-1-5.9,9.2,9.2,0,0,0-4.2-4.3A6.3,6.3,0,0,0,240.6,305.3Zm0,0a6.5,6.5,0,0,1,5.9,0,9.5,9.5,0,0,1,4.2,4.2,8.9,8.9,0,0,1,1.1,6,6,6,0,0,1-1.3,2.8,5.7,5.7,0,0,1-2.4,1.9,7,7,0,0,1-6,.4,8.2,8.2,0,0,1-4.1-4.3,10.6,10.6,0,0,1-.7-6.1A6.8,6.8,0,0,1,240.6,305.3Z"/><path class="cls-88" d="M237,311.8a8.2,8.2,0,0,1,3.3-6.3c2.9-1.9,7.5-1,10,2.9a8.8,8.8,0,0,1,1.6,7.8c1.6-3.4-.1-7.1-2.3-9.7s-5.7-4.4-8.8-2.8S236.4,309.3,237,311.8Z"/><path class="cls-89" d="M248.1,315.1c2.4-.8,3.2-3.6,2-6.2s-4.3-4.1-6.6-3.3-3.3,3.5-2,6.1S245.7,315.8,248.1,315.1Z"/><path class="cls-90" d="M241.8,308.9a1.1,1.1,0,0,0,1.1-1.1,1.3,1.3,0,0,0-1.2-1.3,1.1,1.1,0,0,0-1.1,1.2A1.3,1.3,0,0,0,241.8,308.9Z"/><path class="cls-86" d="M267.8,295c-3.2,1.7-4,6.6-1.7,10.9s6.6,5.3,9.8,3.6,4.1-5.5,1.9-9.8S271,293.3,267.8,295Z"/><path class="cls-87" d="M267.8,295a5.8,5.8,0,0,0-2.9,4.8,10.1,10.1,0,0,0,1.1,5.7,8.4,8.4,0,0,0,4,4.1,6.5,6.5,0,0,0,5.6-.1,5.7,5.7,0,0,0,3.3-4.5,9.2,9.2,0,0,0-1.4-5.6,9.5,9.5,0,0,0-4.1-4.1A6.2,6.2,0,0,0,267.8,295Zm0,0a6.4,6.4,0,0,1,5.7.2,10.1,10.1,0,0,1,4.1,4.1,9.6,9.6,0,0,1,1.5,5.7,5.9,5.9,0,0,1-3.4,4.7,6.7,6.7,0,0,1-5.7.1,8.4,8.4,0,0,1-4.1-4.2,10.6,10.6,0,0,1-1.1-5.8A6,6,0,0,1,267.8,295Z"/><path class="cls-88" d="M264.8,301.2c-.2-2.5.6-5.2,2.2-6.3s7.7-.5,10.2,3.4c1.2,1.9,2.6,3.8,1.9,7.8,1.5-3.4-.5-7.1-2.6-9.7s-5.8-4.4-8.8-2.8S264.1,298.7,264.8,301.2Z"/><path class="cls-89" d="M274.1,304.8c2.5-.3,3.8-2.9,2.9-5.7s-3.5-4.7-5.9-4.3-3.8,2.9-3,5.7S271.6,305.2,274.1,304.8Z"/><path class="cls-90" d="M268.9,298a1.2,1.2,0,0,0,1.2-1.2,1.1,1.1,0,0,0-1.2-1.1,1.2,1.2,0,0,0-1.2,1.2A1.1,1.1,0,0,0,268.9,298Z"/><path class="cls-91" d="M218.4,322.2c-12.5-3.1-8,7.3-3.5,12.4s10.3,4.9,12.3.9"/><path class="cls-85" d="M216.1,332.5c2.7,2.7,6.1,3.6,6.8,2.4s-3.8-1.9-4.3-5.5-3.1-6-4.5-4.6S213,329.3,216.1,332.5Z"/><path class="cls-92" d="M256.6,275.3c-2,3.3-4.5,6.4-7.8,8.2-6.5,3.6-11.6,3.9-18.9,2.6,4.3-2.3,9.9-6.8,11.1-9.9-4.4-1.2-8.2.2-12.7,1.1-.3.1-.3.7-.3,1-1.2,7-12.8,7.2-14,7.9,6.3.6,10,23.8,0,29.7-1.6.9-3.6-2.8-4.8-4.1a14.2,14.2,0,0,1-3.6-7.5c-.3-1.2-.3-2.5-.7-3.7s-1.3-2.3-1.7-3.5,0-4.5.8-6.6a61.7,61.7,0,0,1,7.9-15.3A32.8,32.8,0,0,1,225,264.4c3.8-1.7,8-2.4,12.1-3.1,5.7-.9,11.5-1.6,17.1-.5a56.4,56.4,0,0,1,7,2.1,13.5,13.5,0,0,1,4.2,2,13.7,13.7,0,0,1,2.3,2.5c6,7.7,12,19,14.4,28.5-4-5.5-9.6-15.9-13.6-21.4-.8-1.1-9.1-5-9.9-4.2S257.1,274.4,256.6,275.3Z"/><path class="cls-93" d="M255,267.8s4.6,15.2-24.3,18c0,0,24.3-17.7-5.3-9.5,0,0,3.7,4.2-11.4,9.9a28.3,28.3,0,0,1,3,26.5s-1.8,1.9,1.4,8.7a25.8,25.8,0,0,1,2.3,3.7c1,2.2-3.8-.8-3.8-.8s-9.9,1.6-14-9.9c0,0-11.4-5.3-8.5-17.8,0,0-10.3-12.1,5.8-21.3,0,0-.7-15.6,9.9-18.7,0,0,11.1-16,26.9-7.9,0,0,10.5-7.9,22.8,2.6,0,0,12.7,1.6,13.2,11.5,0,0,10.3,1.8,4.8,11.7,0,0,8.9,3.2,2.4,11.8l2.1,9.9-12.1-22.4S269,270.2,255,267.8Z"/><path class="cls-94" d="M261.3,284.1h0c.3-1.2,3.5-1.7,4.7-1.4s4,.9,6,4.7c.2.3.3.6,0,.4s-5.6-3.1-9-2.5A1.6,1.6,0,0,1,261.3,284.1Z"/><path class="cls-94" d="M241.6,290.1h0c-.9-.9-3.9.2-4.8,1s-3.1,2.7-3,7c0,.4.1.7.2.3,1-2,3.4-5.4,6.7-6.4A1.5,1.5,0,0,0,241.6,290.1Z"/><path class="cls-95" d="M267.2,312.5a7.2,7.2,0,0,1,1.3,2.8,2.8,2.8,0,0,1-1.2,2.8,8.1,8.1,0,0,1-2.9,1.2l-1.6.2a1.7,1.7,0,0,1-1.4-.5,1.4,1.4,0,0,0,1.4.3l1.5-.2a10.5,10.5,0,0,0,2.9-1.2,2.6,2.6,0,0,0,1.1-2.5A6.1,6.1,0,0,0,267.2,312.5Z"/><ellipse class="cls-96" cx="250" cy="327.2" rx="2.5" ry="1.4" transform="translate(-38.6 33.5) rotate(-7.1)"/><ellipse class="cls-96" cx="277.2" cy="320.4" rx="2.5" ry="1.4" transform="translate(-140.3 248.4) rotate(-39.4)"/><path class="cls-97" d="M268.1,335.1c9.6-3.1,10.9-16.8,9.3-15.6s.6.5-6.9,3.4c-1.5.5-4.5,1.6-6.9,2.2a79.9,79.9,0,0,1-10.4,2.1c-1.5.2-2.9-.2-3.7.1S259.7,337.7,268.1,335.1Z"/><path class="cls-98" d="M268.1,335.1a10.8,10.8,0,0,1-5.9,0,6.3,6.3,0,0,1,3.3-3.9c2.4-1.3,6.5-1.9,8.5-.4C273,332.7,269.9,334.4,268.1,335.1Z"/><path class="cls-13" d="M251.2,327.3a49.6,49.6,0,0,0,26.2-7.8c-.8,2.7-4.5,7.5-10.5,9.5A19.7,19.7,0,0,1,251.2,327.3Z"/><path class="cls-99" d="M249.6,327.2c-.1,0-.1.1,0,.1,2.2.3,14.2,3.6,27.8-7.8C277.4,319.5,269.1,325.8,249.6,327.2Z"/><path class="cls-99" d="M264.4,336.7a6.9,6.9,0,0,0,6.7-1.8A4.7,4.7,0,0,1,264.4,336.7Z"/><path class="cls-100" d="M266.2,369.5l-1.4.6c-4.1,1.5-7.9,1.4-8.6-.4s3-2.4,7-4C268.6,367.1,269.7,369.5,266.2,369.5Z"/></g><g id="_005" data-name="005"><path class="cls-101" d="M376.9,139.9v.5a10.4,10.4,0,0,0,.2,1.5,2.8,2.8,0,0,0,.1.9,3,3,0,0,0,.4,1,.8.8,0,0,0,.2.4l.4.5a8.6,8.6,0,0,1,.7,1,4.1,4.1,0,0,1,.7,1.1,5,5,0,0,1,.3,1.3,2.4,2.4,0,0,1,0,1.2,3,3,0,0,1-.4,1,4.3,4.3,0,0,1-.4.7,2.1,2.1,0,0,0-.4.6l-.4.4.2-.5c.1-.4.3-.8.5-1.4s.1-.6.2-.9a3.4,3.4,0,0,0-.1-1,4.2,4.2,0,0,0-.4-1l-.6-1-.7-.9-.4-.6a1.6,1.6,0,0,1-.3-.6,5.2,5.2,0,0,1-.2-1.1,2,2,0,0,1,0-1.1,1.9,1.9,0,0,1,.1-.8c0-.3.1-.5.1-.7Z"/><path class="cls-102" d="M377,139.9l-.5.7-.4.9-.3,1.1a5.7,5.7,0,0,0,.1,1.3,2.9,2.9,0,0,0,.7,1.2l1.3,1,.4.2.4.2.8.4.8.6c.3.1.5.4.7.6l.7.6.3.4.2.4.4.8.2.5a.8.8,0,0,0,.1.4v.4c.1.1.1.2.1.4v.7a6.4,6.4,0,0,1-.2.7,1.3,1.3,0,0,1-.1.6c-.1.2-.1.4-.2.5l-.2.4-.2.3-.2.3h-.2v-.2h0v-.2c.1,0,.1-.1.1-.2l.2-.3a.6.6,0,0,1,.1-.4c0-.2.1-.3.1-.5s.1-.4.1-.6V152a.4.4,0,0,1-.1-.3V151l-.2-.3v-.4l-.2-.3-.3-.3-.2-.3-.3-.3-.3-.3a1.8,1.8,0,0,0-.7-.5l-.7-.5-.8-.4-.4-.2-.4-.3a4.4,4.4,0,0,1-1.5-1.2,3.5,3.5,0,0,1-.8-1.6,2.7,2.7,0,0,1,0-.9,1.7,1.7,0,0,1,.1-.7,3.3,3.3,0,0,1,.5-1.2,9,9,0,0,0,.5-.9l.5-.4v-.2h.2Z"/><path class="cls-103" d="M377,139.9v.2c-.1.1-.1.3-.2.5s-.1.5-.1.8a3.8,3.8,0,0,0,.3,1,3,3,0,0,0,.6,1.1l.9,1,.6.5.6.5a4.9,4.9,0,0,1,1.2,1.3,3.8,3.8,0,0,1,.8,1.7,4.8,4.8,0,0,1,0,1.7,5.3,5.3,0,0,1-.5,1.5,3.6,3.6,0,0,1-.8,1.2,6.2,6.2,0,0,1-1.5,1.4l-.7.4h.1l.4-.4a7,7,0,0,0,1.2-1.5l.6-1.1a5,5,0,0,0,.4-1.3,6.1,6.1,0,0,0-.1-1.4,5.4,5.4,0,0,0-.7-1.3,5.2,5.2,0,0,0-1-1.1,13.1,13.1,0,0,1-1.2-1.1,6.4,6.4,0,0,1-1-1.3,3.8,3.8,0,0,1-.6-1.3,4.9,4.9,0,0,1-.1-1.2,4.6,4.6,0,0,1,.3-.9l.3-.5v-.2h.2Z"/><path class="cls-101" d="M458,113.5a1.2,1.2,0,0,1,.4.4,1,1,0,0,1,.5.4l.6.6a4.7,4.7,0,0,1,.6.9,3.7,3.7,0,0,1,.5,1.1,1.3,1.3,0,0,1,.1.6v1.9c.1.4.1.7.2,1.1a3,3,0,0,0,.2,1l.5.9.7.6,1.2.9.5.3-.6-.2-.6-.2-.8-.3-.9-.6a3.9,3.9,0,0,1-.8-1,5.6,5.6,0,0,1-.4-1.2,5.7,5.7,0,0,1-.1-1.3,2.8,2.8,0,0,1,0-1.3v-1l-.3-1a5.9,5.9,0,0,1-.4-.8,10.5,10.5,0,0,0-.8-1.3Z"/><path class="cls-102" d="M458,113.4h.8l1,.3,1.1.7a3.4,3.4,0,0,1,.6.6,4.3,4.3,0,0,1,.4.7,2.8,2.8,0,0,1,.3,1.8,4.1,4.1,0,0,1-.5,1.8c0,.2-.1.3-.2.5l-.2.4a5.9,5.9,0,0,1-.4.8l-.3.8c-.1.2-.1.5-.2.8a.8.8,0,0,1-.1.4v.4c0,.1-.1.3-.1.4v.4c.1.1.1.2.1.4v.3a.8.8,0,0,1,.1.4v.4l.2.3v.3a2.1,2.1,0,0,0,.4.6l.4.5.4.4.3.3.4.2.3.2.2.2h-.4l-.3-.2-.4-.2c-.2,0-.3-.1-.5-.3l-.5-.3-.4-.5-.5-.6-.2-.4-.2-.3-.2-.4a.9.9,0,0,0-.1-.5c-.1-.2-.1-.5-.2-.8v-1c.1-.3.1-.6.2-.9a4.4,4.4,0,0,1,.2-1,3.6,3.6,0,0,1,.4-.9,5.9,5.9,0,0,1,.4-.8l.2-.4.2-.4a4.2,4.2,0,0,0,.4-1.5,3.2,3.2,0,0,0-.1-1.4,4.1,4.1,0,0,0-.7-1.1,2.3,2.3,0,0,0-1-.7l-.8-.5-.7-.3h0Z"/><path class="cls-103" d="M458,113.4h.2l.6.2a1.9,1.9,0,0,1,.7.6,3.3,3.3,0,0,1,.6,1,3.5,3.5,0,0,1,.3,1.4,4.3,4.3,0,0,1,0,1.6l-.3,1.6a3.9,3.9,0,0,0-.2,1.5,7.7,7.7,0,0,0,.2,1.5,4.4,4.4,0,0,0,.8,1.1,4.1,4.1,0,0,0,1,.9l1.2.6a9,9,0,0,0,1.9.5h.8a.1.1,0,0,1-.1.1h-.8a7.9,7.9,0,0,1-2-.2l-1.3-.5a5.5,5.5,0,0,1-1.4-.9,5.6,5.6,0,0,1-1-1.5,5.2,5.2,0,0,1-.3-1.8,8.8,8.8,0,0,1,.2-1.7,2.4,2.4,0,0,0,.2-.8,1.9,1.9,0,0,0,.2-.7,7.1,7.1,0,0,0,.1-1.4,2.8,2.8,0,0,0-.1-1.3,3.6,3.6,0,0,0-.4-.9l-.5-.6-.5-.3H458Z"/><rect class="cls-104" x="386.9" y="96" width="61.2" height="61.28" transform="translate(115.1 441.2) rotate(-63)"/><g class="cls-56"><path class="cls-105" d="M425.4,101.6a34,34,0,0,1-5.5,31.4l-.5.6a33,33,0,0,1-15.8,10.8,34.6,34.6,0,0,1-16.5,1.2l-10.8-5.5,27.8-54.6,18.2,9.3A32.2,32.2,0,0,1,425.4,101.6Z"/></g><g class="cls-106"><path class="cls-107" d="M417.9,126.7c.7,2.1,1.4,4.2,2,6.3s2,6,2.9,8.9c1.6,4.8,3,9.4,4.3,13.2l2.9,9.4c.5,1.6.9,2.7,1,3.2l.2.4h-.3v-.4c-.2-.6-.5-1.6-1.1-3.2l-3.1-9.3-4.4-13.2c-.9-2.8-1.8-5.6-2.8-8.5l-2.1-6.7-5-15.2-4.2-13.2c-1.2-3.9-2.3-7.2-3-9.4s-.9-3.1-1-3.5h.2l1.1,3.4c.8,2.2,1.9,5.4,3.2,9.3s2.7,8.4,4.3,13.2Z"/><path class="cls-108" d="M458.8,113.3l-.4.7a78.1,78.1,0,0,0-81.3,26.5l-.8-.4,1.6-3a79.9,79.9,0,0,1,77.7-25.4Z"/></g><path class="cls-109" d="M431.7,171.9s-11.8,15.1,13,25.8c6.9,2.9,7.5,16.4-4.8,29.7,0,0,12.6-22.7.1-28.5C440,198.9,415.4,183.1,431.7,171.9Z"/><path class="cls-101" d="M426.7,172.7s18.9,3.6,7.2,28c-3.2,6.8,5.2,17.3,23.2,19.2,0,0-24.4-8.8-18.8-21.4C438.3,198.5,446.3,170.4,426.7,172.7Z"/><path class="cls-110" d="M427.5,172.8s20,.2,15,27.6c-1.4,7.6,9.9,16.8,28.6,15.4,0,0-27-4.5-24.9-18.6C446.2,197.2,446.6,166.8,427.5,172.8Z"/><polygon class="cls-104" points="425.2 175.6 430.7 166.9 440.3 170.7 425.2 175.6"/><path class="cls-111" d="M413.9,114.9s14.4,135.9-81.3,217"/><path class="cls-111" d="M330.9,336.3s25.5,23.2,11.7,32.1a31.9,31.9,0,0,0-12.8,15.9"/><path class="cls-111" d="M320.6,399.3s-8.9,32.1,3.9,73.7c9.3,30.3-11.5,60.5-56.8,66.2-42.9,5.4-62.3,24.6-62.3,24.6"/></g></g></g></svg>