<?xml version="1.0" encoding="utf-8"?>
<!-- Generator: Adobe Illustrator 26.2.1, SVG Export Plug-In . SVG Version: 6.00 Build 0)  -->
<svg version="1.1" id="Layer_1" xmlns="http://www.w3.org/2000/svg" xmlns:xlink="http://www.w3.org/1999/xlink" x="0px" y="0px"
	 viewBox="0 0 718 661" style="enable-background:new 0 0 718 661;" xml:space="preserve">
<style type="text/css">
	.st0{fill:url(#SVGID_1_);}
	.st1{fill:#31D0E5;stroke:url(#SVGID_00000086677732285302838550000016352402875852821155_);stroke-width:6;stroke-miterlimit:10;}
	.st2{clip-path:url(#SVGID_00000093148515285647360330000005180379849354326674_);}
	.st3{fill:#31D0E5;}
	.st4{opacity:0.14;enable-background:new    ;}
	.st5{fill:#77C9B0;}
	.st6{fill:url(#SVGID_00000058566460827228350630000010693268755682854809_);stroke:#A1A8A7;stroke-miterlimit:10;}
	.st7{fill:#AD9E9E;}
	.st8{opacity:0.3;}
	.st9{fill:#FFFFFF;}
</style>
<g id="a">
	<g id="b">
	</g>
</g>
<g id="c">
</g>
<g id="d">
</g>
<g id="e">
</g>
<g id="f">
	<g>
		<g>
			
				<linearGradient id="SVGID_1_" gradientUnits="userSpaceOnUse" x1="104.0614" y1="506.1821" x2="602.267" y2="164.8152" gradientTransform="matrix(1 0 0 -1 0 662)">
				<stop  offset="0" style="stop-color:#9B81CF"/>
				<stop  offset="1" style="stop-color:#3B139B"/>
			</linearGradient>
			<circle class="st0" cx="359" cy="330.5" r="301.9"/>
			
				<linearGradient id="SVGID_00000075159890254862996520000000645517746623496356_" gradientUnits="userSpaceOnUse" x1="66.74" y1="331.5" x2="651.26" y2="331.5" gradientTransform="matrix(1 0 0 -1 0 662)">
				<stop  offset="0" style="stop-color:#4C1DA9"/>
				<stop  offset="1" style="stop-color:#997ECE"/>
			</linearGradient>
			
				<circle style="fill:#31D0E5;stroke:url(#SVGID_00000075159890254862996520000000645517746623496356_);stroke-width:6;stroke-miterlimit:10;" cx="359" cy="330.5" r="289.3"/>
		</g>
		<g>
			<defs>
				<ellipse id="SVGID_00000183224081154408434070000008481224939144171682_" cx="359" cy="330.5" rx="286.6" ry="286.3"/>
			</defs>
			<clipPath id="SVGID_00000034070269600629364620000011573749103724532126_">
				<use xlink:href="#SVGID_00000183224081154408434070000008481224939144171682_"  style="overflow:visible;"/>
			</clipPath>
			<g style="clip-path:url(#SVGID_00000034070269600629364620000011573749103724532126_);">
				<g>
					<path class="st3" d="M676,308c0,155.4-142.8,281.3-319,281.3S22.3,477,22.3,321.6s158.4-295,334.6-295S676,152.6,676,308
						L676,308z"/>
					
						<ellipse transform="matrix(0.9874 -0.1583 0.1583 0.9874 -97.2344 92.6898)" class="st4" cx="533.1" cy="656.6" rx="56.5" ry="13.3"/>
					
						<ellipse transform="matrix(0.9922 -0.1248 0.1248 0.9922 -75.765 30.7903)" class="st4" cx="207.8" cy="620" rx="34.1" ry="9"/>
					<g>
						<path class="st5" d="M127.5,524.1c0,0,4.7-7.8,3.6-12.5c-1.4-5.7,1.2-2.1,1.2-2.1l0.5,4.8l4.9-1.9c0,0-5.5,2.2-4.5,6.1
							c1,3.9,2.6,5.7,2.6,5.7L127.5,524.1L127.5,524.1z"/>
					</g>
				</g>
				<g id="j">
					<g>
						
							<linearGradient id="SVGID_00000029755098634243995240000016544408550068601765_" gradientUnits="userSpaceOnUse" x1="-2844.6648" y1="-3938.272" x2="-2647.6262" y2="-3938.272" gradientTransform="matrix(-0.744 0.6682 -0.6682 -0.744 -4199.4619 -760.888)">
							<stop  offset="0" style="stop-color:#FFFFFF"/>
							<stop  offset="0.44" style="stop-color:#FEFEFD"/>
							<stop  offset="0.6" style="stop-color:#FBFAF6"/>
							<stop  offset="0.71" style="stop-color:#F5F4EA"/>
							<stop  offset="0.8" style="stop-color:#EEEBD9"/>
							<stop  offset="0.88" style="stop-color:#E4DFC3"/>
							<stop  offset="0.95" style="stop-color:#D9D2A9"/>
							<stop  offset="1" style="stop-color:#CFC692"/>
						</linearGradient>
						
							<path style="fill:url(#SVGID_00000029755098634243995240000016544408550068601765_);stroke:#A1A8A7;stroke-miterlimit:10;" d="
							M574.5,299c0,0-5.4-2.5-10.1-4.2s-7.9-4.4-10.8-7.5c0,0,1.7,8.3,11.7,13.5c0,0-11.1-1.2-17-10c0,0,0.4,7.6,10.9,13.4
							c0,0-13-1.8-21.3-10.9c0,0,0.3,7.6,12,13.2c0,0-3.8,0.3-10.3-3.1s-10.5-2.6-14.8-1.3c-4.3,1.3-12.6,3.6-18.5,0.3
							c0,0,9.2,10.5,25,9.4c0,0-8,4.2-22.8-2.4c-14.9-6.6-28.7-5-39.4-1.9s-39.5,15.7-53.3,8.3c0,0,1.2,4.7,11,9.8
							c9.9,5.1,7.9,11.5,7.9,11.5s-6.4-13-23.8-14c-9.1-0.5-13.8,2.8-18.4-0.2c0,0,2.6,3.5,10.9,5.2c8.3,1.8,14.4,8.7,15.2,11.7
							c0,0-12.9-11.1-26.7-11.1c-19.7,0-27.9,18-32.9,19.5c0,0,11.4,24.8,38,24.1c0,0-7.9,0.9-13.6,7.4c0,0,3.8-1.8,14.7-1.2
							c10.9,0.6,25.6-0.8,38.2-7.9c0,0-10.9,10.5-25.4,11.5c0,0,15.5,5.4,39-8.8c0,0-9,10.1-18.7,13.9c0,0,11.4-0.8,24.4-12.4
							c0,0-0.2,6-6.8,12.9c0,0,2.1-1.7,10.9-3.4s65.4-11.9,87.1-45.7c0,0-1.4,5.3,4.6,12c0,0-4.3-8.9,2.3-19.8c0,0-0.5,8.9,8.9,14.9
							c0,0-4.9-7.8-3-19.2c0,0,5.4,6.8,17.4,7c0,0-8.2-3.7-13.3-12c0,0,9.5,4.8,18.7,1.5c0,0-7.2-0.1-14.4-7.2c0,0,9,4,17.4-3
							c0,0-7.9,1.7-11.9-0.7c0,0,4.9-4.2,4.4-10.7L574.5,299L574.5,299z"/>
						<path class="st7" d="M594.9,282.3c0,0-24.9,41-98.1,65.5c-66.7,22.3-113.1,4.2-113.1,4.2s51,12.8,114.4-9.6
							c72.8-25.8,90.2-63.3,90.2-63.3C588.8,277.9,595.4,281.5,594.9,282.3L594.9,282.3z"/>
					</g>
				</g>
				<g class="st8">
					<g>
						<path class="st9" d="M117,362.6c0,0,7.3-33.9,45.2-8.5c37.9,25.4-35.8,28.2-69.3,22S117,362.6,117,362.6z"/>
						<path class="st9" d="M189.5,333.3c31.7,15.9,3,22.8-23.4,21.3S157.8,317.4,189.5,333.3z"/>
					</g>
					<g>
						<path class="st9" d="M529.4,502.8c0,0,7.3-33.9,45.2-8.5s-35.8,28.2-69.3,22.1C471.9,510.1,529.4,502.8,529.4,502.8
							L529.4,502.8z"/>
						<path class="st9" d="M601.9,473.5c31.7,15.9,3,22.8-23.4,21.3C552.1,493.3,570.2,457.6,601.9,473.5z"/>
					</g>
				</g>
				<g class="st8">
					<g>
						<path class="st9" d="M117,52.6c0,0,7.3-33.9,45.2-8.5s-35.8,28.2-69.3,22S117,52.6,117,52.6z"/>
						<path class="st9" d="M189.5,23.3c31.7,15.9,3,22.8-23.4,21.3S157.8,7.4,189.5,23.3z"/>
					</g>
					<g>
						<path class="st9" d="M529.4,192.8c0,0,7.3-33.9,45.2-8.5s-35.8,28.2-69.3,22.1S529.4,192.8,529.4,192.8z"/>
						<path class="st9" d="M601.9,163.5c31.7,15.9,3,22.8-23.4,21.3C552.1,183.3,570.2,147.6,601.9,163.5z"/>
					</g>
				</g>
			</g>
		</g>
	</g>
</g>
<g id="l">
</g>
<g id="m">
</g>
<g id="n">
</g>
<g id="o">
</g>
<g id="p">
</g>
<g id="q">
</g>
<g id="r">
</g>
<g id="s">
</g>
</svg>
