<?xml version="1.0" encoding="utf-8"?>
<!-- Generator: Adobe Illustrator 26.2.1, SVG Export Plug-In . SVG Version: 6.00 Build 0)  -->
<svg version="1.1" id="Layer_1" xmlns="http://www.w3.org/2000/svg" xmlns:xlink="http://www.w3.org/1999/xlink" x="0px" y="0px"
	 viewBox="0 0 718 661" style="enable-background:new 0 0 718 661;" xml:space="preserve">
<style type="text/css">
	.st0{fill:url(#SVGID_1_);}
	.st1{fill:#31D0E5;stroke:url(#SVGID_00000071548003348968031420000016025448878312034495_);stroke-width:6;stroke-miterlimit:10;}
	.st2{clip-path:url(#SVGID_00000070832539366646201720000003083146595215571870_);}
	.st3{fill:#31D0E5;}
	.st4{opacity:0.14;enable-background:new    ;}
	.st5{opacity:0.45;}
	.st6{fill:#77C9B0;}
	.st7{fill:url(#SVGID_00000176751573299009895450000002875109549311996584_);stroke:#A1A8A7;stroke-miterlimit:10;}
	.st8{fill:#AD9E9E;}
	.st9{opacity:0.3;}
	.st10{fill:#FFFFFF;}
	.st11{opacity:0.3;fill:#FFFFFF;}
</style>
<g id="a">
	<g id="b">
	</g>
</g>
<g id="c">
</g>
<g id="d">
</g>
<g id="e">
</g>
<g id="f">
</g>
<g id="g">
</g>
<g id="h">
	<g>
		<g>
			
				<linearGradient id="SVGID_1_" gradientUnits="userSpaceOnUse" x1="104.0614" y1="506.1821" x2="602.267" y2="164.8152" gradientTransform="matrix(1 0 0 -1 0 662)">
				<stop  offset="0" style="stop-color:#9B81CF"/>
				<stop  offset="1" style="stop-color:#3B139B"/>
			</linearGradient>
			<circle class="st0" cx="359" cy="330.5" r="301.9"/>
			
				<linearGradient id="SVGID_00000025415137722732741200000000354998925290848385_" gradientUnits="userSpaceOnUse" x1="66.74" y1="331.5" x2="651.26" y2="331.5" gradientTransform="matrix(1 0 0 -1 0 662)">
				<stop  offset="0" style="stop-color:#4C1DA9"/>
				<stop  offset="1" style="stop-color:#997ECE"/>
			</linearGradient>
			
				<circle style="fill:#31D0E5;stroke:url(#SVGID_00000025415137722732741200000000354998925290848385_);stroke-width:6;stroke-miterlimit:10;" cx="359" cy="330.5" r="289.3"/>
		</g>
		<g>
			<defs>
				<ellipse id="SVGID_00000003796182788387999710000009799566928657885621_" cx="359" cy="330.5" rx="286.6" ry="286.3"/>
			</defs>
			<clipPath id="SVGID_00000009555720943482275540000010143679541532404393_">
				<use xlink:href="#SVGID_00000003796182788387999710000009799566928657885621_"  style="overflow:visible;"/>
			</clipPath>
			<g style="clip-path:url(#SVGID_00000009555720943482275540000010143679541532404393_);">
				<g>
					<path class="st3" d="M676,308c0,155.4-142.8,281.3-319,281.3S22.3,477,22.3,321.6s158.4-295,334.6-295S676,152.6,676,308
						L676,308z"/>
					
						<ellipse transform="matrix(0.9874 -0.1583 0.1583 0.9874 -97.2344 92.6898)" class="st4" cx="533.1" cy="656.6" rx="56.5" ry="13.3"/>
					
						<ellipse transform="matrix(0.9922 -0.1248 0.1248 0.9922 -75.765 30.7903)" class="st4" cx="207.8" cy="620" rx="34.1" ry="9"/>
					<g class="st5">
						<path class="st6" d="M127.5,524.1c0,0,4.7-7.8,3.6-12.5c-1.4-5.7,1.2-2.1,1.2-2.1l0.5,4.8l4.9-1.9c0,0-5.5,2.2-4.5,6.1
							c1,3.9,2.6,5.7,2.6,5.7L127.5,524.1L127.5,524.1z"/>
					</g>
				</g>
				<g id="l">
					<g>
						
							<linearGradient id="SVGID_00000126287179838550222870000011404857934545342111_" gradientUnits="userSpaceOnUse" x1="4463.2017" y1="-1399.6243" x2="4660.2427" y2="-1399.6243" gradientTransform="matrix(-0.5645 0.8254 -0.8254 -0.5645 1906.3591 -4171.9277)">
							<stop  offset="0" style="stop-color:#FFFFFF"/>
							<stop  offset="0.44" style="stop-color:#FEFEFD"/>
							<stop  offset="0.6" style="stop-color:#FBFAF6"/>
							<stop  offset="0.71" style="stop-color:#F5F4EA"/>
							<stop  offset="0.8" style="stop-color:#EEEBD9"/>
							<stop  offset="0.88" style="stop-color:#E4DFC3"/>
							<stop  offset="0.95" style="stop-color:#D9D2A9"/>
							<stop  offset="1" style="stop-color:#CFC692"/>
						</linearGradient>
						
							<path style="fill:url(#SVGID_00000126287179838550222870000011404857934545342111_);stroke:#A1A8A7;stroke-miterlimit:10;" d="
							M574.8,325.7c0,0-5.8-1.1-10.8-1.7c-5-0.6-8.7-2.4-12.3-4.8c0,0,3.6,7.6,14.6,10.4c0,0-11,1.5-18.8-5.7c0,0,2.2,7.3,13.7,10.5
							c0,0-13.1,1.4-23.3-5.5c0,0,2.1,7.3,14.7,10c0,0-3.6,1.2-10.8-0.6s-10.8-0.1-14.7,2.2s-11.4,6.5-17.9,4.6c0,0,11.4,8,26.5,3.2
							c0,0-6.7,6-22.7,3.1c-16-2.9-29.1,2-38.7,7.4s-34.7,24.6-49.8,20.7c0,0,2.2,4.3,13,6.9c10.8,2.6,10.4,9.2,10.4,9.2
							s-9.3-11.1-26.4-8c-9,1.6-12.7,5.9-17.9,4.2c0,0,3.4,2.8,11.9,2.5s16.1,5.1,17.6,7.8c0,0-15.1-7.7-28.6-4.5
							c-19.2,4.6-22.8,24.1-27.4,26.7c0,0,17,21.4,42.6,14.5c0,0-7.5,2.8-11.5,10.4c0,0,3.2-2.6,14-4.6c10.8-2,24.7-6.9,35.2-16.7
							c0,0-8.1,12.8-22,17.2c0,0,16.3,1.6,35.8-17.8c0,0-6.4,11.9-14.9,17.9c0,0,10.9-3.5,20.8-17.8c0,0,1.2,5.9-3.6,14.1
							c0,0,1.6-2.2,9.8-5.8c8.2-3.7,60.7-27,73.8-65.1c0,0-0.1,5.5,7.3,10.5c0,0-6.3-7.6-2.5-19.8c0,0,1.6,8.7,12.1,12.4
							c0,0-6.6-6.5-7.4-17.9c0,0,6.8,5.3,18.6,2.6c0,0-8.8-1.7-15.7-8.5c0,0,10.4,2.4,18.5-2.9c0,0-7,1.6-15.7-3.6
							c0,0,9.8,1.8,16.2-7c0,0-7.3,3.5-11.7,2.1c0,0,3.7-5.2,1.8-11.5L574.8,325.7L574.8,325.7z"/>
						<path class="st8" d="M590.6,304.6c0,0-14.5,45.7-79.8,86.8c-59.5,37.5-108.9,30.9-108.9,30.9s52.6,0.4,108.8-36.4
							c64.6-42.3,72.7-82.8,72.7-82.8C583.7,301.9,590.9,303.8,590.6,304.6L590.6,304.6z"/>
					</g>
				</g>
				<g class="st9">
					<g>
						<path class="st10" d="M117,322.6c0,0,7.3-33.9,45.2-8.5c37.9,25.4-35.8,28.2-69.3,22S117,322.6,117,322.6z"/>
						<path class="st10" d="M189.5,293.3c31.7,15.9,3,22.8-23.4,21.3S157.8,277.4,189.5,293.3z"/>
					</g>
					<g>
						<path class="st10" d="M529.4,462.8c0,0,7.3-33.9,45.2-8.5c37.9,25.4-35.8,28.2-69.3,22S529.4,462.8,529.4,462.8z"/>
						<path class="st10" d="M601.9,433.5c31.7,15.9,3,22.8-23.4,21.3C552.1,453.3,570.2,417.6,601.9,433.5z"/>
					</g>
				</g>
				<g>
					<path class="st10" d="M117,2.6c0,0,7.3-33.9,45.2-8.5s-35.8,28.2-69.3,22S117,2.6,117,2.6z"/>
					<g>
						<path class="st11" d="M529.4,142.8c0,0,7.3-33.9,45.2-8.5s-35.8,28.2-69.3,22.1S529.4,142.8,529.4,142.8z"/>
						<path class="st10" d="M601.9,113.5c31.7,15.9,3,22.8-23.4,21.3C552.1,133.3,570.2,97.6,601.9,113.5z"/>
					</g>
				</g>
			</g>
		</g>
	</g>
</g>
<g id="n">
</g>
<g id="o">
</g>
<g id="p">
</g>
<g id="q">
</g>
<g id="r">
</g>
<g id="s">
</g>
</svg>
