<?xml version="1.0" encoding="utf-8"?>
<!-- Generator: Adobe Illustrator 26.2.1, SVG Export Plug-In . SVG Version: 6.00 Build 0)  -->
<svg version="1.1" id="Layer_1" xmlns="http://www.w3.org/2000/svg" xmlns:xlink="http://www.w3.org/1999/xlink" x="0px" y="0px"
	 viewBox="0 0 718 661" style="enable-background:new 0 0 718 661;" xml:space="preserve">
<style type="text/css">
	.st0{display:none;fill:#FF0000;}
	.st1{display:none;fill:#00FF00;}
	.st2{fill:url(#SVGID_1_);}
	.st3{fill:#31D0E5;stroke:url(#SVGID_00000181073640647727203720000015053475460113544127_);stroke-width:6;stroke-miterlimit:10;}
	.st4{clip-path:url(#SVGID_00000175324819676267759720000004292046065693782684_);}
	.st5{fill:#31D0E5;}
	.st6{display:none;}
	.st7{display:inline;}
	.st8{fill:url(#SVGID_00000008151469654524740080000003470522116842533014_);stroke:#A1A8A7;stroke-miterlimit:10;}
	.st9{fill:#AD9E9E;}
	.st10{fill:url(#SVGID_00000070101461427432646000000002276809416860295831_);stroke:#A1A8A7;stroke-miterlimit:10;}
	.st11{fill:url(#SVGID_00000170960506641372755570000004311228636627257008_);stroke:#A1A8A7;stroke-miterlimit:10;}
	.st12{fill:url(#SVGID_00000163785341078922287400000015836146713520536238_);stroke:#A1A8A7;stroke-miterlimit:10;}
	.st13{fill:url(#SVGID_00000126312644394470283490000007588477859389013948_);stroke:#A1A8A7;stroke-miterlimit:10;}
	.st14{fill:url(#SVGID_00000087409477947268831910000001533474250816585151_);stroke:#A1A8A7;stroke-miterlimit:10;}
	.st15{fill:url(#SVGID_00000011741669268548048730000006316621709671078826_);stroke:#A1A8A7;stroke-miterlimit:10;}
	.st16{fill:url(#SVGID_00000121999298994694027730000001961671729030483330_);stroke:#A1A8A7;stroke-miterlimit:10;}
	.st17{fill:url(#SVGID_00000013906856692912004850000007797952564830535074_);stroke:#A1A8A7;stroke-miterlimit:10;}
	.st18{display:none;opacity:0.14;}
	.st19{opacity:0.14;}
	.st20{opacity:0.45;}
	.st21{fill:#77C9B0;}
	.st22{fill:url(#SVGID_00000007429347775784554560000005493287690669456830_);stroke:#A1A8A7;stroke-miterlimit:10;}
	.st23{opacity:0.3;clip-path:url(#SVGID_00000175324819676267759720000004292046065693782684_);}
	.st24{fill:#FFFFFF;}
</style>
<g id="a">
	<g id="b">
	</g>
</g>
<g id="c">
</g>
<g id="d">
</g>
<g id="e">
</g>
<g id="f">
</g>
<g id="g">
</g>
<g id="h">
</g>
<g id="i">
</g>
<g id="j">
</g>
<g id="k">
</g>
<g id="v">
</g>
<g id="w">
</g>
<g>
	<g>
		<path class="st0" d="M586,103.5c-60.6-60.6-141.3-94-227-94c-85.8,0-166.4,33.4-227,94c-60.6,60.6-94,141.3-94,227
			s33.4,166.4,94,227c60.6,60.6,141.3,94,227,94c85.8,0,166.4-33.4,227-94c60.6-60.6,94-141.3,94-227S646.7,164.1,586,103.5z
			 M359,632.4c-166.8,0-301.9-135.2-301.9-301.9S192.2,28.6,359,28.6s301.9,135.2,301.9,301.9S525.8,632.4,359,632.4z"/>
		<path class="st1" d="M586,103.5c-60.6-60.6-141.3-94-227-94c-85.8,0-166.4,33.4-227,94c-60.6,60.6-94,141.3-94,227
			s33.4,166.4,94,227c60.6,60.6,141.3,94,227,94c85.8,0,166.4-33.4,227-94c60.6-60.6,94-141.3,94-227S646.7,164.1,586,103.5z
			 M359,632.4c-166.8,0-301.9-135.2-301.9-301.9S192.2,28.6,359,28.6s301.9,135.2,301.9,301.9S525.8,632.4,359,632.4z"/>
		<linearGradient id="SVGID_1_" gradientUnits="userSpaceOnUse" x1="104.0639" y1="155.8152" x2="602.2685" y2="497.1902">
			<stop  offset="0" style="stop-color:#9B81CF"/>
			<stop  offset="1" style="stop-color:#3B139B"/>
		</linearGradient>
		<circle class="st2" cx="359" cy="330.5" r="301.9"/>
		
			<linearGradient id="SVGID_00000021810964702832954620000018071225656136412544_" gradientUnits="userSpaceOnUse" x1="66.7378" y1="330.5" x2="651.2621" y2="330.5">
			<stop  offset="0" style="stop-color:#4C1DA9"/>
			<stop  offset="1" style="stop-color:#997ECE"/>
		</linearGradient>
		
			<circle style="fill:#31D0E5;stroke:url(#SVGID_00000021810964702832954620000018071225656136412544_);stroke-width:6;stroke-miterlimit:10;" cx="359" cy="330.5" r="289.3"/>
	</g>
	<g>
		<defs>
			<ellipse id="SVGID_00000172402352741699151180000002981052779741471108_" cx="359" cy="330.5" rx="286.6" ry="286.3"/>
		</defs>
		<clipPath id="SVGID_00000028306815173082913910000008808368300304804486_">
			<use xlink:href="#SVGID_00000172402352741699151180000002981052779741471108_"  style="overflow:visible;"/>
		</clipPath>
		<g style="clip-path:url(#SVGID_00000028306815173082913910000008808368300304804486_);">
			<g>
				<path class="st5" d="M675.9,308c0,155.4-142.8,281.3-319,281.3S22.3,477,22.3,321.6s158.4-295,334.6-295S675.9,152.6,675.9,308z
					"/>
				<g id="_x30_09_00000114780895746710513830000012470021093016157115_" class="st6">
					<g class="st7">
						
							<linearGradient id="SVGID_00000171693985099314092410000004854927162956080256_" gradientUnits="userSpaceOnUse" x1="-449.5251" y1="165.5421" x2="-252.4918" y2="165.5421" gradientTransform="matrix(-0.9908 -0.1354 -0.1354 0.9908 6.5889 148.7418)">
							<stop  offset="4.330749e-04" style="stop-color:#FFFFFF"/>
							<stop  offset="0.441" style="stop-color:#FEFEFD"/>
							<stop  offset="0.5997" style="stop-color:#FBFAF6"/>
							<stop  offset="0.7128" style="stop-color:#F6F4EB"/>
							<stop  offset="0.8043" style="stop-color:#EFEBDA"/>
							<stop  offset="0.8826" style="stop-color:#E5E0C4"/>
							<stop  offset="0.9507" style="stop-color:#D9D2A9"/>
							<stop  offset="0.9972" style="stop-color:#CFC692"/>
						</linearGradient>
						
							<path style="fill:url(#SVGID_00000171693985099314092410000004854927162956080256_);stroke:#A1A8A7;stroke-miterlimit:10;" d="
							M423.2,413.4c0,0-1.6-5.7-3.3-10.4c-1.7-4.7-1.8-8.8-1.2-13.1c0,0-5.2,6.7-2.8,17.7c0,0-6.2-9.2-3.4-19.4c0,0-5.6,5.3-3.2,17
							c0,0-7.1-11.1-5.5-23.3c0,0-5.6,5.2-2.4,17.7c0,0-2.7-2.7-4.3-9.9c-1.6-7.2-4.8-9.7-8.6-12.2c-3.8-2.4-11-7.3-12.1-13.9
							c0,0-2.1,13.8,9,25.1c0,0-8.4-3.3-13-18.9c-4.6-15.6-14.8-25.1-24-31.3c-9.2-6.2-37.6-20-40.8-35.3c0,0-2.9,4-0.3,14.8
							c2.5,10.8-3.6,13.4-3.6,13.4s5.8-13.3-4.7-27.2c-5.5-7.3-11-8.7-11.8-14.2c0,0-1,4.3,3.1,11.7c4,7.5,2.7,16.6,0.9,19.2
							c0,0,0.1-17-8.8-27.6c-12.7-15.1-31.8-9.6-36.2-12.5c0,0-11.6,24.8,6.2,44.6c0,0-5.8-5.4-14.4-5.6c0,0,3.8,1.7,10.4,10.4
							c6.6,8.7,17.2,19,30.7,24c0,0-15.1-1.5-25.2-11.9c0,0,5.9,15.3,31.9,24c0,0-13.5-0.3-22.6-5.3c0,0,8,8.2,25.2,10.6
							c0,0-4.7,3.7-14.2,3.1c0,0,2.7,0.5,9.6,6.2c7,5.7,51.3,42.2,91.2,36.9c0,0-5,2.4-6.2,11.2c0,0,4-9.1,16.6-11.1
							c0,0-7.1,5.3-5.6,16.4c0,0,2.8-8.8,12.7-14.6c0,0-1.7,8.5,6,17.8c0,0-2.5-8.7,0.6-17.9c0,0,2.5,10.4,10.9,15.2
							c0,0-4.5-5.5-3.8-15.6c0,0,2.8,9.5,13.5,11.4c0,0-6.4-5-7.2-9.5c0,0,6.3,1,11-3.5L423.2,413.4z"/>
						<path class="st9" d="M449.1,418.2c0,0-47.4,7.5-113.4-32.5c-60.1-36.5-76.3-83.6-76.3-83.6s23.2,47.2,81.3,81
							c66.7,38.8,106.6,27.9,106.6,27.9C448.5,410.7,450,418.1,449.1,418.2z"/>
					</g>
				</g>
				<g id="_x30_10_00000072969265116464866050000000044121721817391543_" class="st6">
					<g class="st7">
						
							<linearGradient id="SVGID_00000111180693125462786300000009479894171428330884_" gradientUnits="userSpaceOnUse" x1="-1023.1364" y1="175.0907" x2="-826.103" y2="175.0907" gradientTransform="matrix(-0.9983 5.802239e-02 5.802239e-02 0.9983 -600.8433 273.3989)">
							<stop  offset="4.330749e-04" style="stop-color:#FFFFFF"/>
							<stop  offset="0.441" style="stop-color:#FEFEFD"/>
							<stop  offset="0.5997" style="stop-color:#FBFAF6"/>
							<stop  offset="0.7128" style="stop-color:#F6F4EB"/>
							<stop  offset="0.8043" style="stop-color:#EFEBDA"/>
							<stop  offset="0.8826" style="stop-color:#E5E0C4"/>
							<stop  offset="0.9507" style="stop-color:#D9D2A9"/>
							<stop  offset="0.9972" style="stop-color:#CFC692"/>
						</linearGradient>
						
							<path style="fill:url(#SVGID_00000111180693125462786300000009479894171428330884_);stroke:#A1A8A7;stroke-miterlimit:10;" d="
							M432.2,429.1c0,0-2.7-5.3-5.3-9.6c-2.6-4.3-3.5-8.3-3.7-12.6c0,0-3.8,7.6,0.7,17.9c0,0-7.9-7.8-7-18.4c0,0-4.4,6.2,0.1,17.3
							c0,0-9.1-9.5-9.9-21.8c0,0-4.5,6.2,1.1,17.8c0,0-3.2-2.1-6.1-8.9c-3-6.8-6.6-8.6-10.8-10.3c-4.2-1.7-12.2-5-14.6-11.3
							c0,0,0.6,14,13.7,22.9c0,0-8.8-1.7-16.4-16.1c-7.5-14.4-19.4-21.8-29.6-26.1c-10.2-4.3-40.7-12.4-46.9-26.8
							c0,0-2,4.4,2.5,14.6c4.6,10.1-1,13.9-1,13.9s3.1-14.2-9.8-25.8c-6.8-6.1-12.5-6.5-14.3-11.6c0,0-0.1,4.4,5.3,10.9
							c5.4,6.5,5.8,15.8,4.6,18.7c0,0-3.1-16.7-13.9-25.3c-15.4-12.3-33-3.3-37.9-5.3c0,0-6.6,26.5,14.6,42.6c0,0-6.8-4.2-15.2-2.8
							c0,0,4.1,0.9,12.2,8.2c8.1,7.3,20.6,15.4,34.7,17.6c0,0-15.1,1.4-27-6.9c0,0,8.7,13.9,36,17.4c0,0-13.3,2.3-23.2-0.8
							c0,0,9.4,6.5,26.8,5.6c0,0-3.9,4.6-13.4,5.8c0,0,2.7-0.1,10.6,4.2c7.9,4.3,58.5,31.5,96.6,18.6c0,0-4.4,3.3-3.9,12.2
							c0,0,2.2-9.7,14.1-14.1c0,0-6,6.6-2.4,17.2c0,0,1.1-9.2,9.6-16.8c0,0,0,8.6,9.3,16.3c0,0-4.1-8-2.9-17.6
							c0,0,4.4,9.7,13.6,12.9c0,0-5.5-4.6-6.7-14.6c0,0,4.6,8.8,15.5,8.6c0,0-7.3-3.6-8.9-8c0,0,6.4-0.2,10.1-5.6L432.2,429.1z"/>
						<path class="st9" d="M458.5,428.8c0,0-45,16.5-117.5-10.1c-66-24.2-91-67.3-91-67.3s31.8,41.8,95.3,63.8
							c72.9,25.3,110,6.9,110,6.9C456.5,421.6,459.4,428.5,458.5,428.8z"/>
					</g>
				</g>
				<g id="_x30_11_00000119088217103739014970000005731037227927750076_" class="st6">
					<g class="st7">
						
							<linearGradient id="SVGID_00000124146400337347138340000006803849857347625398_" gradientUnits="userSpaceOnUse" x1="-963.4678" y1="202.0193" x2="-766.4345" y2="202.0193" gradientTransform="matrix(-0.9994 3.599597e-02 3.599597e-02 0.9994 -538.2497 252.2883)">
							<stop  offset="4.330749e-04" style="stop-color:#FFFFFF"/>
							<stop  offset="0.441" style="stop-color:#FEFEFD"/>
							<stop  offset="0.5997" style="stop-color:#FBFAF6"/>
							<stop  offset="0.7128" style="stop-color:#F6F4EB"/>
							<stop  offset="0.8043" style="stop-color:#EFEBDA"/>
							<stop  offset="0.8826" style="stop-color:#E5E0C4"/>
							<stop  offset="0.9507" style="stop-color:#D9D2A9"/>
							<stop  offset="0.9972" style="stop-color:#CFC692"/>
						</linearGradient>
						
							<path style="fill:url(#SVGID_00000124146400337347138340000006803849857347625398_);stroke:#A1A8A7;stroke-miterlimit:10;" d="
							M432.4,459.8c0,0-2.5-5.3-5-9.7c-2.5-4.4-3.3-8.4-3.5-12.7c0,0-4,7.5,0.3,17.9c0,0-7.7-8-6.6-18.5c0,0-4.6,6.1-0.3,17.3
							c0,0-8.9-9.7-9.4-22c0,0-4.6,6.1,0.7,17.8c0,0-3.1-2.2-5.9-9c-2.8-6.8-6.4-8.8-10.5-10.5c-4.1-1.8-12-5.3-14.3-11.6
							c0,0,0.3,14,13.2,23.2c0,0-8.8-1.9-16-16.4c-7.2-14.6-18.9-22.2-29-26.7c-10.1-4.5-40.4-13.3-46.3-27.8c0,0-2.1,4.4,2.2,14.6
							c4.3,10.2-1.3,13.9-1.3,13.9s3.4-14.1-9.2-26c-6.7-6.3-12.3-6.7-14-11.9c0,0-0.2,4.4,5,11c5.2,6.7,5.5,15.9,4.2,18.8
							c0,0-2.8-16.8-13.4-25.6c-15.1-12.7-32.9-4.1-37.8-6.1c0,0-7.2,26.4,13.7,42.9c0,0-6.7-4.4-15.2-3.1c0,0,4,1,12,8.5
							c8,7.5,20.2,15.8,34.3,18.4c0,0-15.1,1.1-26.9-7.5c0,0,8.4,14,35.6,18.2c0,0-13.4,2-23.2-1.3c0,0,9.2,6.7,26.7,6.2
							c0,0-4,4.5-13.5,5.5c0,0,2.7,0,10.5,4.4c7.8,4.4,57.8,32.8,96.2,20.7c0,0-4.5,3.2-4.2,12.1c0,0,2.4-9.6,14.4-13.8
							c0,0-6.1,6.4-2.7,17.1c0,0,1.3-9.2,10-16.6c0,0-0.2,8.6,8.9,16.5c0,0-3.9-8.1-2.5-17.7c0,0,4.2,9.8,13.3,13.1
							c0,0-5.4-4.7-6.4-14.8c0,0,4.4,8.9,15.3,8.9c0,0-7.2-3.8-8.7-8.2c0,0,6.4-0.1,10.3-5.4L432.4,459.8z"/>
						<path class="st9" d="M458.8,460c0,0-45.4,15.5-117.3-12.6C276,421.8,252,378.1,252,378.1s30.9,42.5,93.9,65.9
							c72.4,26.9,109.8,9.3,109.8,9.3C456.9,452.8,459.6,459.8,458.8,460z"/>
					</g>
				</g>
				<g id="_x30_12_00000090252454472173632930000001687890436022594441_" class="st6">
					<g class="st7">
						
							<linearGradient id="SVGID_00000029027658236578291560000010873352385071621529_" gradientUnits="userSpaceOnUse" x1="-190.6834" y1="313.6794" x2="6.3499" y2="313.6794" gradientTransform="matrix(-0.9734 -0.2293 -0.2293 0.9734 315.8097 133.6151)">
							<stop  offset="4.330749e-04" style="stop-color:#FFFFFF"/>
							<stop  offset="0.441" style="stop-color:#FEFEFD"/>
							<stop  offset="0.5997" style="stop-color:#FBFAF6"/>
							<stop  offset="0.7128" style="stop-color:#F6F4EB"/>
							<stop  offset="0.8043" style="stop-color:#EFEBDA"/>
							<stop  offset="0.8826" style="stop-color:#E5E0C4"/>
							<stop  offset="0.9507" style="stop-color:#D9D2A9"/>
							<stop  offset="0.9972" style="stop-color:#CFC692"/>
						</linearGradient>
						
							<path style="fill:url(#SVGID_00000029027658236578291560000010873352385071621529_);stroke:#A1A8A7;stroke-miterlimit:10;" d="
							M419.4,521.7c0,0-1-5.8-2.3-10.7c-1.3-4.9-0.9-9,0-13.2c0,0-5.8,6.1-4.4,17.3c0,0-5.3-9.8-1.5-19.6c0,0-6,4.7-4.8,16.6
							c0,0-6-11.7-3.2-23.7c0,0-6,4.6-4.1,17.4c0,0-2.4-2.9-3.3-10.3c-0.9-7.3-3.8-10.1-7.4-12.9c-3.5-2.8-10.2-8.3-10.8-15
							c0,0-3.4,13.6,6.6,25.8c0,0-8-4.1-11.1-20.1c-3.1-16-12.3-26.4-20.9-33.4c-8.5-7-35.5-23.5-37.3-39c0,0-3.2,3.7-1.8,14.7
							c1.5,11-4.9,13-4.9,13s7-12.7-2.1-27.5c-4.8-7.8-10.1-9.7-10.4-15.2c0,0-1.4,4.2,1.9,12c3.3,7.8,1.1,16.8-0.9,19.2
							c0,0,1.8-16.9-6.1-28.3c-11.2-16.2-30.7-12.6-34.8-15.9c0,0-13.9,23.5,1.9,45c0,0-5.3-6-13.8-7c0,0,3.6,2.1,9.3,11.4
							c5.7,9.3,15.3,20.6,28.3,26.8c0,0-14.9-3-24-14.3c0,0,4.4,15.8,29.5,27c0,0-13.4-1.6-22-7.4c0,0,7.1,8.9,24.1,13
							c0,0-5,3.3-14.5,1.8c0,0,2.6,0.7,9,7.1c6.4,6.4,47,46.9,87.3,45.4c0,0-5.2,1.9-7.2,10.6c0,0,4.8-8.6,17.6-9.5
							c0,0-7.6,4.6-7.2,15.8c0,0,3.6-8.5,14-13.4c0,0-2.5,8.3,4.2,18.3c0,0-1.6-8.8,2.3-17.7c0,0,1.5,10.6,9.4,16.2
							c0,0-4-5.9-2.3-15.9c0,0,1.8,9.7,12.4,12.6c0,0-5.9-5.6-6.2-10.2c0,0,6.2,1.6,11.3-2.5L419.4,521.7z"/>
						<path class="st9" d="M444.7,528.9c0,0-47.9,3-109.8-43.2c-56.4-42-68-90.5-68-90.5s18.6,49.2,73.2,88.4
							c62.7,45,103.5,38,103.5,38C444.8,521.4,445.6,528.8,444.7,528.9z"/>
					</g>
				</g>
				<g id="_x30_13_00000093158165700556656480000000668880490258515585_" class="st6">
					<g class="st7">
						
							<linearGradient id="SVGID_00000084507332137127641600000014848689061949938063_" gradientUnits="userSpaceOnUse" x1="-431.0856" y1="329.0924" x2="-234.0522" y2="329.0924" gradientTransform="matrix(-0.989 -0.1478 -0.1478 0.989 47.583 148.9767)">
							<stop  offset="4.330749e-04" style="stop-color:#FFFFFF"/>
							<stop  offset="0.441" style="stop-color:#FEFEFD"/>
							<stop  offset="0.5997" style="stop-color:#FBFAF6"/>
							<stop  offset="0.7128" style="stop-color:#F6F4EB"/>
							<stop  offset="0.8043" style="stop-color:#EFEBDA"/>
							<stop  offset="0.8826" style="stop-color:#E5E0C4"/>
							<stop  offset="0.9507" style="stop-color:#D9D2A9"/>
							<stop  offset="0.9972" style="stop-color:#CFC692"/>
						</linearGradient>
						
							<path style="fill:url(#SVGID_00000084507332137127641600000014848689061949938063_);stroke:#A1A8A7;stroke-miterlimit:10;" d="
							M418.4,577.9c0,0-1.5-5.7-3.2-10.5c-1.7-4.7-1.7-8.9-1.1-13.1c0,0-5.3,6.6-3,17.6c0,0-6.1-9.3-3.1-19.4c0,0-5.6,5.2-3.4,16.9
							c0,0-7-11.2-5.2-23.4c0,0-5.6,5.1-2.6,17.6c0,0-2.6-2.7-4.2-10c-1.5-7.2-4.7-9.8-8.4-12.3c-3.8-2.5-10.9-7.4-12-14.1
							c0,0-2.2,13.8,8.7,25.2c0,0-8.3-3.4-12.7-19.1c-4.4-15.6-14.5-25.3-23.6-31.6c-9.1-6.3-37.3-20.5-40.4-35.8
							c0,0-2.9,3.9-0.5,14.8c2.4,10.8-3.8,13.4-3.8,13.4s5.9-13.2-4.3-27.2c-5.4-7.4-10.9-8.9-11.6-14.3c0,0-1,4.3,2.9,11.8
							c3.9,7.5,2.4,16.7,0.7,19.2c0,0,0.4-17-8.4-27.7c-12.5-15.2-31.6-10-36-12.9c0,0-11.9,24.6,5.6,44.6c0,0-5.7-5.5-14.3-5.8
							c0,0,3.8,1.7,10.2,10.6c6.5,8.8,17,19.2,30.4,24.4c0,0-15.1-1.7-25.1-12.3c0,0,5.7,15.3,31.6,24.4c0,0-13.5-0.5-22.6-5.6
							c0,0,7.9,8.3,25.1,10.9c0,0-4.7,3.7-14.3,3c0,0,2.6,0.5,9.5,6.3c6.9,5.8,50.8,42.8,90.7,38c0,0-5,2.3-6.3,11.2
							c0,0,4.1-9,16.7-10.9c0,0-7.2,5.2-5.8,16.3c0,0,2.9-8.8,12.9-14.5c0,0-1.8,8.5,5.7,17.8c0,0-2.4-8.7,0.8-17.8
							c0,0,2.4,10.4,10.7,15.4c0,0-4.5-5.6-3.6-15.7c0,0,2.6,9.6,13.4,11.5c0,0-6.3-5.1-7-9.6c0,0,6.3,1.1,11.1-3.4L418.4,577.9z"/>
						<path class="st9" d="M444.3,583c0,0-47.4,6.9-113-33.9c-59.7-37.2-75.3-84.5-75.3-84.5s22.6,47.5,80.2,82
							c66.2,39.7,106.3,29.3,106.3,29.3C443.8,575.5,445.2,582.8,444.3,583z"/>
					</g>
				</g>
				<g id="_x30_14_00000084490228382335698020000009732567149882532784_" class="st6">
					<g class="st7">
						
							<linearGradient id="SVGID_00000183951279358380882400000013101974820795506336_" gradientUnits="userSpaceOnUse" x1="-2209.8376" y1="665.9598" x2="-2012.8043" y2="665.9598" gradientTransform="matrix(-0.8946 0.4468 0.4468 0.8946 -1835.3821 928.2428)">
							<stop  offset="4.330749e-04" style="stop-color:#FFFFFF"/>
							<stop  offset="0.441" style="stop-color:#FEFEFD"/>
							<stop  offset="0.5997" style="stop-color:#FBFAF6"/>
							<stop  offset="0.7128" style="stop-color:#F6F4EB"/>
							<stop  offset="0.8043" style="stop-color:#EFEBDA"/>
							<stop  offset="0.8826" style="stop-color:#E5E0C4"/>
							<stop  offset="0.9507" style="stop-color:#D9D2A9"/>
							<stop  offset="0.9972" style="stop-color:#CFC692"/>
						</linearGradient>
						
							<path style="fill:url(#SVGID_00000183951279358380882400000013101974820795506336_);stroke:#A1A8A7;stroke-miterlimit:10;" d="
							M456.3,573.1c0,0-4.5-3.8-8.6-6.7c-4.1-2.9-6.5-6.3-8.4-10.1c0,0-0.5,8.4,7.7,16.1c0,0-10.4-4.1-13.7-14.1
							c0,0-1.6,7.5,6.9,15.8c0,0-12.1-5.2-17.7-16.2c0,0-1.7,7.4,8,15.9c0,0-3.7-0.7-9.1-5.8c-5.4-5-9.4-5.3-14-5.2
							c-4.5,0.1-13.2,0.2-17.9-4.7c0,0,6.1,12.6,21.6,15.6c0,0-8.8,2-21.4-8.3c-12.6-10.3-26.4-12.4-37.4-12.3
							c-11,0.1-42.3,4.7-53.6-6.1c0,0-0.1,4.9,8,12.4c8.2,7.5,4.6,13.1,4.6,13.1s-2.7-14.3-19.2-19.8c-8.7-2.9-14-1-17.7-5.1
							c0,0,1.6,4.1,9.1,8c7.5,3.9,11.6,12.3,11.6,15.4c0,0-9.5-14.1-22.8-17.8c-19-5.3-31.7,10-36.9,10.1c0,0,4.4,27,30.2,33.3
							c0,0-7.9-1.2-15.1,3.5c0,0,4.1-0.7,14.5,2.8c10.4,3.5,24.9,6,38.9,2.5c0,0-13.3,7.2-27.6,4.4c0,0,13.5,9.3,39.9,1.8
							c0,0-11.4,7.3-21.7,8.4c0,0,11.2,2.3,26.8-5.5c0,0-1.8,5.7-10,10.6c0,0,2.4-1.1,11.4-0.3c9,0.8,66.2,5.9,96.1-21
							c0,0-2.8,4.8,1.2,12.8c0,0-1.8-9.7,7.4-18.5c0,0-2.9,8.4,4.6,16.7c0,0-2.7-8.9,2.2-19.3c0,0,3.4,8,14.9,11.3
							c0,0-6.9-5.8-9.6-15.1c0,0,7.9,7.2,17.6,6.4c0,0-6.9-2-11.9-10.8c0,0,7.7,6.3,17.6,1.8c0,0-8.1-0.5-11.3-3.8
							c0,0,5.8-2.7,7.1-9.1L456.3,573.1z"/>
						<path class="st9" d="M480.4,562.4c0,0-34.9,32.9-112,37.1c-70.2,3.8-110.2-26-110.2-26s45.7,25.9,112.8,21.1
							c77-5.5,103.8-37,103.8-37C475.7,556.6,481.1,561.8,480.4,562.4z"/>
					</g>
				</g>
				<g id="_x30_15_00000153673183955712670400000001201557766964622736_" class="st6">
					<g class="st7">
						
							<linearGradient id="SVGID_00000075145317099757587920000013824817038790135695_" gradientUnits="userSpaceOnUse" x1="-859.5938" y1="-99.1463" x2="-662.5604" y2="-99.1463" gradientTransform="matrix(-0.9998 -2.129609e-02 -2.129609e-02 0.9998 -402.8195 126.5125)">
							<stop  offset="4.330749e-04" style="stop-color:#FFFFFF"/>
							<stop  offset="0.441" style="stop-color:#FEFEFD"/>
							<stop  offset="0.5997" style="stop-color:#FBFAF6"/>
							<stop  offset="0.7128" style="stop-color:#F6F4EB"/>
							<stop  offset="0.8043" style="stop-color:#EFEBDA"/>
							<stop  offset="0.8826" style="stop-color:#E5E0C4"/>
							<stop  offset="0.9507" style="stop-color:#D9D2A9"/>
							<stop  offset="0.9972" style="stop-color:#CFC692"/>
						</linearGradient>
						
							<path style="fill:url(#SVGID_00000075145317099757587920000013824817038790135695_);stroke:#A1A8A7;stroke-miterlimit:10;" d="
							M456.9,86c0,0-2.2-5.5-4.5-10c-2.2-4.5-2.8-8.6-2.7-12.9c0,0-4.4,7.2-0.7,17.9c0,0-7.3-8.5-5.6-18.9c0,0-4.9,5.9-1.3,17.2
							c0,0-8.3-10.2-8.1-22.5c0,0-4.9,5.8-0.3,17.8c0,0-3-2.4-5.4-9.3c-2.4-7-5.9-9.1-9.9-11.1c-4-2-11.7-6-13.6-12.4
							c0,0-0.5,14,11.8,23.9c0,0-8.7-2.4-15-17.3c-6.4-15-17.6-23.3-27.4-28.3c-9.8-5.1-39.6-15.6-44.6-30.4c0,0-2.4,4.3,1.3,14.7
							c3.7,10.5-2.1,13.8-2.1,13.8s4.2-13.9-7.7-26.5c-6.3-6.6-11.9-7.4-13.3-12.7c0,0-0.5,4.3,4.4,11.3c4.9,7,4.5,16.2,3.1,19
							c0,0-1.8-16.9-11.9-26.4c-14.4-13.5-32.7-5.9-37.3-8.3c0,0-8.7,25.9,11.2,43.6c0,0-6.4-4.7-15-4c0,0,4,1.3,11.5,9.2
							c7.5,7.9,19.3,16.9,33.2,20.3c0,0-15.2,0.2-26.4-9c0,0,7.6,14.5,34.5,20.2c0,0-13.5,1.2-23.1-2.7c0,0,8.8,7.2,26.3,7.7
							c0,0-4.2,4.2-13.8,4.7c0,0,2.7,0.2,10.3,5c7.6,4.9,55.8,36.1,94.8,26.2c0,0-4.7,2.9-4.8,11.9c0,0,2.9-9.5,15.2-12.9
							c0,0-6.5,6.1-3.7,16.9c0,0,1.8-9.1,10.9-16c0,0-0.7,8.6,7.9,17c0,0-3.4-8.3-1.5-17.8c0,0,3.7,10,12.6,13.9c0,0-5.1-5-5.5-15.1
							c0,0,3.8,9.1,14.8,9.8c0,0-6.9-4.2-8.2-8.6c0,0,6.4,0.3,10.6-4.8L456.9,86z"/>
						<path class="st9" d="M483.2,87.7c0,0-46.2,12.9-116.4-19.3C302.9,39,281.5-6,281.5-6s28.4,44.2,90,71.2
							c70.7,31,109.1,15.6,109.1,15.6C481.7,80.4,484.1,87.5,483.2,87.7z"/>
					</g>
				</g>
				<g id="_x30_16_00000085931716109240104720000012453079751216233359_" class="st6">
					<g class="st7">
						
							<linearGradient id="SVGID_00000048498035452931888480000008267237665577509796_" gradientUnits="userSpaceOnUse" x1="-1830.6854" y1="94.1274" x2="-1633.6521" y2="94.1274" gradientTransform="matrix(-0.9531 0.3027 0.3027 0.9531 -1317.3762 535.9622)">
							<stop  offset="4.330749e-04" style="stop-color:#FFFFFF"/>
							<stop  offset="0.441" style="stop-color:#FEFEFD"/>
							<stop  offset="0.5997" style="stop-color:#FBFAF6"/>
							<stop  offset="0.7128" style="stop-color:#F6F4EB"/>
							<stop  offset="0.8043" style="stop-color:#EFEBDA"/>
							<stop  offset="0.8826" style="stop-color:#E5E0C4"/>
							<stop  offset="0.9507" style="stop-color:#D9D2A9"/>
							<stop  offset="0.9972" style="stop-color:#CFC692"/>
						</linearGradient>
						
							<path style="fill:url(#SVGID_00000048498035452931888480000008267237665577509796_);stroke:#A1A8A7;stroke-miterlimit:10;" d="
							M467.3,110.3c0,0-3.9-4.5-7.5-8c-3.6-3.5-5.4-7.2-6.7-11.3c0,0-1.8,8.3,5.1,17.1c0,0-9.6-5.7-11.4-16.1c0,0-2.8,7.1,4.4,16.7
							c0,0-11.2-7-15-18.7c0,0-2.8,7.1,5.4,17c0,0-3.6-1.3-8.1-7.1c-4.5-5.8-8.5-6.7-13-7.3c-4.5-0.6-13-1.9-16.9-7.4
							c0,0,4.1,13.4,18.9,18.8c0,0-9,0.6-19.8-11.5c-10.8-12.1-24.2-16.3-35.1-18c-10.9-1.6-42.5-2-52-14.4c0,0-0.9,4.8,6,13.5
							c6.9,8.7,2.5,13.7,2.5,13.7s-0.5-14.5-15.9-22.6c-8.1-4.2-13.7-3.2-16.7-7.7c0,0,0.9,4.3,7.8,9.3c6.8,5,9.5,13.9,9.1,17
							c0,0-7.2-15.4-19.7-21.1c-18-8.2-32.8,4.9-38,4.2c0,0,0.2,27.3,24.7,37.6c0,0-7.6-2.4-15.4,1.1c0,0,4.2-0.1,13.8,5
							c9.7,5.1,23.7,9.8,38,8.5c0,0-14.3,5.1-27.9,0c0,0,11.9,11.3,39.1,8c0,0-12.4,5.5-22.7,4.9c0,0,10.7,4,27.3-1.2
							c0,0-2.6,5.4-11.5,8.9c0,0,2.6-0.7,11.3,1.4c8.7,2.2,64.4,16.1,98.2-5.8c0,0-3.5,4.3-0.7,12.8c0,0-0.3-9.9,10.2-17.1
							c0,0-4.1,7.8,2,17.2c0,0-1.2-9.2,5.2-18.7c0,0,2.1,8.4,13,13.5c0,0-5.9-6.8-7.2-16.4c0,0,6.7,8.3,16.4,9.1
							c0,0-6.5-3.1-10.1-12.5c0,0,6.6,7.4,17.1,4.5c0,0-7.9-1.7-10.6-5.5c0,0,6.1-1.8,8.4-7.9L467.3,110.3z"/>
						<path class="st9" d="M492.7,103.5c0,0-39.6,27.1-116.4,19.3c-70-7.1-104.8-42.8-104.8-42.8s41.2,32.7,108.2,38.3
							C456.6,124.8,488,97.8,488,97.8C489,97,493.5,103,492.7,103.5z"/>
					</g>
				</g>
				<g id="_x30_17_00000052088610285070463250000005403790679556142488_" class="st6">
					<g class="st7">
						
							<linearGradient id="SVGID_00000121976092621200625250000009795976755628919213_" gradientUnits="userSpaceOnUse" x1="-566.5553" y1="16.5796" x2="-369.5219" y2="16.5796" gradientTransform="matrix(-0.9926 -0.1216 -0.1216 0.9926 -106.0578 63.4307)">
							<stop  offset="4.330749e-04" style="stop-color:#FFFFFF"/>
							<stop  offset="0.441" style="stop-color:#FEFEFD"/>
							<stop  offset="0.5997" style="stop-color:#FBFAF6"/>
							<stop  offset="0.7128" style="stop-color:#F6F4EB"/>
							<stop  offset="0.8043" style="stop-color:#EFEBDA"/>
							<stop  offset="0.8826" style="stop-color:#E5E0C4"/>
							<stop  offset="0.9507" style="stop-color:#D9D2A9"/>
							<stop  offset="0.9972" style="stop-color:#CFC692"/>
						</linearGradient>
						
							<path style="fill:url(#SVGID_00000121976092621200625250000009795976755628919213_);stroke:#A1A8A7;stroke-miterlimit:10;" d="
							M448.5,188.7c0,0-1.7-5.7-3.5-10.4c-1.8-4.7-1.9-8.8-1.4-13.1c0,0-5.1,6.7-2.5,17.7c0,0-6.4-9.1-3.6-19.4c0,0-5.5,5.3-3,17
							c0,0-7.3-11-5.8-23.2c0,0-5.5,5.3-2.1,17.7c0,0-2.7-2.7-4.4-9.8c-1.7-7.2-4.9-9.7-8.8-12.1c-3.8-2.4-11.1-7.1-12.3-13.7
							c0,0-1.9,13.8,9.4,25c0,0-8.4-3.2-13.2-18.7c-4.8-15.5-15.2-24.9-24.4-30.9c-9.3-6-37.8-19.5-41.3-34.7c0,0-2.8,4-0.1,14.8
							c2.7,10.8-3.4,13.5-3.4,13.5s5.6-13.4-5-27.1c-5.6-7.2-11.1-8.6-12-14c0,0-0.9,4.3,3.2,11.7c4.1,7.4,2.9,16.6,1.2,19.2
							c0,0-0.1-17-9.2-27.4c-12.9-14.9-31.9-9.2-36.3-12c0,0-11.2,24.9,6.8,44.5c0,0-5.9-5.3-14.5-5.4c0,0,3.8,1.6,10.5,10.3
							c6.7,8.6,17.5,18.8,31,23.6c0,0-15.1-1.3-25.4-11.6c0,0,6.1,15.2,32.3,23.6c0,0-13.5-0.1-22.7-5c0,0,8.1,8.1,25.4,10.3
							c0,0-4.6,3.8-14.2,3.3c0,0,2.7,0.4,9.7,6c7,5.6,51.9,41.5,91.7,35.6c0,0-5,2.4-6,11.3c0,0,3.9-9.1,16.4-11.3
							c0,0-7,5.4-5.4,16.5c0,0,2.7-8.9,12.5-14.8c0,0-1.6,8.5,6.2,17.7c0,0-2.6-8.6,0.3-17.9c0,0,2.6,10.4,11.1,15.1
							c0,0-4.6-5.5-4-15.6c0,0,2.9,9.5,13.7,11.2c0,0-6.5-4.9-7.3-9.4c0,0,6.3,0.9,11-3.7L448.5,188.7z"/>
						<path class="st9" d="M474.4,193.1c0,0-47.2,8.2-113.8-30.9c-60.6-35.6-77.5-82.5-77.5-82.5s23.8,46.9,82.4,79.9
							c67.2,37.9,107,26.5,107,26.5C473.7,185.6,475.3,192.9,474.4,193.1z"/>
					</g>
				</g>
				
					<ellipse transform="matrix(0.9963 -8.605811e-02 8.605811e-02 0.9963 -54.7811 27.5918)" class="st18" cx="292.6" cy="649.2" rx="56.5" ry="13.1"/>
				
					<ellipse transform="matrix(0.9874 -0.1583 0.1583 0.9874 -97.2086 92.6499)" class="st19" cx="533.1" cy="656.6" rx="56.5" ry="13.3"/>
				<ellipse transform="matrix(0.9922 -0.1249 0.1249 0.9922 -75.789 30.806)" class="st19" cx="207.9" cy="620" rx="34.1" ry="9"/>
				<g class="st20">
					<path class="st21" d="M127.5,524.1c0,0,4.7-7.8,3.6-12.5c-1.4-5.7,1.2-2.1,1.2-2.1l0.5,4.8l5-1.9c0,0-5.5,2.2-4.5,6.1
						c1,3.9,2.6,5.7,2.6,5.7L127.5,524.1z"/>
				</g>
			</g>
		</g>
		
			<g id="_x30_18_00000031929780435971045930000011045793402293572024_" style="clip-path:url(#SVGID_00000028306815173082913910000008808368300304804486_);">
			<g>
				
					<linearGradient id="SVGID_00000014620769646353714140000014631647825965481889_" gradientUnits="userSpaceOnUse" x1="536.4414" y1="-711.0623" x2="733.4747" y2="-711.0623" gradientTransform="matrix(-0.8357 -0.5491 -0.5491 0.8357 193.7995 1276.3647)">
					<stop  offset="4.330749e-04" style="stop-color:#FFFFFF"/>
					<stop  offset="0.441" style="stop-color:#FEFEFD"/>
					<stop  offset="0.5997" style="stop-color:#FBFAF6"/>
					<stop  offset="0.7128" style="stop-color:#F6F4EB"/>
					<stop  offset="0.8043" style="stop-color:#EFEBDA"/>
					<stop  offset="0.8826" style="stop-color:#E5E0C4"/>
					<stop  offset="0.9507" style="stop-color:#D9D2A9"/>
					<stop  offset="0.9972" style="stop-color:#CFC692"/>
				</linearGradient>
				<path style="fill:url(#SVGID_00000014620769646353714140000014631647825965481889_);stroke:#A1A8A7;stroke-miterlimit:10;" d="
					M113.1,420.7c0,0,1-5.8,1.5-10.8c0.5-5,2.2-8.8,4.5-12.4c0,0-7.6,3.8-10.1,14.7c0,0-1.7-11,5.3-19c0,0-7.3,2.3-10.2,13.9
					c0,0-1.6-13.1,5.1-23.4c0,0-7.3,2.3-9.8,14.9c0,0-1.3-3.6,0.4-10.8c1.7-7.2-0.1-10.8-2.5-14.7c-2.4-3.8-6.8-11.3-5-17.8
					c0,0-7.8,11.6-2.7,26.5c0,0-6.1-6.6-3.5-22.7c2.6-16.1-2.5-29.1-8.2-38.6c-5.6-9.5-25.3-34.2-21.6-49.4c0,0-4.3,2.3-6.7,13.2
					c-2.4,10.8-9.1,10.6-9.1,10.6s10.9-9.5,7.5-26.5c-1.8-9-6.2-12.6-4.5-17.8c0,0-2.7,3.4-2.3,11.9c0.4,8.5-4.8,16.2-7.5,17.7
					c0,0,7.4-15.3,4-28.6c-5-19.1-24.5-22.4-27.2-26.9c0,0-21.1,17.4-13.7,42.9c0,0-2.9-7.4-10.6-11.3c0,0,2.7,3.2,4.9,13.9
					c2.2,10.7,7.3,24.6,17.3,34.9c0,0-12.9-7.9-17.6-21.6c0,0-1.3,16.3,18.5,35.4c0,0-12.1-6.1-18.2-14.5c0,0,3.7,10.8,18.2,20.5
					c0,0-5.8,1.4-14.2-3.3c0,0,2.2,1.6,6,9.7c3.8,8.2,28.1,60.2,66.4,72.6c0,0-5.5,0-10.4,7.5c0,0,7.5-6.5,19.8-2.9
					c0,0-8.7,1.7-12.1,12.4c0,0,6.3-6.7,17.8-7.7c0,0-5.2,6.9-2.3,18.6c0,0,1.5-8.9,8.2-15.9c0,0-2.2,10.5,3.3,18.4
					c0,0-1.7-6.9,3.3-15.7c0,0-1.6,9.8,7.3,16.1c0,0-3.6-7.3-2.4-11.7c0,0,5.3,3.6,11.5,1.6L113.1,420.7z"/>
				<path class="st9" d="M134.4,436.1c0,0-46-13.6-88.3-78.2C7.5,299.1,13.2,249.6,13.2,249.6s0.6,52.6,38.4,108.1
					c43.5,63.8,84.2,71.1,84.2,71.1C137.1,429.2,135.3,436.4,134.4,436.1z"/>
			</g>
		</g>
		<g style="opacity:0.3;clip-path:url(#SVGID_00000028306815173082913910000008808368300304804486_);">
			<g>
				<path class="st24" d="M117,242.6c0,0,7.3-33.9,45.2-8.5s-35.8,28.2-69.3,22S117,242.6,117,242.6z"/>
				<path class="st24" d="M189.5,213.3c31.7,15.9,3,22.8-23.4,21.3S157.8,197.4,189.5,213.3z"/>
			</g>
			<g>
				<path class="st24" d="M529.4,382.8c0,0,7.3-33.9,45.2-8.5c37.9,25.4-35.8,28.2-69.3,22S529.4,382.8,529.4,382.8z"/>
				<path class="st24" d="M601.9,353.5c31.7,15.9,3,22.8-23.4,21.3S570.2,337.6,601.9,353.5z"/>
			</g>
		</g>
	</g>
</g>
</svg>
