<?xml version="1.0" encoding="utf-8"?>
<!-- Generator: Adobe Illustrator 26.2.1, SVG Export Plug-In . SVG Version: 6.00 Build 0)  -->
<svg version="1.1" id="Layer_1" xmlns="http://www.w3.org/2000/svg" xmlns:xlink="http://www.w3.org/1999/xlink" x="0px" y="0px"
	 viewBox="0 0 718 661" style="enable-background:new 0 0 718 661;" xml:space="preserve">
<style type="text/css">
	.st0{fill:url(#SVGID_1_);}
	.st1{fill:#31D0E5;stroke:url(#SVGID_00000065048068297813692980000000442883817253779882_);stroke-width:6;stroke-miterlimit:10;}
	.st2{clip-path:url(#SVGID_00000008841143159764309520000018005847469679582905_);}
	.st3{fill:#31D0E5;}
	.st4{opacity:0.14;enable-background:new    ;}
	.st5{opacity:0.45;}
	.st6{fill:url(#SVGID_00000069374522252120600940000008416054033536761505_);stroke:#A1A8A7;stroke-miterlimit:10;}
	.st7{fill:#AD9E9E;}
	.st8{opacity:0.3;}
	.st9{fill:#FFFFFF;}
</style>
<g id="a">
	<g id="b">
	</g>
</g>
<g id="c">
</g>
<g id="d">
</g>
<g id="e">
	<g>
		<g>
			
				<linearGradient id="SVGID_1_" gradientUnits="userSpaceOnUse" x1="104.0614" y1="506.1821" x2="602.267" y2="164.8152" gradientTransform="matrix(1 0 0 -1 0 662)">
				<stop  offset="0" style="stop-color:#9B81CF"/>
				<stop  offset="1" style="stop-color:#3B139B"/>
			</linearGradient>
			<circle class="st0" cx="359" cy="330.5" r="301.9"/>
			
				<linearGradient id="SVGID_00000168075881424319431830000013482463289790399665_" gradientUnits="userSpaceOnUse" x1="66.74" y1="331.5" x2="651.26" y2="331.5" gradientTransform="matrix(1 0 0 -1 0 662)">
				<stop  offset="0" style="stop-color:#4C1DA9"/>
				<stop  offset="1" style="stop-color:#997ECE"/>
			</linearGradient>
			
				<circle style="fill:#31D0E5;stroke:url(#SVGID_00000168075881424319431830000013482463289790399665_);stroke-width:6;stroke-miterlimit:10;" cx="359" cy="330.5" r="289.3"/>
		</g>
		<g>
			<defs>
				<ellipse id="SVGID_00000023997098446400625350000000473811974763365561_" cx="359" cy="330.5" rx="286.6" ry="286.3"/>
			</defs>
			<clipPath id="SVGID_00000076576387185292189210000000006322540752987295_">
				<use xlink:href="#SVGID_00000023997098446400625350000000473811974763365561_"  style="overflow:visible;"/>
			</clipPath>
			<g style="clip-path:url(#SVGID_00000076576387185292189210000000006322540752987295_);">
				<g>
					<path class="st3" d="M676,308c0,155.4-142.8,281.3-319,281.3S22.3,477,22.3,321.6s158.4-295,334.6-295S676,152.6,676,308
						L676,308z"/>
					
						<ellipse transform="matrix(0.9874 -0.1583 0.1583 0.9874 -97.2344 92.6898)" class="st4" cx="533.1" cy="656.6" rx="56.5" ry="13.3"/>
					
						<ellipse transform="matrix(0.9922 -0.1248 0.1248 0.9922 -75.765 30.7903)" class="st4" cx="207.8" cy="620" rx="34.1" ry="9"/>
					<g class="st5">
						<path d="M127.5,524.1c0,0,4.7-7.8,3.6-12.5c-1.4-5.7,1.2-2.1,1.2-2.1l0.5,4.8l4.9-1.9c0,0-5.5,2.2-4.5,6.1
							c1,3.9,2.6,5.7,2.6,5.7L127.5,524.1L127.5,524.1z"/>
					</g>
				</g>
				<g id="i">
					<g>
						
							<linearGradient id="SVGID_00000075862872696524563710000013779151466423529391_" gradientUnits="userSpaceOnUse" x1="-1853.8562" y1="-1683.5215" x2="-1656.8" y2="-1683.5215" gradientTransform="matrix(-0.9611 0.2763 -0.2763 -0.9611 -1803.2736 -808.5294)">
							<stop  offset="0" style="stop-color:#FFFFFF"/>
							<stop  offset="0.44" style="stop-color:#FEFEFD"/>
							<stop  offset="0.6" style="stop-color:#FBFAF6"/>
							<stop  offset="0.71" style="stop-color:#F5F4EA"/>
							<stop  offset="0.8" style="stop-color:#EEEBD9"/>
							<stop  offset="0.88" style="stop-color:#E4DFC3"/>
							<stop  offset="0.95" style="stop-color:#D9D2A9"/>
							<stop  offset="1" style="stop-color:#CFC692"/>
						</linearGradient>
						
							<path style="fill:url(#SVGID_00000075862872696524563710000013779151466423529391_);stroke:#A1A8A7;stroke-miterlimit:10;" d="
							M453.8,336.2c0,0-3.8-4.6-7.2-8.2c-3.5-3.6-5.2-7.4-6.4-11.5c0,0-2.1,8.2,4.6,17.3c0,0-9.4-5.9-10.9-16.4c0,0-3,7,3.9,16.8
							c0,0-11-7.3-14.4-19.1c0,0-3,7,5,17.1c0,0-3.5-1.4-7.9-7.3c-4.4-5.9-8.3-7-12.8-7.7c-4.5-0.7-13-2.2-16.7-7.8
							c0,0,3.7,13.5,18.4,19.3c0,0-9,0.3-19.5-12.1c-10.5-12.4-23.7-17-34.6-18.9c-10.9-1.9-42.4-3.1-51.6-15.8c0,0-1,4.8,5.6,13.6
							c6.7,8.9,2.1,13.8,2.1,13.8s-0.1-14.5-15.2-23c-8-4.5-13.6-3.5-16.5-8.2c0,0,0.8,4.3,7.5,9.5c6.7,5.2,9.1,14.1,8.6,17.2
							c0,0-6.7-15.6-19.2-21.7c-17.7-8.7-32.9,4-38.1,3.2c0,0-0.6,27.3,23.6,38.3c0,0-7.5-2.6-15.5,0.7c0,0,4.2,0,13.7,5.4
							c9.5,5.3,23.4,10.5,37.8,9.6c0,0-14.4,4.7-27.9-0.7c0,0,11.5,11.6,38.9,9.1c0,0-12.5,5.2-22.9,4.3c0,0,10.6,4.3,27.4-0.5
							c0,0-2.8,5.3-11.7,8.6c0,0,2.6-0.6,11.3,1.8s64,17.9,98.3-3.1c0,0-3.6,4.2-1.1,12.8c0,0,0-9.9,10.7-16.9c0,0-4.4,7.7,1.5,17.3
							c0,0-1-9.2,5.7-18.5c0,0,1.9,8.4,12.6,13.9c0,0-5.8-6.9-6.7-16.5c0,0,6.5,8.5,16.1,9.5c0,0-6.4-3.2-9.8-12.8
							c0,0,6.4,7.6,17,4.9c0,0-7.9-2-10.4-5.8c0,0,6.2-1.6,8.7-7.7L453.8,336.2L453.8,336.2z"/>
						<path class="st7" d="M479.5,330.1c0,0-40.3,26-116.9,16.1c-69.8-9.1-103.6-45.6-103.6-45.6s40.3,33.8,107.1,41.3
							c76.7,8.6,108.8-17.5,108.8-17.5C475.9,323.5,480.2,329.6,479.5,330.1L479.5,330.1z"/>
					</g>
				</g>
				<g class="st8">
					<g>
						<path class="st9" d="M117,382.6c0,0,7.3-33.9,45.2-8.5c37.9,25.4-35.8,28.2-69.3,22S117,382.6,117,382.6z"/>
						<path class="st9" d="M189.5,353.3c31.7,15.9,3,22.8-23.4,21.3S157.8,337.4,189.5,353.3z"/>
					</g>
					<g>
						<path class="st9" d="M529.4,522.8c0,0,7.3-33.9,45.2-8.5s-35.8,28.2-69.3,22C471.9,530.1,529.4,522.7,529.4,522.8L529.4,522.8
							z"/>
						<path class="st9" d="M601.9,493.5c31.7,15.9,3,22.8-23.4,21.3C552.1,513.3,570.2,477.6,601.9,493.5L601.9,493.5z"/>
					</g>
				</g>
				<g class="st8">
					<g>
						<path class="st9" d="M117,72.6c0,0,7.3-33.9,45.2-8.5s-35.8,28.2-69.3,22.1C59.4,79.9,117,72.6,117,72.6z"/>
						<path class="st9" d="M189.5,43.3c31.7,15.9,3,22.8-23.4,21.3C139.7,63.1,157.8,27.4,189.5,43.3z"/>
					</g>
					<g>
						<path class="st9" d="M529.4,212.8c0,0,7.3-33.9,45.2-8.5s-35.8,28.2-69.3,22.1S529.4,212.8,529.4,212.8z"/>
						<path class="st9" d="M601.9,183.5c31.7,15.9,3,22.8-23.4,21.3C552.1,203.3,570.2,167.6,601.9,183.5z"/>
					</g>
				</g>
			</g>
		</g>
	</g>
</g>
<g id="k">
</g>
<g id="l">
</g>
<g id="m">
</g>
<g id="n">
</g>
<g id="o">
</g>
<g id="p">
</g>
<g id="q">
</g>
<g id="r">
</g>
<g id="s">
</g>
</svg>
