<?xml version="1.0" encoding="utf-8"?>
<!-- Generator: Adobe Illustrator 26.2.1, SVG Export Plug-In . SVG Version: 6.00 Build 0)  -->
<svg version="1.1" id="Layer_1" xmlns="http://www.w3.org/2000/svg" xmlns:xlink="http://www.w3.org/1999/xlink" x="0px" y="0px"
	 viewBox="0 0 718 661" style="enable-background:new 0 0 718 661;" xml:space="preserve">
<style type="text/css">
	.st0{fill:url(#SVGID_1_);}
	.st1{fill:#31D0E5;stroke:url(#SVGID_00000032627668106622333020000006403472072635357612_);stroke-width:6;stroke-miterlimit:10;}
	.st2{clip-path:url(#SVGID_00000170269052958685415960000008514138218370521481_);}
	.st3{fill:#31D0E5;}
	.st4{opacity:0.14;enable-background:new    ;}
	.st5{fill:#77C9B0;}
	.st6{fill:url(#SVGID_00000166677068237276857650000015137596517028411020_);stroke:#A1A8A7;stroke-miterlimit:10;}
	.st7{fill:#AD9E9E;}
	.st8{opacity:0.3;}
	.st9{fill:#FFFFFF;}
</style>
<g id="a">
	<g id="b">
	</g>
</g>
<g id="c">
</g>
<g id="d">
</g>
<g id="e">
</g>
<g id="f">
</g>
<g id="g">
	<g>
		<g>
			
				<linearGradient id="SVGID_1_" gradientUnits="userSpaceOnUse" x1="104.0614" y1="506.1821" x2="602.267" y2="164.8152" gradientTransform="matrix(1 0 0 -1 0 662)">
				<stop  offset="0" style="stop-color:#9B81CF"/>
				<stop  offset="1" style="stop-color:#3B139B"/>
			</linearGradient>
			<circle class="st0" cx="359" cy="330.5" r="301.9"/>
			
				<linearGradient id="SVGID_00000111911185313378767570000015868252453064518292_" gradientUnits="userSpaceOnUse" x1="66.74" y1="331.5" x2="651.26" y2="331.5" gradientTransform="matrix(1 0 0 -1 0 662)">
				<stop  offset="0" style="stop-color:#4C1DA9"/>
				<stop  offset="1" style="stop-color:#997ECE"/>
			</linearGradient>
			
				<circle style="fill:#31D0E5;stroke:url(#SVGID_00000111911185313378767570000015868252453064518292_);stroke-width:6;stroke-miterlimit:10;" cx="359" cy="330.5" r="289.3"/>
		</g>
		<g>
			<defs>
				<ellipse id="SVGID_00000111897705455499841490000016895873459650592433_" cx="359" cy="330.5" rx="286.6" ry="286.3"/>
			</defs>
			<clipPath id="SVGID_00000041291718656429588310000012644583007231828360_">
				<use xlink:href="#SVGID_00000111897705455499841490000016895873459650592433_"  style="overflow:visible;"/>
			</clipPath>
			<g style="clip-path:url(#SVGID_00000041291718656429588310000012644583007231828360_);">
				<g>
					<path class="st3" d="M676,308c0,155.4-142.8,281.3-319,281.3S22.3,477,22.3,321.6s158.4-295,334.6-295S676,152.6,676,308
						L676,308z"/>
					
						<ellipse transform="matrix(0.9874 -0.1583 0.1583 0.9874 -97.2344 92.6898)" class="st4" cx="533.1" cy="656.6" rx="56.5" ry="13.3"/>
					
						<ellipse transform="matrix(0.9922 -0.1248 0.1248 0.9922 -75.765 30.7903)" class="st4" cx="207.8" cy="620" rx="34.1" ry="9"/>
					<g>
						<path class="st5" d="M127.5,524.1c0,0,4.7-7.8,3.6-12.5c-1.4-5.7,1.2-2.1,1.2-2.1l0.5,4.8l4.9-1.9c0,0-5.5,2.2-4.5,6.1
							c1,3.9,2.6,5.7,2.6,5.7L127.5,524.1L127.5,524.1z"/>
					</g>
				</g>
				<g id="k">
					<g>
						
							<linearGradient id="SVGID_00000009566190278982614400000004730542225294999986_" gradientUnits="userSpaceOnUse" x1="-3719.5891" y1="-5376.7935" x2="-3522.5696" y2="-5376.7935" gradientTransform="matrix(-0.6043 0.7967 -0.7967 -0.6043 -5948.1763 -38.0293)">
							<stop  offset="0" style="stop-color:#FFFFFF"/>
							<stop  offset="0.44" style="stop-color:#FEFEFD"/>
							<stop  offset="0.6" style="stop-color:#FBFAF6"/>
							<stop  offset="0.71" style="stop-color:#F5F4EA"/>
							<stop  offset="0.8" style="stop-color:#EEEBD9"/>
							<stop  offset="0.88" style="stop-color:#E4DFC3"/>
							<stop  offset="0.95" style="stop-color:#D9D2A9"/>
							<stop  offset="1" style="stop-color:#CFC692"/>
						</linearGradient>
						
							<path style="fill:url(#SVGID_00000009566190278982614400000004730542225294999986_);stroke:#A1A8A7;stroke-miterlimit:10;" d="
							M614.9,273.1c0,0-5.8-1.4-10.7-2.2c-5-0.8-8.6-2.8-12-5.4c0,0,3.3,7.8,14,11.1c0,0-11.1,0.9-18.5-6.6c0,0,1.8,7.4,13.2,11.1
							c0,0-13.2,0.7-23-6.7c0,0,1.8,7.4,14.2,10.8c0,0-3.7,1-10.7-1.1s-10.8-0.6-14.8,1.5c-4,2.1-11.7,6-18.1,3.7
							c0,0,11,8.6,26.3,4.5c0,0-7,5.6-22.8,2c-15.8-3.6-29.2,0.6-39,5.5c-9.9,5-35.9,22.9-50.8,18.2c0,0,2,4.4,12.7,7.5
							c10.7,3.1,9.9,9.8,9.9,9.8s-8.8-11.6-26-9.3c-9.1,1.2-13,5.3-18.1,3.3c0,0,3.2,2.9,11.7,3.1c8.5,0.1,15.8,5.9,17.2,8.6
							c0,0-14.7-8.5-28.3-5.9c-19.4,3.7-24,23-28.6,25.4c0,0,15.9,22.2,41.9,16.5c0,0-7.6,2.4-12,9.8c0,0,3.4-2.5,14.2-3.9
							s25-5.6,36-15c0,0-8.8,12.4-22.8,16.1c0,0,16.2,2.4,36.6-16c0,0-6.9,11.6-15.7,17.1c0,0,11-2.9,21.6-16.8c0,0,1,5.9-4.2,13.9
							c0,0,1.7-2.1,10.1-5.4c8.4-3.3,62-24,76.9-61.4c0,0-0.4,5.5,6.8,10.9c0,0-5.9-7.9-1.5-19.9c0,0,1.1,8.8,11.5,12.9
							c0,0-6.3-6.8-6.5-18.2c0,0,6.5,5.6,18.4,3.5c0,0-8.8-2.1-15.3-9.2c0,0,10.3,2.9,18.6-2c0,0-7,1.2-15.5-4.4
							c0,0,9.7,2.3,16.6-6.2c0,0-7.5,3.1-11.8,1.6c0,0,4-5,2.3-11.4L614.9,273.1L614.9,273.1z"/>
						<path class="st7" d="M631.7,252.9c0,0-16.7,44.9-84,82.8c-61.3,34.5-110.3,25.5-110.3,25.5s52.5,3,110.5-31
							c66.6-39,76.7-79.2,76.7-79.2C625,249.8,632.1,252.1,631.7,252.9L631.7,252.9z"/>
					</g>
				</g>
				<g class="st8">
					<g>
						<path class="st9" d="M117,342.6c0,0,7.3-33.9,45.2-8.5c37.9,25.4-35.8,28.2-69.3,22S117,342.6,117,342.6z"/>
						<path class="st9" d="M189.5,313.3c31.7,15.9,3,22.8-23.4,21.3S157.8,297.4,189.5,313.3z"/>
					</g>
					<g>
						<path class="st9" d="M529.4,482.8c0,0,7.3-33.9,45.2-8.5c37.9,25.4-35.8,28.2-69.3,22S529.4,482.8,529.4,482.8z"/>
						<path class="st9" d="M601.9,453.5c31.7,15.9,3,22.8-23.4,21.3C552.1,473.3,570.2,437.6,601.9,453.5z"/>
					</g>
				</g>
				<g class="st8">
					<g>
						<path class="st9" d="M117,22.6c0,0,7.3-33.9,45.2-8.5s-35.8,28.2-69.3,22S117,22.6,117,22.6z"/>
						<path class="st9" d="M189.5-6.7c31.7,15.9,3,22.8-23.4,21.3S157.8-22.6,189.5-6.7z"/>
					</g>
					<g>
						<path class="st9" d="M529.4,162.8c0,0,7.3-33.9,45.2-8.5s-35.8,28.2-69.3,22.1S529.4,162.8,529.4,162.8z"/>
						<path class="st9" d="M601.9,133.5c31.7,15.9,3,22.8-23.4,21.3C552.1,153.3,570.2,117.6,601.9,133.5z"/>
					</g>
				</g>
			</g>
		</g>
	</g>
</g>
<g id="m">
</g>
<g id="n">
</g>
<g id="o">
</g>
<g id="p">
</g>
<g id="q">
</g>
<g id="r">
</g>
<g id="s">
</g>
</svg>
