<?xml version="1.0" encoding="utf-8"?>
<!-- Generator: Adobe Illustrator 26.2.1, SVG Export Plug-In . SVG Version: 6.00 Build 0)  -->
<svg version="1.1" id="Layer_1" xmlns="http://www.w3.org/2000/svg" xmlns:xlink="http://www.w3.org/1999/xlink" x="0px" y="0px"
	 viewBox="0 0 718 661" style="enable-background:new 0 0 718 661;" xml:space="preserve">
<style type="text/css">
	.st0{fill:url(#SVGID_1_);}
	.st1{fill:#31D0E5;stroke:url(#SVGID_00000086686775273819874550000012743705133739322783_);stroke-width:6;stroke-miterlimit:10;}
	.st2{clip-path:url(#SVGID_00000165234639088603844650000003086671719828379276_);}
	.st3{fill:#31D0E5;}
	.st4{opacity:0.14;enable-background:new    ;}
	.st5{opacity:0.45;}
	.st6{fill:url(#SVGID_00000168831319912477698140000017758010130979292070_);stroke:#A1A8A7;stroke-miterlimit:10;}
	.st7{fill:#AD9E9E;}
	.st8{opacity:0.3;}
	.st9{fill:#FFFFFF;}
</style>
<g id="a">
	<g id="b">
	</g>
</g>
<g id="c">
</g>
<g id="d">
</g>
<g id="e">
</g>
<g id="f">
</g>
<g id="g">
</g>
<g id="h">
</g>
<g id="i">
</g>
<g id="j">
</g>
<g id="k">
	<g>
		<g>
			
				<linearGradient id="SVGID_1_" gradientUnits="userSpaceOnUse" x1="104.0614" y1="506.1821" x2="602.267" y2="164.8152" gradientTransform="matrix(1 0 0 -1 0 662)">
				<stop  offset="0" style="stop-color:#9B81CF"/>
				<stop  offset="1" style="stop-color:#3B139B"/>
			</linearGradient>
			<circle class="st0" cx="359" cy="330.5" r="301.9"/>
			
				<linearGradient id="SVGID_00000152978977245890725690000007471012698674173826_" gradientUnits="userSpaceOnUse" x1="66.74" y1="331.5" x2="651.26" y2="331.5" gradientTransform="matrix(1 0 0 -1 0 662)">
				<stop  offset="0" style="stop-color:#4C1DA9"/>
				<stop  offset="1" style="stop-color:#997ECE"/>
			</linearGradient>
			
				<circle style="fill:#31D0E5;stroke:url(#SVGID_00000152978977245890725690000007471012698674173826_);stroke-width:6;stroke-miterlimit:10;" cx="359" cy="330.5" r="289.3"/>
		</g>
		<g>
			<defs>
				<ellipse id="SVGID_00000072241204062892990600000013530764656873942435_" cx="359" cy="330.5" rx="286.6" ry="286.3"/>
			</defs>
			<clipPath id="SVGID_00000024690033539297210220000017180565991552352954_">
				<use xlink:href="#SVGID_00000072241204062892990600000013530764656873942435_"  style="overflow:visible;"/>
			</clipPath>
			<g style="clip-path:url(#SVGID_00000024690033539297210220000017180565991552352954_);">
				<g>
					<path class="st3" d="M676,308c0,155.4-142.8,281.3-319,281.3S22.3,477,22.3,321.6s158.4-295,334.6-295S676,152.6,676,308
						L676,308z"/>
					
						<ellipse transform="matrix(0.9874 -0.1583 0.1583 0.9874 -97.2344 92.6898)" class="st4" cx="533.1" cy="656.6" rx="56.5" ry="13.3"/>
					
						<ellipse transform="matrix(0.9922 -0.1248 0.1248 0.9922 -75.765 30.7903)" class="st4" cx="207.8" cy="620" rx="34.1" ry="9"/>
					<g class="st5">
						<path d="M127.5,524.1c0,0,4.7-7.8,3.6-12.5c-1.4-5.7,1.2-2.1,1.2-2.1l0.5,4.8l4.9-1.9c0,0-5.5,2.2-4.5,6.1
							c1,3.9,2.6,5.7,2.6,5.7L127.5,524.1L127.5,524.1z"/>
					</g>
				</g>
				<g id="o">
					<g>
						
							<linearGradient id="SVGID_00000026136983833611660970000018198279789002742708_" gradientUnits="userSpaceOnUse" x1="-1675.4163" y1="96.2641" x2="-1478.3965" y2="96.2641" gradientTransform="matrix(-0.9911 -0.1329 0.1329 -0.9911 -1453.0468 301.2198)">
							<stop  offset="0" style="stop-color:#FFFFFF"/>
							<stop  offset="0.44" style="stop-color:#FEFEFD"/>
							<stop  offset="0.6" style="stop-color:#FBFAF6"/>
							<stop  offset="0.71" style="stop-color:#F5F4EA"/>
							<stop  offset="0.8" style="stop-color:#EEEBD9"/>
							<stop  offset="0.88" style="stop-color:#E4DFC3"/>
							<stop  offset="0.95" style="stop-color:#D9D2A9"/>
							<stop  offset="1" style="stop-color:#CFC692"/>
						</linearGradient>
						
							<path style="fill:url(#SVGID_00000026136983833611660970000018198279789002742708_);stroke:#A1A8A7;stroke-miterlimit:10;" d="
							M214.1,468.4c0,0-1.6-5.7-3.3-10.4s-1.8-8.8-1.3-13.1c0,0-5.2,6.7-2.7,17.7c0,0-6.3-9.2-3.4-19.4c0,0-5.6,5.3-3.2,17
							c0,0-7.1-11.1-5.6-23.3c0,0-5.6,5.2-2.3,17.7c0,0-2.7-2.7-4.3-9.9c-1.6-7.2-4.8-9.7-8.6-12.1c-3.8-2.4-11-7.2-12.2-13.9
							c0,0-2,13.8,9.1,25.1c0,0-8.4-3.3-13-18.9s-14.9-25.1-24.1-31.2s-37.6-19.9-40.9-35.2c0,0-2.9,4-0.3,14.8
							c2.5,10.8-3.6,13.4-3.6,13.4s5.7-13.3-4.7-27.2c-5.5-7.3-11-8.7-11.8-14.1c0,0-1,4.3,3.1,11.7c4.1,7.5,2.7,16.6,1,19.2
							c0,0,0.1-17-8.8-27.5c-12.8-15-31.8-9.6-36.2-12.4c0,0-11.5,24.8,6.3,44.6c0,0-5.8-5.4-14.4-5.6c0,0,3.8,1.7,10.4,10.4
							c6.6,8.7,17.3,19,30.8,23.9c0,0-15.1-1.5-25.2-11.9c0,0,5.9,15.3,32,23.9c0,0-13.5-0.3-22.7-5.2c0,0,8,8.2,25.2,10.6
							c0,0-4.7,3.8-14.2,3.2c0,0,2.7,0.5,9.6,6.1c7,5.7,51.4,42.1,91.3,36.6c0,0-5,2.4-6.1,11.3c0,0,4-9.1,16.6-11.1
							c0,0-7.1,5.3-5.6,16.4c0,0,2.8-8.8,12.7-14.7c0,0-1.7,8.5,6,17.8c0,0-2.5-8.6,0.5-17.9c0,0,2.5,10.4,10.9,15.2
							c0,0-4.5-5.5-3.8-15.6c0,0,2.8,9.5,13.6,11.3c0,0-6.4-5-7.2-9.5c0,0,6.3,1,11-3.6L214.1,468.4L214.1,468.4z"/>
						<path class="st7" d="M240,473.1c0,0-47.3,7.6-113.5-32.2C66.3,404.5,50,357.4,50,357.4s23.3,47.1,81.5,80.8
							c66.8,38.7,106.7,27.7,106.7,27.7C239.3,465.6,240.9,472.9,240,473.1L240,473.1z"/>
					</g>
				</g>
				<g class="st8">
					<g>
						<path class="st9" d="M117,262.6c0,0,7.3-33.9,45.2-8.5s-35.8,28.2-69.3,22.1S117,262.6,117,262.6z"/>
						<path class="st9" d="M189.5,233.3c31.7,15.9,3,22.8-23.4,21.3C139.7,253.1,157.8,217.4,189.5,233.3z"/>
					</g>
					<g>
						<path class="st9" d="M529.4,402.8c0,0,7.3-33.9,45.2-8.5c37.9,25.4-35.8,28.2-69.3,22S529.4,402.8,529.4,402.8z"/>
						<path class="st9" d="M601.9,373.5c31.7,15.9,3,22.8-23.4,21.3C552.1,393.3,570.2,357.6,601.9,373.5z"/>
					</g>
				</g>
			</g>
		</g>
	</g>
</g>
<g id="q">
</g>
<g id="r">
</g>
<g id="s">
</g>
</svg>
