<?xml version="1.0" encoding="utf-8"?>
<!-- Generator: Adobe Illustrator 26.2.1, SVG Export Plug-In . SVG Version: 6.00 Build 0)  -->
<svg version="1.1" id="Layer_1" xmlns="http://www.w3.org/2000/svg" xmlns:xlink="http://www.w3.org/1999/xlink" x="0px" y="0px"
	 viewBox="0 0 718 661" style="enable-background:new 0 0 718 661;" xml:space="preserve">
<style type="text/css">
	.st0{fill:url(#SVGID_1_);}
	.st1{fill:#31D0E5;stroke:url(#SVGID_00000017517038883149382500000017808516765285216643_);stroke-width:6;stroke-miterlimit:10;}
	.st2{clip-path:url(#SVGID_00000152980635556506141410000012319396905390548656_);}
	.st3{fill:#31D0E5;}
	.st4{opacity:0.14;enable-background:new    ;}
	.st5{fill:#77C9B0;}
	.st6{fill:url(#SVGID_00000031186624052060317360000008273277510611674526_);stroke:#A1A8A7;stroke-miterlimit:10;}
	.st7{fill:#AD9E9E;}
	.st8{opacity:0.3;}
	.st9{fill:#FFFFFF;}
</style>
<g id="a">
	<g id="b">
	</g>
</g>
<g id="c">
	<g>
		<g>
			
				<linearGradient id="SVGID_1_" gradientUnits="userSpaceOnUse" x1="104.0614" y1="506.1821" x2="602.267" y2="164.8152" gradientTransform="matrix(1 0 0 -1 0 662)">
				<stop  offset="0" style="stop-color:#9B81CF"/>
				<stop  offset="1" style="stop-color:#3B139B"/>
			</linearGradient>
			<circle class="st0" cx="359" cy="330.5" r="301.9"/>
			
				<linearGradient id="SVGID_00000061467685680617722370000012037027404429337494_" gradientUnits="userSpaceOnUse" x1="66.74" y1="331.5" x2="651.26" y2="331.5" gradientTransform="matrix(1 0 0 -1 0 662)">
				<stop  offset="0" style="stop-color:#4C1DA9"/>
				<stop  offset="1" style="stop-color:#997ECE"/>
			</linearGradient>
			
				<circle style="fill:#31D0E5;stroke:url(#SVGID_00000061467685680617722370000012037027404429337494_);stroke-width:6;stroke-miterlimit:10;" cx="359" cy="330.5" r="289.3"/>
		</g>
		<g>
			<defs>
				<ellipse id="SVGID_00000052817346942326541910000005384876511443336119_" cx="359" cy="330.5" rx="286.6" ry="286.3"/>
			</defs>
			<clipPath id="SVGID_00000021799510180441488090000017023965155737516199_">
				<use xlink:href="#SVGID_00000052817346942326541910000005384876511443336119_"  style="overflow:visible;"/>
			</clipPath>
			<g style="clip-path:url(#SVGID_00000021799510180441488090000017023965155737516199_);">
				<g>
					<path class="st3" d="M676,308c0,155.4-142.8,281.3-319,281.3S22.3,477,22.3,321.6s158.4-295,334.6-295S676,152.6,676,308
						L676,308z"/>
					
						<ellipse transform="matrix(0.9874 -0.1583 0.1583 0.9874 -97.2344 92.6898)" class="st4" cx="533.1" cy="656.6" rx="56.5" ry="13.3"/>
					
						<ellipse transform="matrix(0.9922 -0.1248 0.1248 0.9922 -75.765 30.7903)" class="st4" cx="207.8" cy="620" rx="34.1" ry="9"/>
					<g>
						<path class="st5" d="M127.5,524.1c0,0,4.7-7.8,3.6-12.5c-1.4-5.7,1.2-2.1,1.2-2.1l0.5,4.8l4.9-1.9c0,0-5.5,2.2-4.5,6.1
							c1,3.9,2.6,5.7,2.6,5.7L127.5,524.1L127.5,524.1z"/>
					</g>
				</g>
				<g id="g">
					<g>
						
							<linearGradient id="SVGID_00000129206412229180577710000004096366320218799784_" gradientUnits="userSpaceOnUse" x1="2099.1377" y1="84.9272" x2="2296.1694" y2="84.9272" gradientTransform="matrix(-0.9559 -0.2937 0.2937 -0.9559 2297.2209 970.4935)">
							<stop  offset="0" style="stop-color:#FFFFFF"/>
							<stop  offset="0.44" style="stop-color:#FEFEFD"/>
							<stop  offset="0.6" style="stop-color:#FBFAF6"/>
							<stop  offset="0.71" style="stop-color:#F5F4EA"/>
							<stop  offset="0.8" style="stop-color:#EEEBD9"/>
							<stop  offset="0.88" style="stop-color:#E4DFC3"/>
							<stop  offset="0.95" style="stop-color:#D9D2A9"/>
							<stop  offset="1" style="stop-color:#CFC692"/>
						</linearGradient>
						
							<path style="fill:url(#SVGID_00000129206412229180577710000004096366320218799784_);stroke:#A1A8A7;stroke-miterlimit:10;" d="
							M302.9,311c0,0-0.6-5.9-1.6-10.8c-0.9-4.9-0.3-9,0.9-13.1c0,0-6.2,5.8-5.6,17c0,0-4.7-10.1-0.2-19.7c0,0-6.3,4.3-5.9,16.2
							c0,0-5.2-12.1-1.6-23.9c0,0-6.3,4.2-5.2,17.1c0,0-2.2-3.1-2.6-10.5s-3.2-10.4-6.5-13.4c-3.3-3-9.6-9-9.7-15.7
							c0,0-4.3,13.3,4.8,26.2c0,0-7.7-4.6-9.7-20.8c-2-16.1-10.6-27.2-18.6-34.7s-33.8-25.8-34.6-41.4c0,0-3.5,3.4-2.7,14.5
							s-5.8,12.7-5.8,12.7s7.8-12.2-0.2-27.6c-4.2-8.1-9.4-10.4-9.3-15.9c0,0-1.6,4.1,1.1,12.1c2.8,8-0.1,16.9-2.2,19.1
							c0,0,2.9-16.7-4.2-28.6c-10.1-16.9-29.8-14.6-33.7-18.2c0,0-15.4,22.6-1.1,45c0,0-4.9-6.3-13.3-7.9c0,0,3.5,2.3,8.6,12
							c5.1,9.7,13.9,21.6,26.4,28.6c0,0-14.6-4-23-15.9c0,0,3.3,16,27.6,28.9c0,0-13.3-2.5-21.5-8.9c0,0,6.5,9.4,23.2,14.6
							c0,0-5.2,2.9-14.5,0.8c0,0,2.5,0.9,8.5,7.7c6,6.8,43.8,49.9,84.1,51.1c0,0-5.3,1.5-7.9,10.1c0,0,5.4-8.3,18.2-8.3
							c0,0-7.9,4.1-8.2,15.3c0,0,4.2-8.2,14.9-12.4c0,0-3,8.1,3,18.5c0,0-1-8.9,3.4-17.5c0,0,0.8,10.7,8.3,16.8c0,0-3.6-6.2-1.2-16
							c0,0,1.2,9.8,11.5,13.4c0,0-5.5-6-5.5-10.6c0,0,6.1,2,11.5-1.7L302.9,311L302.9,311z"/>
						<path class="st7" d="M327.7,319.9c0,0-48-0.2-106.6-50.4c-53.5-45.7-61.8-94.8-61.8-94.8s15.2,50.3,67.1,93.1
							c59.5,49.1,100.7,44.8,100.7,44.8C328.3,312.5,328.6,319.9,327.7,319.9L327.7,319.9z"/>
					</g>
				</g>
				<g class="st8">
					<g>
						<path class="st9" d="M117,422.6c0,0,7.3-33.9,45.2-8.5c37.9,25.4-35.8,28.2-69.3,22S117,422.6,117,422.6z"/>
						<path class="st9" d="M189.5,393.3c31.7,15.9,3,22.8-23.4,21.3S157.8,377.4,189.5,393.3z"/>
					</g>
					<g>
						<path class="st9" d="M529.4,562.8c0,0,7.3-33.9,45.2-8.5s-35.8,28.2-69.3,22C471.9,570.1,529.4,562.7,529.4,562.8L529.4,562.8
							z"/>
						<path class="st9" d="M601.9,533.5c31.7,15.9,3,22.8-23.4,21.3C552.1,553.3,570.2,517.6,601.9,533.5z"/>
					</g>
				</g>
				<g class="st8">
					<g>
						<path class="st9" d="M117,122.6c0,0,7.3-33.9,45.2-8.5s-35.8,28.2-69.3,22.1S117,122.6,117,122.6z"/>
						<path class="st9" d="M189.5,93.3c31.7,15.9,3,22.8-23.4,21.3S157.8,77.4,189.5,93.3z"/>
					</g>
					<g>
						<path class="st9" d="M529.4,262.8c0,0,7.3-33.9,45.2-8.5s-35.8,28.2-69.3,22.1S529.4,262.8,529.4,262.8z"/>
						<path class="st9" d="M601.9,233.5c31.7,15.9,3,22.8-23.4,21.3C552.1,253.3,570.2,217.6,601.9,233.5z"/>
					</g>
				</g>
			</g>
		</g>
	</g>
</g>
<g id="i">
</g>
<g id="j">
</g>
<g id="k">
</g>
<g id="l">
</g>
<g id="m">
</g>
<g id="n">
</g>
<g id="o">
</g>
<g id="p">
</g>
<g id="q">
</g>
<g id="r">
</g>
<g id="s">
</g>
</svg>
