<?xml version="1.0" encoding="utf-8"?>
<!-- Generator: Adobe Illustrator 26.2.1, SVG Export Plug-In . SVG Version: 6.00 Build 0)  -->
<svg version="1.1" id="Layer_1" xmlns="http://www.w3.org/2000/svg" xmlns:xlink="http://www.w3.org/1999/xlink" x="0px" y="0px"
	 viewBox="0 0 718 661" style="enable-background:new 0 0 718 661;" xml:space="preserve">
<style type="text/css">
	.st0{fill:url(#SVGID_1_);}
	.st1{fill:#31D0E5;stroke:url(#SVGID_00000030479457736159691280000013831422370247360922_);stroke-width:6;stroke-miterlimit:10;}
	.st2{clip-path:url(#SVGID_00000173869241102928407030000012815327366427669948_);}
	.st3{fill:#31D0E5;}
	.st4{opacity:0.14;enable-background:new    ;}
	.st5{opacity:0.45;}
	.st6{fill:#77C9B0;}
	.st7{fill:url(#SVGID_00000047029983673206897000000014035841688811367337_);stroke:#A1A8A7;stroke-miterlimit:10;}
	.st8{fill:#AD9E9E;}
	.st9{opacity:0.3;}
	.st10{fill:#FFFFFF;}
</style>
<g id="a">
	<g id="b">
	</g>
</g>
<g id="c">
</g>
<g id="d">
	<g>
		<g>
			
				<linearGradient id="SVGID_1_" gradientUnits="userSpaceOnUse" x1="104.0614" y1="393.8179" x2="602.201" y2="735.1395" gradientTransform="matrix(1 0 0 1 0 -238)">
				<stop  offset="0" style="stop-color:#9B81CF"/>
				<stop  offset="1" style="stop-color:#3B139B"/>
			</linearGradient>
			<circle class="st0" cx="359" cy="330.5" r="301.9"/>
			
				<linearGradient id="SVGID_00000009560675931281838380000000510478779787275443_" gradientUnits="userSpaceOnUse" x1="66.7" y1="568.5" x2="651.3" y2="568.5" gradientTransform="matrix(1 0 0 1 0 -238)">
				<stop  offset="0" style="stop-color:#4C1DA9"/>
				<stop  offset="1" style="stop-color:#997ECE"/>
			</linearGradient>
			
				<circle style="fill:#31D0E5;stroke:url(#SVGID_00000009560675931281838380000000510478779787275443_);stroke-width:6;stroke-miterlimit:10;" cx="359" cy="330.5" r="289.3"/>
		</g>
		<g>
			<g>
				<defs>
					<ellipse id="SVGID_00000115476261074935811660000009594464445297698987_" cx="359" cy="330.5" rx="286.6" ry="286.3"/>
				</defs>
				<clipPath id="SVGID_00000161625053851283182440000004813029638834973353_">
					<use xlink:href="#SVGID_00000115476261074935811660000009594464445297698987_"  style="overflow:visible;"/>
				</clipPath>
				<g style="clip-path:url(#SVGID_00000161625053851283182440000004813029638834973353_);">
					<g>
						<path class="st3" d="M676,308c0,155.4-142.8,281.3-319,281.3S22.3,477,22.3,321.6s158.4-295,334.6-295S676,152.6,676,308
							L676,308z"/>
						
							<ellipse transform="matrix(0.9874 -0.1583 0.1583 0.9874 -97.2216 92.6664)" class="st4" cx="533.1" cy="656.6" rx="56.5" ry="13.3"/>
						
							<ellipse transform="matrix(0.9922 -0.1248 0.1248 0.9922 -75.7528 30.7789)" class="st4" cx="207.8" cy="620" rx="34.1" ry="9"/>
						<g class="st5">
							<path class="st6" d="M127.5,524.1c0,0,4.7-7.8,3.6-12.5c-1.4-5.7,1.2-2.1,1.2-2.1l0.5,4.8l4.9-1.9c0,0-5.5,2.2-4.5,6.1
								c1,3.9,2.6,5.7,2.6,5.7L127.5,524.1L127.5,524.1z"/>
						</g>
					</g>
					<g id="h">
						<g>
							
								<linearGradient id="SVGID_00000067951563529290494290000014748174707441328275_" gradientUnits="userSpaceOnUse" x1="-837.985" y1="1185.6501" x2="-640.8466" y2="1185.6501" gradientTransform="matrix(-0.997 -7.741512e-02 -7.741512e-02 0.997 -379.1596 -953.166)">
								<stop  offset="0" style="stop-color:#FFFFFF"/>
								<stop  offset="0.44" style="stop-color:#FEFEFD"/>
								<stop  offset="0.6" style="stop-color:#FBFAF6"/>
								<stop  offset="0.71" style="stop-color:#F5F4EA"/>
								<stop  offset="0.8" style="stop-color:#EEEBD9"/>
								<stop  offset="0.88" style="stop-color:#E4DFC3"/>
								<stop  offset="0.95" style="stop-color:#D9D2A9"/>
								<stop  offset="1" style="stop-color:#CFC692"/>
							</linearGradient>
							
								<path style="fill:url(#SVGID_00000067951563529290494290000014748174707441328275_);stroke:#A1A8A7;stroke-miterlimit:10;" d="
								M360.3,333.9c0,0-1.9-5.6-3.9-10.2s-2.3-8.7-2-13c0,0-4.8,7-1.7,17.8c0,0-6.8-8.9-4.5-19.2c0,0-5.2,5.6-2.2,17.1
								c0,0-7.7-10.7-6.8-23c0,0-5.3,5.5-1.3,17.8c0,0-2.8-2.5-4.9-9.6c-2-7.1-5.4-9.4-9.3-11.6s-11.4-6.6-12.9-13.2
								c0,0-1.3,13.9,10.5,24.5c0,0-8.5-2.9-14-18.1c-5.5-15.3-16.2-24.2-25.8-29.8c-9.5-5.6-38.6-17.8-42.8-32.8
								c0,0-2.6,4.1,0.5,14.8c3.1,10.7-2.8,13.6-2.8,13.6s5-13.6-6.2-26.9c-5.9-7-11.5-8.1-12.6-13.4c0,0-0.7,4.3,3.7,11.5
								c4.5,7.2,3.6,16.5,2,19.1c0,0-0.9-17-10.4-27c-13.6-14.3-32.3-7.8-36.8-10.4c0,0-10.1,25.4,8.7,44.1c0,0-6.1-5.1-14.7-4.8
								c0,0,3.9,1.5,11,9.8c7.1,8.3,18.3,18,32,22.2c0,0-15.1-0.7-25.9-10.5c0,0,6.8,14.9,33.3,22.1c0,0-13.5,0.5-22.9-4
								c0,0,8.4,7.7,25.8,9.1c0,0-4.5,4-14,4c0,0,2.7,0.3,10,5.6c7.3,5.3,53.7,39.1,93.2,31.5c0,0-4.9,2.6-5.5,11.6
								c0,0,3.5-9.3,15.9-12c0,0-6.8,5.7-4.6,16.7c0,0,2.3-9,11.8-15.4c0,0-1.2,8.6,7,17.4c0,0-3-8.5-0.5-17.9
								c0,0,3.1,10.2,11.8,14.6c0,0-4.8-5.3-4.7-15.4c0,0,3.3,9.4,14.2,10.6c0,0-6.7-4.6-7.7-9.1c0,0,6.4,0.6,10.8-4.2L360.3,333.9
								L360.3,333.9z"/>
							<path class="st8" d="M386.5,337.1c0,0-46.8,10.3-115.1-25.8c-62.2-32.9-81.1-79-81.1-79s25.9,45.8,85.8,76.1
								C345,343.2,384.2,330,384.2,330C385.4,329.7,387.4,336.9,386.5,337.1L386.5,337.1z"/>
						</g>
					</g>
					<g class="st9">
						<g>
							<path class="st10" d="M117,402.6c0,0,7.3-33.9,45.2-8.5s-35.8,28.2-69.3,22S117,402.6,117,402.6z"/>
							<path class="st10" d="M189.5,373.3c31.7,15.9,3,22.8-23.4,21.3S157.8,357.4,189.5,373.3z"/>
						</g>
						<g>
							<path class="st10" d="M529.4,542.8c0,0,7.3-33.9,45.2-8.5c37.9,25.4-35.8,28.2-69.3,22C471.9,550.1,529.4,542.7,529.4,542.8
								L529.4,542.8z"/>
							<path class="st10" d="M601.9,513.5c31.7,15.9,3,22.8-23.4,21.3S570.2,497.6,601.9,513.5z"/>
						</g>
					</g>
					<g>
						<g>
							<path class="st10" d="M117,92.6c0,0,7.3-33.9,45.2-8.5s-35.8,28.2-69.3,22.1C59.4,99.9,117,92.6,117,92.6z"/>
							<path class="st10" d="M189.5,63.3c31.7,15.9,3,22.8-23.4,21.3S157.8,47.4,189.5,63.3z"/>
						</g>
						<g class="st9">
							<path class="st10" d="M529.4,232.8c0,0,7.3-33.9,45.2-8.5s-35.8,28.2-69.3,22.1S529.4,232.8,529.4,232.8z"/>
							<path class="st10" d="M601.9,203.5c31.7,15.9,3,22.8-23.4,21.3S570.2,187.6,601.9,203.5z"/>
						</g>
					</g>
				</g>
			</g>
		</g>
	</g>
</g>
<g id="j">
</g>
<g id="k">
</g>
<g id="l">
</g>
<g id="m">
</g>
<g id="n">
</g>
<g id="o">
</g>
<g id="p">
</g>
<g id="q">
</g>
<g id="r">
</g>
<g id="s">
</g>
</svg>
