<?xml version="1.0" encoding="utf-8"?>
<!-- Generator: Adobe Illustrator 26.2.1, SVG Export Plug-In . SVG Version: 6.00 Build 0)  -->
<svg version="1.1" id="Layer_1" xmlns="http://www.w3.org/2000/svg" xmlns:xlink="http://www.w3.org/1999/xlink" x="0px" y="0px"
	 viewBox="0 0 718 661" style="enable-background:new 0 0 718 661;" xml:space="preserve">
<style type="text/css">
	.st0{fill:url(#SVGID_1_);}
	.st1{fill:#31D0E5;stroke:url(#SVGID_00000053524896739308164740000001355592240908633242_);stroke-width:6;stroke-miterlimit:10;}
	.st2{clip-path:url(#SVGID_00000123428334386041112230000002178727315406028432_);}
	.st3{fill:#31D0E5;}
	.st4{opacity:0.14;enable-background:new    ;}
	.st5{fill:#77C9B0;}
	.st6{fill:url(#SVGID_00000109011812771243578840000003249080999700887970_);stroke:#A1A8A7;stroke-miterlimit:10;}
	.st7{fill:#AD9E9E;}
	.st8{opacity:0.3;}
	.st9{fill:#FFFFFF;}
</style>
<g id="a">
	<g id="b">
	</g>
</g>
<g id="c">
</g>
<g id="d">
</g>
<g id="e">
</g>
<g id="f">
</g>
<g id="g">
</g>
<g id="h">
</g>
<g id="i">
</g>
<g id="j">
	<g>
		<g>
			
				<linearGradient id="SVGID_1_" gradientUnits="userSpaceOnUse" x1="104.0614" y1="506.1821" x2="602.267" y2="164.8152" gradientTransform="matrix(1 0 0 -1 0 662)">
				<stop  offset="0" style="stop-color:#9B81CF"/>
				<stop  offset="1" style="stop-color:#3B139B"/>
			</linearGradient>
			<circle class="st0" cx="359" cy="330.5" r="301.9"/>
			
				<linearGradient id="SVGID_00000071560221121988080450000018338440151875282876_" gradientUnits="userSpaceOnUse" x1="66.74" y1="331.5" x2="651.26" y2="331.5" gradientTransform="matrix(1 0 0 -1 0 662)">
				<stop  offset="0" style="stop-color:#4C1DA9"/>
				<stop  offset="1" style="stop-color:#997ECE"/>
			</linearGradient>
			
				<circle style="fill:#31D0E5;stroke:url(#SVGID_00000071560221121988080450000018338440151875282876_);stroke-width:6;stroke-miterlimit:10;" cx="359" cy="330.5" r="289.3"/>
		</g>
		<g>
			<defs>
				<ellipse id="SVGID_00000028321876650995589280000012087867034179557789_" cx="359" cy="330.5" rx="286.6" ry="286.3"/>
			</defs>
			<clipPath id="SVGID_00000181077067249411964780000002359094051410002064_">
				<use xlink:href="#SVGID_00000028321876650995589280000012087867034179557789_"  style="overflow:visible;"/>
			</clipPath>
			<g style="clip-path:url(#SVGID_00000181077067249411964780000002359094051410002064_);">
				<g>
					<path class="st3" d="M676,308c0,155.4-142.8,281.3-319,281.3S22.3,477,22.3,321.6s158.4-295,334.6-295S676,152.6,676,308
						L676,308z"/>
					
						<ellipse transform="matrix(0.9874 -0.1583 0.1583 0.9874 -97.2344 92.6898)" class="st4" cx="533.1" cy="656.6" rx="56.5" ry="13.3"/>
					
						<ellipse transform="matrix(0.9922 -0.1248 0.1248 0.9922 -75.765 30.7903)" class="st4" cx="207.8" cy="620" rx="34.1" ry="9"/>
					<g>
						<path class="st5" d="M127.5,524.1c0,0,4.7-7.8,3.6-12.5c-1.4-5.7,1.2-2.1,1.2-2.1l0.5,4.8l4.9-1.9c0,0-5.5,2.2-4.5,6.1
							c1,3.9,2.6,5.7,2.6,5.7L127.5,524.1L127.5,524.1z"/>
					</g>
				</g>
				<g id="n">
					<g>
						
							<linearGradient id="SVGID_00000182487915835897128980000016340546956100824712_" gradientUnits="userSpaceOnUse" x1="353.3577" y1="-1337.9531" x2="550.3895" y2="-1337.9531" gradientTransform="matrix(-0.9587 0.2844 -0.2844 -0.9587 288.4404 -956.5153)">
							<stop  offset="0" style="stop-color:#FFFFFF"/>
							<stop  offset="0.44" style="stop-color:#FEFEFD"/>
							<stop  offset="0.6" style="stop-color:#FBFAF6"/>
							<stop  offset="0.71" style="stop-color:#F5F4EA"/>
							<stop  offset="0.8" style="stop-color:#EEEBD9"/>
							<stop  offset="0.88" style="stop-color:#E4DFC3"/>
							<stop  offset="0.95" style="stop-color:#D9D2A9"/>
							<stop  offset="1" style="stop-color:#CFC692"/>
						</linearGradient>
						
							<path style="fill:url(#SVGID_00000182487915835897128980000016340546956100824712_);stroke:#A1A8A7;stroke-miterlimit:10;" d="
							M340.7,465.6c0,0-3.8-4.5-7.3-8.1s-5.3-7.3-6.5-11.5c0,0-2,8.2,4.8,17.2c0,0-9.5-5.8-11-16.3c0,0-2.9,7.1,4,16.8
							c0,0-11-7.2-14.6-19c0,0-3,7,5.1,17.1c0,0-3.6-1.4-8-7.3c-4.4-5.9-8.4-6.9-12.8-7.6c-4.5-0.7-13-2.1-16.8-7.7
							c0,0,3.8,13.5,18.5,19.2c0,0-9,0.4-19.6-11.9c-10.6-12.3-23.8-16.8-34.7-18.6s-42.4-2.8-51.7-15.4c0,0-1,4.8,5.8,13.6
							c6.8,8.8,2.2,13.7,2.2,13.7s-0.2-14.5-15.4-22.9c-8-4.4-13.6-3.4-16.6-8.1c0,0,0.9,4.3,7.6,9.4c6.7,5.1,9.3,14.1,8.7,17.1
							c0,0-6.9-15.5-19.3-21.5c-17.8-8.5-32.9,4.3-38.1,3.5c0,0-0.4,27.3,24,38.1c0,0-7.5-2.5-15.5,0.8c0,0,4.2,0,13.8,5.2
							c9.6,5.2,23.5,10.3,37.9,9.2c0,0-14.4,4.8-27.9-0.5c0,0,11.6,11.5,39,8.8c0,0-12.5,5.3-22.8,4.5c0,0,10.6,4.2,27.4-0.7
							c0,0-2.7,5.3-11.7,8.7c0,0,2.6-0.7,11.3,1.7c8.7,2.3,64.1,17.3,98.3-3.9c0,0-3.6,4.2-1,12.8c0,0-0.1-9.9,10.5-17
							c0,0-4.3,7.8,1.6,17.2c0,0-1.1-9.2,5.5-18.6c0,0,1.9,8.4,12.7,13.8c0,0-5.8-6.9-6.9-16.5c0,0,6.5,8.5,16.2,9.4
							c0,0-6.4-3.2-9.9-12.7c0,0,6.4,7.5,17,4.8c0,0-7.9-1.9-10.5-5.7c0,0,6.2-1.7,8.6-7.8L340.7,465.6L340.7,465.6z"/>
						<path class="st7" d="M366.3,459.2c0,0-40.1,26.4-116.7,17c-69.8-8.5-104-44.8-104-44.8S186.2,465,253,471.9
							c76.8,8,108.7-18.4,108.7-18.4C362.7,452.7,367.1,458.8,366.3,459.2L366.3,459.2z"/>
					</g>
				</g>
				<g class="st8">
					<g>
						<path class="st9" d="M117,282.6c0,0,7.3-33.9,45.2-8.5s-35.8,28.2-69.3,22S117,282.6,117,282.6z"/>
						<path class="st9" d="M189.5,253.3c31.7,15.9,3,22.8-23.4,21.3S157.8,237.4,189.5,253.3z"/>
					</g>
					<g>
						<path class="st9" d="M529.4,422.8c0,0,7.3-33.9,45.2-8.5c37.9,25.4-35.8,28.2-69.3,22S529.4,422.8,529.4,422.8z"/>
						<path class="st9" d="M601.9,393.5c31.7,15.9,3,22.8-23.4,21.3C552.1,413.3,570.2,377.6,601.9,393.5z"/>
					</g>
				</g>
				<g class="st8">
					<g>
						<path class="st9" d="M529.4,102.8c0,0,7.3-33.9,45.2-8.5s-35.8,28.2-69.3,22.1C471.9,110.1,529.4,102.8,529.4,102.8z"/>
						<path class="st9" d="M601.9,73.5c31.7,15.9,3,22.8-23.4,21.3C552.1,93.3,570.2,57.6,601.9,73.5z"/>
					</g>
				</g>
			</g>
		</g>
	</g>
</g>
<g id="p">
</g>
<g id="q">
</g>
<g id="r">
</g>
<g id="s">
</g>
</svg>
