<?xml version="1.0" encoding="utf-8"?>
<!-- Generator: Adobe Illustrator 26.2.1, SVG Export Plug-In . SVG Version: 6.00 Build 0)  -->
<svg version="1.1" id="Layer_1" xmlns="http://www.w3.org/2000/svg" xmlns:xlink="http://www.w3.org/1999/xlink" x="0px" y="0px"
	 viewBox="0 0 718 661" style="enable-background:new 0 0 718 661;" xml:space="preserve">
<style type="text/css">
	.st0{fill:url(#SVGID_1_);}
	.st1{fill:#31D0E5;stroke:url(#SVGID_00000021822731325759710440000010305155112993785738_);stroke-width:6;stroke-miterlimit:10;}
	.st2{clip-path:url(#SVGID_00000072247907941768012530000005674350781824609723_);}
	.st3{fill:#31D0E5;}
	.st4{opacity:0.14;enable-background:new    ;}
	.st5{fill:#77C9B0;}
	.st6{opacity:0.3;}
	.st7{fill:#FFFFFF;}
	.st8{fill:url(#SVGID_00000022526994468552509050000014780527720603644083_);stroke:#A1A8A7;stroke-miterlimit:10;}
	.st9{fill:#AD9E9E;}
</style>
<g id="a">
	<g id="b">
		<g>
			<g>
				
					<linearGradient id="SVGID_1_" gradientUnits="userSpaceOnUse" x1="104.0614" y1="506.1821" x2="602.267" y2="164.8152" gradientTransform="matrix(1 0 0 -1 0 662)">
					<stop  offset="0" style="stop-color:#9B81CF"/>
					<stop  offset="1" style="stop-color:#3B139B"/>
				</linearGradient>
				<circle class="st0" cx="359" cy="330.5" r="301.9"/>
				
					<linearGradient id="SVGID_00000180338014773093504380000008536927689348325311_" gradientUnits="userSpaceOnUse" x1="66.74" y1="331.5" x2="651.26" y2="331.5" gradientTransform="matrix(1 0 0 -1 0 662)">
					<stop  offset="0" style="stop-color:#4C1DA9"/>
					<stop  offset="1" style="stop-color:#997ECE"/>
				</linearGradient>
				
					<circle style="fill:#31D0E5;stroke:url(#SVGID_00000180338014773093504380000008536927689348325311_);stroke-width:6;stroke-miterlimit:10;" cx="359" cy="330.5" r="289.3"/>
			</g>
			<g>
				<defs>
					<ellipse id="SVGID_00000101796194861429794810000009068510095529174657_" cx="359" cy="330.5" rx="286.6" ry="286.3"/>
				</defs>
				<clipPath id="SVGID_00000091016315382015416410000008470337502647027374_">
					<use xlink:href="#SVGID_00000101796194861429794810000009068510095529174657_"  style="overflow:visible;"/>
				</clipPath>
				<g style="clip-path:url(#SVGID_00000091016315382015416410000008470337502647027374_);">
					<g>
						<path class="st3" d="M676,308c0,155.4-142.8,281.3-319,281.3S22.3,477,22.3,321.6s158.4-295,334.6-295S676,152.6,676,308
							L676,308z"/>
						
							<ellipse transform="matrix(0.9874 -0.1583 0.1583 0.9874 -97.2344 92.6898)" class="st4" cx="533.1" cy="656.6" rx="56.5" ry="13.3"/>
						
							<ellipse transform="matrix(0.9922 -0.1248 0.1248 0.9922 -75.765 30.7903)" class="st4" cx="207.8" cy="620" rx="34.1" ry="9"/>
						<g>
							<path class="st5" d="M127.5,524.1c0,0,4.7-7.8,3.6-12.5c-1.4-5.7,1.2-2.1,1.2-2.1l0.5,4.8l4.9-1.9c0,0-5.5,2.2-4.5,6.1
								c1,3.9,2.6,5.7,2.6,5.7L127.5,524.1L127.5,524.1z"/>
						</g>
					</g>
					<g class="st6">
						<g>
							<path class="st7" d="M117,142.6c0,0,7.3-33.9,45.2-8.5s-35.8,28.2-69.3,22.1S117,142.6,117,142.6z"/>
							<path class="st7" d="M189.5,113.3c31.7,15.9,3,22.8-23.4,21.3C139.7,133.1,157.8,97.4,189.5,113.3z"/>
						</g>
						<g>
							<path class="st7" d="M529.4,282.8c0,0,7.3-33.9,45.2-8.5s-35.8,28.2-69.3,22S529.4,282.8,529.4,282.8z"/>
							<path class="st7" d="M601.9,253.5c31.7,15.9,3,22.8-23.4,21.3C552.1,273.3,570.2,237.6,601.9,253.5L601.9,253.5z"/>
						</g>
					</g>
					<g id="f">
						<g>
							
								<linearGradient id="SVGID_00000005261070003708951020000003985291220193621918_" gradientUnits="userSpaceOnUse" x1="4457.0405" y1="306.8017" x2="4654.0698" y2="306.8017" gradientTransform="matrix(-0.7038 -0.7104 0.7104 -0.7038 3138.0959 3568.6621)">
								<stop  offset="0" style="stop-color:#FFFFFF"/>
								<stop  offset="0.44" style="stop-color:#FEFEFD"/>
								<stop  offset="0.6" style="stop-color:#FBFAF6"/>
								<stop  offset="0.71" style="stop-color:#F5F4EA"/>
								<stop  offset="0.8" style="stop-color:#EEEBD9"/>
								<stop  offset="0.88" style="stop-color:#E4DFC3"/>
								<stop  offset="0.95" style="stop-color:#D9D2A9"/>
								<stop  offset="1" style="stop-color:#CFC692"/>
							</linearGradient>
							
								<path style="fill:url(#SVGID_00000005261070003708951020000003985291220193621918_);stroke:#A1A8A7;stroke-miterlimit:10;" d="
								M190.1,214c0,0,2.2-5.5,3.7-10.3c1.5-4.8,4-8.1,7-11.2c0,0-8.2,2.1-12.9,12.3c0,0,0.7-11.1,9.1-17.4c0,0-7.6,0.8-12.9,11.5
								c0,0,1.1-13.1,9.8-21.8c0,0-7.6,0.7-12.6,12.6c0,0-0.5-3.8,2.6-10.5c3.1-6.7,2.1-10.6,0.6-14.9c-1.5-4.2-4.3-12.4-1.2-18.4
								c0,0-10.1,9.7-8.1,25.4c0,0-4.6-7.7,1.2-22.9c5.8-15.2,3.6-28.9,0-39.4c-3.5-10.5-17.6-38.7-10.9-52.8c0,0-4.7,1.4-9.3,11.5
								c-4.6,10.1-11.1,8.4-11.1,8.4s12.7-7.1,12.8-24.4c0.1-9.2-3.4-13.6-0.7-18.4c0,0-3.4,2.8-4.7,11.2c-1.3,8.4-8,14.8-11,15.8
								c0,0,10.4-13.4,9.8-27.2c-0.9-19.7-19.3-27-21.1-31.9c0,0-24.2,12.6-22.2,39.1c0,0-1.3-7.8-8-13.3c0,0,2,3.7,1.9,14.6
								c-0.1,10.9,2.1,25.6,9.7,37.7c0,0-11-10.4-12.7-24.8c0,0-4.6,15.7,10.7,38.5c0,0-10.5-8.5-14.8-18c0,0,1.3,11.3,13.6,23.8
								c0,0-6,0.1-13.2-6.2c0,0,1.8,2,3.9,10.8c2.1,8.8,15,64.7,49.9,84.8c0,0-5.4-1.2-11.7,5.2c0,0,8.7-4.8,19.9,1.3
								c0,0-8.9-0.1-14.4,9.6c0,0,7.6-5.3,19-3.9c0,0-6.5,5.7-6.1,17.7c0,0,3.3-8.4,11.3-13.8c0,0-4.4,9.8-0.6,18.7
								c0,0-0.2-7.1,6.5-14.7c0,0-3.6,9.2,3.8,17.3c0,0-2.1-7.9,0.1-11.9c0,0,4.4,4.6,10.9,3.9L190.1,214L190.1,214z"/>
							<path class="st9" d="M207.7,233.6c0,0-42.2-22.9-70.2-94.8C112,73.2,127.9,26,127.9,26S117.5,77.5,143,139.7
								c29.3,71.4,67.6,87.1,67.6,87.1C211.8,227.3,208.5,234,207.7,233.6L207.7,233.6z"/>
						</g>
					</g>
					<g class="st6">
						<g>
							<path class="st7" d="M117,462.6c0,0,7.3-33.9,45.2-8.5c37.9,25.4-35.8,28.2-69.3,22S117,462.6,117,462.6z"/>
							<path class="st7" d="M189.5,433.3c31.7,15.9,3,22.8-23.4,21.3S157.8,417.4,189.5,433.3z"/>
						</g>
						<g>
							<path class="st7" d="M529.4,602.8c0,0,7.3-33.9,45.2-8.5s-35.8,28.2-69.3,22C471.9,610.1,529.4,602.7,529.4,602.8
								L529.4,602.8z"/>
							<path class="st7" d="M601.9,573.5c31.7,15.9,3,22.8-23.4,21.3C552.1,593.3,570.2,557.6,601.9,573.5z"/>
						</g>
					</g>
				</g>
			</g>
		</g>
	</g>
</g>
<g id="h">
</g>
<g id="i">
</g>
<g id="j">
</g>
<g id="k">
</g>
<g id="l">
</g>
<g id="m">
</g>
<g id="n">
</g>
<g id="o">
</g>
<g id="p">
</g>
<g id="q">
</g>
<g id="r">
</g>
<g id="s">
</g>
</svg>
