<?xml version="1.0" encoding="utf-8"?>
<!-- Generator: Adobe Illustrator 26.2.1, SVG Export Plug-In . SVG Version: 6.00 Build 0)  -->
<svg version="1.1" id="Layer_1" xmlns="http://www.w3.org/2000/svg" xmlns:xlink="http://www.w3.org/1999/xlink" x="0px" y="0px"
	 viewBox="0 0 718 661" style="enable-background:new 0 0 718 661;" xml:space="preserve">
<style type="text/css">
	.st0{fill:url(#SVGID_1_);}
	.st1{fill:#31D0E5;stroke:url(#SVGID_00000130621156965012213090000014046702243565092265_);stroke-width:6;}
	.st2{clip-path:url(#SVGID_00000041296535180758247740000015083823573227494055_);}
	.st3{fill:#31D0E5;}
	.st4{opacity:0.14;enable-background:new    ;}
	.st5{opacity:0.45;}
	.st6{fill:#77C9B0;}
	.st7{opacity:0.3;}
	.st8{fill:#FFFFFF;}
	.st9{fill:url(#SVGID_00000116936975572879125590000009127630876190937786_);stroke:#A1A8A7;stroke-miterlimit:10;}
	.st10{fill:#AD9E9E;}
</style>
<g id="a">
	<g id="b">
	</g>
</g>
<g id="c">
</g>
<g id="d">
</g>
<g id="e">
</g>
<g id="f">
</g>
<g id="g">
</g>
<g id="h">
</g>
<g id="i">
	<g>
		<g>
			
				<linearGradient id="SVGID_1_" gradientUnits="userSpaceOnUse" x1="104.0614" y1="393.8179" x2="602.201" y2="735.1395" gradientTransform="matrix(1 0 0 1 0 -238)">
				<stop  offset="0" style="stop-color:#9B81CF"/>
				<stop  offset="1" style="stop-color:#3B139B"/>
			</linearGradient>
			<circle class="st0" cx="359" cy="330.5" r="301.9"/>
			
				<linearGradient id="SVGID_00000047050984620977236500000017236038539311079867_" gradientUnits="userSpaceOnUse" x1="66.7" y1="568.5" x2="651.3" y2="568.5" gradientTransform="matrix(1 0 0 1 0 -238)">
				<stop  offset="0" style="stop-color:#4C1DA9"/>
				<stop  offset="1" style="stop-color:#997ECE"/>
			</linearGradient>
			
				<circle style="fill:#31D0E5;stroke:url(#SVGID_00000047050984620977236500000017236038539311079867_);stroke-width:6;" cx="359" cy="330.5" r="289.3"/>
		</g>
		<g>
			<g>
				<defs>
					<ellipse id="SVGID_00000084504879400673551080000009074504131039057046_" cx="359" cy="330.5" rx="286.6" ry="286.3"/>
				</defs>
				<clipPath id="SVGID_00000165919289942764255120000017662136329050317708_">
					<use xlink:href="#SVGID_00000084504879400673551080000009074504131039057046_"  style="overflow:visible;"/>
				</clipPath>
				<g style="clip-path:url(#SVGID_00000165919289942764255120000017662136329050317708_);">
					<g>
						<path class="st3" d="M676,308c0,155.4-142.8,281.3-319,281.3S22.3,477,22.3,321.6s158.4-295,334.6-295S676,152.6,676,308
							L676,308z"/>
						
							<ellipse transform="matrix(0.9874 -0.1583 0.1583 0.9874 -97.2216 92.6664)" class="st4" cx="533.1" cy="656.6" rx="56.5" ry="13.3"/>
						
							<ellipse transform="matrix(0.9922 -0.1248 0.1248 0.9922 -75.7528 30.7789)" class="st4" cx="207.8" cy="620" rx="34.1" ry="9"/>
						<g class="st5">
							<path class="st6" d="M127.5,524.1c0,0,4.7-7.8,3.6-12.5c-1.4-5.7,1.2-2.1,1.2-2.1l0.5,4.8l4.9-1.9c0,0-5.5,2.2-4.5,6.1
								c1,3.9,2.6,5.7,2.6,5.7L127.5,524.1L127.5,524.1z"/>
						</g>
					</g>
					<g class="st7">
						<g>
							<path class="st8" d="M117,302.6c0,0,7.3-33.9,45.2-8.5s-35.8,28.2-69.3,22S117,302.6,117,302.6z"/>
							<path class="st8" d="M189.5,273.3c31.7,15.9,3,22.8-23.4,21.3S157.8,257.4,189.5,273.3z"/>
						</g>
						<g>
							<path class="st8" d="M529.4,442.8c0,0,7.3-33.9,45.2-8.5s-35.8,28.2-69.3,22S529.4,442.8,529.4,442.8z"/>
							<path class="st8" d="M601.9,413.5c31.7,15.9,3,22.8-23.4,21.3S570.2,397.6,601.9,413.5z"/>
						</g>
					</g>
					<g class="st7">
						<g>
							<path class="st8" d="M529.4,122.8c0,0,7.3-33.9,45.2-8.5s-35.8,28.2-69.3,22.1S529.4,122.8,529.4,122.8z"/>
							<path class="st8" d="M601.9,93.5c31.7,15.9,3,22.8-23.4,21.3S570.2,77.6,601.9,93.5z"/>
						</g>
					</g>
				</g>
			</g>
		</g>
		<g id="_x30_18_00000150791440199976044520000015415819572236208033_">
			<g>
				
					<linearGradient id="SVGID_00000122685271990410332990000003020570846356252058_" gradientUnits="userSpaceOnUse" x1="329.3191" y1="-2821.5503" x2="526.3525" y2="-2821.5503" gradientTransform="matrix(-0.7305 0.6829 -0.6829 -0.7305 -1241.4792 -1914.3573)">
					<stop  offset="4.330749e-04" style="stop-color:#FFFFFF"/>
					<stop  offset="0.441" style="stop-color:#FEFEFD"/>
					<stop  offset="0.5997" style="stop-color:#FBFAF6"/>
					<stop  offset="0.7128" style="stop-color:#F6F4EB"/>
					<stop  offset="0.8043" style="stop-color:#EFEBDA"/>
					<stop  offset="0.8826" style="stop-color:#E5E0C4"/>
					<stop  offset="0.9507" style="stop-color:#D9D2A9"/>
					<stop  offset="0.9972" style="stop-color:#CFC692"/>
				</linearGradient>
				<path style="fill:url(#SVGID_00000122685271990410332990000003020570846356252058_);stroke:#A1A8A7;stroke-miterlimit:10;" d="
					M471.6,401.7c0,0-5.4-2.4-10.2-4c-4.7-1.7-8-4.2-11-7.3c0,0,1.9,8.2,12,13.3c0,0-11.1-1-17.2-9.6c0,0,0.6,7.6,11.1,13.2
					c0,0-13.1-1.5-21.5-10.5c0,0,0.5,7.6,12.2,13c0,0-3.8,0.4-10.4-2.9s-10.6-2.4-14.9-1s-12.6,3.9-18.5,0.6c0,0,9.4,10.3,25.2,8.9
					c0,0-7.9,4.4-22.9-1.9s-28.8-4.4-39.4-1.1c-10.6,3.2-39.2,16.5-53.1,9.4c0,0,1.3,4.7,11.2,9.6c10,4.9,8.1,11.3,8.1,11.3
					s-6.7-12.9-24-13.5c-9.1-0.3-13.7,3-18.4,0.2c0,0,2.7,3.4,11,5s14.6,8.5,15.5,11.4c0,0-13.1-10.8-26.9-10.6
					c-19.7,0.3-27.5,18.6-32.5,20.2c0,0,11.9,24.6,38.5,23.4c0,0-7.9,1.1-13.5,7.6c0,0,3.7-1.9,14.6-1.5s25.6-1.3,38-8.6
					c0,0-10.7,10.7-25.2,12c0,0,15.6,5.1,38.8-9.6c0,0-8.8,10.3-18.4,14.2c0,0,11.4-1,24.2-12.9c0,0-0.1,6-6.5,13
					c0,0,2-1.8,10.9-3.6c8.8-1.8,65.1-13.2,86.2-47.5c0,0-1.3,5.4,4.8,11.9c0,0-4.5-8.8,1.9-19.9c0,0-0.4,8.9,9.2,14.7
					c0,0-5.1-7.7-3.3-19.1c0,0,5.5,6.7,17.5,6.6c0,0-8.3-3.5-13.5-11.7c0,0,9.6,4.6,18.7,1.2c0,0-7.2,0-14.5-6.9
					c0,0,9.1,3.9,17.4-3.3c0,0-7.9,1.8-11.9-0.5c0,0,4.8-4.3,4.2-10.8L471.6,401.7z"/>
				<path class="st10" d="M491.7,384.6c0,0-24.1,41.5-96.8,67.4c-66.2,23.6-113,6.4-113,6.4s51.2,11.8,114.1-11.9
					c72.2-27.2,89-65.1,89-65.1C485.5,380.4,492.1,383.8,491.7,384.6z"/>
			</g>
		</g>
	</g>
</g>
<g id="o">
</g>
<g id="p">
</g>
<g id="q">
</g>
<g id="r">
</g>
<g id="s">
</g>
</svg>
