<?xml version="1.0" encoding="UTF-8"?><svg xmlns="http://www.w3.org/2000/svg" xmlns:xlink="http://www.w3.org/1999/xlink" viewBox="0 0 718 661"><defs><style>.r{fill:#fff;}.s,.t{fill:#31d0e5;}.u{fill:#77c9b0;}.v{opacity:.45;}.t{stroke:url(#o);stroke-miterlimit:10;stroke-width:6px;}.w{opacity:.3;}.x{fill:none;}.y{clip-path:url(#p);}.a`{opacity:.14;}.aa{fill:url(#n);}</style><linearGradient id="n" x1="104.06" y1="155.82" x2="602.27" y2="497.19" gradientTransform="matrix(1, 0, 0, 1, 0, 0)" gradientUnits="userSpaceOnUse"><stop offset="0" stop-color="#9b81cf"/><stop offset="1" stop-color="#3b139b"/></linearGradient><linearGradient id="o" x1="66.74" y1="330.5" x2="651.26" y2="330.5" gradientTransform="matrix(1, 0, 0, 1, 0, 0)" gradientUnits="userSpaceOnUse"><stop offset="0" stop-color="#4c1da9"/><stop offset="1" stop-color="#997ece"/></linearGradient><clipPath id="p"><ellipse class="x" cx="359" cy="330.5" rx="286.63" ry="286.33"/></clipPath></defs><g id="a"><g id="b"/></g><g id="c"/><g id="d"/><g id="e"/><g id="f"/><g id="g"/><g id="h"/><g id="i"/><g id="j"/><g id="k"/><g id="l"/><g id="m"><g><g><circle class="aa" cx="359" cy="330.5" r="301.94"/><circle class="t" cx="359" cy="330.5" r="289.26"/></g><g class="y"><g><path class="s" d="M675.95,308.01c0,155.38-142.84,281.33-319.04,281.33S22.31,477,22.31,321.63,180.71,26.68,356.91,26.68s319.04,125.96,319.04,281.33Z"/><ellipse class="a`" cx="533.08" cy="656.63" rx="56.48" ry="13.33" transform="translate(-97.21 92.65) rotate(-9.11)"/><ellipse class="a`" cx="207.87" cy="620.03" rx="34.1" ry="9" transform="translate(-75.79 30.81) rotate(-7.17)"/><g class="v"><path class="u" d="M121.26,503.92s14.12-8.51,21.52,1.76,2.74,7.08-11.72,5.92c-14.46-1.16-15.03-5.41-9.8-7.68Z"/><path class="u" d="M127.46,524.1s4.71-7.82,3.61-12.49c-1.35-5.73,1.2-2.13,1.2-2.13l.5,4.77,4.95-1.92s-5.51,2.18-4.52,6.1c.99,3.91,2.63,5.72,2.63,5.72l-8.37-.03Z"/></g></g><g class="w"><g><path class="r" d="M116.98,162.57s7.31-33.89,45.19-8.52c37.88,25.37-35.81,28.21-69.28,22.05-33.47-6.16,24.09-13.53,24.09-13.53Z"/><path class="r" d="M189.46,133.28c31.67,15.9,3.03,22.82-23.39,21.31-26.42-1.51-8.28-37.21,23.39-21.31Z"/></g><g><path class="r" d="M529.42,302.75s7.31-33.89,45.19-8.52c37.88,25.37-35.81,28.21-69.28,22.05-33.47-6.16,24.09-13.53,24.09-13.53Z"/><path class="r" d="M601.9,273.46c31.67,15.9,3.03,22.82-23.39,21.31-26.42-1.51-8.28-37.21,23.39-21.31Z"/></g></g><g class="w"><g><path class="r" d="M116.98,522.57s7.31-33.89,45.19-8.52c37.88,25.37-35.81,28.21-69.28,22.05-33.47-6.16,24.09-13.53,24.09-13.53Z"/><path class="r" d="M189.46,493.28c31.67,15.9,3.03,22.82-23.39,21.31-26.42-1.51-8.28-37.21,23.39-21.31Z"/></g><g><path class="r" d="M529.42,662.75s7.31-33.89,45.19-8.52c37.88,25.37-35.81,28.21-69.28,22.05-33.47-6.16,24.09-13.53,24.09-13.53Z"/><path class="r" d="M601.9,633.46c31.67,15.9,3.03,22.82-23.39,21.31-26.42-1.51-8.28-37.21,23.39-21.31Z"/></g></g></g></g></g><g id="q"/></svg>