<svg id="a0d6889b-3ceb-4a82-961d-5463d16851eb" data-name="Layer 1" xmlns="http://www.w3.org/2000/svg" xmlns:xlink="http://www.w3.org/1999/xlink" width="74.21" height="67.82" viewBox="0 0 74.21 67.82">
  <defs>
    <style>
      .ba0376fa-1772-4630-a312-9b5db18814c0 {
        stroke: #a1a8a7;
        stroke-miterlimit: 10;
        fill: url(#b71f8603-bed3-4137-ad40-38cbbfb40e75);
      }

      .a9f16d25-40e5-4cbf-839f-1dfb92997756 {
        fill: #ad9e9e;
      }
    </style>
    <linearGradient id="b71f8603-bed3-4137-ad40-38cbbfb40e75" x1="162.9" y1="1511.86" x2="203.44" y2="1511.86" gradientTransform="matrix(0.3, -0.95, 0.95, 0.3, -1458.95, -247.08)" gradientUnits="userSpaceOnUse">
      <stop offset="0" stop-color="#fff"/>
      <stop offset="0.44" stop-color="#fefefd"/>
      <stop offset="0.6" stop-color="#fbfaf6"/>
      <stop offset="0.71" stop-color="#f6f4eb"/>
      <stop offset="0.8" stop-color="#efebda"/>
      <stop offset="0.88" stop-color="#e5e0c4"/>
      <stop offset="0.95" stop-color="#d9d2a9"/>
      <stop offset="1" stop-color="#cfc692"/>
    </linearGradient>
  </defs>
  <g>
    <path class="ba0376fa-1772-4630-a312-9b5db18814c0" d="M15,15s-1.08.5-3.13-.72a3.58,3.58,0,0,0,2.39,1.79,5.35,5.35,0,0,1-2.53,1.41A2.36,2.36,0,0,0,14.41,17a6.35,6.35,0,0,1-2.51,2.83,2.85,2.85,0,0,0,2.62-1.53,18.64,18.64,0,0,1-2.95,5.18,4,4,0,0,0,2.43-2s-.69,3.55-1.61,4.54c0,0,1.08.15,2.14-1.46A15.88,15.88,0,0,0,13.7,28a3.75,3.75,0,0,0,1.06,3.31c.79,1,.37,1.73.79,3.13s.27,1.93,2,3.49,1.71,4.44,5.5,7.71a5.22,5.22,0,0,1-.37-3.41c.53-1.6,1.23-2.41.64-4.16,0,0,1.08.49.9,2.49s-.54,3.53.13,5.28c.75,2,2.5,2.37,3.07,5.23a4.18,4.18,0,0,0-.06-2.29,3,3,0,0,1,.31-2.4,6.44,6.44,0,0,0,1.13,4.76c1.69,2.72,4.1,2.92,8.19,5.9s6,3.47,8.92,4c4.68.6,6.4,2.5,8.6,1.73,5.7-2,6.22-1,7.94-2.42.45-.4.06-3.09-1.44-7-.43-1-.87-1.52-2.79-1.42a11.06,11.06,0,0,1-5.43-.55,8.5,8.5,0,0,0,5.85-1.3A17,17,0,0,1,54,47.38c-3.19-2.36-7.1-7.47-10.55-9.15-5-2.69-8.42.21-11.54-2A5,5,0,0,0,36,35.71,6.46,6.46,0,0,1,42.5,36s-1.31-2.05-5.29-2.73-6,.89-9.88-1a15.23,15.23,0,0,0,5.65.17c3.42-.47,4.07-.93,6.12-.28a14.09,14.09,0,0,0-2.31-1.24,7.48,7.48,0,0,1-2.5-1.69c-1.06-.89-3.22-2-4.64-1.9A6.08,6.08,0,0,1,34,28a8.48,8.48,0,0,0-3.53-2.89c-3-1.27-6.07-1.43-8.42-2.72a8,8,0,0,0,2.9.31c3.24,0,4.69,1.46,6.79.28a4.91,4.91,0,0,1-3.34-1.78c-1.31-1.67-1.48-2.33-4-3.42s-2.84-.89-3.86-2c0,0,2.93,1.73,5.66.14a7.89,7.89,0,0,1-3.52-.34c-2.07-.64-2.66-.83-3.34-.79,1.52-.45,2.72.31,4.23-2.5,0,0-2,2.07-4.4,1.64a3.36,3.36,0,0,0,1.21-3.23s-1.54,2.92-3.61,3.77a4.78,4.78,0,0,0,.89-4.22,6.37,6.37,0,0,1-2,4.15Z"/>
    <path class="a9f16d25-40e5-4cbf-839f-1dfb92997756" d="M56.89,58C20.74,44.89,14.47,10.89,13.74,4.88c0-.12-1.41.33-1.4.55C12.34,5.43,16.83,45.27,56.89,58Z"/>
  </g>
</svg>
