<svg xmlns="http://www.w3.org/2000/svg" xmlns:xlink="http://www.w3.org/1999/xlink" viewBox="0 0 443.8 451.5"><defs><style>.cls-1,.cls-19{fill:none;}.cls-2{isolation:isolate;}.cls-16,.cls-3{opacity:0.5;}.cls-4{fill:url(#linear-gradient);}.cls-5{fill:#31d0e5;stroke-width:6px;stroke:url(#linear-gradient-2);}.cls-13,.cls-19,.cls-5{stroke-miterlimit:10;}.cls-6{clip-path:url(#clip-path);}.cls-7{fill:#3fc416;}.cls-8{fill:#0028ff;}.cls-9{fill:red;}.cls-10{fill:#00a6fd;}.cls-11{fill:#fb8000;}.cls-12{fill:#020fe9;}.cls-13{fill:#ff9906;stroke:#d6380d;stroke-width:0.75px;}.cls-14,.cls-22{mix-blend-mode:screen;}.cls-14{opacity:0.3;}.cls-15{fill:#ff7880;}.cls-16{mix-blend-mode:multiply;}.cls-17{fill:url(#linear-gradient-3);}.cls-18{fill:url(#linear-gradient-4);}.cls-19{stroke:#2f404f;stroke-width:0.5px;}.cls-20{fill:#00a3fd;}.cls-21{fill:#e53963;}.cls-22{opacity:0.2;}.cls-23{fill:url(#linear-gradient-5);}.cls-24{fill:url(#linear-gradient-6);}.cls-25{fill:url(#linear-gradient-7);}</style><linearGradient id="linear-gradient" x1="40.74" y1="102.65" x2="390" y2="341.97" gradientUnits="userSpaceOnUse"><stop offset="0" stop-color="#9b81cf"/><stop offset="1" stop-color="#3b139b"/></linearGradient><linearGradient id="linear-gradient-2" x1="13.67" y1="225.11" x2="425.25" y2="225.11" gradientUnits="userSpaceOnUse"><stop offset="0" stop-color="#4c1da9"/><stop offset="1" stop-color="#997ece"/></linearGradient><clipPath id="clip-path"><circle class="cls-1" cx="223.5" cy="227.4" r="209.2"/></clipPath><linearGradient id="linear-gradient-3" x1="-8401.66" y1="-4012.44" x2="-8400.74" y2="-3904.26" gradientTransform="matrix(-0.66, 0.38, 0.38, 0.66, -3739.87, 5972.49)" gradientUnits="userSpaceOnUse"><stop offset="0" stop-color="#cc8122"/><stop offset="0.32" stop-color="#9e5e16"/><stop offset="0.78" stop-color="#612f06"/><stop offset="1" stop-color="#491c00"/></linearGradient><linearGradient id="linear-gradient-4" x1="-8461.92" y1="-3966.87" x2="-8340.46" y2="-3966.87" xlink:href="#linear-gradient-3"/><linearGradient id="linear-gradient-5" x1="-9897.09" y1="-9604.57" x2="-9837.53" y2="-9604.57" gradientTransform="matrix(-1.81, -0.45, -0.45, 1.81, -21909.66, 13025.14)" gradientUnits="userSpaceOnUse"><stop offset="0" stop-color="#ff0a3b"/><stop offset="0.67" stop-color="#ff576b"/><stop offset="1" stop-color="#ff7880"/></linearGradient><linearGradient id="linear-gradient-6" x1="-9853.33" y1="-9628.15" x2="-9852.68" y2="-9550.73" gradientTransform="matrix(-1.81, -0.45, -0.45, 1.81, -21909.66, 13025.14)" xlink:href="#linear-gradient-3"/><linearGradient id="linear-gradient-7" x1="-9897.09" y1="-9595.58" x2="-9808.91" y2="-9595.58" gradientTransform="matrix(-1.81, -0.45, -0.45, 1.81, -21909.66, 13025.14)" xlink:href="#linear-gradient-3"/></defs><g class="cls-2"><g id="SB39_Interactive_Icon_11_F1"><path class="cls-3" d="M432.7,236.4a208.4,208.4,0,0,0-25.4-100.1A211.7,211.7,0,0,0,219.5,22.4C102.6,22.4,7.8,117.1,7.8,234s94.8,211.7,211.7,211.7l8.8-.2C341.6,442.9,432.7,350.3,432.7,236.4Z"/><circle class="cls-4" cx="219.5" cy="225.1" r="211.7"/><circle class="cls-5" cx="219.5" cy="225.1" r="202.8"/><g class="cls-6"><path class="cls-7" d="M375.8,165.3a1.2,1.2,0,0,0,.4.4l1.1,1.2.6.8a9.3,9.3,0,0,1,.5,1c0,.2.1.3.1.5a1.3,1.3,0,0,1,.1.6l.3,1.3a7.4,7.4,0,0,0,.4,1.4,7.5,7.5,0,0,0,.7,1.2l1,.8,1.1.5h2.2l-.5-.3-1.5-.6-.8-.5-.7-.8a4.7,4.7,0,0,1-.5-1,5.6,5.6,0,0,1-.4-1.2l-.3-1.3a1.3,1.3,0,0,0-.1-.6l-.3-.7a4.1,4.1,0,0,0-.7-1.1l-.8-.7-.8-.6-.6-.3Z"/><path class="cls-8" d="M375.8,165.4l.8.2,1,.3,1.1.5a4.7,4.7,0,0,1,1,1,3.7,3.7,0,0,1,.4,1.5,5,5,0,0,1-.1,1.7.9.9,0,0,0-.1.5l-.2.4a3.6,3.6,0,0,1-.2,1c-.1.3-.1.7-.2,1a3.1,3.1,0,0,1-.1,1c0,.4.1.7.1,1.1v.5a.7.7,0,0,1,.1.5,3.6,3.6,0,0,0,.4.9l.2.4.3.4.3.3.2.3.7.6.6.4.6.3.5.2h.6l-.4-.2-.5-.3-.5-.3-.5-.5-.5-.5-.2-.3-.2-.3-.2-.4-.2-.3c0-.2-.1-.3-.1-.4a.6.6,0,0,1-.1-.4.6.6,0,0,1-.1-.4v-2.3c.1-.3.1-.5.2-.8a4.4,4.4,0,0,0,.2-1l.2-.5a1.1,1.1,0,0,1,.1-.5,6.6,6.6,0,0,0,.1-2,4.8,4.8,0,0,0-.7-1.8,2.3,2.3,0,0,0-.7-.7l-.6-.5-1.4-.5h-1.9a.1.1,0,0,0-.1.1Z"/><path class="cls-9" d="M375.8,165.4h.2l.5.2.7.5a3.5,3.5,0,0,1,.6.9,5,5,0,0,1,.4,1.3c.1.4.1,1,.2,1.5a2.2,2.2,0,0,1-.1.8v.9a6.2,6.2,0,0,0,.1,1.9,4.8,4.8,0,0,0,.8,1.8,4,4,0,0,0,1.3,1.3l1.6.7,1.5.2a4.8,4.8,0,0,0,2.2-.2l.8-.3h-.9a7.9,7.9,0,0,1-2-.2,5,5,0,0,1-1.3-.3l-1.3-.7a3.8,3.8,0,0,1-1.1-1.1,3.4,3.4,0,0,1-.6-1.5,8.1,8.1,0,0,1-.1-1.6,10.8,10.8,0,0,0,0-1.8,4.5,4.5,0,0,0-.3-1.6,3,3,0,0,0-.6-1.4,4.5,4.5,0,0,0-.9-1l-.9-.5h-.8a.1.1,0,0,0-.1.1Z"/><path class="cls-7" d="M296.8,210.6a2.8,2.8,0,0,1-.1.6v.7a2.8,2.8,0,0,0,.1.9,3.6,3.6,0,0,0,.2,1.1,3.4,3.4,0,0,0,.6,1.2,2.1,2.1,0,0,0,.4.6l.5.5.9.8.8.9.7,1,.3,1v1a11.5,11.5,0,0,0-.2,1.6,2.8,2.8,0,0,0-.1.6l.3-.6a3.3,3.3,0,0,0,.3-.6l.3-.9a3.7,3.7,0,0,0,.1-1.1,3,3,0,0,0-.2-1.3,5.2,5.2,0,0,0-.6-1.3l-.9-1-1-.9-.5-.4-.4-.4a3.1,3.1,0,0,1-.5-1,3.6,3.6,0,0,1-.4-.9l-.5-1.5A1.5,1.5,0,0,0,296.8,210.6Z"/><path class="cls-10" d="M296.7,210.5v.2l-.4.6a10.4,10.4,0,0,0-.4,1,5.9,5.9,0,0,0-.2,1.4,2.2,2.2,0,0,0,0,.8,2.9,2.9,0,0,0,.2.9A4.8,4.8,0,0,0,297,217l1.8.9.5.2h.5l.9.3.9.3.8.4.3.3.4.2.3.3c.1.1.3.2.3.3l.3.3.3.3.2.3.2.4.2.3v.4a1.4,1.4,0,0,1,.2.7c0,.2.1.4.1.6v1.6c0,.2-.1.3-.1.4v.5h.2V226c0-.1.1-.2.1-.3v-.4c.1-.1.1-.3.2-.5a1.1,1.1,0,0,1,.1-.5v-1.4a1.9,1.9,0,0,0-.2-.8v-.5c0-.1-.1-.2-.1-.4a.8.8,0,0,1-.2-.4l-.3-.4c-.1-.3-.4-.5-.6-.8l-.3-.3-.4-.4-.8-.6-.9-.4-1-.4-.9-.3h-.9l-1.6-.8a3.5,3.5,0,0,1-1-1.1,10.3,10.3,0,0,1-.4-1.4c0-.5.1-.9.1-1.3a9.4,9.4,0,0,1,.3-.9,2.5,2.5,0,0,1,.3-.9h-.2Z"/><path class="cls-11" d="M296.7,210.5v.2a1.4,1.4,0,0,0-.2.6,3.4,3.4,0,0,0-.1,1,6.5,6.5,0,0,0,.4,1.3,3.8,3.8,0,0,0,.9,1.3,6.3,6.3,0,0,0,1.2,1.1l1.6.9,1.3.9a3.8,3.8,0,0,1,.9,1.3,3.3,3.3,0,0,1,.4,1.4,7.6,7.6,0,0,1-.1,1.5l-.3,1.3a8.2,8.2,0,0,1-1,1.9l-.3.4-.2.2h.1l.7-.6a7,7,0,0,0,1.3-1.8,5.8,5.8,0,0,0,.5-1.4,4.7,4.7,0,0,0,.3-1.7,6.7,6.7,0,0,0-.5-1.9,4.2,4.2,0,0,0-1.1-1.6l-1.6-1-.7-.4-.7-.4-1.2-.9a4.1,4.1,0,0,1-.9-1,9.3,9.3,0,0,1-.5-1c0-.4-.1-.7,0-.9v-.8h-.2Z"/><path class="cls-11" d="M359.9,231.9l.4.3a4.9,4.9,0,0,1,.8,1l1.3,1.5,1.4,2c.4.8.9,1.6,1.3,2.6l.5,1.4.3,1.6a8.6,8.6,0,0,1,.1,1.6c0,.3-.1.6-.1.9v.4a.6.6,0,0,0-.1.4,14.6,14.6,0,0,1-1.2,3.3c-.5,1.1-1.2,2.1-1.8,3.2a20.2,20.2,0,0,0-1.4,3.4,9.9,9.9,0,0,0-.4,3.4,14.7,14.7,0,0,0,1.2,5.4,7.5,7.5,0,0,0,.8,1.8,3.3,3.3,0,0,0,.3.6l.2.5.3.4h.2a1,1,0,0,0-.1-.4,7.3,7.3,0,0,1-.5-1.2,18.9,18.9,0,0,1-.6-1.8,14.4,14.4,0,0,1-.5-2.4,8.6,8.6,0,0,1-.2-2.8,11.2,11.2,0,0,1,.5-3.1,14.7,14.7,0,0,1,1.5-3.1c.5-1.1,1.2-2.1,1.8-3.3a8.9,8.9,0,0,0,.8-1.7,10.5,10.5,0,0,0,.5-1.9.6.6,0,0,1,.1-.4v-.5a2.8,2.8,0,0,0,.1-.9,11.1,11.1,0,0,0-.2-1.9,10.9,10.9,0,0,0-1-3.2,20.4,20.4,0,0,0-3.2-4.7l-1.5-1.4-1-.8-.4-.3h-.2Z"/><path class="cls-7" d="M359.1,231.2l.3.2,1.1.7,1.6,1.1,1.8,1.6c.6.7,1.3,1.4,1.9,2.2l.8,1.2.7,1.4a7.5,7.5,0,0,1,.4,1.6c.1.2.1.5.2.8v.4a.6.6,0,0,0,.1.4,13.7,13.7,0,0,1-.4,3.4c-.3,1.1-.7,2.3-1,3.5a23.3,23.3,0,0,0-.6,3.5,12.7,12.7,0,0,0,.4,3.4,16.9,16.9,0,0,0,1.1,2.7,19.3,19.3,0,0,0,1.3,2.1l1.2,1.5.5.5c.1.2.3.3.4.4l.3.3h.2l-.3-.4-.7-1-1-1.5c-.3-.7-.7-1.4-1.1-2.2a16,16,0,0,1-.8-2.6,10.6,10.6,0,0,1-.2-3.1,21,21,0,0,1,.6-3.3,35.8,35.8,0,0,0,1.1-3.5l.3-1.9a10.9,10.9,0,0,0,.1-1.8.9.9,0,0,0-.1-.5v-.4a6.4,6.4,0,0,0-.2-.9,8.4,8.4,0,0,0-.5-1.7,11.9,11.9,0,0,0-1.8-2.9,10.8,10.8,0,0,0-2.2-2.1l-2.1-1.5a6.2,6.2,0,0,0-1.7-1l-1.2-.5-.4-.2h-.1Z"/><path class="cls-12" d="M359.1,231.7h.5l1.1.5,1.8.8,2.1,1.2a17.4,17.4,0,0,1,2.2,1.8l1.1,1a10.1,10.1,0,0,1,.9,1.3,6.4,6.4,0,0,1,.8,1.4l.3.8v.4c0,.1.1.2.1.4a12.3,12.3,0,0,1,.3,3.4q-.1,1.6-.3,3.6a14.5,14.5,0,0,0,.1,3.6,11.9,11.9,0,0,0,1,3.2,14.3,14.3,0,0,0,1.6,2.4,17.2,17.2,0,0,0,1.7,1.9l1.5,1.2.6.4a.5.5,0,0,0,.4.3l.3.3h.2c.1-.1.1-.2,0-.2h0l-.3-.3-.9-.8L375,259l-1.4-1.9a13.8,13.8,0,0,1-1.4-2.4,9.5,9.5,0,0,1-.8-3,18.2,18.2,0,0,1,0-3.3c.1-1.2.3-2.4.4-3.7v-1.9l-.3-1.8-.2-.5v-.4l-.3-.9-.9-1.5a13.9,13.9,0,0,0-2.3-2.5,18.4,18.4,0,0,0-2.5-1.7l-2.4-1.1-1.9-.6-1.2-.3h-.5c-.1,0-.1.1-.1.2S359.1,231.7,359.1,231.7Z"/><polygon class="cls-13" points="296 211 359 228.6 376.3 165 313.3 147.4 296 211"/><g class="cls-14"><path class="cls-15" d="M310.8,176a36.2,36.2,0,0,0,28.6,18.5h.9a35.7,35.7,0,0,0,19.9-4.7,36.3,36.3,0,0,0,12.7-12.2l3.4-12.6-63-17.6-5.7,21.2A36.8,36.8,0,0,0,310.8,176Z"/></g><g class="cls-16"><path class="cls-17" d="M335.9,188.3c1.2,2.1,2.4,4.1,3.5,6.2l5,8.8,7.4,13,5.3,9.2c.8,1.5,1.5,2.5,1.8,3a1.1,1.1,0,0,0,.2.4h.2a1.1,1.1,0,0,1-.2-.4l-1.7-3.1c-1.3-2.2-3-5.4-5.2-9.3L345,202.9c-1.6-2.7-3.1-5.5-4.7-8.4s-2.5-4.3-3.7-6.5l-8.5-15-7.4-13-5.3-9.2-1.9-3.3h-.2v.2l1.9,3.4,5.1,9.3c2.1,3.8,4.6,8.3,7.3,13S333.1,183.2,335.9,188.3Z"/><path class="cls-18" d="M296,211l.9.3a82.7,82.7,0,0,1,79.2-45.4l.2-.9-3.4-1A83.6,83.6,0,0,0,329,175.2a84.6,84.6,0,0,0-32,32.2Z"/></g><polygon class="cls-13" points="369.3 229.7 358.5 227.7 354.6 238.1 369.3 229.7"/><path class="cls-19" d="M331.2,177.4c19.3,54.1,31.9,97.9,62.5,146.9"/><path class="cls-7" d="M257.4,144.8v1a25.9,25.9,0,0,1,0,2.8c-.1.5-.1,1.1-.2,1.8a12.1,12.1,0,0,1-.5,1.8,5.6,5.6,0,0,1-.5.8l-.6.9-1.3,2a14.7,14.7,0,0,0-1,2.2,6.9,6.9,0,0,0-.5,2.4,5.8,5.8,0,0,0,.2,2.3,5.1,5.1,0,0,0,.9,1.8,7.3,7.3,0,0,0,.9,1.3l.8,1,.7.8a5.5,5.5,0,0,0-.4-1,25.4,25.4,0,0,1-1.1-2.6,7.5,7.5,0,0,1-.4-1.6,5.4,5.4,0,0,1,0-1.8,7.6,7.6,0,0,1,.6-2,17.4,17.4,0,0,1,1-1.9l1.1-1.9.7-1,.5-1.2a8.3,8.3,0,0,0,.3-2.2,12.7,12.7,0,0,0-.1-2l-.3-1.6c-.1-.4-.3-.8-.4-1.1A3.9,3.9,0,0,0,257.4,144.8Z"/><path class="cls-10" d="M257.3,144.9l.9,1.2.9,1.5a10.3,10.3,0,0,1,.7,2.1,5.3,5.3,0,0,1,0,2.5,5.2,5.2,0,0,1-1.1,2.4,11.4,11.4,0,0,1-2.3,2l-.7.4-.7.4-1.5.9-1.5,1.1-1.3,1.2-1.2,1.4a3.5,3.5,0,0,1-.5.8l-.4.7a16.6,16.6,0,0,0-.6,1.6,2.4,2.4,0,0,0-.2.8c-.1.3-.1.5-.2.8v.8c0,.2-.1.5-.1.7s.1,1,.2,1.5a5.3,5.3,0,0,0,.3,1.2,3.6,3.6,0,0,0,.4,1.1l.4.9.5.8a1,1,0,0,0,.4.5l.3.4.3.3h.2a.4.4,0,0,0,.1-.3h0l-.2-.3-.3-.5c-.1-.1-.1-.3-.2-.6s-.2-.4-.3-.7l-.3-.9a3.6,3.6,0,0,1-.2-1c-.1-.4-.1-.8-.2-1.2v-1.2c0-.3.1-.5.1-.7a2,2,0,0,1,.1-.7c.1-.2.1-.4.2-.6a1.9,1.9,0,0,1,.2-.7l.3-.6.3-.7.4-.6.5-.6.5-.6.5-.6,1.2-1.1,1.3-.9,1.4-.9.8-.5.7-.5a9.9,9.9,0,0,0,2.6-2.4,6.8,6.8,0,0,0,1.3-3.2,4.3,4.3,0,0,0,0-1.6,3.2,3.2,0,0,0-.3-1.4,9,9,0,0,0-1.1-2.2,9.8,9.8,0,0,0-1.2-1.5,3.2,3.2,0,0,0-.9-.8l-.3-.3h-.2C257.2,144.7,257.2,144.8,257.3,144.9Z"/><path class="cls-11" d="M257.3,144.9v.3a3.6,3.6,0,0,1,.5.9,6.1,6.1,0,0,1,.2,1.5,6.8,6.8,0,0,1-.3,1.9,6.7,6.7,0,0,1-1,2.1,14.6,14.6,0,0,1-1.6,2.1l-1,1-1.1,1a13.1,13.1,0,0,0-2.2,2.5,9.3,9.3,0,0,0-1.2,3.3,9.2,9.2,0,0,0,.1,3.3,11.1,11.1,0,0,0,1.2,2.7,9.2,9.2,0,0,0,1.7,2.1,14.5,14.5,0,0,0,3,2.5l1.4.6h0l.2-.2c0-.1,0-.2-.1-.2l-.3-.2-.8-.6a12.6,12.6,0,0,1-2.5-2.6,10.7,10.7,0,0,1-1.3-2.1,13.5,13.5,0,0,1-.8-2.4,5.7,5.7,0,0,1,0-2.6,6.4,6.4,0,0,1,1-2.6,12.4,12.4,0,0,1,1.8-2.2l2.2-2.2a13.2,13.2,0,0,0,1.6-2.5,6.3,6.3,0,0,0,.9-2.5,6.1,6.1,0,0,0,.1-2.3,10.7,10.7,0,0,0-.6-1.7l-.7-.9-.3-.3h-.2C257.2,144.7,257.2,144.8,257.3,144.9Z"/><path class="cls-7" d="M100.7,106.2l-.8.7-.9.9-1.1,1.3a12.8,12.8,0,0,0-1,1.7,6.5,6.5,0,0,0-.7,2.1,2.5,2.5,0,0,0-.1,1.2v1.2a18,18,0,0,1,.2,2.2,15.5,15.5,0,0,1-.1,2.2,6.5,6.5,0,0,1-.4,2,8,8,0,0,1-.8,1.6l-1.2,1.3-2.1,1.7-.9.7,1-.4,1.2-.4,1.5-.8,1.6-1.2a9.1,9.1,0,0,0,1.3-1.9,10.5,10.5,0,0,0,.6-2.4,19.4,19.4,0,0,0,.2-2.4c-.1-.8-.1-1.6-.2-2.4s-.1-.7-.2-1v-1a12.1,12.1,0,0,1,.5-1.8,8.5,8.5,0,0,1,.6-1.7,23.9,23.9,0,0,1,1.3-2.4Z"/><path class="cls-10" d="M100.7,106.1h-.5l-1.1.3a7.7,7.7,0,0,0-1.7.7,9.1,9.1,0,0,0-2.1,1.5,5.3,5.3,0,0,0-.9,1.1,5.9,5.9,0,0,0-1.1,4.8,13.5,13.5,0,0,0,1.1,3.4,5.9,5.9,0,0,1,.4.8l.5.7.8,1.5a9.1,9.1,0,0,1,.7,1.4,9.4,9.4,0,0,1,.6,1.5c.1.2.1.5.2.7a1.9,1.9,0,0,0,.2.8v.8a1.5,1.5,0,0,1,.1.7v.7c0,.3-.1.5-.1.7a1.5,1.5,0,0,1-.1.7l-.2.7a49450112819352.4,49450112819352.4,0,0,1-.4,1.2l-.6,1.2-.7.9-.6.8-.7.7-.6.5-.5.4-.5.3-.3.2h0a.4.4,0,0,0-.1.3c.1,0,.2.1.3,0h.3l.5-.2.6-.3.8-.5.8-.6.9-.8.8-1a10.5,10.5,0,0,0,.8-1.1,1.6,1.6,0,0,1,.4-.7l.3-.7a2.4,2.4,0,0,1,.2-.8c.1-.3.1-.5.2-.8a9.9,9.9,0,0,0,.2-1.7V126c0-.3-.1-.6-.1-.9a13.6,13.6,0,0,0-.4-1.7,8.5,8.5,0,0,0-.6-1.7c-.2-.6-.5-1.2-.7-1.7l-.9-1.4-.5-.8-.4-.7a7.3,7.3,0,0,1-1-2.8,6.2,6.2,0,0,1,0-2.7,7.2,7.2,0,0,1,1.2-2.1,8,8,0,0,1,1.7-1.5l1.4-.9,1.5-.7v-.2Z"/><path class="cls-11" d="M100.6,106.1h-.3l-1.1.5a6.8,6.8,0,0,0-1.3,1.2,5.4,5.4,0,0,0-1,2,7.7,7.7,0,0,0-.4,2.7,15,15,0,0,0,.3,2.9,26.3,26.3,0,0,0,.8,3,14,14,0,0,1,.6,2.8,6.1,6.1,0,0,1-.3,2.7,5.8,5.8,0,0,1-1.3,2.3,11.4,11.4,0,0,1-3.9,3,14.5,14.5,0,0,1-3.5,1.2l-1,.2h-.4l-.2.2h.2a4.4,4.4,0,0,0,1.5.2,13.6,13.6,0,0,0,3.8-.8,10.6,10.6,0,0,0,2.5-1.1,10.1,10.1,0,0,0,2.3-1.9,7.3,7.3,0,0,0,1.7-2.8,10,10,0,0,0,.5-3.4,16,16,0,0,0-.7-3.3,7.8,7.8,0,0,1-.5-1.4,6.5,6.5,0,0,1-.4-1.3,12.8,12.8,0,0,1-.5-2.7,8.7,8.7,0,0,1,.1-2.3,7.6,7.6,0,0,1,.6-1.8,6.3,6.3,0,0,1,1-1.2l.8-.6.3-.2c.1,0,.1-.1.1-.2Z"/><path class="cls-9" d="M154.1,208.8V210a17.9,17.9,0,0,1,0,3.3,47.9,47.9,0,0,1-.2,5.1,61.1,61.1,0,0,1-1,6.5,44.3,44.3,0,0,1-2.1,7.2,29.5,29.5,0,0,1-1.6,3.7c-.7,1.2-1.4,2.4-2.2,3.6a20.7,20.7,0,0,1-2.8,3.2l-1.5,1.5-.5.4-.4.3-.9.7a34.4,34.4,0,0,1-8.1,4.2c-2.9,1.1-6,1.9-9.1,3a52.4,52.4,0,0,0-8.7,3.9,30.3,30.3,0,0,0-6.9,5.8,36.5,36.5,0,0,0-4.6,6.4c-1.1,2.2-2,4.2-2.8,6.1s-1.2,3.5-1.6,4.8-.4,1.3-.5,1.8l-.4,1.4c-.1.7-.2,1.1-.2,1.1a.4.4,0,0,0,.2.5c.2,0,.4-.1.4-.2h0l.5-1.1a22.8,22.8,0,0,1,1.2-3c.5-1.3,1.2-2.8,2-4.5s2-3.6,3.2-5.6a39.9,39.9,0,0,1,4.7-5.8,24.7,24.7,0,0,1,6.5-4.9,49.2,49.2,0,0,1,8.4-3.5c3-.9,6.1-1.8,9.2-2.9a39,39,0,0,0,4.7-2,22.6,22.6,0,0,0,4.2-2.6,3.9,3.9,0,0,0,1-.8l.5-.3.4-.4a14.9,14.9,0,0,0,1.8-1.7,31.6,31.6,0,0,0,6.9-11.9,50,50,0,0,0,1.7-7.8,41.6,41.6,0,0,0,.3-6.9,38.4,38.4,0,0,0-.3-5.2,19.2,19.2,0,0,0-.5-3.4,11.3,11.3,0,0,0-.2-1.2.5.5,0,0,0-.5-.3C154.2,208.5,154.1,208.7,154.1,208.8Z"/><path class="cls-7" d="M153.6,205.9a7,7,0,0,1,.4,1.1c.2.8.5,1.8.8,3.2s.7,3,1,4.9a57,57,0,0,1,.7,6.4,46.7,46.7,0,0,1-.2,7.4c-.2,1.3-.4,2.6-.7,3.9a25.2,25.2,0,0,1-1.2,3.9,26.4,26.4,0,0,1-1.8,3.8l-1.2,1.8-.3.4-.3.4-.7.9a32,32,0,0,1-6.8,5.8c-2.5,1.7-5.3,3.3-8,5a42.7,42.7,0,0,0-7.4,5.7,28.7,28.7,0,0,0-5.2,7.1,32.4,32.4,0,0,0-2.8,7.2,44.2,44.2,0,0,0-1.2,6.4c-.3,1.9-.3,3.6-.4,5v4.4c0,.2.2.3.4.3s.3-.1.3-.2h0a5.5,5.5,0,0,0,.1-1.2c.1-.7.3-1.7.5-3.1s.4-3,.8-4.8a55.4,55.4,0,0,1,1.7-6,26.3,26.3,0,0,1,3.1-6.6,25.2,25.2,0,0,1,5.1-6.3,37.9,37.9,0,0,1,7.1-5.1c2.7-1.6,5.5-3.1,8.2-4.9a37.9,37.9,0,0,0,4-3,22.6,22.6,0,0,0,3.4-3.5l.8-.9.4-.5.3-.5a13.7,13.7,0,0,0,1.3-2,23.5,23.5,0,0,0,1.9-4.3,29.8,29.8,0,0,0,1.7-8.6,34,34,0,0,0-.3-7.9,51.4,51.4,0,0,0-1.3-6.6c-.6-1.9-1.1-3.6-1.6-5s-1-2.4-1.4-3.1l-.5-1.1a.4.4,0,0,0-.5-.1C153.7,205.6,153.6,205.8,153.6,205.9Z"/><path class="cls-20" d="M152.9,207l.6,1,1.4,3a43.1,43.1,0,0,1,1.9,4.6,62.5,62.5,0,0,1,2,6.1,54.5,54.5,0,0,1,1.2,7.4,25.4,25.4,0,0,1,0,3.9,19,19,0,0,1-.4,4.1,29.8,29.8,0,0,1-1.1,4,11.9,11.9,0,0,1-.8,2l-.2.5-.3.5a4.1,4.1,0,0,1-.5.9,30.3,30.3,0,0,1-5.5,7c-2.1,2.2-4.6,4.3-6.9,6.5a40.9,40.9,0,0,0-6.2,7,31.7,31.7,0,0,0-3.8,7.9,37.6,37.6,0,0,0-1.3,7.7,46.9,46.9,0,0,0,0,6.5c.2,1.9.4,3.6.6,5a9.5,9.5,0,0,0,.4,1.8,4.4,4.4,0,0,0,.2,1.3l.3,1.2a.3.3,0,0,0,.4.2.3.3,0,0,0,.3-.3h0a5,5,0,0,1-.1-1.1c-.1-.7-.1-1.8-.2-3.2s-.1-3-.1-4.9.2-4,.5-6.2a32.2,32.2,0,0,1,1.8-7.1,25.8,25.8,0,0,1,3.8-7.1,44.4,44.4,0,0,1,6-6.4c2.3-2.1,4.8-4.1,7.1-6.4a37,37,0,0,0,3.3-3.6,27.1,27.1,0,0,0,2.8-4.1l.5-1.1.3-.5.2-.6a10.2,10.2,0,0,0,.9-2.2,23.7,23.7,0,0,0,1.1-4.6,32.4,32.4,0,0,0,0-8.8,45.6,45.6,0,0,0-1.8-7.7,52.7,52.7,0,0,0-2.6-6.2c-.9-1.8-1.8-3.3-2.5-4.5s-1.5-2.2-1.9-2.8l-.8-1c-.1-.2-.3-.2-.5-.1A.6.6,0,0,0,152.9,207Z"/><polygon class="cls-21" points="99.2 105.9 159.1 204.4 258.5 145 198.6 46.5 99.2 105.9"/><g class="cls-22"><path class="cls-23" d="M160.6,79.5a63.3,63.3,0,0,0,14.6,58,5.2,5.2,0,0,0,1,1.1,63.3,63.3,0,0,0,31.4,18.2,65,65,0,0,0,31.3,0L258.5,145,198.6,46.5,165.5,66.3A65.1,65.1,0,0,0,160.6,79.5Z"/></g><g class="cls-16"><path class="cls-24" d="M178.2,125.6l-3,11.9c-1.5,5.9-2.9,11.6-4.3,17.2-2.2,9.3-4.4,17.9-6.2,25.4s-3.3,13.6-4.3,18-1.2,5-1.5,6a7.3,7.3,0,0,1-.2.8h.4l.2-.8c.3-1,.9-3.1,1.6-6s2.8-10.5,4.7-17.9l6.5-25.4,4.1-16.3c1.1-4.2,2.1-8.5,3.2-12.7,2.5-10,4.9-19.9,7.3-29.2s4.4-17.9,6.2-25.4,3.3-13.6,4.3-18,1.4-5.8,1.6-6.5l-.2-.3-.2.2-1.7,6.5c-1.2,4.3-2.8,10.5-4.7,17.9l-6.5,25.4C183.2,105.8,180.7,115.7,178.2,125.6Z"/><path class="cls-25" d="M99.2,105.9l.8,1.3c55-19.3,117.7-3.9,157.1,38.7l1.4-.9-3.3-5.4a152.3,152.3,0,0,0-150.3-37.1Z"/></g><polygon class="cls-21" points="171 218.2 159.5 202.6 141.9 211 171 218.2"/><path class="cls-19" d="M184.1,104.5c-1.4,104.8,22.8,221.3,84.5,312.7"/></g></g></g></svg>