<svg xmlns="http://www.w3.org/2000/svg" xmlns:xlink="http://www.w3.org/1999/xlink" viewBox="0 0 443.8 451.5"><defs><style>.cls-1,.cls-20{fill:none;}.cls-2{isolation:isolate;}.cls-17,.cls-3{opacity:0.5;}.cls-4{fill:url(#linear-gradient);}.cls-5{fill:#31d0e5;stroke-width:6px;stroke:url(#linear-gradient-2);}.cls-14,.cls-20,.cls-5{stroke-miterlimit:10;}.cls-6{clip-path:url(#clip-path);}.cls-7{fill:#3fc416;}.cls-8{fill:#0028ff;}.cls-9{fill:red;}.cls-10{fill:#00a6fd;}.cls-11{fill:#fb8000;}.cls-12{fill:#020fe9;}.cls-13{fill:#00a3fd;}.cls-14{fill:#ff9906;stroke:#d6380d;stroke-width:0.75px;}.cls-15,.cls-22{mix-blend-mode:screen;}.cls-15{opacity:0.3;}.cls-16{fill:#ff7880;}.cls-17{mix-blend-mode:multiply;}.cls-18{fill:url(#linear-gradient-3);}.cls-19{fill:url(#linear-gradient-4);}.cls-20{stroke:#2f404f;stroke-width:0.5px;}.cls-21{fill:#e53963;}.cls-22{opacity:0.2;}.cls-23{fill:url(#linear-gradient-5);}.cls-24{fill:url(#linear-gradient-6);}.cls-25{fill:url(#linear-gradient-7);}</style><linearGradient id="linear-gradient" x1="40.74" y1="102.65" x2="390" y2="341.97" gradientUnits="userSpaceOnUse"><stop offset="0" stop-color="#9b81cf"/><stop offset="1" stop-color="#3b139b"/></linearGradient><linearGradient id="linear-gradient-2" x1="13.67" y1="225.11" x2="425.25" y2="225.11" gradientUnits="userSpaceOnUse"><stop offset="0" stop-color="#4c1da9"/><stop offset="1" stop-color="#997ece"/></linearGradient><clipPath id="clip-path"><circle class="cls-1" cx="223.5" cy="227.4" r="209.2"/></clipPath><linearGradient id="linear-gradient-3" x1="-8389.48" y1="-4016.9" x2="-8388.56" y2="-3908.73" gradientTransform="matrix(-0.69, 0.33, 0.33, 0.69, -4126.13, 5678.54)" gradientUnits="userSpaceOnUse"><stop offset="0" stop-color="#cc8122"/><stop offset="0.32" stop-color="#9e5e16"/><stop offset="0.78" stop-color="#612f06"/><stop offset="1" stop-color="#491c00"/></linearGradient><linearGradient id="linear-gradient-4" x1="-8449.74" y1="-3971.34" x2="-8328.28" y2="-3971.34" xlink:href="#linear-gradient-3"/><linearGradient id="linear-gradient-5" x1="-9898.2" y1="-9600.94" x2="-9838.64" y2="-9600.94" gradientTransform="matrix(-1.8, -0.47, -0.47, 1.8, -22095.39, 12700.34)" gradientUnits="userSpaceOnUse"><stop offset="0" stop-color="#ff0a3b"/><stop offset="0.67" stop-color="#ff576b"/><stop offset="1" stop-color="#ff7880"/></linearGradient><linearGradient id="linear-gradient-6" x1="-9854.45" y1="-9624.51" x2="-9853.79" y2="-9547.09" gradientTransform="matrix(-1.8, -0.47, -0.47, 1.8, -22095.39, 12700.34)" xlink:href="#linear-gradient-3"/><linearGradient id="linear-gradient-7" x1="-9898.2" y1="-9591.94" x2="-9810.03" y2="-9591.94" gradientTransform="matrix(-1.8, -0.47, -0.47, 1.8, -22095.39, 12700.34)" xlink:href="#linear-gradient-3"/></defs><g class="cls-2"><g id="SB39_Interactive_Icon_11_F1"><path class="cls-3" d="M432.7,236.4a208.4,208.4,0,0,0-25.4-100.1A211.7,211.7,0,0,0,219.5,22.4C102.6,22.4,7.8,117.1,7.8,234s94.8,211.7,211.7,211.7l8.8-.2C341.6,442.9,432.7,350.3,432.7,236.4Z"/><circle class="cls-4" cx="219.5" cy="225.1" r="211.7"/><circle class="cls-5" cx="219.5" cy="225.1" r="202.8"/><g class="cls-6"><path class="cls-7" d="M368.9,168.8l.4.4,1,1.3.5.8a4.2,4.2,0,0,1,.4,1c.1.2.1.4.2.5v.6a6.8,6.8,0,0,0,.2,1.4l.3,1.3a5.4,5.4,0,0,0,.7,1.3,2.6,2.6,0,0,0,.9.9,2.4,2.4,0,0,0,1,.5l.9.3h1.3l-.5-.3-1.4-.7-.8-.6a2.7,2.7,0,0,1-.7-.8c-.1-.3-.3-.7-.4-1.1l-.3-1.2c-.1-.4-.1-.8-.2-1.3a1.3,1.3,0,0,0-.1-.6,1.4,1.4,0,0,0-.2-.7,2.9,2.9,0,0,0-.6-1.1l-.8-.9-.7-.6-.6-.3Z"/><path class="cls-8" d="M368.9,168.9l.8.2.9.3a4.1,4.1,0,0,1,1.1.7,2.2,2.2,0,0,1,.9,1,4.2,4.2,0,0,1,.4,1.5,4.7,4.7,0,0,1-.3,1.7c0,.2-.1.3-.1.5l-.2.4-.3,1-.3,1c0,.3-.1.7-.1,1v1.5a.7.7,0,0,0,.1.5,1.7,1.7,0,0,0,.3,1,.8.8,0,0,0,.2.4l.2.4.2.4.3.3.6.6.6.4.5.4.6.2.4.2h.5l-.3-.2-.4-.2-.5-.3-.5-.4-.4-.4-.5-.6-.2-.3-.2-.3-.2-.4a.8.8,0,0,0-.1-.4c0-.1-.1-.2-.1-.4s-.1-.2-.1-.4a.8.8,0,0,0-.1-.4v-1.3c.1-.3.1-.6.2-.9a2.9,2.9,0,0,1,.2-.9l.3-.9v-.5c.1-.1.1-.3.2-.5a4.4,4.4,0,0,0,.2-2,3.1,3.1,0,0,0-.6-1.9,1.8,1.8,0,0,0-.5-.7l-.7-.5a3.8,3.8,0,0,0-1.3-.6l-1-.2h-.9c-.1,0-.1,0-.1.1Z"/><path class="cls-9" d="M368.9,168.9h.1l.6.3.6.6a3.5,3.5,0,0,1,.6.9l.3,1.3a7.5,7.5,0,0,1,0,1.5v.8c-.1.3-.1.6-.2.9a12,12,0,0,0,0,1.9,4,4,0,0,0,.7,1.8,4.2,4.2,0,0,0,1.2,1.4,4,4,0,0,0,1.6.8l1.4.4a7.3,7.3,0,0,0,2.2-.1l.8-.2H378l-2-.3-1.3-.5a3.3,3.3,0,0,1-1.3-.7,2.7,2.7,0,0,1-.9-1.2,3.3,3.3,0,0,1-.5-1.5,4.3,4.3,0,0,1,0-1.6c0-.6.1-1.2.1-1.8a9.9,9.9,0,0,0-.2-1.7,5.8,5.8,0,0,0-.5-1.4,2.7,2.7,0,0,0-.8-1,2.4,2.4,0,0,0-.9-.6h-.8c-.1,0-.1,0-.1.1Z"/><path class="cls-7" d="M287,208.5a1.5,1.5,0,0,0-.1.6,1.7,1.7,0,0,0-.1.7v1a5.2,5.2,0,0,0,.2,1.1,5.6,5.6,0,0,0,.4,1.2l.4.6.5.5.8.9.8,1,.6,1a3.6,3.6,0,0,1,.2,1,3.1,3.1,0,0,1-.1,1c-.1.6-.2,1.2-.3,1.6a2.1,2.1,0,0,0-.1.6l.3-.6a1.6,1.6,0,0,0,.3-.6,2,2,0,0,0,.4-.8l.3-1.2a3,3,0,0,0-.2-1.3,6.9,6.9,0,0,0-.5-1.3l-.9-1.1-.9-1-.4-.4c-.2-.1-.3-.3-.4-.4l-.5-1-.3-.9c-.1-.7-.3-1.2-.3-1.6A2.8,2.8,0,0,1,287,208.5Z"/><path class="cls-10" d="M286.9,208.4l-.2.2-.3.6a2.3,2.3,0,0,0-.5,1,4,4,0,0,0-.4,1.3v.9a2.9,2.9,0,0,0,.2.9,4.2,4.2,0,0,0,1.1,1.6l1.7,1.1.5.2h.4l.9.4.9.3.7.5.4.3.3.2.3.3c.1.1.3.2.3.4l.3.3.2.3a.5.5,0,0,1,.2.4l.2.3a.6.6,0,0,1,.1.4l.2.3c0,.3.1.5.1.7s.1.5.1.7v.6a1.1,1.1,0,0,0-.1.5.7.7,0,0,1-.1.5.6.6,0,0,1-.1.4v.4h.2v-.2a.3.3,0,0,0,.1-.2l.2-.4a4.3,4.3,0,0,0,.1-.5c.1-.1.1-.3.2-.5s.1-.5.1-.7v-.7c0-.3-.1-.6-.1-.8v-.5c0-.1-.1-.3-.1-.4s-.1-.3-.2-.4a.5.5,0,0,0-.2-.4,4.1,4.1,0,0,0-.5-.9l-.3-.3-.4-.4-.8-.7-.9-.5-.9-.4-.9-.4h-.5l-.4-.2a5.3,5.3,0,0,1-1.5-.8,3.8,3.8,0,0,1-.9-1.3,3.1,3.1,0,0,1-.3-1.3,5.1,5.1,0,0,1,.2-1.3l.3-.9a2.2,2.2,0,0,1,.4-.8v-.2Z"/><path class="cls-11" d="M286.9,208.5h-.1l-.3.6a3.6,3.6,0,0,0,.2,2.3,3.3,3.3,0,0,0,.7,1.3l1.2,1.2,1.5,1a6.3,6.3,0,0,1,1.2,1.1,3.8,3.8,0,0,1,.9,1.3,4,4,0,0,1,.3,1.5,5.9,5.9,0,0,1-.2,1.4,5,5,0,0,1-.5,1.3,7.2,7.2,0,0,1-1,1.8l-.4.4-.2.2h.2l.6-.4a10.1,10.1,0,0,0,1.5-1.8l.6-1.3a4.7,4.7,0,0,0,.3-1.7,3.2,3.2,0,0,0-.3-1.9,5.9,5.9,0,0,0-1-1.7l-1.5-1.2-.7-.4-.7-.4-1.1-1a7.6,7.6,0,0,1-.8-1.1,4.2,4.2,0,0,1-.4-1v-.9a4.3,4.3,0,0,1,.1-.5c0-.2.1-.2.1-.2s0-.2-.1-.2Z"/><path class="cls-11" d="M348.8,233.4l.4.5.9,1.4a14.2,14.2,0,0,1,1.3,2.2,15.7,15.7,0,0,1,1.4,2.9,13.7,13.7,0,0,1,1.1,3.6,6.3,6.3,0,0,1,.3,1.9,14.8,14.8,0,0,1,.1,2.1l-.3,2-.3,1v.6l-.2.5a16.7,16.7,0,0,1-2.4,3.7l-3.1,3.6a19.5,19.5,0,0,0-2.8,3.8,14.2,14.2,0,0,0-1.4,4.1,13.1,13.1,0,0,0-.2,3.9,25.3,25.3,0,0,0,.4,3.2,18.4,18.4,0,0,0,.7,2.4,4.6,4.6,0,0,0,.3.9,1.4,1.4,0,0,0,.2.7l.2.5a.2.2,0,0,0,.2.2c.1-.1.2-.1.1-.2h0a2.8,2.8,0,0,0-.1-.6,13,13,0,0,1-.3-1.5c-.1-.7-.2-1.5-.3-2.5a28.5,28.5,0,0,1-.2-3.1,15.9,15.9,0,0,1,.4-3.6,14.4,14.4,0,0,1,1.5-3.7,22.6,22.6,0,0,1,2.8-3.5c1-1.1,2.2-2.3,3.2-3.5s1.1-1.3,1.5-2a15.1,15.1,0,0,0,1.1-2.2l.3-.6v-.5l.3-1.2a16.4,16.4,0,0,0,.2-2.3,16.1,16.1,0,0,0-.5-4.4,20.4,20.4,0,0,0-1.5-3.7,24.8,24.8,0,0,0-1.7-2.9,13.9,13.9,0,0,0-1.7-2.1,5.2,5.2,0,0,0-1.1-1.3l-.5-.5h-.2Z"/><path class="cls-12" d="M350.2,233.2h0v.4c.1.4.2.9.4,1.6a10.2,10.2,0,0,0,1,2.2,10.3,10.3,0,0,0,1.9,2.5,17.2,17.2,0,0,0,2.8,2.5l1.8,1.2,1.7,1.6a15.9,15.9,0,0,1,1.3,2.2,10.2,10.2,0,0,1,.6,2.5,22.8,22.8,0,0,1-.2,2.6c-.2.8-.5,1.6-.7,2.4s-1.3,3-2,4.4l-.9,2.1-.3,1a4.3,4.3,0,0,1-.1.5h0v1a.9.9,0,0,0-.1.5v1a12.3,12.3,0,0,0,.2,2,7.8,7.8,0,0,0,1.7,3.1,15,15,0,0,0,2.4,2.1l2.1,1.4,1.3,1,.5.3c.1.1.1.1,0,.2s-.1.1-.2.1h0l-.5-.3-1.4-.8-2.2-1.2a12.4,12.4,0,0,1-2.7-2.1,6.4,6.4,0,0,1-1.3-1.5,7.2,7.2,0,0,1-.9-2,14.3,14.3,0,0,1-.4-2.2v-2.6h.1a1.3,1.3,0,0,1,.1-.6l.3-1.2a14.5,14.5,0,0,1,.9-2.2c.6-1.5,1.3-2.9,1.8-4.4a9.5,9.5,0,0,0,.9-4.3,7.8,7.8,0,0,0-.4-2.1,6.2,6.2,0,0,0-1.1-1.7,6.7,6.7,0,0,0-1.4-1.5,10.9,10.9,0,0,0-1.7-1.3l-1.5-1.3-1.3-1.5a13.4,13.4,0,0,1-1.1-1.4c-.3-.5-.5-1-.8-1.4a10.2,10.2,0,0,1-.8-2.5,14.9,14.9,0,0,1-.2-1.7,2.2,2.2,0,0,1,.1-.6h.2v.2Z"/><path class="cls-13" d="M350.4,232.6h0a.7.7,0,0,0-.1.5v1.5a14,14,0,0,0,.6,2.4,15.3,15.3,0,0,0,1.4,2.9,19.4,19.4,0,0,0,2.3,2.9l1.5,1.6a9.1,9.1,0,0,1,1.3,1.9,9.2,9.2,0,0,1,.9,2.3,7.7,7.7,0,0,1,.1,2.6,10.3,10.3,0,0,1-.7,2.5,9.4,9.4,0,0,1-1.2,2.2,39.9,39.9,0,0,1-2.7,4,21.4,21.4,0,0,0-1.3,1.9,4.1,4.1,0,0,0-.5.9,1.7,1.7,0,0,0-.2.5h-.1v.9a4.3,4.3,0,0,1-.1.5l-.2.5a.7.7,0,0,1-.1.5,14.1,14.1,0,0,0-.1,2,7.6,7.6,0,0,0,1.1,3.4,18.1,18.1,0,0,0,1.9,2.5l1.8,1.8,1.1,1.2.4.4c.1.1.1.2,0,.2H357l-.4-.4a7.6,7.6,0,0,1-1.3-1l-1.9-1.6a13.9,13.9,0,0,1-2.3-2.5,6.1,6.1,0,0,1-.9-1.8,7.3,7.3,0,0,1-.6-2.1,18.5,18.5,0,0,1,.1-2.3.9.9,0,0,1,.1-.5c0-.2.1-.4.1-.6s.1-.4.1-.6v-.8h.1c.1-.2.1-.4.2-.6l.6-1.1,1.3-2c.9-1.3,1.9-2.6,2.7-3.9a11,11,0,0,0,1.6-4.1,7.4,7.4,0,0,0,0-2.1,7.3,7.3,0,0,0-.7-1.9,9.9,9.9,0,0,0-1.1-1.7,10.7,10.7,0,0,0-1.4-1.6l-1.2-1.6a16.3,16.3,0,0,1-1.1-1.7l-.7-1.6a13.1,13.1,0,0,1-.5-1.5,13.8,13.8,0,0,1-.3-2.6c0-.8.1-1.3.1-1.7a3.2,3.2,0,0,1,.2-.6h.2v.2Z"/><polygon class="cls-14" points="286.2 208.9 347.8 230.7 369.5 168.5 307.8 146.6 286.2 208.9"/><g class="cls-15"><path class="cls-16" d="M303.3,175a36.3,36.3,0,0,0,27.3,20.4h.8a36.7,36.7,0,0,0,33.8-14.7l4.3-12.3-61.7-21.9-7.2,20.8A36.3,36.3,0,0,0,303.3,175Z"/></g><g class="cls-17"><path class="cls-18" d="M327.6,189l3,6.4c1.5,3.1,3,6.1,4.4,9.1,2.3,4.9,4.6,9.5,6.5,13.5l4.6,9.5,1.6,3.2.2.4h.2l-.2-.4-1.5-3.3-4.5-9.6-6.3-13.5c-1.4-2.8-2.8-5.8-4.2-8.7s-2.1-4.6-3.2-6.8c-2.5-5.3-5-10.6-7.4-15.5l-6.5-13.5-4.6-9.5-1.7-3.5h-.2v.2l1.6,3.5c1.1,2.3,2.6,5.6,4.4,9.6s4.1,8.6,6.4,13.6S325.1,183.7,327.6,189Z"/><path class="cls-19" d="M286.2,208.9l.8.3c16.9-28.5,49.6-44.4,82.1-39.8l.4-.9-3.4-1.2a83.5,83.5,0,0,0-44.6,8.1,84.5,84.5,0,0,0-34.1,29.9Z"/></g><polygon class="cls-14" points="358 232.5 347.3 229.8 342.8 239.9 358 232.5"/><path class="cls-20" d="M323.5,178.7c19.3,54.2,39.6,95.8,70.2,144.9"/><path class="cls-7" d="M258,152.7v1.1c0,.7,0,1.6-.1,2.7a11,11,0,0,1-.2,1.8,12.1,12.1,0,0,1-.5,1.8l-.5.9-.6.8a13.7,13.7,0,0,0-1.3,2,15.1,15.1,0,0,0-1.1,2.2,6.9,6.9,0,0,0-.5,2.4,5.8,5.8,0,0,0,.2,2.3,7.5,7.5,0,0,0,.8,1.8l.9,1.4.8.9.7.8-.4-1-1.1-2.5c-.1-.6-.3-1.1-.4-1.7a10.9,10.9,0,0,1,.1-1.8,6,6,0,0,1,.6-1.9l1-2,1.2-1.8a6.1,6.1,0,0,1,.7-1l.5-1.2a8.9,8.9,0,0,0,.3-2.2,6.6,6.6,0,0,0-.1-2,7.8,7.8,0,0,0-.2-1.6l-.4-1.2Z"/><path class="cls-10" d="M257.9,152.8l.9,1.3a5.3,5.3,0,0,1,.8,1.5,10.2,10.2,0,0,1,.8,2.1,10.4,10.4,0,0,1,0,2.5,5.9,5.9,0,0,1-1.3,2.3,9,9,0,0,1-2.3,2l-.7.4-.7.4-1.5.9-1.5,1.1-1.3,1.2a8.1,8.1,0,0,0-1.2,1.4l-.5.7a3,3,0,0,0-.4.8,5.1,5.1,0,0,0-.7,1.5,3.1,3.1,0,0,0-.2.8c-.1.3-.1.6-.2.8a2.2,2.2,0,0,1-.1.8v.8a6.1,6.1,0,0,1,.1,1.4l.3,1.2a3.6,3.6,0,0,0,.4,1.1,10.4,10.4,0,0,0,.4,1l.5.7.3.6.4.4.2.3h.3c.1,0,.1-.1,0-.2h0a.6.6,0,0,0-.2-.4l-.2-.4-.3-.6c-.1-.2-.1-.5-.2-.8a4.6,4.6,0,0,1-.3-.9,3,3,0,0,1-.2-1,4.9,4.9,0,0,1-.1-1.2,4.8,4.8,0,0,1,0-1.2,2,2,0,0,1,.1-.7,1.3,1.3,0,0,1,.1-.6c.1-.2.1-.5.2-.7a1.4,1.4,0,0,1,.2-.6l.3-.7.4-.6a1.6,1.6,0,0,1,.4-.7l.4-.6.5-.6.6-.5a6.3,6.3,0,0,1,1.2-1.1l1.3-.9,1.4-.9.8-.4.7-.5a15.5,15.5,0,0,0,2.7-2.4,6.8,6.8,0,0,0,1.3-3.2,8.6,8.6,0,0,0,.1-1.6l-.3-1.4a9,9,0,0,0-1.1-2.2,9.8,9.8,0,0,0-1.2-1.5l-.8-.8-.4-.3h-.2C257.8,152.7,257.8,152.8,257.9,152.8Z"/><path class="cls-11" d="M257.9,152.8l.2.3a6.2,6.2,0,0,1,.3,1,3.3,3.3,0,0,1,.3,1.5,7.4,7.4,0,0,1-.3,1.9,13.6,13.6,0,0,1-1.1,2,14.6,14.6,0,0,1-1.6,2.1l-1.1,1-1.1,1a10.7,10.7,0,0,0-2.2,2.5,9.6,9.6,0,0,0-1.2,3.2,6.1,6.1,0,0,0,.1,3.3,7.8,7.8,0,0,0,1.1,2.8,19.2,19.2,0,0,0,1.6,2.1,14.5,14.5,0,0,0,3,2.5,5.5,5.5,0,0,0,1.4.6h.2c.1-.1,0-.2-.1-.2l-.3-.2-.8-.6a13.3,13.3,0,0,1-2.4-2.7,10.7,10.7,0,0,1-1.3-2.1,16.9,16.9,0,0,1-.8-2.4,12.2,12.2,0,0,1,0-2.7,9.1,9.1,0,0,1,1.1-2.5,12.4,12.4,0,0,1,1.8-2.2,11.5,11.5,0,0,0,2.2-2.2,9.6,9.6,0,0,0,1.7-2.4,6.6,6.6,0,0,0,1-4.8,5.8,5.8,0,0,0-.5-1.7l-.7-.9a.7.7,0,0,0-.3-.3h-.2C257.8,152.7,257.8,152.8,257.9,152.8Z"/><path class="cls-7" d="M101.9,111.9l-.9.7-.8.9a6.5,6.5,0,0,0-1.1,1.2,12.6,12.6,0,0,0-1.1,1.7,6.5,6.5,0,0,0-.7,2.1,5.1,5.1,0,0,0-.2,1.3c0,.4.1.8.1,1.1s.1,1.5.1,2.3a14.8,14.8,0,0,1-.1,2.1,11.8,11.8,0,0,1-.4,2,5.1,5.1,0,0,1-.9,1.6,4.9,4.9,0,0,1-1.2,1.3l-2.1,1.7-.9.6,1-.3,1.2-.5,1.5-.7a8.3,8.3,0,0,0,1.6-1.2,6.4,6.4,0,0,0,1.3-1.9,6.2,6.2,0,0,0,.7-2.3,21.1,21.1,0,0,0,.2-2.5,16.4,16.4,0,0,0-.2-2.3c0-.4-.1-.7-.1-1.1v-.9a10.5,10.5,0,0,1,.5-1.9l.6-1.6,1.3-2.5Z"/><path class="cls-10" d="M101.9,111.7h-.5l-1.1.3-1.8.7a11.5,11.5,0,0,0-2,1.5,4.7,4.7,0,0,0-1,1,10,10,0,0,0-.8,1.4,6.9,6.9,0,0,0-.3,3.5,11,11,0,0,0,1,3.4,2,2,0,0,1,.4.8l.5.7.8,1.5a9.1,9.1,0,0,1,.7,1.4c.2.5.3,1,.5,1.5s.1.5.2.8.1.5.2.7v.8a1.7,1.7,0,0,1,.1.7v.8c0,.2-.1.4-.1.7a1.5,1.5,0,0,0-.1.7l-.2.6c-.1.2-.1.5-.2.7l-.3.6c-.2.3-.3.7-.6,1.1l-.7.9a2.7,2.7,0,0,1-.7.8l-.6.7a1.8,1.8,0,0,0-.7.5l-.5.4-.4.2-.3.2h-.1a.1.1,0,0,0,0,.2c0,.1.1.1.2.1l.4-.2.5-.2.6-.3.7-.4.9-.6.9-.8a7.3,7.3,0,0,0,.8-.9l.9-1.2.3-.7.3-.7.3-.8c.1-.2.1-.5.2-.8s.1-1.1.2-1.6v-.9c0-.3-.1-.6-.1-.9l-.3-1.8a17.7,17.7,0,0,0-.6-1.7l-.7-1.6-.9-1.5-.5-.8-.3-.7a9.6,9.6,0,0,1-1.1-2.8,6.2,6.2,0,0,1,.2-2.7,4.5,4.5,0,0,1,1.2-2.1,11,11,0,0,1,1.6-1.5l1.5-.9,1.4-.6.2-.2Z"/><path class="cls-11" d="M101.8,111.7l-.3.2a3.7,3.7,0,0,0-1.1.4,7.1,7.1,0,0,0-1.3,1.2,7.5,7.5,0,0,0-1.1,2,11.7,11.7,0,0,0-.4,2.7c0,1,.1,2,.2,3a16.1,16.1,0,0,0,.9,2.9,27.4,27.4,0,0,1,.5,2.8,7.7,7.7,0,0,1-.4,2.7,5.6,5.6,0,0,1-1.3,2.4,10.5,10.5,0,0,1-1.9,1.7l-2.1,1.2a18.5,18.5,0,0,1-3.4,1.1H88.7c-.1,0-.2,0-.2.1s0,.2.1.2h0a5.2,5.2,0,0,0,1.5.2A18,18,0,0,0,94,136a12.8,12.8,0,0,0,2.4-1.1,13.7,13.7,0,0,0,2.4-1.8,9.5,9.5,0,0,0,1.8-2.9,9.6,9.6,0,0,0,.4-3.4,11.3,11.3,0,0,0-.6-3.2c-.2-.5-.3-1-.5-1.4s-.3-1-.4-1.4-.3-1.8-.4-2.6a8.5,8.5,0,0,1,.1-2.3,7.5,7.5,0,0,1,.7-1.8,6.2,6.2,0,0,1,.9-1.2l.8-.6.4-.2s.1-.2,0-.2A.2.2,0,0,0,101.8,111.7Z"/><polygon class="cls-21" points="100.4 111.5 158.8 210.9 259.1 153 200.7 53.6 100.4 111.5"/><g class="cls-22"><path class="cls-23" d="M162.2,86.1a63.3,63.3,0,0,0,13.7,58.2l1,1.1A64.6,64.6,0,0,0,208,164.1a66.3,66.3,0,0,0,31.3.4L259.1,153,200.7,53.6,167.3,72.9A58.3,58.3,0,0,0,162.2,86.1Z"/></g><g class="cls-17"><path class="cls-24" d="M179.1,132.4c-1.1,4-2.1,8-3.2,11.9-1.5,5.8-3,11.6-4.5,17.1-2.4,9.2-4.7,17.9-6.6,25.3l-4.6,17.9c-.7,2.9-1.3,5-1.5,6.1a2.3,2.3,0,0,0-.2.7h.4a3.1,3.1,0,0,0,.2-.7l1.7-6,4.9-17.9,6.8-25.2c1.5-5.3,2.9-10.8,4.4-16.3l3.4-12.7c2.6-9.9,5.2-19.8,7.7-29s4.6-17.9,6.6-25.3l4.6-18c.9-3.5,1.4-5.7,1.6-6.5v-.3l-.3.2c-.2.7-.8,3-1.8,6.5s-2.9,10.4-4.9,17.8-4.4,16-6.9,25.3S181.7,122.5,179.1,132.4Z"/><path class="cls-25" d="M100.4,111.5l.8,1.4c55.2-18.6,117.7-2.2,156.5,40.9l1.4-.8-3.2-5.5a149.7,149.7,0,0,0-69.6-40,150.5,150.5,0,0,0-80.2.7Z"/></g><path class="cls-9" d="M155.1,215.7a6.6,6.6,0,0,1,.2,1.1c0,.7.1,1.8.2,3.2s.1,3,.1,4.8-.2,4-.5,6.2a46.8,46.8,0,0,1-1.6,7,21.3,21.3,0,0,1-1.4,3.5,18.3,18.3,0,0,1-1.8,3.4,39.2,39.2,0,0,1-2.5,3.2l-1.4,1.4-.4.3-.4.4-.8.6a30.5,30.5,0,0,1-7.6,4l-8.6,2.8a38.3,38.3,0,0,0-8.2,3.8,25.6,25.6,0,0,0-6.3,5.4,30.9,30.9,0,0,0-4,6.2,36.6,36.6,0,0,0-2.3,5.8,43.2,43.2,0,0,0-1.3,4.7,13.6,13.6,0,0,0-.4,1.7,6.9,6.9,0,0,0-.2,1.3,4.5,4.5,0,0,0-.2,1.1.3.3,0,0,0,.2.4c.2.1.4,0,.4-.2h0a3.9,3.9,0,0,0,.4-1l.9-2.9,1.8-4.3a37.9,37.9,0,0,1,2.7-5.3,34.8,34.8,0,0,1,4.1-5.6,24.1,24.1,0,0,1,6.1-4.7,34.4,34.4,0,0,1,7.8-3.2c2.8-.9,5.8-1.7,8.8-2.8a33,33,0,0,0,4.3-1.9,24.2,24.2,0,0,0,4-2.5l.9-.7.4-.4.4-.3,1.6-1.7a18.8,18.8,0,0,0,2.7-3.6,30,30,0,0,0,3.2-7.7,42.7,42.7,0,0,0,1.2-7.6c.1-2.4,0-4.6-.1-6.5a48.6,48.6,0,0,0-.7-5.1,23.4,23.4,0,0,0-.7-3.2l-.3-1.2c0-.2-.2-.3-.4-.3S155.1,215.5,155.1,215.7Z"/><path class="cls-7" d="M157.6,216.5h0c-.1,0-.1.1-.1.2l-.4.7a14.4,14.4,0,0,0-.9,2.9,19.6,19.6,0,0,0-.5,4.6,34.2,34.2,0,0,0,.8,6,32.6,32.6,0,0,0,2.4,6.8c.5,1.1,1.2,2.3,1.7,3.7a21.3,21.3,0,0,1,1.3,4.3,19.3,19.3,0,0,1,.1,4.8,15,15,0,0,1-1.4,4.7,19.8,19.8,0,0,1-2.8,4.1,36.1,36.1,0,0,1-3.5,3.3,88.3,88.3,0,0,1-7.4,5.5l-3.5,2.6-1.5,1.4-.7.8h-.1l-.2.2-.3.4-.3.4-.3.4-.6.8-.5.9a2.2,2.2,0,0,0-.5.8,15.1,15.1,0,0,0-1.4,3.5,13.1,13.1,0,0,0-.2,6.8,23.9,23.9,0,0,0,2,5.7c.7,1.7,1.5,3.1,2.1,4.3s1,2.2,1.3,2.9a5.5,5.5,0,0,1,.4,1c.1.1,0,.3-.1.4h-.4l-.6-.9c-.3-.6-.9-1.5-1.6-2.6l-2.5-4.2a30.8,30.8,0,0,1-2.6-6,20.4,20.4,0,0,1-.6-3.7,14.6,14.6,0,0,1,.4-4.1,15.6,15.6,0,0,1,1.5-4.1l.5-1a4.1,4.1,0,0,1,.5-.9,3.6,3.6,0,0,1,.7-1l.3-.5.3-.4.3-.4.2-.3h.2l.7-.9,1.7-1.6a45.7,45.7,0,0,1,3.6-2.9c2.5-1.8,5-3.5,7.3-5.4a22.1,22.1,0,0,0,5.5-6.4,12.9,12.9,0,0,0,1.2-3.8,12.8,12.8,0,0,0,0-3.9,18.6,18.6,0,0,0-1-3.9c-.4-1.2-1-2.4-1.5-3.6s-.9-2.5-1.3-3.8-.6-2.4-.8-3.6-.3-2.3-.4-3.4,0-2.1.1-3.1a15.6,15.6,0,0,1,1-4.8,14.7,14.7,0,0,1,1.3-3,3.7,3.7,0,0,1,.6-.9c.1-.1.3-.2.4-.1s.2.3.1.4Z"/><path class="cls-13" d="M158.5,215.8h-.1v.2l-.5.6a22.5,22.5,0,0,0-2.8,7.1,29.3,29.3,0,0,0-.4,6.1,37.8,37.8,0,0,0,1,7.1c.3,1.2.7,2.5,1,4a21.5,21.5,0,0,1,.4,4.5,20.1,20.1,0,0,1-.8,4.7,14.9,14.9,0,0,1-2.3,4.3,23.8,23.8,0,0,1-3.6,3.5,27.5,27.5,0,0,1-4,2.6c-2.8,1.5-5.7,2.7-8.4,3.9l-3.9,1.9-1.7,1.1-.8.6h-.2l-.2.2-.4.4-.4.3-.4.3a4.6,4.6,0,0,1-.7.7l-.7.8-.6.7a12.1,12.1,0,0,0-2.1,3.1,14.7,14.7,0,0,0-1.5,6.6,21.6,21.6,0,0,0,.9,6c.4,1.8.8,3.4,1.2,4.7s.6,2.3.7,3l.3,1.1c0,.2-.1.3-.3.4s-.3-.1-.3-.2h0a7,7,0,0,1-.4-1.1l-1.1-2.9c-.4-1.2-1.1-2.7-1.6-4.5a26.5,26.5,0,0,1-1.4-6.4,16.3,16.3,0,0,1,.1-3.8,14.6,14.6,0,0,1,1.2-3.9,20.8,20.8,0,0,1,2.2-3.8l.7-.8a3,3,0,0,1,.8-.8l.7-.9.5-.4.4-.3.4-.4.2-.2h.2l.9-.7,2-1.3a31.7,31.7,0,0,1,4.1-2.1c2.7-1.3,5.5-2.5,8.1-3.9a21.9,21.9,0,0,0,6.7-5.2,11.9,11.9,0,0,0,1.9-3.5,12.3,12.3,0,0,0,.8-3.8,17.6,17.6,0,0,0-.2-4c-.2-1.3-.5-2.6-.8-3.9a26.3,26.3,0,0,1-.6-3.9c-.1-1.3-.1-2.5-.1-3.7s.1-2.3.3-3.4a22.1,22.1,0,0,1,.7-3,18.2,18.2,0,0,1,1.9-4.6,13.9,13.9,0,0,1,1.8-2.6l.8-.9a.4.4,0,0,1,.5.1.3.3,0,0,1,0,.4Z"/><polygon class="cls-21" points="170.6 224.9 159.2 209.1 141.5 217.3 170.6 224.9"/><path class="cls-20" d="M186.3,107.5C185,212.2,203.1,316.6,264.8,408a37.4,37.4,0,0,0,6.2,9.6"/></g></g></g></svg>