<svg xmlns="http://www.w3.org/2000/svg" xmlns:xlink="http://www.w3.org/1999/xlink" viewBox="0 0 443.8 451.5"><defs><style>.cls-1,.cls-19{fill:none;}.cls-2{isolation:isolate;}.cls-16,.cls-3{opacity:0.5;}.cls-4{fill:url(#linear-gradient);}.cls-5{fill:#31d0e5;stroke-width:6px;stroke:url(#linear-gradient-2);}.cls-13,.cls-19,.cls-5{stroke-miterlimit:10;}.cls-6{clip-path:url(#clip-path);}.cls-7{fill:#3fc416;}.cls-8{fill:#0028ff;}.cls-9{fill:red;}.cls-10{fill:#00a6fd;}.cls-11{fill:#fb8000;}.cls-12{fill:#020fe9;}.cls-13{fill:#ff9906;stroke:#d6380d;stroke-width:0.75px;}.cls-14,.cls-22{mix-blend-mode:screen;}.cls-14{opacity:0.3;}.cls-15{fill:#ff7880;}.cls-16{mix-blend-mode:multiply;}.cls-17{fill:url(#linear-gradient-3);}.cls-18{fill:url(#linear-gradient-4);}.cls-19{stroke:#2f404f;stroke-width:0.5px;}.cls-20{fill:#00a3fd;}.cls-21{fill:#e53963;}.cls-22{opacity:0.2;}.cls-23{fill:url(#linear-gradient-5);}.cls-24{fill:url(#linear-gradient-6);}.cls-25{fill:url(#linear-gradient-7);}</style><linearGradient id="linear-gradient" x1="40.74" y1="102.65" x2="390" y2="341.97" gradientUnits="userSpaceOnUse"><stop offset="0" stop-color="#9b81cf"/><stop offset="1" stop-color="#3b139b"/></linearGradient><linearGradient id="linear-gradient-2" x1="13.67" y1="225.11" x2="425.25" y2="225.11" gradientUnits="userSpaceOnUse"><stop offset="0" stop-color="#4c1da9"/><stop offset="1" stop-color="#997ece"/></linearGradient><clipPath id="clip-path"><circle class="cls-1" cx="223.5" cy="227.4" r="209.2"/></clipPath><linearGradient id="linear-gradient-3" x1="-8399.22" y1="-4010.8" x2="-8398.3" y2="-3902.63" gradientTransform="matrix(-0.69, 0.33, 0.33, 0.69, -4126.13, 5678.54)" gradientUnits="userSpaceOnUse"><stop offset="0" stop-color="#cc8122"/><stop offset="0.32" stop-color="#9e5e16"/><stop offset="0.78" stop-color="#612f06"/><stop offset="1" stop-color="#491c00"/></linearGradient><linearGradient id="linear-gradient-4" x1="-8459.48" y1="-3965.24" x2="-8338.02" y2="-3965.24" xlink:href="#linear-gradient-3"/><linearGradient id="linear-gradient-5" x1="-9898.78" y1="-9604.44" x2="-9839.22" y2="-9604.44" gradientTransform="matrix(-1.83, -0.35, -0.35, 1.83, -21147.09, 14254.18)" gradientUnits="userSpaceOnUse"><stop offset="0" stop-color="#ff0a3b"/><stop offset="0.67" stop-color="#ff576b"/><stop offset="1" stop-color="#ff7880"/></linearGradient><linearGradient id="linear-gradient-6" x1="-9855.03" y1="-9628.02" x2="-9854.37" y2="-9550.6" gradientTransform="matrix(-1.83, -0.35, -0.35, 1.83, -21147.09, 14254.18)" xlink:href="#linear-gradient-3"/><linearGradient id="linear-gradient-7" x1="-9898.78" y1="-9595.44" x2="-9810.61" y2="-9595.44" gradientTransform="matrix(-1.83, -0.35, -0.35, 1.83, -21147.09, 14254.18)" xlink:href="#linear-gradient-3"/></defs><g class="cls-2"><g id="SB39_Interactive_Icon_11_F1"><path class="cls-3" d="M432.7,236.4a208.4,208.4,0,0,0-25.4-100.1A211.7,211.7,0,0,0,219.5,22.4C102.6,22.4,7.8,117.1,7.8,234s94.8,211.7,211.7,211.7l8.8-.2C341.6,442.9,432.7,350.3,432.7,236.4Z"/><circle class="cls-4" cx="219.5" cy="225.1" r="211.7"/><circle class="cls-5" cx="219.5" cy="225.1" r="202.8"/><g class="cls-6"><path class="cls-7" d="M377.6,169.7l.4.5,1,1.2a4.1,4.1,0,0,0,.5.9,3,3,0,0,1,.4,1l.2.5v.6a6.8,6.8,0,0,0,.2,1.4l.3,1.3a5.4,5.4,0,0,0,.7,1.3l.9.9,1,.5.9.2.7.2h.6l-.5-.3a7,7,0,0,1-1.4-.8l-.8-.5a3.1,3.1,0,0,1-.7-.9,10.4,10.4,0,0,1-.4-1l-.3-1.2c-.1-.4-.1-.9-.2-1.3a2,2,0,0,0-.1-.7,2.5,2.5,0,0,0-.2-.7,3.9,3.9,0,0,0-.6-1.1,6,6,0,0,0-.8-.8l-.7-.6-.6-.4Z"/><path class="cls-8" d="M377.6,169.8l.8.3a1.6,1.6,0,0,1,.9.3l1.1.6a3.1,3.1,0,0,1,.9,1.1,2.8,2.8,0,0,1,.4,1.5,5.1,5.1,0,0,1-.3,1.7c0,.2-.1.3-.1.5l-.2.4-.3.9-.3,1.1a3.8,3.8,0,0,1-.1,1v1.5a.7.7,0,0,0,.1.5c.1.3.1.7.3.9s.1.3.2.5l.2.4c.1.1.2.2.2.3l.3.4.6.6.6.4c.2.1.3.3.5.3l.6.3.4.2h.5l-.3-.2-.4-.2-.5-.3-.5-.4-.4-.5-.5-.5-.2-.3-.2-.4-.2-.3a.6.6,0,0,0-.1-.4c0-.1-.1-.2-.1-.4V181a.6.6,0,0,0-.1-.4v-1.3c.1-.3.1-.6.2-.9a2.9,2.9,0,0,1,.2-.9l.3-.9.2-.5c0-.2.1-.3.1-.5a4.7,4.7,0,0,0,.2-2,3.1,3.1,0,0,0-.6-1.9,1.8,1.8,0,0,0-.5-.7l-.7-.5a3.8,3.8,0,0,0-1.3-.6l-1-.2h-1C377.5,169.8,377.5,169.8,377.6,169.8Z"/><path class="cls-9" d="M377.6,169.8h.2l.5.3.6.5.6,1,.3,1.3a3.8,3.8,0,0,1,0,1.5v.8a2.5,2.5,0,0,0-.1.8,13.4,13.4,0,0,0-.1,2,4.5,4.5,0,0,0,.7,1.8,5.5,5.5,0,0,0,1.2,1.4,6,6,0,0,0,1.6.8l1.4.4a7.3,7.3,0,0,0,2.2-.1l.8-.2h.1V182h-.9a7.9,7.9,0,0,1-2-.2l-1.3-.5-1.3-.7a4.7,4.7,0,0,1-.9-1.2,4.4,4.4,0,0,1-.5-1.5,4.3,4.3,0,0,1,0-1.6,10.9,10.9,0,0,0,.1-1.8,9.9,9.9,0,0,0-.2-1.7,5.8,5.8,0,0,0-.5-1.4,3.1,3.1,0,0,0-.8-1.1l-.9-.5h-.9C377.5,169.8,377.5,169.8,377.6,169.8Z"/><path class="cls-7" d="M295.7,209.5a1.5,1.5,0,0,0-.1.6,1.5,1.5,0,0,0-.1.7v.9a3.6,3.6,0,0,0,.2,1.1,6.5,6.5,0,0,0,.4,1.3l.4.6.5.5.9.9a8.6,8.6,0,0,1,.7,1l.6,1a3.6,3.6,0,0,1,.2,1,3.4,3.4,0,0,1-.1,1,13,13,0,0,1-.3,1.5,1.5,1.5,0,0,1-.1.6l.3-.5a2.1,2.1,0,0,1,.4-.6,9.4,9.4,0,0,0,.3-.9l.3-1.1a3,3,0,0,0-.2-1.3,5,5,0,0,0-.5-1.3l-.8-1.1-1-1-.4-.4-.4-.4c-.2-.3-.3-.7-.5-1l-.3-1-.3-1.5A2.8,2.8,0,0,1,295.7,209.5Z"/><path class="cls-10" d="M295.6,209.4l-.2.2c0,.1-.2.3-.3.6a1.9,1.9,0,0,0-.5.9,5.7,5.7,0,0,0-.4,1.4v.8a2.9,2.9,0,0,0,.2.9,4.5,4.5,0,0,0,1.1,1.7l1.7,1.1h.5l.4.2.9.3.9.4.7.5.4.2.3.3.3.3q.3.1.3.3l.3.4c.1.1.2.2.2.3l.2.3c.1.2.1.3.2.4s.1.2.1.4l.2.3c0,.2.1.5.1.7s.1.5.1.7v.6a4.3,4.3,0,0,1-.1.5.9.9,0,0,1-.1.5v.3a.4.4,0,0,0-.1.3v.2h0v.2h.1v-.5l.2-.3a.9.9,0,0,0,.1-.5l.2-.6c0-.2.1-.4.1-.6v-.8c0-.2-.1-.5-.1-.8v-.4c0-.1-.1-.3-.1-.4l-.2-.4c0-.2-.1-.3-.2-.5a3.5,3.5,0,0,0-.5-.8l-.3-.4-.4-.3a2.7,2.7,0,0,0-.8-.7l-.9-.5-.9-.5-.9-.3H298l-.4-.2a4.6,4.6,0,0,1-1.5-.9,2.7,2.7,0,0,1-.9-1.2,3.2,3.2,0,0,1-.3-1.4,5,5,0,0,1,.2-1.2l.3-1,.4-.8h-.2Z"/><path class="cls-11" d="M295.6,209.4v.2a1.6,1.6,0,0,0-.3.6,3.1,3.1,0,0,0-.1,1,3.5,3.5,0,0,0,.3,1.3,3.1,3.1,0,0,0,.8,1.3l1.1,1.2,1.5,1a5.8,5.8,0,0,1,1.2,1,5.1,5.1,0,0,1,.9,1.3,4,4,0,0,1,.3,1.5,7.7,7.7,0,0,1-.2,1.5c-.1.5-.3.9-.4,1.3a11.8,11.8,0,0,1-1.1,1.8l-.4.4h-.2v.2h.2l.7-.5a6.6,6.6,0,0,0,1.4-1.7,9.8,9.8,0,0,0,.6-1.4,4.3,4.3,0,0,0,.3-1.7,3.7,3.7,0,0,0-.2-1.8,6.2,6.2,0,0,0-1.1-1.7,4.4,4.4,0,0,0-1.5-1.2l-.7-.4-.7-.5-1.1-.9-.8-1.1a6.9,6.9,0,0,1-.4-1v-.9a3.5,3.5,0,0,1,.1-.6v-.2h-.2Z"/><path class="cls-11" d="M357.2,235.1l.3.3.8,1,1.1,1.6a19.3,19.3,0,0,1,1.3,2.1,16.9,16.9,0,0,1,1.1,2.7,8.3,8.3,0,0,1,.4,1.5,7.8,7.8,0,0,1,.2,1.6,4.3,4.3,0,0,1,0,1.6c0,.3-.1.6-.1.8v.5c0,.1-.1.2-.1.4a12.3,12.3,0,0,1-1.4,3.1,32.8,32.8,0,0,1-2,3.1c-.6,1.1-1.2,2.2-1.7,3.3a10.2,10.2,0,0,0-.6,3.4,9.7,9.7,0,0,0,.2,3,18.3,18.3,0,0,0,.6,2.5,17.1,17.1,0,0,0,.7,1.8l.3.7c0,.2.1.3.2.5l.2.4a.1.1,0,0,0,.2,0s.1-.1,0-.1h0a1.8,1.8,0,0,0-.1-.5l-.4-1.1c-.1-.5-.3-1.2-.4-1.9a15,15,0,0,1-.4-2.4,14,14,0,0,1,0-2.9,11.8,11.8,0,0,1,.7-3,15.2,15.2,0,0,1,1.7-3,32.8,32.8,0,0,0,2-3.1,7,7,0,0,0,.9-1.7,13.4,13.4,0,0,0,.7-1.8c0-.2.1-.3.1-.5v-.4c0-.4.1-.7.1-1a10.8,10.8,0,0,0,0-1.8,11.4,11.4,0,0,0-.8-3.3,14.6,14.6,0,0,0-1.4-2.8l-1.5-2.1-1.4-1.5-.9-.9-.4-.3h-.2Z"/><path class="cls-7" d="M356.4,234.3l.3.3,1.1.7,1.4,1.2a15.3,15.3,0,0,1,1.8,1.8,12.8,12.8,0,0,1,1.7,2.2,9.1,9.1,0,0,1,.7,1.4,5.9,5.9,0,0,1,.6,1.4,7.5,7.5,0,0,1,.4,1.6v1.6a22.1,22.1,0,0,1-.6,3.4,34,34,0,0,0-1.2,3.4,20,20,0,0,0-.9,3.5,12,12,0,0,0,.2,3.3,10.2,10.2,0,0,0,.9,2.8,14.5,14.5,0,0,0,1.2,2.2,7.4,7.4,0,0,0,1.1,1.6l.4.6.3.4.3.3c0,.1.1.1.2,0s.1-.1,0-.1h0a.6.6,0,0,0-.2-.4l-.6-1a13.1,13.1,0,0,1-.9-1.7,11.2,11.2,0,0,1-1-2.2,17.6,17.6,0,0,1-.7-2.7,13.8,13.8,0,0,1,1-6.3l1.2-3.4a10.5,10.5,0,0,0,.5-1.9,11,11,0,0,0,.2-1.8v-.9c-.1-.4-.1-.7-.2-1a5.3,5.3,0,0,0-.4-1.7,10.8,10.8,0,0,0-1.6-3,14.2,14.2,0,0,0-2-2.2,14.5,14.5,0,0,0-1.9-1.7l-1.7-1.1-1.2-.6-.4-.2h-.2A.1.1,0,0,0,356.4,234.3Z"/><path class="cls-12" d="M356.4,234.8l.4.2,1.2.5,1.7.9,2,1.4,2.1,1.9a5.8,5.8,0,0,1,1,1.2,5.7,5.7,0,0,1,.8,1.3,6.1,6.1,0,0,1,.7,1.4c.1.3.1.6.2.8v.8a9.7,9.7,0,0,1,0,3.4c-.1,1.2-.3,2.4-.5,3.6a21.7,21.7,0,0,0-.1,3.6,11.4,11.4,0,0,0,.8,3.3,13,13,0,0,0,1.4,2.6c.5.7,1.1,1.3,1.6,1.9a15.8,15.8,0,0,0,1.3,1.3l.6.5.4.3.3.3h.2c.1-.1.1-.1,0-.2h0l-.3-.3-.8-.9-1.2-1.4-1.3-2a11.5,11.5,0,0,1-1.2-2.5,8,8,0,0,1-.6-3,19.5,19.5,0,0,1,.3-3.4c.1-1.2.4-2.4.5-3.6a12.8,12.8,0,0,0,.1-1.9,12.1,12.1,0,0,0-.1-1.9.6.6,0,0,1-.1-.4V244l-.3-.9a11.9,11.9,0,0,0-.8-1.6,10.9,10.9,0,0,0-2.1-2.6,18.8,18.8,0,0,0-2.4-1.8,17.9,17.9,0,0,0-2.2-1.3l-1.9-.7-1.2-.4h-.6C356.3,234.7,356.4,234.8,356.4,234.8Z"/><polygon class="cls-13" points="294.9 209.9 356.5 231.7 378.2 169.5 316.5 147.6 294.9 209.9"/><g class="cls-14"><path class="cls-15" d="M312,176a36.1,36.1,0,0,0,27.3,20.3h.8a35,35,0,0,0,20.2-3.3,35.9,35.9,0,0,0,13.6-11.3l4.3-12.3-61.7-21.9-7.2,20.7A37.1,37.1,0,0,0,312,176Z"/></g><g class="cls-16"><path class="cls-17" d="M336.3,190l3,6.3,4.4,9.1c2.3,5,4.6,9.6,6.5,13.5l4.6,9.6c.8,1.5,1.3,2.6,1.6,3.2l.2.4h.2l-.2-.5c-.3-.5-.8-1.6-1.5-3.2l-4.5-9.6c-1.8-4-4-8.6-6.3-13.6q-2.1-4.2-4.2-8.7l-3.2-6.8-7.4-15.5L323,160.7l-4.6-9.6-1.7-3.4h-.2v.2l1.6,3.5,4.5,9.6,6.3,13.5Z"/><path class="cls-18" d="M294.9,209.9l.8.3c16.9-28.5,49.6-44.4,82.2-39.9l.3-.8-3.4-1.2a85,85,0,0,0-78.7,38Z"/></g><polygon class="cls-13" points="366.7 233.5 356.1 230.8 351.5 240.9 366.7 233.5"/><path class="cls-19" d="M331.2,177.4c19.3,54.1,31.9,97.9,62.5,146.9"/><path class="cls-7" d="M258.7,141a8.7,8.7,0,0,0,.1,1.1,20.2,20.2,0,0,1,.1,2.7,10.9,10.9,0,0,1-.1,1.8,12.9,12.9,0,0,1-.4,1.9,2,2,0,0,1-.4.8l-.6.9a21.2,21.2,0,0,0-1.1,2.1,9.2,9.2,0,0,0-.9,2.3,6.4,6.4,0,0,0-.4,2.4,5.9,5.9,0,0,0,.4,2.3,6.8,6.8,0,0,0,.9,1.7,14.7,14.7,0,0,0,1,1.3,3.8,3.8,0,0,0,.9.9l.7.8a5.5,5.5,0,0,0-.4-1l-1.3-2.5a7.5,7.5,0,0,1-.5-1.6,10.9,10.9,0,0,1-.1-1.8,14.6,14.6,0,0,1,.5-2,8.8,8.8,0,0,1,.9-2c.3-.7.7-1.3,1-1.9l.6-1.1a7.5,7.5,0,0,0,.6-3.4,12.3,12.3,0,0,0-.2-2,5.4,5.4,0,0,0-.4-1.5,8.3,8.3,0,0,0-.4-1.2Z"/><path class="cls-10" d="M258.6,141.2a5.9,5.9,0,0,1,1,1.1l.9,1.5a7.2,7.2,0,0,1,.9,2,6.9,6.9,0,0,1,.2,2.5,5.2,5.2,0,0,1-1.1,2.4,10.8,10.8,0,0,1-2.1,2.2l-.7.4-.7.5a7.1,7.1,0,0,0-1.4,1l-1.4,1.1-1.3,1.3-1.1,1.5a5.9,5.9,0,0,0-.4.8l-.4.7a10.9,10.9,0,0,0-.5,1.7,1.9,1.9,0,0,0-.2.8c0,.2-.1.5-.1.8V165c.1.5.1,1,.2,1.4a5,5,0,0,0,.4,1.3,4.7,4.7,0,0,0,.5,1,3.9,3.9,0,0,0,.4.9l.5.7.5.6.3.3.3.3h.3v-.3h0l-.2-.3-.3-.4-.3-.6-.3-.8a2,2,0,0,1-.4-.8l-.3-1.1c-.1-.3-.1-.7-.2-1.1v-1.9a2,2,0,0,1,.1-.7c0-.2.1-.4.1-.6a2.5,2.5,0,0,0,.2-.7c.1-.2.1-.5.3-.7l.3-.7c0-.2.2-.4.3-.6a4.3,4.3,0,0,0,.4-.7l.5-.6.5-.6c.4-.3.7-.8,1.1-1.1l1.2-1,1.5-1,.7-.5.7-.5a11.8,11.8,0,0,0,2.4-2.6,7,7,0,0,0,1.2-3.3,8.6,8.6,0,0,0-.1-1.6,5.7,5.7,0,0,0-.4-1.4,10.7,10.7,0,0,0-1.3-2.1,5.8,5.8,0,0,0-1.2-1.4l-.9-.8-.4-.2h-.2A.2.2,0,0,0,258.6,141.2Z"/><path class="cls-11" d="M258.6,141.1l.2.3a3.9,3.9,0,0,1,.4.9,5.4,5.4,0,0,1,.4,1.5,6.5,6.5,0,0,1-.2,1.9,12.8,12.8,0,0,1-.9,2.2A13.7,13.7,0,0,1,257,150a5.2,5.2,0,0,1-1,1.1l-1,1.1a10,10,0,0,0-2,2.6,8.4,8.4,0,0,0-1,3.3,7.2,7.2,0,0,0,.3,3.3,11.3,11.3,0,0,0,1.3,2.7,12,12,0,0,0,1.8,2,13,13,0,0,0,3.2,2.3,5.5,5.5,0,0,0,1.4.5h0a.2.2,0,0,0,.2-.2v-.2h-.3l-.9-.6a14.6,14.6,0,0,1-2.6-2.5,10.1,10.1,0,0,1-1.4-2,16,16,0,0,1-1-2.3,8.2,8.2,0,0,1-.1-2.7,7.9,7.9,0,0,1,.8-2.6,19.5,19.5,0,0,1,1.7-2.3,22,22,0,0,0,2-2.3,10.1,10.1,0,0,0,1.6-2.6,7.7,7.7,0,0,0,.7-2.6,5.9,5.9,0,0,0-.1-2.3,3.9,3.9,0,0,0-.7-1.6,3.5,3.5,0,0,0-.7-.9l-.3-.2h-.2C258.5,141,258.5,141.1,258.6,141.1Z"/><path class="cls-7" d="M100.1,111.4l-.8.8a3.6,3.6,0,0,0-.8.9,6.4,6.4,0,0,0-1,1.3,9.1,9.1,0,0,0-.9,1.7,14.2,14.2,0,0,0-.7,2.2v1.3c0,.4.1.8.1,1.2l.3,2.2a14.8,14.8,0,0,1,.1,2.1,12,12,0,0,1-.3,2,8.7,8.7,0,0,1-.7,1.7l-1.1,1.3L92.2,132l-.8.7,1-.4,1.1-.5,1.4-.9a6.1,6.1,0,0,0,1.6-1.3,5.6,5.6,0,0,0,1.2-2,9.3,9.3,0,0,0,.5-2.4,19.2,19.2,0,0,0,0-2.4l-.3-2.3a4.3,4.3,0,0,1-.2-1.1,2.8,2.8,0,0,1-.1-.9,10.8,10.8,0,0,1,.3-1.9l.6-1.7,1.1-2.5Z"/><path class="cls-10" d="M100,111.3h-.4l-1.1.3-1.7.9a12.5,12.5,0,0,0-1.9,1.5,4.7,4.7,0,0,0-.9,1.2,3.5,3.5,0,0,0-.7,1.5,6.4,6.4,0,0,0-.2,3.4,10.6,10.6,0,0,0,1.4,3.3c.1.3.3.5.4.8l.5.7,1,1.4a9.1,9.1,0,0,1,.7,1.4,9.1,9.1,0,0,1,.7,1.4c.1.3.1.5.2.8a1.9,1.9,0,0,1,.2.7c.1.3.1.5.2.8s.1.5.1.7v1.4a2,2,0,0,0-.1.7v.7c-.1.2-.1.5-.2.7l-.2.6a11.7,11.7,0,0,1-.5,1.1,3.6,3.6,0,0,1-.7,1l-.6.9-.6.7-.6.5-.5.5-.4.2-.3.3h0v.2h.2l.4-.2.5-.2.6-.3.7-.5.8-.7.8-.8.8-1a5.4,5.4,0,0,0,.7-1.3l.3-.7.3-.7c.1-.3.1-.5.2-.8s.1-.5.2-.8a9.6,9.6,0,0,0,0-1.7,2.7,2.7,0,0,0,0-.9,1.9,1.9,0,0,1-.1-.8c-.2-.6-.3-1.2-.5-1.8a11.1,11.1,0,0,0-.7-1.6l-.9-1.6-.9-1.5-.5-.7-.5-.6a9.9,9.9,0,0,1-1.2-2.8,6.2,6.2,0,0,1-.1-2.7,6.5,6.5,0,0,1,1.1-2.2,10.6,10.6,0,0,1,1.5-1.5l1.5-1.1,1.3-.7c.1,0,.2-.1.1-.2S100.1,111.2,100,111.3Z"/><path class="cls-11" d="M100,111.3h-.4l-.9.5a5.3,5.3,0,0,0-1.3,1.3,6.7,6.7,0,0,0-.9,2.1,11.8,11.8,0,0,0-.3,2.7,14.7,14.7,0,0,0,.5,2.9,24.7,24.7,0,0,0,1,2.9,9.6,9.6,0,0,1,.7,2.8,6.1,6.1,0,0,1-.1,2.7,6.6,6.6,0,0,1-1.1,2.4,16.6,16.6,0,0,1-1.8,1.9l-2,1.3a16.3,16.3,0,0,1-3.4,1.4l-1,.2h-.4l-.2.2a.2.2,0,0,0,.2.2h1.5a11.3,11.3,0,0,0,3.8-.9l2.4-1.2a14.2,14.2,0,0,0,2.2-2.1,7.5,7.5,0,0,0,1.6-2.9,9.8,9.8,0,0,0,.2-3.4,10.8,10.8,0,0,0-.9-3.2l-.6-1.4a7.8,7.8,0,0,0-.5-1.4l-.6-2.5a8.8,8.8,0,0,1,0-2.3,5.3,5.3,0,0,1,.6-1.9,5.7,5.7,0,0,1,.8-1.3l.8-.6.3-.2s.1-.2,0-.3Z"/><path class="cls-9" d="M159.2,210.8a10.9,10.9,0,0,0,.1,1.2c.1.8.1,1.9.2,3.3a43.1,43.1,0,0,1,0,5.1,54.1,54.1,0,0,1-.6,6.5,44.9,44.9,0,0,1-1.6,7.4,28.7,28.7,0,0,1-1.5,3.7,26.4,26.4,0,0,1-2,3.7,21.3,21.3,0,0,1-2.5,3.4l-1.5,1.6-.4.4-.4.4-.9.7a37.3,37.3,0,0,1-7.8,4.6c-2.9,1.3-5.9,2.3-8.9,3.5a50.1,50.1,0,0,0-8.6,4.5,34.5,34.5,0,0,0-6.5,6.1,35.2,35.2,0,0,0-4.2,6.7,55.6,55.6,0,0,0-2.4,6.2,34.8,34.8,0,0,0-1.4,4.9,16.2,16.2,0,0,0-.4,1.9,13,13,0,0,1-.3,1.3,11.3,11.3,0,0,1-.2,1.2c0,.2.1.4.3.4s.3,0,.4-.2h0a8.2,8.2,0,0,1,.4-1.1c.2-.7.5-1.8,1-3.1l1.8-4.6a51.2,51.2,0,0,1,2.9-5.7,34,34,0,0,1,4.3-6.1,25.3,25.3,0,0,1,6.3-5.3,43.5,43.5,0,0,1,8.1-3.9c2.9-1.1,6-2.1,9.1-3.4a47.8,47.8,0,0,0,4.5-2.3,37.1,37.1,0,0,0,4.1-2.8l.9-.9.5-.4.4-.4,1.7-1.8a20.9,20.9,0,0,0,2.7-3.9,35,35,0,0,0,3.5-8.3,39.8,39.8,0,0,0,1.2-8,51.4,51.4,0,0,0,0-6.8c-.2-2-.4-3.8-.6-5.2s-.5-2.6-.7-3.4l-.3-1.1c-.1-.2-.3-.4-.5-.3S159.2,210.7,159.2,210.8Z"/><path class="cls-7" d="M158.6,208l.4,1.1c.2.7.6,1.7,1,3.1s.9,2.9,1.3,4.8a52.1,52.1,0,0,1,1,6.3,37.2,37.2,0,0,1,.2,7.5,25.8,25.8,0,0,1-.4,3.9,29.2,29.2,0,0,1-1,4,25.4,25.4,0,0,1-1.6,3.8,10.8,10.8,0,0,1-1.1,1.8l-.3.5-.3.5-.6.8a34.2,34.2,0,0,1-6.4,6.2c-2.5,1.9-5.2,3.6-7.7,5.5a42.3,42.3,0,0,0-7.2,6.1,32.8,32.8,0,0,0-4.8,7.3,41.4,41.4,0,0,0-2.3,7.4,59.1,59.1,0,0,0-.9,6.5c-.1,1.9-.1,3.6-.1,5a12.8,12.8,0,0,1,.1,1.9c0,.5.1,1,.1,1.3a5.5,5.5,0,0,0,.1,1.2c0,.2.2.3.4.3a.3.3,0,0,0,.3-.3h0a8.7,8.7,0,0,1,.1-1.1c0-.7.1-1.8.2-3.2s.3-3,.6-4.8a56.1,56.1,0,0,1,1.3-6.1,41.8,41.8,0,0,1,2.7-6.8,29,29,0,0,1,4.7-6.5,49.4,49.4,0,0,1,6.9-5.6c2.6-1.7,5.3-3.4,7.9-5.3l3.8-3.2a29.1,29.1,0,0,0,3.3-3.7l.7-1,.3-.5.3-.4,1.2-2.2a32,32,0,0,0,1.7-4.3,33.7,33.7,0,0,0,1.2-8.7,39.1,39.1,0,0,0-.8-7.9,36.1,36.1,0,0,0-1.7-6.5,42.2,42.2,0,0,0-1.9-4.9l-1.5-3a5.8,5.8,0,0,0-.6-1.1.4.4,0,0,0-.5-.1C158.6,207.6,158.5,207.8,158.6,208Z"/><path class="cls-20" d="M157.9,209.1a3.4,3.4,0,0,1,.6,1,27.4,27.4,0,0,1,1.6,2.8,47.5,47.5,0,0,1,2.2,4.5,52.4,52.4,0,0,1,2.3,6.1,38,38,0,0,1,1.6,7.2,26,26,0,0,1,.3,4,26.8,26.8,0,0,1-.2,4,27.1,27.1,0,0,1-.9,4.1l-.6,2-.3.6-.2.4a10.4,10.4,0,0,1-.4,1,35.6,35.6,0,0,1-5.1,7.3c-2.1,2.3-4.4,4.5-6.6,6.8a51,51,0,0,0-5.8,7.4,36.4,36.4,0,0,0-3.3,8.1,43.4,43.4,0,0,0-.9,7.7,61.2,61.2,0,0,0,.4,6.5c.3,2,.6,3.6.9,5s.3,1.3.4,1.8.3,1,.4,1.3l.3,1.1c0,.2.2.3.4.3s.3-.2.3-.4h0s-.1-.4-.2-1.1-.2-1.8-.3-3.1-.3-3-.4-4.9a46.1,46.1,0,0,1,.2-6.3,31.4,31.4,0,0,1,1.3-7.1,24.2,24.2,0,0,1,3.4-7.3,39.6,39.6,0,0,1,5.7-6.8c2.1-2.2,4.5-4.3,6.7-6.8a28.5,28.5,0,0,0,3.1-3.8,25.8,25.8,0,0,0,2.5-4.2l.5-1.1.2-.6.2-.5a20.9,20.9,0,0,0,.8-2.3,24.6,24.6,0,0,0,.8-4.6,28.4,28.4,0,0,0-.5-8.8,39.9,39.9,0,0,0-2.2-7.6,42.1,42.1,0,0,0-2.9-6c-1-1.8-2-3.3-2.8-4.5l-2.1-2.7-.8-.9H158C157.9,208.8,157.9,208.9,157.9,209.1Z"/><polygon class="cls-21" points="98.6 111.2 163.9 206.1 259.8 141.2 194.5 46.3 98.6 111.2"/><g class="cls-22"><path class="cls-23" d="M158.4,81.4a63.1,63.1,0,0,0,17.8,57.1l1.1,1A64.5,64.5,0,0,0,240.9,154l18.9-12.8L194.5,46.3l-32,21.6A64.3,64.3,0,0,0,158.4,81.4Z"/></g><g class="cls-16"><path class="cls-24" d="M178.5,126.3c-.8,4.1-1.5,8.1-2.3,12.2-1.1,5.9-2.2,11.7-3.3,17.3-1.7,9.4-3.3,18.2-4.7,25.7s-2.6,13.8-3.4,18.2-.9,5.1-1.1,6.2a4.2,4.2,0,0,0-.1.7h.4a3.3,3.3,0,0,0,.2-.8l1.2-6.1c.9-4.3,2.1-10.6,3.7-18.1s3.1-16.3,5-25.7c1-5.3,2.1-10.9,3.2-16.5s1.6-8.6,2.5-12.9l5.6-29.5c1.7-9.4,3.3-18.2,4.7-25.7l3.4-18.3c.6-3.5,1-5.8,1.1-6.6v-.2h-.3c-.1.8-.6,3.1-1.3,6.6s-2.1,10.7-3.6,18.2-3.2,16.3-5.1,25.7S180.5,116.3,178.5,126.3Z"/><path class="cls-25" d="M98.6,111.2l.9,1.3c53.7-22.5,117.2-10.6,159,29.7l1.3-1-3.6-5.2A149.1,149.1,0,0,0,184,101a150.2,150.2,0,0,0-79.9,6.4Z"/></g><polygon class="cls-21" points="176.7 219.2 164.2 204.3 147.1 213.7 176.7 219.2"/><path class="cls-19" d="M184.1,104.5c-1.4,104.8,22.8,221.3,84.5,312.7"/></g></g></g></svg>