<svg xmlns="http://www.w3.org/2000/svg" xmlns:xlink="http://www.w3.org/1999/xlink" viewBox="0 0 443.8 451.5"><defs><style>.cls-1,.cls-19{fill:none;}.cls-2{isolation:isolate;}.cls-16,.cls-3{opacity:0.5;}.cls-4{fill:url(#linear-gradient);}.cls-5{fill:#31d0e5;stroke-width:6px;stroke:url(#linear-gradient-2);}.cls-13,.cls-19,.cls-5{stroke-miterlimit:10;}.cls-6{clip-path:url(#clip-path);}.cls-7{fill:#3fc416;}.cls-8{fill:#0028ff;}.cls-9{fill:red;}.cls-10{fill:#00a6fd;}.cls-11{fill:#fb8000;}.cls-12{fill:#020fe9;}.cls-13{fill:#ff9906;stroke:#d6380d;stroke-width:0.75px;}.cls-14,.cls-22{mix-blend-mode:screen;}.cls-14{opacity:0.3;}.cls-15{fill:#ff7880;}.cls-16{mix-blend-mode:multiply;}.cls-17{fill:url(#linear-gradient-3);}.cls-18{fill:url(#linear-gradient-4);}.cls-19{stroke:#2f404f;stroke-width:0.5px;}.cls-20{fill:#00a3fd;}.cls-21{fill:#e53963;}.cls-22{opacity:0.2;}.cls-23{fill:url(#linear-gradient-5);}.cls-24{fill:url(#linear-gradient-6);}.cls-25{fill:url(#linear-gradient-7);}</style><linearGradient id="linear-gradient" x1="40.74" y1="102.65" x2="390" y2="341.97" gradientUnits="userSpaceOnUse"><stop offset="0" stop-color="#9b81cf"/><stop offset="1" stop-color="#3b139b"/></linearGradient><linearGradient id="linear-gradient-2" x1="13.67" y1="225.11" x2="425.25" y2="225.11" gradientUnits="userSpaceOnUse"><stop offset="0" stop-color="#4c1da9"/><stop offset="1" stop-color="#997ece"/></linearGradient><clipPath id="clip-path"><circle class="cls-1" cx="223.5" cy="227.4" r="209.2"/></clipPath><linearGradient id="linear-gradient-3" x1="-8399.22" y1="-4010.8" x2="-8398.3" y2="-3902.63" gradientTransform="matrix(-0.67, 0.37, 0.37, 0.67, -3787.08, 5938.76)" gradientUnits="userSpaceOnUse"><stop offset="0" stop-color="#cc8122"/><stop offset="0.32" stop-color="#9e5e16"/><stop offset="0.78" stop-color="#612f06"/><stop offset="1" stop-color="#491c00"/></linearGradient><linearGradient id="linear-gradient-4" x1="-8459.48" y1="-3965.24" x2="-8338.02" y2="-3965.24" xlink:href="#linear-gradient-3"/><linearGradient id="linear-gradient-5" x1="-9898.78" y1="-9604.44" x2="-9839.22" y2="-9604.44" gradientTransform="matrix(-1.81, -0.44, -0.44, 1.81, -21882, 13072.55)" gradientUnits="userSpaceOnUse"><stop offset="0" stop-color="#ff0a3b"/><stop offset="0.67" stop-color="#ff576b"/><stop offset="1" stop-color="#ff7880"/></linearGradient><linearGradient id="linear-gradient-6" x1="-9855.03" y1="-9628.02" x2="-9854.37" y2="-9550.6" gradientTransform="matrix(-1.81, -0.44, -0.44, 1.81, -21882, 13072.55)" xlink:href="#linear-gradient-3"/><linearGradient id="linear-gradient-7" x1="-9898.78" y1="-9595.44" x2="-9810.61" y2="-9595.44" gradientTransform="matrix(-1.81, -0.44, -0.44, 1.81, -21882, 13072.55)" xlink:href="#linear-gradient-3"/></defs><g class="cls-2"><g id="SB39_Interactive_Icon_11_F1"><path class="cls-3" d="M432.7,236.4a208.4,208.4,0,0,0-25.4-100.1A211.7,211.7,0,0,0,219.5,22.4C102.6,22.4,7.8,117.1,7.8,234s94.8,211.7,211.7,211.7l8.8-.2C341.6,442.9,432.7,350.3,432.7,236.4Z"/><circle class="cls-4" cx="219.5" cy="225.1" r="211.7"/><circle class="cls-5" cx="219.5" cy="225.1" r="202.8"/><g class="cls-6"><path class="cls-7" d="M375.1,167.6a1.2,1.2,0,0,1,.4.4l1.1,1.2.6.8a3.1,3.1,0,0,1,.5,1,.9.9,0,0,1,.1.5,1.3,1.3,0,0,1,.1.6l.3,1.3a7.4,7.4,0,0,0,.4,1.4,7.5,7.5,0,0,0,.7,1.2l1,.8a2.7,2.7,0,0,0,1.1.5l.9.2h1.3l-.6-.2-1.4-.7-.8-.5a2.7,2.7,0,0,1-.7-.8,3.1,3.1,0,0,1-.5-1,5.6,5.6,0,0,1-.4-1.2l-.3-1.3a1.3,1.3,0,0,0-.1-.6,1.4,1.4,0,0,0-.2-.7,4.4,4.4,0,0,0-.8-1.1,2.7,2.7,0,0,0-.8-.7c-.2-.3-.5-.4-.7-.6l-.6-.4Z"/><path class="cls-8" d="M375.1,167.7l.9.2.9.2,1.1.6,1,1a2.8,2.8,0,0,1,.4,1.5,4.9,4.9,0,0,1-.1,1.7.9.9,0,0,0-.1.5l-.2.4c-.1.4-.1.7-.2,1a3.6,3.6,0,0,0-.2,1,4.1,4.1,0,0,0-.1,1.1,3.8,3.8,0,0,0,.1,1v.5a1.1,1.1,0,0,0,.1.5l.3.9.3.4.2.4.3.3.3.4.6.5.6.4.6.3.5.2.5.2h.1l-.4-.2-.5-.3-.5-.3-.5-.4-.4-.6-.3-.3-.2-.3-.2-.3c0-.2-.1-.3-.1-.4s-.1-.3-.2-.4a2568928127420.4,2568928127420.4,0,0,1-.2-.8v-.9c0-.1-.1-.3-.1-.4a2.8,2.8,0,0,0,.1-.9c.1-.3.1-.6.2-.9a3.6,3.6,0,0,0,.2-1l.2-.4a.7.7,0,0,1,.1-.5,7.4,7.4,0,0,0,.1-2.1,3.6,3.6,0,0,0-.7-1.8l-.6-.7-.7-.5-1.3-.5h-2Z"/><path class="cls-9" d="M375.1,167.7h.2l.5.3.7.5.6.9a5,5,0,0,1,.4,1.3c.1.4.1,1,.2,1.5a2.2,2.2,0,0,1-.1.8v.9a6.2,6.2,0,0,0,.1,1.9,6.7,6.7,0,0,0,.7,1.8,5.7,5.7,0,0,0,1.4,1.3,5.1,5.1,0,0,0,1.5.7l1.5.3,2.2-.2.8-.3h-2.9l-1.3-.4-1.3-.7a5.2,5.2,0,0,1-1-1.1,3.5,3.5,0,0,1-.6-1.4,9.7,9.7,0,0,1-.1-1.7,9.7,9.7,0,0,0,0-1.7,8.8,8.8,0,0,0-.2-1.7,6.1,6.1,0,0,0-.7-1.4,2.1,2.1,0,0,0-.8-1l-.9-.5h-.9Z"/><path class="cls-7" d="M295.8,212.2a1.5,1.5,0,0,0-.1.6v1.7l.3,1.1a3.1,3.1,0,0,0,.5,1.2l.4.5c.2.2.4.3.5.5l.9.9.9.9.6,1,.3,1v1a12.5,12.5,0,0,0-.2,1.5,3.2,3.2,0,0,0-.1.7l.3-.6a1.4,1.4,0,0,1,.2-.6l.4-.9c0-.3.1-.7.1-1.2a3.2,3.2,0,0,0-.2-1.3,6.7,6.7,0,0,0-.6-1.2l-.9-1.1-1-.9-.5-.4-.3-.4-.6-.9a4.2,4.2,0,0,0-.4-1c-.2-.6-.3-1.1-.4-1.5A2.8,2.8,0,0,1,295.8,212.2Z"/><path class="cls-10" d="M295.7,212.2l-.2.2-.3.5a10.4,10.4,0,0,0-.4,1,3.2,3.2,0,0,0-.3,1.4v.9l.3.8a3.1,3.1,0,0,0,1.2,1.6,5.9,5.9,0,0,0,1.7,1h.5l.5.2.9.3.9.3.8.4.3.2.4.3.3.3.3.3.3.3.3.3.2.3c.1.1.1.3.2.4v.3l.2.4a2.5,2.5,0,0,0,.2.7c0,.2.1.4.1.6v1.2a.6.6,0,0,1-.1.4v.4a.4.4,0,0,0-.1.3v.2h0c-.1.1,0,.1,0,.1h.1a.4.4,0,0,0,.1-.3c.1,0,.1-.1.2-.2V227a4.3,4.3,0,0,0,.1-.5.7.7,0,0,0,.1-.5,1.7,1.7,0,0,0,.1-.7v-.7c-.1-.3-.1-.6-.2-.8v-.5c0-.1-.1-.2-.2-.4v-.4l-.3-.4c-.1-.3-.4-.5-.6-.8l-.3-.4-.4-.3-.8-.6-.9-.5-1-.4-.9-.2-.5-.2h-.4a3.6,3.6,0,0,1-1.5-.8,3.8,3.8,0,0,1-1.1-1.1,3.5,3.5,0,0,1-.3-1.4,4.5,4.5,0,0,1,.1-1.2,4.4,4.4,0,0,0,.2-1l.4-.8c0-.1,0-.1-.1-.2Z"/><path class="cls-11" d="M295.7,212.2s-.1,0-.1.2a1.6,1.6,0,0,0-.3.6,3.3,3.3,0,0,0,0,1,2.7,2.7,0,0,0,.3,1.2,3.8,3.8,0,0,0,.9,1.3,6.9,6.9,0,0,0,1.3,1.1,4.6,4.6,0,0,0,1.5.9l1.3,1a3.8,3.8,0,0,1,.9,1.3,3.3,3.3,0,0,1,.4,1.4,7.6,7.6,0,0,1-.1,1.5,5,5,0,0,1-.4,1.3,7.4,7.4,0,0,1-.9,1.8l-.4.5v.2c-.1,0-.1.1,0,.1h.1a2.1,2.1,0,0,0,.7-.5c.3-.4.8-1,1.3-1.8a5.8,5.8,0,0,0,.5-1.4,4.7,4.7,0,0,0,.3-1.7,6.7,6.7,0,0,0-.5-1.9,4.2,4.2,0,0,0-1.1-1.6l-1.5-1.1-.8-.4-.7-.4-1.2-.9-.8-1a2.4,2.4,0,0,1-.5-1,2.8,2.8,0,0,1-.1-.9,4.3,4.3,0,0,1,.1-.5c0-.2.1-.2.1-.2s0-.1-.1-.2Z"/><path class="cls-11" d="M358.7,234.1l.3.3a7.5,7.5,0,0,1,.9.9,9.8,9.8,0,0,1,1.2,1.5,11,11,0,0,1,1.4,2.1,10.5,10.5,0,0,1,1.3,2.6,5.8,5.8,0,0,1,.5,1.4l.3,1.6a8.6,8.6,0,0,1,.1,1.6c0,.3-.1.6-.1.9v.8a21.9,21.9,0,0,1-1.2,3.3l-1.8,3.2a16.1,16.1,0,0,0-1.5,3.3,14.7,14.7,0,0,0-.5,3.4,24.3,24.3,0,0,0,.4,3,12.3,12.3,0,0,0,.8,2.5,15.9,15.9,0,0,0,.8,1.8l.3.6.3.5.2.4h.2a1,1,0,0,0-.1-.4l-.5-1.2a9.4,9.4,0,0,0-.6-1.8c-.2-.7-.3-1.5-.5-2.4a24.6,24.6,0,0,1-.2-2.8,15.5,15.5,0,0,1,.6-3.1,17.7,17.7,0,0,1,1.5-3.1,34.7,34.7,0,0,0,1.8-3.3,8.9,8.9,0,0,0,.8-1.7,10.6,10.6,0,0,0,.6-1.9.6.6,0,0,1,.1-.4v-.5a2.8,2.8,0,0,0,.1-.9c0-.7-.1-1.3-.1-1.9a17,17,0,0,0-1-3.2,17.5,17.5,0,0,0-1.6-2.7,19.9,19.9,0,0,0-1.6-2l-1.5-1.4-1-.9-.4-.2h-.2Z"/><path class="cls-7" d="M357.9,233.4l.3.2,1.1.7a11.2,11.2,0,0,1,1.5,1.1,13.5,13.5,0,0,1,1.9,1.6,10.1,10.1,0,0,1,1.8,2.2l.9,1.2.6,1.5a6.6,6.6,0,0,1,.5,1.5c0,.2.1.5.1.8v.4a.6.6,0,0,1,.1.4,19.7,19.7,0,0,1-.4,3.4c-.3,1.1-.7,2.3-1,3.5a15.1,15.1,0,0,0-.6,3.5,9.6,9.6,0,0,0,.3,3.4,16.9,16.9,0,0,0,1.1,2.7,19.3,19.3,0,0,0,1.3,2.1l1.2,1.5.4.6.4.4.3.3h.2c.1-.1.1-.1,0-.2h0l-.2-.3-.7-1-1-1.6a20.1,20.1,0,0,1-1.1-2.1,17.3,17.3,0,0,1-.8-2.7,10.6,10.6,0,0,1-.2-3.1,15.1,15.1,0,0,1,.7-3.3c.3-1.1.7-2.3,1-3.5a11.6,11.6,0,0,0,.4-1.8,12.8,12.8,0,0,0,.1-1.9V244a2.9,2.9,0,0,0-.2-.9,8.4,8.4,0,0,0-.5-1.7,11.9,11.9,0,0,0-1.8-2.9,14.7,14.7,0,0,0-2.1-2.2,13.7,13.7,0,0,0-2.1-1.5l-1.7-1-1.2-.5-.4-.2h-.2C357.8,233.3,357.8,233.3,357.9,233.4Z"/><path class="cls-12" d="M357.9,233.8l.5.2,1.1.4,1.8.9,2.1,1.2a17.4,17.4,0,0,1,2.2,1.8l1.1,1.1.9,1.2a9.1,9.1,0,0,1,.7,1.4l.3.8v.4c0,.1.1.3.1.4a12.7,12.7,0,0,1,.3,3.4l-.3,3.6a21.6,21.6,0,0,0,0,3.6,15,15,0,0,0,1,3.2,12,12,0,0,0,1.6,2.5l1.7,1.8,1.4,1.3.6.4.4.3.4.3h.2v-.2h0l-.3-.3-.9-.9-1.3-1.3-1.5-1.9a11.7,11.7,0,0,1-1.3-2.5,9.5,9.5,0,0,1-.7-2.9,12.9,12.9,0,0,1,0-3.4c.1-1.2.3-2.4.4-3.7v-1.8l-.3-1.9a.6.6,0,0,1-.1-.4v-.5l-.3-.8a5.1,5.1,0,0,0-.9-1.6,10.7,10.7,0,0,0-2.2-2.5l-2.5-1.7-2.4-1.1-1.9-.6-1.2-.3h-.6C357.8,233.8,357.9,233.8,357.9,233.8Z"/><polygon class="cls-13" points="295 212.7 357.9 230.7 375.7 167.3 312.8 149.2 295 212.7"/><g class="cls-14"><path class="cls-15" d="M310,177.8a36.6,36.6,0,0,0,28.5,18.7h.9a35.5,35.5,0,0,0,19.9-4.5,37.8,37.8,0,0,0,12.9-12.2l3.5-12.5-62.9-18.1-5.9,21.1A40.9,40.9,0,0,0,310,177.8Z"/></g><g class="cls-16"><path class="cls-17" d="M335.1,190.3c1.2,2,2.3,4.1,3.4,6.2l4.9,8.8c2.7,4.8,5.2,9.2,7.3,13.1l5.2,9.2,1.8,3.1.2.4h.2l-.2-.4-1.7-3.2-5-9.3L344,205c-1.5-2.8-3.1-5.6-4.6-8.5l-3.7-6.6-8.3-15c-2.7-4.8-5.2-9.2-7.3-13.1l-5.2-9.2-1.9-3.4h-.2v.2l1.8,3.4,5.1,9.3,7.1,13.1C329.5,180,332.3,185.1,335.1,190.3Z"/><path class="cls-18" d="M295,212.7l.9.2c15-29.4,46.8-47.3,79.5-44.7l.3-.9-3.5-1a82.8,82.8,0,0,0-44,10.8A85,85,0,0,0,296,209Z"/></g><polygon class="cls-13" points="368.1 231.9 357.3 229.8 353.4 240.2 368.1 231.9"/><path class="cls-19" d="M329.2,177.4c19.3,54.1,33.9,97.9,64.5,146.9"/><path class="cls-7" d="M260.3,145.6a6.7,6.7,0,0,0,.1,1c0,.7,0,1.7-.1,2.8a11,11,0,0,1-.2,1.8,6.1,6.1,0,0,1-.5,1.8,2,2,0,0,1-.4.8l-.6.9a13.7,13.7,0,0,0-1.3,2,8.8,8.8,0,0,0-1,2.2,10.5,10.5,0,0,0-.6,2.4,8.5,8.5,0,0,0,.3,2.3,7.5,7.5,0,0,0,.8,1.8l1,1.4.8.9.7.8a5.5,5.5,0,0,0-.4-1l-1.1-2.5a4.7,4.7,0,0,1-.4-1.7,5.4,5.4,0,0,1,0-1.8,7,7,0,0,1,.6-1.9,17.6,17.6,0,0,1,.9-2l1.2-1.9.6-1a6.1,6.1,0,0,0,.5-1.2,8.5,8.5,0,0,0,.4-2.2,10.1,10.1,0,0,0-.2-1.9,6.5,6.5,0,0,0-.3-1.6,3.4,3.4,0,0,0-.4-1.2A3.9,3.9,0,0,0,260.3,145.6Z"/><path class="cls-10" d="M260.2,145.7a7.3,7.3,0,0,1,.9,1.2l.9,1.5a10.2,10.2,0,0,1,.8,2.1,7,7,0,0,1,0,2.5,6.8,6.8,0,0,1-1.2,2.4,11.4,11.4,0,0,1-2.3,2l-.6.4-.8.4-1.4.9-1.5,1.1-1.4,1.3-1.1,1.3a5.6,5.6,0,0,1-.5.8c-.1.3-.3.5-.4.8a7.6,7.6,0,0,0-.6,1.6,1.9,1.9,0,0,0-.2.7c-.1.3-.1.6-.2.8v.8a2.2,2.2,0,0,0-.1.8c.1.5.1.9.2,1.4a6.1,6.1,0,0,0,.3,1.3,4.2,4.2,0,0,0,.4,1,10.4,10.4,0,0,0,.4,1l.5.7.4.6.3.3.3.4h.2v-.2h0l-.2-.3-.3-.4-.2-.6c-.2-.2-.2-.5-.3-.8l-.3-.9-.3-1a4.9,4.9,0,0,0-.1-1.2v-1.2c0-.2.1-.4.1-.7a1.3,1.3,0,0,1,.1-.6c.1-.2.1-.5.2-.7a1.4,1.4,0,0,1,.2-.6c.1-.3.1-.5.3-.7l.3-.7.4-.6.4-.6.5-.6.6-.6a12.7,12.7,0,0,1,1.2-1l1.2-1,1.5-.9.7-.4.8-.5a12.4,12.4,0,0,0,2.6-2.5,6.8,6.8,0,0,0,1.3-3.2,8.6,8.6,0,0,0,0-1.6l-.3-1.4a9.1,9.1,0,0,0-1.2-2.2l-1.1-1.5-.9-.8-.3-.3h-.3C260.1,145.5,260.1,145.6,260.2,145.7Z"/><path class="cls-11" d="M260.2,145.7l.2.3a3.9,3.9,0,0,1,.4.9,6.1,6.1,0,0,1,.2,1.5,4.3,4.3,0,0,1-.2,1.9,20,20,0,0,1-1,2.1,15.7,15.7,0,0,1-1.7,2.1l-1,1-1.1,1a13.3,13.3,0,0,0-2.1,2.6,7.8,7.8,0,0,0-1.2,3.2,9.1,9.1,0,0,0,.1,3.3,11.8,11.8,0,0,0,1.2,2.8,19.2,19.2,0,0,0,1.6,2.1,16.3,16.3,0,0,0,3.1,2.4l1.4.6h0l.2-.2c0-.1,0-.1-.1-.2l-.3-.2-.8-.6a12.6,12.6,0,0,1-2.5-2.6,13.7,13.7,0,0,1-1.3-2,10.4,10.4,0,0,1-.8-2.5,5.7,5.7,0,0,1,0-2.6,6.4,6.4,0,0,1,1-2.6,12.4,12.4,0,0,1,1.8-2.2,14.7,14.7,0,0,0,2.1-2.2,13.8,13.8,0,0,0,1.7-2.5,12.5,12.5,0,0,0,.9-2.5,8.8,8.8,0,0,0,0-2.3,6.7,6.7,0,0,0-.6-1.7l-.6-.9-.3-.3h-.3C260.1,145.5,260.1,145.6,260.2,145.7Z"/><path class="cls-7" d="M103.6,107.4a3.9,3.9,0,0,0-.9.7l-.9.9-1,1.2-1,1.7a11.3,11.3,0,0,0-.8,2.2c0,.4-.1.8-.1,1.2s.1.8.1,1.2.1,1.5.2,2.2a16.2,16.2,0,0,1-.1,2.2,10.6,10.6,0,0,1-.4,1.9,6.7,6.7,0,0,1-.8,1.7l-1.2,1.2a23.1,23.1,0,0,1-2.1,1.8l-.9.7,1-.4,1.2-.5,1.5-.7,1.6-1.2a9.9,9.9,0,0,0,1.3-2,8.6,8.6,0,0,0,.6-2.3,19.3,19.3,0,0,0-.1-4.8c0-.4-.1-.7-.1-1.1v-.9a9.5,9.5,0,0,1,.4-1.8,8.7,8.7,0,0,1,.7-1.7c.4-1,.9-1.9,1.2-2.5Z"/><path class="cls-10" d="M103.5,107.2h-.4l-1.2.3-1.7.8a10.5,10.5,0,0,0-2,1.4,5.2,5.2,0,0,0-1,1.1l-.7,1.4a6.9,6.9,0,0,0-.3,3.5,8.1,8.1,0,0,0,1.1,3.3l.4.8.5.8a10,10,0,0,0,.8,1.4,10.1,10.1,0,0,1,.7,1.5,6.7,6.7,0,0,1,.6,1.5c.1.2.1.5.2.7a2.4,2.4,0,0,0,.2.8v.7a2.2,2.2,0,0,1,.1.8v.7c0,.2-.1.5-.1.7a1.7,1.7,0,0,1-.1.7v.7l-.3.6a1.4,1.4,0,0,1-.2.6l-.6,1.1-.6,1-.7.8-.7.6-.6.6-.5.4-.4.2-.4.3h0c-.1,0-.1.1,0,.2h.2l.4-.2.4-.2.7-.3.7-.4.8-.6.9-.8.8-1a5,5,0,0,0,.8-1.2,4.3,4.3,0,0,0,.4-.7l.3-.7c.1-.2.1-.5.2-.7s.1-.6.2-.8a5.2,5.2,0,0,0,.2-1.7v-.9c0-.3-.1-.6-.1-.9a11.6,11.6,0,0,0-.4-1.8,17.7,17.7,0,0,0-.6-1.7,11.9,11.9,0,0,0-.8-1.6,10.9,10.9,0,0,0-.8-1.5l-.5-.7-.4-.7a10.8,10.8,0,0,1-1.1-2.8,8.1,8.1,0,0,1,.1-2.7,5.5,5.5,0,0,1,1.2-2.1,11,11,0,0,1,1.6-1.5l1.5-1,1.4-.6c.1-.1.2-.2.1-.3Z"/><path class="cls-11" d="M103.5,107.2h-.4l-1,.5a7.1,7.1,0,0,0-1.3,1.2,10.3,10.3,0,0,0-1.1,2.1,11.2,11.2,0,0,0-.3,2.7,9.9,9.9,0,0,0,.3,2.9c.2,1,.5,2,.8,3a12.7,12.7,0,0,1,.6,2.8,6.3,6.3,0,0,1-.3,2.7,7.6,7.6,0,0,1-1.3,2.3,10.2,10.2,0,0,1-1.8,1.8l-2.1,1.2a20.8,20.8,0,0,1-3.5,1.2H90.6c0,.1,0,.2.1.2h0a3.8,3.8,0,0,0,1.5.1,14,14,0,0,0,3.9-.7,16.6,16.6,0,0,0,2.4-1.1,10.1,10.1,0,0,0,2.3-1.9,7.7,7.7,0,0,0,1.7-2.9,9.7,9.7,0,0,0,.5-3.4,16.5,16.5,0,0,0-.7-3.2,12.1,12.1,0,0,1-.5-1.4l-.5-1.4a12.7,12.7,0,0,1-.4-2.6,5.9,5.9,0,0,1,.1-2.3,4.8,4.8,0,0,1,.6-1.8l.9-1.2.8-.7h.3c.1-.1.2-.2.1-.3Z"/><path class="cls-9" d="M157.1,209.9a5.5,5.5,0,0,1,.1,1.2c0,.7.1,1.8,0,3.3s-.1,3.1-.2,5a57.4,57.4,0,0,1-1,6.5,44.5,44.5,0,0,1-2,7.3c-.5,1.2-1.1,2.4-1.7,3.7a18.6,18.6,0,0,1-2.2,3.5,21.6,21.6,0,0,1-2.7,3.3l-1.6,1.5-.4.4-.4.3-.9.7a34.4,34.4,0,0,1-8.1,4.2c-2.9,1.1-6,1.9-9.1,3a43.9,43.9,0,0,0-8.8,4A31.4,31.4,0,0,0,106.8,270a44.7,44.7,0,0,0-2.8,6,41.6,41.6,0,0,0-1.7,4.9c-.2.6-.3,1.3-.5,1.8a13,13,0,0,1-.3,1.3l-.3,1.2c0,.2.1.4.3.4s.3,0,.4-.2h0l.4-1,1.2-3a42.9,42.9,0,0,1,2.1-4.6c.8-1.7,1.9-3.6,3.1-5.6a39.9,39.9,0,0,1,4.7-5.8,29.9,29.9,0,0,1,6.5-4.9,48.1,48.1,0,0,1,8.3-3.5c3-.9,6.2-1.8,9.3-2.9a37.6,37.6,0,0,0,4.6-2,30.7,30.7,0,0,0,4.3-2.6l1-.8.5-.4.4-.4,1.8-1.7a24.8,24.8,0,0,0,2.9-3.7,31.7,31.7,0,0,0,3.9-8.1,51.1,51.1,0,0,0,1.7-7.9,40.8,40.8,0,0,0,.3-6.8,40,40,0,0,0-.3-5.3c-.2-1.5-.4-2.6-.5-3.4a5.8,5.8,0,0,0-.3-1.2c0-.2-.2-.3-.4-.3S157.1,209.7,157.1,209.9Z"/><path class="cls-7" d="M156.7,207a8.2,8.2,0,0,0,.4,1.1c.2.7.5,1.8.8,3.1s.7,3.1,1,5a55.1,55.1,0,0,1,.7,6.3,38,38,0,0,1-.2,7.5,28.5,28.5,0,0,1-.6,3.9,29.1,29.1,0,0,1-1.2,3.9c-.6,1.3-1.2,2.5-1.9,3.7a17.4,17.4,0,0,1-1.1,1.8l-.4.5-.3.4-.7.8a32.2,32.2,0,0,1-6.7,5.9c-2.5,1.7-5.3,3.2-8,5a47.7,47.7,0,0,0-7.5,5.7,31,31,0,0,0-5.1,7.1,32.4,32.4,0,0,0-2.8,7.2,63.8,63.8,0,0,0-1.2,6.4,49,49,0,0,0-.3,5,12.8,12.8,0,0,0-.1,1.9v2.5a.8.8,0,0,0,.4.4c.2,0,.3-.1.4-.3h0a8.7,8.7,0,0,1,.1-1.1c.1-.8.2-1.8.4-3.2s.5-3,.9-4.8a41.5,41.5,0,0,1,1.6-6,39.2,39.2,0,0,1,3.1-6.6,27.2,27.2,0,0,1,5-6.3,44.3,44.3,0,0,1,7.2-5.2c2.6-1.5,5.5-3.1,8.2-4.9a39.5,39.5,0,0,0,3.9-2.9,38.5,38.5,0,0,0,3.5-3.5l.8-1,.3-.5.4-.4,1.2-2.1a23,23,0,0,0,2-4.2,30.2,30.2,0,0,0,1.6-8.7,34.2,34.2,0,0,0-.3-7.9,55.1,55.1,0,0,0-1.3-6.6,45.3,45.3,0,0,0-1.7-4.9c-.5-1.4-1-2.4-1.3-3.1a6.1,6.1,0,0,0-.5-1.1.4.4,0,0,0-.5-.2C156.7,206.7,156.7,206.8,156.7,207Z"/><path class="cls-20" d="M156,208.1l.6,1L158,212a37.9,37.9,0,0,1,1.9,4.7,54.7,54.7,0,0,1,2,6.1,50.6,50.6,0,0,1,1.2,7.3c.1,1.3.1,2.6.1,4a27.3,27.3,0,0,1-.5,4,30.6,30.6,0,0,1-1,4.1c-.3.6-.5,1.3-.8,1.9l-.3.5-.2.5a9.3,9.3,0,0,0-.5,1,32.6,32.6,0,0,1-5.5,7c-2.2,2.2-4.6,4.2-6.9,6.4a45.7,45.7,0,0,0-6.2,7.1,28.1,28.1,0,0,0-3.7,7.9,38.5,38.5,0,0,0-1.4,7.6c-.1,2.4,0,4.6.1,6.6a46.8,46.8,0,0,0,.6,4.9l.3,1.9a13,13,0,0,0,.3,1.3,6.6,6.6,0,0,0,.2,1.1c.1.2.3.4.5.3s.3-.1.2-.3h0v-1.1a24.5,24.5,0,0,1-.2-3.2c-.1-1.4-.1-3-.1-4.9a46.9,46.9,0,0,1,.5-6.2,31.8,31.8,0,0,1,1.7-7.1,25.8,25.8,0,0,1,3.8-7.1,36,36,0,0,1,6-6.4c2.3-2.1,4.8-4.2,7.1-6.5a28.2,28.2,0,0,0,3.3-3.6,36.2,36.2,0,0,0,2.7-4.1l.6-1.1.3-.5.2-.5.9-2.3a24.2,24.2,0,0,0,1-4.5,28.8,28.8,0,0,0,0-8.8,41.4,41.4,0,0,0-1.8-7.7,46.4,46.4,0,0,0-2.6-6.2c-.9-1.8-1.8-3.4-2.5-4.6l-1.9-2.8-.8-1a.4.4,0,0,0-.6.4Z"/><polygon class="cls-21" points="102.1 107 162.1 205.4 261.4 145.9 201.4 47.5 102.1 107"/><g class="cls-22"><path class="cls-23" d="M163.4,80.6a63.1,63.1,0,0,0,14.7,57.9l1,1.1a65,65,0,0,0,62.7,18l19.6-11.7-60-98.4L168.3,67.3A66,66,0,0,0,163.4,80.6Z"/></g><g class="cls-16"><path class="cls-24" d="M181.1,126.5l-3,12c-1.4,5.9-2.8,11.6-4.2,17.2-2.3,9.3-4.4,18-6.2,25.4s-3.3,13.6-4.3,18-1.2,5-1.4,6.1a3.1,3.1,0,0,1-.2.7h.4a3.1,3.1,0,0,0,.2-.7l1.6-6.1,4.6-17.9c1.9-7.4,4.1-16.1,6.4-25.4,1.4-5.2,2.7-10.7,4.1-16.3s2.1-8.5,3.2-12.8c2.5-9.9,4.9-19.8,7.2-29.1s4.4-18,6.2-25.4,3.2-13.7,4.3-18l1.5-6.6v-.2h-.3l-1.7,6.5-4.6,18c-1.9,7.4-4.1,16.1-6.4,25.3S183.5,116.6,181.1,126.5Z"/><path class="cls-25" d="M102.1,107l.8,1.4c54.9-19.5,117.6-4.2,157.1,38.3l1.4-.8-3.3-5.5a152.6,152.6,0,0,0-150.4-36.8Z"/></g><polygon class="cls-21" points="174.1 219.2 162.5 203.6 144.9 212.1 174.1 219.2"/><path class="cls-19" d="M187.1,104.5c-1.4,104.8,19.8,221.3,81.5,312.7"/></g></g></g></svg>