<svg id="SB39_Interactive_Icon_13_F1" xmlns="http://www.w3.org/2000/svg" xmlns:xlink="http://www.w3.org/1999/xlink" viewBox="0 0 443.8 451.5"><defs><style>.cls-1{fill:none;}.cls-2,.cls-6{opacity:0.5;}.cls-3{fill:url(#linear-gradient);}.cls-4{fill:#31d0e5;stroke-miterlimit:10;stroke-width:6px;stroke:url(#linear-gradient-2);}.cls-5{clip-path:url(#clip-path);}.cls-7{fill:#fff;}.cls-8{fill:#bcbec0;}.cls-9{fill:#58595b;}.cls-10{fill:#f7941e;}.cls-11{fill:#f17c29;}.cls-12{fill:#e6e7e8;}.cls-13{fill:#474747;}.cls-14{fill:#414042;}.cls-15{fill:#6d6e71;}.cls-16{fill:#d1d3d4;}.cls-17{fill:#f77c0c;}.cls-18{fill:#3c2415;}.cls-19{fill:#fbb040;}</style><linearGradient id="linear-gradient" x1="43.17" y1="101.28" x2="392.43" y2="340.6" gradientUnits="userSpaceOnUse"><stop offset="0" stop-color="#9b81cf"/><stop offset="1" stop-color="#3b139b"/></linearGradient><linearGradient id="linear-gradient-2" x1="16.1" y1="223.74" x2="427.68" y2="223.74" gradientUnits="userSpaceOnUse"><stop offset="0" stop-color="#4c1da9"/><stop offset="1" stop-color="#997ece"/></linearGradient><clipPath id="clip-path"><circle class="cls-1" cx="225.9" cy="226.1" r="209.2"/></clipPath></defs><g id="Layer_1" data-name="Layer 1"><g id="_01" data-name="01"><path class="cls-2" d="M435.1,235a208.3,208.3,0,0,0-25.4-100A211.6,211.6,0,0,0,221.9,21C105,21,10.2,115.8,10.2,232.7S105,444.3,221.9,444.3c3,0,5.9,0,8.9-.2C344.1,441.6,435.1,348.9,435.1,235Z"/><circle class="cls-3" cx="221.9" cy="223.7" r="211.7"/><circle class="cls-4" cx="221.9" cy="223.7" r="202.8"/></g><g id="_04" data-name="04"><g class="cls-5"><g class="cls-6"><path class="cls-7" d="M177.2,222.5s5.2-24.5,32.3-6.2-25.6,20.4-49.5,15.9S177.2,222.5,177.2,222.5Z"/><path class="cls-7" d="M229,201.3c22.6,11.5,2.1,16.5-16.7,15.4S206.3,189.8,229,201.3Z"/></g><path class="cls-8" d="M284,297.7l-.5-.2c-13.3-5.9-27.4-10.4-38.9-19.3-.9-2.3-1.8-4.7-2.6-7.1l1.8-.2a254.3,254.3,0,0,1,156.6,29.6c0,2.2-3.5,2.3-5.6,2.6a43.7,43.7,0,0,1-26.8-4.4c1.2,1,.8,3-.4,3.9a6.1,6.1,0,0,1-4.4.6,27.5,27.5,0,0,1-13.8-5.9l.3,4a59.4,59.4,0,0,1-26.7-7.1C310.2,297.4,297,299.2,284,297.7Z"/><path class="cls-9" d="M284,297.7l-.5-.2c-6.9-3.1-14.1-5.8-21-8.9,14.3,2.2,29,2.2,43.5,1,18.2-1.4,36.2-4.6,54.4-6.9a255.2,255.2,0,0,1,40,17.8c0,2.2-3.5,2.3-5.6,2.6a43.7,43.7,0,0,1-26.8-4.4c1.2,1,.8,3-.4,3.9a6.1,6.1,0,0,1-4.4.6,27.5,27.5,0,0,1-13.8-5.9l.3,4a59.4,59.4,0,0,1-26.7-7.1C310.2,297.4,297,299.2,284,297.7Z"/><path class="cls-10" d="M148.1,289.1l-24.9-5.9a.9.9,0,0,1,.5-1.8l24.9,5.8C149.8,287.5,149.2,289.3,148.1,289.1Z"/><path class="cls-10" d="M139.1,283.7a2.1,2.1,0,0,0-2.6,1.7,2.2,2.2,0,0,0,1.6,2.7,2.3,2.3,0,0,0,2.7-1.7A2.2,2.2,0,0,0,139.1,283.7Z"/><path class="cls-10" d="M124.9,282.7c.1-.2-7.2-6.6-9.1-8.3-.1-.1-.4,0-.3.1l.4,1.9a2.3,2.3,0,0,1-1.7,2.6l-1.7.7c-.2,0-.2.1-.1.2l1.3,1.4a2.5,2.5,0,0,1,.4,3.1l-1.2,1.5c-.1.2.1.3.3.3C115.6,285.5,124.9,283,124.9,282.7Z"/><path class="cls-11" d="M120.3,280.5l-5.7-1.6a2.4,2.4,0,0,0,1.2-1.4Z"/><path class="cls-11" d="M114,281.6l5.8,1.1-5.3.7A2.9,2.9,0,0,0,114,281.6Z"/><path class="cls-12" d="M122.9,133.8c-3.3-6.2-4.8-13.8-2.4-20.3a.7.7,0,0,1,1.3-.1,7.7,7.7,0,0,0,2.9,3.5,47.1,47.1,0,0,1-4.8-36.5,1,1,0,0,1,1.5-.5c15.2,12.3,23.1,31.7,34.5,47.8,8.9,12.4,23.6,32.2,35.6,42,24.7,20.1,37.7,67.6,53.1,108.5,11.5,8.9,25.6,13.4,38.9,19.3s26.6,13.9,33.3,27c-1.5,1.3-11.6,5.5-14.9,5.1,4,4.2,4.1,2.9,7.4,7.7-16.7,3.7-31,5.3-48.1,6.3s-40-1.5-55.7-8.6c-22.4-10-38.3-26.6-54.1-45.6-11.1-2.5-26.3-8.2-37.6-12.2,0,.1,0,.1-.1.1l-5.2-1.9a34.3,34.3,0,0,1-6-2.6,3.5,3.5,0,0,1-1-1.1,1.4,1.4,0,0,1-.1-1.5,1.9,1.9,0,0,1,1.8-.4l3.5.6c-1.4-1-1.5-.8-2.9-1.8a9.3,9.3,0,0,1-2.3-2.1h0a1.6,1.6,0,0,1,1.9-2.3l2.2.7a.1.1,0,0,0-.1-.1,30,30,0,0,1-6.8-6.5,6.4,6.4,0,0,1-1.2-2.5h0a1.8,1.8,0,0,1,2.2-2.1,12.8,12.8,0,0,1,3.9,1.3v-.2a30.5,30.5,0,0,1-5.8-6.6,3.9,3.9,0,0,1-.8-2.1c-.2-3.5,4.7-1.2,6.1-.7a17.8,17.8,0,0,1-2.7-2.6,11.1,11.1,0,0,1-2-3.7,1.9,1.9,0,0,1,2.5-2.3,21.2,21.2,0,0,1,2.7,1.3h0l.4.3c2.2,1.3,4.6,2.9,5.5,3.5l1.2.9c14.9,9.9,30.7,20,45,29.7a279.4,279.4,0,0,1,36.5,3.1,102,102,0,0,1-27.6-48.7,105.2,105.2,0,0,0-17.2-37.9,31.4,31.4,0,0,1-4.8-9.7,1.1,1.1,0,0,1,1.4-1.3l6.9,3.1c-11.9-7-20.2-19.8-22.2-33.7a1.4,1.4,0,0,1,2-1.4,31.3,31.3,0,0,1,6.9,4.7C132.1,145.6,126.6,140.3,122.9,133.8Z"/><path class="cls-12" d="M134.1,155.1a26.7,26.7,0,0,0-4.7-3.6c-.1-.4-.1-.8-.2-1.2Z"/><path class="cls-12" d="M144,183.2l3.4,2.3-3-1.4Z"/><path class="cls-12" d="M100.2,259.1v.2l-.9-.4-.6-.7-.7-1.1A20.9,20.9,0,0,0,100.2,259.1Z"/><path class="cls-12" d="M119.4,119.5a8.6,8.6,0,0,1,.1-1.6,37.2,37.2,0,0,0,1.9,3.4A7.4,7.4,0,0,1,119.4,119.5Z"/><path class="cls-12" d="M97.6,247.9l2,1.8-1-.4-.9-1.2Z"/><path class="cls-13" d="M281.7,301.1c-13.3-5.8-30.3-9.5-41.8-18.4-15.4-40.9-32.1-85.7-53.1-108.6-10.5-11.4-26.7-29.5-35.6-42-11.2-15.8-17.9-34.4-32.5-46.7.2-1.6-.5-3.5-.1-5a.9.9,0,0,1,1.4-.5c15.3,12.3,23.1,31.7,34.6,47.8,8.9,12.4,23.6,32.2,35.6,42,24.7,20.1,37.7,67.6,53,108.5,11.6,8.9,25.7,13.4,39,19.3s26.6,13.9,33.3,27c-.6.5-.2.5-2.4,1.4C306.1,314.1,294.3,306.7,281.7,301.1Z"/><path class="cls-7" d="M283.2,314.5a7,7,0,0,0,5.5,8.2,6.8,6.8,0,0,0,8.1-5.6,7,7,0,0,0-5.5-8.2A6.8,6.8,0,0,0,283.2,314.5Z"/><path class="cls-14" d="M284.8,314.8a5.3,5.3,0,0,0,4.2,6.3,5.4,5.4,0,0,0,2-10.6A5.2,5.2,0,0,0,284.8,314.8Z"/><path class="cls-7" d="M292.8,312.4a1.2,1.2,0,0,0,1,1.5,1.3,1.3,0,0,0,1.6-1,1.4,1.4,0,0,0-1.1-1.6A1.2,1.2,0,0,0,292.8,312.4Z"/><path class="cls-15" d="M120.8,117a8.7,8.7,0,0,0,3,3.5A46.6,46.6,0,0,1,119,84a1,1,0,0,1,1.5-.4c15.2,12.3,22.1,33.7,33.6,49.8,4.6,6.5,50.3,58.9,53.5,67.1,22,37.1,19.5,45.9,34.9,84.8-3.9-.7-47.7-5.9-51.5-6.4a102,102,0,0,1-27.4-48.4,105.6,105.6,0,0,0-17.2-38,31.4,31.4,0,0,1-4.8-9.7,1,1,0,0,1,1.3-1.2l7,3.1A47.4,47.4,0,0,1,127.7,151a1.4,1.4,0,0,1,2-1.5,28.8,28.8,0,0,1,6.9,4.8c-5.4-5.1-11-10.3-14.6-16.9s-4.8-13.8-2.4-20.3C119.8,116.6,120.6,116.5,120.8,117Z"/><path class="cls-12" d="M129.4,151.5c-.1-.4-.1-.8-.2-1.2S129.3,151.1,129.4,151.5Z"/><path class="cls-12" d="M100.2,259.3l-.9-.4-.6-.7-.7-1.1a20.9,20.9,0,0,0,2.2,2Z"/><path class="cls-12" d="M99.6,249.7l-1-.4-.9-1.2v-.2Z"/><path class="cls-7" d="M162,136.1a2.1,2.1,0,0,0-.4-.6A2.1,2.1,0,0,1,162,136.1Z"/><path class="cls-7" d="M160,133.3l-.4-.5Z"/><path class="cls-7" d="M158.1,130.7l-.4-.6Z"/><path class="cls-7" d="M166.5,142l-.5-.7Z"/><path class="cls-7" d="M171.2,148.1l-.6-.8Z"/><path class="cls-7" d="M168.8,145l-.5-.7Z"/><path class="cls-7" d="M164.2,139l-.5-.6Z"/><path class="cls-7" d="M140.1,102.4c-2.7-4.2-5.5-8.3-8.5-12.1C134.6,94.1,137.4,98.2,140.1,102.4Z"/><path class="cls-7" d="M131.6,90.3,128,86.1Z"/><path class="cls-10" d="M149,282.9l-22.9-11.5a1,1,0,0,1,.9-1.7l22.9,11.6C151,281.8,150.1,283.5,149,282.9Z"/><path class="cls-10" d="M141.6,275.6a2.2,2.2,0,0,0-2,4,2.2,2.2,0,0,0,3-1A2.3,2.3,0,0,0,141.6,275.6Z"/><path class="cls-10" d="M128,271.3c.1-.2-5.5-8.1-7-10.2-.1-.2-.4-.2-.4,0v2a2.4,2.4,0,0,1-2.3,2.1l-1.8.2c-.1,0-.2.1-.1.2l.9,1.7a2.3,2.3,0,0,1-.3,3.1l-1.5,1.2c-.1.1,0,.3.2.3C118.2,271.8,127.8,271.6,128,271.3Z"/><path class="cls-11" d="M124,268l-5.3-2.9a2.1,2.1,0,0,0,1.5-1Z"/><path class="cls-11" d="M117.5,267.6l5.4,2.5-5.3-.6A2.5,2.5,0,0,0,117.5,267.6Z"/><path class="cls-16" d="M148.9,285c-3.8-2.4,3.9,2.1,0,0Z"/><path class="cls-16" d="M118.9,275.3c6.9,3.8,23,6,30,9.7s18.9,18.7,25.4,23.4c37.7,26.6,86.9,35.8,131.4,24.7a16.9,16.9,0,0,1,3.6,4.2c-16.7,3.7-31,5.3-48.1,6.3s-40-1.5-55.7-8.6c-22.4-10-38.3-26.6-54.1-45.6-8.9-2-20.2-6-30.2-9.5C121.4,278.7,118.5,276.5,118.9,275.3Z"/><path class="cls-9" d="M101.5,271.7a1.4,1.4,0,0,1-.1-1.5,1.9,1.9,0,0,1,1.8-.4l3.5.6c-1.4-1-1.5-.8-2.9-1.8a9.3,9.3,0,0,1-2.3-2.1h0a1.6,1.6,0,0,1,1.9-2.3l2.2.7a.1.1,0,0,0-.1-.1,30,30,0,0,1-6.8-6.5,6.4,6.4,0,0,1-1.2-2.5h0a1.8,1.8,0,0,1,2.2-2.1,12.8,12.8,0,0,1,3.9,1.3v-.2a30.5,30.5,0,0,1-5.8-6.6,3.9,3.9,0,0,1-.8-2.1c-.2-3.5,4.7-1.2,6.1-.7a17.8,17.8,0,0,1-2.7-2.6,11.1,11.1,0,0,1-2-3.7,1.9,1.9,0,0,1,2.5-2.3,21.2,21.2,0,0,1,2.7,1.3h0l.4.3c2.2,1.3,4.6,2.9,5.5,3.5l1.2.9L132,256.8l-4.1-1.6c-4.5-1.6-10.2-2.3-13.6,1.2s-2.7,7.2-1.1,10.7,4.3,6.3,7,8.9l5.7,5.5-12.1-4.3c0,.1,0,.1-.1.1l-5.2-1.9a34.3,34.3,0,0,1-6-2.6A3.5,3.5,0,0,1,101.5,271.7Z"/><path class="cls-10" d="M301.9,329.9l6,7,21.4,6a32.4,32.4,0,0,1,7.3,2.8c2.2,1.4,3.6,2.8,4.2,5.5,1.6-6.9-1.2-14.3-6.1-19.1s-11.5-7.2-18.2-7.8C316.5,324.3,306.9,328.2,301.9,329.9Z"/><path class="cls-17" d="M303,330.1c4.9,2.1,10.3,3.1,15.6,4.4s12.1,3.3,16.9,7.3a20.8,20.8,0,0,1,5.6,7.4l-.3,2c-.6-2.7-2-4.1-4.2-5.5a32.4,32.4,0,0,0-7.3-2.8l-21.4-6C305.9,334.5,304.9,332.4,303,330.1Z"/><path class="cls-18" d="M318.2,327a3.9,3.9,0,0,0,3.5-.1,8.6,8.6,0,0,0-2.8-1.1h-.8a.6.6,0,0,0-.4.7A.7.7,0,0,0,318.2,327Z"/><path class="cls-19" d="M333.6,332.5c-4.7-4.3-11.6-6.8-18-7.8l.9-.4c6.7.6,13.3,3,18.2,7.8a21.4,21.4,0,0,1,6.3,12.6C339.1,340.3,337.2,335.8,333.6,332.5Z"/></g></g></g></svg>