<svg id="SB39_Interactive_Icon_13_F1" xmlns="http://www.w3.org/2000/svg" xmlns:xlink="http://www.w3.org/1999/xlink" viewBox="0 0 443.8 451.5"><defs><style>.cls-1{fill:none;}.cls-2,.cls-6{opacity:0.5;}.cls-3{fill:url(#linear-gradient);}.cls-4{fill:#31d0e5;stroke-miterlimit:10;stroke-width:6px;stroke:url(#linear-gradient-2);}.cls-5{clip-path:url(#clip-path);}.cls-7{fill:#fff;}.cls-8{fill:#bcbec0;}.cls-9{fill:#58595b;}.cls-10{fill:#f7941e;}.cls-11{fill:#f17c29;}.cls-12{fill:#e6e7e8;}.cls-13{fill:#474747;}.cls-14{fill:#414042;}.cls-15{fill:#6d6e71;}.cls-16{fill:#d1d3d4;}.cls-17{fill:#f77c0c;}.cls-18{fill:#3c2415;}.cls-19{fill:#fbb040;}</style><linearGradient id="linear-gradient" x1="43.17" y1="101.28" x2="392.43" y2="340.6" gradientUnits="userSpaceOnUse"><stop offset="0" stop-color="#9b81cf"/><stop offset="1" stop-color="#3b139b"/></linearGradient><linearGradient id="linear-gradient-2" x1="16.1" y1="223.74" x2="427.68" y2="223.74" gradientUnits="userSpaceOnUse"><stop offset="0" stop-color="#4c1da9"/><stop offset="1" stop-color="#997ece"/></linearGradient><clipPath id="clip-path"><ellipse class="cls-1" cx="228.1" cy="226.1" rx="207.1" ry="209.2"/></clipPath></defs><g id="Layer_1" data-name="Layer 1"><g id="_01" data-name="01"><path class="cls-2" d="M435.1,235a208.3,208.3,0,0,0-25.4-100A211.6,211.6,0,0,0,221.9,21C105,21,10.2,115.8,10.2,232.7S105,444.3,221.9,444.3c3,0,5.9,0,8.9-.2C344.1,441.6,435.1,348.9,435.1,235Z"/><circle class="cls-3" cx="221.9" cy="223.7" r="211.7"/><circle class="cls-4" cx="221.9" cy="223.7" r="202.8"/></g><g id="_02" data-name="02"><g class="cls-5"><g class="cls-6"><path class="cls-7" d="M-7.8,199.1s5.2-24.5,32.3-6.2-25.6,20.4-49.5,16S-7.8,199.1-7.8,199.1Z"/><path class="cls-7" d="M44,177.9c22.6,11.5,2.2,16.5-16.7,15.4S21.4,166.4,44,177.9Z"/><path class="cls-7" d="M284.2,232.5s5.2-24.5,32.3-6.2-25.6,20.4-49.5,15.9S284.2,232.5,284.2,232.5Z"/><path class="cls-7" d="M336,211.3c22.6,11.5,2.1,16.5-16.7,15.4S313.3,199.8,336,211.3Z"/></g><path class="cls-8" d="M283.6,297.4l-.5-.2c-13.3-5.8-27.5-10.2-39-19l-2.7-7.1,1.8-.2A254,254,0,0,1,400,299.4c0,2.1-3.4,2.3-5.5,2.6a43.9,43.9,0,0,1-26.9-4.2c1.2.9.8,3-.4,3.9a6.3,6.3,0,0,1-4.3.6,27.3,27.3,0,0,1-13.9-5.8l.3,4a58.3,58.3,0,0,1-26.7-6.9C309.8,296.9,296.6,298.8,283.6,297.4Z"/><path class="cls-9" d="M283.6,297.4l-.5-.2c-6.9-3-14.1-5.7-21-8.8,14.3,2.2,29,2,43.4.7,18.2-1.5,36.3-4.8,54.4-7.3A250.3,250.3,0,0,1,400,299.4c0,2.1-3.4,2.3-5.5,2.6a43.9,43.9,0,0,1-26.9-4.2c1.2.9.8,3-.4,3.9a6.3,6.3,0,0,1-4.3.6,27.3,27.3,0,0,1-13.9-5.8l.3,4a58.3,58.3,0,0,1-26.7-6.9C309.8,296.9,296.6,298.8,283.6,297.4Z"/><path class="cls-10" d="M147.6,289.8l-24.9-5.7c-1.2-.3-.7-2.1.5-1.9l24.9,5.7C149.3,288.2,148.8,290,147.6,289.8Z"/><path class="cls-10" d="M138.7,284.4a2.3,2.3,0,0,0-2.7,1.7,2.2,2.2,0,0,0,1.7,2.7,2.3,2.3,0,0,0,2.7-1.7A2.4,2.4,0,0,0,138.7,284.4Z"/><path class="cls-10" d="M124.5,283.6c0-.3-7.3-6.6-9.2-8.3-.2-.1-.4,0-.4.2l.4,1.9a2.2,2.2,0,0,1-1.6,2.6l-1.8.6a.2.2,0,0,0,0,.3l1.3,1.3a2.4,2.4,0,0,1,.4,3.1l-1.2,1.6c-.1.1.1.3.3.2C115.1,286.5,124.4,283.9,124.5,283.6Z"/><path class="cls-11" d="M119.8,281.4l-5.7-1.6a2.5,2.5,0,0,0,1.2-1.3Z"/><path class="cls-11" d="M113.5,282.5l5.8,1.1-5.3.7A2.5,2.5,0,0,0,113.5,282.5Z"/><path class="cls-12" d="M121.4,134.7c-3.5-6.1-5-13.8-2.6-20.3a.6.6,0,0,1,1.2-.1,8.7,8.7,0,0,0,3,3.5,46.8,46.8,0,0,1-5-36.5.9.9,0,0,1,1.4-.5c15.3,12.2,23.3,31.5,34.9,47.5,9,12.4,23.8,32.1,35.9,41.8,24.9,19.9,38.2,67.3,53.9,108.1,11.5,8.8,25.7,13.2,39,19s26.7,13.7,33.5,26.7c-1.5,1.4-11.5,5.7-14.8,5.3,4,4.1,4.1,2.8,7.4,7.6-16.7,3.9-31,5.5-48.1,6.7s-39.9-1.3-55.7-8.2c-22.5-9.8-38.5-26.4-54.5-45.2-11.1-2.5-26.3-8.1-37.6-11.9a.1.1,0,0,0-.1.1l-5.2-1.9c-3-1.1-4.8-1.7-6-2.6a3.8,3.8,0,0,1-1.1-1.1,1.2,1.2,0,0,1,0-1.4,1.7,1.7,0,0,1,1.7-.5l3.5.6c-1.4-1-1.5-.8-2.9-1.8a7.7,7.7,0,0,1-2.3-2.1h0a1.6,1.6,0,0,1,1.9-2.3l2.2.6c-.1,0-.1,0-.1-.1a28.3,28.3,0,0,1-6.9-6.5,6.8,6.8,0,0,1-1.2-2.4h0a1.8,1.8,0,0,1,2.2-2.1,12.7,12.7,0,0,1,3.9,1.2v-.2a26.2,26.2,0,0,1-5.9-6.5,6.4,6.4,0,0,1-.9-2.1c-.2-3.6,4.7-1.2,6.1-.8a20.3,20.3,0,0,1-2.7-2.5,10.7,10.7,0,0,1-2-3.8,1.9,1.9,0,0,1,2.5-2.3l2.7,1.4h0l.4.3c2.2,1.3,4.6,2.9,5.5,3.5l1.2.9c15,9.7,30.9,19.8,45.2,29.4a280.4,280.4,0,0,1,36.6,2.7,101.6,101.6,0,0,1-28-48.4c-3.4-13.6-9-26.6-17.4-37.8a31.9,31.9,0,0,1-5-9.7,1,1,0,0,1,1.4-1.2l7,3a46.8,46.8,0,0,1-22.4-33.5,1.4,1.4,0,0,1,1.9-1.5,34.3,34.3,0,0,1,7,4.7C130.6,146.4,125,141.2,121.4,134.7Z"/><path class="cls-12" d="M132.7,155.9a26.1,26.1,0,0,0-4.7-3.5l-.3-1.3Z"/><path class="cls-12" d="M142.8,183.9a40.5,40.5,0,0,0,3.4,2.3l-3-1.3Z"/><path class="cls-12" d="M99.5,260.2v.2l-.9-.5-.6-.7-.7-1A20.9,20.9,0,0,0,99.5,260.2Z"/><path class="cls-12" d="M117.7,120.4a8.6,8.6,0,0,1,.1-1.6,37.2,37.2,0,0,0,1.9,3.4A6,6,0,0,1,117.7,120.4Z"/><path class="cls-12" d="M96.8,249l2.1,1.8-1.1-.4-.8-1.2Z"/><path class="cls-13" d="M281.4,300.8c-13.4-5.7-30.4-9.3-42-18.1-15.7-40.8-32.7-85.5-53.9-108.2-10.6-11.3-26.9-29.3-35.9-41.7-11.3-15.7-18.1-34.2-32.9-46.5.3-1.5-.5-3.4-.1-5s1-.9,1.4-.5c15.4,12.2,23.4,31.5,34.9,47.5,9,12.4,23.9,32.1,35.9,41.8,24.9,20,38.3,67.3,53.9,108.1,11.6,8.8,25.8,13.2,39.1,19s26.7,13.7,33.5,26.7c-.6.6-.2.6-2.4,1.5C305.9,313.6,294,306.3,281.4,300.8Z"/><path class="cls-7" d="M282.9,314.2a7,7,0,0,0,5.6,8.2,6.9,6.9,0,0,0,8.1-5.7,7,7,0,0,0-5.6-8.2A6.9,6.9,0,0,0,282.9,314.2Z"/><path class="cls-14" d="M284.5,314.5a5.5,5.5,0,0,0,4.3,6.3,5.4,5.4,0,0,0,6.2-4.4,5.5,5.5,0,0,0-4.3-6.3A5.4,5.4,0,0,0,284.5,314.5Z"/><path class="cls-7" d="M292.5,312a1.3,1.3,0,0,0,1,1.6,1.4,1.4,0,0,0,1.6-1.1,1.3,1.3,0,0,0-1.1-1.6A1.3,1.3,0,0,0,292.5,312Z"/><path class="cls-15" d="M119.1,117.9a8.7,8.7,0,0,0,3,3.5,46.6,46.6,0,0,1-5-36.5.9.9,0,0,1,1.4-.4c15.3,12.2,22.4,33.6,34,49.6,4.6,6.4,50.8,58.5,54,66.6,22.3,37,19.8,45.8,35.5,84.6-3.8-.7-47.7-5.6-51.5-6.1a101.3,101.3,0,0,1-27.8-48.1c-3.4-13.7-9-26.7-17.4-37.8a33.1,33.1,0,0,1-5-9.7,1.1,1.1,0,0,1,1.4-1.3l7,3.1a47.5,47.5,0,0,1-22.4-33.6,1.4,1.4,0,0,1,1.9-1.5,29.2,29.2,0,0,1,7,4.8c-5.5-5.1-11.1-10.2-14.7-16.8s-5-13.7-2.6-20.3A.7.7,0,0,1,119.1,117.9Z"/><path class="cls-12" d="M128,152.4l-.3-1.3Z"/><path class="cls-12" d="M99.5,260.4l-.9-.5-.6-.7-.7-1a20.9,20.9,0,0,0,2.2,2Z"/><path class="cls-12" d="M98.9,250.8l-1.1-.4-.8-1.2-.2-.2Z"/><path class="cls-7" d="M160.5,136.7l-.4-.6Z"/><path class="cls-7" d="M158.4,133.9l-.4-.5Z"/><path class="cls-7" d="M156.5,131.3l-.4-.5Z"/><path class="cls-7" d="M165,142.6l-.6-.7Z"/><path class="cls-7" d="M169.8,148.6l-.7-.8Z"/><path class="cls-7" d="M167.3,145.6l-.6-.8Z"/><path class="cls-7" d="M162.7,139.6l-.5-.6Z"/><path class="cls-7" d="M138.2,103.1a124.1,124.1,0,0,0-8.5-12A124.1,124.1,0,0,1,138.2,103.1Z"/><path class="cls-7" d="M129.7,91.1c-1.2-1.4-2.4-2.8-3.7-4.1C127.3,88.3,128.5,89.7,129.7,91.1Z"/><path class="cls-10" d="M148.5,283.6l-23-11.4c-1.1-.5-.1-2.2,1-1.6l22.9,11.3A1,1,0,0,1,148.5,283.6Z"/><path class="cls-10" d="M141,276.3a2.3,2.3,0,0,0-3,1.1,2.3,2.3,0,0,0,1.1,3,2.2,2.2,0,0,0,3-1A2.4,2.4,0,0,0,141,276.3Z"/><path class="cls-10" d="M127.4,272.2c.1-.3-5.6-8.2-7-10.2-.2-.2-.4-.2-.4,0v2a2.2,2.2,0,0,1-2.2,2.1l-1.8.2c-.1.1-.2.2-.1.3l.9,1.6a2.3,2.3,0,0,1-.3,3.1l-1.5,1.2c-.1.1,0,.4.2.3C117.7,272.8,127.3,272.4,127.4,272.2Z"/><path class="cls-11" d="M123.4,268.9l-5.3-2.8a2.5,2.5,0,0,0,1.5-1.1Z"/><path class="cls-11" d="M116.9,268.6l5.5,2.4-5.4-.6A2.3,2.3,0,0,0,116.9,268.6Z"/><path class="cls-16" d="M148.4,285.7c-3.8-2.3,4,2.1,0,0Z"/><path class="cls-16" d="M118.3,276.3c7,3.7,23.1,5.7,30.1,9.4s19,18.6,25.6,23.2c37.9,26.3,87.1,35.2,131.6,23.7a19.1,19.1,0,0,1,3.6,4.2c-16.7,3.9-31,5.5-48.1,6.7s-39.9-1.3-55.7-8.2c-22.5-9.8-38.5-26.4-54.5-45.2-8.8-2-20.2-5.9-30.2-9.3C120.9,279.6,118,277.4,118.3,276.3Z"/><path class="cls-9" d="M100.9,272.7a1.2,1.2,0,0,1,0-1.4,1.7,1.7,0,0,1,1.7-.5l3.5.6c-1.4-1-1.5-.8-2.9-1.8a7.7,7.7,0,0,1-2.3-2.1h0a1.6,1.6,0,0,1,1.9-2.3l2.2.6c-.1,0-.1,0-.1-.1a28.3,28.3,0,0,1-6.9-6.5,6.8,6.8,0,0,1-1.2-2.4h0a1.8,1.8,0,0,1,2.2-2.1,12.7,12.7,0,0,1,3.9,1.2v-.2a26.2,26.2,0,0,1-5.9-6.5,6.4,6.4,0,0,1-.9-2.1c-.2-3.6,4.7-1.2,6.1-.8a20.3,20.3,0,0,1-2.7-2.5,10.7,10.7,0,0,1-2-3.8,1.9,1.9,0,0,1,2.5-2.3l2.7,1.4h0l.4.3c2.2,1.3,4.6,2.9,5.5,3.5l1.2.9,21.5,13.9-4.1-1.5c-4.5-1.6-10.2-2.3-13.5,1.2s-2.7,7.3-1.1,10.8,4.3,6.2,7.1,8.8l5.7,5.5-12.1-4.2a.1.1,0,0,0-.1.1l-5.2-1.9c-3-1.1-4.8-1.7-6-2.6A3.8,3.8,0,0,1,100.9,272.7Z"/><path class="cls-10" d="M301.8,329.5l6,6.9,21.4,5.9a30.4,30.4,0,0,1,7.3,2.7c2.3,1.4,3.7,2.8,4.3,5.5,1.5-6.9-1.3-14.3-6.2-19.1s-11.6-7.1-18.3-7.6C316.3,323.8,306.7,327.7,301.8,329.5Z"/><path class="cls-17" d="M302.8,329.7c5,2,10.4,3,15.7,4.2s12.1,3.2,16.9,7.2a19.9,19.9,0,0,1,5.7,7.4,13.8,13.8,0,0,1-.3,2c-.6-2.7-2-4.1-4.3-5.5a30.4,30.4,0,0,0-7.3-2.7l-21.4-5.9C305.8,334,304.8,332,302.8,329.7Z"/><path class="cls-18" d="M318.1,326.5a4.3,4.3,0,0,0,3.5-.1,6.1,6.1,0,0,0-2.8-1.1,1.4,1.4,0,0,0-.9,0c-.3.1-.5.5-.4.7S317.8,326.4,318.1,326.5Z"/><path class="cls-19" d="M333.5,331.9c-4.8-4.4-11.7-6.7-18-7.8l.8-.3c6.7.5,13.4,2.9,18.3,7.6A22.1,22.1,0,0,1,341,344C339,339.6,337.1,335.1,333.5,331.9Z"/></g></g></g></svg>