<svg id="SB39_Interactive_Icon_12_F1" xmlns="http://www.w3.org/2000/svg" xmlns:xlink="http://www.w3.org/1999/xlink" viewBox="0 0 443.8 451.5"><defs><style>.cls-1,.cls-10{fill:none;}.cls-2{opacity:0.5;}.cls-3{fill:url(#linear-gradient);}.cls-4,.cls-6{fill:#31d0e5;}.cls-10,.cls-4{stroke-miterlimit:10;}.cls-4{stroke-width:6px;stroke:url(#linear-gradient-2);}.cls-5{clip-path:url(#clip-path);}.cls-7{opacity:0.14;}.cls-8{opacity:0.45;}.cls-9{fill:#77c9b0;}.cls-10{stroke:#262211;stroke-width:0.75px;}.cls-11{fill:#ffd23f;}.cls-12{opacity:0.1;}.cls-13{fill:#fff;}.cls-14{fill:#e53963;}.cls-15{fill:#9e4ac6;}</style><linearGradient id="linear-gradient" x1="43.4" y1="102.28" x2="392.67" y2="341.6" gradientUnits="userSpaceOnUse"><stop offset="0" stop-color="#9b81cf"/><stop offset="1" stop-color="#3b139b"/></linearGradient><linearGradient id="linear-gradient-2" x1="16.34" y1="224.74" x2="427.91" y2="224.74" gradientUnits="userSpaceOnUse"><stop offset="0" stop-color="#4c1da9"/><stop offset="1" stop-color="#997ece"/></linearGradient><clipPath id="clip-path"><path class="cls-1" d="M221.6,424.3C112.5,424.3,22,335,22,224.9S112.5,23.6,221.6,23.6s200.5,91.3,200.5,201.3S330.7,424.3,221.6,424.3Z"/></clipPath></defs><g id="Layer_1" data-name="Layer 1"><path class="cls-2" d="M435.4,236a208.4,208.4,0,0,0-25.5-100A211.5,211.5,0,0,0,222.1,22C105.2,22,10.4,116.8,10.4,233.7s94.8,211.6,211.7,211.6c3,0,6,0,8.9-.2C344.3,442.6,435.4,349.9,435.4,236Z"/><circle class="cls-3" cx="222.1" cy="224.7" r="211.7"/><circle class="cls-4" cx="222.1" cy="224.7" r="202.8"/><g class="cls-5"><path class="cls-6" d="M444.8,198.7c0,106.9-100,193.6-223.3,193.6S-12.7,315-12.7,208.1,98.2,5.1,221.5,5.1,444.8,91.8,444.8,198.7Z"/><ellipse class="cls-7" cx="176.5" cy="434.8" rx="39.5" ry="9.3" transform="translate(-37.4 17.1) rotate(-5)"/><ellipse class="cls-7" cx="344.8" cy="440.1" rx="39.5" ry="9.5" transform="translate(-66.3 61.2) rotate(-9.3)"/><ellipse class="cls-7" cx="117.2" cy="414.1" rx="23.9" ry="6.4" transform="matrix(0.99, -0.13, 0.13, 0.99, -51.64, 18.24)"/><g class="cls-8"><path class="cls-9" d="M56.6,331.6s9.9-6,15,1.3,2,5-8.2,4.2S52.9,333.2,56.6,331.6Z"/><path class="cls-9" d="M60.9,345.9s3.3-5.5,2.5-8.8.9-1.6.9-1.6l.3,3.4,3.5-1.3s-3.9,1.5-3.2,4.3a9.9,9.9,0,0,0,1.9,4.1Z"/></g><g id="_001" data-name="001"><path class="cls-10" d="M226,240.1s2.3,30.8-22.4,76.9c-16.9,31.5-47.7,119.7-12.9,139.9"/><path class="cls-10" d="M300.1,190s6.8,33.7-22.4,77-105.9,154.5-75,196.7"/><path class="cls-10" d="M190.7,456.9c-40.8-11.2-89-114.7-80.4-155"/><path class="cls-11" d="M164,213.6a55.6,55.6,0,0,0-13.4-28.4c-8-8.9-17.6-15.1-29.8-16.8-10.4-1.4-20,.1-29.2,5.2a57.7,57.7,0,0,0-8.8,6.1,52.3,52.3,0,0,0-16.1,22.7c-4.7,12.1-4.9,24.6-2.5,37.2A80.7,80.7,0,0,0,83,278a42.8,42.8,0,0,0,23.2,13.6c1.9.4,2,.9,1,2.4s-2.8,4.6-4.3,7.1l7.4.8h1.3c1.1,0,2.2-.3,3.3.4a2,2,0,0,0,2.1-.1c.5-.7-.1-1.3-.4-2-.9-2.4-1.7-4.8-2.6-7.3,2.8-1.1,5.9-.6,8.9-1.5A48.2,48.2,0,0,0,150.8,270C161.5,252.8,167.4,234.4,164,213.6ZM94.8,270.7"/><path class="cls-12" d="M114,292.9c-1-1.5.7-1.6,1.2-1.9,12.8-8.3,19.8-20.9,25.1-34.8a67.9,67.9,0,0,0,4.9-27.4c-.6-14.8-5.3-27.9-15.8-38.7-7.8-8.1-16.8-13.5-27.8-15.6-2.3-.4-4.5-.1-6.8-.3s-2.3.5-3.2-.6c9.2-5.1,18.8-6.6,29.2-5.2,12.2,1.7,21.8,7.9,29.8,16.8A55.6,55.6,0,0,1,164,213.6c3.4,20.8-2.5,39.2-13.2,56.4a48.2,48.2,0,0,1-27.9,21.4C119.9,292.3,116.8,291.8,114,292.9Z"/><path class="cls-13" d="M94.8,270.7a23.2,23.2,0,0,1-7.2-6.4,61.8,61.8,0,0,1-13.1-28.4c-2.1-11.4-.4-22.2,3.5-32.9.5-1.5,1.3-1.4,2.6-1.1s1.5,1.2,1.1,2.5a62.4,62.4,0,0,0-2.4,18.2c.2,9.7,1.6,19.4,5.2,28.5A107.9,107.9,0,0,0,94.8,270.7Z"/><path class="cls-13" d="M81.1,195.1c-.2-1.9.8-2.4,2.4-2.5s2.5,1.2,2.5,2.8a2.4,2.4,0,0,1-2.7,2.3C81.8,197.5,80.8,196.8,81.1,195.1Z"/><path class="cls-14" d="M354.1,101.8a55.6,55.6,0,0,0-13.4-28.4c-8-8.9-17.7-15-29.8-16.8-10.4-1.4-20.1.1-29.3,5.2a57.7,57.7,0,0,0-8.8,6.1,54,54,0,0,0-16.1,22.7c-4.7,12.1-4.9,24.6-2.4,37.2A79.6,79.6,0,0,0,273,166.2a43.1,43.1,0,0,0,23.2,13.6c2,.4,2,.9,1.1,2.4s-2.8,4.6-4.3,7.1l7.4.8h1.2c1.2,0,2.3-.3,3.4.4a1.6,1.6,0,0,0,2-.1c.6-.7,0-1.3-.3-2-1-2.4-1.8-4.8-2.7-7.3,2.9-1.1,6-.6,8.9-1.5a48.1,48.1,0,0,0,28-21.4C351.6,141,357.5,122.6,354.1,101.8Z"/><path class="cls-12" d="M304,181.1c-1-1.5.7-1.6,1.2-1.9,12.8-8.3,19.8-20.9,25.1-34.7a68.6,68.6,0,0,0,4.9-27.5c-.6-14.8-5.3-27.9-15.7-38.7-7.9-8.1-16.9-13.5-27.8-15.5-2.3-.5-4.6-.2-6.9-.3s-2.3.4-3.2-.7c9.2-5.1,18.9-6.6,29.3-5.2,12.1,1.8,21.8,7.9,29.8,16.8a55.6,55.6,0,0,1,13.4,28.4c3.4,20.8-2.5,39.2-13.2,56.4a48.1,48.1,0,0,1-28,21.4C310,180.5,306.9,180,304,181.1Z"/><path class="cls-13" d="M284.8,158.9a22.9,22.9,0,0,1-7.1-6.4,62,62,0,0,1-13.2-28.4c-2-11.3-.3-22.2,3.5-32.9.5-1.5,1.4-1.4,2.7-1.1s1.4,1.2,1.1,2.5a62.8,62.8,0,0,0-2.4,18.2,82.7,82.7,0,0,0,5.2,28.6A109.9,109.9,0,0,0,284.8,158.9Z"/><path class="cls-13" d="M271.1,83.3c-.1-1.9.8-2.4,2.4-2.4s2.6,1.1,2.5,2.7a2.3,2.3,0,0,1-2.7,2.3C271.8,85.7,270.8,85,271.1,83.3Z"/><path class="cls-15" d="M280.8,152a54.8,54.8,0,0,0-13.4-28.4c-8-9-17.7-15.1-29.9-16.8a45.7,45.7,0,0,0-29.2,5.1,65.8,65.8,0,0,0-8.8,6.1,53.2,53.2,0,0,0-16.1,22.7c-4.7,12.1-4.9,24.6-2.4,37.2a79.5,79.5,0,0,0,18.7,38.5,43,43,0,0,0,23.2,13.5c2,.5,2,.9,1.1,2.4s-2.8,4.7-4.3,7.1l7.4.9h1.2a5.6,5.6,0,0,1,3.4.3,1.5,1.5,0,0,0,2-.1c.6-.6,0-1.3-.3-2-1-2.4-1.8-4.8-2.7-7.2,2.9-1.2,6-.7,8.9-1.6a48.1,48.1,0,0,0,28-21.4C278.3,191.1,284.2,172.7,280.8,152Zm-69.3,57"/><path class="cls-12" d="M230.7,231.3c-1-1.5.7-1.6,1.2-2,12.8-8.2,19.8-20.9,25.1-34.7a68,68,0,0,0,4.9-27.5c-.6-14.7-5.3-27.9-15.7-38.7-7.9-8-16.9-13.4-27.8-15.5-2.3-.5-4.6-.1-6.9-.3s-2.3.4-3.2-.7a45.7,45.7,0,0,1,29.2-5.1c12.2,1.7,21.9,7.8,29.9,16.8A54.8,54.8,0,0,1,280.8,152c3.4,20.7-2.5,39.1-13.2,56.3a48.1,48.1,0,0,1-28,21.4C236.7,230.6,233.6,230.1,230.7,231.3Z"/><path class="cls-13" d="M211.5,209c-2.9-1.5-5.1-3.9-7.2-6.4a62.9,62.9,0,0,1-13.1-28.3c-2-11.4-.4-22.3,3.5-33,.5-1.5,1.4-1.4,2.7-1s1.4,1.1,1.1,2.4a63.5,63.5,0,0,0-2.4,18.3,82.1,82.1,0,0,0,5.2,28.5A103.7,103.7,0,0,0,211.5,209Z"/><path class="cls-13" d="M197.8,133.4c-.1-1.8.8-2.4,2.4-2.4s2.6,1.1,2.5,2.7A2.2,2.2,0,0,1,200,136C198.5,135.9,197.5,135.1,197.8,133.4Z"/></g></g></g></svg>