<svg id="SB39_Interactive_Icon_12_F1" xmlns="http://www.w3.org/2000/svg" xmlns:xlink="http://www.w3.org/1999/xlink" viewBox="0 0 443.8 451.5"><defs><style>.cls-1,.cls-10{fill:none;}.cls-2{opacity:0.5;}.cls-3{fill:url(#linear-gradient);}.cls-4,.cls-6{fill:#31d0e5;}.cls-10,.cls-4{stroke-miterlimit:10;}.cls-4{stroke-width:6px;stroke:url(#linear-gradient-2);}.cls-5{clip-path:url(#clip-path);}.cls-7{opacity:0.14;}.cls-8{opacity:0.45;}.cls-9{fill:#77c9b0;}.cls-10{stroke:#262211;stroke-width:0.75px;}.cls-11{fill:#ffd23f;}.cls-12{opacity:0.1;}.cls-13{fill:#fff;}.cls-14{fill:#e53963;}.cls-15{fill:#9e4ac6;}</style><linearGradient id="linear-gradient" x1="43.4" y1="102.28" x2="392.67" y2="341.6" gradientUnits="userSpaceOnUse"><stop offset="0" stop-color="#9b81cf"/><stop offset="1" stop-color="#3b139b"/></linearGradient><linearGradient id="linear-gradient-2" x1="16.34" y1="224.74" x2="427.91" y2="224.74" gradientUnits="userSpaceOnUse"><stop offset="0" stop-color="#4c1da9"/><stop offset="1" stop-color="#997ece"/></linearGradient><clipPath id="clip-path"><path class="cls-1" d="M221.6,424.3C112.5,424.3,22,335,22,224.9S112.5,23.6,221.6,23.6s200.5,91.3,200.5,201.3S330.7,424.3,221.6,424.3Z"/></clipPath></defs><g id="Layer_1" data-name="Layer 1"><path class="cls-2" d="M435.4,236a208.4,208.4,0,0,0-25.5-100A211.5,211.5,0,0,0,222.1,22C105.2,22,10.4,116.8,10.4,233.7s94.8,211.6,211.7,211.6c3,0,6,0,8.9-.2C344.3,442.6,435.4,349.9,435.4,236Z"/><circle class="cls-3" cx="222.1" cy="224.7" r="211.7"/><circle class="cls-4" cx="222.1" cy="224.7" r="202.8"/><g class="cls-5"><path class="cls-6" d="M444.8,198.7c0,106.9-100,193.6-223.3,193.6S-12.7,315-12.7,208.1,98.2,5.1,221.5,5.1,444.8,91.8,444.8,198.7Z"/><ellipse class="cls-7" cx="176.5" cy="434.8" rx="39.5" ry="9.3" transform="translate(-37.4 17.1) rotate(-5)"/><ellipse class="cls-7" cx="344.8" cy="440.1" rx="39.5" ry="9.5" transform="translate(-66.3 61.2) rotate(-9.3)"/><ellipse class="cls-7" cx="117.2" cy="414.1" rx="23.9" ry="6.4" transform="matrix(0.99, -0.13, 0.13, 0.99, -51.64, 18.24)"/><g class="cls-8"><path class="cls-9" d="M56.6,331.6s9.9-6,15,1.3,2,5-8.2,4.2S52.9,333.2,56.6,331.6Z"/><path class="cls-9" d="M60.9,345.9s3.3-5.5,2.5-8.8.9-1.6.9-1.6l.3,3.4,3.5-1.3s-3.9,1.5-3.2,4.3a9.9,9.9,0,0,0,1.9,4.1Z"/></g><g id="_004" data-name="004"><path class="cls-10" d="M322.9,158.5s2.3,30.9-22.4,77c-16.9,31.5-50.2,134.6,35.3,197.2"/><path class="cls-10" d="M397,108.5s6.8,33.7-22.4,76.9S278,321.6,342.7,428.1"/><path class="cls-10" d="M335.8,432.7c-40.7-11.3-137.3-172.1-128.6-212.3"/><path class="cls-11" d="M260.9,132.1a54.8,54.8,0,0,0-13.4-28.4c-8-9-17.7-15.1-29.8-16.8A45.6,45.6,0,0,0,188.5,92a65.8,65.8,0,0,0-8.8,6.1,53.4,53.4,0,0,0-16.2,22.7c-4.6,12.1-4.8,24.7-2.4,37.2a80.5,80.5,0,0,0,18.8,38.5,42.8,42.8,0,0,0,23.2,13.6c1.9.4,2,.8,1,2.3s-2.8,4.7-4.3,7.1l7.4.9h1.3a5.4,5.4,0,0,1,3.3.3,1.5,1.5,0,0,0,2-.1c.6-.6,0-1.3-.3-2-.9-2.4-1.8-4.8-2.6-7.2,2.8-1.1,5.9-.7,8.9-1.5a48.7,48.7,0,0,0,27.9-21.5C258.4,171.2,264.3,152.8,260.9,132.1Zm-69.3,57"/><path class="cls-12" d="M210.9,211.4c-1-1.5.6-1.6,1.2-1.9,12.8-8.3,19.8-20.9,25.1-34.8a69.5,69.5,0,0,0,4.8-27.4c-.6-14.8-5.2-27.9-15.7-38.8-7.8-8-16.9-13.4-27.8-15.5-2.3-.4-4.6-.1-6.8-.3s-2.3.4-3.2-.7a45.6,45.6,0,0,1,29.2-5.1c12.1,1.7,21.8,7.8,29.8,16.8a54.8,54.8,0,0,1,13.4,28.4c3.4,20.7-2.5,39.1-13.2,56.3a48.7,48.7,0,0,1-27.9,21.5C216.8,210.7,213.7,210.3,210.9,211.4Z"/><path class="cls-13" d="M191.6,189.1c-2.9-1.4-5.1-3.9-7.1-6.4a60.4,60.4,0,0,1-13.1-28.3c-2.1-11.4-.4-22.3,3.4-33,.6-1.4,1.4-1.4,2.7-1s1.5,1.2,1.1,2.4a63.5,63.5,0,0,0-2.4,18.3c.2,9.7,1.6,19.4,5.2,28.5A103.4,103.4,0,0,0,191.6,189.1Z"/><path class="cls-13" d="M177.9,113.5c-.1-1.8.8-2.4,2.5-2.4s2.5,1.2,2.4,2.7a2.2,2.2,0,0,1-2.7,2.3C178.7,116,177.6,115.2,177.9,113.5Z"/><path class="cls-14" d="M450.9,20.3A55.4,55.4,0,0,0,437.6-8.1c-8.1-9-17.7-15.1-29.9-16.8a45.7,45.7,0,0,0-29.2,5.1,65.8,65.8,0,0,0-8.8,6.1A53.2,53.2,0,0,0,353.6,9c-4.7,12.2-4.9,24.7-2.4,37.2a79.5,79.5,0,0,0,18.7,38.5,42.8,42.8,0,0,0,23.2,13.6c2,.4,2,.8,1,2.3l-4.2,7.1,7.4.9h1.2c1.2,0,2.3-.3,3.4.3a1.5,1.5,0,0,0,2-.1c.6-.6,0-1.3-.3-2-1-2.3-1.8-4.8-2.7-7.2,2.9-1.1,6-.6,8.9-1.5a49.2,49.2,0,0,0,28-21.4C448.5,59.4,454.4,41.1,450.9,20.3Z"/><path class="cls-12" d="M400.9,99.6c-1-1.5.7-1.6,1.2-1.9,12.8-8.3,19.8-20.9,25.1-34.8a67.9,67.9,0,0,0,4.9-27.4c-.6-14.8-5.3-27.9-15.7-38.7-7.9-8.1-16.9-13.5-27.9-15.6-2.2-.4-4.5-.1-6.8-.3s-2.3.4-3.2-.7a45.7,45.7,0,0,1,29.2-5.1c12.2,1.7,21.8,7.8,29.9,16.8a55.4,55.4,0,0,1,13.3,28.4c3.5,20.8-2.4,39.1-13.1,56.4a49.2,49.2,0,0,1-28,21.4C406.9,99,403.8,98.5,400.9,99.6Z"/><path class="cls-13" d="M381.7,77.3c-2.9-1.4-5.1-3.9-7.2-6.4a62.5,62.5,0,0,1-13.1-28.3c-2.1-11.4-.4-22.3,3.5-33,.5-1.4,1.3-1.4,2.7-1s1.4,1.2,1.1,2.4a63.5,63.5,0,0,0-2.4,18.3,81.6,81.6,0,0,0,5.1,28.5A103.9,103.9,0,0,0,381.7,77.3Z"/><path class="cls-13" d="M368,1.7c-.1-1.8.8-2.3,2.4-2.4s2.6,1.2,2.5,2.8a2.3,2.3,0,0,1-2.7,2.3C368.7,4.2,367.7,3.4,368,1.7Z"/><path class="cls-15" d="M377.6,70.4A55.4,55.4,0,0,0,364.3,42c-8.1-8.9-17.7-15.1-29.9-16.8a45.7,45.7,0,0,0-29.2,5.2,57.7,57.7,0,0,0-8.8,6.1,53.2,53.2,0,0,0-16.1,22.7c-4.7,12.1-4.9,24.6-2.4,37.2a79.6,79.6,0,0,0,18.7,38.4,42.8,42.8,0,0,0,23.2,13.6c2,.4,2,.9,1,2.4s-2.8,4.6-4.2,7.1l7.4.8h1.2c1.1,0,2.3-.3,3.4.4a1.8,1.8,0,0,0,2-.1c.5-.7-.1-1.3-.3-2-1-2.4-1.8-4.8-2.7-7.3,2.9-1.1,6-.6,8.9-1.5a48.4,48.4,0,0,0,28-21.4C375.2,109.6,381.1,91.2,377.6,70.4Zm-69.2,57.1"/><path class="cls-12" d="M327.6,149.7c-1-1.5.7-1.6,1.2-1.9,12.8-8.3,19.8-20.9,25.1-34.8a67.9,67.9,0,0,0,4.9-27.4c-.6-14.8-5.3-27.9-15.8-38.7-7.8-8.1-16.8-13.5-27.8-15.6-2.2-.4-4.5-.1-6.8-.3s-2.3.5-3.2-.6a45.7,45.7,0,0,1,29.2-5.2c12.2,1.7,21.8,7.9,29.9,16.8a55.4,55.4,0,0,1,13.3,28.4c3.5,20.8-2.4,39.2-13.1,56.4a48.4,48.4,0,0,1-28,21.4C333.6,149.1,330.5,148.6,327.6,149.7Z"/><path class="cls-13" d="M308.4,127.5c-2.9-1.5-5.1-3.9-7.2-6.4a62.8,62.8,0,0,1-13.1-28.4c-2.1-11.3-.4-22.2,3.5-32.9.5-1.5,1.3-1.4,2.7-1.1s1.4,1.2,1,2.5A65.9,65.9,0,0,0,293,79.4a81.6,81.6,0,0,0,5.1,28.5A107.9,107.9,0,0,0,308.4,127.5Z"/><path class="cls-13" d="M294.7,51.9c-.1-1.9.8-2.4,2.4-2.5s2.6,1.2,2.5,2.8a2.3,2.3,0,0,1-2.7,2.3C295.4,54.3,294.4,53.6,294.7,51.9Z"/></g></g></g></svg>