<svg id="SB39_Interactive_Icon_12_F1" xmlns="http://www.w3.org/2000/svg" xmlns:xlink="http://www.w3.org/1999/xlink" viewBox="0 0 443.8 451.5"><defs><style>.cls-1,.cls-10{fill:none;}.cls-2{opacity:0.5;}.cls-3{fill:url(#linear-gradient);}.cls-4,.cls-6{fill:#31d0e5;}.cls-10,.cls-4{stroke-miterlimit:10;}.cls-4{stroke-width:6px;stroke:url(#linear-gradient-2);}.cls-5{clip-path:url(#clip-path);}.cls-7{opacity:0.14;}.cls-8{opacity:0.45;}.cls-9{fill:#77c9b0;}.cls-10{stroke:#262211;stroke-width:0.75px;}.cls-11{fill:#e53963;}.cls-12{opacity:0.1;}.cls-13{fill:#fff;}.cls-14{fill:#9e4ac6;}</style><linearGradient id="linear-gradient" x1="43.4" y1="102.28" x2="392.67" y2="341.6" gradientUnits="userSpaceOnUse"><stop offset="0" stop-color="#9b81cf"/><stop offset="1" stop-color="#3b139b"/></linearGradient><linearGradient id="linear-gradient-2" x1="16.34" y1="224.74" x2="427.91" y2="224.74" gradientUnits="userSpaceOnUse"><stop offset="0" stop-color="#4c1da9"/><stop offset="1" stop-color="#997ece"/></linearGradient><clipPath id="clip-path"><path class="cls-1" d="M221.6,424.3C112.5,424.3,22,335,22,224.9S112.5,23.6,221.6,23.6s200.5,91.3,200.5,201.3S330.7,424.3,221.6,424.3Z"/></clipPath></defs><g id="Layer_1" data-name="Layer 1"><path class="cls-2" d="M435.4,236a208.4,208.4,0,0,0-25.5-100A211.5,211.5,0,0,0,222.1,22C105.2,22,10.4,116.8,10.4,233.7s94.8,211.6,211.7,211.6c3,0,6,0,8.9-.2C344.3,442.6,435.4,349.9,435.4,236Z"/><circle class="cls-3" cx="222.1" cy="224.7" r="211.7"/><circle class="cls-4" cx="222.1" cy="224.7" r="202.8"/><g class="cls-5"><path class="cls-6" d="M444.8,198.7c0,106.9-100,193.6-223.3,193.6S-12.7,315-12.7,208.1,98.2,5.1,221.5,5.1,444.8,91.8,444.8,198.7Z"/><ellipse class="cls-7" cx="176.5" cy="434.8" rx="39.5" ry="9.3" transform="translate(-37.4 17.1) rotate(-5)"/><ellipse class="cls-7" cx="344.8" cy="440.1" rx="39.5" ry="9.5" transform="translate(-66.3 61.2) rotate(-9.3)"/><ellipse class="cls-7" cx="117.2" cy="414.1" rx="23.9" ry="6.4" transform="matrix(0.99, -0.13, 0.13, 0.99, -51.64, 18.24)"/><g class="cls-8"><path class="cls-9" d="M56.6,331.6s9.9-6,15,1.3,2,5-8.2,4.2S52.9,333.2,56.6,331.6Z"/><path class="cls-9" d="M60.9,345.9s3.3-5.5,2.5-8.8.9-1.6.9-1.6l.3,3.4,3.5-1.3s-3.9,1.5-3.2,4.3a9.9,9.9,0,0,0,1.9,4.1Z"/></g><g id="_006" data-name="006"><path class="cls-10" d="M51.1,397.1s6.8,33.7-22.5,76.9S-77.3,628.5-46.3,670.7"/><path class="cls-11" d="M105,308.9a54.7,54.7,0,0,0-13.3-28.4c-8.1-9-17.7-15.1-29.9-16.9a46.4,46.4,0,0,0-29.2,5.2,57.7,57.7,0,0,0-8.8,6.1A53.2,53.2,0,0,0,7.7,297.6C3,309.7,2.8,322.2,5.3,334.8A78.7,78.7,0,0,0,24,373.2a42.8,42.8,0,0,0,23.2,13.6c1.9.5,2,.9,1,2.4s-2.8,4.6-4.2,7.1l7.3.9h1.3a5.3,5.3,0,0,1,3.3.3,1.6,1.6,0,0,0,2.1-.1c.5-.6-.1-1.3-.3-2-1-2.4-1.8-4.8-2.7-7.2,2.8-1.2,5.9-.7,8.9-1.6a48.7,48.7,0,0,0,28-21.4C102.5,348,108.5,329.6,105,308.9Z"/><path class="cls-12" d="M55,388.2c-1-1.5.7-1.6,1.2-2C69,378,76,365.3,81.3,351.5A68,68,0,0,0,86.2,324c-.6-14.7-5.3-27.9-15.8-38.7-7.8-8.1-16.8-13.4-27.8-15.5-2.3-.5-4.5-.1-6.8-.3s-2.3.4-3.2-.7a46.4,46.4,0,0,1,29.2-5.2c12.2,1.8,21.8,7.9,29.9,16.9A54.7,54.7,0,0,1,105,308.9c3.5,20.7-2.5,39.1-13.1,56.3a48.7,48.7,0,0,1-28,21.4C60.9,387.5,57.8,387,55,388.2Z"/><path class="cls-13" d="M35.8,365.9a23.2,23.2,0,0,1-7.2-6.4,62.9,62.9,0,0,1-13.1-28.3c-2.1-11.4-.4-22.3,3.5-33,.5-1.5,1.3-1.4,2.6-1.1s1.5,1.2,1.1,2.5a63.4,63.4,0,0,0-2.3,18.3,79.7,79.7,0,0,0,5.1,28.5A110.4,110.4,0,0,0,35.8,365.9Z"/><path class="cls-13" d="M22.1,290.3c-.2-1.9.8-2.4,2.4-2.4s2.6,1.1,2.5,2.7a2.3,2.3,0,0,1-2.7,2.3C22.8,292.8,21.8,292,22.1,290.3Z"/><path class="cls-14" d="M31.7,359a54.7,54.7,0,0,0-13.3-28.4c-8.1-9-17.7-15.1-29.9-16.8a45.6,45.6,0,0,0-29.2,5.1,65.8,65.8,0,0,0-8.8,6.1,53.2,53.2,0,0,0-16.1,22.7c-4.7,12.1-4.9,24.6-2.4,37.2a79.5,79.5,0,0,0,18.7,38.5A42.8,42.8,0,0,0-26.1,437c1.9.4,2,.8,1,2.3s-2.8,4.7-4.2,7.1l7.3.9h1.3a5.4,5.4,0,0,1,3.3.3,1.7,1.7,0,0,0,2.1-.1c.5-.6-.1-1.3-.3-2-1-2.4-1.8-4.8-2.7-7.2,2.8-1.2,5.9-.7,8.9-1.6a48.7,48.7,0,0,0,28-21.4C29.2,398.1,35.1,379.7,31.7,359Zm-69.2,57"/><path class="cls-12" d="M-18.3,438.3c-1-1.5.7-1.6,1.2-1.9C-4.3,428.1,2.7,415.5,8,401.6a68,68,0,0,0,4.9-27.5c-.6-14.7-5.3-27.9-15.8-38.7-7.8-8-16.8-13.4-27.8-15.5-2.3-.4-4.5-.1-6.8-.3s-2.3.4-3.2-.7a45.6,45.6,0,0,1,29.2-5.1c12.2,1.7,21.8,7.8,29.9,16.8A54.7,54.7,0,0,1,31.7,359c3.4,20.7-2.5,39.1-13.1,56.3a48.7,48.7,0,0,1-28,21.4C-12.4,437.6-15.5,437.1-18.3,438.3Z"/></g></g></g></svg>