<svg id="SB39_Interactive_Icon_12_F1" xmlns="http://www.w3.org/2000/svg" xmlns:xlink="http://www.w3.org/1999/xlink" viewBox="0 0 443.8 451.5"><defs><style>.cls-1{fill:none;}.cls-2{opacity:0.5;}.cls-3{fill:url(#linear-gradient);}.cls-4,.cls-6{fill:#31d0e5;}.cls-4{stroke-miterlimit:10;stroke-width:6px;stroke:url(#linear-gradient-2);}.cls-5{clip-path:url(#clip-path);}.cls-7{opacity:0.14;}.cls-8{opacity:0.45;}.cls-9{fill:#77c9b0;}</style><linearGradient id="linear-gradient" x1="43.4" y1="102.28" x2="392.67" y2="341.6" gradientUnits="userSpaceOnUse"><stop offset="0" stop-color="#9b81cf"/><stop offset="1" stop-color="#3b139b"/></linearGradient><linearGradient id="linear-gradient-2" x1="16.34" y1="224.74" x2="427.91" y2="224.74" gradientUnits="userSpaceOnUse"><stop offset="0" stop-color="#4c1da9"/><stop offset="1" stop-color="#997ece"/></linearGradient><clipPath id="clip-path"><path class="cls-1" d="M221.6,424.3C112.5,424.3,22,335,22,224.9S112.5,23.6,221.6,23.6s200.5,91.3,200.5,201.3S330.7,424.3,221.6,424.3Z"/></clipPath></defs><g id="Layer_1" data-name="Layer 1"><path class="cls-2" d="M435.4,236a208.4,208.4,0,0,0-25.5-100A211.5,211.5,0,0,0,222.1,22C105.2,22,10.4,116.8,10.4,233.7s94.8,211.6,211.7,211.6c3,0,6,0,8.9-.2C344.3,442.6,435.4,349.9,435.4,236Z"/><circle class="cls-3" cx="222.1" cy="224.7" r="211.7"/><circle class="cls-4" cx="222.1" cy="224.7" r="202.8"/><g class="cls-5"><path class="cls-6" d="M444.8,198.7c0,106.9-100,193.6-223.3,193.6S-12.7,315-12.7,208.1,98.2,5.1,221.5,5.1,444.8,91.8,444.8,198.7Z"/><ellipse class="cls-7" cx="176.5" cy="434.8" rx="39.5" ry="9.3" transform="translate(-37.4 17.1) rotate(-5)"/><ellipse class="cls-7" cx="344.8" cy="440.1" rx="39.5" ry="9.5" transform="translate(-66.3 61.2) rotate(-9.3)"/><ellipse class="cls-7" cx="117.2" cy="414.1" rx="23.9" ry="6.4" transform="matrix(0.99, -0.13, 0.13, 0.99, -51.64, 18.24)"/><g class="cls-8"><path class="cls-9" d="M56.6,331.6s9.9-6,15,1.3,2,5-8.2,4.2S52.9,333.2,56.6,331.6Z"/><path class="cls-9" d="M60.9,345.9s3.3-5.5,2.5-8.8.9-1.6.9-1.6l.3,3.4,3.5-1.3s-3.9,1.5-3.2,4.3a9.9,9.9,0,0,0,1.9,4.1Z"/></g></g></g></svg>