<svg id="SB39_Interactive_Icon_12_F1" xmlns="http://www.w3.org/2000/svg" xmlns:xlink="http://www.w3.org/1999/xlink" viewBox="0 0 443.8 451.5"><defs><style>.cls-1,.cls-10{fill:none;}.cls-2{opacity:0.5;}.cls-3{fill:url(#linear-gradient);}.cls-4,.cls-6{fill:#31d0e5;}.cls-10,.cls-4{stroke-miterlimit:10;}.cls-4{stroke-width:6px;stroke:url(#linear-gradient-2);}.cls-5{clip-path:url(#clip-path);}.cls-7{opacity:0.14;}.cls-8{opacity:0.45;}.cls-9{fill:#77c9b0;}.cls-10{stroke:#262211;stroke-width:0.75px;}.cls-11{fill:#ffd23f;}.cls-12{opacity:0.1;}.cls-13{fill:#fff;}.cls-14{fill:#e53963;}.cls-15{fill:#9e4ac6;}</style><linearGradient id="linear-gradient" x1="43.4" y1="102.28" x2="392.67" y2="341.6" gradientUnits="userSpaceOnUse"><stop offset="0" stop-color="#9b81cf"/><stop offset="1" stop-color="#3b139b"/></linearGradient><linearGradient id="linear-gradient-2" x1="16.34" y1="224.74" x2="427.91" y2="224.74" gradientUnits="userSpaceOnUse"><stop offset="0" stop-color="#4c1da9"/><stop offset="1" stop-color="#997ece"/></linearGradient><clipPath id="clip-path"><path class="cls-1" d="M221.6,424.3C112.5,424.3,22,335,22,224.9S112.5,23.6,221.6,23.6s200.5,91.3,200.5,201.3S330.7,424.3,221.6,424.3Z"/></clipPath></defs><g id="Layer_1" data-name="Layer 1"><path class="cls-2" d="M435.4,236a208.4,208.4,0,0,0-25.5-100A211.5,211.5,0,0,0,222.1,22C105.2,22,10.4,116.8,10.4,233.7s94.8,211.6,211.7,211.6c3,0,6,0,8.9-.2C344.3,442.6,435.4,349.9,435.4,236Z"/><circle class="cls-3" cx="222.1" cy="224.7" r="211.7"/><circle class="cls-4" cx="222.1" cy="224.7" r="202.8"/><g class="cls-5"><path class="cls-6" d="M444.8,198.7c0,106.9-100,193.6-223.3,193.6S-12.7,315-12.7,208.1,98.2,5.1,221.5,5.1,444.8,91.8,444.8,198.7Z"/><ellipse class="cls-7" cx="176.5" cy="434.8" rx="39.5" ry="9.3" transform="translate(-37.4 17.1) rotate(-5)"/><ellipse class="cls-7" cx="344.8" cy="440.1" rx="39.5" ry="9.5" transform="translate(-66.3 61.2) rotate(-9.3)"/><ellipse class="cls-7" cx="117.2" cy="414.1" rx="23.9" ry="6.4" transform="matrix(0.99, -0.13, 0.13, 0.99, -51.64, 18.24)"/><g class="cls-8"><path class="cls-9" d="M56.6,331.6s9.9-6,15,1.3,2,5-8.2,4.2S52.9,333.2,56.6,331.6Z"/><path class="cls-9" d="M60.9,345.9s3.3-5.5,2.5-8.8.9-1.6.9-1.6l.3,3.4,3.5-1.3s-3.9,1.5-3.2,4.3a9.9,9.9,0,0,0,1.9,4.1Z"/></g><g id="_005" data-name="005"><path class="cls-10" d="M362.9,123.1s8.3,31.4-27.4,69.5c-64.8,68.9-1.5,186.8,33.2,207"/><path class="cls-10" d="M437,73s6.8,33.7-22.4,76.9S292.5,289,374.7,392.4"/><path class="cls-10" d="M362.3,406.8C252.4,301.5,238.6,225.1,247.2,184.9"/><path class="cls-11" d="M300.9,96.6a55.4,55.4,0,0,0-13.3-28.4c-8.1-9-17.7-15.1-29.9-16.8a45.6,45.6,0,0,0-29.2,5.1,65.8,65.8,0,0,0-8.8,6.1,53.2,53.2,0,0,0-16.1,22.7c-4.7,12.2-4.9,24.7-2.4,37.2A79.5,79.5,0,0,0,219.9,161a42.8,42.8,0,0,0,23.2,13.6c1.9.4,2,.8,1,2.3s-2.8,4.7-4.2,7.1l7.3.9h1.3c1.1,0,2.2-.3,3.3.3a1.7,1.7,0,0,0,2.1-.1c.5-.6-.1-1.3-.3-2-1-2.3-1.8-4.8-2.7-7.2,2.8-1.1,5.9-.6,8.9-1.5A49,49,0,0,0,287.7,153C298.4,135.7,304.3,117.3,300.9,96.6Zm-69.2,57"/><path class="cls-12" d="M250.9,175.9c-1-1.5.7-1.6,1.2-1.9,12.8-8.3,19.8-20.9,25.1-34.8a67.9,67.9,0,0,0,4.9-27.4c-.6-14.8-5.3-27.9-15.8-38.7-7.8-8.1-16.8-13.5-27.8-15.6-2.3-.4-4.5-.1-6.8-.3s-2.3.4-3.2-.7a45.6,45.6,0,0,1,29.2-5.1c12.2,1.7,21.8,7.8,29.9,16.8a55.4,55.4,0,0,1,13.3,28.4c3.4,20.7-2.5,39.1-13.2,56.4a49,49,0,0,1-27.9,21.4C256.8,175.3,253.7,174.8,250.9,175.9Z"/><path class="cls-13" d="M231.7,153.6c-2.9-1.4-5.2-3.9-7.2-6.4a61.4,61.4,0,0,1-13.1-28.3c-2.1-11.4-.4-22.3,3.5-33,.5-1.4,1.3-1.4,2.6-1s1.5,1.2,1.1,2.4a67.2,67.2,0,0,0-2.4,18.3c.2,9.7,1.6,19.4,5.2,28.5A103.9,103.9,0,0,0,231.7,153.6Z"/><path class="cls-13" d="M218,78c-.2-1.8.8-2.3,2.4-2.4s2.6,1.2,2.5,2.8a2.4,2.4,0,0,1-2.7,2.3C218.7,80.5,217.7,79.7,218,78Z"/><path class="cls-14" d="M491-15.2a55.6,55.6,0,0,0-13.4-28.4c-8-9-17.7-15.1-29.8-16.8a45.4,45.4,0,0,0-29.2,5.1,60.9,60.9,0,0,0-8.9,6.1,54.7,54.7,0,0,0-16.1,22.7c-4.6,12.2-4.9,24.7-2.4,37.2a80.4,80.4,0,0,0,18.7,38.5,43.1,43.1,0,0,0,23.3,13.6c1.9.4,2,.8,1,2.3s-2.8,4.7-4.3,7.2l7.4.8h1.3c1.1,0,2.2-.3,3.3.3a1.5,1.5,0,0,0,2-.1c.6-.6,0-1.3-.3-1.9l-2.7-7.3c2.9-1.1,6-.6,8.9-1.5a48.5,48.5,0,0,0,28-21.4C488.5,23.9,494.4,5.6,491-15.2Z"/><path class="cls-12" d="M440.9,64.1c-.9-1.5.7-1.6,1.2-1.9,12.9-8.3,19.8-20.9,25.1-34.8A67.9,67.9,0,0,0,472.1,0c-.6-14.8-5.2-27.9-15.7-38.7-7.8-8.1-16.9-13.5-27.8-15.6-2.3-.4-4.6-.1-6.8-.3s-2.4.4-3.2-.7a45.4,45.4,0,0,1,29.2-5.1c12.1,1.7,21.8,7.8,29.8,16.8A55.6,55.6,0,0,1,491-15.2c3.4,20.8-2.5,39.1-13.2,56.4a48.5,48.5,0,0,1-28,21.4C446.9,63.5,443.8,63,440.9,64.1Z"/><path class="cls-13" d="M421.7,41.9c-2.9-1.5-5.1-4-7.1-6.5A60,60,0,0,1,401.5,7.1c-2.1-11.4-.4-22.3,3.4-33,.5-1.4,1.4-1.4,2.7-1s1.4,1.2,1.1,2.4a63.5,63.5,0,0,0-2.4,18.3c.2,9.7,1.6,19.4,5.2,28.5A107.4,107.4,0,0,0,421.7,41.9Z"/><path class="cls-15" d="M417.7,34.9A55.6,55.6,0,0,0,404.3,6.5c-8-8.9-17.7-15-29.8-16.8-10.4-1.4-20.1.1-29.3,5.2A57.7,57.7,0,0,0,336.4,1a54,54,0,0,0-16.1,22.7c-4.7,12.1-4.9,24.6-2.4,37.2a79.6,79.6,0,0,0,18.7,38.4,43.1,43.1,0,0,0,23.3,13.6c1.9.4,1.9.9,1,2.4s-2.8,4.6-4.3,7.1l7.4.8h1.3c1.1,0,2.2-.3,3.3.4a1.6,1.6,0,0,0,2-.1c.6-.7,0-1.3-.3-2l-2.7-7.3c2.9-1.1,6-.6,8.9-1.5a48.1,48.1,0,0,0,28-21.4C415.2,74.1,421.1,55.7,417.7,34.9ZM348.4,92"/><path class="cls-12" d="M367.6,114.2c-.9-1.5.7-1.6,1.2-1.9,12.9-8.3,19.8-20.9,25.1-34.7a68.6,68.6,0,0,0,4.9-27.5c-.6-14.8-5.2-27.9-15.7-38.7-7.9-8.1-16.9-13.5-27.8-15.5-2.3-.5-4.6-.2-6.9-.3s-2.3.4-3.2-.7c9.2-5.1,18.9-6.6,29.3-5.2,12.1,1.8,21.8,7.9,29.8,16.8a55.6,55.6,0,0,1,13.4,28.4c3.4,20.8-2.5,39.2-13.2,56.4a48.1,48.1,0,0,1-28,21.4C373.6,113.6,370.5,113.1,367.6,114.2Z"/><path class="cls-13" d="M348.4,92a22.9,22.9,0,0,1-7.1-6.4,62,62,0,0,1-13.2-28.4c-2-11.3-.3-22.2,3.5-32.9.5-1.5,1.4-1.4,2.7-1.1s1.4,1.2,1.1,2.5A62.8,62.8,0,0,0,333,43.9a82.7,82.7,0,0,0,5.2,28.6A109.9,109.9,0,0,0,348.4,92Z"/><path class="cls-13" d="M334.7,16.4c-.1-1.9.8-2.4,2.4-2.4s2.6,1.1,2.5,2.7a2.3,2.3,0,0,1-2.7,2.3C335.4,18.8,334.4,18.1,334.7,16.4Z"/></g></g></g></svg>