<svg id="SB39_Interactive_Icon_08_F1" xmlns="http://www.w3.org/2000/svg" xmlns:xlink="http://www.w3.org/1999/xlink" viewBox="0 0 718 661"><defs><style>.cls-1{fill:none;}.cls-2{fill:url(#linear-gradient);}.cls-3,.cls-5{fill:#31d0e5;}.cls-10,.cls-11,.cls-3,.cls-9{stroke-miterlimit:10;}.cls-3{stroke-width:6px;stroke:url(#linear-gradient-2);}.cls-4{clip-path:url(#clip-path);}.cls-6{opacity:0.14;}.cls-7{opacity:0.42;}.cls-8{fill:#fff;}.cls-9{fill:#fafef6;stroke:#848484;}.cls-10{fill:#dfe2dc;stroke:#a0a0a0;}.cls-11{fill:#cbcfc7;stroke:#939393;}</style><linearGradient id="linear-gradient" x1="104.06" y1="155.82" x2="602.27" y2="497.19" gradientUnits="userSpaceOnUse"><stop offset="0" stop-color="#9b81cf"/><stop offset="1" stop-color="#3b139b"/></linearGradient><linearGradient id="linear-gradient-2" x1="66.74" y1="330.5" x2="651.26" y2="330.5" gradientUnits="userSpaceOnUse"><stop offset="0" stop-color="#4c1da9"/><stop offset="1" stop-color="#997ece"/></linearGradient><clipPath id="clip-path"><circle class="cls-1" cx="359" cy="330.5" r="286.2"/></clipPath></defs><g id="Layer_1" data-name="Layer 1"><circle class="cls-2" cx="359" cy="330.5" r="301.9"/><circle class="cls-3" cx="359" cy="330.5" r="289.3"/><ellipse class="cls-1" cx="359" cy="330.5" rx="291.7" ry="291.3"/><g class="cls-4"><path class="cls-5" d="M669.4,309.7c0,156.4-138.3,283.2-308.9,283.2S36.6,479.8,36.6,323.4,190,26.5,360.5,26.5,669.4,153.3,669.4,309.7Z"/><ellipse class="cls-6" cx="298.3" cy="652.5" rx="54.7" ry="13.1" transform="translate(-56.8 29.1) rotate(-5.1)"/><ellipse class="cls-6" cx="531.1" cy="660" rx="54.7" ry="13.3" transform="translate(-100.7 95.7) rotate(-9.4)"/><ellipse class="cls-6" cx="216.2" cy="623.5" rx="33" ry="9" transform="translate(-78.7 33.1) rotate(-7.4)"/><g id="_05" data-name="05" class="cls-7"><path class="cls-8" d="M151.7,303.6s2.7-34.4,42.3-14.1-30.7,32.4-63.7,30.5S151.7,303.6,151.7,303.6Z"/><path class="cls-8" d="M217.5,265.6c32.5,11.7,5.9,22.1-19.7,24S185.1,253.8,217.5,265.6Z"/><path class="cls-8" d="M383.9,545s7.1-33.7,43.7-8.4-34.6,28.1-67,21.9S383.9,545,383.9,545Z"/><path class="cls-8" d="M454.1,515.8c30.6,15.9,2.9,22.8-22.7,21.3S423.4,500,454.1,515.8Z"/></g><g id="_005_010" data-name="005,010"><path class="cls-9" d="M534.1,146.5l-274,132.6,82.3,2.8L524.9,154.4,372.6,284.7l84.9,29.4Zm0,0"/><path class="cls-10" d="M372.6,284.7l-2.8,40.7-27.4-43.5L524.9,154.4Zm0,0"/><path class="cls-11" d="M369.8,325.4,407.1,297l-34.5-12.3Zm0,0"/><line class="cls-10" x1="269.5" y1="458.7" x2="432.8" y2="318.4"/><line class="cls-10" x1="129" y1="394.2" x2="285.5" y2="293.2"/><line class="cls-10" x1="210.2" y1="416.7" x2="338.9" y2="322.9"/></g></g></g></svg>