<svg id="SB39_Interactive_Icon_08_F1" xmlns="http://www.w3.org/2000/svg" xmlns:xlink="http://www.w3.org/1999/xlink" viewBox="0 0 718 661"><defs><style>.cls-1{fill:none;}.cls-2{fill:url(#linear-gradient);}.cls-3,.cls-5{fill:#31d0e5;}.cls-10,.cls-11,.cls-3,.cls-9{stroke-miterlimit:10;}.cls-3{stroke-width:6px;stroke:url(#linear-gradient-2);}.cls-4{clip-path:url(#clip-path);}.cls-6{opacity:0.14;}.cls-7{opacity:0.5;}.cls-8{fill:#fff;}.cls-9{fill:#fafef6;stroke:#848484;}.cls-10{fill:#dfe2dc;stroke:#a0a0a0;}.cls-11{fill:#cbcfc7;stroke:#939393;}</style><linearGradient id="linear-gradient" x1="104.06" y1="155.82" x2="602.27" y2="497.19" gradientUnits="userSpaceOnUse"><stop offset="0" stop-color="#9b81cf"/><stop offset="1" stop-color="#3b139b"/></linearGradient><linearGradient id="linear-gradient-2" x1="66.74" y1="330.5" x2="651.26" y2="330.5" gradientUnits="userSpaceOnUse"><stop offset="0" stop-color="#4c1da9"/><stop offset="1" stop-color="#997ece"/></linearGradient><clipPath id="clip-path"><circle class="cls-1" cx="359" cy="330.5" r="286.2"/></clipPath></defs><g id="Layer_1" data-name="Layer 1"><circle class="cls-2" cx="359" cy="330.5" r="301.9"/><circle class="cls-3" cx="359" cy="330.5" r="289.3"/><ellipse class="cls-1" cx="359" cy="330.5" rx="291.7" ry="291.3"/><g class="cls-4"><path class="cls-5" d="M669.4,309.7c0,156.4-138.3,283.2-308.9,283.2S36.6,479.8,36.6,323.4,190,26.5,360.5,26.5,669.4,153.3,669.4,309.7Z"/><ellipse class="cls-6" cx="298.3" cy="652.5" rx="54.7" ry="13.1" transform="translate(-56.8 29.1) rotate(-5.1)"/><ellipse class="cls-6" cx="531.1" cy="660" rx="54.7" ry="13.3" transform="translate(-100.7 95.7) rotate(-9.4)"/><ellipse class="cls-6" cx="216.2" cy="623.5" rx="33" ry="9" transform="translate(-78.7 33.1) rotate(-7.4)"/><g id="_07" data-name="07" class="cls-7"><path class="cls-8" d="M49.4,384.4s2.7-34.4,42.3-14.1S61,402.7,28,400.8,49.4,384.4,49.4,384.4Z"/><path class="cls-8" d="M115.2,346.4c32.5,11.8,5.9,22.2-19.7,24S82.8,334.6,115.2,346.4Z"/><path class="cls-8" d="M281.6,625.9s7.1-33.8,43.8-8.5-34.7,28.1-67.1,22S281.6,625.9,281.6,625.9Z"/><path class="cls-8" d="M351.8,596.7c30.6,15.8,2.9,22.7-22.7,21.2S321.1,580.8,351.8,596.7Z"/></g><g id="_002_007" data-name="002,007"><path class="cls-9" d="M533.1,147.5l-274,132.6,82.3,2.8L523.9,155.4,371.6,285.7l84.9,29.4Zm0,0"/><path class="cls-10" d="M371.6,285.7l-2.8,40.7-27.4-43.5L523.9,155.4Zm0,0"/><path class="cls-11" d="M368.8,326.4,406.1,298l-34.5-12.3Zm0,0"/><line class="cls-10" x1="269.5" y1="459.7" x2="432.8" y2="319.4"/><line class="cls-10" x1="129" y1="395.2" x2="285.5" y2="294.2"/><line class="cls-10" x1="210.2" y1="417.7" x2="338.9" y2="323.9"/></g></g></g></svg>