<svg id="SB39_Interactive_Icon_08_F1" xmlns="http://www.w3.org/2000/svg" xmlns:xlink="http://www.w3.org/1999/xlink" viewBox="0 0 718 661"><defs><style>.cls-1{fill:none;}.cls-2{fill:url(#linear-gradient);}.cls-3,.cls-5{fill:#31d0e5;}.cls-10,.cls-11,.cls-3,.cls-9{stroke-miterlimit:10;}.cls-3{stroke-width:6px;stroke:url(#linear-gradient-2);}.cls-4{clip-path:url(#clip-path);}.cls-6{opacity:0.14;}.cls-7{opacity:0.42;}.cls-8{fill:#fff;}.cls-9{fill:#fafef6;stroke:#848484;}.cls-10{fill:#dfe2dc;stroke:#a0a0a0;}.cls-11{fill:#cbcfc7;stroke:#939393;}</style><linearGradient id="linear-gradient" x1="104.06" y1="155.82" x2="602.27" y2="497.19" gradientUnits="userSpaceOnUse"><stop offset="0" stop-color="#9b81cf"/><stop offset="1" stop-color="#3b139b"/></linearGradient><linearGradient id="linear-gradient-2" x1="66.74" y1="330.5" x2="651.26" y2="330.5" gradientUnits="userSpaceOnUse"><stop offset="0" stop-color="#4c1da9"/><stop offset="1" stop-color="#997ece"/></linearGradient><clipPath id="clip-path"><circle class="cls-1" cx="359" cy="330.5" r="286.2"/></clipPath></defs><g id="Layer_1" data-name="Layer 1"><circle class="cls-2" cx="359" cy="330.5" r="301.9"/><circle class="cls-3" cx="359" cy="330.5" r="289.3"/><ellipse class="cls-1" cx="359" cy="330.5" rx="291.7" ry="291.3"/><g class="cls-4"><path class="cls-5" d="M669.4,309.7c0,156.4-138.3,283.2-308.9,283.2S36.6,479.8,36.6,323.4,190,26.5,360.5,26.5,669.4,153.3,669.4,309.7Z"/><ellipse class="cls-6" cx="298.3" cy="652.5" rx="54.7" ry="13.1" transform="translate(-56.8 29.1) rotate(-5.1)"/><ellipse class="cls-6" cx="531.1" cy="660" rx="54.7" ry="13.3" transform="translate(-100.7 95.7) rotate(-9.4)"/><ellipse class="cls-6" cx="216.2" cy="623.5" rx="33" ry="9" transform="translate(-78.7 33.1) rotate(-7.4)"/><g id="_04" data-name="04" class="cls-7"><path class="cls-8" d="M212.7,237.6s2.7-34.4,42.3-14.1-30.7,32.4-63.7,30.5S212.7,237.6,212.7,237.6Z"/><path class="cls-8" d="M278.5,199.6c32.5,11.7,5.9,22.1-19.7,24S246.1,187.8,278.5,199.6Z"/><path class="cls-8" d="M452.9,486.2s7.1-33.8,43.8-8.5-34.7,28.1-67.1,22S452.9,486.2,452.9,486.2Z"/><path class="cls-8" d="M523.1,457c30.7,15.8,2.9,22.7-22.6,21.2S492.4,441.1,523.1,457Z"/></g><g id="_004_009" data-name="004,009"><path class="cls-9" d="M533.9,145.6,260.2,278.9l82.3,2.6L524.7,153.6l-152,130.7,84.9,29.1Zm0,0"/><path class="cls-10" d="M372.7,284.3,370,324.9l-27.5-43.4L524.7,153.6Zm0,0"/><path class="cls-11" d="M370,324.9l37.2-28.5-34.5-12.1Zm0,0"/><line class="cls-10" x1="269.5" y1="459.7" x2="432.8" y2="319.4"/><line class="cls-10" x1="129" y1="395.2" x2="285.5" y2="294.2"/><line class="cls-10" x1="210.2" y1="417.7" x2="338.9" y2="323.9"/></g></g></g></svg>