<?xml version="1.0" encoding="UTF-8"?>
<svg id="uuid-883cf8ea-361f-415a-b29a-2f5eb9c827db" data-name="Layer 1" xmlns="http://www.w3.org/2000/svg" width="439" height="444" xmlns:xlink="http://www.w3.org/1999/xlink" viewBox="0 0 439 444">
  <defs>
    <style>
      .uuid-7eebe17a-9a61-4ac6-a911-35a47a475572 {
        fill: #31d0e5;
        stroke: url(#uuid-80255191-bd50-434a-98b1-28cfe503d948);
        stroke-width: 6px;
      }

      .uuid-7eebe17a-9a61-4ac6-a911-35a47a475572, .uuid-33fe755a-42f9-4d74-8b7d-879ac66b804d, .uuid-79e374fe-da30-4fd7-b01b-d582c8d8ccca, .uuid-cf3caf14-6afd-4092-9a1a-ffb60e64dd68 {
        stroke-miterlimit: 10;
      }

      .uuid-40349da2-9353-4929-b8a0-20c070025800, .uuid-cf3caf14-6afd-4092-9a1a-ffb60e64dd68 {
        fill: #fff;
      }

      .uuid-c9300baf-f0f8-45e5-9926-399c46d50db9 {
        fill: #d8d8d8;
      }

      .uuid-c7112cea-03d3-4d95-ac0b-559b4e130f45 {
        opacity: .5;
      }

      .uuid-fcabd289-6365-4a54-b8bb-01085f8fe16b {
        fill: url(#uuid-6b8833a5-632c-48fe-8137-316f2296bcbf);
      }

      .uuid-33fe755a-42f9-4d74-8b7d-879ac66b804d, .uuid-79e374fe-da30-4fd7-b01b-d582c8d8ccca {
        fill: none;
      }

      .uuid-33fe755a-42f9-4d74-8b7d-879ac66b804d, .uuid-cf3caf14-6afd-4092-9a1a-ffb60e64dd68 {
        stroke: #afafaf;
      }

      .uuid-afccb351-205e-46e1-8439-eabd4e6cb237 {
        fill: #afafaf;
      }

      .uuid-79e374fe-da30-4fd7-b01b-d582c8d8ccca {
        stroke: #d8d8d8;
      }
    </style>
    <linearGradient id="uuid-6b8833a5-632c-48fe-8137-316f2296bcbf" x1="40.78" y1="99.54" x2="390.04" y2="338.86" gradientTransform="matrix(1, 0, 0, 1, 0, 0)" gradientUnits="userSpaceOnUse">
      <stop offset="0" stop-color="#9b81cf"/>
      <stop offset="1" stop-color="#3b139b"/>
    </linearGradient>
    <linearGradient id="uuid-80255191-bd50-434a-98b1-28cfe503d948" x1="13.71" y1="222" x2="425.29" y2="222" gradientTransform="matrix(1, 0, 0, 1, 0, 0)" gradientUnits="userSpaceOnUse">
      <stop offset="0" stop-color="#4c1da9"/>
      <stop offset="1" stop-color="#997ece"/>
    </linearGradient>
  </defs>
  <g>
    <path class="uuid-c7112cea-03d3-4d95-ac0b-559b4e130f45" d="M432.73,233.24c0-36.23-9.21-70.32-25.42-100.03-35.31-67.72-106.15-113.96-187.81-113.96C102.59,19.25,7.82,114.02,7.82,230.93s94.77,211.68,211.68,211.68c2.97,0,5.93-.08,8.87-.2,113.3-2.59,204.36-95.24,204.36-209.16Z"/>
    <g>
      <circle class="uuid-fcabd289-6365-4a54-b8bb-01085f8fe16b" cx="219.5" cy="222" r="211.68"/>
      <circle class="uuid-7eebe17a-9a61-4ac6-a911-35a47a475572" cx="219.5" cy="222" r="202.78"/>
    </g>
  </g>
  <g>
    <path class="uuid-40349da2-9353-4929-b8a0-20c070025800" d="M64.17,162.89s4.95-22.85,30.6-5.74c25.65,17.1-24.25,19.02-46.91,14.86-22.66-4.16,16.31-9.12,16.31-9.12Z"/>
    <path class="uuid-40349da2-9353-4929-b8a0-20c070025800" d="M113.25,143.15c21.44,10.72,2.05,15.38-15.84,14.37-17.89-1.02-5.61-25.09,15.84-14.37Z"/>
  </g>
  <g>
    <path class="uuid-40349da2-9353-4929-b8a0-20c070025800" d="M341.44,235.4s4.95-22.85,30.6-5.74c25.65,17.1-24.25,19.02-46.91,14.86-22.66-4.16,16.31-9.12,16.31-9.12Z"/>
    <path class="uuid-40349da2-9353-4929-b8a0-20c070025800" d="M390.52,215.66c21.44,10.72,2.05,15.38-15.84,14.37-17.89-1.02-5.61-25.09,15.84-14.37Z"/>
  </g>
  <g>
    <g>
      <path class="uuid-cf3caf14-6afd-4092-9a1a-ffb60e64dd68" d="M61.75,219.22l94.15,88.22s29.5,18.93,99.1-46.17l96.83-173.29-124.2-30.51,31.35,81.76c-2.06,2.84-4.76,25.83-197.23,79.99Z"/>
      <path class="uuid-c9300baf-f0f8-45e5-9926-399c46d50db9" d="M254.53,260.31l96.33-172.03-122.26-29.63,31.07,80.31s12.47,33.03-5.14,121.35Z"/>
    </g>
    <g>
      <g>
        <line class="uuid-79e374fe-da30-4fd7-b01b-d582c8d8ccca" x1="93.04" y1="225.69" x2="171.95" y2="297.46"/>
        <line class="uuid-79e374fe-da30-4fd7-b01b-d582c8d8ccca" x1="107.13" y1="219.38" x2="187.98" y2="292.91"/>
        <line class="uuid-79e374fe-da30-4fd7-b01b-d582c8d8ccca" x1="122.81" y1="215.4" x2="200.93" y2="286.44"/>
        <line class="uuid-79e374fe-da30-4fd7-b01b-d582c8d8ccca" x1="150.3" y1="205.32" x2="222.27" y2="270.76"/>
        <line class="uuid-79e374fe-da30-4fd7-b01b-d582c8d8ccca" x1="163.64" y1="198.65" x2="233.07" y2="263.83"/>
        <line class="uuid-79e374fe-da30-4fd7-b01b-d582c8d8ccca" x1="135.64" y1="210.12" x2="212.29" y2="279.82"/>
        <line class="uuid-79e374fe-da30-4fd7-b01b-d582c8d8ccca" x1="177.78" y1="193.82" x2="246.35" y2="256.17"/>
        <line class="uuid-79e374fe-da30-4fd7-b01b-d582c8d8ccca" x1="191.88" y1="187.51" x2="257.53" y2="247.21"/>
        <line class="uuid-79e374fe-da30-4fd7-b01b-d582c8d8ccca" x1="207.55" y1="183.52" x2="262.02" y2="233.05"/>
        <line class="uuid-79e374fe-da30-4fd7-b01b-d582c8d8ccca" x1="235.04" y1="173.44" x2="274.73" y2="209.53"/>
        <line class="uuid-79e374fe-da30-4fd7-b01b-d582c8d8ccca" x1="248.39" y1="166.77" x2="282.9" y2="196.14"/>
        <line class="uuid-79e374fe-da30-4fd7-b01b-d582c8d8ccca" x1="255.73" y1="157.51" x2="290.25" y2="186.88"/>
        <line class="uuid-79e374fe-da30-4fd7-b01b-d582c8d8ccca" x1="220.39" y1="178.25" x2="267.53" y2="221.11"/>
      </g>
      <path class="uuid-33fe755a-42f9-4d74-8b7d-879ac66b804d" d="M251.36,81.81s78.99,15.78,93.21,17.46"/>
      <path class="uuid-33fe755a-42f9-4d74-8b7d-879ac66b804d" d="M256.09,92.77s69.28,14.31,83.5,15.99"/>
      <path class="uuid-33fe755a-42f9-4d74-8b7d-879ac66b804d" d="M260.57,105.44s58.22,10.03,72.45,11.71"/>
      <path class="uuid-33fe755a-42f9-4d74-8b7d-879ac66b804d" d="M268.17,121.92s9.14,22.8,5.24,46.98l33.19-1.58s21.07-39.81,20.29-37.33c-.24,.76-58.72-8.07-58.72-8.07Z"/>
      <path class="uuid-33fe755a-42f9-4d74-8b7d-879ac66b804d" d="M273.38,181.09s22.36-1.48,24.28-1.84"/>
      <path class="uuid-33fe755a-42f9-4d74-8b7d-879ac66b804d" d="M273.92,192.44s16.31-1.2,18.23-1.55"/>
    </g>
  </g>
  <path class="uuid-afccb351-205e-46e1-8439-eabd4e6cb237" d="M96.01,349.28c63.88,4.52,129.33-17.68,177.47-59.85,7.27-6.21,14.17-13.04,20.6-20.12,1.87-2,4.69-5.04,6.37-7.19l6.12-7.41c1.85-2.16,4.02-5.41,5.77-7.68,1.54-2.13,4.21-5.58,5.61-7.8,1.68-2.62,6.28-9.44,7.91-12.06,3.72-6.35,8.6-14.32,11.83-20.92l4.44-8.54c-1.5,3.04-5.06,10-6.5,12.89-2.4,4.88-6.77,12.02-9.41,16.79-2.29,3.76-6.74,10.4-9.15,14.15l-1.42,1.94c-2.71,3.6-5.79,8.13-8.59,11.61-1.19,1.48-6.58,8.02-7.63,9.32-2.21,2.68-5.76,6.32-8.08,8.93-9.83,10.6-20.76,20.13-32.25,28.92-30.96,23.04-67.52,38.19-105.55,44.54-18.96,3.13-38.4,4.39-57.55,2.48h0Z"/>
  <path class="uuid-afccb351-205e-46e1-8439-eabd4e6cb237" d="M30.23,200.15c15.76,46.14,49.35,87.81,94.85,107.02l6.82,2.75c2.47,.73,8.08,2.78,10.49,3.42,3.32,.79,7.38,2.02,10.7,2.7,7.21,1.48,14.49,2.61,21.83,3.28,2.29,.12,8.79,.51,11.03,.64,5.63-.02,12.81,.11,18.42-.41l7.36-.48-7.35,.6c-5.6,.61-12.79,.6-18.44,.71-2.25-.1-8.71-.39-11.07-.51-7.37-.6-14.69-1.66-21.95-3.08-3.34-.64-7.44-1.84-10.78-2.63-2.38-.66-8.12-2.64-10.56-3.41l-6.87-2.75c-45.77-19.11-79.54-61.22-94.5-107.86h0Z"/>
</svg>