<?xml version="1.0" encoding="UTF-8"?>
<svg id="uuid-213fe355-a78e-4ccb-bf7c-ec212514feb6" data-name="Layer 1" xmlns="http://www.w3.org/2000/svg" width="439" height="444" xmlns:xlink="http://www.w3.org/1999/xlink" viewBox="0 0 439 444">
  <defs>
    <style>
      .uuid-a1149dda-6ecb-44a5-aff5-3e548e321ff4 {
        fill: #969da8;
      }

      .uuid-d23359d6-ef55-4ef6-aa74-c3ba89478087 {
        fill: #767c85;
      }

      .uuid-48ca5ae1-4d77-437a-8a98-af5d7cf808f3 {
        fill: #858c96;
      }

      .uuid-045bcdf7-53c6-4236-a827-9e6f09520716 {
        fill: #6fb738;
      }

      .uuid-5423a90f-3d9b-4b4a-8075-00b920f388e7 {
        fill: #a9b1bf;
      }

      .uuid-9d73e0ef-2ff5-436d-99f7-3a7ed6dcf3a0 {
        fill: #6d7782;
      }

      .uuid-702b498b-8831-435b-9c50-f95e792a4765 {
        fill: #a8b1bd;
      }

      .uuid-c46f60ca-ae7f-433d-9f5c-4cd1c1bc9454 {
        fill: #4e5864;
      }

      .uuid-2df2557a-8028-433a-b2d5-6fdafbb09bf2 {
        opacity: .5;
      }

      .uuid-b9de4020-0e6f-450d-b5ae-54a61a27cb85 {
        fill: #868d96;
      }

      .uuid-f2e09445-195e-4d9b-a79d-31551bc8953e {
        fill: #3db038;
      }

      .uuid-e5f602b7-65f5-4b9a-b00d-b968fe257771 {
        fill: #656e78;
      }

      .uuid-1eb6d388-b4bb-49c2-b6e9-7871af799ff1 {
        fill: #778291;
      }

      .uuid-638c3667-c6e9-40d8-97fb-c40c9d82348c {
        fill: #444c57;
      }

      .uuid-759e5d22-0dcc-461d-a1c2-ba553cb4b66f {
        fill: url(#uuid-b3a86981-5e15-462b-8ae9-28b74f6e9ef1);
      }

      .uuid-51c71a83-02bd-49ea-9603-e4910219e457 {
        fill: #aab3bf;
      }

      .uuid-98573b03-25cb-4460-9ff5-d1f4823432aa {
        fill: #b1bac7;
      }

      .uuid-f656cef4-8ef8-4e0f-9f3d-65552325168f {
        fill: #9ba3ae;
      }

      .uuid-5371b904-cb45-4807-befb-b7dbb943f8b8 {
        fill: #525b69;
      }

      .uuid-d3c7d28f-c4c8-4864-a94b-ccae26fb63df {
        fill: #5e6770;
      }

      .uuid-61037133-4708-4bea-aca1-84e0d66ec512 {
        fill: url(#uuid-dd614dfb-8d7a-4dfd-a417-e2e036c909d8);
      }

      .uuid-7f421647-da3c-467e-ae64-7bf8b9e3e9d6 {
        fill: #7e888f;
      }

      .uuid-4bac83f1-ef27-47a8-b21f-0f57e9142fec {
        fill: #868e96;
      }

      .uuid-6670e98c-66b4-487b-87fa-4056685d9bb1 {
        fill: #c1c9d9;
      }

      .uuid-7da57d7a-11be-491c-805e-8544abdf5cd7 {
        fill: #3f4953;
      }

      .uuid-9e9028cd-5b0e-4728-b441-fde8a2db501f {
        fill: #56606e;
      }

      .uuid-6dccd293-6f96-4bea-ae4b-001f603aaa2c {
        fill: #e2a333;
        stroke: url(#uuid-823ea460-7bf6-4d0d-882f-17ed388d9245);
        stroke-miterlimit: 10;
        stroke-width: 6px;
      }

      .uuid-0e5cbc4c-7ba1-4e77-93bb-27c7728738f2 {
        fill: #5a6573;
      }

      .uuid-0ce1ec4e-76bf-4bda-8ae5-57dcd9333a36 {
        fill: #667282;
      }

      .uuid-4ad47dd4-1252-4e5f-88b9-e6e9306f8f41 {
        fill: #d0dbeb;
      }

      .uuid-0839f10f-a9c5-4c95-8181-d755832a53ce {
        fill: none;
      }

      .uuid-84b1a743-97e1-4a90-9d90-08147b232823 {
        fill: #8e96a1;
      }

      .uuid-9f9b9aaa-f111-4f12-a05e-c0ff21f1bd53 {
        clip-path: url(#uuid-071f7186-6ae3-490b-8c96-b120e351ca07);
      }

      .uuid-6aa5869a-a804-4c79-b1f5-db2571502c08 {
        fill: #7a8391;
      }

      .uuid-54f56f68-d036-46c2-8f21-0647ad8e2d7a {
        fill: #ccd7e6;
      }

      .uuid-4734a1b4-547b-4ca0-8959-2c8c2d16f56e {
        fill: #545e6b;
      }

      .uuid-a6d17591-d76a-45aa-9249-9b11814bfa15 {
        fill: #a4acba;
      }

      .uuid-553de421-92d2-45d1-a212-4565cd82cc90 {
        fill: #828891;
      }

      .uuid-c236cad9-ec2b-455e-b9e2-ca404252a3cc {
        fill: #a6aeba;
      }

      .uuid-51b7b676-a656-4684-8117-3359ebef8d28 {
        fill: #9199a3;
      }

      .uuid-5d01f605-76e2-46d9-9fde-9c94a25dd888 {
        fill: #606b7a;
      }

      .uuid-4572e83a-4f65-4083-8cdf-5b7e16f8630e {
        fill: #5e6978;
      }

      .uuid-e5a2df7e-bec5-42ee-a4aa-261a2a513809 {
        fill: #c0c9d9;
      }

      .uuid-65bccb08-89ff-4bff-85e2-aff7de9f98a7 {
        fill: #69727d;
      }

      .uuid-9b9c91c7-1081-4838-be07-fe8a892a1d93 {
        fill: #4e5a66;
      }

      .uuid-11146057-e030-4dce-afaf-8ea854ec0807 {
        opacity: .25;
      }

      .uuid-19081de7-06ab-46b4-b03a-ad38166067fa {
        fill: #8d949e;
      }

      .uuid-ac50549e-755a-41d0-a8fe-a04236044c82 {
        fill: #848d99;
      }

      .uuid-519f10b1-2828-4cff-bae5-a873209ecda6 {
        fill: #949ba6;
      }

      .uuid-b5d93036-9352-4f3a-bdce-a9256cb2698c {
        fill: #b8c0cf;
      }

      .uuid-5377055f-f997-4671-83aa-63c270a2f1a9 {
        fill: #586370;
      }
    </style>
    <linearGradient id="uuid-b3a86981-5e15-462b-8ae9-28b74f6e9ef1" x1="40.78" y1="99.54" x2="390.04" y2="338.86" gradientTransform="matrix(1, 0, 0, 1, 0, 0)" gradientUnits="userSpaceOnUse">
      <stop offset="0" stop-color="#9b81cf"/>
      <stop offset="1" stop-color="#3b139b"/>
    </linearGradient>
    <linearGradient id="uuid-823ea460-7bf6-4d0d-882f-17ed388d9245" x1="13.71" y1="222" x2="425.29" y2="222" gradientTransform="matrix(1, 0, 0, 1, 0, 0)" gradientUnits="userSpaceOnUse">
      <stop offset="0" stop-color="#4c1da9"/>
      <stop offset="1" stop-color="#997ece"/>
    </linearGradient>
    <clipPath id="uuid-071f7186-6ae3-490b-8c96-b120e351ca07">
      <ellipse class="uuid-0839f10f-a9c5-4c95-8181-d755832a53ce" cx="219.5" cy="222" rx="200.5" ry="200"/>
    </clipPath>
    <linearGradient id="uuid-dd614dfb-8d7a-4dfd-a417-e2e036c909d8" x1="204.66" y1="-152.89" x2="203.87" y2="317.42" gradientTransform="matrix(1, 0, 0, 1, 0, 0)" gradientUnits="userSpaceOnUse">
      <stop offset=".14" stop-color="#a2a2a5"/>
      <stop offset=".15" stop-color="#a2a5a9"/>
      <stop offset=".21" stop-color="#a8bcc3"/>
      <stop offset=".28" stop-color="#adcfd9"/>
      <stop offset=".36" stop-color="#b0ddea"/>
      <stop offset=".46" stop-color="#b3e7f6"/>
      <stop offset=".61" stop-color="#b4edfd"/>
      <stop offset="1" stop-color="#b5efff"/>
    </linearGradient>
  </defs>
  <g>
    <path class="uuid-2df2557a-8028-433a-b2d5-6fdafbb09bf2" d="M432.73,233.24c0-36.23-9.21-70.32-25.42-100.03-35.31-67.72-106.15-113.96-187.81-113.96C102.59,19.25,7.82,114.02,7.82,230.93s94.77,211.68,211.68,211.68c2.97,0,5.93-.08,8.87-.2,113.3-2.59,204.36-95.24,204.36-209.16Z"/>
    <g>
      <circle class="uuid-759e5d22-0dcc-461d-a1c2-ba553cb4b66f" cx="219.5" cy="222" r="211.68"/>
      <circle class="uuid-6dccd293-6f96-4bea-ae4b-001f603aaa2c" cx="219.5" cy="222" r="202.78"/>
    </g>
  </g>
  <g class="uuid-9f9b9aaa-f111-4f12-a05e-c0ff21f1bd53">
    <g>
      <rect class="uuid-61037133-4708-4bea-aca1-84e0d66ec512" x="-60.77" y="-26.92" width="529.96" height="281.16"/>
      <path class="uuid-f2e09445-195e-4d9b-a79d-31551bc8953e" d="M504.69,241.67c-1.25-4.83-5.77-8.4-11.15-8.4-1.19,0-2.33,.17-3.4,.49,.51-.94,.8-2,.8-3.14,0-3.72-3.12-6.74-6.98-6.74-.99,0-1.94,.2-2.79,.56-.15-6.01-5.24-10.83-11.49-10.83-4.54,0-8.47,2.54-10.33,6.24-1.99-2.36-5.02-3.87-8.42-3.87-6,0-10.86,4.7-10.86,10.5,0,.75,.08,1.49,.24,2.2-1.07-.64-2.32-1.01-3.67-1.01-2.34,0-4.41,1.11-5.68,2.82,.27-1.02,.41-2.09,.41-3.2,0-7.16-6.01-12.97-13.42-12.97-2.38,0-4.61,.6-6.55,1.65-.57-3.17-3.43-5.57-6.87-5.57-1.95,0-3.7,.77-4.97,2.01-3.44-3.6-8.36-5.87-13.83-5.87-6.12,0-11.56,2.83-14.99,7.21-1.23-1.06-2.85-1.7-4.63-1.7-3.85,0-6.97,3.02-6.97,6.74,0,.4,.04,.78,.1,1.16-1.66-1.86-4.11-3.04-6.85-3.04-4.16,0-7.66,2.71-8.72,6.41-1.29-3.6-4.83-6.19-8.99-6.19-1.56,0-3.03,.36-4.33,1.01,.65-.86,1.03-1.92,1.03-3.07,0-2.89-2.42-5.22-5.41-5.22-1.37,0-2.62,.5-3.57,1.31-1.62-2.37-4.4-3.93-7.55-3.93-2.28,0-4.36,.82-5.95,2.16-4.27-3.55-9.83-5.71-15.91-5.71-9.77,0-18.2,5.55-22.1,13.56-1.63-1.55-3.87-2.51-6.34-2.51-5,0-9.05,3.91-9.05,8.74,0,1.36,.32,2.64,.89,3.79-1.74-1.03-3.78-1.62-5.96-1.62-5.16,0-9.53,3.31-10.95,7.85-1.4-1.98-3.75-3.27-6.42-3.27-2.04,0-3.89,.76-5.27,2-2.02-5.56-7.5-9.55-13.95-9.55-5.74,0-10.71,3.16-13.16,7.77-1.6-1.19-3.61-1.9-5.79-1.9-3.87,0-7.19,2.23-8.68,5.43-1.27-.46-2.64-.72-4.07-.72-1.19,0-2.33,.17-3.4,.49,.51-.94,.8-2,.8-3.14,0-3.72-3.12-6.74-6.98-6.74-.99,0-1.94,.2-2.79,.56-.15-6.01-5.24-10.83-11.49-10.83-4.54,0-8.47,2.54-10.33,6.24-1.99-2.36-5.02-3.87-8.42-3.87-6,0-10.86,4.7-10.86,10.5,0,.75,.08,1.49,.24,2.2-1.07-.64-2.32-1.01-3.67-1.01-2.34,0-4.41,1.11-5.68,2.82,.27-1.02,.41-2.09,.41-3.2,0-7.16-6.01-12.97-13.42-12.97-2.38,0-4.61,.6-6.55,1.65-.57-3.17-3.43-5.57-6.87-5.57-1.95,0-3.7,.77-4.97,2.01-3.44-3.6-8.36-5.87-13.83-5.87-6.12,0-11.56,2.83-14.99,7.21-1.23-1.06-2.85-1.7-4.63-1.7-3.85,0-6.97,3.02-6.97,6.74,0,.4,.04,.78,.1,1.16-1.66-1.86-4.11-3.04-6.85-3.04-4.16,0-7.66,2.71-8.72,6.41-1.29-3.6-4.83-6.19-8.99-6.19-1.56,0-3.03,.36-4.33,1.01,.65-.86,1.03-1.92,1.03-3.07,0-2.89-2.42-5.22-5.41-5.22-1.37,0-2.62,.5-3.58,1.31-1.62-2.37-4.4-3.93-7.55-3.93-2.28,0-4.36,.82-5.95,2.16-4.27-3.55-9.83-5.71-15.91-5.71-9.77,0-18.2,5.55-22.1,13.56-1.63-1.55-3.87-2.51-6.34-2.51-5,0-9.05,3.91-9.05,8.74,0,1.36,.32,2.64,.89,3.79-1.74-1.03-3.78-1.62-5.96-1.62-5.16,0-9.53,3.31-10.95,7.85-1.4-1.98-3.75-3.27-6.42-3.27-2.04,0-3.89,.76-5.27,2-2.02-5.56-7.5-9.55-13.95-9.55-5.3,0-9.95,2.7-12.56,6.75v43.12H512.69v-36.97c-3.73,.33-6.82,2.77-8.01,6.08Z"/>
      <rect class="uuid-045bcdf7-53c6-4236-a827-9e6f09520716" x="-110.13" y="248.28" width="607.99" height="204.12"/>
    </g>
    <g>
      <path class="uuid-11146057-e030-4dce-afaf-8ea854ec0807" d="M319.43,274.51l-.71-12.61,1.22-6.95-1.6-4.18h0l-1.38-3.6-4.35-1.69h0l-4.28-1.66-8.22-4.43-5.03-3.33h-2.73l-.64,.51c-4.77-1.13-10.01-1.34-15.69-.54-.38,.05-.78,.12-1.18,.19v-5.83l-4.26-35.86h0l-4.63-3.32-2.9-2.07,1.37-8.58v-13.36l-9.73,5.96,9.73-5.96s-4.21-8.78-4.54-9.77c-.33-.99-14.28,0-17.3-.17-1.45-.08-5.26,.92-8.83,1.99-.1,.03-.21,.06-.31,.09-.34,.1-.68,.21-1.01,.31-.34,.1-.67,.21-1,.31-2.86,.89-5.13,1.67-5.15,1.67h0l-3.8,2.61-5.48,16.33,.07,1.49-6.23,1.11h0l-29.24,14h0l-5.24,19.99-10.51-1.43h-11.43l-7.39-2.23-10.29-1.4-17.36,12.99-3.21,8.7-2.4,17.1-4.41-2.75-12.04,2.09-8.36,8.39-13.89,.99-2.43,5.28-1.25,3.95v4.13l2.02,3.57,2.94,5.3,.58,.46-.46,2.79,.86,5.97-.86,10.33,3.75,7.03,4.15,4.49,11.49,1.78,13.22-1.78,29.53,2.33,14.94-1.26-2.4,5.68,.26,2.52-1.14,3.12,.53,1.78,.26,2.15,2.54,.47,7.98,.84,2.28-.06,4.12-.11,6.31,.37,3.9,.23,7.93-.44,5.15-1.04,2.43-.49-1.64,6.56,8.4,5.39h19.59l6.09-.4,18.66-.32,15.04-.63,22.17-1.71,10.8-.72,9.09-1.62,20.29-11.14-2.79-49.9Zm-58.19-67.74l-4.59,2.36h0l4.59-2.36,3.37-4.41-3.37,4.41Z"/>
      <g>
        <g>
          <path class="uuid-5d01f605-76e2-46d9-9fde-9c94a25dd888" d="M182.78,235.63l-11.26,13.23-7.71,7.31-4.6,14.43,1.85,1.96,1.71,3.85v15.39s-.86,2.48-1.71,3.07c-.86,.59-3.43,.88-3.43,.88l11.33,10,10.89-54.27,2.94-15.85Z"/>
          <polygon class="uuid-9e9028cd-5b0e-4728-b441-fde8a2db501f" points="153.76 295.91 136.4 296.7 122.79 301.4 111.73 305.75 141.26 308.07 168.95 305.75 157.62 295.75 153.76 295.91"/>
          <polygon class="uuid-48ca5ae1-4d77-437a-8a98-af5d7cf808f3" points="115.43 300.73 121.72 291.8 111.73 289 104.84 283.89 97.01 279.02 93.79 276.41 87.01 268.92 87.01 268.92 81.51 263.43 79.11 277.92 79.97 283.89 79.11 294.22 82.86 301.25 87.01 305.75 98.51 307.52 111.73 305.75 115.43 300.73 115.43 300.73"/>
          <polygon class="uuid-f656cef4-8ef8-4e0f-9f3d-65552325168f" points="133.59 221.52 143.38 221.13 154.29 226.54 154.29 226.54 156.09 227.35 164.57 229.84 182.62 234.48 183.09 216.8 183.09 210.55 168.48 208.57 157.05 208.57 149.66 206.33 139.37 204.93 122.02 217.92 133.59 221.52"/>
          <polygon class="uuid-51b7b676-a656-4684-8117-3359ebef8d28" points="183.37 234.83 195.52 227.65 201.48 223.99 197.2 219.15 183.09 210.55 183.09 216.8 183.37 234.83"/>
          <path class="uuid-b9de4020-0e6f-450d-b5ae-54a61a27cb85" d="M201.48,223.99l-5.97,3.66h0l-12.14,7.79,2.18,10.4,5.25,22.55-3.2-13.76,3.61,13.48h0l1.5-1.03c.18-.13,5.34-4.13,5.34-4.13l8.47,.48h.75l1.5-18.46-7.29-20.99Z"/>
          <polygon class="uuid-553de421-92d2-45d1-a212-4565cd82cc90" points="198.4 263.68 192.71 267.08 192.71 267.08 191.21 268.11 190.37 281.07 190.81 268.39 189.52 305.75 201.48 304.11 207.27 263.43 206.52 263.43 198.4 263.68"/>
          <polygon class="uuid-19081de7-06ab-46b4-b03a-ad38166067fa" points="122.79 301.4 136.05 295.45 153.76 295.91 153.76 295.91 157.62 295.75 156.09 280.37 147.05 285.29 135.48 289.03 122.02 292.23 115.43 300.73 111.73 305.75 122.79 301.4 122.79 301.4"/>
          <polygon class="uuid-f656cef4-8ef8-4e0f-9f3d-65552325168f" points="94.15 275.28 96.86 277.55 104.84 283.89 104.84 283.89 111.73 289 122.02 291.35 135.48 289.03 147.05 285.29 156.09 280.37 140.34 270.5 133.63 260.43 118.8 252.6 116.23 244.97 93.9 253.78 81.51 263.43 87.01 268.92 94.15 275.28"/>
          <polygon class="uuid-5d01f605-76e2-46d9-9fde-9c94a25dd888" points="182.82 235.42 164.56 229.84 164.57 229.84 156.09 227.35 140.34 270.5 144.86 267.08 149.66 268.79 157.62 268.92 159.2 270.6 163.81 256.17 171.52 248.86 182.78 235.63 182.82 235.42"/>
          <polygon class="uuid-5d01f605-76e2-46d9-9fde-9c94a25dd888" points="133.43 221.86 125.83 219.11 133.59 221.52 122.02 217.92 118.8 226.62 116.23 244.97 118.8 252.6 133.43 221.86"/>
          <polygon class="uuid-0ce1ec4e-76bf-4bda-8ae5-57dcd9333a36" points="143.11 222.02 142.71 221.86 133.43 221.86 133.43 221.86 118.8 252.6 133.63 260.43 143.11 222.02"/>
          <polygon class="uuid-4572e83a-4f65-4083-8cdf-5b7e16f8630e" points="156.09 227.35 154.29 226.54 143.11 222.02 133.63 260.43 140.34 270.5 156.09 227.35"/>
          <polygon class="uuid-4572e83a-4f65-4083-8cdf-5b7e16f8630e" points="185.55 245.83 185.55 245.83 183.26 236.54 182.74 244.77 182.74 244.77 180.52 303.68 189.52 305.75 190.81 268.39 185.55 245.83"/>
          <polygon class="uuid-0ce1ec4e-76bf-4bda-8ae5-57dcd9333a36" points="183.02 235.88 179.84 251.48 179.84 251.47 168.95 305.75 180.52 303.68 182.74 244.77 183.02 235.88"/>
          <polygon class="uuid-4ad47dd4-1252-4e5f-88b9-e6e9306f8f41" points="122.02 291.35 111.73 289 121.72 291.8 115.43 300.73 115.43 300.73 122.02 292.23 135.48 289.03 122.02 291.35"/>
          <polygon class="uuid-4ad47dd4-1252-4e5f-88b9-e6e9306f8f41" points="96.86 277.55 94.15 275.28 87.01 268.92 87.01 268.92 93.79 276.41 97.01 279.02 104.84 283.89 104.84 283.89 96.86 277.55"/>
          <polygon class="uuid-4ad47dd4-1252-4e5f-88b9-e6e9306f8f41" points="142.71 221.86 143.11 222.02 154.29 226.54 154.29 226.54 143.38 221.13 133.59 221.52 125.83 219.11 133.43 221.86 133.43 221.86 142.71 221.86"/>
          <polygon class="uuid-4ad47dd4-1252-4e5f-88b9-e6e9306f8f41" points="183.09 216.8 182.62 234.48 164.57 229.84 164.56 229.84 182.82 235.42 182.78 235.63 179.84 251.47 179.84 251.48 183.02 235.88 182.74 244.77 182.74 244.77 183.26 236.54 185.55 245.83 185.55 245.83 183.37 235.43 195.52 227.65 195.52 227.65 183.37 234.83 183.09 216.8"/>
          <polygon class="uuid-638c3667-c6e9-40d8-97fb-c40c9d82348c" points="136.05 295.45 122.79 301.4 122.79 301.4 136.4 296.7 153.76 295.91 153.76 295.91 136.05 295.45"/>
          <path class="uuid-4ad47dd4-1252-4e5f-88b9-e6e9306f8f41" d="M198.4,263.68l8.12-.25-8.47-.48s-5.16,4.01-5.34,4.13h0l5.68-3.4Z"/>
          <polygon class="uuid-4ad47dd4-1252-4e5f-88b9-e6e9306f8f41" points="191.21 268.11 191.21 268.11 187.6 254.63 190.81 268.39 190.37 281.07 191.21 268.11"/>
          <path class="uuid-0e5cbc4c-7ba1-4e77-93bb-27c7728738f2" d="M149.66,268.79l-4.8-1.71-4.52,3.42,15.75,9.87,1.53,15.38s2.57-.29,3.43-.88c.86-.59,1.71-3.07,1.71-3.07v-15.39l-1.71-3.85-1.85-1.96-1.58-1.68-7.96-.13Z"/>
        </g>
        <g>
          <polygon class="uuid-ac50549e-755a-41d0-a8fe-a04236044c82" points="194.97 282.39 196.68 271.91 196.68 271.91 197.34 264.55 199.13 231.11 190.32 215.38 189.76 214.49 184.22 190 177.41 216.02 175.71 233.52 171.87 251.89 168.47 268.73 168.47 287.97 176.71 306.8 183.98 297.89 194.97 282.39"/>
          <path class="uuid-98573b03-25cb-4460-9ff5-d1f4823432aa" d="M215.44,182.74h0l4.48,14.26,24.03,8.84,4.43,1.22,10.88-5.07,4.59-2.36,3.37-4.41,5.99-7.84h0l-4.63-3.32c-1.04,.52-1.97,.91-1.97,.91l-4.52-2.23-5.68-2.24h-17.35l-6.04-1.68-2.86-5.8-16.7,2.98h0l1.98,6.74Z"/>
          <polygon class="uuid-4572e83a-4f65-4083-8cdf-5b7e16f8630e" points="246.47 277.18 229.93 277.18 211.4 280.83 208.54 281.61 202.21 282.58 202.21 282.58 195.63 284.47 183.98 297.89 183.98 297.89 176.71 306.8 195.63 309.4 241.04 309.4 246.47 277.18 246.47 277.18"/>
          <polygon class="uuid-9e9028cd-5b0e-4728-b441-fde8a2db501f" points="273.22 244.89 260.87 267.41 246.47 277.18 241.04 309.4 254.91 303.71 265.56 293.22 273.22 280.1 273.22 258.23 277.48 243.36 277.48 223.24 273.22 244.89"/>
          <path class="uuid-702b498b-8831-435b-9c50-f95e792a4765" d="M190.32,215.38h0l10.19,14.53,6.26-10.17h0l.32-.56h0l11.91-22.18-3.55-14.26-1.98-6.74h0l-29.24,14h0l5.54,24.49,.56,.89Zm12.64-22.65l-5.73,16.57-.02,.05,.02-.05c.36-1.09,4.7-17.01,4.7-17.01l7.85-12.57-6.81,13.01Z"/>
          <polygon class="uuid-1eb6d388-b4bb-49c2-b6e9-7871af799ff1" points="230.21 275.72 246.71 275.72 250.2 234.63 252.14 219.74 248.17 207.82 243.85 205.81 243.85 205.81 219.63 197.58 207.09 219.18 206.77 219.74 201.04 231.55 197.34 264.55 197.34 264.55 196.68 271.91 196.15 282.58 202.21 282.58 208.54 281.61 211.4 280.83 211.4 280.83 230.21 275.72"/>
          <path class="uuid-65bccb08-89ff-4bff-85e2-aff7de9f98a7" d="M267.23,195.21l-3.37,4.41-4.59,2.36-10.31,5.7,3.19,12.06-1.94,14.89-3.49,41.09,14.16-8.31,12.35-22.52,4.26-21.65-4.26-35.86h0l-5.99,7.83Zm-12.42,62.78c.41,.71-.58,3.13-.58,3.13l-2.56,10.14-2.29,.65s1.75-8.22,1.75-8.73,.24-4.52,.62-4.76,1.58-8.09,1.58-8.09l2.06,.56s-.98,6.38-.57,7.09Z"/>
          <polygon class="uuid-4ad47dd4-1252-4e5f-88b9-e6e9306f8f41" points="243.85 205.81 243.95 205.83 219.92 197 215.44 182.74 215.44 182.74 219 197 207.09 219.18 207.09 219.18 219.63 197.58 243.85 205.81"/>
          <polygon class="uuid-4ad47dd4-1252-4e5f-88b9-e6e9306f8f41" points="243.85 205.81 243.85 205.81 248.17 207.82 252.14 219.74 248.95 207.68 259.26 201.98 259.26 201.98 248.38 207.06 243.95 205.83 243.85 205.81"/>
          <polygon class="uuid-4ad47dd4-1252-4e5f-88b9-e6e9306f8f41" points="201.04 231.55 206.77 219.74 206.77 219.74 200.51 229.91 190.32 215.38 190.32 215.38 199.13 231.11 197.34 264.55 197.34 264.55 201.04 231.55"/>
          <polygon class="uuid-4ad47dd4-1252-4e5f-88b9-e6e9306f8f41" points="196.68 271.91 196.68 271.91 194.97 282.39 183.98 297.89 183.98 297.89 195.63 284.47 202.21 282.58 202.21 282.58 196.15 282.58 196.68 271.91"/>
          <path class="uuid-4ad47dd4-1252-4e5f-88b9-e6e9306f8f41" d="M197.23,209.31l-.02,.05,.02-.05Z"/>
          <path class="uuid-4ad47dd4-1252-4e5f-88b9-e6e9306f8f41" d="M197.23,209.31l5.73-16.57,6.81-13.01-7.85,12.57s-4.34,15.92-4.7,17.01Z"/>
          <polygon class="uuid-5371b904-cb45-4807-befb-b7dbb943f8b8" points="230.21 275.72 211.4 280.83 211.4 280.83 229.93 277.18 246.47 277.18 246.47 277.18 260.87 267.41 246.71 275.72 230.21 275.72"/>
          <path class="uuid-c236cad9-ec2b-455e-b9e2-ca404252a3cc" d="M239.07,180.5h17.35l5.68,2.24,4.52,2.23s.92-.39,1.97-.91l-13.68-9.8-21.8-1.75-2.95,.52,2.86,5.8,6.04,1.68Z"/>
          <path class="uuid-e5f602b7-65f5-4b9a-b00d-b968fe257771" d="M253.32,250.33s-1.21,7.85-1.58,8.09-.62,4.25-.62,4.76-1.75,8.73-1.75,8.73l2.29-.65,2.56-10.14s.99-2.42,.58-3.13c-.41-.71,.57-7.09,.57-7.09l-2.06-.56Z"/>
        </g>
        <g>
          <polygon class="uuid-5d01f605-76e2-46d9-9fde-9c94a25dd888" points="193.92 322.33 198.93 321.31 188.76 323.37 193.92 322.33"/>
          <polygon class="uuid-5d01f605-76e2-46d9-9fde-9c94a25dd888" points="159.8 303.69 156.77 305.46 159.37 303.94 159.8 303.69"/>
          <path class="uuid-5d01f605-76e2-46d9-9fde-9c94a25dd888" d="M182.1,320.85c.09-.19,.44-.84,.44-.84l.64-1.2,.24-.85,.59-1.05,.37-.82,.61-.89,.96-1.78,1.05-2.34,.96-.84v-1.73h-1.1l-3.05,.11-4.08-.7-2.7-.02-4.43-.81-1.02-.24h0l-2.57-.5-4.63,.13-2.39,.12,1.14,1.92-.12,3.54,1.17,4.2-.93,3.34,.93,2.28v1.53l2.28-.06,1.11-1.94,.99-2.96,3.02,.78s.9,2.25,1.02,2.35c.12,.11,1.76,1.88,1.76,1.88l-3.78-.22,6.31,.37,3.9,.23s.48-1.33,.53-1.61c.05-.28,.65-1.17,.74-1.36Z"/>
          <polygon class="uuid-5d01f605-76e2-46d9-9fde-9c94a25dd888" points="203.84 300.7 203.87 300.74 200.16 301.79 197.7 303.2 196.3 304.35 193.71 305.37 193.29 308.5 193.91 310.61 194.2 311.35 197.64 312.27 200.95 314.41 203.84 317.37 205.09 313.08 206.88 309.29 207.34 305.33 203.84 300.7"/>
          <polygon class="uuid-f656cef4-8ef8-4e0f-9f3d-65552325168f" points="172.55 303.23 171.02 304.08 170.65 304.32 169.39 306.19 171.62 306.82 172.64 307.06 177.49 307.69 180.13 307.69 184.03 308.43 186.88 308.5 187.97 308.5 190.03 306.84 191.51 306.06 193.41 305.37 188.06 305.53 184.48 304.71 184.48 304.71 181.16 304.03 177.49 302.63 177.49 302.63 176.23 302.18 174.92 302.53 172.55 303.23"/>
          <polygon class="uuid-519f10b1-2828-4cff-bae5-a873209ecda6" points="164.42 306.46 164.42 306.46 168.93 306.1 170.65 304.32 171.02 304.08 171.02 304.08 172.17 303.2 167.13 302.38 172.64 303.07 174.92 302.53 174.92 302.53 176.23 302.18 169.43 301.29 164.92 300.7 162.76 301.96 159.8 303.69 159.37 303.94 156.77 305.46 162.03 306.58 164.42 306.46"/>
          <path class="uuid-5377055f-f997-4671-83aa-63c270a2f1a9" d="M197.64,312.27l-3.45-.92-.29-.74h0l-.92-2.11,.59-3.12-2.08,.69-1.48,.78-2.06,1.65v1.73l-.96,.84-1.05,2.34-.96,1.78-.61,.89-.37,.82-.59,1.05-.24,.85-.64,1.2s-.35,.65-.44,.84c-.09,.19-.69,1.08-.74,1.36-.05,.28-.53,1.61-.53,1.61l7.93-.44,10.17-2.06,4.91-3.94-2.89-2.96-3.3-2.14Z"/>
          <polygon class="uuid-5377055f-f997-4671-83aa-63c270a2f1a9" points="163.29 319.57 164.22 316.23 163.06 312.04 163.17 308.5 162.03 306.58 156.77 305.46 153.79 312.5 154.06 315.02 152.92 318.13 153.44 319.91 153.71 322.06 156.25 322.53 164.22 323.37 164.22 321.84 163.29 319.57"/>
          <polygon class="uuid-702b498b-8831-435b-9c50-f95e792a4765" points="181.36 303.9 184.48 304.71 188.06 305.53 193.67 305.29 196.3 304.35 197.7 303.2 200.16 301.79 203.55 300.72 198.72 300 203.84 300.7 192.27 299.13 188.76 300.7 185.37 300.98 180.12 300.7 176.23 302.18 177.49 302.63 181.36 303.9"/>
          <polygon class="uuid-4ad47dd4-1252-4e5f-88b9-e6e9306f8f41" points="193.67 305.29 188.06 305.53 193.41 305.37 191.51 306.06 193.59 305.37 192.99 308.5 193.91 310.61 193.91 310.61 193.29 308.5 193.71 305.37 196.3 304.35 193.67 305.29"/>
          <polygon class="uuid-4ad47dd4-1252-4e5f-88b9-e6e9306f8f41" points="177.49 302.63 177.49 302.63 181.16 304.03 184.48 304.71 184.48 304.71 181.36 303.9 177.49 302.63"/>
          <polygon class="uuid-4ad47dd4-1252-4e5f-88b9-e6e9306f8f41" points="180.13 307.69 177.49 307.69 172.64 307.06 177.06 307.88 179.76 307.9 183.83 308.6 186.88 308.5 184.03 308.43 180.13 307.69"/>
          <polygon class="uuid-4ad47dd4-1252-4e5f-88b9-e6e9306f8f41" points="170.65 304.32 168.93 306.1 164.42 306.46 164.42 306.46 169.05 306.33 171.62 306.82 171.62 306.82 169.39 306.19 170.65 304.32"/>
          <polygon class="uuid-4ad47dd4-1252-4e5f-88b9-e6e9306f8f41" points="203.55 300.72 200.16 301.79 203.87 300.74 203.84 300.7 198.72 300 203.55 300.72"/>
          <polygon class="uuid-4ad47dd4-1252-4e5f-88b9-e6e9306f8f41" points="174.92 302.53 174.92 302.53 172.64 303.07 167.13 302.38 172.17 303.2 171.02 304.08 171.02 304.08 172.55 303.23 174.92 302.53"/>
          <path class="uuid-9e9028cd-5b0e-4728-b441-fde8a2db501f" d="M172.64,321.55c-.12-.11-1.02-2.35-1.02-2.35l-.08,.02-2.89-.75-.53,1.41,.49-1.46-.99,2.96-1.11,1.94h0l4.12-.11,3.78,.22s-1.64-1.78-1.76-1.88Z"/>
          <polygon class="uuid-4ad47dd4-1252-4e5f-88b9-e6e9306f8f41" points="168.65 318.46 171.54 319.21 171.59 319.19 171.62 319.19 168.61 318.41 168.12 319.88 168.65 318.46"/>
          <polygon class="uuid-4ad47dd4-1252-4e5f-88b9-e6e9306f8f41" points="171.54 319.21 171.62 319.19 171.59 319.19 171.54 319.21"/>
        </g>
        <g>
          <polygon class="uuid-ac50549e-755a-41d0-a8fe-a04236044c82" points="223.97 177.84 226.72 172.73 231.35 166.95 231.2 166.8 229.48 157.1 228.91 154.47 228.91 154.47 228.91 154.47 225.11 157.08 219.63 173.41 220.75 174.63 223.97 177.84"/>
          <path class="uuid-702b498b-8831-435b-9c50-f95e792a4765" d="M229.48,157.1v-.02l2.38,9.36,7.07,8.11h0l1.76,1.91h0l3.4,3.46,8.39-9.08h0l3.75-4.17,1.09-.67,9.73-5.96s-4.21-8.78-4.54-9.77c-.33-.99-14.28,0-17.3-.17-1.45-.08-5.26,.92-8.84,1.99l1.66,3.37-1.97-3.28c-.34,.1-.68,.21-1.01,.31,1.6,3.21,3.07,6.12,3.64,7.16-.68-1.05-2.67-3.98-4.63-6.85-2.86,.89-5.13,1.67-5.15,1.67h0l.57,2.63Zm21.79-2.63l1.73-3.62s1.87-.31,3.85-.29c1.87,.02,3.85,.37,4.15,.29l2.18,3.19,2.16,5.55-2.64,2.48-4.77,2.27h-2.8l-1.96-.94-1.69-1.82-1-3.39,.78-3.71Zm-12.34,5.57s-.11-.16-.22-.38c.18,.28,.26,.42,.22,.38Z"/>
          <path class="uuid-9d73e0ef-2ff5-436d-99f7-3a7ed6dcf3a0" d="M256.24,166.67l-3.75,4.17-8.2,9.51-1.41,10.12-.68,5.76,4.32-.99,2.12-5v-2.9c0-.22,.56-3.91,.56-3.91l1.3-2,.6-1.28-.28,2.34-1.13,1.52-.14,2.46-.35,2.17v2.14l-2.04,4.37-.64,.08,15.41-1.96,2.79-5.09,2.36-14.78v-13.36l-9.73,5.96-1.09,.67Z"/>
          <polygon class="uuid-6aa5869a-a804-4c79-b1f5-db2571502c08" points="242.83 190.78 243.86 180.27 240.69 176.45 238.93 174.55 231.35 166.95 226.72 172.73 224.18 178.14 224.94 185.28 224.94 185.28 225.49 189.39 231.54 196.23 242.19 196.23 242.87 190.47 242.83 190.78"/>
          <polygon class="uuid-4ad47dd4-1252-4e5f-88b9-e6e9306f8f41" points="231.86 166.44 229.47 157.08 229.48 157.1 231.2 166.8 231.35 166.95 238.93 174.55 238.93 174.55 231.86 166.44"/>
          <polygon class="uuid-4ad47dd4-1252-4e5f-88b9-e6e9306f8f41" points="244.09 179.91 240.69 176.45 240.69 176.45 243.86 180.27 242.83 190.78 242.87 190.47 244.28 180.35 252.48 170.84 252.48 170.84 244.09 179.91"/>
          <path class="uuid-b5d93036-9352-4f3a-bdce-a9256cb2698c" d="M251.65,154.78l.8-2.34-.71,2.33,1.78,1.54,2.42,2.29,1.98,2.05,3-1.89,3.61-1.25,.8,2.06-2.16-5.55-2.18-3.19c-.31,.08-2.28-.27-4.15-.29-1.98-.02-3.85,.29-3.85,.29l-1.34,3.94h0Zm5.7-1.83c.53,.63,1.92,1.36,1.92,1.36,0,0-.83,.21-1.09,.06-.27-.14-1.12-.83-1.58-1.87,0,0,.22-.18,.75,.45Z"/>
          <polygon class="uuid-ac50549e-755a-41d0-a8fe-a04236044c82" points="253.17 163.39 255.13 164.34 257.93 164.34 257.93 163.42 257.87 160.81 255.95 158.61 253.53 156.32 251.74 155.02 250.83 157.18 251.65 154.78 251.65 154.78 250.49 158.18 251.48 161.57 253.17 163.39"/>
          <path class="uuid-6aa5869a-a804-4c79-b1f5-db2571502c08" d="M260.93,158.78l-2.92,2.04s-.08,2.4-.08,2.6v.92l4.77-2.27,2.64-2.48-.8-2.06-3.61,1.25Z"/>
          <polygon class="uuid-6670e98c-66b4-487b-87fa-4056685d9bb1" points="252.99 150.85 251.27 154.47 250.49 158.18 251.65 154.78 252.99 150.85"/>
          <path class="uuid-d3c7d28f-c4c8-4864-a94b-ccae26fb63df" d="M249.18,190.78v-2.14l.35-2.17,.14-2.46,1.13-1.52,.28-2.34-.6,1.28-1.3,2s-.56,3.69-.56,3.91v2.9l-2.12,5,.64-.08,2.04-4.37Z"/>
          <path class="uuid-98573b03-25cb-4460-9ff5-d1f4823432aa" d="M235.06,152.49c-.34,.1-.67,.21-1,.31,1.96,2.87,3.95,5.8,4.63,6.85-.57-1.03-2.04-3.95-3.64-7.16Z"/>
          <path class="uuid-98573b03-25cb-4460-9ff5-d1f4823432aa" d="M236.38,152.09c-.1,.03-.21,.06-.31,.09l1.97,3.28-1.66-3.37Z"/>
          <path class="uuid-d3c7d28f-c4c8-4864-a94b-ccae26fb63df" d="M238.7,159.67c.12,.22,.2,.35,.22,.38,.04,.04-.04-.1-.22-.38Z"/>
          <path class="uuid-4ad47dd4-1252-4e5f-88b9-e6e9306f8f41" d="M260.93,158.78l-3,1.89-1.98-2.05,1.92,2.2,.06,2.61c0-.2,.08-2.6,.08-2.6l2.92-2.04Z"/>
          <polygon class="uuid-4ad47dd4-1252-4e5f-88b9-e6e9306f8f41" points="252.45 152.44 251.65 154.78 250.83 157.18 251.74 155.02 253.53 156.32 251.74 154.77 252.45 152.44"/>
          <path class="uuid-4ad47dd4-1252-4e5f-88b9-e6e9306f8f41" d="M258.17,154.37c.27,.14,1.09-.06,1.09-.06,0,0-1.39-.73-1.92-1.36-.53-.63-.75-.45-.75-.45,.46,1.04,1.31,1.72,1.58,1.87Z"/>
          <polygon class="uuid-9d73e0ef-2ff5-436d-99f7-3a7ed6dcf3a0" points="223.78 178.26 220.75 174.63 220.75 174.63 219.63 173.41 220.1 183.43 225.49 189.39 224.94 185.28 223.78 178.26"/>
          <polygon class="uuid-4ad47dd4-1252-4e5f-88b9-e6e9306f8f41" points="220.75 174.63 220.75 174.63 223.78 178.26 224.94 185.28 224.94 185.28 224.18 178.14 226.72 172.73 223.97 177.84 220.75 174.63"/>
        </g>
        <g>
          <path class="uuid-f656cef4-8ef8-4e0f-9f3d-65552325168f" d="M214.32,266.52l1.42,5.47h0l2.35,7.44,9.79,.48h49.26l18.04-.31,10.56-9.69h0l15.58-15.14-6.65-.6-10.14,4.19-6.38-2.69-4.9-6.59-7.96-2.12-5.3-5.68,1.22-4.05,2.51-3.29,.92-.71h0l2.23-1.73,5.59-.55,1.87-1.5c-4.77-1.13-10.01-1.34-15.69-.54-5.21,.74-12.13,3.04-19.53,6.05-7.87,3.2-16.28,7.21-23.78,10.99-3.24,1.64-6.32,3.23-9.1,4.71h0l-13.73,8.02,1.81,7.86Zm64.69-3.14l4.55,.99h4.02l3.87-.99h4l4.55,.18,5.75-.9,8.19-.72-1.49,1.45-6.7,.89-2.61,1.26h-11.7l-3.52,1.26h-4.37l-5.42-1.7-4.2-1.7-6.3-1.45,11.37,1.44Z"/>
          <polygon class="uuid-f656cef4-8ef8-4e0f-9f3d-65552325168f" points="290.25 234.11 290.25 234.11 290.25 234.11 290.25 234.11"/>
          <polygon class="uuid-c46f60ca-ae7f-433d-9f5c-4cd1c1bc9454" points="278.14 265.08 283.56 266.78 287.93 266.78 291.45 265.53 295.45 265.53 299.47 265.53 303.15 265.53 305.75 264.27 312.45 263.38 313.94 261.93 305.75 262.65 300 263.55 295.45 263.37 291.45 263.37 287.58 264.36 283.56 264.36 279.01 263.37 267.64 261.93 273.94 263.38 278.14 265.08"/>
          <polygon class="uuid-4734a1b4-547b-4ca0-8959-2c8c2d16f56e" points="298.02 306.84 297.55 300.74 296.96 294.86 295.45 280.83 277.15 279.9 227.88 279.9 218.29 280.29 216.21 286.39 223.47 303.35 228 313.46 228.42 325.34 228.78 333.39 247.44 333.07 262.48 332.44 284.66 330.73 295.45 330.02 304.55 328.4 300.35 316.3 298.02 306.84"/>
          <polygon class="uuid-48ca5ae1-4d77-437a-8a98-af5d7cf808f3" points="207.65 321.03 209.66 315.65 211.41 307.83 215.32 295.62 215.32 288.99 215.32 288.99 215.33 288.93 217.59 280.05 215.74 271.98 214.32 266.52 214.33 266.56 212.33 258.92 209.63 265.73 212.2 258.34 208.18 269.89 204.85 284.38 200.66 300.74 197.33 317.89 194.71 328.4 203.11 333.79 206.25 326.24 207.65 321.03"/>
          <polygon class="uuid-c46f60ca-ae7f-433d-9f5c-4cd1c1bc9454" points="322.04 267.36 321.34 254.75 305.75 269.89 296.11 280.26 296.96 294.87 296.96 294.86 297.55 300.74 298.02 306.84 300.35 316.3 304.55 328.4 324.84 317.26 322.04 267.36"/>
          <polygon class="uuid-4ad47dd4-1252-4e5f-88b9-e6e9306f8f41" points="295.19 279.58 277.15 279.9 295.45 280.83 296.96 294.86 296.96 294.87 296.11 280.26 305.75 269.89 305.75 269.89 295.19 279.58"/>
          <polygon class="uuid-c46f60ca-ae7f-433d-9f5c-4cd1c1bc9454" points="228.42 325.34 227.56 313.49 223.47 303.35 223.47 303.35 216.21 286.39 215.32 288.99 215.33 288.93 215.32 288.99 215.32 288.99 215.32 295.62 211.41 307.83 209.66 315.65 207.65 321.03 206.25 326.24 203.11 333.79 222.69 333.79 228.78 333.39 228.42 325.34 228.42 325.34"/>
          <polygon class="uuid-4ad47dd4-1252-4e5f-88b9-e6e9306f8f41" points="215.74 271.98 215.74 271.98 217.59 280.05 215.33 288.93 215.32 288.99 216.21 286.39 218.29 280.29 227.88 279.9 218.09 279.42 215.74 271.98"/>
          <polygon class="uuid-4ad47dd4-1252-4e5f-88b9-e6e9306f8f41" points="227.56 313.49 228.42 325.34 228.42 325.34 228 313.46 223.47 303.35 223.47 303.35 227.56 313.49"/>
          <polygon class="uuid-7da57d7a-11be-491c-805e-8544abdf5cd7" points="313.32 248.64 313.11 246.57 309.35 249.06 306.49 254.52 306.49 254.52 304.55 258.34 314.69 254.15 313.29 251.47 313.32 248.64"/>
          <polygon class="uuid-9b9c91c7-1081-4838-be07-fe8a892a1d93" points="319.53 240.11 319.53 240.1 316.38 244.45 318.54 241.47 316.45 244.52 314.1 245.93 313.44 246.35 313.44 246.35 313.11 246.57 313.32 248.64 313.29 251.47 314.69 254.15 321.34 254.75 322.56 247.8 319.59 240.02 320.96 243.62 319.53 240.11"/>
          <polygon class="uuid-702b498b-8831-435b-9c50-f95e792a4765" points="294.8 236.61 294.87 236.65 294.85 236.64 294.8 236.61"/>
          <polygon class="uuid-702b498b-8831-435b-9c50-f95e792a4765" points="286.89 231.47 290.8 231.08 287.04 231.51 290.25 234.11 290.25 234.11 291.83 234.98 291.83 234.98 293.67 235.83 294.99 236.55 295.57 236.89 296.7 237.82 298.06 238.91 300.31 240.66 302.73 242.56 304.24 244.03 304.9 244.81 305 244.91 305 244.91 309.27 248.97 313.44 246.35 314.1 245.93 314.1 245.93 316.38 244.45 319.53 240.1 315.24 238.33 319.59 240.02 310.96 236.67 302.74 232.23 297.71 228.91 294.99 228.91 294.35 229.42 292.48 230.92 286.89 231.47"/>
          <polygon class="uuid-4ad47dd4-1252-4e5f-88b9-e6e9306f8f41" points="284.66 233.2 284.66 233.2 286.89 231.47 284.66 233.2"/>
          <polygon class="uuid-4ad47dd4-1252-4e5f-88b9-e6e9306f8f41" points="290.25 234.11 287.04 231.51 290.8 231.08 286.89 231.47 290.25 234.11 290.25 234.11"/>
          <polygon class="uuid-4ad47dd4-1252-4e5f-88b9-e6e9306f8f41" points="316.45 244.52 318.54 241.47 316.38 244.45 314.1 245.93 314.1 245.93 316.45 244.52"/>
          <polygon class="uuid-4ad47dd4-1252-4e5f-88b9-e6e9306f8f41" points="319.53 240.1 319.53 240.11 320.96 243.62 319.59 240.02 315.24 238.33 319.53 240.1"/>
          <path class="uuid-84b1a743-97e1-4a90-9d90-08147b232823" d="M309.16,249.1l-4.16-4.19-.1-.1h0s-.86-.79-.9-.81c-.04-.02-1.38-1.3-1.38-1.3l-2.39-1.87-2.26-1.78-1.27-1.01-.23,1.73-.55,1.7-.89,2.16-.35,1.65-.66,2.07-.74,1.72,4.9,6.59,6.38,2.69,1.94-3.82,2.67-5.42Z"/>
          <polygon class="uuid-a1149dda-6ecb-44a5-aff5-3e548e321ff4" points="288.92 243.01 290.09 241.04 293.81 236.08 293.57 235.96 291.83 234.98 290.25 234.11 290.25 234.11 286.89 231.47 284.66 233.2 283.73 233.91 281.23 237.2 280.01 241.26 285.31 246.93 286.59 245.59 288.92 243.01"/>
          <polygon class="uuid-d23359d6-ef55-4ef6-aa74-c3ba89478087" points="294.67 245.27 295.01 243.62 295.9 241.47 296.46 239.77 296.69 238.04 296.63 238 295.5 237.04 294.87 236.65 294.8 236.61 293.81 236.08 290.09 241.04 288.92 243.01 286.59 245.59 285.31 246.93 293.27 249.06 294.01 247.34 294.67 245.27"/>
          <path class="uuid-4ad47dd4-1252-4e5f-88b9-e6e9306f8f41" d="M293.81,236.08l.99,.52,.06,.03h.02l.62,.4,1.14,.96,.05,.04,1.27,1.01,2.26,1.78,2.39,1.87s1.34,1.29,1.38,1.3c.04,.01,.9,.81,.9,.81h0l-.66-.78-1.52-1.47-2.42-1.9-2.24-1.75-1.36-1.09-1.13-.93-.58-.34-1.31-.72-1.84-.85h0l1.74,.98,.23,.12Z"/>
          <polygon class="uuid-54f56f68-d036-46c2-8f21-0647ad8e2d7a" points="309.16 249.1 306.49 254.52 306.49 254.52 309.35 249.06 313.11 246.57 313.44 246.35 313.44 246.35 309.27 248.97 305 244.91 305 244.91 309.16 249.1"/>
          <path class="uuid-4ad47dd4-1252-4e5f-88b9-e6e9306f8f41" d="M212.33,258.92l2,7.64v-.05l-1.83-7.86,13.73-8.02c-8.17,4.33-13.85,7.59-14.04,7.7h0l-2.57,7.39,2.71-6.81Z"/>
        </g>
        <g>
          <polygon class="uuid-51c71a83-02bd-49ea-9603-e4910219e457" points="80.1 254.43 83.36 256.86 85 261.12 85.37 261.94 86.03 265.2 86.32 266.3 88.91 269.74 94.78 270 102.78 268.96 101.26 269.15 94.78 266.85 90.55 260.95 87.92 258.04 91.75 260.95 95.53 265.8 102.78 268.96 108.35 265.93 99.96 262.3 99.57 261.93 99.57 261.93 93.37 255.97 86.18 258.04 77.71 252.44 80.1 254.43 80.1 254.43"/>
          <polygon class="uuid-51c71a83-02bd-49ea-9603-e4910219e457" points="83.13 277.91 85.19 281.27 83.13 277.91 83.13 277.91"/>
          <polygon class="uuid-5423a90f-3d9b-4b4a-8075-00b920f388e7" points="88.25 269.89 86.32 266.3 86.03 265.2 86.03 265.2 85.19 261.99 84.74 261.12 83.12 257 80.1 254.43 77.71 252.44 75.28 257.72 74.03 261.68 74.03 265.8 76.05 269.37 78.99 274.67 83.13 277.91 83.13 277.91 85.19 281.27 86.36 277.44 88.25 269.89"/>
          <polygon class="uuid-4bac83f1-ef27-47a8-b21f-0f57e9142fec" points="102.78 268.96 94.78 270 88.63 270.52 86.36 277.44 86.36 277.44 85.19 281.27 94.58 281.27 103.69 278.31 108.35 276.6 108.35 265.93 102.78 268.96"/>
          <polygon class="uuid-a6d17591-d76a-45aa-9249-9b11814bfa15" points="129.72 255.97 123.56 248.18 121.41 249.84 121.41 249.84 115.03 255 119.37 262.53 128.6 274.92 132.35 274.92 129.72 255.97"/>
          <polygon class="uuid-7f421647-da3c-467e-ae64-7bf8b9e3e9d6" points="119.37 262.53 114.73 255.49 111.56 260.44 108.35 265.93 108.35 276.6 128.6 274.92 119.37 262.53"/>
          <polygon class="uuid-f656cef4-8ef8-4e0f-9f3d-65552325168f" points="99.96 247.22 93.78 256.37 93.37 255.97 99.57 261.93 100.63 257.07 99.96 262.3 108.35 265.93 111.56 260.44 111.56 260.44 114.35 255 110.17 249.4 99.96 243.06 91.6 251.45 93.37 255.97 99.96 247.22"/>
          <polygon class="uuid-51c71a83-02bd-49ea-9603-e4910219e457" points="93.37 255.97 91.6 251.45 77.71 252.44 86.18 258.04 93.37 255.97"/>
          <polygon class="uuid-e5a2df7e-bec5-42ee-a4aa-261a2a513809" points="114.73 254.63 121.41 249.84 123.56 248.18 112 240.97 99.96 243.06 110.17 249.4 114.73 254.63"/>
          <polygon class="uuid-4ad47dd4-1252-4e5f-88b9-e6e9306f8f41" points="86.32 266.3 88.25 269.89 86.36 277.44 86.36 277.44 88.63 270.52 94.78 270 88.91 269.74 86.32 266.3"/>
          <polygon class="uuid-4ad47dd4-1252-4e5f-88b9-e6e9306f8f41" points="110.17 249.4 114.35 255 111.56 260.44 111.56 260.44 114.73 255.49 119.37 262.53 115.03 255 121.41 249.84 121.41 249.84 114.73 254.63 110.17 249.4"/>
          <polygon class="uuid-4ad47dd4-1252-4e5f-88b9-e6e9306f8f41" points="85 261.12 83.36 256.86 80.1 254.43 80.1 254.43 83.12 257 84.74 261.12 85.19 261.99 86.03 265.2 86.03 265.2 85.37 261.94 85 261.12"/>
          <polygon class="uuid-4ad47dd4-1252-4e5f-88b9-e6e9306f8f41" points="91.75 260.95 87.92 258.04 90.55 260.95 94.78 266.85 101.26 269.15 102.78 268.96 95.53 265.8 91.75 260.95"/>
          <polygon class="uuid-4ad47dd4-1252-4e5f-88b9-e6e9306f8f41" points="99.96 247.22 93.37 255.97 93.78 256.37 99.96 247.22"/>
          <polygon class="uuid-4ad47dd4-1252-4e5f-88b9-e6e9306f8f41" points="99.57 261.93 99.57 261.93 99.96 262.3 100.63 257.07 99.57 261.93"/>
        </g>
      </g>
    </g>
  </g>
</svg>