<?xml version="1.0" encoding="UTF-8"?>
<svg id="uuid-90adbd28-83ed-4ab2-a21f-f39285e2699c" data-name="Layer 1" xmlns="http://www.w3.org/2000/svg" width="439" height="444" xmlns:xlink="http://www.w3.org/1999/xlink" viewBox="0 0 439 444">
  <defs>
    <style>
      .uuid-c241b9bb-fd58-48e6-ada2-23b1d5a8d81d, .uuid-7aee49df-7775-4b95-a3fa-ac892e7874dd {
        fill: #fff;
      }

      .uuid-ac311994-2af2-4bf9-9e87-b072ef92a669 {
        fill: #d8d8d8;
      }

      .uuid-3c771492-d01e-4734-90c7-0b0f62b59722 {
        opacity: .5;
      }

      .uuid-72984f13-cd49-488a-a769-3da3937621b3 {
        fill: #31d0e5;
        stroke: url(#uuid-a536c02b-5188-459e-ba28-f010d4478fed);
        stroke-width: 6px;
      }

      .uuid-72984f13-cd49-488a-a769-3da3937621b3, .uuid-df1a7976-aa8c-4755-90c9-0db4a78b1e71, .uuid-f7124e15-6cc8-4c87-aa9a-c67bdcb2ade7, .uuid-7aee49df-7775-4b95-a3fa-ac892e7874dd {
        stroke-miterlimit: 10;
      }

      .uuid-df1a7976-aa8c-4755-90c9-0db4a78b1e71, .uuid-f7124e15-6cc8-4c87-aa9a-c67bdcb2ade7 {
        fill: none;
      }

      .uuid-df1a7976-aa8c-4755-90c9-0db4a78b1e71, .uuid-7aee49df-7775-4b95-a3fa-ac892e7874dd {
        stroke: #afafaf;
      }

      .uuid-0f237115-1e08-4658-b244-a825f4798984 {
        fill: #afafaf;
      }

      .uuid-f7124e15-6cc8-4c87-aa9a-c67bdcb2ade7 {
        stroke: #d8d8d8;
      }

      .uuid-1a46aac4-7b0e-4a22-bf5d-ae684c2aa4e8 {
        fill: url(#uuid-ccf36912-275a-45bc-b701-c08e7567b7ca);
      }
    </style>
    <linearGradient id="uuid-ccf36912-275a-45bc-b701-c08e7567b7ca" x1="40.78" y1="99.54" x2="390.04" y2="338.86" gradientTransform="matrix(1, 0, 0, 1, 0, 0)" gradientUnits="userSpaceOnUse">
      <stop offset="0" stop-color="#9b81cf"/>
      <stop offset="1" stop-color="#3b139b"/>
    </linearGradient>
    <linearGradient id="uuid-a536c02b-5188-459e-ba28-f010d4478fed" x1="13.71" y1="222" x2="425.29" y2="222" gradientTransform="matrix(1, 0, 0, 1, 0, 0)" gradientUnits="userSpaceOnUse">
      <stop offset="0" stop-color="#4c1da9"/>
      <stop offset="1" stop-color="#997ece"/>
    </linearGradient>
  </defs>
  <g>
    <path class="uuid-3c771492-d01e-4734-90c7-0b0f62b59722" d="M432.73,233.24c0-36.23-9.21-70.32-25.42-100.03-35.31-67.72-106.15-113.96-187.81-113.96C102.59,19.25,7.82,114.02,7.82,230.93s94.77,211.68,211.68,211.68c2.97,0,5.93-.08,8.87-.2,113.3-2.59,204.36-95.24,204.36-209.16Z"/>
    <g>
      <circle class="uuid-1a46aac4-7b0e-4a22-bf5d-ae684c2aa4e8" cx="219.5" cy="222" r="211.68"/>
      <circle class="uuid-72984f13-cd49-488a-a769-3da3937621b3" cx="219.5" cy="222" r="202.78"/>
    </g>
  </g>
  <g>
    <path class="uuid-c241b9bb-fd58-48e6-ada2-23b1d5a8d81d" d="M129.17,128.89s4.95-22.85,30.6-5.74c25.65,17.1-24.25,19.02-46.91,14.86-22.66-4.16,16.31-9.12,16.31-9.12Z"/>
    <path class="uuid-c241b9bb-fd58-48e6-ada2-23b1d5a8d81d" d="M178.25,109.15c21.44,10.72,2.05,15.38-15.84,14.37-17.89-1.02-5.61-25.09,15.84-14.37Z"/>
  </g>
  <g>
    <path class="uuid-c241b9bb-fd58-48e6-ada2-23b1d5a8d81d" d="M351.44,286.4s4.95-22.85,30.6-5.74c25.65,17.1-24.25,19.02-46.91,14.86-22.66-4.16,16.31-9.12,16.31-9.12Z"/>
    <path class="uuid-c241b9bb-fd58-48e6-ada2-23b1d5a8d81d" d="M400.52,266.66c21.44,10.72,2.05,15.38-15.84,14.37-17.89-1.02-5.61-25.09,15.84-14.37Z"/>
  </g>
  <g>
    <g>
      <path class="uuid-7aee49df-7775-4b95-a3fa-ac892e7874dd" d="M90.75,243.22l94.15,88.22s29.5,18.93,99.1-46.17l96.83-173.29-124.2-30.51,31.35,81.76c-2.06,2.84-4.76,25.83-197.23,79.99Z"/>
      <path class="uuid-ac311994-2af2-4bf9-9e87-b072ef92a669" d="M283.53,284.31l96.33-172.03-122.26-29.63,31.07,80.31s12.47,33.03-5.14,121.35Z"/>
    </g>
    <g>
      <g>
        <line class="uuid-f7124e15-6cc8-4c87-aa9a-c67bdcb2ade7" x1="122.04" y1="249.69" x2="200.95" y2="321.46"/>
        <line class="uuid-f7124e15-6cc8-4c87-aa9a-c67bdcb2ade7" x1="136.13" y1="243.38" x2="216.98" y2="316.91"/>
        <line class="uuid-f7124e15-6cc8-4c87-aa9a-c67bdcb2ade7" x1="151.81" y1="239.4" x2="229.93" y2="310.44"/>
        <line class="uuid-f7124e15-6cc8-4c87-aa9a-c67bdcb2ade7" x1="179.3" y1="229.32" x2="251.27" y2="294.76"/>
        <line class="uuid-f7124e15-6cc8-4c87-aa9a-c67bdcb2ade7" x1="192.64" y1="222.65" x2="262.07" y2="287.83"/>
        <line class="uuid-f7124e15-6cc8-4c87-aa9a-c67bdcb2ade7" x1="164.64" y1="234.12" x2="241.29" y2="303.82"/>
        <line class="uuid-f7124e15-6cc8-4c87-aa9a-c67bdcb2ade7" x1="206.78" y1="217.82" x2="275.35" y2="280.17"/>
        <line class="uuid-f7124e15-6cc8-4c87-aa9a-c67bdcb2ade7" x1="220.88" y1="211.51" x2="286.53" y2="271.21"/>
        <line class="uuid-f7124e15-6cc8-4c87-aa9a-c67bdcb2ade7" x1="236.55" y1="207.52" x2="291.02" y2="257.05"/>
        <line class="uuid-f7124e15-6cc8-4c87-aa9a-c67bdcb2ade7" x1="264.04" y1="197.44" x2="303.73" y2="233.53"/>
        <line class="uuid-f7124e15-6cc8-4c87-aa9a-c67bdcb2ade7" x1="277.39" y1="190.77" x2="311.9" y2="220.14"/>
        <line class="uuid-f7124e15-6cc8-4c87-aa9a-c67bdcb2ade7" x1="284.73" y1="181.51" x2="319.25" y2="210.88"/>
        <line class="uuid-f7124e15-6cc8-4c87-aa9a-c67bdcb2ade7" x1="249.39" y1="202.25" x2="296.53" y2="245.11"/>
      </g>
      <path class="uuid-df1a7976-aa8c-4755-90c9-0db4a78b1e71" d="M280.36,105.81s78.99,15.78,93.21,17.46"/>
      <path class="uuid-df1a7976-aa8c-4755-90c9-0db4a78b1e71" d="M285.09,116.77s69.28,14.31,83.5,15.99"/>
      <path class="uuid-df1a7976-aa8c-4755-90c9-0db4a78b1e71" d="M289.57,129.44s58.22,10.03,72.45,11.71"/>
      <path class="uuid-df1a7976-aa8c-4755-90c9-0db4a78b1e71" d="M297.17,145.92s9.14,22.8,5.24,46.98l33.19-1.58s21.07-39.81,20.29-37.33c-.24,.76-58.72-8.07-58.72-8.07Z"/>
      <path class="uuid-df1a7976-aa8c-4755-90c9-0db4a78b1e71" d="M302.38,205.09s22.36-1.48,24.28-1.84"/>
      <path class="uuid-df1a7976-aa8c-4755-90c9-0db4a78b1e71" d="M302.92,216.44s16.31-1.2,18.23-1.55"/>
    </g>
  </g>
  <path class="uuid-0f237115-1e08-4658-b244-a825f4798984" d="M117.01,371.28c63.88,4.52,129.33-17.68,177.47-59.85,7.27-6.21,14.17-13.04,20.6-20.12,1.87-2,4.69-5.04,6.37-7.19l6.12-7.41c1.85-2.16,4.02-5.41,5.77-7.68,1.54-2.13,4.21-5.58,5.61-7.8,1.68-2.62,6.28-9.44,7.91-12.06,3.72-6.35,8.6-14.32,11.83-20.92l4.44-8.54c-1.5,3.04-5.06,10-6.5,12.89-2.4,4.88-6.77,12.02-9.41,16.79-2.29,3.76-6.74,10.4-9.15,14.15l-1.42,1.94c-2.71,3.6-5.79,8.13-8.59,11.61-1.19,1.48-6.58,8.02-7.63,9.32-2.21,2.68-5.76,6.32-8.08,8.93-9.83,10.6-20.76,20.13-32.25,28.92-30.96,23.04-67.52,38.19-105.55,44.54-18.96,3.13-38.4,4.39-57.55,2.48h0Z"/>
  <path class="uuid-0f237115-1e08-4658-b244-a825f4798984" d="M34.23,222.15c15.76,46.14,49.35,87.81,94.85,107.02l6.82,2.75c2.47,.73,8.08,2.78,10.49,3.42,3.32,.79,7.38,2.02,10.7,2.7,7.21,1.48,14.49,2.61,21.83,3.28,2.29,.12,8.79,.51,11.03,.64,5.63-.02,12.81,.11,18.42-.41l7.36-.48-7.35,.6c-5.6,.61-12.79,.6-18.44,.71-2.25-.1-8.71-.39-11.07-.51-7.37-.6-14.69-1.66-21.95-3.08-3.34-.64-7.44-1.84-10.78-2.63-2.38-.66-8.12-2.64-10.56-3.41l-6.87-2.75c-45.77-19.11-79.54-61.22-94.5-107.86h0Z"/>
</svg>