<?xml version="1.0" encoding="UTF-8"?>
<svg id="uuid-5e6a0252-efa9-4cd4-a3ea-244f9ea5eb4e" data-name="Layer 1" xmlns="http://www.w3.org/2000/svg" width="439" height="444" xmlns:xlink="http://www.w3.org/1999/xlink" viewBox="0 0 439 444">
  <defs>
    <style>
      .uuid-28d9693e-c537-408e-bac7-3a7c7cad7288, .uuid-721c6e34-9b32-48c0-914a-a5a6e6e0ee47 {
        fill: #fff;
      }

      .uuid-91a480d6-bdb4-4176-baac-bbbf93b1e35e {
        fill: #31d0e5;
        stroke: url(#uuid-4e13c0d9-9962-4927-8bd3-9209cc5fab96);
        stroke-width: 6px;
      }

      .uuid-91a480d6-bdb4-4176-baac-bbbf93b1e35e, .uuid-2924dea2-5977-4861-8f03-1507e0d840aa, .uuid-5babfc8e-67a0-4a09-95cd-0732b9abe021, .uuid-721c6e34-9b32-48c0-914a-a5a6e6e0ee47 {
        stroke-miterlimit: 10;
      }

      .uuid-6ad6b5fd-ab1e-478f-9f0d-fad4db2027d5 {
        fill: #d8d8d8;
      }

      .uuid-96fec697-c269-4607-a2a9-55f185bea52c {
        opacity: .5;
      }

      .uuid-2924dea2-5977-4861-8f03-1507e0d840aa, .uuid-5babfc8e-67a0-4a09-95cd-0732b9abe021 {
        fill: none;
      }

      .uuid-2924dea2-5977-4861-8f03-1507e0d840aa, .uuid-721c6e34-9b32-48c0-914a-a5a6e6e0ee47 {
        stroke: #afafaf;
      }

      .uuid-86b407d8-a1d9-4dd9-ae5d-57221463755f {
        fill: #afafaf;
      }

      .uuid-67c7ae6e-d24d-4674-a466-1e5125ced3fa {
        fill: url(#uuid-c6ea2922-29c6-478c-8ab2-422eef5b7b9d);
      }

      .uuid-5babfc8e-67a0-4a09-95cd-0732b9abe021 {
        stroke: #d8d8d8;
      }
    </style>
    <linearGradient id="uuid-c6ea2922-29c6-478c-8ab2-422eef5b7b9d" x1="40.78" y1="99.54" x2="390.04" y2="338.86" gradientTransform="matrix(1, 0, 0, 1, 0, 0)" gradientUnits="userSpaceOnUse">
      <stop offset="0" stop-color="#9b81cf"/>
      <stop offset="1" stop-color="#3b139b"/>
    </linearGradient>
    <linearGradient id="uuid-4e13c0d9-9962-4927-8bd3-9209cc5fab96" x1="13.71" y1="222" x2="425.29" y2="222" gradientTransform="matrix(1, 0, 0, 1, 0, 0)" gradientUnits="userSpaceOnUse">
      <stop offset="0" stop-color="#4c1da9"/>
      <stop offset="1" stop-color="#997ece"/>
    </linearGradient>
  </defs>
  <g>
    <path class="uuid-96fec697-c269-4607-a2a9-55f185bea52c" d="M432.73,233.24c0-36.23-9.21-70.32-25.42-100.03-35.31-67.72-106.15-113.96-187.81-113.96C102.59,19.25,7.82,114.02,7.82,230.93s94.77,211.68,211.68,211.68c2.97,0,5.93-.08,8.87-.2,113.3-2.59,204.36-95.24,204.36-209.16Z"/>
    <g>
      <circle class="uuid-67c7ae6e-d24d-4674-a466-1e5125ced3fa" cx="219.5" cy="222" r="211.68"/>
      <circle class="uuid-91a480d6-bdb4-4176-baac-bbbf93b1e35e" cx="219.5" cy="222" r="202.78"/>
    </g>
  </g>
  <g>
    <path class="uuid-28d9693e-c537-408e-bac7-3a7c7cad7288" d="M80.17,179.89s4.95-22.85,30.6-5.74c25.65,17.1-24.25,19.02-46.91,14.86-22.66-4.16,16.31-9.12,16.31-9.12Z"/>
    <path class="uuid-28d9693e-c537-408e-bac7-3a7c7cad7288" d="M129.25,160.15c21.44,10.72,2.05,15.38-15.84,14.37-17.89-1.02-5.61-25.09,15.84-14.37Z"/>
  </g>
  <g>
    <path class="uuid-28d9693e-c537-408e-bac7-3a7c7cad7288" d="M354.44,199.4s4.95-22.85,30.6-5.74c25.65,17.1-24.25,19.02-46.91,14.86-22.66-4.16,16.31-9.12,16.31-9.12Z"/>
    <path class="uuid-28d9693e-c537-408e-bac7-3a7c7cad7288" d="M403.52,179.66c21.44,10.72,2.05,15.38-15.84,14.37-17.89-1.02-5.61-25.09,15.84-14.37Z"/>
  </g>
  <g>
    <g>
      <path class="uuid-721c6e34-9b32-48c0-914a-a5a6e6e0ee47" d="M77.75,234.22l94.15,88.22s29.5,18.93,99.1-46.17l96.83-173.29-124.2-30.51,31.35,81.76c-2.06,2.84-4.76,25.83-197.23,79.99Z"/>
      <path class="uuid-6ad6b5fd-ab1e-478f-9f0d-fad4db2027d5" d="M270.53,275.31l96.33-172.03-122.26-29.63,31.07,80.31s12.47,33.03-5.14,121.35Z"/>
    </g>
    <g>
      <g>
        <line class="uuid-5babfc8e-67a0-4a09-95cd-0732b9abe021" x1="109.04" y1="240.69" x2="187.95" y2="312.46"/>
        <line class="uuid-5babfc8e-67a0-4a09-95cd-0732b9abe021" x1="123.13" y1="234.38" x2="203.98" y2="307.91"/>
        <line class="uuid-5babfc8e-67a0-4a09-95cd-0732b9abe021" x1="138.81" y1="230.4" x2="216.93" y2="301.44"/>
        <line class="uuid-5babfc8e-67a0-4a09-95cd-0732b9abe021" x1="166.3" y1="220.32" x2="238.27" y2="285.76"/>
        <line class="uuid-5babfc8e-67a0-4a09-95cd-0732b9abe021" x1="179.64" y1="213.65" x2="249.07" y2="278.83"/>
        <line class="uuid-5babfc8e-67a0-4a09-95cd-0732b9abe021" x1="151.64" y1="225.12" x2="228.29" y2="294.82"/>
        <line class="uuid-5babfc8e-67a0-4a09-95cd-0732b9abe021" x1="193.78" y1="208.82" x2="262.35" y2="271.17"/>
        <line class="uuid-5babfc8e-67a0-4a09-95cd-0732b9abe021" x1="207.88" y1="202.51" x2="273.53" y2="262.21"/>
        <line class="uuid-5babfc8e-67a0-4a09-95cd-0732b9abe021" x1="223.55" y1="198.52" x2="278.02" y2="248.05"/>
        <line class="uuid-5babfc8e-67a0-4a09-95cd-0732b9abe021" x1="251.04" y1="188.44" x2="290.73" y2="224.53"/>
        <line class="uuid-5babfc8e-67a0-4a09-95cd-0732b9abe021" x1="264.39" y1="181.77" x2="298.9" y2="211.14"/>
        <line class="uuid-5babfc8e-67a0-4a09-95cd-0732b9abe021" x1="271.73" y1="172.51" x2="306.25" y2="201.88"/>
        <line class="uuid-5babfc8e-67a0-4a09-95cd-0732b9abe021" x1="236.39" y1="193.25" x2="283.53" y2="236.11"/>
      </g>
      <path class="uuid-2924dea2-5977-4861-8f03-1507e0d840aa" d="M267.36,96.81s78.99,15.78,93.21,17.46"/>
      <path class="uuid-2924dea2-5977-4861-8f03-1507e0d840aa" d="M272.09,107.77s69.28,14.31,83.5,15.99"/>
      <path class="uuid-2924dea2-5977-4861-8f03-1507e0d840aa" d="M276.57,120.44s58.22,10.03,72.45,11.71"/>
      <path class="uuid-2924dea2-5977-4861-8f03-1507e0d840aa" d="M284.17,136.92s9.14,22.8,5.24,46.98l33.19-1.58s21.07-39.81,20.29-37.33c-.24,.76-58.72-8.07-58.72-8.07Z"/>
      <path class="uuid-2924dea2-5977-4861-8f03-1507e0d840aa" d="M289.38,196.09s22.36-1.48,24.28-1.84"/>
      <path class="uuid-2924dea2-5977-4861-8f03-1507e0d840aa" d="M289.92,207.44s16.31-1.2,18.23-1.55"/>
    </g>
  </g>
  <path class="uuid-86b407d8-a1d9-4dd9-ae5d-57221463755f" d="M113.01,369.28c63.88,4.52,129.33-17.68,177.47-59.85,7.27-6.21,14.17-13.04,20.6-20.12,1.87-2,4.69-5.04,6.37-7.19l6.12-7.41c1.85-2.16,4.02-5.41,5.77-7.68,1.54-2.13,4.21-5.58,5.61-7.8,1.68-2.62,6.28-9.44,7.91-12.06,3.72-6.35,8.6-14.32,11.83-20.92l4.44-8.54c-1.5,3.04-5.06,10-6.5,12.89-2.4,4.88-6.77,12.02-9.41,16.79-2.29,3.76-6.74,10.4-9.15,14.15l-1.42,1.94c-2.71,3.6-5.79,8.13-8.59,11.61-1.19,1.48-6.58,8.02-7.63,9.32-2.21,2.68-5.76,6.32-8.08,8.93-9.83,10.6-20.76,20.13-32.25,28.92-30.96,23.04-67.52,38.19-105.55,44.54-18.96,3.13-38.4,4.39-57.55,2.48h0Z"/>
  <path class="uuid-86b407d8-a1d9-4dd9-ae5d-57221463755f" d="M35.23,214.15c15.76,46.14,49.35,87.81,94.85,107.02l6.82,2.75c2.47,.73,8.08,2.78,10.49,3.42,3.32,.79,7.38,2.02,10.7,2.7,7.21,1.48,14.49,2.61,21.83,3.28,2.29,.12,8.79,.51,11.03,.64,5.63-.02,12.81,.11,18.42-.41l7.36-.48-7.35,.6c-5.6,.61-12.79,.6-18.44,.71-2.25-.1-8.71-.39-11.07-.51-7.37-.6-14.69-1.66-21.95-3.08-3.34-.64-7.44-1.84-10.78-2.63-2.38-.66-8.12-2.64-10.56-3.41l-6.87-2.75c-45.77-19.11-79.54-61.22-94.5-107.86h0Z"/>
</svg>