<?xml version="1.0" encoding="UTF-8"?>
<svg id="uuid-110da0f0-ca30-4688-ae34-abdef1822f84" data-name="Layer 1" xmlns="http://www.w3.org/2000/svg" width="439" height="444" xmlns:xlink="http://www.w3.org/1999/xlink" viewBox="0 0 439 444">
  <defs>
    <style>
      .uuid-a755380e-8e2d-4fea-9199-dfdd3e83817d {
        fill: url(#uuid-fbeddf21-0036-4f46-906c-80f1e44eecae);
      }

      .uuid-c9c89e1f-5f95-4b60-9824-5e2fc7cd8007 {
        fill: #31d0e5;
        stroke: url(#uuid-8fac2492-c3f1-4568-8406-c867f941fff5);
        stroke-width: 6px;
      }

      .uuid-c9c89e1f-5f95-4b60-9824-5e2fc7cd8007, .uuid-4122b52d-00a4-455b-8247-6908f86640e9, .uuid-808107f6-b27a-4bb4-a69e-a50459e4d477, .uuid-338b6d2b-d63f-4253-965a-399c27577e2b {
        stroke-miterlimit: 10;
      }

      .uuid-e6314eb8-3e58-4c74-96c7-fc86372a1dc9, .uuid-338b6d2b-d63f-4253-965a-399c27577e2b {
        fill: #fff;
      }

      .uuid-3adcca5f-a016-4a88-97d6-1196096226ca {
        fill: #6fb738;
      }

      .uuid-a1fad3fc-1443-4c70-84ee-16645fde5292 {
        fill: #d8d8d8;
      }

      .uuid-49fc9850-99fa-4f6d-a66f-7e0aa9eb68d5 {
        opacity: .5;
      }

      .uuid-38bd654d-d317-416e-956e-a9805f4b64d4 {
        fill: #3db038;
      }

      .uuid-70033a57-37bd-4a2a-b871-dbdc86312764 {
        fill: url(#uuid-33a46471-a151-40c1-b9a8-c4a1f737e48c);
      }

      .uuid-4122b52d-00a4-455b-8247-6908f86640e9, .uuid-8c4af49c-ced7-4206-8750-fd9e081515e1, .uuid-808107f6-b27a-4bb4-a69e-a50459e4d477 {
        fill: none;
      }

      .uuid-4122b52d-00a4-455b-8247-6908f86640e9, .uuid-338b6d2b-d63f-4253-965a-399c27577e2b {
        stroke: #afafaf;
      }

      .uuid-fbac6327-af9b-48b0-bbdf-33eb6720d55a {
        fill: #afafaf;
      }

      .uuid-808107f6-b27a-4bb4-a69e-a50459e4d477 {
        stroke: #d8d8d8;
      }

      .uuid-4df7c544-2589-4655-9c10-09d83eabc39c {
        clip-path: url(#uuid-8fa08948-bc59-4784-ac1c-c28de4ffa145);
      }
    </style>
    <clipPath id="uuid-8fa08948-bc59-4784-ac1c-c28de4ffa145">
      <ellipse class="uuid-8c4af49c-ced7-4206-8750-fd9e081515e1" cx="-239.5" cy="222" rx="200.5" ry="200"/>
    </clipPath>
    <linearGradient id="uuid-33a46471-a151-40c1-b9a8-c4a1f737e48c" x1="-254.34" y1="-152.89" x2="-255.13" y2="317.42" gradientTransform="matrix(1, 0, 0, 1, 0, 0)" gradientUnits="userSpaceOnUse">
      <stop offset=".14" stop-color="#a2a2a5"/>
      <stop offset=".15" stop-color="#a2a5a9"/>
      <stop offset=".21" stop-color="#a8bcc3"/>
      <stop offset=".28" stop-color="#adcfd9"/>
      <stop offset=".36" stop-color="#b0ddea"/>
      <stop offset=".46" stop-color="#b3e7f6"/>
      <stop offset=".61" stop-color="#b4edfd"/>
      <stop offset="1" stop-color="#b5efff"/>
    </linearGradient>
    <linearGradient id="uuid-fbeddf21-0036-4f46-906c-80f1e44eecae" x1="40.78" y1="99.54" x2="390.04" y2="338.86" gradientTransform="matrix(1, 0, 0, 1, 0, 0)" gradientUnits="userSpaceOnUse">
      <stop offset="0" stop-color="#9b81cf"/>
      <stop offset="1" stop-color="#3b139b"/>
    </linearGradient>
    <linearGradient id="uuid-8fac2492-c3f1-4568-8406-c867f941fff5" x1="13.71" y1="222" x2="425.29" y2="222" gradientTransform="matrix(1, 0, 0, 1, 0, 0)" gradientUnits="userSpaceOnUse">
      <stop offset="0" stop-color="#4c1da9"/>
      <stop offset="1" stop-color="#997ece"/>
    </linearGradient>
  </defs>
  <g class="uuid-4df7c544-2589-4655-9c10-09d83eabc39c">
    <g>
      <rect class="uuid-70033a57-37bd-4a2a-b871-dbdc86312764" x="-519.77" y="-26.92" width="529.96" height="281.16"/>
      <path class="uuid-38bd654d-d317-416e-956e-a9805f4b64d4" d="M45.69,241.67c-1.25-4.83-5.77-8.4-11.15-8.4-1.19,0-2.33,.17-3.4,.49,.51-.94,.8-2,.8-3.14,0-3.72-3.12-6.74-6.98-6.74-.99,0-1.94,.2-2.79,.56-.15-6.01-5.24-10.83-11.49-10.83-4.54,0-8.47,2.54-10.33,6.24-1.99-2.36-5.02-3.87-8.42-3.87-6,0-10.86,4.7-10.86,10.5,0,.75,.08,1.49,.24,2.2-1.07-.64-2.32-1.01-3.67-1.01-2.34,0-4.41,1.11-5.68,2.82,.27-1.02,.41-2.09,.41-3.2,0-7.16-6.01-12.97-13.42-12.97-2.38,0-4.61,.6-6.55,1.65-.57-3.17-3.43-5.57-6.87-5.57-1.95,0-3.7,.77-4.97,2.01-3.44-3.6-8.36-5.87-13.83-5.87-6.12,0-11.56,2.83-14.99,7.21-1.23-1.06-2.85-1.7-4.63-1.7-3.85,0-6.97,3.02-6.97,6.74,0,.4,.04,.78,.1,1.16-1.66-1.86-4.11-3.04-6.85-3.04-4.16,0-7.66,2.71-8.72,6.41-1.29-3.6-4.83-6.19-8.99-6.19-1.56,0-3.03,.36-4.33,1.01,.65-.86,1.03-1.92,1.03-3.07,0-2.89-2.42-5.22-5.41-5.22-1.37,0-2.62,.5-3.57,1.31-1.62-2.37-4.4-3.93-7.55-3.93-2.28,0-4.36,.82-5.95,2.16-4.27-3.55-9.83-5.71-15.91-5.71-9.77,0-18.2,5.55-22.1,13.56-1.63-1.55-3.87-2.51-6.34-2.51-5,0-9.05,3.91-9.05,8.74,0,1.36,.32,2.64,.89,3.79-1.74-1.03-3.78-1.62-5.96-1.62-5.16,0-9.53,3.31-10.95,7.85-1.4-1.98-3.75-3.27-6.42-3.27-2.04,0-3.89,.76-5.27,2-2.02-5.56-7.5-9.55-13.95-9.55-5.74,0-10.71,3.16-13.16,7.77-1.6-1.19-3.61-1.9-5.79-1.9-3.87,0-7.19,2.23-8.68,5.43-1.27-.46-2.64-.72-4.07-.72-1.19,0-2.33,.17-3.4,.49,.51-.94,.8-2,.8-3.14,0-3.72-3.12-6.74-6.98-6.74-.99,0-1.94,.2-2.79,.56-.15-6.01-5.24-10.83-11.49-10.83-4.54,0-8.47,2.54-10.33,6.24-1.99-2.36-5.02-3.87-8.42-3.87-6,0-10.86,4.7-10.86,10.5,0,.75,.08,1.49,.24,2.2-1.07-.64-2.32-1.01-3.67-1.01-2.34,0-4.41,1.11-5.68,2.82,.27-1.02,.41-2.09,.41-3.2,0-7.16-6.01-12.97-13.42-12.97-2.38,0-4.61,.6-6.55,1.65-.57-3.17-3.43-5.57-6.87-5.57-1.95,0-3.7,.77-4.97,2.01-3.44-3.6-8.36-5.87-13.83-5.87-6.12,0-11.56,2.83-14.99,7.21-1.23-1.06-2.85-1.7-4.63-1.7-3.85,0-6.97,3.02-6.97,6.74,0,.4,.04,.78,.1,1.16-1.66-1.86-4.11-3.04-6.85-3.04-4.16,0-7.66,2.71-8.72,6.41-1.29-3.6-4.83-6.19-8.99-6.19-1.56,0-3.03,.36-4.33,1.01,.65-.86,1.03-1.92,1.03-3.07,0-2.89-2.42-5.22-5.41-5.22-1.37,0-2.62,.5-3.58,1.31-1.62-2.37-4.4-3.93-7.55-3.93-2.28,0-4.36,.82-5.95,2.16-4.27-3.55-9.83-5.71-15.91-5.71-9.77,0-18.2,5.55-22.1,13.56-1.63-1.55-3.87-2.51-6.34-2.51-5,0-9.05,3.91-9.05,8.74,0,1.36,.32,2.64,.89,3.79-1.74-1.03-3.78-1.62-5.96-1.62-5.16,0-9.53,3.31-10.95,7.85-1.4-1.98-3.75-3.27-6.42-3.27-2.04,0-3.89,.76-5.27,2-2.02-5.56-7.5-9.55-13.95-9.55-5.3,0-9.95,2.7-12.56,6.75v43.12H53.69v-36.97c-3.73,.33-6.82,2.77-8.01,6.08Z"/>
      <rect class="uuid-3adcca5f-a016-4a88-97d6-1196096226ca" x="-569.13" y="248.28" width="607.99" height="204.12"/>
    </g>
  </g>
  <g>
    <g>
      <path class="uuid-49fc9850-99fa-4f6d-a66f-7e0aa9eb68d5" d="M432.73,233.24c0-36.23-9.21-70.32-25.42-100.03-35.31-67.72-106.15-113.96-187.81-113.96C102.59,19.25,7.82,114.02,7.82,230.93s94.77,211.68,211.68,211.68c2.97,0,5.93-.08,8.87-.2,113.3-2.59,204.36-95.24,204.36-209.16Z"/>
      <g>
        <circle class="uuid-a755380e-8e2d-4fea-9199-dfdd3e83817d" cx="219.5" cy="222" r="211.68"/>
        <circle class="uuid-c9c89e1f-5f95-4b60-9824-5e2fc7cd8007" cx="219.5" cy="222" r="202.78"/>
      </g>
    </g>
    <g>
      <path class="uuid-e6314eb8-3e58-4c74-96c7-fc86372a1dc9" d="M68.17,152.89s4.95-22.85,30.6-5.74c25.65,17.1-24.25,19.02-46.91,14.86-22.66-4.16,16.31-9.12,16.31-9.12Z"/>
      <path class="uuid-e6314eb8-3e58-4c74-96c7-fc86372a1dc9" d="M117.25,133.15c21.44,10.72,2.05,15.38-15.84,14.37-17.89-1.02-5.61-25.09,15.84-14.37Z"/>
    </g>
    <g>
      <path class="uuid-e6314eb8-3e58-4c74-96c7-fc86372a1dc9" d="M347.44,247.4s4.95-22.85,30.6-5.74c25.65,17.1-24.25,19.02-46.91,14.86-22.66-4.16,16.31-9.12,16.31-9.12Z"/>
      <path class="uuid-e6314eb8-3e58-4c74-96c7-fc86372a1dc9" d="M396.52,227.66c21.44,10.72,2.05,15.38-15.84,14.37-17.89-1.02-5.61-25.09,15.84-14.37Z"/>
    </g>
    <g>
      <g>
        <path class="uuid-338b6d2b-d63f-4253-965a-399c27577e2b" d="M82.25,230.2l89.86,92.58s28.57,20.3,101.18-41.42l104.94-168.51-122.62-36.37,27.44,83.16c-2.19,2.73-5.98,25.58-200.8,70.55Z"/>
        <path class="uuid-a1fad3fc-1443-4c70-84ee-16645fde5292" d="M272.86,280.38l104.38-167.26-120.72-35.4,27.23,81.69s10.89,33.58-10.89,120.97Z"/>
      </g>
      <g>
        <g>
          <line class="uuid-808107f6-b27a-4bb4-a69e-a50459e4d477" x1="113.19" y1="238.15" x2="188.61" y2="313.57"/>
          <line class="uuid-808107f6-b27a-4bb4-a69e-a50459e4d477" x1="127.57" y1="232.51" x2="204.84" y2="309.79"/>
          <line class="uuid-808107f6-b27a-4bb4-a69e-a50459e4d477" x1="143.42" y1="229.27" x2="218.08" y2="303.94"/>
          <line class="uuid-808107f6-b27a-4bb4-a69e-a50459e4d477" x1="171.35" y1="220.51" x2="240.13" y2="289.29"/>
          <line class="uuid-808107f6-b27a-4bb4-a69e-a50459e4d477" x1="185" y1="214.48" x2="251.25" y2="282.88"/>
          <line class="uuid-808107f6-b27a-4bb4-a69e-a50459e4d477" x1="156.49" y1="224.61" x2="229.74" y2="297.87"/>
          <line class="uuid-808107f6-b27a-4bb4-a69e-a50459e4d477" x1="199.35" y1="210.32" x2="264.88" y2="275.86"/>
          <line class="uuid-808107f6-b27a-4bb4-a69e-a50459e4d477" x1="213.73" y1="204.69" x2="276.48" y2="267.44"/>
          <line class="uuid-808107f6-b27a-4bb4-a69e-a50459e4d477" x1="229.58" y1="201.45" x2="281.63" y2="253.51"/>
          <line class="uuid-808107f6-b27a-4bb4-a69e-a50459e4d477" x1="257.51" y1="192.69" x2="295.44" y2="230.62"/>
          <line class="uuid-808107f6-b27a-4bb4-a69e-a50459e4d477" x1="271.16" y1="186.65" x2="304.24" y2="217.63"/>
          <line class="uuid-808107f6-b27a-4bb4-a69e-a50459e4d477" x1="278.94" y1="177.75" x2="312.02" y2="208.73"/>
          <line class="uuid-808107f6-b27a-4bb4-a69e-a50459e4d477" x1="242.65" y1="196.79" x2="287.7" y2="241.84"/>
        </g>
        <path class="uuid-4122b52d-00a4-455b-8247-6908f86640e9" d="M278.16,101.93s78.15,19.51,92.28,21.86"/>
        <path class="uuid-4122b52d-00a4-455b-8247-6908f86640e9" d="M282.37,113.11s68.53,17.58,82.65,19.93"/>
        <path class="uuid-4122b52d-00a4-455b-8247-6908f86640e9" d="M286.23,125.98s57.68,12.78,71.81,15.14"/>
        <path class="uuid-4122b52d-00a4-455b-8247-6908f86640e9" d="M293.05,142.79s8.05,23.21,3,47.17h33.23s22.93-38.76,22.04-36.32c-.27,.75-58.27-10.85-58.27-10.85Z"/>
        <path class="uuid-4122b52d-00a4-455b-8247-6908f86640e9" d="M295.44,202.14s22.41-.42,24.34-.69"/>
        <path class="uuid-4122b52d-00a4-455b-8247-6908f86640e9" d="M295.44,213.5s16.35-.42,18.29-.69"/>
      </g>
    </g>
    <path class="uuid-fbac6327-af9b-48b0-bbdf-33eb6720d55a" d="M111.06,366.78c63.6,7.54,130.03-11.53,180.11-51.36,7.56-5.86,14.77-12.35,21.53-19.12,1.96-1.91,4.93-4.82,6.7-6.88l6.47-7.11c1.95-2.07,4.28-5.21,6.13-7.4,1.64-2.05,4.47-5.37,5.97-7.53,1.8-2.54,6.72-9.14,8.47-11.67,4.01-6.16,9.27-13.9,12.81-20.34l4.84-8.32c-1.64,2.96-5.53,9.75-7.1,12.57-2.63,4.76-7.33,11.69-10.2,16.33-2.47,3.65-7.23,10.07-9.81,13.7l-1.51,1.87c-2.88,3.47-6.17,7.84-9.13,11.19-1.25,1.42-6.96,7.7-8.06,8.94-2.34,2.57-6.05,6.04-8.49,8.54-10.32,10.12-21.7,19.13-33.58,27.35-32.01,21.55-69.26,34.94-107.55,39.49-19.09,2.22-38.56,2.57-57.6-.25h0Z"/>
    <path class="uuid-fbac6327-af9b-48b0-bbdf-33eb6720d55a" d="M40.73,208.13c13.55,46.84,45.14,90.05,89.67,111.39l6.68,3.07c2.44,.85,7.94,3.16,10.32,3.92,3.28,.95,7.27,2.37,10.56,3.2,7.13,1.82,14.35,3.29,21.65,4.31,2.28,.22,8.75,.93,10.99,1.17,5.63,.24,12.79,.71,18.42,.46l7.38-.13-7.37,.25c-5.62,.34-12.81,0-18.45-.16-2.25-.21-8.68-.8-11.03-1.04-7.34-.95-14.59-2.36-21.78-4.12-3.31-.8-7.35-2.19-10.64-3.14-2.35-.78-7.98-3.02-10.39-3.91l-6.73-3.07c-44.82-21.26-76.55-64.92-89.28-112.22h0Z"/>
  </g>
</svg>