<svg id="SB39_Interactive_Icon_03_F1" xmlns="http://www.w3.org/2000/svg" xmlns:xlink="http://www.w3.org/1999/xlink" viewBox="0 0 718 661"><defs><style>.cls-1{fill:url(#linear-gradient);}.cls-2{fill:#31d0e5;stroke-width:6px;stroke:url(#linear-gradient-2);}.cls-2,.cls-21{stroke-miterlimit:10;}.cls-3,.cls-5{opacity:0.5;}.cls-4,.cls-5{fill:#fff;}.cls-6{fill:#ffb850;}.cls-7{fill:#ff9c0d;}.cls-8{fill:#e0501b;}.cls-9{fill:#f28314;}.cls-10{fill:#c74900;}.cls-11{fill:#1f2163;}.cls-12{fill:#ffb76e;}.cls-13{fill:#171a47;}.cls-14{fill:#0f1480;}.cls-15{fill:#3840a0;}.cls-16{fill:#111466;}.cls-17{fill:#26297a;}.cls-18{fill:#2e3192;}.cls-19{fill:#f7931e;}.cls-20,.cls-22{fill:#630f0f;}.cls-20,.cls-29{opacity:0.4;}.cls-21{fill:#f4c9ab;stroke:#965e38;stroke-width:0.25px;}.cls-22,.cls-24{opacity:0.3;}.cls-23{fill:#3d3b3b;}.cls-25{fill:#ff2727;}.cls-26{fill:#565656;}.cls-27,.cls-29{fill:#766599;}.cls-28{fill:#ece3ff;}.cls-30{fill:#ffb680;}.cls-31{fill:#660f0f;}</style><linearGradient id="linear-gradient" x1="104.06" y1="155.82" x2="602.27" y2="497.19" gradientUnits="userSpaceOnUse"><stop offset="0" stop-color="#9b81cf"/><stop offset="1" stop-color="#3b139b"/></linearGradient><linearGradient id="linear-gradient-2" x1="66.74" y1="330.5" x2="651.26" y2="330.5" gradientUnits="userSpaceOnUse"><stop offset="0" stop-color="#4c1da9"/><stop offset="1" stop-color="#997ece"/></linearGradient></defs><g id="Layer_1" data-name="Layer 1"><circle class="cls-1" cx="359" cy="330.5" r="301.9"/><circle class="cls-2" cx="359" cy="330.5" r="289.3"/><g id="_04" data-name="04" class="cls-3"><g class="cls-3"><path class="cls-4" d="M455,216.9s7.2-33.2,43.8-8.2-34.8,27.5-67.2,21.4S455,216.9,455,216.9Z"/><path class="cls-4" d="M525.3,188.4c30.6,15.6,2.9,22.3-22.7,20.8S494.6,172.7,525.3,188.4Z"/></g><path class="cls-5" d="M173.7,499.4c30.6,15.7,2.8,22.4-22.8,20.8S143,483.7,173.7,499.4Z"/></g><g id="_02" data-name="02"><path class="cls-6" d="M232.5,502.2,359,357,538.5,135S159.2,352.1,154.7,362.1,232.5,502.2,232.5,502.2Z"/><path class="cls-7" d="M172.7,377.2c2.7-6.1,160.3-75,269.3-122.1l96.6-119.5S159.3,352.8,154.9,362.8s77.8,140,77.8,140l5.5-6.3C219.6,466.8,169.3,384.8,172.7,377.2Z"/><path class="cls-8" d="M325.5,391.1a.4.4,0,0,1-.5.1L156.6,368.4c-.4-.1-.7-.4-.6-.8a.7.7,0,0,1,.8-.5l168.4,22.8c.4.1.7.4.6.8S325.7,391,325.5,391.1Z"/><path class="cls-8" d="M282.9,439.4a.9.9,0,0,1-.7,0L157.4,375c-.4-.1-.5-.5-.3-.9a.8.8,0,0,1,1-.2l124.8,64.4a.8.8,0,0,1,.3.9Z"/><path class="cls-8" d="M252.2,475.3a.7.7,0,0,1-.9-.1l-84.7-82.9a.6.6,0,0,1,.1-.9.6.6,0,0,1,.9,0l84.7,82.9a.6.6,0,0,1,0,.9Z"/><path class="cls-8" d="M385.4,320.4c0,.1-.1.1-.3.1L169.6,353.7a.7.7,0,0,1-.8-.5.8.8,0,0,1,.6-.8l215.5-33.2c.4,0,.8.2.8.6S385.6,320.3,385.4,320.4Z"/><path class="cls-8" d="M425,270.9h-.2L210.1,327.9a.7.7,0,0,1-.8-.5.7.7,0,0,1,.4-.8l214.7-56.8a.8.8,0,0,1,.9.4A.5.5,0,0,1,425,270.9Z"/><path class="cls-8" d="M465.8,218.3h-.1L258.5,297a.9.9,0,0,1-.9-.4.6.6,0,0,1,.4-.8l207.2-78.6a.7.7,0,0,1,.9.4A.5.5,0,0,1,465.8,218.3Z"/><path class="cls-8" d="M206.4,439.6a1.7,1.7,0,0,1-1.8.1,1.5,1.5,0,0,1-.8-2.1c1.6-3,39.4-72.6,42.4-76.9S363,236.4,367.8,231.3a2,2,0,0,1,2.5-.1,1.6,1.6,0,0,1,.2,2.3c-33,34.6-118.9,125.4-121.4,128.9S220.5,414,206.9,439A1,1,0,0,1,206.4,439.6Z"/><path class="cls-8" d="M359.9,358.2a1.7,1.7,0,0,1-1,.3l-202.4,5.2a1.8,1.8,0,0,1-1.8-1.6,1.7,1.7,0,0,1,1.7-1.6l202.4-5.2a1.6,1.6,0,0,1,1.8,1.5A1.5,1.5,0,0,1,359.9,358.2Z"/><path class="cls-9" d="M234.5,504.5h-.2a3.3,3.3,0,0,1-4.3-1.1c-.2-.3-20.3-32.3-39.9-65.3-40-67.5-38.9-73.1-38.4-75.5s1-5.1,62.2-42.3c32-19.4,76.4-45.6,131.9-77.9,94.6-55,190.2-109.3,191.1-109.9a3.4,3.4,0,0,1,4.4,1,2.7,2.7,0,0,1-1.1,4c-.9.6-94.2,53.6-187.7,107.9C192.4,338.5,161.4,359.8,157.9,364c.1,2.4,3.9,14.4,38.2,72.1,19.3,32.7,39.1,64.2,39.3,64.5A2.8,2.8,0,0,1,234.5,504.5ZM157.7,364.3Z"/><path class="cls-4" d="M203.9,328.2c-16.8,10.7-34.3,20.7-49.9,33a.6.6,0,0,0,.8,1c15.6-12.3,33-22.3,49.9-33C205.4,328.7,204.6,327.7,203.9,328.2Z"/><path class="cls-4" d="M262.3,294.1A197.8,197.8,0,0,1,234.7,310c-8.7,4.2-16,10.2-24.6,14.6-.8.4,0,1.4.7,1a111.8,111.8,0,0,0,12.4-7.7,105.7,105.7,0,0,1,13.2-7.3,208.5,208.5,0,0,0,26.7-15.5C263.8,294.7,263,293.7,262.3,294.1Z"/><path class="cls-4" d="M537.1,134.8c-7.1,4.4-15.1,7.4-22.4,11.5s-13.8,9.1-21.2,13c-.7.3,0,1.4.8,1,7.4-3.9,13.9-9,21.2-13s15.2-7.1,22.4-11.5C538.6,135.4,537.8,134.4,537.1,134.8Z"/><path class="cls-4" d="M199.4,449c-6.7-13.7-15-26.7-22.5-39.9-3.8-6.6-7.4-13.2-10.5-20-1.6-3.5-3-7-4.7-10.4s-4.6-6.5-5.4-10.2c-.1-.8-1.5-.7-1.3.1.6,2.9,2.3,5.2,3.8,7.7s3.7,7.4,5.4,11.1c3.2,7.2,6.9,14.2,10.8,21.1,7.8,13.6,16.2,26.9,23.2,40.9C198.5,450.1,199.8,449.7,199.4,449Z"/><path class="cls-10" d="M278,409.6h-.1c-.2-.1-.3-.2-.3-.4l5.8-50.1c0-.1.1-.2.3-.2s.2,0,.3.1l17.4,28.4a.4.4,0,0,1-.1.5c-.2,0-.4,0-.5-.2L284,360.2l-5.7,49.1C278.2,409.4,278.1,409.6,278,409.6Z"/><path class="cls-10" d="M339,385.9h-.2l-55.2-26.5c-.2,0-.3-.2-.2-.4a.4.4,0,0,1,.5-.1l55.2,26.4c.1.1.2.3.1.4A.2.2,0,0,1,339,385.9Z"/><path class="cls-11" d="M290.3,411.8c3.3,5.8,6,22.6,4.5,27.5-2.2,7-24.2,14.4-29.6,13.9-1.9-.2-2.1-3.5-.7-4.2s18.5-10.4,19.2-11.2-3.9-15.1-5.5-23.5C276.2,402.9,286.3,404.7,290.3,411.8Z"/><path class="cls-12" d="M262.6,448.8c-1.8.1-4.5,1.6-4.9,3.7s.2,5,1.6,5.2,1.4-2.7,3.1-3c3.2-.6,3.5-2.1,3.2-3.5A2.9,2.9,0,0,0,262.6,448.8Z"/><path class="cls-12" d="M374.4,369.8c.7-1.6,2.8-5.4,3.1-6.1s4.1-.7,3.4,1.1-1.5,4.2-2.1,5.6S373.9,370.7,374.4,369.8Z"/><path class="cls-13" d="M377.3,363.9c-.5,0-1.5-2.7-.8-3.4s4.7-1.6,7.3-2.1,5.4-1,5.2.1-2.2,1.8-4.9,4.1-2.6,2.4-3.9,2.4S379.1,363.6,377.3,363.9Z"/><path class="cls-14" d="M326.8,414.3c8.5-.8,31.6-10.8,39.4-15.4s15.5-26.7,16.5-29.2-5.1-5.1-9.3-2.6-8.7,16.7-16.1,20.2-17.7,1.4-30.7,8C317.8,399.7,321.4,414.9,326.8,414.3Z"/><path class="cls-12" d="M392.9,362.1c1.3-1.3,4.7-4.1,5.3-4.7s4.1.7,2.8,2.2-3.1,3.5-4.2,4.5S392.2,362.8,392.9,362.1Z"/><path class="cls-13" d="M397.9,357.5c-.4-.1-.3-2.9.6-3.4s5,.1,7.6.5,5.6.8,4.9,1.8-2.7,1-6.2,2.2c-1.8.6-3.3,1.4-4.6.9S399.7,357.9,397.9,357.5Z"/><path class="cls-15" d="M336.3,406.7c8.6-.9,31.6-10.9,39.4-15.4s24.2-25.2,25.2-26.9-4.2-6.9-8.3-4.4-18.3,16.2-25.7,19.6-17.7,1.4-30.8,8C327.3,392,331,407.2,336.3,406.7Z"/><path class="cls-16" d="M393.8,363.7c-3.1,3.4-6.4,6.8-9.7,10.1s-6.7,6.6-10.7,9c-8.3,4.9-18.9,5.3-27.8,8.9-.6.3-.3,1.1.3.9,9-3.7,19.7-4.1,28.1-9.1,3.7-2.2,6.9-5.4,10-8.3s7.2-7.2,10.6-10.9C395,363.9,394.2,363.3,393.8,363.7Z"/><path class="cls-17" d="M278.4,409c1.6-4.6,10-14.7,19.1-19,6.5-3.1,33-2.8,38-3.9,8.2-1.9,6.2,25.3-6.8,28.2-21.6,4.9-36.6,9.8-43.3,5.9S277.7,410.8,278.4,409Z"/><path class="cls-12" d="M273.8,401s7.5,4,9.1,5.3c3.9,3.2,6.4-5,3.8-6.4a60.6,60.6,0,0,0-13.7-5.8Z"/><path class="cls-18" d="M280.8,405c2.9-.5-.2-5.1.3-7.9s3.8.7,6.3,0,3.8,8.6,0,11.7S279.4,405.2,280.8,405Z"/><path class="cls-16" d="M289.2,401.4c.1,1.8-1.5,9.3-4.9,7.4-.5-.3-.9.6-.4.9,4.3,2.4,6.5-5.9,6.3-8.3C290.1,400.8,289.1,400.8,289.2,401.4Z"/><path class="cls-16" d="M289.5,398.1c-.4-.5-1.2,0-.9.5a.7.7,0,0,1,.2.6c.1.6,1.1.5,1-.1A1.7,1.7,0,0,0,289.5,398.1Z"/><path class="cls-16" d="M306.5,410.4c-5.8.9-11.9,2-17.2-.8a.5.5,0,0,0-.5.8c5.6,3,11.7,1.8,17.8.9C307.2,411.3,307.1,410.3,306.5,410.4Z"/><path class="cls-19" d="M340.9,385.3c-.3-.3-2.9-.8-3.4-.1A36.9,36.9,0,0,0,326,385c-5,.5-10,.8-15,1.1s-18.2.5-18.1,7.4,10.8,9.4,16.8,9.8c9,.7,18.5.6,27.3-1.2a45.9,45.9,0,0,1-5.5,9c-9.3,3.2-19.1,4.9-28.9,6.4-4.4.6-9,1.2-13.4.5s-11.9-5.1-10.6-9.7c.2-.5-.2-.7-.8.2-1.9,3,2.2,6.2,4.9,8.1s8.4,3.1,13,2.9a131,131,0,0,0,17.6-2.6,122.4,122.4,0,0,0,16.9-4.1c-2.7,3.8,6.5-1.7,9.8-9.5S341.4,385.7,340.9,385.3Zm-2.2,9.7a16.5,16.5,0,0,1-1.1,5.7c-7.5,1.7-15.3,1.7-23,1.6a50.4,50.4,0,0,1-10.9-1.1c-3.6-.9-10.2-3.6-9.4-8.1s7.8-4.9,11.5-5.3,7.5-.6,11.3-.8c6.9-.4,13.9-2,20.7-.5C338.3,387.6,338.8,389.7,338.7,395Z"/><path class="cls-15" d="M304.8,388.2c7.1.5,24.9,6.3,29.8,12s-19.3,18.1-24,19.2c-1.8.4-2.9-2.9-2.1-4.2s13.5-9.6,13.4-10.6-12.2-1.1-20.6-4.6C290,395.2,296.1,387.6,304.8,388.2Z"/><path class="cls-15" d="M322.2,404.2c-.9-1.2-5.5-1.4-6.9-1.7a52.2,52.2,0,0,1-10.5-2.7c-.6-.3-1.1.6-.5.8a67.1,67.1,0,0,0,11.9,3.1l3.2.6,1.1.3c1.1.1,1.2.4,0,1.1s-4.3,3.6-6,4.8,0,1.2.5.8S323.6,406,322.2,404.2Z"/><path class="cls-8" d="M254.7,462.7a1.9,1.9,0,0,1-1.8.1,1.5,1.5,0,0,1-1-1.4L248,360.6a1.6,1.6,0,0,1,.9-1.5,1.9,1.9,0,0,1,1.8,0l76.6,44.2a1.3,1.3,0,0,1,.8,1.2,1.5,1.5,0,0,1-.6,1.4l-72.7,56.7Zm-3-99.2,3.6,94.5,68.1-53.2Z"/><path class="cls-4" d="M253.4,460.7h0a.7.7,0,0,1-.7-.6l-3.6-98.4c-.1-.3.2-.6.6-.6a.6.6,0,0,1,.7.6l3.7,98.3A.8.8,0,0,1,253.4,460.7Z"/><path class="cls-4" d="M261.8,454.9c-.2,0-.4,0-.5-.2a.6.6,0,0,1,0-.9l42.3-32.9a.6.6,0,1,1,.8.9l-42.2,33Z"/><path class="cls-20" d="M281.8,398.6c-1.2-.9-1.7,5.3-1.7,5.3a25.8,25.8,0,0,1,3.1,1.8,11.9,11.9,0,0,0,.9-3.6,6.4,6.4,0,0,0-.9-3.1Z"/><path class="cls-21" d="M280.9,407.3c-1.1,1.4-4.9,1.6-9.6-.2s-8.8-2.6-9.9-4.3S263,391,267.7,390s10,2.5,11.8,4.6,3.8,4.8,3.7,6.8A10.3,10.3,0,0,1,280.9,407.3Z"/><path class="cls-22" d="M271.7,404.1a27.5,27.5,0,0,0,3.4,2.3c.8.3,1.3-2.2,1.3-2.2s-.7,1.6-1.6,1.3a15.1,15.1,0,0,1-2.9-2S271,403.2,271.7,404.1Z"/><path class="cls-22" d="M274.8,390.5h0c-.5.5-2.4,4-3.1,5.1a2.8,2.8,0,0,0-2.2,0c-2.6,1.2-5.2,6.3-5.2,9.1h0l7,2.4a15.3,15.3,0,0,0,2.6.8c.9-1.4,1.3-3.7,1.8-5.7a6.4,6.4,0,0,0-1.7-4.9l3-5.5Z"/><path class="cls-22" d="M281.7,397.4c-.6-.9-1.3-1.7-2.2-2.8s-7.2-5.7-11.8-4.6-7.5,11-6.3,12.8,2,1.6,3.9,2.3l3.8-2.4c3.8-2.4,2.3-9.3,7-6.7S281.3,398,281.7,397.4Z"/><path class="cls-23" d="M263.8,405c-2.8,1.9-7.4.4-4.3-6.4s6.2-11.9,12.5-9.4,9.3,6.2,9.3,7.1-1,1.7-5.8-1-3.1,4.3-7,6.7Z"/><g class="cls-24"><path class="cls-25" d="M277.6,394.8c-1.6-.9-2.5-.7-3.1.1l1,.4c4.5,2.5,5.6,1.9,5.7,1.1A15.9,15.9,0,0,1,277.6,394.8Z"/><path class="cls-26" d="M261.5,398.1c2-4.5,4-8.2,7-9.5-4.1.3-6.6,4.6-9,10s1.1,8.1,3.9,6.6C261.1,405.1,259.3,403,261.5,398.1Z"/></g><path class="cls-27" d="M271.5,408.8c-1.4.1-6.7-1.2-7.7-3.4s2-8.8,5-10.2,6.9,3.6,6.2,6.6S273.7,408.5,271.5,408.8Z"/><path class="cls-28" d="M268.8,396.6c-1.7.8-4,5.1-5.1,8.5,0,.1,0,.3.1.3,1,2.2,6.3,3.5,7.7,3.4l1.1-.4c.6-1.9,1-4.1,1.3-5.4S271.5,395.4,268.8,396.6Z"/><path class="cls-29" d="M269,397.2c1.9-.9,4,1.4,4.8,3.8-.6-2.6-2.9-5.3-5-4.4s-4,5.1-5.1,8.5c0,.1,0,.3.1.3a.3.3,0,0,0,.1.2C265,402.2,267.2,398,269,397.2Z"/><g class="cls-3"><path class="cls-4" d="M273,406.7l-6.8-7.1-1.5,2.9,6.2,6.2h.6l1.1-.4C272.7,407.8,272.9,407.3,273,406.7Z"/><path class="cls-4" d="M268,397.2a6.3,6.3,0,0,0-1,1.2l6.4,7.1a8.5,8.5,0,0,1,.4-1.7Z"/></g><path class="cls-27" d="M270.8,395.6s2.7-4.9,3.3-5.5,2.4.9,2.2,1.3-3.2,5.8-3.2,5.8Z"/><path class="cls-30" d="M275,396.4c-1.5-1.1.7-3.2,2-2.4s2.7,2.8,3.1,3-.7,1.5-2.2,1.1A8.2,8.2,0,0,1,275,396.4Z"/><path class="cls-31" d="M276.7,407.2c-.8-.2.2-1.9.6-2.3s1.3.2,1.1.9S277.6,407.3,276.7,407.2Z"/><path class="cls-21" d="M305.5,421.9a3.3,3.3,0,0,1,0,3.1,4.2,4.2,0,0,1-2.6,2l-1.2-3.5Z"/><path class="cls-21" d="M301.5,426.3a7.5,7.5,0,0,0-.3,2.7s.5,1.1,1.7.1a5.1,5.1,0,0,0,1.4-4.3"/><path class="cls-21" d="M306.4,418.7a1.8,1.8,0,0,0-1.8-.8,6.5,6.5,0,0,0-2.5,1.1l-2.9,1.5a4.3,4.3,0,0,0-1.5.5,1.5,1.5,0,0,0-.6,2.2h0a4.6,4.6,0,0,0,1.8,3.6,1.8,1.8,0,0,0,2.1.5,1.2,1.2,0,0,0,.6-1.1s.5.4,1.6-.8v-.2h.4a3.5,3.5,0,0,0,1.5-1.2v-.3a4.6,4.6,0,0,0,1.8-.9,1.5,1.5,0,0,0,.3-2.1l-1.8,1.1s-1-.1-1.4-1.8"/><path class="cls-21" d="M301.9,426.3s-.6,0-2.2-2.2-.6-2.7-.6-2.7"/><path class="cls-21" d="M303.2,425.2a6.2,6.2,0,0,1-2.4-4.2"/><path class="cls-21" d="M305.2,423.8l-.2-.2a6.8,6.8,0,0,1-2.4-3.2h0v-.7"/><path class="cls-21" d="M267.9,451.3a3.9,3.9,0,0,0,2.9,1.9,5.7,5.7,0,0,0,3.6-1l-2.5-3.1Z"/><path class="cls-21" d="M274.6,450.6a11.4,11.4,0,0,1,2.7,1.4s.8,1.1-1,1.4a6,6,0,0,1-4.9-1.4"/><path class="cls-21" d="M264.3,450.1a1.8,1.8,0,0,1,.4-2,7.4,7.4,0,0,1,2.7-1.4l3.1-1.4a5.4,5.4,0,0,1,1.5-1,1.8,1.8,0,0,1,2.4.9h0a4.9,4.9,0,0,1,2.3,3.5,1.7,1.7,0,0,1-.8,2.1,1.5,1.5,0,0,1-1.5-.1s0,.6-1.7.8h-.3v.3a3.6,3.6,0,0,1-2.1.6h-.3a4.8,4.8,0,0,1-2.1.9,1.6,1.6,0,0,1-2-1l2.1-.8s.5-.9-.8-2.3"/><path class="cls-21" d="M274.3,450.9s.4-.4-.6-3.1a3.2,3.2,0,0,0-2.3-2.1"/><path class="cls-21" d="M272.4,451.4s.2-2.3-2.4-4.5"/><path class="cls-21" d="M269.9,452.2v-.3a7.1,7.1,0,0,0-1.6-3.9h0l-.7-.3"/></g></g></svg>