<svg id="SB39_Interactive_Icon_07_F1" xmlns="http://www.w3.org/2000/svg" xmlns:xlink="http://www.w3.org/1999/xlink" viewBox="0 0 718 661"><defs><style>.cls-1{mask:url(#mask);filter:url(#luminosity-noclip-30);}.cls-10,.cls-12,.cls-14,.cls-16,.cls-18,.cls-2,.cls-20,.cls-22,.cls-24,.cls-26,.cls-28,.cls-30,.cls-32,.cls-34,.cls-36,.cls-38,.cls-4,.cls-40,.cls-42,.cls-44,.cls-6,.cls-8{mix-blend-mode:multiply;}.cls-2{fill:url(#radial-gradient);}.cls-3{mask:url(#mask-2);filter:url(#luminosity-noclip-31);}.cls-4{fill:url(#radial-gradient-2);}.cls-5{mask:url(#mask-3);filter:url(#luminosity-noclip-34);}.cls-6{fill:url(#radial-gradient-3);}.cls-7{mask:url(#mask-4);filter:url(#luminosity-noclip-35);}.cls-8{fill:url(#radial-gradient-4);}.cls-9{mask:url(#mask-5);filter:url(#luminosity-noclip-25);}.cls-10{fill:url(#radial-gradient-5);}.cls-11{mask:url(#mask-6);filter:url(#luminosity-noclip-36);}.cls-12{fill:url(#radial-gradient-6);}.cls-13{mask:url(#mask-7);filter:url(#luminosity-noclip-39);}.cls-14{fill:url(#radial-gradient-7);}.cls-15{mask:url(#mask-8);filter:url(#luminosity-noclip-40);}.cls-16{fill:url(#radial-gradient-8);}.cls-17{mask:url(#mask-9);filter:url(#luminosity-noclip-41);}.cls-18{fill:url(#radial-gradient-9);}.cls-19{mask:url(#mask-10);filter:url(#luminosity-noclip-44);}.cls-20{fill:url(#radial-gradient-10);}.cls-21{mask:url(#mask-11);filter:url(#luminosity-noclip-45);}.cls-22{fill:url(#radial-gradient-11);}.cls-23{mask:url(#mask-12);filter:url(#luminosity-noclip-48);}.cls-24{fill:url(#radial-gradient-12);}.cls-25{mask:url(#mask-13);filter:url(#luminosity-noclip-26);}.cls-26{fill:url(#radial-gradient-13);}.cls-27{mask:url(#mask-14);filter:url(#luminosity-noclip-49);}.cls-28{fill:url(#radial-gradient-14);}.cls-29{mask:url(#mask-15);filter:url(#luminosity-noclip-50);}.cls-30{fill:url(#radial-gradient-15);}.cls-31{mask:url(#mask-16);filter:url(#luminosity-noclip-53);}.cls-32{fill:url(#radial-gradient-16);}.cls-33{mask:url(#mask-17);filter:url(#luminosity-noclip-54);}.cls-34{fill:url(#radial-gradient-17);}.cls-35{mask:url(#mask-18);filter:url(#luminosity-noclip-55);}.cls-36{fill:url(#radial-gradient-18);}.cls-37{mask:url(#mask-19);filter:url(#luminosity-noclip-58);}.cls-38{fill:url(#radial-gradient-19);}.cls-39{mask:url(#mask-20);filter:url(#luminosity-noclip-59);}.cls-40{fill:url(#radial-gradient-20);}.cls-41{mask:url(#mask-21);filter:url(#luminosity-noclip-60);}.cls-42{fill:url(#radial-gradient-21);}.cls-43{mask:url(#mask-22);filter:url(#luminosity-noclip-29);}.cls-44{fill:url(#radial-gradient-22);}.cls-45{fill:none;}.cls-46{fill:url(#linear-gradient);}.cls-47,.cls-49{fill:#31d0e5;}.cls-47{stroke-miterlimit:10;stroke-width:6px;stroke:url(#linear-gradient-2);}.cls-48{clip-path:url(#clip-path);}.cls-50{mask:url(#mask-23);}.cls-51{fill:#d2f1f9;}.cls-52{mask:url(#mask-24);}.cls-53{fill:#b3e3fa;}.cls-54,.cls-58{opacity:0.7;}.cls-55{mask:url(#mask-25);}.cls-56,.cls-58{fill:#eff5f9;}.cls-57{mask:url(#mask-26);}.cls-59{mask:url(#mask-27);}.cls-60{mask:url(#mask-28);}.cls-61{mask:url(#mask-29);}.cls-62{mask:url(#mask-30);}.cls-63{mask:url(#mask-31);}.cls-64{mask:url(#mask-32);}.cls-65{mask:url(#mask-33);}.cls-66{mask:url(#mask-34);}.cls-67{mask:url(#mask-35);}.cls-68{mask:url(#mask-36);}.cls-69{mask:url(#mask-37);}.cls-70{mask:url(#mask-38);}.cls-71{mask:url(#mask-39);}.cls-72{mask:url(#mask-40);}.cls-73{mask:url(#mask-41);}.cls-74{mask:url(#mask-42);}.cls-75{mask:url(#mask-43);}.cls-76{mask:url(#mask-44);}.cls-77{mask:url(#mask-45);}.cls-78{mask:url(#mask-46);}.cls-79{mask:url(#mask-47);}.cls-80{mask:url(#mask-48);}.cls-81{mask:url(#mask-49);}.cls-82{mask:url(#mask-50);}.cls-83{mask:url(#mask-51);}.cls-84{mask:url(#mask-52);}.cls-85{mask:url(#mask-53);}.cls-86{mask:url(#mask-54);}.cls-87{mask:url(#mask-55);}.cls-88{mask:url(#mask-56);}.cls-89{mask:url(#mask-57);}.cls-90{mask:url(#mask-58);}.cls-91{mask:url(#mask-59);}.cls-92{mask:url(#mask-60);}.cls-93{filter:url(#luminosity-noclip-57);}.cls-94{filter:url(#luminosity-noclip-56);}.cls-95{filter:url(#luminosity-noclip-52);}.cls-96{filter:url(#luminosity-noclip-51);}.cls-97{filter:url(#luminosity-noclip-47);}.cls-98{filter:url(#luminosity-noclip-46);}.cls-99{filter:url(#luminosity-noclip-43);}.cls-100{filter:url(#luminosity-noclip-42);}.cls-101{filter:url(#luminosity-noclip-38);}.cls-102{filter:url(#luminosity-noclip-37);}.cls-103{filter:url(#luminosity-noclip-33);}.cls-104{filter:url(#luminosity-noclip-32);}.cls-105{filter:url(#luminosity-noclip-28);}.cls-106{filter:url(#luminosity-noclip-27);}.cls-107{filter:url(#luminosity-noclip-24);}.cls-108{filter:url(#luminosity-noclip-23);}.cls-109{filter:url(#luminosity-noclip-22);}.cls-110{filter:url(#luminosity-noclip-21);}.cls-111{filter:url(#luminosity-noclip-20);}.cls-112{filter:url(#luminosity-noclip-19);}.cls-113{filter:url(#luminosity-noclip-18);}.cls-114{filter:url(#luminosity-noclip-17);}.cls-115{filter:url(#luminosity-noclip-16);}.cls-116{filter:url(#luminosity-noclip-15);}.cls-117{filter:url(#luminosity-noclip-14);}.cls-118{filter:url(#luminosity-noclip-13);}.cls-119{filter:url(#luminosity-noclip-12);}.cls-120{filter:url(#luminosity-noclip-11);}.cls-121{filter:url(#luminosity-noclip-10);}.cls-122{filter:url(#luminosity-noclip-9);}.cls-123{filter:url(#luminosity-noclip-8);}.cls-124{filter:url(#luminosity-noclip-7);}.cls-125{filter:url(#luminosity-noclip-6);}.cls-126{filter:url(#luminosity-noclip-5);}.cls-127{filter:url(#luminosity-noclip-4);}.cls-128{filter:url(#luminosity-noclip-3);}.cls-129{filter:url(#luminosity-noclip-2);}.cls-130{filter:url(#luminosity-noclip);}</style><filter id="luminosity-noclip" x="418.1" y="-4077.76" width="26.14" height="32766" filterUnits="userSpaceOnUse" color-interpolation-filters="sRGB"><feFlood flood-color="#fff" result="bg"/><feBlend in="SourceGraphic" in2="bg"/></filter><mask id="mask" x="418.1" y="-4077.76" width="26.14" height="32766" maskUnits="userSpaceOnUse"><g class="cls-130"/></mask><radialGradient id="radial-gradient" cx="227.54" cy="-3310.05" r="8.34" gradientTransform="matrix(4.04, -0.55, 0.52, 4.2, 1264.67, 14212.59)" gradientUnits="userSpaceOnUse"><stop offset="0.17"/><stop offset="0.37" stop-color="#454545"/><stop offset="0.63" stop-color="#9b9b9b"/><stop offset="0.82" stop-color="#d1d1d1"/><stop offset="0.9" stop-color="#e6e6e6"/></radialGradient><filter id="luminosity-noclip-2" x="442.92" y="-4077.76" width="51.54" height="32766" filterUnits="userSpaceOnUse" color-interpolation-filters="sRGB"><feFlood flood-color="#fff" result="bg"/><feBlend in="SourceGraphic" in2="bg"/></filter><mask id="mask-2" x="442.92" y="-4077.76" width="51.54" height="32766" maskUnits="userSpaceOnUse"><g class="cls-129"/></mask><radialGradient id="radial-gradient-2" cx="343.41" cy="-3239.72" r="25.55" gradientTransform="translate(-890.8 11759) scale(3.83 3.58)" gradientUnits="userSpaceOnUse"><stop offset="0.84"/><stop offset="0.85" stop-color="#2a2a2a"/><stop offset="0.86" stop-color="#5b5b5b"/><stop offset="0.87" stop-color="#868686"/><stop offset="0.88" stop-color="#a9a9a9"/><stop offset="0.89" stop-color="#c4c4c4"/><stop offset="0.9" stop-color="#d7d7d7"/><stop offset="0.91" stop-color="#e2e2e2"/><stop offset="0.92" stop-color="#e6e6e6"/></radialGradient><filter id="luminosity-noclip-3" x="604.41" y="-4077.76" width="13.55" height="32766" filterUnits="userSpaceOnUse" color-interpolation-filters="sRGB"><feFlood flood-color="#fff" result="bg"/><feBlend in="SourceGraphic" in2="bg"/></filter><mask id="mask-3" x="604.41" y="-4077.76" width="13.55" height="32766" maskUnits="userSpaceOnUse"><g class="cls-128"/></mask><radialGradient id="radial-gradient-3" cx="362.89" cy="-3381.35" r="5.66" gradientTransform="translate(-877.9 14391.8) scale(4.07 4.23)" xlink:href="#radial-gradient"/><filter id="luminosity-noclip-4" x="579.53" y="-4077.76" width="17.74" height="32766" filterUnits="userSpaceOnUse" color-interpolation-filters="sRGB"><feFlood flood-color="#fff" result="bg"/><feBlend in="SourceGraphic" in2="bg"/></filter><mask id="mask-4" x="579.53" y="-4077.76" width="17.74" height="32766" maskUnits="userSpaceOnUse"><g class="cls-127"/></mask><radialGradient id="radial-gradient-4" cx="268.11" cy="-3332.49" r="5.66" xlink:href="#radial-gradient"/><filter id="luminosity-noclip-5" x="275.51" y="-4077.76" width="26.14" height="32766" filterUnits="userSpaceOnUse" color-interpolation-filters="sRGB"><feFlood flood-color="#fff" result="bg"/><feBlend in="SourceGraphic" in2="bg"/></filter><mask id="mask-5" x="275.51" y="-4077.76" width="26.14" height="32766" maskUnits="userSpaceOnUse"><g class="cls-126"/></mask><radialGradient id="radial-gradient-5" cx="199.41" cy="-3365.17" r="8.34" xlink:href="#radial-gradient"/><filter id="luminosity-noclip-6" x="596.38" y="-4077.76" width="34.98" height="32766" filterUnits="userSpaceOnUse" color-interpolation-filters="sRGB"><feFlood flood-color="#fff" result="bg"/><feBlend in="SourceGraphic" in2="bg"/></filter><mask id="mask-6" x="596.38" y="-4077.76" width="34.98" height="32766" maskUnits="userSpaceOnUse"><g class="cls-125"/></mask><radialGradient id="radial-gradient-6" cx="385.02" cy="-3268.26" r="17.34" xlink:href="#radial-gradient-2"/><filter id="luminosity-noclip-7" x="494.27" y="-4077.76" width="10.43" height="32766" filterUnits="userSpaceOnUse" color-interpolation-filters="sRGB"><feFlood flood-color="#fff" result="bg"/><feBlend in="SourceGraphic" in2="bg"/></filter><mask id="mask-7" x="494.27" y="-4077.76" width="10.43" height="32766" maskUnits="userSpaceOnUse"><g class="cls-124"/></mask><radialGradient id="radial-gradient-7" cx="336.07" cy="-3390.47" r="4.36" gradientTransform="translate(-877.9 14391.8) scale(4.07 4.23)" xlink:href="#radial-gradient"/><filter id="luminosity-noclip-8" x="475.13" y="-4077.76" width="13.65" height="32766" filterUnits="userSpaceOnUse" color-interpolation-filters="sRGB"><feFlood flood-color="#fff" result="bg"/><feBlend in="SourceGraphic" in2="bg"/></filter><mask id="mask-8" x="475.13" y="-4077.76" width="13.65" height="32766" maskUnits="userSpaceOnUse"><g class="cls-123"/></mask><radialGradient id="radial-gradient-8" cx="242.77" cy="-3344.9" r="4.36" xlink:href="#radial-gradient"/><filter id="luminosity-noclip-9" x="488.1" y="-4077.76" width="26.92" height="32766" filterUnits="userSpaceOnUse" color-interpolation-filters="sRGB"><feFlood flood-color="#fff" result="bg"/><feBlend in="SourceGraphic" in2="bg"/></filter><mask id="mask-9" x="488.1" y="-4077.76" width="26.92" height="32766" maskUnits="userSpaceOnUse"><g class="cls-122"/></mask><radialGradient id="radial-gradient-9" cx="357.51" cy="-3277.04" r="13.34" xlink:href="#radial-gradient-2"/><filter id="luminosity-noclip-10" x="160.13" y="-4077.76" width="14.85" height="32766" filterUnits="userSpaceOnUse" color-interpolation-filters="sRGB"><feFlood flood-color="#fff" result="bg"/><feBlend in="SourceGraphic" in2="bg"/></filter><mask id="mask-10" x="160.13" y="-4077.76" width="14.85" height="32766" maskUnits="userSpaceOnUse"><g class="cls-121"/></mask><radialGradient id="radial-gradient-10" cx="168.07" cy="-3367.37" r="4.74" xlink:href="#radial-gradient"/><filter id="luminosity-noclip-11" x="174.24" y="-4077.76" width="29.28" height="32766" filterUnits="userSpaceOnUse" color-interpolation-filters="sRGB"><feFlood flood-color="#fff" result="bg"/><feBlend in="SourceGraphic" in2="bg"/></filter><mask id="mask-11" x="174.24" y="-4077.76" width="29.28" height="32766" maskUnits="userSpaceOnUse"><g class="cls-120"/></mask><radialGradient id="radial-gradient-11" cx="275.34" cy="-3292.56" r="14.51" xlink:href="#radial-gradient-2"/><filter id="luminosity-noclip-12" x="262.42" y="-4077.76" width="14.75" height="32766" filterUnits="userSpaceOnUse" color-interpolation-filters="sRGB"><feFlood flood-color="#fff" result="bg"/><feBlend in="SourceGraphic" in2="bg"/></filter><mask id="mask-12" x="262.42" y="-4077.76" width="14.75" height="32766" maskUnits="userSpaceOnUse"><g class="cls-119"/></mask><radialGradient id="radial-gradient-12" cx="278.89" cy="-3368.29" r="6.16" gradientTransform="translate(-877.9 14391.8) scale(4.07 4.23)" xlink:href="#radial-gradient"/><filter id="luminosity-noclip-13" x="300.34" y="-4077.76" width="51.54" height="32766" filterUnits="userSpaceOnUse" color-interpolation-filters="sRGB"><feFlood flood-color="#fff" result="bg"/><feBlend in="SourceGraphic" in2="bg"/></filter><mask id="mask-13" x="300.34" y="-4077.76" width="51.54" height="32766" maskUnits="userSpaceOnUse"><g class="cls-118"/></mask><radialGradient id="radial-gradient-13" cx="306.18" cy="-3300.01" r="25.55" xlink:href="#radial-gradient-2"/><filter id="luminosity-noclip-14" x="235.35" y="-4077.76" width="19.31" height="32766" filterUnits="userSpaceOnUse" color-interpolation-filters="sRGB"><feFlood flood-color="#fff" result="bg"/><feBlend in="SourceGraphic" in2="bg"/></filter><mask id="mask-14" x="235.35" y="-4077.76" width="19.31" height="32766" maskUnits="userSpaceOnUse"><g class="cls-117"/></mask><radialGradient id="radial-gradient-14" cx="183.1" cy="-3330.39" r="6.16" xlink:href="#radial-gradient"/><filter id="luminosity-noclip-15" x="253.69" y="-4077.76" width="38.07" height="32766" filterUnits="userSpaceOnUse" color-interpolation-filters="sRGB"><feFlood flood-color="#fff" result="bg"/><feBlend in="SourceGraphic" in2="bg"/></filter><mask id="mask-15" x="253.69" y="-4077.76" width="38.07" height="32766" maskUnits="userSpaceOnUse"><g class="cls-116"/></mask><radialGradient id="radial-gradient-15" cx="295.26" cy="-3253.61" r="18.87" xlink:href="#radial-gradient-2"/><filter id="luminosity-noclip-16" x="379.38" y="-4077.76" width="7.22" height="32766" filterUnits="userSpaceOnUse" color-interpolation-filters="sRGB"><feFlood flood-color="#fff" result="bg"/><feBlend in="SourceGraphic" in2="bg"/></filter><mask id="mask-16" x="379.38" y="-4077.76" width="7.22" height="32766" maskUnits="userSpaceOnUse"><g class="cls-115"/></mask><radialGradient id="radial-gradient-16" cx="308.08" cy="-3382.04" r="3.02" gradientTransform="translate(-877.9 14391.8) scale(4.07 4.23)" xlink:href="#radial-gradient"/><filter id="luminosity-noclip-17" x="366.13" y="-4077.76" width="9.45" height="32766" filterUnits="userSpaceOnUse" color-interpolation-filters="sRGB"><feFlood flood-color="#fff" result="bg"/><feBlend in="SourceGraphic" in2="bg"/></filter><mask id="mask-17" x="366.13" y="-4077.76" width="9.45" height="32766" maskUnits="userSpaceOnUse"><g class="cls-114"/></mask><radialGradient id="radial-gradient-17" cx="214.02" cy="-3340.04" r="3.02" xlink:href="#radial-gradient"/><filter id="luminosity-noclip-18" x="375.1" y="-4077.76" width="18.63" height="32766" filterUnits="userSpaceOnUse" color-interpolation-filters="sRGB"><feFlood flood-color="#fff" result="bg"/><feBlend in="SourceGraphic" in2="bg"/></filter><mask id="mask-18" x="375.1" y="-4077.76" width="18.63" height="32766" maskUnits="userSpaceOnUse"><g class="cls-113"/></mask><radialGradient id="radial-gradient-18" cx="328.78" cy="-3265.02" r="9.24" xlink:href="#radial-gradient-2"/><filter id="luminosity-noclip-19" x="410.46" y="-4077.76" width="7.4" height="32766" filterUnits="userSpaceOnUse" color-interpolation-filters="sRGB"><feFlood flood-color="#fff" result="bg"/><feBlend in="SourceGraphic" in2="bg"/></filter><mask id="mask-19" x="410.46" y="-4077.76" width="7.4" height="32766" maskUnits="userSpaceOnUse"><g class="cls-112"/></mask><radialGradient id="radial-gradient-19" cx="315.69" cy="-3394.48" r="3.09" gradientTransform="translate(-877.9 14391.8) scale(4.07 4.23)" xlink:href="#radial-gradient"/><filter id="luminosity-noclip-20" x="396.88" y="-4077.76" width="9.68" height="32766" filterUnits="userSpaceOnUse" color-interpolation-filters="sRGB"><feFlood flood-color="#fff" result="bg"/><feBlend in="SourceGraphic" in2="bg"/></filter><mask id="mask-20" x="396.88" y="-4077.76" width="9.68" height="32766" maskUnits="userSpaceOnUse"><g class="cls-111"/></mask><radialGradient id="radial-gradient-20" cx="223.18" cy="-3351.41" r="3.09" xlink:href="#radial-gradient"/><filter id="luminosity-noclip-21" x="406.08" y="-4077.76" width="19.09" height="32766" filterUnits="userSpaceOnUse" color-interpolation-filters="sRGB"><feFlood flood-color="#fff" result="bg"/><feBlend in="SourceGraphic" in2="bg"/></filter><mask id="mask-21" x="406.08" y="-4077.76" width="19.09" height="32766" maskUnits="userSpaceOnUse"><g class="cls-110"/></mask><radialGradient id="radial-gradient-21" cx="336.82" cy="-3279.84" r="9.47" xlink:href="#radial-gradient-2"/><filter id="luminosity-noclip-22" x="454.75" y="-4077.76" width="19.97" height="32766" filterUnits="userSpaceOnUse" color-interpolation-filters="sRGB"><feFlood flood-color="#fff" result="bg"/><feBlend in="SourceGraphic" in2="bg"/></filter><mask id="mask-22" x="454.75" y="-4077.76" width="19.97" height="32766" maskUnits="userSpaceOnUse"><g class="cls-109"/></mask><radialGradient id="radial-gradient-22" cx="325.75" cy="-3353.7" r="8.34" gradientTransform="translate(-877.9 14391.8) scale(4.07 4.23)" xlink:href="#radial-gradient"/><linearGradient id="linear-gradient" x1="104.06" y1="155.82" x2="602.27" y2="497.19" gradientUnits="userSpaceOnUse"><stop offset="0" stop-color="#9b81cf"/><stop offset="1" stop-color="#3b139b"/></linearGradient><linearGradient id="linear-gradient-2" x1="66.74" y1="330.5" x2="651.26" y2="330.5" gradientUnits="userSpaceOnUse"><stop offset="0" stop-color="#4c1da9"/><stop offset="1" stop-color="#997ece"/></linearGradient><clipPath id="clip-path"><ellipse class="cls-45" cx="358.4" cy="330.5" rx="287" ry="286"/></clipPath><filter id="luminosity-noclip-23" x="259.54" y="-4077.76" width="99.06" height="32766" filterUnits="userSpaceOnUse" color-interpolation-filters="sRGB"><feFlood flood-color="#fff" result="bg"/><feBlend in="SourceGraphic" in2="bg"/></filter><mask id="mask-23" x="259.54" y="-4077.76" width="99.06" height="32766" maskUnits="userSpaceOnUse"><g class="cls-108"/></mask><filter id="luminosity-noclip-24" x="262" y="-4077.76" width="94.15" height="32766" filterUnits="userSpaceOnUse" color-interpolation-filters="sRGB"><feFlood flood-color="#fff" result="bg"/><feBlend in="SourceGraphic" in2="bg"/></filter><mask id="mask-24" x="262" y="-4077.76" width="94.15" height="32766" maskUnits="userSpaceOnUse"><g class="cls-107"/></mask><filter id="luminosity-noclip-25" x="275.51" y="-10.7" width="26.14" height="26.46" filterUnits="userSpaceOnUse" color-interpolation-filters="sRGB"><feFlood flood-color="#fff" result="bg"/><feBlend in="SourceGraphic" in2="bg"/></filter><mask id="mask-25" x="275.51" y="-10.7" width="26.14" height="26.46" maskUnits="userSpaceOnUse"><g class="cls-9"><path class="cls-10" d="M286.8-8.1c-6.3-3.2-10.5-3.3-11.1-1.1s.9,7,3,10.4,6.9,9.4,11.5,12,7.8,3.6,9.3,1.2,3-9.9,1.6-13S293-4.8,286.8-8.1Z"/></g></mask><filter id="luminosity-noclip-26" x="300.34" y="-12.25" width="51.54" height="39.35" filterUnits="userSpaceOnUse" color-interpolation-filters="sRGB"><feFlood flood-color="#fff" result="bg"/><feBlend in="SourceGraphic" in2="bg"/></filter><mask id="mask-26" x="300.34" y="-12.25" width="51.54" height="39.35" maskUnits="userSpaceOnUse"><g class="cls-25"><path class="cls-26" d="M300.3,23.4a19.5,19.5,0,0,0,6.1,3.1c9.9,2.3,21.7-2.2,29.9-8.1S351.9,3,351.9-6.5a14.7,14.7,0,0,0-1.5-5.7A60.2,60.2,0,0,1,300.3,23.4Z"/></g></mask><filter id="luminosity-noclip-27" x="402.13" y="-4077.76" width="99.06" height="32766" filterUnits="userSpaceOnUse" color-interpolation-filters="sRGB"><feFlood flood-color="#fff" result="bg"/><feBlend in="SourceGraphic" in2="bg"/></filter><mask id="mask-27" x="402.13" y="-4077.76" width="99.06" height="32766" maskUnits="userSpaceOnUse"><g class="cls-106"/></mask><filter id="luminosity-noclip-28" x="404.58" y="-4077.76" width="94.15" height="32766" filterUnits="userSpaceOnUse" color-interpolation-filters="sRGB"><feFlood flood-color="#fff" result="bg"/><feBlend in="SourceGraphic" in2="bg"/></filter><mask id="mask-28" x="404.58" y="-4077.76" width="94.15" height="32766" maskUnits="userSpaceOnUse"><g class="cls-105"/></mask><filter id="luminosity-noclip-29" x="454.75" y="169.13" width="19.97" height="20.87" filterUnits="userSpaceOnUse" color-interpolation-filters="sRGB"><feFlood flood-color="#fff" result="bg"/><feBlend in="SourceGraphic" in2="bg"/></filter><mask id="mask-29" x="454.75" y="169.13" width="19.97" height="20.87" maskUnits="userSpaceOnUse"><g class="cls-43"><path class="cls-44" d="M470,174.4a20.9,20.9,0,0,0-9.8-5.2c-2.2-.4-4.8.4-5.4,2s1.4,5.4,5.5,9.7,8.2,9.2,10.1,9.1,4-4.9,4.3-7.4S473.1,177.5,470,174.4Z"/></g></mask><filter id="luminosity-noclip-30" x="418.1" y="205.3" width="26.14" height="26.46" filterUnits="userSpaceOnUse" color-interpolation-filters="sRGB"><feFlood flood-color="#fff" result="bg"/><feBlend in="SourceGraphic" in2="bg"/></filter><mask id="mask-30" x="418.1" y="205.3" width="26.14" height="26.46" maskUnits="userSpaceOnUse"><g class="cls-1"><path class="cls-2" d="M429.3,207.9c-6.2-3.2-10.4-3.3-11.1-1.1s1,7,3.1,10.4,6.9,9.4,11.4,12,7.9,3.6,9.4,1.2,3-9.9,1.6-13S435.6,211.2,429.3,207.9Z"/></g></mask><filter id="luminosity-noclip-31" x="442.92" y="203.75" width="51.54" height="39.35" filterUnits="userSpaceOnUse" color-interpolation-filters="sRGB"><feFlood flood-color="#fff" result="bg"/><feBlend in="SourceGraphic" in2="bg"/></filter><mask id="mask-31" x="442.92" y="203.75" width="51.54" height="39.35" maskUnits="userSpaceOnUse"><g class="cls-3"><path class="cls-4" d="M442.9,239.4a18.5,18.5,0,0,0,6.1,3.1c9.9,2.3,21.7-2.2,29.8-8.1s15.7-15.4,15.7-24.9a14.7,14.7,0,0,0-1.5-5.7A60.2,60.2,0,0,1,442.9,239.4Z"/></g></mask><filter id="luminosity-noclip-32" x="568.68" y="-4077.76" width="67.25" height="32766" filterUnits="userSpaceOnUse" color-interpolation-filters="sRGB"><feFlood flood-color="#fff" result="bg"/><feBlend in="SourceGraphic" in2="bg"/></filter><mask id="mask-32" x="568.68" y="-4077.76" width="67.25" height="32766" maskUnits="userSpaceOnUse"><g class="cls-104"/></mask><filter id="luminosity-noclip-33" x="570.35" y="-4077.76" width="63.91" height="32766" filterUnits="userSpaceOnUse" color-interpolation-filters="sRGB"><feFlood flood-color="#fff" result="bg"/><feBlend in="SourceGraphic" in2="bg"/></filter><mask id="mask-33" x="570.35" y="-4077.76" width="63.91" height="32766" maskUnits="userSpaceOnUse"><g class="cls-103"/></mask><filter id="luminosity-noclip-34" x="604.41" y="61.67" width="13.55" height="14.17" filterUnits="userSpaceOnUse" color-interpolation-filters="sRGB"><feFlood flood-color="#fff" result="bg"/><feBlend in="SourceGraphic" in2="bg"/></filter><mask id="mask-34" x="604.41" y="61.67" width="13.55" height="14.17" maskUnits="userSpaceOnUse"><g class="cls-5"><path class="cls-6" d="M614.8,65.3a14.3,14.3,0,0,0-6.7-3.6c-1.5-.2-3.3.3-3.6,1.3s.9,3.7,3.6,6.7,5.7,6.2,6.9,6.1,2.8-3.3,2.9-5S616.8,67.4,614.8,65.3Z"/></g></mask><filter id="luminosity-noclip-35" x="579.53" y="86.23" width="17.74" height="17.96" filterUnits="userSpaceOnUse" color-interpolation-filters="sRGB"><feFlood flood-color="#fff" result="bg"/><feBlend in="SourceGraphic" in2="bg"/></filter><mask id="mask-35" x="579.53" y="86.23" width="17.74" height="17.96" maskUnits="userSpaceOnUse"><g class="cls-7"><path class="cls-8" d="M587.2,88c-4.3-2.2-7.1-2.2-7.6-.8s.6,4.8,2.1,7.1,4.7,6.4,7.8,8.1,5.3,2.5,6.3.9,2-6.8,1.1-8.9S591.4,90.2,587.2,88Z"/></g></mask><filter id="luminosity-noclip-36" x="596.38" y="85.18" width="34.98" height="26.72" filterUnits="userSpaceOnUse" color-interpolation-filters="sRGB"><feFlood flood-color="#fff" result="bg"/><feBlend in="SourceGraphic" in2="bg"/></filter><mask id="mask-36" x="596.38" y="85.18" width="34.98" height="26.72" maskUnits="userSpaceOnUse"><g class="cls-11"><path class="cls-12" d="M596.4,109.4a13.3,13.3,0,0,0,4.1,2.1c6.7,1.5,14.8-1.5,20.3-5.5s10.6-10.5,10.6-16.9a10.2,10.2,0,0,0-1-3.9A40.9,40.9,0,0,1,596.4,109.4Z"/></g></mask><filter id="luminosity-noclip-37" x="466.79" y="-4077.76" width="51.74" height="32766" filterUnits="userSpaceOnUse" color-interpolation-filters="sRGB"><feFlood flood-color="#fff" result="bg"/><feBlend in="SourceGraphic" in2="bg"/></filter><mask id="mask-37" x="466.79" y="-4077.76" width="51.74" height="32766" maskUnits="userSpaceOnUse"><g class="cls-102"/></mask><filter id="luminosity-noclip-38" x="468.07" y="-4077.76" width="49.17" height="32766" filterUnits="userSpaceOnUse" color-interpolation-filters="sRGB"><feFlood flood-color="#fff" result="bg"/><feBlend in="SourceGraphic" in2="bg"/></filter><mask id="mask-38" x="468.07" y="-4077.76" width="49.17" height="32766" maskUnits="userSpaceOnUse"><g class="cls-101"/></mask><filter id="luminosity-noclip-39" x="494.27" y="27.69" width="10.43" height="10.9" filterUnits="userSpaceOnUse" color-interpolation-filters="sRGB"><feFlood flood-color="#fff" result="bg"/><feBlend in="SourceGraphic" in2="bg"/></filter><mask id="mask-39" x="494.27" y="27.69" width="10.43" height="10.9" maskUnits="userSpaceOnUse"><g class="cls-13"><path class="cls-14" d="M502.3,30.5a12.2,12.2,0,0,0-5.2-2.8c-1.1-.2-2.5.2-2.8,1.1s.7,2.8,2.8,5.1,4.4,4.8,5.3,4.7,2.2-2.6,2.3-3.9S503.8,32.1,502.3,30.5Z"/></g></mask><filter id="luminosity-noclip-40" x="475.13" y="46.58" width="13.65" height="13.82" filterUnits="userSpaceOnUse" color-interpolation-filters="sRGB"><feFlood flood-color="#fff" result="bg"/><feBlend in="SourceGraphic" in2="bg"/></filter><mask id="mask-40" x="475.13" y="46.58" width="13.65" height="13.82" maskUnits="userSpaceOnUse"><g class="cls-15"><path class="cls-16" d="M481,48c-3.3-1.7-5.4-1.8-5.8-.6s.5,3.6,1.6,5.4a20.9,20.9,0,0,0,6,6.3c2.4,1.3,4.1,1.9,4.9.6s1.5-5.2.8-6.8S484.3,49.7,481,48Z"/></g></mask><filter id="luminosity-noclip-41" x="488.1" y="45.77" width="26.92" height="20.55" filterUnits="userSpaceOnUse" color-interpolation-filters="sRGB"><feFlood flood-color="#fff" result="bg"/><feBlend in="SourceGraphic" in2="bg"/></filter><mask id="mask-41" x="488.1" y="45.77" width="26.92" height="20.55" maskUnits="userSpaceOnUse"><g class="cls-17"><path class="cls-18" d="M488.1,64.4a10.6,10.6,0,0,0,3.2,1.6c5.2,1.2,11.3-1.1,15.6-4.2s8.1-8.1,8.1-13a7.5,7.5,0,0,0-.8-3A31.2,31.2,0,0,1,488.1,64.4Z"/></g></mask><filter id="luminosity-noclip-42" x="151.06" y="-4077.76" width="56.28" height="32766" filterUnits="userSpaceOnUse" color-interpolation-filters="sRGB"><feFlood flood-color="#fff" result="bg"/><feBlend in="SourceGraphic" in2="bg"/></filter><mask id="mask-42" x="151.06" y="-4077.76" width="56.28" height="32766" maskUnits="userSpaceOnUse"><g class="cls-100"/></mask><filter id="luminosity-noclip-43" x="152.46" y="-4077.76" width="53.49" height="32766" filterUnits="userSpaceOnUse" color-interpolation-filters="sRGB"><feFlood flood-color="#fff" result="bg"/><feBlend in="SourceGraphic" in2="bg"/></filter><mask id="mask-43" x="152.46" y="-4077.76" width="53.49" height="32766" maskUnits="userSpaceOnUse"><g class="cls-99"/></mask><filter id="luminosity-noclip-44" x="160.13" y="-6.62" width="14.85" height="15.03" filterUnits="userSpaceOnUse" color-interpolation-filters="sRGB"><feFlood flood-color="#fff" result="bg"/><feBlend in="SourceGraphic" in2="bg"/></filter><mask id="mask-44" x="160.13" y="-6.62" width="14.85" height="15.03" maskUnits="userSpaceOnUse"><g class="cls-19"><path class="cls-20" d="M166.5-5.1C163-7,160.6-7,160.2-5.8s.5,4,1.7,5.9A22.6,22.6,0,0,0,168.5,7c2.5,1.4,4.4,2,5.3.7s1.6-5.7.9-7.5S170.1-3.3,166.5-5.1Z"/></g></mask><filter id="luminosity-noclip-45" x="174.24" y="-7.5" width="29.28" height="22.36" filterUnits="userSpaceOnUse" color-interpolation-filters="sRGB"><feFlood flood-color="#fff" result="bg"/><feBlend in="SourceGraphic" in2="bg"/></filter><mask id="mask-45" x="174.24" y="-7.5" width="29.28" height="22.36" maskUnits="userSpaceOnUse"><g class="cls-21"><path class="cls-22" d="M174.2,12.8a10.2,10.2,0,0,0,3.5,1.7c5.6,1.3,12.3-1.2,16.9-4.6s8.9-8.8,8.9-14.2a8.8,8.8,0,0,0-.8-3.2A34.2,34.2,0,0,1,174.2,12.8Z"/></g></mask><filter id="luminosity-noclip-46" x="223.55" y="-4077.76" width="73.18" height="32766" filterUnits="userSpaceOnUse" color-interpolation-filters="sRGB"><feFlood flood-color="#fff" result="bg"/><feBlend in="SourceGraphic" in2="bg"/></filter><mask id="mask-46" x="223.55" y="-4077.76" width="73.18" height="32766" maskUnits="userSpaceOnUse"><g class="cls-98"/></mask><filter id="luminosity-noclip-47" x="225.36" y="-4077.76" width="69.55" height="32766" filterUnits="userSpaceOnUse" color-interpolation-filters="sRGB"><feFlood flood-color="#fff" result="bg"/><feBlend in="SourceGraphic" in2="bg"/></filter><mask id="mask-47" x="225.36" y="-4077.76" width="69.55" height="32766" maskUnits="userSpaceOnUse"><g class="cls-97"/></mask><filter id="luminosity-noclip-48" x="262.42" y="115.15" width="14.75" height="15.42" filterUnits="userSpaceOnUse" color-interpolation-filters="sRGB"><feFlood flood-color="#fff" result="bg"/><feBlend in="SourceGraphic" in2="bg"/></filter><mask id="mask-48" x="262.42" y="115.15" width="14.75" height="15.42" maskUnits="userSpaceOnUse"><g class="cls-23"><path class="cls-24" d="M273.7,119.1a14.8,14.8,0,0,0-7.2-3.9c-1.7-.3-3.6.3-4,1.4s1,4.1,4,7.3,6.1,6.8,7.5,6.7,3-3.7,3.2-5.5S275.9,121.3,273.7,119.1Z"/></g></mask><filter id="luminosity-noclip-49" x="235.35" y="141.87" width="19.31" height="19.55" filterUnits="userSpaceOnUse" color-interpolation-filters="sRGB"><feFlood flood-color="#fff" result="bg"/><feBlend in="SourceGraphic" in2="bg"/></filter><mask id="mask-49" x="235.35" y="141.87" width="19.31" height="19.55" maskUnits="userSpaceOnUse"><g class="cls-27"><path class="cls-28" d="M243.7,143.8c-4.7-2.4-7.8-2.4-8.2-.8s.6,5.1,2.2,7.7,5.1,6.9,8.5,8.8,5.8,2.7,6.9.9,2.2-7.3,1.2-9.6S248.3,146.2,243.7,143.8Z"/></g></mask><filter id="luminosity-noclip-50" x="253.69" y="140.73" width="38.07" height="29.07" filterUnits="userSpaceOnUse" color-interpolation-filters="sRGB"><feFlood flood-color="#fff" result="bg"/><feBlend in="SourceGraphic" in2="bg"/></filter><mask id="mask-50" x="253.69" y="140.73" width="38.07" height="29.07" maskUnits="userSpaceOnUse"><g class="cls-29"><path class="cls-30" d="M253.7,167.1a14.4,14.4,0,0,0,4.5,2.2c7.3,1.7,16-1.5,22-5.9s11.6-11.4,11.6-18.5a12.5,12.5,0,0,0-1.1-4.2A44.5,44.5,0,0,1,253.7,167.1Z"/></g></mask><filter id="luminosity-noclip-51" x="360.35" y="-4077.76" width="35.81" height="32766" filterUnits="userSpaceOnUse" color-interpolation-filters="sRGB"><feFlood flood-color="#fff" result="bg"/><feBlend in="SourceGraphic" in2="bg"/></filter><mask id="mask-51" x="360.35" y="-4077.76" width="35.81" height="32766" maskUnits="userSpaceOnUse"><g class="cls-96"/></mask><filter id="luminosity-noclip-52" x="361.24" y="-4077.76" width="34.04" height="32766" filterUnits="userSpaceOnUse" color-interpolation-filters="sRGB"><feFlood flood-color="#fff" result="bg"/><feBlend in="SourceGraphic" in2="bg"/></filter><mask id="mask-52" x="361.24" y="-4077.76" width="34.04" height="32766" maskUnits="userSpaceOnUse"><g class="cls-95"/></mask><filter id="luminosity-noclip-53" x="379.38" y="68.17" width="7.22" height="7.55" filterUnits="userSpaceOnUse" color-interpolation-filters="sRGB"><feFlood flood-color="#fff" result="bg"/><feBlend in="SourceGraphic" in2="bg"/></filter><mask id="mask-53" x="379.38" y="68.17" width="7.22" height="7.55" maskUnits="userSpaceOnUse"><g class="cls-31"><path class="cls-32" d="M384.9,70.1a8.1,8.1,0,0,0-3.5-1.9c-.9-.1-1.8.1-2,.7s.5,2,2,3.5,3,3.4,3.6,3.3,1.5-1.8,1.6-2.7S386,71.2,384.9,70.1Z"/></g></mask><filter id="luminosity-noclip-54" x="366.13" y="81.25" width="9.45" height="9.57" filterUnits="userSpaceOnUse" color-interpolation-filters="sRGB"><feFlood flood-color="#fff" result="bg"/><feBlend in="SourceGraphic" in2="bg"/></filter><mask id="mask-54" x="366.13" y="81.25" width="9.45" height="9.57" maskUnits="userSpaceOnUse"><g class="cls-33"><path class="cls-34" d="M370.2,82.2c-2.3-1.2-3.8-1.2-4-.4s.3,2.5,1.1,3.8a13.8,13.8,0,0,0,4.1,4.3c1.7.9,2.9,1.3,3.4.4s1.1-3.6.6-4.7S372.5,83.4,370.2,82.2Z"/></g></mask><filter id="luminosity-noclip-55" x="375.1" y="80.69" width="18.63" height="14.23" filterUnits="userSpaceOnUse" color-interpolation-filters="sRGB"><feFlood flood-color="#fff" result="bg"/><feBlend in="SourceGraphic" in2="bg"/></filter><mask id="mask-55" x="375.1" y="80.69" width="18.63" height="14.23" maskUnits="userSpaceOnUse"><g class="cls-35"><path class="cls-36" d="M375.1,93.6a9,9,0,0,0,2.2,1.1c3.6.8,7.9-.8,10.8-2.9s5.6-5.6,5.6-9a5.8,5.8,0,0,0-.5-2.1A22,22,0,0,1,375.1,93.6Z"/></g></mask><filter id="luminosity-noclip-56" x="390.97" y="-4077.76" width="36.7" height="32766" filterUnits="userSpaceOnUse" color-interpolation-filters="sRGB"><feFlood flood-color="#fff" result="bg"/><feBlend in="SourceGraphic" in2="bg"/></filter><mask id="mask-56" x="390.97" y="-4077.76" width="36.7" height="32766" maskUnits="userSpaceOnUse"><g class="cls-94"/></mask><filter id="luminosity-noclip-57" x="391.88" y="-4077.76" width="34.88" height="32766" filterUnits="userSpaceOnUse" color-interpolation-filters="sRGB"><feFlood flood-color="#fff" result="bg"/><feBlend in="SourceGraphic" in2="bg"/></filter><mask id="mask-57" x="391.88" y="-4077.76" width="34.88" height="32766" maskUnits="userSpaceOnUse"><g class="cls-93"/></mask><filter id="luminosity-noclip-58" x="410.46" y="15.23" width="7.4" height="7.73" filterUnits="userSpaceOnUse" color-interpolation-filters="sRGB"><feFlood flood-color="#fff" result="bg"/><feBlend in="SourceGraphic" in2="bg"/></filter><mask id="mask-58" x="410.46" y="15.23" width="7.4" height="7.73" maskUnits="userSpaceOnUse"><g class="cls-37"><path class="cls-38" d="M416.1,17.2a7.4,7.4,0,0,0-3.6-1.9c-.8-.2-1.8.1-2,.7s.5,2,2,3.6,3.1,3.4,3.7,3.4,1.6-1.9,1.7-2.8S417.2,18.3,416.1,17.2Z"/></g></mask><filter id="luminosity-noclip-59" x="396.88" y="28.63" width="9.68" height="9.81" filterUnits="userSpaceOnUse" color-interpolation-filters="sRGB"><feFlood flood-color="#fff" result="bg"/><feBlend in="SourceGraphic" in2="bg"/></filter><mask id="mask-59" x="396.88" y="28.63" width="9.68" height="9.81" maskUnits="userSpaceOnUse"><g class="cls-39"><path class="cls-40" d="M401,29.6c-2.3-1.2-3.8-1.2-4.1-.4a6.4,6.4,0,0,0,1.2,3.8,13.6,13.6,0,0,0,4.2,4.5c1.7.9,2.9,1.3,3.5.4s1.1-3.6.6-4.8S403.4,30.8,401,29.6Z"/></g></mask><filter id="luminosity-noclip-60" x="406.08" y="28.06" width="19.09" height="14.58" filterUnits="userSpaceOnUse" color-interpolation-filters="sRGB"><feFlood flood-color="#fff" result="bg"/><feBlend in="SourceGraphic" in2="bg"/></filter><mask id="mask-60" x="406.08" y="28.06" width="19.09" height="14.58" maskUnits="userSpaceOnUse"><g class="cls-41"><path class="cls-42" d="M406.1,41.3a6.5,6.5,0,0,0,2.2,1.1c3.7.9,8.1-.8,11.1-3s5.8-5.7,5.8-9.2a4.5,4.5,0,0,0-.6-2.1A22.2,22.2,0,0,1,406.1,41.3Z"/></g></mask></defs><g id="Layer_1" data-name="Layer 1"><circle class="cls-46" cx="359" cy="330.5" r="301.9"/><circle class="cls-47" cx="359" cy="330.5" r="289.3"/><g class="cls-48"><rect class="cls-49" x="-4.9" y="43.1" width="892.8" height="889.85"/><line class="cls-45" x1="266.5" y1="288.5" x2="260.2" y2="287.7"/><g id="_010" data-name="010"><g id="_01" data-name="01"><g class="cls-50"><ellipse class="cls-51" cx="309.1" cy="-20.5" rx="49.5" ry="51.4"/></g><g class="cls-52"><ellipse class="cls-53" cx="309.1" cy="-20.5" rx="47.1" ry="48.9"/></g><g class="cls-54"><g class="cls-55"><path class="cls-56" d="M286.8-8.1c-6.3-3.2-10.5-3.3-11.1-1.1s.9,7,3,10.4,6.9,9.4,11.5,12,7.8,3.6,9.3,1.2,3-9.9,1.6-13S293-4.8,286.8-8.1Z"/></g></g><g class="cls-57"><path class="cls-58" d="M300.3,23.4a19.5,19.5,0,0,0,6.1,3.1c9.9,2.3,21.7-2.2,29.9-8.1S351.9,3,351.9-6.5a14.7,14.7,0,0,0-1.5-5.7A60.2,60.2,0,0,1,300.3,23.4Z"/></g></g><g id="_01-2" data-name="01"><g class="cls-59"><ellipse class="cls-51" cx="451.7" cy="195.5" rx="49.5" ry="51.4"/></g><g class="cls-60"><ellipse class="cls-53" cx="451.7" cy="195.5" rx="47.1" ry="48.9"/></g><g class="cls-54"><g class="cls-61"><path class="cls-56" d="M470,174.4a20.9,20.9,0,0,0-9.8-5.2c-2.2-.4-4.8.4-5.4,2s1.4,5.4,5.5,9.7,8.2,9.2,10.1,9.1,4-4.9,4.3-7.4S473.1,177.5,470,174.4Z"/></g><g class="cls-62"><path class="cls-56" d="M429.3,207.9c-6.2-3.2-10.4-3.3-11.1-1.1s1,7,3.1,10.4,6.9,9.4,11.4,12,7.9,3.6,9.4,1.2,3-9.9,1.6-13S435.6,211.2,429.3,207.9Z"/></g></g><path class="cls-56" d="M456.1,149.6c-10.6-2.7-23.1,2.6-31.8,9.6s-16.6,18.2-16.6,29.5c0,4,3.1,12.2,5.9,10.9s3.2-5.6,5-9.3c3.7-7.8,8-14.4,14.5-19.6A49.3,49.3,0,0,1,450,162c5.1-1.5,13.1-1.5,15-3.8S459.9,150.6,456.1,149.6Z"/><g class="cls-63"><path class="cls-58" d="M442.9,239.4a18.5,18.5,0,0,0,6.1,3.1c9.9,2.3,21.7-2.2,29.8-8.1s15.7-15.4,15.7-24.9a14.7,14.7,0,0,0-1.5-5.7A60.2,60.2,0,0,1,442.9,239.4Z"/></g></g><g id="_01-3" data-name="01"><g class="cls-64"><ellipse class="cls-51" cx="602.3" cy="79.6" rx="33.6" ry="34.9"/></g><g class="cls-65"><ellipse class="cls-53" cx="602.3" cy="79.6" rx="32" ry="33.2"/></g><g class="cls-54"><g class="cls-66"><path class="cls-56" d="M614.8,65.3a14.3,14.3,0,0,0-6.7-3.6c-1.5-.2-3.3.3-3.6,1.3s.9,3.7,3.6,6.7,5.7,6.2,6.9,6.1,2.8-3.3,2.9-5S616.8,67.4,614.8,65.3Z"/></g><g class="cls-67"><path class="cls-56" d="M587.2,88c-4.3-2.2-7.1-2.2-7.6-.8s.6,4.8,2.1,7.1,4.7,6.4,7.8,8.1,5.3,2.5,6.3.9,2-6.8,1.1-8.9S591.4,90.2,587.2,88Z"/></g></g><path class="cls-56" d="M605.3,48.4c-7.1-1.8-15.7,1.8-21.5,6.5s-11.3,12.4-11.3,20c0,2.8,2.1,8.4,4,7.5s2.2-3.9,3.3-6.3c2.6-5.4,5.5-9.8,9.9-13.4a33.9,33.9,0,0,1,11.5-5.9c3.4-1,8.9-1,10.2-2.6S607.9,49.1,605.3,48.4Z"/><g class="cls-68"><path class="cls-58" d="M596.4,109.4a13.3,13.3,0,0,0,4.1,2.1c6.7,1.5,14.8-1.5,20.3-5.5s10.6-10.5,10.6-16.9a10.2,10.2,0,0,0-1-3.9A40.9,40.9,0,0,1,596.4,109.4Z"/></g></g><g id="_01-4" data-name="01"><g class="cls-69"><ellipse class="cls-51" cx="492.7" cy="41.5" rx="25.9" ry="26.9"/></g><g class="cls-70"><ellipse class="cls-53" cx="492.7" cy="41.5" rx="24.6" ry="25.5"/></g><g class="cls-54"><g class="cls-71"><path class="cls-56" d="M502.3,30.5a12.2,12.2,0,0,0-5.2-2.8c-1.1-.2-2.5.2-2.8,1.1s.7,2.8,2.8,5.1,4.4,4.8,5.3,4.7,2.2-2.6,2.3-3.9S503.8,32.1,502.3,30.5Z"/></g><g class="cls-72"><path class="cls-56" d="M481,48c-3.3-1.7-5.4-1.8-5.8-.6s.5,3.6,1.6,5.4a20.9,20.9,0,0,0,6,6.3c2.4,1.3,4.1,1.9,4.9.6s1.5-5.2.8-6.8S484.3,49.7,481,48Z"/></g></g><path class="cls-56" d="M495,17.5c-5.5-1.4-12.1,1.3-16.6,5s-8.7,9.5-8.7,15.4c0,2.1,1.6,6.4,3.1,5.7s1.7-2.9,2.6-4.8A27.2,27.2,0,0,1,483,28.5a23,23,0,0,1,8.8-4.5c2.7-.8,6.8-.8,7.8-2S497,18,495,17.5Z"/><g class="cls-73"><path class="cls-58" d="M488.1,64.4a10.6,10.6,0,0,0,3.2,1.6c5.2,1.2,11.3-1.1,15.6-4.2s8.1-8.1,8.1-13a7.5,7.5,0,0,0-.8-3A31.2,31.2,0,0,1,488.1,64.4Z"/></g></g><g id="_01-5" data-name="01"><g class="cls-74"><ellipse class="cls-51" cx="179.2" cy="-12.2" rx="28.1" ry="29.2"/></g><g class="cls-75"><ellipse class="cls-53" cx="179.2" cy="-12.2" rx="26.7" ry="27.8"/></g><g class="cls-54"><g class="cls-76"><path class="cls-56" d="M166.5-5.1C163-7,160.6-7,160.2-5.8s.5,4,1.7,5.9A22.6,22.6,0,0,0,168.5,7c2.5,1.4,4.4,2,5.3.7s1.6-5.7.9-7.5S170.1-3.3,166.5-5.1Z"/></g></g><g class="cls-77"><path class="cls-58" d="M174.2,12.8a10.2,10.2,0,0,0,3.5,1.7c5.6,1.3,12.3-1.2,16.9-4.6s8.9-8.8,8.9-14.2a8.8,8.8,0,0,0-.8-3.2A34.2,34.2,0,0,1,174.2,12.8Z"/></g></g><g id="_01-6" data-name="01"><g class="cls-78"><ellipse class="cls-51" cx="260.1" cy="134.7" rx="36.6" ry="38"/></g><g class="cls-79"><ellipse class="cls-53" cx="260.1" cy="134.7" rx="34.8" ry="36.1"/></g><g class="cls-54"><g class="cls-80"><path class="cls-56" d="M273.7,119.1a14.8,14.8,0,0,0-7.2-3.9c-1.7-.3-3.6.3-4,1.4s1,4.1,4,7.3,6.1,6.8,7.5,6.7,3-3.7,3.2-5.5S275.9,121.3,273.7,119.1Z"/></g><g class="cls-81"><path class="cls-56" d="M243.7,143.8c-4.7-2.4-7.8-2.4-8.2-.8s.6,5.1,2.2,7.7,5.1,6.9,8.5,8.8,5.8,2.7,6.9.9,2.2-7.3,1.2-9.6S248.3,146.2,243.7,143.8Z"/></g></g><path class="cls-56" d="M263.4,100.8c-7.8-2-17.1,1.8-23.4,7s-12.3,13.5-12.3,21.8c0,3,2.3,9.1,4.3,8.1s2.4-4.2,3.7-6.9c2.7-5.8,5.9-10.6,10.7-14.5a36.1,36.1,0,0,1,12.5-6.4c3.8-1.1,9.7-1.1,11.1-2.9S266.2,101.5,263.4,100.8Z"/><g class="cls-82"><path class="cls-58" d="M253.7,167.1a14.4,14.4,0,0,0,4.5,2.2c7.3,1.7,16-1.5,22-5.9s11.6-11.4,11.6-18.5a12.5,12.5,0,0,0-1.1-4.2A44.5,44.5,0,0,1,253.7,167.1Z"/></g></g><g id="_01-7" data-name="01"><g class="cls-83"><ellipse class="cls-51" cx="378.3" cy="77.7" rx="17.9" ry="18.6"/></g><g class="cls-84"><ellipse class="cls-53" cx="378.3" cy="77.7" rx="17" ry="17.7"/></g><g class="cls-54"><g class="cls-85"><path class="cls-56" d="M384.9,70.1a8.1,8.1,0,0,0-3.5-1.9c-.9-.1-1.8.1-2,.7s.5,2,2,3.5,3,3.4,3.6,3.3,1.5-1.8,1.6-2.7S386,71.2,384.9,70.1Z"/></g><g class="cls-86"><path class="cls-56" d="M370.2,82.2c-2.3-1.2-3.8-1.2-4-.4s.3,2.5,1.1,3.8a13.8,13.8,0,0,0,4.1,4.3c1.7.9,2.9,1.3,3.4.4s1.1-3.6.6-4.7S372.5,83.4,370.2,82.2Z"/></g></g><path class="cls-56" d="M379.9,61.1c-3.9-1-8.4.9-11.5,3.5s-6,6.6-6,10.6c0,1.5,1.1,4.5,2.1,4s1.2-2,1.8-3.4a16.9,16.9,0,0,1,11.3-10.2c1.9-.5,4.8-.5,5.5-1.4S381.2,61.5,379.9,61.1Z"/><g class="cls-87"><path class="cls-58" d="M375.1,93.6a9,9,0,0,0,2.2,1.1c3.6.8,7.9-.8,10.8-2.9s5.6-5.6,5.6-9a5.8,5.8,0,0,0-.5-2.1A22,22,0,0,1,375.1,93.6Z"/></g></g><g id="_01-8" data-name="01"><g class="cls-88"><ellipse class="cls-51" cx="409.3" cy="25" rx="18.4" ry="19.1"/></g><g class="cls-89"><ellipse class="cls-53" cx="409.3" cy="25" rx="17.4" ry="18.1"/></g><g class="cls-54"><g class="cls-90"><path class="cls-56" d="M416.1,17.2a7.4,7.4,0,0,0-3.6-1.9c-.8-.2-1.8.1-2,.7s.5,2,2,3.6,3.1,3.4,3.7,3.4,1.6-1.9,1.7-2.8S417.2,18.3,416.1,17.2Z"/></g><g class="cls-91"><path class="cls-56" d="M401,29.6c-2.3-1.2-3.8-1.2-4.1-.4a6.4,6.4,0,0,0,1.2,3.8,13.6,13.6,0,0,0,4.2,4.5c1.7.9,2.9,1.3,3.5.4s1.1-3.6.6-4.8S403.4,30.8,401,29.6Z"/></g></g><path class="cls-56" d="M411,8c-4-1-8.6,1-11.8,3.5s-6.2,6.8-6.2,11c0,1.5,1.2,4.5,2.2,4s1.2-2.1,1.9-3.4a19.4,19.4,0,0,1,5.3-7.3,17.9,17.9,0,0,1,6.3-3.2c1.9-.6,4.9-.6,5.6-1.4S412.4,8.4,411,8Z"/><g class="cls-92"><path class="cls-58" d="M406.1,41.3a6.5,6.5,0,0,0,2.2,1.1c3.7.9,8.1-.8,11.1-3s5.8-5.7,5.8-9.2a4.5,4.5,0,0,0-.6-2.1A22.2,22.2,0,0,1,406.1,41.3Z"/></g></g></g></g></g></svg>