<svg id="SB39_Interactive_Icon_07_F1" xmlns="http://www.w3.org/2000/svg" xmlns:xlink="http://www.w3.org/1999/xlink" viewBox="0 0 718 661"><defs><style>.cls-1{mask:url(#mask);filter:url(#luminosity-noclip-23);}.cls-10,.cls-12,.cls-14,.cls-16,.cls-18,.cls-2,.cls-20,.cls-22,.cls-24,.cls-26,.cls-28,.cls-30,.cls-4,.cls-6,.cls-8{mix-blend-mode:multiply;}.cls-2{fill:url(#radial-gradient);}.cls-3{mask:url(#mask-2);filter:url(#luminosity-noclip-24);}.cls-4{fill:url(#radial-gradient-2);}.cls-5{mask:url(#mask-3);filter:url(#luminosity-noclip-25);}.cls-6{fill:url(#radial-gradient-3);}.cls-7{mask:url(#mask-4);filter:url(#luminosity-noclip-28);}.cls-8{fill:url(#radial-gradient-4);}.cls-9{mask:url(#mask-5);filter:url(#luminosity-noclip-18);}.cls-10{fill:url(#radial-gradient-5);}.cls-11{mask:url(#mask-6);filter:url(#luminosity-noclip-29);}.cls-12{fill:url(#radial-gradient-6);}.cls-13{mask:url(#mask-7);filter:url(#luminosity-noclip-32);}.cls-14{fill:url(#radial-gradient-7);}.cls-15{mask:url(#mask-8);filter:url(#luminosity-noclip-33);}.cls-16{fill:url(#radial-gradient-8);}.cls-17{mask:url(#mask-9);filter:url(#luminosity-noclip-34);}.cls-18{fill:url(#radial-gradient-9);}.cls-19{mask:url(#mask-10);filter:url(#luminosity-noclip-37);}.cls-20{fill:url(#radial-gradient-10);}.cls-21{mask:url(#mask-11);filter:url(#luminosity-noclip-38);}.cls-22{fill:url(#radial-gradient-11);}.cls-23{mask:url(#mask-12);filter:url(#luminosity-noclip-39);}.cls-24{fill:url(#radial-gradient-12);}.cls-25{mask:url(#mask-13);filter:url(#luminosity-noclip-19);}.cls-26{fill:url(#radial-gradient-13);}.cls-27{mask:url(#mask-14);filter:url(#luminosity-noclip-42);}.cls-28{fill:url(#radial-gradient-14);}.cls-29{mask:url(#mask-15);filter:url(#luminosity-noclip-20);}.cls-30{fill:url(#radial-gradient-15);}.cls-31{fill:none;}.cls-32{fill:url(#linear-gradient);}.cls-33,.cls-35{fill:#31d0e5;}.cls-33{stroke-miterlimit:10;stroke-width:6px;stroke:url(#linear-gradient-2);}.cls-34{clip-path:url(#clip-path);}.cls-36{mask:url(#mask-16);}.cls-37{fill:#d2f1f9;}.cls-38{mask:url(#mask-17);}.cls-39{fill:#b3e3fa;}.cls-40,.cls-45{opacity:0.7;}.cls-41{mask:url(#mask-18);}.cls-42,.cls-45{fill:#eff5f9;}.cls-43{mask:url(#mask-19);}.cls-44{mask:url(#mask-20);}.cls-46{mask:url(#mask-21);}.cls-47{mask:url(#mask-22);}.cls-48{mask:url(#mask-23);}.cls-49{mask:url(#mask-24);}.cls-50{mask:url(#mask-25);}.cls-51{mask:url(#mask-26);}.cls-52{mask:url(#mask-27);}.cls-53{mask:url(#mask-28);}.cls-54{mask:url(#mask-29);}.cls-55{mask:url(#mask-30);}.cls-56{mask:url(#mask-31);}.cls-57{mask:url(#mask-32);}.cls-58{mask:url(#mask-33);}.cls-59{mask:url(#mask-34);}.cls-60{mask:url(#mask-35);}.cls-61{mask:url(#mask-36);}.cls-62{mask:url(#mask-37);}.cls-63{mask:url(#mask-38);}.cls-64{mask:url(#mask-39);}.cls-65{mask:url(#mask-40);}.cls-66{mask:url(#mask-41);}.cls-67{mask:url(#mask-42);}.cls-68{filter:url(#luminosity-noclip-41);}.cls-69{filter:url(#luminosity-noclip-40);}.cls-70{filter:url(#luminosity-noclip-36);}.cls-71{filter:url(#luminosity-noclip-35);}.cls-72{filter:url(#luminosity-noclip-31);}.cls-73{filter:url(#luminosity-noclip-30);}.cls-74{filter:url(#luminosity-noclip-27);}.cls-75{filter:url(#luminosity-noclip-26);}.cls-76{filter:url(#luminosity-noclip-22);}.cls-77{filter:url(#luminosity-noclip-21);}.cls-78{filter:url(#luminosity-noclip-17);}.cls-79{filter:url(#luminosity-noclip-16);}.cls-80{filter:url(#luminosity-noclip-15);}.cls-81{filter:url(#luminosity-noclip-14);}.cls-82{filter:url(#luminosity-noclip-13);}.cls-83{filter:url(#luminosity-noclip-12);}.cls-84{filter:url(#luminosity-noclip-11);}.cls-85{filter:url(#luminosity-noclip-10);}.cls-86{filter:url(#luminosity-noclip-9);}.cls-87{filter:url(#luminosity-noclip-8);}.cls-88{filter:url(#luminosity-noclip-7);}.cls-89{filter:url(#luminosity-noclip-6);}.cls-90{filter:url(#luminosity-noclip-5);}.cls-91{filter:url(#luminosity-noclip-4);}.cls-92{filter:url(#luminosity-noclip-3);}.cls-93{filter:url(#luminosity-noclip-2);}.cls-94{filter:url(#luminosity-noclip);}</style><filter id="luminosity-noclip" x="627.14" y="-4077.76" width="13.55" height="32766" filterUnits="userSpaceOnUse" color-interpolation-filters="sRGB"><feFlood flood-color="#fff" result="bg"/><feBlend in="SourceGraphic" in2="bg"/></filter><mask id="mask" x="627.14" y="-4077.76" width="13.55" height="32766" maskUnits="userSpaceOnUse"><g class="cls-94"/></mask><radialGradient id="radial-gradient" cx="368.47" cy="-3390.51" r="5.66" gradientTransform="translate(-877.9 14391.8) scale(4.07 4.23)" gradientUnits="userSpaceOnUse"><stop offset="0.17"/><stop offset="0.37" stop-color="#454545"/><stop offset="0.63" stop-color="#9b9b9b"/><stop offset="0.82" stop-color="#d1d1d1"/><stop offset="0.9" stop-color="#e6e6e6"/></radialGradient><filter id="luminosity-noclip-2" x="602.26" y="-4077.76" width="17.74" height="32766" filterUnits="userSpaceOnUse" color-interpolation-filters="sRGB"><feFlood flood-color="#fff" result="bg"/><feBlend in="SourceGraphic" in2="bg"/></filter><mask id="mask-2" x="602.26" y="-4077.76" width="17.74" height="32766" maskUnits="userSpaceOnUse"><g class="cls-93"/></mask><radialGradient id="radial-gradient-2" cx="274.82" cy="-3340.86" r="5.66" gradientTransform="matrix(4.04, -0.55, 0.52, 4.2, 1264.67, 14212.59)" xlink:href="#radial-gradient"/><filter id="luminosity-noclip-3" x="619.11" y="-4077.76" width="34.98" height="32766" filterUnits="userSpaceOnUse" color-interpolation-filters="sRGB"><feFlood flood-color="#fff" result="bg"/><feBlend in="SourceGraphic" in2="bg"/></filter><mask id="mask-3" x="619.11" y="-4077.76" width="34.98" height="32766" maskUnits="userSpaceOnUse"><g class="cls-92"/></mask><radialGradient id="radial-gradient-3" cx="390.96" cy="-3279.09" r="17.34" gradientTransform="translate(-890.8 11759) scale(3.83 3.58)" gradientUnits="userSpaceOnUse"><stop offset="0.84"/><stop offset="0.85" stop-color="#2a2a2a"/><stop offset="0.86" stop-color="#5b5b5b"/><stop offset="0.87" stop-color="#868686"/><stop offset="0.88" stop-color="#a9a9a9"/><stop offset="0.89" stop-color="#c4c4c4"/><stop offset="0.9" stop-color="#d7d7d7"/><stop offset="0.91" stop-color="#e2e2e2"/><stop offset="0.92" stop-color="#e6e6e6"/></radialGradient><filter id="luminosity-noclip-4" x="497.87" y="-4077.76" width="13.65" height="32766" filterUnits="userSpaceOnUse" color-interpolation-filters="sRGB"><feFlood flood-color="#fff" result="bg"/><feBlend in="SourceGraphic" in2="bg"/></filter><mask id="mask-4" x="497.87" y="-4077.76" width="13.65" height="32766" maskUnits="userSpaceOnUse"><g class="cls-91"/></mask><radialGradient id="radial-gradient-4" cx="249.49" cy="-3353.27" r="4.36" gradientTransform="matrix(4.04, -0.55, 0.52, 4.2, 1264.67, 14212.59)" xlink:href="#radial-gradient"/><filter id="luminosity-noclip-5" x="477.49" y="-4077.76" width="19.97" height="32766" filterUnits="userSpaceOnUse" color-interpolation-filters="sRGB"><feFlood flood-color="#fff" result="bg"/><feBlend in="SourceGraphic" in2="bg"/></filter><mask id="mask-5" x="477.49" y="-4077.76" width="19.97" height="32766" maskUnits="userSpaceOnUse"><g class="cls-90"/></mask><radialGradient id="radial-gradient-5" cx="331.33" cy="-3362.87" r="8.34" xlink:href="#radial-gradient"/><filter id="luminosity-noclip-6" x="510.83" y="-4077.76" width="26.92" height="32766" filterUnits="userSpaceOnUse" color-interpolation-filters="sRGB"><feFlood flood-color="#fff" result="bg"/><feBlend in="SourceGraphic" in2="bg"/></filter><mask id="mask-6" x="510.83" y="-4077.76" width="26.92" height="32766" maskUnits="userSpaceOnUse"><g class="cls-89"/></mask><radialGradient id="radial-gradient-6" cx="363.44" cy="-3287.87" r="13.34" xlink:href="#radial-gradient-3"/><filter id="luminosity-noclip-7" x="285.16" y="-4077.76" width="14.75" height="32766" filterUnits="userSpaceOnUse" color-interpolation-filters="sRGB"><feFlood flood-color="#fff" result="bg"/><feBlend in="SourceGraphic" in2="bg"/></filter><mask id="mask-7" x="285.16" y="-4077.76" width="14.75" height="32766" maskUnits="userSpaceOnUse"><g class="cls-88"/></mask><radialGradient id="radial-gradient-7" cx="284.47" cy="-3377.45" r="6.16" xlink:href="#radial-gradient"/><filter id="luminosity-noclip-8" x="258.09" y="-4077.76" width="19.31" height="32766" filterUnits="userSpaceOnUse" color-interpolation-filters="sRGB"><feFlood flood-color="#fff" result="bg"/><feBlend in="SourceGraphic" in2="bg"/></filter><mask id="mask-8" x="258.09" y="-4077.76" width="19.31" height="32766" maskUnits="userSpaceOnUse"><g class="cls-87"/></mask><radialGradient id="radial-gradient-8" cx="189.81" cy="-3338.76" r="6.16" gradientTransform="matrix(4.04, -0.55, 0.52, 4.2, 1264.67, 14212.59)" xlink:href="#radial-gradient"/><filter id="luminosity-noclip-9" x="276.42" y="-4077.76" width="38.07" height="32766" filterUnits="userSpaceOnUse" color-interpolation-filters="sRGB"><feFlood flood-color="#fff" result="bg"/><feBlend in="SourceGraphic" in2="bg"/></filter><mask id="mask-9" x="276.42" y="-4077.76" width="38.07" height="32766" maskUnits="userSpaceOnUse"><g class="cls-86"/></mask><radialGradient id="radial-gradient-9" cx="301.2" cy="-3264.43" r="18.87" xlink:href="#radial-gradient-3"/><filter id="luminosity-noclip-10" x="402.11" y="-4077.76" width="7.22" height="32766" filterUnits="userSpaceOnUse" color-interpolation-filters="sRGB"><feFlood flood-color="#fff" result="bg"/><feBlend in="SourceGraphic" in2="bg"/></filter><mask id="mask-10" x="402.11" y="-4077.76" width="7.22" height="32766" maskUnits="userSpaceOnUse"><g class="cls-85"/></mask><radialGradient id="radial-gradient-10" cx="313.66" cy="-3391.2" r="3.02" xlink:href="#radial-gradient"/><filter id="luminosity-noclip-11" x="388.86" y="-4077.76" width="9.45" height="32766" filterUnits="userSpaceOnUse" color-interpolation-filters="sRGB"><feFlood flood-color="#fff" result="bg"/><feBlend in="SourceGraphic" in2="bg"/></filter><mask id="mask-11" x="388.86" y="-4077.76" width="9.45" height="32766" maskUnits="userSpaceOnUse"><g class="cls-84"/></mask><radialGradient id="radial-gradient-11" cx="220.74" cy="-3348.41" r="3.02" gradientTransform="matrix(4.04, -0.55, 0.52, 4.2, 1264.67, 14212.59)" xlink:href="#radial-gradient"/><filter id="luminosity-noclip-12" x="397.84" y="-4077.76" width="18.63" height="32766" filterUnits="userSpaceOnUse" color-interpolation-filters="sRGB"><feFlood flood-color="#fff" result="bg"/><feBlend in="SourceGraphic" in2="bg"/></filter><mask id="mask-12" x="397.84" y="-4077.76" width="18.63" height="32766" maskUnits="userSpaceOnUse"><g class="cls-83"/></mask><radialGradient id="radial-gradient-12" cx="334.72" cy="-3275.84" r="9.24" xlink:href="#radial-gradient-3"/><filter id="luminosity-noclip-13" x="440.84" y="-4077.76" width="26.14" height="32766" filterUnits="userSpaceOnUse" color-interpolation-filters="sRGB"><feFlood flood-color="#fff" result="bg"/><feBlend in="SourceGraphic" in2="bg"/></filter><mask id="mask-13" x="440.84" y="-4077.76" width="26.14" height="32766" maskUnits="userSpaceOnUse"><g class="cls-82"/></mask><radialGradient id="radial-gradient-13" cx="234.25" cy="-3318.42" r="8.34" gradientTransform="matrix(4.04, -0.55, 0.52, 4.2, 1264.67, 14212.59)" xlink:href="#radial-gradient"/><filter id="luminosity-noclip-14" x="428.82" y="-4077.76" width="19.09" height="32766" filterUnits="userSpaceOnUse" color-interpolation-filters="sRGB"><feFlood flood-color="#fff" result="bg"/><feBlend in="SourceGraphic" in2="bg"/></filter><mask id="mask-14" x="428.82" y="-4077.76" width="19.09" height="32766" maskUnits="userSpaceOnUse"><g class="cls-81"/></mask><radialGradient id="radial-gradient-14" cx="342.76" cy="-3290.66" r="9.47" xlink:href="#radial-gradient-3"/><filter id="luminosity-noclip-15" x="465.66" y="-4077.76" width="51.54" height="32766" filterUnits="userSpaceOnUse" color-interpolation-filters="sRGB"><feFlood flood-color="#fff" result="bg"/><feBlend in="SourceGraphic" in2="bg"/></filter><mask id="mask-15" x="465.66" y="-4077.76" width="51.54" height="32766" maskUnits="userSpaceOnUse"><g class="cls-80"/></mask><radialGradient id="radial-gradient-15" cx="349.35" cy="-3250.54" r="25.55" xlink:href="#radial-gradient-3"/><linearGradient id="linear-gradient" x1="104.06" y1="155.82" x2="602.27" y2="497.19" gradientUnits="userSpaceOnUse"><stop offset="0" stop-color="#9b81cf"/><stop offset="1" stop-color="#3b139b"/></linearGradient><linearGradient id="linear-gradient-2" x1="66.74" y1="330.5" x2="651.26" y2="330.5" gradientUnits="userSpaceOnUse"><stop offset="0" stop-color="#4c1da9"/><stop offset="1" stop-color="#997ece"/></linearGradient><clipPath id="clip-path"><ellipse class="cls-31" cx="358.4" cy="330.5" rx="287" ry="286"/></clipPath><filter id="luminosity-noclip-16" x="424.87" y="-4077.76" width="99.06" height="32766" filterUnits="userSpaceOnUse" color-interpolation-filters="sRGB"><feFlood flood-color="#fff" result="bg"/><feBlend in="SourceGraphic" in2="bg"/></filter><mask id="mask-16" x="424.87" y="-4077.76" width="99.06" height="32766" maskUnits="userSpaceOnUse"><g class="cls-79"/></mask><filter id="luminosity-noclip-17" x="427.32" y="-4077.76" width="94.15" height="32766" filterUnits="userSpaceOnUse" color-interpolation-filters="sRGB"><feFlood flood-color="#fff" result="bg"/><feBlend in="SourceGraphic" in2="bg"/></filter><mask id="mask-17" x="427.32" y="-4077.76" width="94.15" height="32766" maskUnits="userSpaceOnUse"><g class="cls-78"/></mask><filter id="luminosity-noclip-18" x="477.49" y="130.34" width="19.97" height="20.87" filterUnits="userSpaceOnUse" color-interpolation-filters="sRGB"><feFlood flood-color="#fff" result="bg"/><feBlend in="SourceGraphic" in2="bg"/></filter><mask id="mask-18" x="477.49" y="130.34" width="19.97" height="20.87" maskUnits="userSpaceOnUse"><g class="cls-9"><path class="cls-10" d="M492.8,135.7a20.9,20.9,0,0,0-9.8-5.2c-2.3-.4-4.9.3-5.4,1.9s1.3,5.4,5.4,9.8,8.3,9.2,10.1,9,4.1-4.9,4.3-7.4S495.8,138.7,492.8,135.7Z"/></g></mask><filter id="luminosity-noclip-19" x="440.84" y="166.52" width="26.14" height="26.46" filterUnits="userSpaceOnUse" color-interpolation-filters="sRGB"><feFlood flood-color="#fff" result="bg"/><feBlend in="SourceGraphic" in2="bg"/></filter><mask id="mask-19" x="440.84" y="166.52" width="26.14" height="26.46" maskUnits="userSpaceOnUse"><g class="cls-25"><path class="cls-26" d="M452.1,169.2c-6.3-3.3-10.5-3.4-11.1-1.2s.9,7,3,10.4,6.9,9.5,11.5,12,7.8,3.6,9.3,1.2,3-9.9,1.6-13S458.3,172.4,452.1,169.2Z"/></g></mask><filter id="luminosity-noclip-20" x="465.66" y="164.97" width="51.54" height="39.35" filterUnits="userSpaceOnUse" color-interpolation-filters="sRGB"><feFlood flood-color="#fff" result="bg"/><feBlend in="SourceGraphic" in2="bg"/></filter><mask id="mask-20" x="465.66" y="164.97" width="51.54" height="39.35" maskUnits="userSpaceOnUse"><g class="cls-29"><path class="cls-30" d="M465.7,200.6a18.1,18.1,0,0,0,6,3.1c10,2.3,21.8-2.1,29.9-8s15.6-15.5,15.6-25a14.7,14.7,0,0,0-1.5-5.7A59.9,59.9,0,0,1,465.7,200.6Z"/></g></mask><filter id="luminosity-noclip-21" x="591.42" y="-4077.76" width="67.25" height="32766" filterUnits="userSpaceOnUse" color-interpolation-filters="sRGB"><feFlood flood-color="#fff" result="bg"/><feBlend in="SourceGraphic" in2="bg"/></filter><mask id="mask-21" x="591.42" y="-4077.76" width="67.25" height="32766" maskUnits="userSpaceOnUse"><g class="cls-77"/></mask><filter id="luminosity-noclip-22" x="593.09" y="-4077.76" width="63.91" height="32766" filterUnits="userSpaceOnUse" color-interpolation-filters="sRGB"><feFlood flood-color="#fff" result="bg"/><feBlend in="SourceGraphic" in2="bg"/></filter><mask id="mask-22" x="593.09" y="-4077.76" width="63.91" height="32766" maskUnits="userSpaceOnUse"><g class="cls-76"/></mask><filter id="luminosity-noclip-23" x="627.14" y="22.89" width="13.55" height="14.17" filterUnits="userSpaceOnUse" color-interpolation-filters="sRGB"><feFlood flood-color="#fff" result="bg"/><feBlend in="SourceGraphic" in2="bg"/></filter><mask id="mask-23" x="627.14" y="22.89" width="13.55" height="14.17" maskUnits="userSpaceOnUse"><g class="cls-1"><path class="cls-2" d="M637.5,26.5a12.9,12.9,0,0,0-6.6-3.5c-1.6-.3-3.3.2-3.7,1.3s.9,3.7,3.7,6.6,5.6,6.3,6.8,6.2,2.8-3.4,3-5.1S639.6,28.6,637.5,26.5Z"/></g></mask><filter id="luminosity-noclip-24" x="602.26" y="47.44" width="17.74" height="17.96" filterUnits="userSpaceOnUse" color-interpolation-filters="sRGB"><feFlood flood-color="#fff" result="bg"/><feBlend in="SourceGraphic" in2="bg"/></filter><mask id="mask-24" x="602.26" y="47.44" width="17.74" height="17.96" maskUnits="userSpaceOnUse"><g class="cls-3"><path class="cls-4" d="M609.9,49.2c-4.3-2.2-7.1-2.2-7.5-.7s.6,4.7,2,7,4.7,6.4,7.8,8.2,5.3,2.4,6.3.8,2.1-6.7,1.1-8.9S614.1,51.4,609.9,49.2Z"/></g></mask><filter id="luminosity-noclip-25" x="619.11" y="46.39" width="34.98" height="26.72" filterUnits="userSpaceOnUse" color-interpolation-filters="sRGB"><feFlood flood-color="#fff" result="bg"/><feBlend in="SourceGraphic" in2="bg"/></filter><mask id="mask-25" x="619.11" y="46.39" width="34.98" height="26.72" maskUnits="userSpaceOnUse"><g class="cls-5"><path class="cls-6" d="M619.1,70.6a12.3,12.3,0,0,0,4.1,2.1c6.8,1.5,14.8-1.5,20.3-5.5s10.6-10.5,10.6-16.9a10.2,10.2,0,0,0-1-3.9A40.7,40.7,0,0,1,619.1,70.6Z"/></g></mask><filter id="luminosity-noclip-26" x="489.53" y="-4077.76" width="51.74" height="32766" filterUnits="userSpaceOnUse" color-interpolation-filters="sRGB"><feFlood flood-color="#fff" result="bg"/><feBlend in="SourceGraphic" in2="bg"/></filter><mask id="mask-26" x="489.53" y="-4077.76" width="51.74" height="32766" maskUnits="userSpaceOnUse"><g class="cls-75"/></mask><filter id="luminosity-noclip-27" x="490.81" y="-4077.76" width="49.17" height="32766" filterUnits="userSpaceOnUse" color-interpolation-filters="sRGB"><feFlood flood-color="#fff" result="bg"/><feBlend in="SourceGraphic" in2="bg"/></filter><mask id="mask-27" x="490.81" y="-4077.76" width="49.17" height="32766" maskUnits="userSpaceOnUse"><g class="cls-74"/></mask><filter id="luminosity-noclip-28" x="497.87" y="7.8" width="13.65" height="13.82" filterUnits="userSpaceOnUse" color-interpolation-filters="sRGB"><feFlood flood-color="#fff" result="bg"/><feBlend in="SourceGraphic" in2="bg"/></filter><mask id="mask-28" x="497.87" y="7.8" width="13.65" height="13.82" maskUnits="userSpaceOnUse"><g class="cls-7"><path class="cls-8" d="M503.7,9.2c-3.2-1.7-5.4-1.8-5.8-.6s.5,3.6,1.6,5.4a20.9,20.9,0,0,0,6,6.3c2.4,1.3,4.1,1.9,4.9.6s1.5-5.2.8-6.8S507,10.9,503.7,9.2Z"/></g></mask><filter id="luminosity-noclip-29" x="510.83" y="6.99" width="26.92" height="20.55" filterUnits="userSpaceOnUse" color-interpolation-filters="sRGB"><feFlood flood-color="#fff" result="bg"/><feBlend in="SourceGraphic" in2="bg"/></filter><mask id="mask-29" x="510.83" y="6.99" width="26.92" height="20.55" maskUnits="userSpaceOnUse"><g class="cls-11"><path class="cls-12" d="M510.8,25.6a8.7,8.7,0,0,0,3.2,1.6c5.2,1.2,11.4-1.1,15.6-4.2s8.2-8.1,8.1-13a9.2,9.2,0,0,0-.7-3A31.4,31.4,0,0,1,510.8,25.6Z"/></g></mask><filter id="luminosity-noclip-30" x="246.29" y="-4077.76" width="73.18" height="32766" filterUnits="userSpaceOnUse" color-interpolation-filters="sRGB"><feFlood flood-color="#fff" result="bg"/><feBlend in="SourceGraphic" in2="bg"/></filter><mask id="mask-30" x="246.29" y="-4077.76" width="73.18" height="32766" maskUnits="userSpaceOnUse"><g class="cls-73"/></mask><filter id="luminosity-noclip-31" x="248.1" y="-4077.76" width="69.55" height="32766" filterUnits="userSpaceOnUse" color-interpolation-filters="sRGB"><feFlood flood-color="#fff" result="bg"/><feBlend in="SourceGraphic" in2="bg"/></filter><mask id="mask-31" x="248.1" y="-4077.76" width="69.55" height="32766" maskUnits="userSpaceOnUse"><g class="cls-72"/></mask><filter id="luminosity-noclip-32" x="285.16" y="76.37" width="14.75" height="15.42" filterUnits="userSpaceOnUse" color-interpolation-filters="sRGB"><feFlood flood-color="#fff" result="bg"/><feBlend in="SourceGraphic" in2="bg"/></filter><mask id="mask-32" x="285.16" y="76.37" width="14.75" height="15.42" maskUnits="userSpaceOnUse"><g class="cls-13"><path class="cls-14" d="M296.4,80.3a14.8,14.8,0,0,0-7.2-3.9c-1.7-.3-3.6.3-4,1.5s1,4,4,7.2,6.2,6.8,7.5,6.7,3-3.7,3.2-5.5S298.7,82.6,296.4,80.3Z"/></g></mask><filter id="luminosity-noclip-33" x="258.09" y="103.09" width="19.31" height="19.55" filterUnits="userSpaceOnUse" color-interpolation-filters="sRGB"><feFlood flood-color="#fff" result="bg"/><feBlend in="SourceGraphic" in2="bg"/></filter><mask id="mask-33" x="258.09" y="103.09" width="19.31" height="19.55" maskUnits="userSpaceOnUse"><g class="cls-15"><path class="cls-16" d="M266.4,105c-4.6-2.4-7.7-2.4-8.2-.8s.7,5.2,2.2,7.7,5.1,7,8.5,8.8,5.8,2.7,6.9.9,2.2-7.3,1.2-9.6S271,107.4,266.4,105Z"/></g></mask><filter id="luminosity-noclip-34" x="276.42" y="101.94" width="38.07" height="29.07" filterUnits="userSpaceOnUse" color-interpolation-filters="sRGB"><feFlood flood-color="#fff" result="bg"/><feBlend in="SourceGraphic" in2="bg"/></filter><mask id="mask-34" x="276.42" y="101.94" width="38.07" height="29.07" maskUnits="userSpaceOnUse"><g class="cls-17"><path class="cls-18" d="M276.4,128.3a14.8,14.8,0,0,0,4.5,2.3c7.3,1.7,16.1-1.6,22.1-6s11.5-11.4,11.5-18.4a10.9,10.9,0,0,0-1.1-4.3A44.4,44.4,0,0,1,276.4,128.3Z"/></g></mask><filter id="luminosity-noclip-35" x="383.09" y="-4077.76" width="35.81" height="32766" filterUnits="userSpaceOnUse" color-interpolation-filters="sRGB"><feFlood flood-color="#fff" result="bg"/><feBlend in="SourceGraphic" in2="bg"/></filter><mask id="mask-35" x="383.09" y="-4077.76" width="35.81" height="32766" maskUnits="userSpaceOnUse"><g class="cls-71"/></mask><filter id="luminosity-noclip-36" x="383.98" y="-4077.76" width="34.04" height="32766" filterUnits="userSpaceOnUse" color-interpolation-filters="sRGB"><feFlood flood-color="#fff" result="bg"/><feBlend in="SourceGraphic" in2="bg"/></filter><mask id="mask-36" x="383.98" y="-4077.76" width="34.04" height="32766" maskUnits="userSpaceOnUse"><g class="cls-70"/></mask><filter id="luminosity-noclip-37" x="402.11" y="29.39" width="7.22" height="7.55" filterUnits="userSpaceOnUse" color-interpolation-filters="sRGB"><feFlood flood-color="#fff" result="bg"/><feBlend in="SourceGraphic" in2="bg"/></filter><mask id="mask-37" x="402.11" y="29.39" width="7.22" height="7.55" maskUnits="userSpaceOnUse"><g class="cls-19"><path class="cls-20" d="M407.6,31.3a8.1,8.1,0,0,0-3.5-1.9c-.8-.1-1.8.1-2,.7s.5,2,2,3.6,3,3.3,3.7,3.2,1.4-1.7,1.5-2.6S408.7,32.4,407.6,31.3Z"/></g></mask><filter id="luminosity-noclip-38" x="388.86" y="42.47" width="9.45" height="9.57" filterUnits="userSpaceOnUse" color-interpolation-filters="sRGB"><feFlood flood-color="#fff" result="bg"/><feBlend in="SourceGraphic" in2="bg"/></filter><mask id="mask-38" x="388.86" y="42.47" width="9.45" height="9.57" maskUnits="userSpaceOnUse"><g class="cls-21"><path class="cls-22" d="M392.9,43.4c-2.2-1.2-3.7-1.2-4-.4a6.4,6.4,0,0,0,1.1,3.8,14.2,14.2,0,0,0,4.2,4.3c1.6.9,2.8,1.3,3.3.5a7.1,7.1,0,0,0,.6-4.8C397.6,45.7,395.2,44.6,392.9,43.4Z"/></g></mask><filter id="luminosity-noclip-39" x="397.84" y="41.91" width="18.63" height="14.23" filterUnits="userSpaceOnUse" color-interpolation-filters="sRGB"><feFlood flood-color="#fff" result="bg"/><feBlend in="SourceGraphic" in2="bg"/></filter><mask id="mask-39" x="397.84" y="41.91" width="18.63" height="14.23" maskUnits="userSpaceOnUse"><g class="cls-23"><path class="cls-24" d="M397.8,54.8a6.5,6.5,0,0,0,2.2,1.1c3.6.8,7.9-.8,10.8-2.9s5.7-5.6,5.7-9a4.5,4.5,0,0,0-.6-2.1A21.6,21.6,0,0,1,397.8,54.8Z"/></g></mask><filter id="luminosity-noclip-40" x="413.7" y="-4077.76" width="36.7" height="32766" filterUnits="userSpaceOnUse" color-interpolation-filters="sRGB"><feFlood flood-color="#fff" result="bg"/><feBlend in="SourceGraphic" in2="bg"/></filter><mask id="mask-40" x="413.7" y="-4077.76" width="36.7" height="32766" maskUnits="userSpaceOnUse"><g class="cls-69"/></mask><filter id="luminosity-noclip-41" x="414.61" y="-4077.76" width="34.88" height="32766" filterUnits="userSpaceOnUse" color-interpolation-filters="sRGB"><feFlood flood-color="#fff" result="bg"/><feBlend in="SourceGraphic" in2="bg"/></filter><mask id="mask-41" x="414.61" y="-4077.76" width="34.88" height="32766" maskUnits="userSpaceOnUse"><g class="cls-68"/></mask><filter id="luminosity-noclip-42" x="428.82" y="-10.72" width="19.09" height="14.58" filterUnits="userSpaceOnUse" color-interpolation-filters="sRGB"><feFlood flood-color="#fff" result="bg"/><feBlend in="SourceGraphic" in2="bg"/></filter><mask id="mask-42" x="428.82" y="-10.72" width="19.09" height="14.58" maskUnits="userSpaceOnUse"><g class="cls-27"><path class="cls-28" d="M428.8,2.5a6.1,6.1,0,0,0,2.3,1.1c3.6.9,8-.8,11-3s5.8-5.7,5.8-9.2a5.8,5.8,0,0,0-.5-2.1A22.5,22.5,0,0,1,428.8,2.5Z"/></g></mask></defs><g id="Layer_1" data-name="Layer 1"><circle class="cls-32" cx="359" cy="330.5" r="301.9"/><circle class="cls-33" cx="359" cy="330.5" r="289.3"/><g class="cls-34"><rect class="cls-35" x="-4.9" y="43.1" width="892.8" height="889.85"/><line class="cls-31" x1="266.5" y1="288.5" x2="260.2" y2="287.7"/><g id="_011" data-name="011"><g id="_01" data-name="01"><g class="cls-36"><ellipse class="cls-37" cx="474.4" cy="156.8" rx="49.5" ry="51.4"/></g><g class="cls-38"><ellipse class="cls-39" cx="474.4" cy="156.8" rx="47.1" ry="48.9"/></g><g class="cls-40"><g class="cls-41"><path class="cls-42" d="M492.8,135.7a20.9,20.9,0,0,0-9.8-5.2c-2.3-.4-4.9.3-5.4,1.9s1.3,5.4,5.4,9.8,8.3,9.2,10.1,9,4.1-4.9,4.3-7.4S495.8,138.7,492.8,135.7Z"/></g><g class="cls-43"><path class="cls-42" d="M452.1,169.2c-6.3-3.3-10.5-3.4-11.1-1.2s.9,7,3,10.4,6.9,9.5,11.5,12,7.8,3.6,9.3,1.2,3-9.9,1.6-13S458.3,172.4,452.1,169.2Z"/></g></g><path class="cls-42" d="M478.8,110.9c-10.5-2.7-23.1,2.5-31.7,9.5s-16.6,18.3-16.6,29.5c0,4,3.1,12.3,5.8,10.9s3.3-5.6,5-9.2c3.7-7.9,8-14.4,14.5-19.7a50.2,50.2,0,0,1,16.9-8.7c5.1-1.5,13.1-1.4,15-3.8S482.6,111.8,478.8,110.9Z"/><g class="cls-44"><path class="cls-45" d="M465.7,200.6a18.1,18.1,0,0,0,6,3.1c10,2.3,21.8-2.1,29.9-8s15.6-15.5,15.6-25a14.7,14.7,0,0,0-1.5-5.7A59.9,59.9,0,0,1,465.7,200.6Z"/></g></g><g id="_01-2" data-name="01"><g class="cls-46"><ellipse class="cls-37" cx="625" cy="40.8" rx="33.6" ry="34.9"/></g><g class="cls-47"><ellipse class="cls-39" cx="625" cy="40.8" rx="32" ry="33.2"/></g><g class="cls-40"><g class="cls-48"><path class="cls-42" d="M637.5,26.5a12.9,12.9,0,0,0-6.6-3.5c-1.6-.3-3.3.2-3.7,1.3s.9,3.7,3.7,6.6,5.6,6.3,6.8,6.2,2.8-3.4,3-5.1S639.6,28.6,637.5,26.5Z"/></g><g class="cls-49"><path class="cls-42" d="M609.9,49.2c-4.3-2.2-7.1-2.2-7.5-.7s.6,4.7,2,7,4.7,6.4,7.8,8.2,5.3,2.4,6.3.8,2.1-6.7,1.1-8.9S614.1,51.4,609.9,49.2Z"/></g></g><path class="cls-42" d="M628.1,9.7c-7.2-1.9-15.7,1.7-21.6,6.4s-11.3,12.4-11.3,20c0,2.8,2.1,8.4,4,7.5s2.2-3.8,3.4-6.3c2.5-5.3,5.4-9.8,9.8-13.3a32.2,32.2,0,0,1,11.5-5.9c3.5-1.1,8.9-1,10.2-2.7S630.6,10.3,628.1,9.7Z"/><g class="cls-50"><path class="cls-45" d="M619.1,70.6a12.3,12.3,0,0,0,4.1,2.1c6.8,1.5,14.8-1.5,20.3-5.5s10.6-10.5,10.6-16.9a10.2,10.2,0,0,0-1-3.9A40.7,40.7,0,0,1,619.1,70.6Z"/></g></g><g id="_01-3" data-name="01"><g class="cls-51"><ellipse class="cls-37" cx="515.4" cy="2.7" rx="25.9" ry="26.9"/></g><g class="cls-52"><ellipse class="cls-39" cx="515.4" cy="2.7" rx="24.6" ry="25.5"/></g><g class="cls-40"><g class="cls-53"><path class="cls-42" d="M503.7,9.2c-3.2-1.7-5.4-1.8-5.8-.6s.5,3.6,1.6,5.4a20.9,20.9,0,0,0,6,6.3c2.4,1.3,4.1,1.9,4.9.6s1.5-5.2.8-6.8S507,10.9,503.7,9.2Z"/></g></g><path class="cls-42" d="M517.7-21.3c-5.5-1.4-12.1,1.4-16.6,5s-8.7,9.5-8.7,15.4c0,2.1,1.7,6.4,3.1,5.7s1.7-2.9,2.6-4.8a29.1,29.1,0,0,1,7.6-10.3,27.2,27.2,0,0,1,8.8-4.5c2.7-.8,6.9-.8,7.9-2S519.7-20.8,517.7-21.3Z"/><g class="cls-54"><path class="cls-45" d="M510.8,25.6a8.7,8.7,0,0,0,3.2,1.6c5.2,1.2,11.4-1.1,15.6-4.2s8.2-8.1,8.1-13a9.2,9.2,0,0,0-.7-3A31.4,31.4,0,0,1,510.8,25.6Z"/></g></g><g id="_01-4" data-name="01"><g class="cls-55"><ellipse class="cls-37" cx="282.9" cy="95.9" rx="36.6" ry="38"/></g><g class="cls-56"><ellipse class="cls-39" cx="282.9" cy="95.9" rx="34.8" ry="36.1"/></g><g class="cls-40"><g class="cls-57"><path class="cls-42" d="M296.4,80.3a14.8,14.8,0,0,0-7.2-3.9c-1.7-.3-3.6.3-4,1.5s1,4,4,7.2,6.2,6.8,7.5,6.7,3-3.7,3.2-5.5S298.7,82.6,296.4,80.3Z"/></g><g class="cls-58"><path class="cls-42" d="M266.4,105c-4.6-2.4-7.7-2.4-8.2-.8s.7,5.2,2.2,7.7,5.1,7,8.5,8.8,5.8,2.7,6.9.9,2.2-7.3,1.2-9.6S271,107.4,266.4,105Z"/></g></g><path class="cls-42" d="M286.2,62c-7.8-2-17.1,1.9-23.5,7s-12.3,13.5-12.3,21.8c0,3,2.3,9.1,4.4,8.1s2.3-4.2,3.6-6.9c2.8-5.8,6-10.6,10.8-14.5a35.7,35.7,0,0,1,12.4-6.4c3.8-1.1,9.7-1.1,11.1-2.8S289,62.7,286.2,62Z"/><g class="cls-59"><path class="cls-45" d="M276.4,128.3a14.8,14.8,0,0,0,4.5,2.3c7.3,1.7,16.1-1.6,22.1-6s11.5-11.4,11.5-18.4a10.9,10.9,0,0,0-1.1-4.3A44.4,44.4,0,0,1,276.4,128.3Z"/></g></g><g id="_01-5" data-name="01"><g class="cls-60"><ellipse class="cls-37" cx="401" cy="38.9" rx="17.9" ry="18.6"/></g><g class="cls-61"><ellipse class="cls-39" cx="401" cy="38.9" rx="17" ry="17.7"/></g><g class="cls-40"><g class="cls-62"><path class="cls-42" d="M407.6,31.3a8.1,8.1,0,0,0-3.5-1.9c-.8-.1-1.8.1-2,.7s.5,2,2,3.6,3,3.3,3.7,3.2,1.4-1.7,1.5-2.6S408.7,32.4,407.6,31.3Z"/></g><g class="cls-63"><path class="cls-42" d="M392.9,43.4c-2.2-1.2-3.7-1.2-4-.4a6.4,6.4,0,0,0,1.1,3.8,14.2,14.2,0,0,0,4.2,4.3c1.6.9,2.8,1.3,3.3.5a7.1,7.1,0,0,0,.6-4.8C397.6,45.7,395.2,44.6,392.9,43.4Z"/></g></g><path class="cls-42" d="M402.6,22.3c-3.8-.9-8.4,1-11.5,3.5s-6,6.6-6,10.7c0,1.4,1.1,4.4,2.1,3.9s1.2-2,1.8-3.3a19,19,0,0,1,5.3-7.1,17,17,0,0,1,6.1-3.2c1.8-.5,4.7-.5,5.4-1.4S404,22.7,402.6,22.3Z"/><g class="cls-64"><path class="cls-45" d="M397.8,54.8a6.5,6.5,0,0,0,2.2,1.1c3.6.8,7.9-.8,10.8-2.9s5.7-5.6,5.7-9a4.5,4.5,0,0,0-.6-2.1A21.6,21.6,0,0,1,397.8,54.8Z"/></g></g><g id="_01-6" data-name="01"><g class="cls-65"><ellipse class="cls-37" cx="432.1" cy="-13.8" rx="18.4" ry="19.1"/></g><g class="cls-66"><ellipse class="cls-39" cx="432.1" cy="-13.8" rx="17.4" ry="18.1"/></g><g class="cls-67"><path class="cls-45" d="M428.8,2.5a6.1,6.1,0,0,0,2.3,1.1c3.6.9,8-.8,11-3s5.8-5.7,5.8-9.2a5.8,5.8,0,0,0-.5-2.1A22.5,22.5,0,0,1,428.8,2.5Z"/></g></g></g></g></g></svg>