<svg id="SB39_Interactive_Icon_07_F1" xmlns="http://www.w3.org/2000/svg" xmlns:xlink="http://www.w3.org/1999/xlink" viewBox="0 0 718 661"><defs><style>.cls-1{mask:url(#mask);filter:url(#luminosity-noclip-18);}.cls-10,.cls-12,.cls-14,.cls-16,.cls-18,.cls-2,.cls-20,.cls-4,.cls-6,.cls-8{mix-blend-mode:multiply;}.cls-2{fill:url(#radial-gradient);}.cls-3{mask:url(#mask-2);filter:url(#luminosity-noclip-19);}.cls-4{fill:url(#radial-gradient-2);}.cls-5{mask:url(#mask-3);filter:url(#luminosity-noclip-22);}.cls-6{fill:url(#radial-gradient-3);}.cls-7{mask:url(#mask-4);filter:url(#luminosity-noclip-23);}.cls-8{fill:url(#radial-gradient-4);}.cls-9{mask:url(#mask-5);filter:url(#luminosity-noclip-13);}.cls-10{fill:url(#radial-gradient-5);}.cls-11{mask:url(#mask-6);filter:url(#luminosity-noclip-24);}.cls-12{fill:url(#radial-gradient-6);}.cls-13{mask:url(#mask-7);filter:url(#luminosity-noclip-27);}.cls-14{fill:url(#radial-gradient-7);}.cls-15{mask:url(#mask-8);filter:url(#luminosity-noclip-28);}.cls-16{fill:url(#radial-gradient-8);}.cls-17{mask:url(#mask-9);filter:url(#luminosity-noclip-14);}.cls-18{fill:url(#radial-gradient-9);}.cls-19{mask:url(#mask-10);filter:url(#luminosity-noclip-15);}.cls-20{fill:url(#radial-gradient-10);}.cls-21{fill:none;}.cls-22{fill:url(#linear-gradient);}.cls-23,.cls-25{fill:#31d0e5;}.cls-23{stroke-miterlimit:10;stroke-width:6px;stroke:url(#linear-gradient-2);}.cls-24{clip-path:url(#clip-path);}.cls-26{mask:url(#mask-11);}.cls-27{fill:#d2f1f9;}.cls-28{mask:url(#mask-12);}.cls-29{fill:#b3e3fa;}.cls-30,.cls-35{opacity:0.7;}.cls-31{mask:url(#mask-13);}.cls-32,.cls-35{fill:#eff5f9;}.cls-33{mask:url(#mask-14);}.cls-34{mask:url(#mask-15);}.cls-36{mask:url(#mask-16);}.cls-37{mask:url(#mask-17);}.cls-38{mask:url(#mask-18);}.cls-39{mask:url(#mask-19);}.cls-40{mask:url(#mask-20);}.cls-41{mask:url(#mask-21);}.cls-42{mask:url(#mask-22);}.cls-43{mask:url(#mask-23);}.cls-44{mask:url(#mask-24);}.cls-45{mask:url(#mask-25);}.cls-46{mask:url(#mask-26);}.cls-47{mask:url(#mask-27);}.cls-48{mask:url(#mask-28);}.cls-49{filter:url(#luminosity-noclip-26);}.cls-50{filter:url(#luminosity-noclip-25);}.cls-51{filter:url(#luminosity-noclip-21);}.cls-52{filter:url(#luminosity-noclip-20);}.cls-53{filter:url(#luminosity-noclip-17);}.cls-54{filter:url(#luminosity-noclip-16);}.cls-55{filter:url(#luminosity-noclip-12);}.cls-56{filter:url(#luminosity-noclip-11);}.cls-57{filter:url(#luminosity-noclip-10);}.cls-58{filter:url(#luminosity-noclip-9);}.cls-59{filter:url(#luminosity-noclip-8);}.cls-60{filter:url(#luminosity-noclip-7);}.cls-61{filter:url(#luminosity-noclip-6);}.cls-62{filter:url(#luminosity-noclip-5);}.cls-63{filter:url(#luminosity-noclip-4);}.cls-64{filter:url(#luminosity-noclip-3);}.cls-65{filter:url(#luminosity-noclip-2);}.cls-66{filter:url(#luminosity-noclip);}</style><filter id="luminosity-noclip" x="603.22" y="-4077.76" width="17.74" height="32766" filterUnits="userSpaceOnUse" color-interpolation-filters="sRGB"><feFlood flood-color="#fff" result="bg"/><feBlend in="SourceGraphic" in2="bg"/></filter><mask id="mask" x="603.22" y="-4077.76" width="17.74" height="32766" maskUnits="userSpaceOnUse"><g class="cls-66"/></mask><radialGradient id="radial-gradient" cx="276.43" cy="-3351.39" r="5.66" gradientTransform="matrix(4.04, -0.55, 0.52, 4.2, 1264.67, 14212.59)" gradientUnits="userSpaceOnUse"><stop offset="0.17"/><stop offset="0.37" stop-color="#454545"/><stop offset="0.63" stop-color="#9b9b9b"/><stop offset="0.82" stop-color="#d1d1d1"/><stop offset="0.9" stop-color="#e6e6e6"/></radialGradient><filter id="luminosity-noclip-2" x="620.07" y="-4077.76" width="34.98" height="32766" filterUnits="userSpaceOnUse" color-interpolation-filters="sRGB"><feFlood flood-color="#fff" result="bg"/><feBlend in="SourceGraphic" in2="bg"/></filter><mask id="mask-2" x="620.07" y="-4077.76" width="34.98" height="32766" maskUnits="userSpaceOnUse"><g class="cls-65"/></mask><radialGradient id="radial-gradient-2" cx="391.21" cy="-3291.68" r="17.34" gradientTransform="translate(-890.8 11759) scale(3.83 3.58)" gradientUnits="userSpaceOnUse"><stop offset="0.84"/><stop offset="0.85" stop-color="#2a2a2a"/><stop offset="0.86" stop-color="#5b5b5b"/><stop offset="0.87" stop-color="#868686"/><stop offset="0.88" stop-color="#a9a9a9"/><stop offset="0.89" stop-color="#c4c4c4"/><stop offset="0.9" stop-color="#d7d7d7"/><stop offset="0.91" stop-color="#e2e2e2"/><stop offset="0.92" stop-color="#e6e6e6"/></radialGradient><filter id="luminosity-noclip-3" x="286.12" y="-4077.76" width="14.75" height="32766" filterUnits="userSpaceOnUse" color-interpolation-filters="sRGB"><feFlood flood-color="#fff" result="bg"/><feBlend in="SourceGraphic" in2="bg"/></filter><mask id="mask-3" x="286.12" y="-4077.76" width="14.75" height="32766" maskUnits="userSpaceOnUse"><g class="cls-64"/></mask><radialGradient id="radial-gradient-3" cx="284.7" cy="-3388.11" r="6.16" gradientTransform="translate(-877.9 14391.8) scale(4.07 4.23)" xlink:href="#radial-gradient"/><filter id="luminosity-noclip-4" x="259.04" y="-4077.76" width="19.31" height="32766" filterUnits="userSpaceOnUse" color-interpolation-filters="sRGB"><feFlood flood-color="#fff" result="bg"/><feBlend in="SourceGraphic" in2="bg"/></filter><mask id="mask-4" x="259.04" y="-4077.76" width="19.31" height="32766" maskUnits="userSpaceOnUse"><g class="cls-63"/></mask><radialGradient id="radial-gradient-4" cx="191.42" cy="-3349.3" r="6.16" xlink:href="#radial-gradient"/><filter id="luminosity-noclip-5" x="478.44" y="-4077.76" width="19.97" height="32766" filterUnits="userSpaceOnUse" color-interpolation-filters="sRGB"><feFlood flood-color="#fff" result="bg"/><feBlend in="SourceGraphic" in2="bg"/></filter><mask id="mask-5" x="478.44" y="-4077.76" width="19.97" height="32766" maskUnits="userSpaceOnUse"><g class="cls-62"/></mask><radialGradient id="radial-gradient-5" cx="331.56" cy="-3373.52" r="8.34" gradientTransform="translate(-877.9 14391.8) scale(4.07 4.23)" xlink:href="#radial-gradient"/><filter id="luminosity-noclip-6" x="277.38" y="-4077.76" width="38.07" height="32766" filterUnits="userSpaceOnUse" color-interpolation-filters="sRGB"><feFlood flood-color="#fff" result="bg"/><feBlend in="SourceGraphic" in2="bg"/></filter><mask id="mask-6" x="277.38" y="-4077.76" width="38.07" height="32766" maskUnits="userSpaceOnUse"><g class="cls-61"/></mask><radialGradient id="radial-gradient-6" cx="301.45" cy="-3277.02" r="18.87" xlink:href="#radial-gradient-2"/><filter id="luminosity-noclip-7" x="389.82" y="-4077.76" width="9.45" height="32766" filterUnits="userSpaceOnUse" color-interpolation-filters="sRGB"><feFlood flood-color="#fff" result="bg"/><feBlend in="SourceGraphic" in2="bg"/></filter><mask id="mask-7" x="389.82" y="-4077.76" width="9.45" height="32766" maskUnits="userSpaceOnUse"><g class="cls-60"/></mask><radialGradient id="radial-gradient-7" cx="222.34" cy="-3358.95" r="3.02" xlink:href="#radial-gradient"/><filter id="luminosity-noclip-8" x="398.79" y="-4077.76" width="18.63" height="32766" filterUnits="userSpaceOnUse" color-interpolation-filters="sRGB"><feFlood flood-color="#fff" result="bg"/><feBlend in="SourceGraphic" in2="bg"/></filter><mask id="mask-8" x="398.79" y="-4077.76" width="18.63" height="32766" maskUnits="userSpaceOnUse"><g class="cls-59"/></mask><radialGradient id="radial-gradient-8" cx="334.97" cy="-3288.43" r="9.24" xlink:href="#radial-gradient-2"/><filter id="luminosity-noclip-9" x="441.79" y="-4077.76" width="26.14" height="32766" filterUnits="userSpaceOnUse" color-interpolation-filters="sRGB"><feFlood flood-color="#fff" result="bg"/><feBlend in="SourceGraphic" in2="bg"/></filter><mask id="mask-9" x="441.79" y="-4077.76" width="26.14" height="32766" maskUnits="userSpaceOnUse"><g class="cls-58"/></mask><radialGradient id="radial-gradient-9" cx="235.86" cy="-3328.96" r="8.34" xlink:href="#radial-gradient"/><filter id="luminosity-noclip-10" x="466.62" y="-4077.76" width="51.54" height="32766" filterUnits="userSpaceOnUse" color-interpolation-filters="sRGB"><feFlood flood-color="#fff" result="bg"/><feBlend in="SourceGraphic" in2="bg"/></filter><mask id="mask-10" x="466.62" y="-4077.76" width="51.54" height="32766" maskUnits="userSpaceOnUse"><g class="cls-57"/></mask><radialGradient id="radial-gradient-10" cx="349.59" cy="-3263.13" r="25.55" xlink:href="#radial-gradient-2"/><linearGradient id="linear-gradient" x1="104.06" y1="155.82" x2="602.27" y2="497.19" gradientUnits="userSpaceOnUse"><stop offset="0" stop-color="#9b81cf"/><stop offset="1" stop-color="#3b139b"/></linearGradient><linearGradient id="linear-gradient-2" x1="66.74" y1="330.5" x2="651.26" y2="330.5" gradientUnits="userSpaceOnUse"><stop offset="0" stop-color="#4c1da9"/><stop offset="1" stop-color="#997ece"/></linearGradient><clipPath id="clip-path"><ellipse class="cls-21" cx="358.4" cy="330.5" rx="287" ry="286"/></clipPath><filter id="luminosity-noclip-11" x="425.82" y="-4077.76" width="99.06" height="32766" filterUnits="userSpaceOnUse" color-interpolation-filters="sRGB"><feFlood flood-color="#fff" result="bg"/><feBlend in="SourceGraphic" in2="bg"/></filter><mask id="mask-11" x="425.82" y="-4077.76" width="99.06" height="32766" maskUnits="userSpaceOnUse"><g class="cls-56"/></mask><filter id="luminosity-noclip-12" x="428.28" y="-4077.76" width="94.15" height="32766" filterUnits="userSpaceOnUse" color-interpolation-filters="sRGB"><feFlood flood-color="#fff" result="bg"/><feBlend in="SourceGraphic" in2="bg"/></filter><mask id="mask-12" x="428.28" y="-4077.76" width="94.15" height="32766" maskUnits="userSpaceOnUse"><g class="cls-55"/></mask><filter id="luminosity-noclip-13" x="478.44" y="85.24" width="19.97" height="20.87" filterUnits="userSpaceOnUse" color-interpolation-filters="sRGB"><feFlood flood-color="#fff" result="bg"/><feBlend in="SourceGraphic" in2="bg"/></filter><mask id="mask-13" x="478.44" y="85.24" width="19.97" height="20.87" maskUnits="userSpaceOnUse"><g class="cls-9"><path class="cls-10" d="M493.7,90.6a20,20,0,0,0-9.8-5.2c-2.2-.5-4.8.3-5.4,1.9s1.4,5.4,5.4,9.8,8.3,9.2,10.2,9,4-4.9,4.3-7.4S496.7,93.6,493.7,90.6Z"/></g></mask><filter id="luminosity-noclip-14" x="441.79" y="121.42" width="26.14" height="26.46" filterUnits="userSpaceOnUse" color-interpolation-filters="sRGB"><feFlood flood-color="#fff" result="bg"/><feBlend in="SourceGraphic" in2="bg"/></filter><mask id="mask-14" x="441.79" y="121.42" width="26.14" height="26.46" maskUnits="userSpaceOnUse"><g class="cls-17"><path class="cls-18" d="M453,124.1c-6.2-3.3-10.4-3.4-11.1-1.2s1,7,3.1,10.4,6.9,9.5,11.4,12,7.9,3.6,9.4,1.2,3-9.9,1.6-13S459.3,127.3,453,124.1Z"/></g></mask><filter id="luminosity-noclip-15" x="466.62" y="119.87" width="51.54" height="39.35" filterUnits="userSpaceOnUse" color-interpolation-filters="sRGB"><feFlood flood-color="#fff" result="bg"/><feBlend in="SourceGraphic" in2="bg"/></filter><mask id="mask-15" x="466.62" y="119.87" width="51.54" height="39.35" maskUnits="userSpaceOnUse"><g class="cls-19"><path class="cls-20" d="M466.6,155.5a18.5,18.5,0,0,0,6.1,3.1c9.9,2.3,21.7-2.1,29.8-8s15.7-15.5,15.7-25a14.7,14.7,0,0,0-1.5-5.7A60.1,60.1,0,0,1,466.6,155.5Z"/></g></mask><filter id="luminosity-noclip-16" x="592.38" y="-4077.76" width="67.25" height="32766" filterUnits="userSpaceOnUse" color-interpolation-filters="sRGB"><feFlood flood-color="#fff" result="bg"/><feBlend in="SourceGraphic" in2="bg"/></filter><mask id="mask-16" x="592.38" y="-4077.76" width="67.25" height="32766" maskUnits="userSpaceOnUse"><g class="cls-54"/></mask><filter id="luminosity-noclip-17" x="594.04" y="-4077.76" width="63.91" height="32766" filterUnits="userSpaceOnUse" color-interpolation-filters="sRGB"><feFlood flood-color="#fff" result="bg"/><feBlend in="SourceGraphic" in2="bg"/></filter><mask id="mask-17" x="594.04" y="-4077.76" width="63.91" height="32766" maskUnits="userSpaceOnUse"><g class="cls-53"/></mask><filter id="luminosity-noclip-18" x="603.22" y="2.34" width="17.74" height="17.96" filterUnits="userSpaceOnUse" color-interpolation-filters="sRGB"><feFlood flood-color="#fff" result="bg"/><feBlend in="SourceGraphic" in2="bg"/></filter><mask id="mask-18" x="603.22" y="2.34" width="17.74" height="17.96" maskUnits="userSpaceOnUse"><g class="cls-1"><path class="cls-2" d="M610.8,4.1c-4.2-2.2-7-2.2-7.5-.7s.6,4.7,2.1,7,4.7,6.4,7.8,8.2,5.3,2.4,6.3.8,2-6.7,1.1-8.9S615.1,6.3,610.8,4.1Z"/></g></mask><filter id="luminosity-noclip-19" x="620.07" y="1.29" width="34.98" height="26.72" filterUnits="userSpaceOnUse" color-interpolation-filters="sRGB"><feFlood flood-color="#fff" result="bg"/><feBlend in="SourceGraphic" in2="bg"/></filter><mask id="mask-19" x="620.07" y="1.29" width="34.98" height="26.72" maskUnits="userSpaceOnUse"><g class="cls-3"><path class="cls-4" d="M620.1,25.5a11.4,11.4,0,0,0,4.1,2.1c6.7,1.5,14.7-1.5,20.3-5.5s10.6-10.5,10.6-16.9A10.5,10.5,0,0,0,654,1.3,40.6,40.6,0,0,1,620.1,25.5Z"/></g></mask><filter id="luminosity-noclip-20" x="247.24" y="-4077.76" width="73.18" height="32766" filterUnits="userSpaceOnUse" color-interpolation-filters="sRGB"><feFlood flood-color="#fff" result="bg"/><feBlend in="SourceGraphic" in2="bg"/></filter><mask id="mask-20" x="247.24" y="-4077.76" width="73.18" height="32766" maskUnits="userSpaceOnUse"><g class="cls-52"/></mask><filter id="luminosity-noclip-21" x="249.06" y="-4077.76" width="69.55" height="32766" filterUnits="userSpaceOnUse" color-interpolation-filters="sRGB"><feFlood flood-color="#fff" result="bg"/><feBlend in="SourceGraphic" in2="bg"/></filter><mask id="mask-21" x="249.06" y="-4077.76" width="69.55" height="32766" maskUnits="userSpaceOnUse"><g class="cls-51"/></mask><filter id="luminosity-noclip-22" x="286.12" y="31.26" width="14.75" height="15.42" filterUnits="userSpaceOnUse" color-interpolation-filters="sRGB"><feFlood flood-color="#fff" result="bg"/><feBlend in="SourceGraphic" in2="bg"/></filter><mask id="mask-22" x="286.12" y="31.26" width="14.75" height="15.42" maskUnits="userSpaceOnUse"><g class="cls-5"><path class="cls-6" d="M297.4,35.2a15.2,15.2,0,0,0-7.2-3.9c-1.7-.3-3.6.3-4,1.5s1,4,4,7.2,6.1,6.8,7.4,6.7,3.1-3.7,3.2-5.5S299.6,37.5,297.4,35.2Z"/></g></mask><filter id="luminosity-noclip-23" x="259.04" y="57.99" width="19.31" height="19.55" filterUnits="userSpaceOnUse" color-interpolation-filters="sRGB"><feFlood flood-color="#fff" result="bg"/><feBlend in="SourceGraphic" in2="bg"/></filter><mask id="mask-23" x="259.04" y="57.99" width="19.31" height="19.55" maskUnits="userSpaceOnUse"><g class="cls-7"><path class="cls-8" d="M267.3,59.9c-4.6-2.4-7.7-2.4-8.1-.8s.6,5.2,2.2,7.7,5.1,7,8.5,8.8,5.8,2.7,6.9.9,2.2-7.3,1.2-9.6S272,62.3,267.3,59.9Z"/></g></mask><filter id="luminosity-noclip-24" x="277.38" y="56.84" width="38.07" height="29.07" filterUnits="userSpaceOnUse" color-interpolation-filters="sRGB"><feFlood flood-color="#fff" result="bg"/><feBlend in="SourceGraphic" in2="bg"/></filter><mask id="mask-24" x="277.38" y="56.84" width="38.07" height="29.07" maskUnits="userSpaceOnUse"><g class="cls-11"><path class="cls-12" d="M277.4,83.2a13.7,13.7,0,0,0,4.5,2.3c7.3,1.7,16-1.6,22-6s11.6-11.4,11.6-18.4a13,13,0,0,0-1.1-4.3A44.5,44.5,0,0,1,277.4,83.2Z"/></g></mask><filter id="luminosity-noclip-25" x="384.04" y="-4077.76" width="35.81" height="32766" filterUnits="userSpaceOnUse" color-interpolation-filters="sRGB"><feFlood flood-color="#fff" result="bg"/><feBlend in="SourceGraphic" in2="bg"/></filter><mask id="mask-25" x="384.04" y="-4077.76" width="35.81" height="32766" maskUnits="userSpaceOnUse"><g class="cls-50"/></mask><filter id="luminosity-noclip-26" x="384.93" y="-4077.76" width="34.04" height="32766" filterUnits="userSpaceOnUse" color-interpolation-filters="sRGB"><feFlood flood-color="#fff" result="bg"/><feBlend in="SourceGraphic" in2="bg"/></filter><mask id="mask-26" x="384.93" y="-4077.76" width="34.04" height="32766" maskUnits="userSpaceOnUse"><g class="cls-49"/></mask><filter id="luminosity-noclip-27" x="389.82" y="-2.63" width="9.45" height="9.57" filterUnits="userSpaceOnUse" color-interpolation-filters="sRGB"><feFlood flood-color="#fff" result="bg"/><feBlend in="SourceGraphic" in2="bg"/></filter><mask id="mask-27" x="389.82" y="-2.63" width="9.45" height="9.57" maskUnits="userSpaceOnUse"><g class="cls-13"><path class="cls-14" d="M393.9-1.7c-2.3-1.2-3.8-1.2-4-.4s.3,2.5,1.1,3.8A13.8,13.8,0,0,0,395.1,6c1.7.9,2.8,1.3,3.4.4s1.1-3.5.6-4.7S396.1-.5,393.9-1.7Z"/></g></mask><filter id="luminosity-noclip-28" x="398.79" y="-3.19" width="18.63" height="14.23" filterUnits="userSpaceOnUse" color-interpolation-filters="sRGB"><feFlood flood-color="#fff" result="bg"/><feBlend in="SourceGraphic" in2="bg"/></filter><mask id="mask-28" x="398.79" y="-3.19" width="18.63" height="14.23" maskUnits="userSpaceOnUse"><g class="cls-15"><path class="cls-16" d="M398.8,9.7a6.5,6.5,0,0,0,2.2,1.1c3.6.8,7.8-.8,10.8-2.9s5.6-5.6,5.6-9a5.8,5.8,0,0,0-.5-2.1A21.8,21.8,0,0,1,398.8,9.7Z"/></g></mask></defs><g id="Layer_1" data-name="Layer 1"><circle class="cls-22" cx="359" cy="330.5" r="301.9"/><circle class="cls-23" cx="359" cy="330.5" r="289.3"/><g class="cls-24"><rect class="cls-25" x="-4.9" y="43.1" width="892.8" height="889.85"/><line class="cls-21" x1="266.5" y1="288.5" x2="260.2" y2="287.7"/><g id="_012" data-name="012"><g id="_01" data-name="01"><g class="cls-26"><ellipse class="cls-27" cx="475.4" cy="111.7" rx="49.5" ry="51.4"/></g><g class="cls-28"><ellipse class="cls-29" cx="475.4" cy="111.7" rx="47.1" ry="48.9"/></g><g class="cls-30"><g class="cls-31"><path class="cls-32" d="M493.7,90.6a20,20,0,0,0-9.8-5.2c-2.2-.5-4.8.3-5.4,1.9s1.4,5.4,5.4,9.8,8.3,9.2,10.2,9,4-4.9,4.3-7.4S496.7,93.6,493.7,90.6Z"/></g><g class="cls-33"><path class="cls-32" d="M453,124.1c-6.2-3.3-10.4-3.4-11.1-1.2s1,7,3.1,10.4,6.9,9.5,11.4,12,7.9,3.6,9.4,1.2,3-9.9,1.6-13S459.3,127.3,453,124.1Z"/></g></g><path class="cls-32" d="M479.8,65.8c-10.6-2.7-23.1,2.5-31.8,9.5s-16.6,18.3-16.6,29.5c0,4,3.1,12.3,5.9,10.9s3.2-5.6,4.9-9.2c3.8-7.9,8.1-14.4,14.6-19.7a49.3,49.3,0,0,1,16.9-8.7c5.1-1.5,13.1-1.4,15-3.8S483.6,66.7,479.8,65.8Z"/><g class="cls-34"><path class="cls-35" d="M466.6,155.5a18.5,18.5,0,0,0,6.1,3.1c9.9,2.3,21.7-2.1,29.8-8s15.7-15.5,15.7-25a14.7,14.7,0,0,0-1.5-5.7A60.1,60.1,0,0,1,466.6,155.5Z"/></g></g><g id="_01-2" data-name="01"><g class="cls-36"><ellipse class="cls-27" cx="626" cy="-4.3" rx="33.6" ry="34.9"/></g><g class="cls-37"><ellipse class="cls-29" cx="626" cy="-4.3" rx="32" ry="33.2"/></g><g class="cls-30"><g class="cls-38"><path class="cls-32" d="M610.8,4.1c-4.2-2.2-7-2.2-7.5-.7s.6,4.7,2.1,7,4.7,6.4,7.8,8.2,5.3,2.4,6.3.8,2-6.7,1.1-8.9S615.1,6.3,610.8,4.1Z"/></g></g><g class="cls-39"><path class="cls-35" d="M620.1,25.5a11.4,11.4,0,0,0,4.1,2.1c6.7,1.5,14.7-1.5,20.3-5.5s10.6-10.5,10.6-16.9A10.5,10.5,0,0,0,654,1.3,40.6,40.6,0,0,1,620.1,25.5Z"/></g></g><g id="_01-3" data-name="01"><g class="cls-40"><ellipse class="cls-27" cx="283.8" cy="50.8" rx="36.6" ry="38"/></g><g class="cls-41"><ellipse class="cls-29" cx="283.8" cy="50.8" rx="34.8" ry="36.1"/></g><g class="cls-30"><g class="cls-42"><path class="cls-32" d="M297.4,35.2a15.2,15.2,0,0,0-7.2-3.9c-1.7-.3-3.6.3-4,1.5s1,4,4,7.2,6.1,6.8,7.4,6.7,3.1-3.7,3.2-5.5S299.6,37.5,297.4,35.2Z"/></g><g class="cls-43"><path class="cls-32" d="M267.3,59.9c-4.6-2.4-7.7-2.4-8.1-.8s.6,5.2,2.2,7.7,5.1,7,8.5,8.8,5.8,2.7,6.9.9,2.2-7.3,1.2-9.6S272,62.3,267.3,59.9Z"/></g></g><path class="cls-32" d="M287.1,16.9c-7.8-2-17.1,1.9-23.5,7s-12.2,13.5-12.2,21.8c0,3,2.3,9.1,4.3,8.1s2.4-4.2,3.7-6.9c2.7-5.8,5.9-10.6,10.7-14.5A36.1,36.1,0,0,1,282.6,26c3.8-1.1,9.7-1.1,11.1-2.8S289.9,17.6,287.1,16.9Z"/><g class="cls-44"><path class="cls-35" d="M277.4,83.2a13.7,13.7,0,0,0,4.5,2.3c7.3,1.7,16-1.6,22-6s11.6-11.4,11.6-18.4a13,13,0,0,0-1.1-4.3A44.5,44.5,0,0,1,277.4,83.2Z"/></g></g><g id="_01-4" data-name="01"><g class="cls-45"><ellipse class="cls-27" cx="402" cy="-6.2" rx="17.9" ry="18.6"/></g><g class="cls-46"><ellipse class="cls-29" cx="402" cy="-6.2" rx="17" ry="17.7"/></g><g class="cls-30"><g class="cls-47"><path class="cls-32" d="M393.9-1.7c-2.3-1.2-3.8-1.2-4-.4s.3,2.5,1.1,3.8A13.8,13.8,0,0,0,395.1,6c1.7.9,2.8,1.3,3.4.4s1.1-3.5.6-4.7S396.1-.5,393.9-1.7Z"/></g></g><g class="cls-48"><path class="cls-35" d="M398.8,9.7a6.5,6.5,0,0,0,2.2,1.1c3.6.8,7.8-.8,10.8-2.9s5.6-5.6,5.6-9a5.8,5.8,0,0,0-.5-2.1A21.8,21.8,0,0,1,398.8,9.7Z"/></g></g></g></g></g></svg>