<svg id="SB39_Interactive_Icon_07_F1" xmlns="http://www.w3.org/2000/svg" xmlns:xlink="http://www.w3.org/1999/xlink" viewBox="0 0 718 661"><defs><style>.cls-1{mask:url(#mask);filter:url(#luminosity-noclip-20);}.cls-10,.cls-12,.cls-14,.cls-16,.cls-18,.cls-2,.cls-20,.cls-22,.cls-24,.cls-4,.cls-6,.cls-8{mix-blend-mode:multiply;}.cls-2{fill:url(#radial-gradient);}.cls-3{mask:url(#mask-2);filter:url(#luminosity-noclip-21);}.cls-4{fill:url(#radial-gradient-2);}.cls-5{mask:url(#mask-3);filter:url(#luminosity-noclip-22);}.cls-6{fill:url(#radial-gradient-3);}.cls-7{mask:url(#mask-4);filter:url(#luminosity-noclip-25);}.cls-8{fill:url(#radial-gradient-4);}.cls-9{mask:url(#mask-5);filter:url(#luminosity-noclip-15);}.cls-10{fill:url(#radial-gradient-5);}.cls-11{mask:url(#mask-6);filter:url(#luminosity-noclip-26);}.cls-12{fill:url(#radial-gradient-6);}.cls-13{mask:url(#mask-7);filter:url(#luminosity-noclip-27);}.cls-14{fill:url(#radial-gradient-7);}.cls-15{mask:url(#mask-8);filter:url(#luminosity-noclip-30);}.cls-16{fill:url(#radial-gradient-8);}.cls-17{mask:url(#mask-9);filter:url(#luminosity-noclip-31);}.cls-18{fill:url(#radial-gradient-9);}.cls-19{mask:url(#mask-10);filter:url(#luminosity-noclip-32);}.cls-20{fill:url(#radial-gradient-10);}.cls-21{mask:url(#mask-11);filter:url(#luminosity-noclip-16);}.cls-22{fill:url(#radial-gradient-11);}.cls-23{mask:url(#mask-12);filter:url(#luminosity-noclip-17);}.cls-24{fill:url(#radial-gradient-12);}.cls-25{fill:none;}.cls-26{fill:url(#linear-gradient);}.cls-27,.cls-29{fill:#31d0e5;}.cls-27{stroke-miterlimit:10;stroke-width:6px;stroke:url(#linear-gradient-2);}.cls-28{clip-path:url(#clip-path);}.cls-30{mask:url(#mask-13);}.cls-31{fill:#d2f1f9;}.cls-32{mask:url(#mask-14);}.cls-33{fill:#b3e3fa;}.cls-34,.cls-39{opacity:0.7;}.cls-35{mask:url(#mask-15);}.cls-36,.cls-39{fill:#eff5f9;}.cls-37{mask:url(#mask-16);}.cls-38{mask:url(#mask-17);}.cls-40{mask:url(#mask-18);}.cls-41{mask:url(#mask-19);}.cls-42{mask:url(#mask-20);}.cls-43{mask:url(#mask-21);}.cls-44{mask:url(#mask-22);}.cls-45{mask:url(#mask-23);}.cls-46{mask:url(#mask-24);}.cls-47{mask:url(#mask-25);}.cls-48{mask:url(#mask-26);}.cls-49{mask:url(#mask-27);}.cls-50{mask:url(#mask-28);}.cls-51{mask:url(#mask-29);}.cls-52{mask:url(#mask-30);}.cls-53{mask:url(#mask-31);}.cls-54{mask:url(#mask-32);}.cls-55{filter:url(#luminosity-noclip-29);}.cls-56{filter:url(#luminosity-noclip-28);}.cls-57{filter:url(#luminosity-noclip-24);}.cls-58{filter:url(#luminosity-noclip-23);}.cls-59{filter:url(#luminosity-noclip-19);}.cls-60{filter:url(#luminosity-noclip-18);}.cls-61{filter:url(#luminosity-noclip-14);}.cls-62{filter:url(#luminosity-noclip-13);}.cls-63{filter:url(#luminosity-noclip-12);}.cls-64{filter:url(#luminosity-noclip-11);}.cls-65{filter:url(#luminosity-noclip-10);}.cls-66{filter:url(#luminosity-noclip-9);}.cls-67{filter:url(#luminosity-noclip-8);}.cls-68{filter:url(#luminosity-noclip-7);}.cls-69{filter:url(#luminosity-noclip-6);}.cls-70{filter:url(#luminosity-noclip-5);}.cls-71{filter:url(#luminosity-noclip-4);}.cls-72{filter:url(#luminosity-noclip-3);}.cls-73{filter:url(#luminosity-noclip-2);}.cls-74{filter:url(#luminosity-noclip);}</style><filter id="luminosity-noclip" x="209.37" y="-4077.76" width="11.89" height="32766" filterUnits="userSpaceOnUse" color-interpolation-filters="sRGB"><feFlood flood-color="#fff" result="bg"/><feBlend in="SourceGraphic" in2="bg"/></filter><mask id="mask" x="209.37" y="-4077.76" width="11.89" height="32766" maskUnits="userSpaceOnUse"><g class="cls-74"/></mask><radialGradient id="radial-gradient" cx="266.05" cy="-3271.58" r="4.97" gradientTransform="translate(-877.9 14391.8) scale(4.07 4.23)" gradientUnits="userSpaceOnUse"><stop offset="0.17"/><stop offset="0.37" stop-color="#454545"/><stop offset="0.63" stop-color="#9b9b9b"/><stop offset="0.82" stop-color="#d1d1d1"/><stop offset="0.9" stop-color="#e6e6e6"/></radialGradient><filter id="luminosity-noclip-2" x="187.54" y="-4077.76" width="15.57" height="32766" filterUnits="userSpaceOnUse" color-interpolation-filters="sRGB"><feFlood flood-color="#fff" result="bg"/><feBlend in="SourceGraphic" in2="bg"/></filter><mask id="mask-2" x="187.54" y="-4077.76" width="15.57" height="32766" maskUnits="userSpaceOnUse"><g class="cls-73"/></mask><radialGradient id="radial-gradient-2" cx="157.99" cy="-3236.06" r="4.97" gradientTransform="matrix(4.04, -0.55, 0.52, 4.2, 1264.67, 14212.59)" xlink:href="#radial-gradient"/><filter id="luminosity-noclip-3" x="202.32" y="-4077.76" width="30.7" height="32766" filterUnits="userSpaceOnUse" color-interpolation-filters="sRGB"><feFlood flood-color="#fff" result="bg"/><feBlend in="SourceGraphic" in2="bg"/></filter><mask id="mask-3" x="202.32" y="-4077.76" width="30.7" height="32766" maskUnits="userSpaceOnUse"><g class="cls-72"/></mask><radialGradient id="radial-gradient-3" cx="282.54" cy="-3137.53" r="15.22" gradientTransform="translate(-890.8 11759) scale(3.83 3.58)" gradientUnits="userSpaceOnUse"><stop offset="0.84"/><stop offset="0.85" stop-color="#2a2a2a"/><stop offset="0.86" stop-color="#5b5b5b"/><stop offset="0.87" stop-color="#868686"/><stop offset="0.88" stop-color="#a9a9a9"/><stop offset="0.89" stop-color="#c4c4c4"/><stop offset="0.9" stop-color="#d7d7d7"/><stop offset="0.91" stop-color="#e2e2e2"/><stop offset="0.92" stop-color="#e6e6e6"/></radialGradient><filter id="luminosity-noclip-4" x="128.2" y="-4077.76" width="13.49" height="32766" filterUnits="userSpaceOnUse" color-interpolation-filters="sRGB"><feFlood flood-color="#fff" result="bg"/><feBlend in="SourceGraphic" in2="bg"/></filter><mask id="mask-4" x="128.2" y="-4077.76" width="13.49" height="32766" maskUnits="userSpaceOnUse"><g class="cls-71"/></mask><radialGradient id="radial-gradient-4" cx="246.03" cy="-3247.84" r="5.64" xlink:href="#radial-gradient"/><filter id="luminosity-noclip-5" x="337.37" y="-4077.76" width="14.93" height="32766" filterUnits="userSpaceOnUse" color-interpolation-filters="sRGB"><feFlood flood-color="#fff" result="bg"/><feBlend in="SourceGraphic" in2="bg"/></filter><mask id="mask-5" x="337.37" y="-4077.76" width="14.93" height="32766" maskUnits="userSpaceOnUse"><g class="cls-70"/></mask><radialGradient id="radial-gradient-5" cx="297.27" cy="-3258.46" r="6.24" xlink:href="#radial-gradient"/><filter id="luminosity-noclip-6" x="103.43" y="-4077.76" width="17.67" height="32766" filterUnits="userSpaceOnUse" color-interpolation-filters="sRGB"><feFlood flood-color="#fff" result="bg"/><feBlend in="SourceGraphic" in2="bg"/></filter><mask id="mask-6" x="103.43" y="-4077.76" width="17.67" height="32766" maskUnits="userSpaceOnUse"><g class="cls-69"/></mask><radialGradient id="radial-gradient-6" cx="135.04" cy="-3215.14" r="5.64" gradientTransform="matrix(4.04, -0.55, 0.52, 4.2, 1264.67, 14212.59)" xlink:href="#radial-gradient"/><filter id="luminosity-noclip-7" x="120.21" y="-4077.76" width="34.83" height="32766" filterUnits="userSpaceOnUse" color-interpolation-filters="sRGB"><feFlood flood-color="#fff" result="bg"/><feBlend in="SourceGraphic" in2="bg"/></filter><mask id="mask-7" x="120.21" y="-4077.76" width="34.83" height="32766" maskUnits="userSpaceOnUse"><g class="cls-68"/></mask><radialGradient id="radial-gradient-7" cx="260.71" cy="-3110.5" r="17.27" xlink:href="#radial-gradient-3"/><filter id="luminosity-noclip-8" x="27.11" y="-4077.76" width="7.96" height="32766" filterUnits="userSpaceOnUse" color-interpolation-filters="sRGB"><feFlood flood-color="#fff" result="bg"/><feBlend in="SourceGraphic" in2="bg"/></filter><mask id="mask-8" x="27.11" y="-4077.76" width="7.96" height="32766" maskUnits="userSpaceOnUse"><g class="cls-67"/></mask><radialGradient id="radial-gradient-8" cx="221.58" cy="-3251.61" r="3.33" xlink:href="#radial-gradient"/><filter id="luminosity-noclip-9" x="12.5" y="-4077.76" width="10.42" height="32766" filterUnits="userSpaceOnUse" color-interpolation-filters="sRGB"><feFlood flood-color="#fff" result="bg"/><feBlend in="SourceGraphic" in2="bg"/></filter><mask id="mask-9" x="12.5" y="-4077.76" width="10.42" height="32766" maskUnits="userSpaceOnUse"><g class="cls-66"/></mask><radialGradient id="radial-gradient-9" cx="111.43" cy="-3221.86" r="3.33" gradientTransform="matrix(4.04, -0.55, 0.52, 4.2, 1264.67, 14212.59)" xlink:href="#radial-gradient"/><filter id="luminosity-noclip-10" x="22.4" y="-4077.76" width="20.55" height="32766" filterUnits="userSpaceOnUse" color-interpolation-filters="sRGB"><feFlood flood-color="#fff" result="bg"/><feBlend in="SourceGraphic" in2="bg"/></filter><mask id="mask-10" x="22.4" y="-4077.76" width="20.55" height="32766" maskUnits="userSpaceOnUse"><g class="cls-65"/></mask><radialGradient id="radial-gradient-10" cx="236.51" cy="-3111.41" r="10.19" xlink:href="#radial-gradient-3"/><filter id="luminosity-noclip-11" x="309.96" y="-4077.76" width="19.54" height="32766" filterUnits="userSpaceOnUse" color-interpolation-filters="sRGB"><feFlood flood-color="#fff" result="bg"/><feBlend in="SourceGraphic" in2="bg"/></filter><mask id="mask-11" x="309.96" y="-4077.76" width="19.54" height="32766" maskUnits="userSpaceOnUse"><g class="cls-64"/></mask><radialGradient id="radial-gradient-11" cx="187.17" cy="-3219.12" r="6.24" gradientTransform="matrix(4.04, -0.55, 0.52, 4.2, 1264.67, 14212.59)" xlink:href="#radial-gradient"/><filter id="luminosity-noclip-12" x="328.52" y="-4077.76" width="38.53" height="32766" filterUnits="userSpaceOnUse" color-interpolation-filters="sRGB"><feFlood flood-color="#fff" result="bg"/><feBlend in="SourceGraphic" in2="bg"/></filter><mask id="mask-12" x="328.52" y="-4077.76" width="38.53" height="32766" maskUnits="userSpaceOnUse"><g class="cls-63"/></mask><radialGradient id="radial-gradient-12" cx="314.76" cy="-3123.97" r="19.1" xlink:href="#radial-gradient-3"/><linearGradient id="linear-gradient" x1="104.06" y1="155.82" x2="602.27" y2="497.19" gradientUnits="userSpaceOnUse"><stop offset="0" stop-color="#9b81cf"/><stop offset="1" stop-color="#3b139b"/></linearGradient><linearGradient id="linear-gradient-2" x1="66.74" y1="330.5" x2="651.26" y2="330.5" gradientUnits="userSpaceOnUse"><stop offset="0" stop-color="#4c1da9"/><stop offset="1" stop-color="#997ece"/></linearGradient><clipPath id="clip-path"><ellipse class="cls-25" cx="358.4" cy="330.5" rx="287" ry="286"/></clipPath><filter id="luminosity-noclip-13" x="298.02" y="-4077.76" width="74.07" height="32766" filterUnits="userSpaceOnUse" color-interpolation-filters="sRGB"><feFlood flood-color="#fff" result="bg"/><feBlend in="SourceGraphic" in2="bg"/></filter><mask id="mask-13" x="298.02" y="-4077.76" width="74.07" height="32766" maskUnits="userSpaceOnUse"><g class="cls-62"/></mask><filter id="luminosity-noclip-14" x="299.86" y="-4077.76" width="70.4" height="32766" filterUnits="userSpaceOnUse" color-interpolation-filters="sRGB"><feFlood flood-color="#fff" result="bg"/><feBlend in="SourceGraphic" in2="bg"/></filter><mask id="mask-14" x="299.86" y="-4077.76" width="70.4" height="32766" maskUnits="userSpaceOnUse"><g class="cls-61"/></mask><filter id="luminosity-noclip-15" x="337.37" y="579.7" width="14.93" height="15.61" filterUnits="userSpaceOnUse" color-interpolation-filters="sRGB"><feFlood flood-color="#fff" result="bg"/><feBlend in="SourceGraphic" in2="bg"/></filter><mask id="mask-15" x="337.37" y="579.7" width="14.93" height="15.61" maskUnits="userSpaceOnUse"><g class="cls-9"><path class="cls-10" d="M348.8,583.7a15.4,15.4,0,0,0-7.3-3.9c-1.7-.3-3.6.2-4.1,1.4s1,4.1,4.1,7.3,6.2,6.9,7.5,6.8,3.1-3.7,3.3-5.5S351.1,586,348.8,583.7Z"/></g></mask><filter id="luminosity-noclip-16" x="309.96" y="606.75" width="19.54" height="19.79" filterUnits="userSpaceOnUse" color-interpolation-filters="sRGB"><feFlood flood-color="#fff" result="bg"/><feBlend in="SourceGraphic" in2="bg"/></filter><mask id="mask-16" x="309.96" y="606.75" width="19.54" height="19.79" maskUnits="userSpaceOnUse"><g class="cls-21"><path class="cls-22" d="M318.4,608.7c-4.7-2.4-7.8-2.5-8.3-.8s.7,5.2,2.2,7.8,5.2,7,8.6,8.9,5.9,2.7,7,.9,2.2-7.4,1.2-9.7S323,611.2,318.4,608.7Z"/></g></mask><filter id="luminosity-noclip-17" x="328.52" y="605.59" width="38.53" height="29.43" filterUnits="userSpaceOnUse" color-interpolation-filters="sRGB"><feFlood flood-color="#fff" result="bg"/><feBlend in="SourceGraphic" in2="bg"/></filter><mask id="mask-17" x="328.52" y="605.59" width="38.53" height="29.43" maskUnits="userSpaceOnUse"><g class="cls-23"><path class="cls-24" d="M328.5,632.2a13.6,13.6,0,0,0,4.6,2.4c7.4,1.7,16.2-1.7,22.3-6.1s11.7-11.5,11.7-18.6a10.8,10.8,0,0,0-1.2-4.3A44.5,44.5,0,0,1,328.5,632.2Z"/></g></mask><filter id="luminosity-noclip-18" x="178.02" y="-4077.76" width="59.01" height="32766" filterUnits="userSpaceOnUse" color-interpolation-filters="sRGB"><feFlood flood-color="#fff" result="bg"/><feBlend in="SourceGraphic" in2="bg"/></filter><mask id="mask-18" x="178.02" y="-4077.76" width="59.01" height="32766" maskUnits="userSpaceOnUse"><g class="cls-60"/></mask><filter id="luminosity-noclip-19" x="179.49" y="-4077.76" width="56.08" height="32766" filterUnits="userSpaceOnUse" color-interpolation-filters="sRGB"><feFlood flood-color="#fff" result="bg"/><feBlend in="SourceGraphic" in2="bg"/></filter><mask id="mask-19" x="179.49" y="-4077.76" width="56.08" height="32766" maskUnits="userSpaceOnUse"><g class="cls-59"/></mask><filter id="luminosity-noclip-20" x="209.37" y="528.66" width="11.89" height="12.43" filterUnits="userSpaceOnUse" color-interpolation-filters="sRGB"><feFlood flood-color="#fff" result="bg"/><feBlend in="SourceGraphic" in2="bg"/></filter><mask id="mask-20" x="209.37" y="528.66" width="11.89" height="12.43" maskUnits="userSpaceOnUse"><g class="cls-1"><path class="cls-2" d="M218.5,531.8a13,13,0,0,0-5.9-3.1c-1.3-.2-2.8.2-3.2,1.2s.8,3.2,3.2,5.8,5,5.5,6.1,5.4,2.4-2.9,2.5-4.4S220.3,533.7,218.5,531.8Z"/></g></mask><filter id="luminosity-noclip-21" x="187.54" y="550.21" width="15.57" height="15.76" filterUnits="userSpaceOnUse" color-interpolation-filters="sRGB"><feFlood flood-color="#fff" result="bg"/><feBlend in="SourceGraphic" in2="bg"/></filter><mask id="mask-21" x="187.54" y="550.21" width="15.57" height="15.76" maskUnits="userSpaceOnUse"><g class="cls-3"><path class="cls-4" d="M194.2,551.8c-3.7-2-6.2-2-6.6-.7s.6,4.2,1.8,6.2,4.1,5.6,6.9,7.1,4.6,2.2,5.5.8,1.8-5.9,1-7.8S198,553.7,194.2,551.8Z"/></g></mask><filter id="luminosity-noclip-22" x="202.32" y="549.29" width="30.7" height="23.44" filterUnits="userSpaceOnUse" color-interpolation-filters="sRGB"><feFlood flood-color="#fff" result="bg"/><feBlend in="SourceGraphic" in2="bg"/></filter><mask id="mask-22" x="202.32" y="549.29" width="30.7" height="23.44" maskUnits="userSpaceOnUse"><g class="cls-5"><path class="cls-6" d="M202.3,570.5a11.5,11.5,0,0,0,3.6,1.9c6,1.3,13-1.3,17.8-4.8s9.3-9.3,9.3-14.9a7.9,7.9,0,0,0-.9-3.4A35.6,35.6,0,0,1,202.3,570.5Z"/></g></mask><filter id="luminosity-noclip-23" x="92.64" y="-4077.76" width="66.95" height="32766" filterUnits="userSpaceOnUse" color-interpolation-filters="sRGB"><feFlood flood-color="#fff" result="bg"/><feBlend in="SourceGraphic" in2="bg"/></filter><mask id="mask-23" x="92.64" y="-4077.76" width="66.95" height="32766" maskUnits="userSpaceOnUse"><g class="cls-58"/></mask><filter id="luminosity-noclip-24" x="94.3" y="-4077.76" width="63.63" height="32766" filterUnits="userSpaceOnUse" color-interpolation-filters="sRGB"><feFlood flood-color="#fff" result="bg"/><feBlend in="SourceGraphic" in2="bg"/></filter><mask id="mask-24" x="94.3" y="-4077.76" width="63.63" height="32766" maskUnits="userSpaceOnUse"><g class="cls-57"/></mask><filter id="luminosity-noclip-25" x="128.2" y="626.78" width="13.49" height="14.11" filterUnits="userSpaceOnUse" color-interpolation-filters="sRGB"><feFlood flood-color="#fff" result="bg"/><feBlend in="SourceGraphic" in2="bg"/></filter><mask id="mask-25" x="128.2" y="626.78" width="13.49" height="14.11" maskUnits="userSpaceOnUse"><g class="cls-7"><path class="cls-8" d="M138.5,630.4a12.9,12.9,0,0,0-6.6-3.5c-1.5-.3-3.3.2-3.6,1.3s.9,3.6,3.6,6.6,5.6,6.2,6.9,6.1,2.7-3.4,2.9-5S140.6,632.4,138.5,630.4Z"/></g></mask><filter id="luminosity-noclip-26" x="103.43" y="651.23" width="17.67" height="17.89" filterUnits="userSpaceOnUse" color-interpolation-filters="sRGB"><feFlood flood-color="#fff" result="bg"/><feBlend in="SourceGraphic" in2="bg"/></filter><mask id="mask-26" x="103.43" y="651.23" width="17.67" height="17.89" maskUnits="userSpaceOnUse"><g class="cls-11"><path class="cls-12" d="M111,653c-4.2-2.2-7-2.2-7.5-.8s.7,4.8,2.1,7.1,4.7,6.4,7.7,8.1,5.3,2.4,6.3.8,2.1-6.7,1.1-8.8S115.3,655.2,111,653Z"/></g></mask><filter id="luminosity-noclip-27" x="120.21" y="650.18" width="34.83" height="26.6" filterUnits="userSpaceOnUse" color-interpolation-filters="sRGB"><feFlood flood-color="#fff" result="bg"/><feBlend in="SourceGraphic" in2="bg"/></filter><mask id="mask-27" x="120.21" y="650.18" width="34.83" height="26.6" maskUnits="userSpaceOnUse"><g class="cls-13"><path class="cls-14" d="M120.2,674.3a14.5,14.5,0,0,0,4.1,2.1c6.7,1.5,14.7-1.5,20.2-5.5S155,660.5,155,654a10.2,10.2,0,0,0-1-3.8A40.7,40.7,0,0,1,120.2,674.3Z"/></g></mask><filter id="luminosity-noclip-28" x="6.13" y="-4077.76" width="39.5" height="32766" filterUnits="userSpaceOnUse" color-interpolation-filters="sRGB"><feFlood flood-color="#fff" result="bg"/><feBlend in="SourceGraphic" in2="bg"/></filter><mask id="mask-28" x="6.13" y="-4077.76" width="39.5" height="32766" maskUnits="userSpaceOnUse"><g class="cls-56"/></mask><filter id="luminosity-noclip-29" x="7.11" y="-4077.76" width="37.54" height="32766" filterUnits="userSpaceOnUse" color-interpolation-filters="sRGB"><feFlood flood-color="#fff" result="bg"/><feBlend in="SourceGraphic" in2="bg"/></filter><mask id="mask-29" x="7.11" y="-4077.76" width="37.54" height="32766" maskUnits="userSpaceOnUse"><g class="cls-55"/></mask><filter id="luminosity-noclip-30" x="27.11" y="619.04" width="7.96" height="8.32" filterUnits="userSpaceOnUse" color-interpolation-filters="sRGB"><feFlood flood-color="#fff" result="bg"/><feBlend in="SourceGraphic" in2="bg"/></filter><mask id="mask-30" x="27.11" y="619.04" width="7.96" height="8.32" maskUnits="userSpaceOnUse"><g class="cls-15"><path class="cls-16" d="M33.2,621.2a7.2,7.2,0,0,0-3.9-2.1c-.9-.2-1.9.1-2.1.8s.5,2.1,2.1,3.9,3.3,3.6,4,3.6,1.7-2,1.8-3S34.4,622.4,33.2,621.2Z"/></g></mask><filter id="luminosity-noclip-31" x="12.5" y="633.46" width="10.42" height="10.55" filterUnits="userSpaceOnUse" color-interpolation-filters="sRGB"><feFlood flood-color="#fff" result="bg"/><feBlend in="SourceGraphic" in2="bg"/></filter><mask id="mask-31" x="12.5" y="633.46" width="10.42" height="10.55" maskUnits="userSpaceOnUse"><g class="cls-17"><path class="cls-18" d="M17,634.5c-2.5-1.3-4.2-1.3-4.4-.4s.3,2.8,1.2,4.1a14.5,14.5,0,0,0,4.5,4.8c1.8,1,3.2,1.4,3.8.5s1.1-4,.6-5.2S19.5,635.8,17,634.5Z"/></g></mask><filter id="luminosity-noclip-32" x="22.4" y="632.85" width="20.55" height="15.69" filterUnits="userSpaceOnUse" color-interpolation-filters="sRGB"><feFlood flood-color="#fff" result="bg"/><feBlend in="SourceGraphic" in2="bg"/></filter><mask id="mask-32" x="22.4" y="632.85" width="20.55" height="15.69" maskUnits="userSpaceOnUse"><g class="cls-19"><path class="cls-20" d="M22.4,647.1a9,9,0,0,0,2.4,1.2c4,.9,8.7-.9,11.9-3.2s6.2-6.2,6.2-10a7.4,7.4,0,0,0-.5-2.3A24.1,24.1,0,0,1,22.4,647.1Z"/></g></mask></defs><g id="Layer_1" data-name="Layer 1"><circle class="cls-26" cx="359" cy="330.5" r="301.9"/><circle class="cls-27" cx="359" cy="330.5" r="289.3"/><g class="cls-28"><rect class="cls-29" x="-4.9" y="43.1" width="892.8" height="889.85"/><line class="cls-25" x1="266.5" y1="288.5" x2="260.2" y2="287.7"/><g id="_014" data-name="014"><g id="_01" data-name="01"><g class="cls-30"><ellipse class="cls-31" cx="335.1" cy="599.5" rx="37" ry="38.5"/></g><g class="cls-32"><ellipse class="cls-33" cx="335.1" cy="599.5" rx="35.2" ry="36.6"/></g><g class="cls-34"><g class="cls-35"><path class="cls-36" d="M348.8,583.7a15.4,15.4,0,0,0-7.3-3.9c-1.7-.3-3.6.2-4.1,1.4s1,4.1,4.1,7.3,6.2,6.9,7.5,6.8,3.1-3.7,3.3-5.5S351.1,586,348.8,583.7Z"/></g><g class="cls-37"><path class="cls-36" d="M318.4,608.7c-4.7-2.4-7.8-2.5-8.3-.8s.7,5.2,2.2,7.8,5.2,7,8.6,8.9,5.9,2.7,7,.9,2.2-7.4,1.2-9.7S323,611.2,318.4,608.7Z"/></g></g><path class="cls-36" d="M338.4,565.1c-7.9-2-17.3,1.9-23.8,7.2s-12.4,13.6-12.4,22c0,3,2.3,9.2,4.4,8.2s2.4-4.2,3.7-6.9c2.8-5.9,6-10.8,10.9-14.7a34.3,34.3,0,0,1,12.6-6.5c3.8-1.1,9.8-1.1,11.2-2.9S341.2,565.9,338.4,565.1Z"/><g class="cls-38"><path class="cls-39" d="M328.5,632.2a13.6,13.6,0,0,0,4.6,2.4c7.4,1.7,16.2-1.7,22.3-6.1s11.7-11.5,11.7-18.6a10.8,10.8,0,0,0-1.2-4.3A44.5,44.5,0,0,1,328.5,632.2Z"/></g></g><g id="_01-2" data-name="01"><g class="cls-40"><ellipse class="cls-31" cx="207.5" cy="544.4" rx="29.5" ry="30.6"/></g><g class="cls-41"><ellipse class="cls-33" cx="207.5" cy="544.4" rx="28" ry="29.1"/></g><g class="cls-34"><g class="cls-42"><path class="cls-36" d="M218.5,531.8a13,13,0,0,0-5.9-3.1c-1.3-.2-2.8.2-3.2,1.2s.8,3.2,3.2,5.8,5,5.5,6.1,5.4,2.4-2.9,2.5-4.4S220.3,533.7,218.5,531.8Z"/></g><g class="cls-43"><path class="cls-36" d="M194.2,551.8c-3.7-2-6.2-2-6.6-.7s.6,4.2,1.8,6.2,4.1,5.6,6.9,7.1,4.6,2.2,5.5.8,1.8-5.9,1-7.8S198,553.7,194.2,551.8Z"/></g></g><path class="cls-36" d="M210.2,517.1c-6.3-1.7-13.8,1.5-18.9,5.6s-9.9,10.9-9.9,17.6c0,2.4,1.8,7.3,3.5,6.5s1.9-3.3,2.9-5.5a31,31,0,0,1,8.7-11.7,27.3,27.3,0,0,1,10-5.2c3.1-.9,7.8-.9,9-2.3S212.4,517.6,210.2,517.1Z"/><g class="cls-44"><path class="cls-39" d="M202.3,570.5a11.5,11.5,0,0,0,3.6,1.9c6,1.3,13-1.3,17.8-4.8s9.3-9.3,9.3-14.9a7.9,7.9,0,0,0-.9-3.4A35.6,35.6,0,0,1,202.3,570.5Z"/></g></g><g id="_01-3" data-name="01"><g class="cls-45"><ellipse class="cls-31" cx="126.1" cy="644.6" rx="33.5" ry="34.8"/></g><g class="cls-46"><ellipse class="cls-33" cx="126.1" cy="644.6" rx="31.8" ry="33"/></g><g class="cls-34"><g class="cls-47"><path class="cls-36" d="M138.5,630.4a12.9,12.9,0,0,0-6.6-3.5c-1.5-.3-3.3.2-3.6,1.3s.9,3.6,3.6,6.6,5.6,6.2,6.9,6.1,2.7-3.4,2.9-5S140.6,632.4,138.5,630.4Z"/></g><g class="cls-48"><path class="cls-36" d="M111,653c-4.2-2.2-7-2.2-7.5-.8s.7,4.8,2.1,7.1,4.7,6.4,7.7,8.1,5.3,2.4,6.3.8,2.1-6.7,1.1-8.8S115.3,655.2,111,653Z"/></g></g><path class="cls-36" d="M129.1,613.6c-7.1-1.8-15.6,1.7-21.5,6.4s-11.2,12.4-11.2,20c0,2.7,2.1,8.3,4,7.4s2.2-3.8,3.3-6.3c2.6-5.3,5.5-9.7,9.9-13.3A32.4,32.4,0,0,1,125,622c3.4-1.1,8.9-1,10.1-2.6S131.7,614.3,129.1,613.6Z"/><g class="cls-49"><path class="cls-39" d="M120.2,674.3a14.5,14.5,0,0,0,4.1,2.1c6.7,1.5,14.7-1.5,20.2-5.5S155,660.5,155,654a10.2,10.2,0,0,0-1-3.8A40.7,40.7,0,0,1,120.2,674.3Z"/></g></g><g id="_01-4" data-name="01"><g class="cls-50"><ellipse class="cls-31" cx="25.9" cy="629.6" rx="19.8" ry="20.5"/></g><g class="cls-51"><ellipse class="cls-33" cx="25.9" cy="629.6" rx="18.8" ry="19.5"/></g><g class="cls-34"><g class="cls-52"><path class="cls-36" d="M33.2,621.2a7.2,7.2,0,0,0-3.9-2.1c-.9-.2-1.9.1-2.1.8s.5,2.1,2.1,3.9,3.3,3.6,4,3.6,1.7-2,1.8-3S34.4,622.4,33.2,621.2Z"/></g><g class="cls-53"><path class="cls-36" d="M17,634.5c-2.5-1.3-4.2-1.3-4.4-.4s.3,2.8,1.2,4.1a14.5,14.5,0,0,0,4.5,4.8c1.8,1,3.2,1.4,3.8.5s1.1-4,.6-5.2S19.5,635.8,17,634.5Z"/></g></g><path class="cls-36" d="M27.6,611.3c-4.2-1.1-9.2,1-12.6,3.8s-6.6,7.3-6.6,11.7c0,1.6,1.2,4.9,2.3,4.4s1.3-2.3,2-3.7a21.6,21.6,0,0,1,5.8-7.8,17.9,17.9,0,0,1,6.7-3.5c2-.6,5.2-.6,6-1.5S29.2,611.7,27.6,611.3Z"/><g class="cls-54"><path class="cls-39" d="M22.4,647.1a9,9,0,0,0,2.4,1.2c4,.9,8.7-.9,11.9-3.2s6.2-6.2,6.2-10a7.4,7.4,0,0,0-.5-2.3A24.1,24.1,0,0,1,22.4,647.1Z"/></g></g></g></g></g></svg>