<svg id="SB39_Interactive_Icon_07_F1" xmlns="http://www.w3.org/2000/svg" xmlns:xlink="http://www.w3.org/1999/xlink" viewBox="0 0 718 661"><defs><style>.cls-1{mask:url(#mask);filter:url(#luminosity-noclip-29);}.cls-10,.cls-12,.cls-14,.cls-16,.cls-18,.cls-2,.cls-20,.cls-22,.cls-24,.cls-26,.cls-28,.cls-30,.cls-32,.cls-34,.cls-36,.cls-38,.cls-4,.cls-40,.cls-42,.cls-6,.cls-8{mix-blend-mode:multiply;}.cls-2{fill:url(#radial-gradient);}.cls-3{mask:url(#mask-2);filter:url(#luminosity-noclip-30);}.cls-4{fill:url(#radial-gradient-2);}.cls-5{mask:url(#mask-3);filter:url(#luminosity-noclip-31);}.cls-6{fill:url(#radial-gradient-3);}.cls-7{mask:url(#mask-4);filter:url(#luminosity-noclip-34);}.cls-8{fill:url(#radial-gradient-4);}.cls-9{mask:url(#mask-5);filter:url(#luminosity-noclip-24);}.cls-10{fill:url(#radial-gradient-5);}.cls-11{mask:url(#mask-6);filter:url(#luminosity-noclip-35);}.cls-12{fill:url(#radial-gradient-6);}.cls-13{mask:url(#mask-7);filter:url(#luminosity-noclip-36);}.cls-14{fill:url(#radial-gradient-7);}.cls-15{mask:url(#mask-8);filter:url(#luminosity-noclip-39);}.cls-16{fill:url(#radial-gradient-8);}.cls-17{mask:url(#mask-9);filter:url(#luminosity-noclip-40);}.cls-18{fill:url(#radial-gradient-9);}.cls-19{mask:url(#mask-10);filter:url(#luminosity-noclip-41);}.cls-20{fill:url(#radial-gradient-10);}.cls-21{mask:url(#mask-11);filter:url(#luminosity-noclip-44);}.cls-22{fill:url(#radial-gradient-11);}.cls-23{mask:url(#mask-12);filter:url(#luminosity-noclip-45);}.cls-24{fill:url(#radial-gradient-12);}.cls-25{mask:url(#mask-13);filter:url(#luminosity-noclip-46);}.cls-26{fill:url(#radial-gradient-13);}.cls-27{mask:url(#mask-14);filter:url(#luminosity-noclip-25);}.cls-28{fill:url(#radial-gradient-14);}.cls-29{mask:url(#mask-15);filter:url(#luminosity-noclip-49);}.cls-30{fill:url(#radial-gradient-15);}.cls-31{mask:url(#mask-16);filter:url(#luminosity-noclip-50);}.cls-32{fill:url(#radial-gradient-16);}.cls-33{mask:url(#mask-17);filter:url(#luminosity-noclip-51);}.cls-34{fill:url(#radial-gradient-17);}.cls-35{mask:url(#mask-18);filter:url(#luminosity-noclip-54);}.cls-36{fill:url(#radial-gradient-18);}.cls-37{mask:url(#mask-19);filter:url(#luminosity-noclip-55);}.cls-38{fill:url(#radial-gradient-19);}.cls-39{mask:url(#mask-20);filter:url(#luminosity-noclip-56);}.cls-40{fill:url(#radial-gradient-20);}.cls-41{mask:url(#mask-21);filter:url(#luminosity-noclip-26);}.cls-42{fill:url(#radial-gradient-21);}.cls-43{fill:none;}.cls-44{fill:url(#linear-gradient);}.cls-45,.cls-47{fill:#31d0e5;}.cls-45{stroke-miterlimit:10;stroke-width:6px;stroke:url(#linear-gradient-2);}.cls-46{clip-path:url(#clip-path);}.cls-48{mask:url(#mask-22);}.cls-49{fill:#d2f1f9;}.cls-50{mask:url(#mask-23);}.cls-51{fill:#b3e3fa;}.cls-52,.cls-57{opacity:0.7;}.cls-53{mask:url(#mask-24);}.cls-54,.cls-57{fill:#eff5f9;}.cls-55{mask:url(#mask-25);}.cls-56{mask:url(#mask-26);}.cls-58{mask:url(#mask-27);}.cls-59{mask:url(#mask-28);}.cls-60{mask:url(#mask-29);}.cls-61{mask:url(#mask-30);}.cls-62{mask:url(#mask-31);}.cls-63{mask:url(#mask-32);}.cls-64{mask:url(#mask-33);}.cls-65{mask:url(#mask-34);}.cls-66{mask:url(#mask-35);}.cls-67{mask:url(#mask-36);}.cls-68{mask:url(#mask-37);}.cls-69{mask:url(#mask-38);}.cls-70{mask:url(#mask-39);}.cls-71{mask:url(#mask-40);}.cls-72{mask:url(#mask-41);}.cls-73{mask:url(#mask-42);}.cls-74{mask:url(#mask-43);}.cls-75{mask:url(#mask-44);}.cls-76{mask:url(#mask-45);}.cls-77{mask:url(#mask-46);}.cls-78{mask:url(#mask-47);}.cls-79{mask:url(#mask-48);}.cls-80{mask:url(#mask-49);}.cls-81{mask:url(#mask-50);}.cls-82{mask:url(#mask-51);}.cls-83{mask:url(#mask-52);}.cls-84{mask:url(#mask-53);}.cls-85{mask:url(#mask-54);}.cls-86{mask:url(#mask-55);}.cls-87{mask:url(#mask-56);}.cls-88{filter:url(#luminosity-noclip-53);}.cls-89{filter:url(#luminosity-noclip-52);}.cls-90{filter:url(#luminosity-noclip-48);}.cls-91{filter:url(#luminosity-noclip-47);}.cls-92{filter:url(#luminosity-noclip-43);}.cls-93{filter:url(#luminosity-noclip-42);}.cls-94{filter:url(#luminosity-noclip-38);}.cls-95{filter:url(#luminosity-noclip-37);}.cls-96{filter:url(#luminosity-noclip-33);}.cls-97{filter:url(#luminosity-noclip-32);}.cls-98{filter:url(#luminosity-noclip-28);}.cls-99{filter:url(#luminosity-noclip-27);}.cls-100{filter:url(#luminosity-noclip-23);}.cls-101{filter:url(#luminosity-noclip-22);}.cls-102{filter:url(#luminosity-noclip-21);}.cls-103{filter:url(#luminosity-noclip-20);}.cls-104{filter:url(#luminosity-noclip-19);}.cls-105{filter:url(#luminosity-noclip-18);}.cls-106{filter:url(#luminosity-noclip-17);}.cls-107{filter:url(#luminosity-noclip-16);}.cls-108{filter:url(#luminosity-noclip-15);}.cls-109{filter:url(#luminosity-noclip-14);}.cls-110{filter:url(#luminosity-noclip-13);}.cls-111{filter:url(#luminosity-noclip-12);}.cls-112{filter:url(#luminosity-noclip-11);}.cls-113{filter:url(#luminosity-noclip-10);}.cls-114{filter:url(#luminosity-noclip-9);}.cls-115{filter:url(#luminosity-noclip-8);}.cls-116{filter:url(#luminosity-noclip-7);}.cls-117{filter:url(#luminosity-noclip-6);}.cls-118{filter:url(#luminosity-noclip-5);}.cls-119{filter:url(#luminosity-noclip-4);}.cls-120{filter:url(#luminosity-noclip-3);}.cls-121{filter:url(#luminosity-noclip-2);}.cls-122{filter:url(#luminosity-noclip);}</style><filter id="luminosity-noclip" x="288" y="-4077.76" width="13.83" height="32766" filterUnits="userSpaceOnUse" color-interpolation-filters="sRGB"><feFlood flood-color="#fff" result="bg"/><feBlend in="SourceGraphic" in2="bg"/></filter><mask id="mask" x="288" y="-4077.76" width="13.83" height="32766" maskUnits="userSpaceOnUse"><g class="cls-122"/></mask><radialGradient id="radial-gradient" cx="285.22" cy="-3249.1" r="5.78" gradientTransform="translate(-877.9 14391.8) scale(4.07 4.23)" gradientUnits="userSpaceOnUse"><stop offset="0.17"/><stop offset="0.37" stop-color="#454545"/><stop offset="0.63" stop-color="#9b9b9b"/><stop offset="0.82" stop-color="#d1d1d1"/><stop offset="0.9" stop-color="#e6e6e6"/></radialGradient><filter id="luminosity-noclip-2" x="262.6" y="-4077.76" width="18.11" height="32766" filterUnits="userSpaceOnUse" color-interpolation-filters="sRGB"><feFlood flood-color="#fff" result="bg"/><feBlend in="SourceGraphic" in2="bg"/></filter><mask id="mask-2" x="262.6" y="-4077.76" width="18.11" height="32766" maskUnits="userSpaceOnUse"><g class="cls-121"/></mask><radialGradient id="radial-gradient-2" cx="174.06" cy="-3211.36" r="5.78" gradientTransform="matrix(4.04, -0.55, 0.52, 4.2, 1264.67, 14212.59)" xlink:href="#radial-gradient"/><filter id="luminosity-noclip-3" x="279.8" y="-4077.76" width="35.71" height="32766" filterUnits="userSpaceOnUse" color-interpolation-filters="sRGB"><feFlood flood-color="#fff" result="bg"/><feBlend in="SourceGraphic" in2="bg"/></filter><mask id="mask-3" x="279.8" y="-4077.76" width="35.71" height="32766" maskUnits="userSpaceOnUse"><g class="cls-120"/></mask><radialGradient id="radial-gradient-3" cx="302.3" cy="-3112.22" r="17.7" gradientTransform="translate(-890.8 11759) scale(3.83 3.58)" gradientUnits="userSpaceOnUse"><stop offset="0.84"/><stop offset="0.85" stop-color="#2a2a2a"/><stop offset="0.86" stop-color="#5b5b5b"/><stop offset="0.87" stop-color="#868686"/><stop offset="0.88" stop-color="#a9a9a9"/><stop offset="0.89" stop-color="#c4c4c4"/><stop offset="0.9" stop-color="#d7d7d7"/><stop offset="0.91" stop-color="#e2e2e2"/><stop offset="0.92" stop-color="#e6e6e6"/></radialGradient><filter id="luminosity-noclip-4" x="370.99" y="-4077.76" width="14.93" height="32766" filterUnits="userSpaceOnUse" color-interpolation-filters="sRGB"><feFlood flood-color="#fff" result="bg"/><feBlend in="SourceGraphic" in2="bg"/></filter><mask id="mask-4" x="370.99" y="-4077.76" width="14.93" height="32766" maskUnits="userSpaceOnUse"><g class="cls-119"/></mask><radialGradient id="radial-gradient-4" cx="305.52" cy="-3272.97" r="6.24" xlink:href="#radial-gradient"/><filter id="luminosity-noclip-5" x="396.7" y="-4077.76" width="10.43" height="32766" filterUnits="userSpaceOnUse" color-interpolation-filters="sRGB"><feFlood flood-color="#fff" result="bg"/><feBlend in="SourceGraphic" in2="bg"/></filter><mask id="mask-5" x="396.7" y="-4077.76" width="10.43" height="32766" maskUnits="userSpaceOnUse"><g class="cls-118"/></mask><radialGradient id="radial-gradient-5" cx="312.12" cy="-3248.01" r="4.36" xlink:href="#radial-gradient"/><filter id="luminosity-noclip-6" x="343.59" y="-4077.76" width="19.54" height="32766" filterUnits="userSpaceOnUse" color-interpolation-filters="sRGB"><feFlood flood-color="#fff" result="bg"/><feBlend in="SourceGraphic" in2="bg"/></filter><mask id="mask-6" x="343.59" y="-4077.76" width="19.54" height="32766" maskUnits="userSpaceOnUse"><g class="cls-117"/></mask><radialGradient id="radial-gradient-6" cx="197.22" cy="-3232.44" r="6.24" gradientTransform="matrix(4.04, -0.55, 0.52, 4.2, 1264.67, 14212.59)" xlink:href="#radial-gradient"/><filter id="luminosity-noclip-7" x="362.15" y="-4077.76" width="38.53" height="32766" filterUnits="userSpaceOnUse" color-interpolation-filters="sRGB"><feFlood flood-color="#fff" result="bg"/><feBlend in="SourceGraphic" in2="bg"/></filter><mask id="mask-7" x="362.15" y="-4077.76" width="38.53" height="32766" maskUnits="userSpaceOnUse"><g class="cls-116"/></mask><radialGradient id="radial-gradient-7" cx="323.54" cy="-3141.11" r="19.1" xlink:href="#radial-gradient-3"/><filter id="luminosity-noclip-8" x="242.99" y="-4077.76" width="11.89" height="32766" filterUnits="userSpaceOnUse" color-interpolation-filters="sRGB"><feFlood flood-color="#fff" result="bg"/><feBlend in="SourceGraphic" in2="bg"/></filter><mask id="mask-8" x="242.99" y="-4077.76" width="11.89" height="32766" maskUnits="userSpaceOnUse"><g class="cls-115"/></mask><radialGradient id="radial-gradient-8" cx="274.3" cy="-3286.09" r="4.97" xlink:href="#radial-gradient"/><filter id="luminosity-noclip-9" x="221.16" y="-4077.76" width="15.57" height="32766" filterUnits="userSpaceOnUse" color-interpolation-filters="sRGB"><feFlood flood-color="#fff" result="bg"/><feBlend in="SourceGraphic" in2="bg"/></filter><mask id="mask-9" x="221.16" y="-4077.76" width="15.57" height="32766" maskUnits="userSpaceOnUse"><g class="cls-114"/></mask><radialGradient id="radial-gradient-9" cx="168.05" cy="-3249.39" r="4.97" gradientTransform="matrix(4.04, -0.55, 0.52, 4.2, 1264.67, 14212.59)" xlink:href="#radial-gradient"/><filter id="luminosity-noclip-10" x="235.95" y="-4077.76" width="30.7" height="32766" filterUnits="userSpaceOnUse" color-interpolation-filters="sRGB"><feFlood flood-color="#fff" result="bg"/><feBlend in="SourceGraphic" in2="bg"/></filter><mask id="mask-10" x="235.95" y="-4077.76" width="30.7" height="32766" maskUnits="userSpaceOnUse"><g class="cls-113"/></mask><radialGradient id="radial-gradient-10" cx="291.32" cy="-3154.67" r="15.22" xlink:href="#radial-gradient-3"/><filter id="luminosity-noclip-11" x="161.83" y="-4077.76" width="13.49" height="32766" filterUnits="userSpaceOnUse" color-interpolation-filters="sRGB"><feFlood flood-color="#fff" result="bg"/><feBlend in="SourceGraphic" in2="bg"/></filter><mask id="mask-11" x="161.83" y="-4077.76" width="13.49" height="32766" maskUnits="userSpaceOnUse"><g class="cls-112"/></mask><radialGradient id="radial-gradient-11" cx="254.28" cy="-3262.35" r="5.64" xlink:href="#radial-gradient"/><filter id="luminosity-noclip-12" x="137.06" y="-4077.76" width="17.67" height="32766" filterUnits="userSpaceOnUse" color-interpolation-filters="sRGB"><feFlood flood-color="#fff" result="bg"/><feBlend in="SourceGraphic" in2="bg"/></filter><mask id="mask-12" x="137.06" y="-4077.76" width="17.67" height="32766" maskUnits="userSpaceOnUse"><g class="cls-111"/></mask><radialGradient id="radial-gradient-12" cx="145.09" cy="-3228.47" r="5.64" gradientTransform="matrix(4.04, -0.55, 0.52, 4.2, 1264.67, 14212.59)" xlink:href="#radial-gradient"/><filter id="luminosity-noclip-13" x="153.84" y="-4077.76" width="34.83" height="32766" filterUnits="userSpaceOnUse" color-interpolation-filters="sRGB"><feFlood flood-color="#fff" result="bg"/><feBlend in="SourceGraphic" in2="bg"/></filter><mask id="mask-13" x="153.84" y="-4077.76" width="34.83" height="32766" maskUnits="userSpaceOnUse"><g class="cls-110"/></mask><radialGradient id="radial-gradient-13" cx="269.49" cy="-3127.65" r="17.27" xlink:href="#radial-gradient-3"/><filter id="luminosity-noclip-14" x="377.55" y="-4077.76" width="13.65" height="32766" filterUnits="userSpaceOnUse" color-interpolation-filters="sRGB"><feFlood flood-color="#fff" result="bg"/><feBlend in="SourceGraphic" in2="bg"/></filter><mask id="mask-14" x="377.55" y="-4077.76" width="13.65" height="32766" maskUnits="userSpaceOnUse"><g class="cls-109"/></mask><radialGradient id="radial-gradient-14" cx="200.68" cy="-3206.71" r="4.36" gradientTransform="matrix(4.04, -0.55, 0.52, 4.2, 1264.67, 14212.59)" xlink:href="#radial-gradient"/><filter id="luminosity-noclip-15" x="60.74" y="-4077.76" width="7.96" height="32766" filterUnits="userSpaceOnUse" color-interpolation-filters="sRGB"><feFlood flood-color="#fff" result="bg"/><feBlend in="SourceGraphic" in2="bg"/></filter><mask id="mask-15" x="60.74" y="-4077.76" width="7.96" height="32766" maskUnits="userSpaceOnUse"><g class="cls-108"/></mask><radialGradient id="radial-gradient-15" cx="229.83" cy="-3266.12" r="3.33" xlink:href="#radial-gradient"/><filter id="luminosity-noclip-16" x="46.12" y="-4077.76" width="10.42" height="32766" filterUnits="userSpaceOnUse" color-interpolation-filters="sRGB"><feFlood flood-color="#fff" result="bg"/><feBlend in="SourceGraphic" in2="bg"/></filter><mask id="mask-16" x="46.12" y="-4077.76" width="10.42" height="32766" maskUnits="userSpaceOnUse"><g class="cls-107"/></mask><radialGradient id="radial-gradient-16" cx="121.48" cy="-3235.19" r="3.33" gradientTransform="matrix(4.04, -0.55, 0.52, 4.2, 1264.67, 14212.59)" xlink:href="#radial-gradient"/><filter id="luminosity-noclip-17" x="56.02" y="-4077.76" width="20.55" height="32766" filterUnits="userSpaceOnUse" color-interpolation-filters="sRGB"><feFlood flood-color="#fff" result="bg"/><feBlend in="SourceGraphic" in2="bg"/></filter><mask id="mask-17" x="56.02" y="-4077.76" width="20.55" height="32766" maskUnits="userSpaceOnUse"><g class="cls-106"/></mask><radialGradient id="radial-gradient-17" cx="245.29" cy="-3128.56" r="10.19" xlink:href="#radial-gradient-3"/><filter id="luminosity-noclip-18" x="201.59" y="-4077.76" width="2.67" height="32766" filterUnits="userSpaceOnUse" color-interpolation-filters="sRGB"><feFlood flood-color="#fff" result="bg"/><feBlend in="SourceGraphic" in2="bg"/></filter><mask id="mask-18" x="201.59" y="-4077.76" width="2.67" height="32766" maskUnits="userSpaceOnUse"><g class="cls-105"/></mask><radialGradient id="radial-gradient-18" cx="231.12" cy="-3260.33" r="1.23" gradientTransform="translate(2900.3 14195.5) rotate(-14.3) scale(3.21 4.23)" xlink:href="#radial-gradient"/><filter id="luminosity-noclip-19" x="198.77" y="-4077.76" width="3.57" height="32766" filterUnits="userSpaceOnUse" color-interpolation-filters="sRGB"><feFlood flood-color="#fff" result="bg"/><feBlend in="SourceGraphic" in2="bg"/></filter><mask id="mask-19" x="198.77" y="-4077.76" width="3.57" height="32766" maskUnits="userSpaceOnUse"><g class="cls-104"/></mask><radialGradient id="radial-gradient-19" cx="122.15" cy="-3229.13" r="1.23" gradientTransform="matrix(2.95, -1.32, 1.44, 3.96, 4492.66, 13603.41)" xlink:href="#radial-gradient"/><filter id="luminosity-noclip-20" x="202.73" y="-4077.76" width="4.81" height="32766" filterUnits="userSpaceOnUse" color-interpolation-filters="sRGB"><feFlood flood-color="#fff" result="bg"/><feBlend in="SourceGraphic" in2="bg"/></filter><mask id="mask-20" x="202.73" y="-4077.76" width="4.81" height="32766" maskUnits="userSpaceOnUse"><g class="cls-103"/></mask><radialGradient id="radial-gradient-20" cx="248.3" cy="-3118.49" r="3.76" gradientTransform="matrix(2.93, -0.75, 0.89, 3.47, 2238.28, 11647.24)" xlink:href="#radial-gradient-3"/><filter id="luminosity-noclip-21" x="390.52" y="-4077.76" width="26.92" height="32766" filterUnits="userSpaceOnUse" color-interpolation-filters="sRGB"><feFlood flood-color="#fff" result="bg"/><feBlend in="SourceGraphic" in2="bg"/></filter><mask id="mask-21" x="390.52" y="-4077.76" width="26.92" height="32766" maskUnits="userSpaceOnUse"><g class="cls-102"/></mask><radialGradient id="radial-gradient-21" cx="332.03" cy="-3108.75" r="13.34" xlink:href="#radial-gradient-3"/><linearGradient id="linear-gradient" x1="104.06" y1="155.82" x2="602.27" y2="497.19" gradientUnits="userSpaceOnUse"><stop offset="0" stop-color="#9b81cf"/><stop offset="1" stop-color="#3b139b"/></linearGradient><linearGradient id="linear-gradient-2" x1="66.74" y1="330.5" x2="651.26" y2="330.5" gradientUnits="userSpaceOnUse"><stop offset="0" stop-color="#4c1da9"/><stop offset="1" stop-color="#997ece"/></linearGradient><clipPath id="clip-path"><ellipse class="cls-43" cx="358.4" cy="330.5" rx="287" ry="286"/></clipPath><filter id="luminosity-noclip-22" x="369.21" y="-4077.76" width="51.74" height="32766" filterUnits="userSpaceOnUse" color-interpolation-filters="sRGB"><feFlood flood-color="#fff" result="bg"/><feBlend in="SourceGraphic" in2="bg"/></filter><mask id="mask-22" x="369.21" y="-4077.76" width="51.74" height="32766" maskUnits="userSpaceOnUse"><g class="cls-101"/></mask><filter id="luminosity-noclip-23" x="370.5" y="-4077.76" width="49.17" height="32766" filterUnits="userSpaceOnUse" color-interpolation-filters="sRGB"><feFlood flood-color="#fff" result="bg"/><feBlend in="SourceGraphic" in2="bg"/></filter><mask id="mask-23" x="370.5" y="-4077.76" width="49.17" height="32766" maskUnits="userSpaceOnUse"><g class="cls-100"/></mask><filter id="luminosity-noclip-24" x="396.7" y="630.6" width="10.43" height="10.9" filterUnits="userSpaceOnUse" color-interpolation-filters="sRGB"><feFlood flood-color="#fff" result="bg"/><feBlend in="SourceGraphic" in2="bg"/></filter><mask id="mask-24" x="396.7" y="630.6" width="10.43" height="10.9" maskUnits="userSpaceOnUse"><g class="cls-9"><path class="cls-10" d="M404.7,633.4a11,11,0,0,0-5.1-2.7c-1.2-.3-2.6.1-2.9,1s.7,2.8,2.9,5.1,4.3,4.8,5.2,4.7,2.2-2.6,2.3-3.9S406.3,635,404.7,633.4Z"/></g></mask><filter id="luminosity-noclip-25" x="377.55" y="649.49" width="13.65" height="13.82" filterUnits="userSpaceOnUse" color-interpolation-filters="sRGB"><feFlood flood-color="#fff" result="bg"/><feBlend in="SourceGraphic" in2="bg"/></filter><mask id="mask-25" x="377.55" y="649.49" width="13.65" height="13.82" maskUnits="userSpaceOnUse"><g class="cls-27"><path class="cls-28" d="M383.4,650.9c-3.2-1.7-5.4-1.8-5.8-.6s.5,3.6,1.6,5.4a20.9,20.9,0,0,0,6,6.3c2.4,1.3,4.1,1.9,4.9.6s1.5-5.2.8-6.8S386.7,652.6,383.4,650.9Z"/></g></mask><filter id="luminosity-noclip-26" x="390.52" y="648.68" width="26.92" height="20.55" filterUnits="userSpaceOnUse" color-interpolation-filters="sRGB"><feFlood flood-color="#fff" result="bg"/><feBlend in="SourceGraphic" in2="bg"/></filter><mask id="mask-26" x="390.52" y="648.68" width="26.92" height="20.55" maskUnits="userSpaceOnUse"><g class="cls-41"><path class="cls-42" d="M390.5,667.3a10.6,10.6,0,0,0,3.2,1.6c5.2,1.2,11.3-1.1,15.6-4.2s8.1-8.1,8.1-13a9.2,9.2,0,0,0-.7-3A31.4,31.4,0,0,1,390.5,667.3Z"/></g></mask><filter id="luminosity-noclip-27" x="251.54" y="-4077.76" width="68.64" height="32766" filterUnits="userSpaceOnUse" color-interpolation-filters="sRGB"><feFlood flood-color="#fff" result="bg"/><feBlend in="SourceGraphic" in2="bg"/></filter><mask id="mask-27" x="251.54" y="-4077.76" width="68.64" height="32766" maskUnits="userSpaceOnUse"><g class="cls-99"/></mask><filter id="luminosity-noclip-28" x="253.24" y="-4077.76" width="65.24" height="32766" filterUnits="userSpaceOnUse" color-interpolation-filters="sRGB"><feFlood flood-color="#fff" result="bg"/><feBlend in="SourceGraphic" in2="bg"/></filter><mask id="mask-28" x="253.24" y="-4077.76" width="65.24" height="32766" maskUnits="userSpaceOnUse"><g class="cls-98"/></mask><filter id="luminosity-noclip-29" x="288" y="620.91" width="13.83" height="14.46" filterUnits="userSpaceOnUse" color-interpolation-filters="sRGB"><feFlood flood-color="#fff" result="bg"/><feBlend in="SourceGraphic" in2="bg"/></filter><mask id="mask-29" x="288" y="620.91" width="13.83" height="14.46" maskUnits="userSpaceOnUse"><g class="cls-1"><path class="cls-2" d="M298.6,624.6a14.6,14.6,0,0,0-6.8-3.6c-1.6-.3-3.3.2-3.7,1.3s.9,3.8,3.7,6.8,5.8,6.4,7,6.3,2.8-3.4,3-5.2S300.7,626.7,298.6,624.6Z"/></g></mask><filter id="luminosity-noclip-30" x="262.6" y="645.98" width="18.11" height="18.34" filterUnits="userSpaceOnUse" color-interpolation-filters="sRGB"><feFlood flood-color="#fff" result="bg"/><feBlend in="SourceGraphic" in2="bg"/></filter><mask id="mask-30" x="262.6" y="645.98" width="18.11" height="18.34" maskUnits="userSpaceOnUse"><g class="cls-3"><path class="cls-4" d="M270.4,647.8c-4.3-2.3-7.2-2.3-7.7-.8s.6,4.9,2.1,7.2,4.8,6.6,7.9,8.3,5.5,2.6,6.5.9,2.1-6.9,1.1-9.1S274.7,650.1,270.4,647.8Z"/></g></mask><filter id="luminosity-noclip-31" x="279.8" y="644.91" width="35.71" height="27.27" filterUnits="userSpaceOnUse" color-interpolation-filters="sRGB"><feFlood flood-color="#fff" result="bg"/><feBlend in="SourceGraphic" in2="bg"/></filter><mask id="mask-31" x="279.8" y="644.91" width="35.71" height="27.27" maskUnits="userSpaceOnUse"><g class="cls-5"><path class="cls-6" d="M279.8,669.6a13.1,13.1,0,0,0,4.2,2.2c6.9,1.5,15.1-1.5,20.7-5.6s10.8-10.8,10.8-17.3a10.7,10.7,0,0,0-1-4A41.6,41.6,0,0,1,279.8,669.6Z"/></g></mask><filter id="luminosity-noclip-32" x="331.64" y="-4077.76" width="74.07" height="32766" filterUnits="userSpaceOnUse" color-interpolation-filters="sRGB"><feFlood flood-color="#fff" result="bg"/><feBlend in="SourceGraphic" in2="bg"/></filter><mask id="mask-32" x="331.64" y="-4077.76" width="74.07" height="32766" maskUnits="userSpaceOnUse"><g class="cls-97"/></mask><filter id="luminosity-noclip-33" x="333.48" y="-4077.76" width="70.4" height="32766" filterUnits="userSpaceOnUse" color-interpolation-filters="sRGB"><feFlood flood-color="#fff" result="bg"/><feBlend in="SourceGraphic" in2="bg"/></filter><mask id="mask-33" x="333.48" y="-4077.76" width="70.4" height="32766" maskUnits="userSpaceOnUse"><g class="cls-96"/></mask><filter id="luminosity-noclip-34" x="370.99" y="518.29" width="14.93" height="15.61" filterUnits="userSpaceOnUse" color-interpolation-filters="sRGB"><feFlood flood-color="#fff" result="bg"/><feBlend in="SourceGraphic" in2="bg"/></filter><mask id="mask-34" x="370.99" y="518.29" width="14.93" height="15.61" maskUnits="userSpaceOnUse"><g class="cls-7"><path class="cls-8" d="M382.4,522.3a15.4,15.4,0,0,0-7.3-3.9c-1.7-.3-3.6.2-4,1.4s1,4.1,4,7.3,6.2,6.9,7.6,6.8,3-3.7,3.2-5.6S384.7,524.6,382.4,522.3Z"/></g></mask><filter id="luminosity-noclip-35" x="343.59" y="545.34" width="19.54" height="19.79" filterUnits="userSpaceOnUse" color-interpolation-filters="sRGB"><feFlood flood-color="#fff" result="bg"/><feBlend in="SourceGraphic" in2="bg"/></filter><mask id="mask-35" x="343.59" y="545.34" width="19.54" height="19.79" maskUnits="userSpaceOnUse"><g class="cls-11"><path class="cls-12" d="M352,547.3c-4.7-2.4-7.8-2.5-8.3-.8s.7,5.2,2.3,7.7,5.1,7.1,8.5,9,5.9,2.7,7,.9,2.2-7.4,1.2-9.7S356.7,549.7,352,547.3Z"/></g></mask><filter id="luminosity-noclip-36" x="362.15" y="544.18" width="38.53" height="29.43" filterUnits="userSpaceOnUse" color-interpolation-filters="sRGB"><feFlood flood-color="#fff" result="bg"/><feBlend in="SourceGraphic" in2="bg"/></filter><mask id="mask-36" x="362.15" y="544.18" width="38.53" height="29.43" maskUnits="userSpaceOnUse"><g class="cls-13"><path class="cls-14" d="M362.1,570.8a13.2,13.2,0,0,0,4.6,2.3c7.4,1.8,16.2-1.6,22.3-6s11.7-11.5,11.7-18.6a12.4,12.4,0,0,0-1.1-4.3A45,45,0,0,1,362.1,570.8Z"/></g></mask><filter id="luminosity-noclip-37" x="211.65" y="-4077.76" width="59.01" height="32766" filterUnits="userSpaceOnUse" color-interpolation-filters="sRGB"><feFlood flood-color="#fff" result="bg"/><feBlend in="SourceGraphic" in2="bg"/></filter><mask id="mask-37" x="211.65" y="-4077.76" width="59.01" height="32766" maskUnits="userSpaceOnUse"><g class="cls-95"/></mask><filter id="luminosity-noclip-38" x="213.11" y="-4077.76" width="56.08" height="32766" filterUnits="userSpaceOnUse" color-interpolation-filters="sRGB"><feFlood flood-color="#fff" result="bg"/><feBlend in="SourceGraphic" in2="bg"/></filter><mask id="mask-38" x="213.11" y="-4077.76" width="56.08" height="32766" maskUnits="userSpaceOnUse"><g class="cls-94"/></mask><filter id="luminosity-noclip-39" x="242.99" y="467.25" width="11.89" height="12.43" filterUnits="userSpaceOnUse" color-interpolation-filters="sRGB"><feFlood flood-color="#fff" result="bg"/><feBlend in="SourceGraphic" in2="bg"/></filter><mask id="mask-39" x="242.99" y="467.25" width="11.89" height="12.43" maskUnits="userSpaceOnUse"><g class="cls-15"><path class="cls-16" d="M252.1,470.4a13.2,13.2,0,0,0-5.8-3.1c-1.4-.2-2.9.2-3.3,1.2s.8,3.2,3.3,5.8,4.9,5.5,6,5.4,2.4-3,2.6-4.4S253.9,472.2,252.1,470.4Z"/></g></mask><filter id="luminosity-noclip-40" x="221.16" y="488.79" width="15.57" height="15.76" filterUnits="userSpaceOnUse" color-interpolation-filters="sRGB"><feFlood flood-color="#fff" result="bg"/><feBlend in="SourceGraphic" in2="bg"/></filter><mask id="mask-40" x="221.16" y="488.79" width="15.57" height="15.76" maskUnits="userSpaceOnUse"><g class="cls-17"><path class="cls-18" d="M227.9,490.4c-3.8-2-6.3-2-6.6-.7s.5,4.2,1.7,6.2,4.2,5.6,6.9,7.1,4.7,2.2,5.6.8,1.7-6,.9-7.8S231.6,492.3,227.9,490.4Z"/></g></mask><filter id="luminosity-noclip-41" x="235.95" y="487.87" width="30.7" height="23.44" filterUnits="userSpaceOnUse" color-interpolation-filters="sRGB"><feFlood flood-color="#fff" result="bg"/><feBlend in="SourceGraphic" in2="bg"/></filter><mask id="mask-41" x="235.95" y="487.87" width="30.7" height="23.44" maskUnits="userSpaceOnUse"><g class="cls-19"><path class="cls-20" d="M235.9,509.1a9.7,9.7,0,0,0,3.7,1.8c5.9,1.4,12.9-1.2,17.7-4.8s9.3-9.2,9.3-14.8a9.3,9.3,0,0,0-.8-3.4A35.8,35.8,0,0,1,235.9,509.1Z"/></g></mask><filter id="luminosity-noclip-42" x="126.26" y="-4077.76" width="66.95" height="32766" filterUnits="userSpaceOnUse" color-interpolation-filters="sRGB"><feFlood flood-color="#fff" result="bg"/><feBlend in="SourceGraphic" in2="bg"/></filter><mask id="mask-42" x="126.26" y="-4077.76" width="66.95" height="32766" maskUnits="userSpaceOnUse"><g class="cls-93"/></mask><filter id="luminosity-noclip-43" x="127.92" y="-4077.76" width="63.63" height="32766" filterUnits="userSpaceOnUse" color-interpolation-filters="sRGB"><feFlood flood-color="#fff" result="bg"/><feBlend in="SourceGraphic" in2="bg"/></filter><mask id="mask-43" x="127.92" y="-4077.76" width="63.63" height="32766" maskUnits="userSpaceOnUse"><g class="cls-92"/></mask><filter id="luminosity-noclip-44" x="161.83" y="565.36" width="13.49" height="14.11" filterUnits="userSpaceOnUse" color-interpolation-filters="sRGB"><feFlood flood-color="#fff" result="bg"/><feBlend in="SourceGraphic" in2="bg"/></filter><mask id="mask-44" x="161.83" y="565.36" width="13.49" height="14.11" maskUnits="userSpaceOnUse"><g class="cls-21"><path class="cls-22" d="M172.2,569a14.3,14.3,0,0,0-6.7-3.6c-1.5-.2-3.2.3-3.6,1.3s.9,3.7,3.6,6.7,5.7,6.2,6.9,6.1,2.7-3.4,2.9-5S174.2,571,172.2,569Z"/></g></mask><filter id="luminosity-noclip-45" x="137.06" y="589.81" width="17.67" height="17.89" filterUnits="userSpaceOnUse" color-interpolation-filters="sRGB"><feFlood flood-color="#fff" result="bg"/><feBlend in="SourceGraphic" in2="bg"/></filter><mask id="mask-45" x="137.06" y="589.81" width="17.67" height="17.89" maskUnits="userSpaceOnUse"><g class="cls-23"><path class="cls-24" d="M144.7,591.6c-4.3-2.2-7.1-2.3-7.5-.8s.6,4.8,2,7.1,4.7,6.3,7.8,8.1,5.3,2.4,6.3.8,2-6.7,1.1-8.8S148.9,593.8,144.7,591.6Z"/></g></mask><filter id="luminosity-noclip-46" x="153.84" y="588.77" width="34.83" height="26.6" filterUnits="userSpaceOnUse" color-interpolation-filters="sRGB"><feFlood flood-color="#fff" result="bg"/><feBlend in="SourceGraphic" in2="bg"/></filter><mask id="mask-46" x="153.84" y="588.77" width="34.83" height="26.6" maskUnits="userSpaceOnUse"><g class="cls-25"><path class="cls-26" d="M153.8,612.9a16,16,0,0,0,4.1,2.1c6.7,1.5,14.7-1.5,20.2-5.5s10.6-10.5,10.6-16.9a10.2,10.2,0,0,0-1-3.8A40.7,40.7,0,0,1,153.8,612.9Z"/></g></mask><filter id="luminosity-noclip-47" x="39.75" y="-4077.76" width="39.5" height="32766" filterUnits="userSpaceOnUse" color-interpolation-filters="sRGB"><feFlood flood-color="#fff" result="bg"/><feBlend in="SourceGraphic" in2="bg"/></filter><mask id="mask-47" x="39.75" y="-4077.76" width="39.5" height="32766" maskUnits="userSpaceOnUse"><g class="cls-91"/></mask><filter id="luminosity-noclip-48" x="40.73" y="-4077.76" width="37.54" height="32766" filterUnits="userSpaceOnUse" color-interpolation-filters="sRGB"><feFlood flood-color="#fff" result="bg"/><feBlend in="SourceGraphic" in2="bg"/></filter><mask id="mask-48" x="40.73" y="-4077.76" width="37.54" height="32766" maskUnits="userSpaceOnUse"><g class="cls-90"/></mask><filter id="luminosity-noclip-49" x="60.74" y="557.63" width="7.96" height="8.32" filterUnits="userSpaceOnUse" color-interpolation-filters="sRGB"><feFlood flood-color="#fff" result="bg"/><feBlend in="SourceGraphic" in2="bg"/></filter><mask id="mask-49" x="60.74" y="557.63" width="7.96" height="8.32" maskUnits="userSpaceOnUse"><g class="cls-29"><path class="cls-30" d="M66.8,559.7a7.6,7.6,0,0,0-3.9-2c-.9-.2-1.9.1-2.1.7s.5,2.2,2.1,3.9,3.3,3.7,4.1,3.6,1.6-1.9,1.7-2.9S68,561,66.8,559.7Z"/></g></mask><filter id="luminosity-noclip-50" x="46.12" y="572.05" width="10.42" height="10.55" filterUnits="userSpaceOnUse" color-interpolation-filters="sRGB"><feFlood flood-color="#fff" result="bg"/><feBlend in="SourceGraphic" in2="bg"/></filter><mask id="mask-50" x="46.12" y="572.05" width="10.42" height="10.55" maskUnits="userSpaceOnUse"><g class="cls-31"><path class="cls-32" d="M50.6,573.1c-2.5-1.3-4.2-1.3-4.4-.4s.3,2.7,1.2,4.1a13.9,13.9,0,0,0,4.6,4.8c1.8,1,3.1,1.4,3.7.5s1.2-4,.6-5.2S53.1,574.4,50.6,573.1Z"/></g></mask><filter id="luminosity-noclip-51" x="56.02" y="571.43" width="20.55" height="15.69" filterUnits="userSpaceOnUse" color-interpolation-filters="sRGB"><feFlood flood-color="#fff" result="bg"/><feBlend in="SourceGraphic" in2="bg"/></filter><mask id="mask-51" x="56.02" y="571.43" width="20.55" height="15.69" maskUnits="userSpaceOnUse"><g class="cls-33"><path class="cls-34" d="M56,585.7a10.7,10.7,0,0,0,2.4,1.2c4,.9,8.7-.9,11.9-3.2s6.3-6.2,6.3-10a7.8,7.8,0,0,0-.6-2.3A24.3,24.3,0,0,1,56,585.7Z"/></g></mask><filter id="luminosity-noclip-52" x="196.24" y="-4077.76" width="11.75" height="32766" filterUnits="userSpaceOnUse" color-interpolation-filters="sRGB"><feFlood flood-color="#fff" result="bg"/><feBlend in="SourceGraphic" in2="bg"/></filter><mask id="mask-52" x="196.24" y="-4077.76" width="11.75" height="32766" maskUnits="userSpaceOnUse"><g class="cls-89"/></mask><filter id="luminosity-noclip-53" x="196.53" y="-4077.76" width="11.16" height="32766" filterUnits="userSpaceOnUse" color-interpolation-filters="sRGB"><feFlood flood-color="#fff" result="bg"/><feBlend in="SourceGraphic" in2="bg"/></filter><mask id="mask-53" x="196.53" y="-4077.76" width="11.16" height="32766" maskUnits="userSpaceOnUse"><g class="cls-88"/></mask><filter id="luminosity-noclip-54" x="201.59" y="639.22" width="2.67" height="2.67" filterUnits="userSpaceOnUse" color-interpolation-filters="sRGB"><feFlood flood-color="#fff" result="bg"/><feBlend in="SourceGraphic" in2="bg"/></filter><mask id="mask-54" x="201.59" y="639.22" width="2.67" height="2.67" maskUnits="userSpaceOnUse"><g class="cls-35"><path class="cls-36" d="M203.4,639.7a2,2,0,0,0-1.3-.5c-.2,0-.5.2-.5.4a2.1,2.1,0,0,0,.9,1.3c.7.5,1.3,1.1,1.5,1s.3-.8.2-1.2S203.9,640,203.4,639.7Z"/></g></mask><filter id="luminosity-noclip-55" x="198.77" y="645.46" width="3.57" height="3.28" filterUnits="userSpaceOnUse" color-interpolation-filters="sRGB"><feFlood flood-color="#fff" result="bg"/><feBlend in="SourceGraphic" in2="bg"/></filter><mask id="mask-55" x="198.77" y="645.46" width="3.57" height="3.28" maskUnits="userSpaceOnUse"><g class="cls-37"><path class="cls-38" d="M200.1,645.6c-.9-.3-1.3-.2-1.3.2a3,3,0,0,0,.7,1.4,7.9,7.9,0,0,0,1.7,1.4c.6.2,1,.2,1.1-.1a3.2,3.2,0,0,0-.3-1.9C201.8,646.1,200.9,645.9,200.1,645.6Z"/></g></mask><filter id="luminosity-noclip-56" x="202.73" y="643.2" width="4.81" height="6.78" filterUnits="userSpaceOnUse" color-interpolation-filters="sRGB"><feFlood flood-color="#fff" result="bg"/><feBlend in="SourceGraphic" in2="bg"/></filter><mask id="mask-56" x="202.73" y="643.2" width="4.81" height="6.78" maskUnits="userSpaceOnUse"><g class="cls-39"><path class="cls-40" d="M202.7,649.7l.8.3a4.3,4.3,0,0,0,3.1-2,5.2,5.2,0,0,0,.8-4,1.9,1.9,0,0,0-.3-.8C206.8,646.3,205.2,648.8,202.7,649.7Z"/></g></mask></defs><g id="Layer_1" data-name="Layer 1"><circle class="cls-44" cx="359" cy="330.5" r="301.9"/><circle class="cls-45" cx="359" cy="330.5" r="289.3"/><g class="cls-46"><rect class="cls-47" x="-4.9" y="43.1" width="892.8" height="889.85"/><line class="cls-43" x1="266.5" y1="288.5" x2="260.2" y2="287.7"/><g id="_015" data-name="015"><g id="_01" data-name="01"><g class="cls-48"><ellipse class="cls-49" cx="395.1" cy="644.4" rx="25.9" ry="26.9"/></g><g class="cls-50"><ellipse class="cls-51" cx="395.1" cy="644.4" rx="24.6" ry="25.5"/></g><g class="cls-52"><g class="cls-53"><path class="cls-54" d="M404.7,633.4a11,11,0,0,0-5.1-2.7c-1.2-.3-2.6.1-2.9,1s.7,2.8,2.9,5.1,4.3,4.8,5.2,4.7,2.2-2.6,2.3-3.9S406.3,635,404.7,633.4Z"/></g><g class="cls-55"><path class="cls-54" d="M383.4,650.9c-3.2-1.7-5.4-1.8-5.8-.6s.5,3.6,1.6,5.4a20.9,20.9,0,0,0,6,6.3c2.4,1.3,4.1,1.9,4.9.6s1.5-5.2.8-6.8S386.7,652.6,383.4,650.9Z"/></g></g><path class="cls-54" d="M397.4,620.4c-5.5-1.4-12.1,1.4-16.6,5s-8.7,9.5-8.7,15.4c0,2.1,1.7,6.4,3.1,5.7s1.7-2.9,2.6-4.8a28,28,0,0,1,7.6-10.3,26.2,26.2,0,0,1,8.8-4.5c2.7-.8,6.9-.8,7.8-2S399.4,620.9,397.4,620.4Z"/><g class="cls-56"><path class="cls-57" d="M390.5,667.3a10.6,10.6,0,0,0,3.2,1.6c5.2,1.2,11.3-1.1,15.6-4.2s8.1-8.1,8.1-13a9.2,9.2,0,0,0-.7-3A31.4,31.4,0,0,1,390.5,667.3Z"/></g></g><g id="_01-2" data-name="01"><g class="cls-58"><ellipse class="cls-49" cx="285.9" cy="639.2" rx="34.3" ry="35.6"/></g><g class="cls-59"><ellipse class="cls-51" cx="285.9" cy="639.2" rx="32.6" ry="33.9"/></g><g class="cls-52"><g class="cls-60"><path class="cls-54" d="M298.6,624.6a14.6,14.6,0,0,0-6.8-3.6c-1.6-.3-3.3.2-3.7,1.3s.9,3.8,3.7,6.8,5.8,6.4,7,6.3,2.8-3.4,3-5.2S300.7,626.7,298.6,624.6Z"/></g><g class="cls-61"><path class="cls-54" d="M270.4,647.8c-4.3-2.3-7.2-2.3-7.7-.8s.6,4.9,2.1,7.2,4.8,6.6,7.9,8.3,5.5,2.6,6.5.9,2.1-6.9,1.1-9.1S274.7,650.1,270.4,647.8Z"/></g></g><path class="cls-54" d="M288.9,607.4c-7.3-1.9-16,1.8-22,6.6s-11.5,12.7-11.5,20.4c0,2.8,2.2,8.6,4.1,7.6s2.2-3.9,3.4-6.4c2.6-5.4,5.6-10,10.1-13.6a34.2,34.2,0,0,1,11.7-6c3.5-1.1,9.1-1,10.4-2.7S291.6,608.1,288.9,607.4Z"/><g class="cls-62"><path class="cls-57" d="M279.8,669.6a13.1,13.1,0,0,0,4.2,2.2c6.9,1.5,15.1-1.5,20.7-5.6s10.8-10.8,10.8-17.3a10.7,10.7,0,0,0-1-4A41.6,41.6,0,0,1,279.8,669.6Z"/></g></g><g id="_01-3" data-name="01"><g class="cls-63"><ellipse class="cls-49" cx="368.7" cy="538" rx="37" ry="38.5"/></g><g class="cls-64"><ellipse class="cls-51" cx="368.7" cy="538" rx="35.2" ry="36.6"/></g><g class="cls-52"><g class="cls-65"><path class="cls-54" d="M382.4,522.3a15.4,15.4,0,0,0-7.3-3.9c-1.7-.3-3.6.2-4,1.4s1,4.1,4,7.3,6.2,6.9,7.6,6.8,3-3.7,3.2-5.6S384.7,524.6,382.4,522.3Z"/></g><g class="cls-66"><path class="cls-54" d="M352,547.3c-4.7-2.4-7.8-2.5-8.3-.8s.7,5.2,2.3,7.7,5.1,7.1,8.5,9,5.9,2.7,7,.9,2.2-7.4,1.2-9.7S356.7,549.7,352,547.3Z"/></g></g><path class="cls-54" d="M372,503.7c-7.9-2-17.3,1.9-23.8,7.1s-12.4,13.7-12.4,22.1c0,3,2.4,9.2,4.4,8.2s2.4-4.2,3.7-6.9c2.8-5.9,6-10.8,10.9-14.7a36,36,0,0,1,12.6-6.5c3.8-1.2,9.8-1.1,11.2-2.9S374.8,504.4,372,503.7Z"/><g class="cls-67"><path class="cls-57" d="M362.1,570.8a13.2,13.2,0,0,0,4.6,2.3c7.4,1.8,16.2-1.6,22.3-6s11.7-11.5,11.7-18.6a12.4,12.4,0,0,0-1.1-4.3A45,45,0,0,1,362.1,570.8Z"/></g></g><g id="_01-4" data-name="01"><g class="cls-68"><ellipse class="cls-49" cx="241.2" cy="483" rx="29.5" ry="30.6"/></g><g class="cls-69"><ellipse class="cls-51" cx="241.2" cy="483" rx="28" ry="29.1"/></g><g class="cls-52"><g class="cls-70"><path class="cls-54" d="M252.1,470.4a13.2,13.2,0,0,0-5.8-3.1c-1.4-.2-2.9.2-3.3,1.2s.8,3.2,3.3,5.8,4.9,5.5,6,5.4,2.4-3,2.6-4.4S253.9,472.2,252.1,470.4Z"/></g><g class="cls-71"><path class="cls-54" d="M227.9,490.4c-3.8-2-6.3-2-6.6-.7s.5,4.2,1.7,6.2,4.2,5.6,6.9,7.1,4.7,2.2,5.6.8,1.7-6,.9-7.8S231.6,492.3,227.9,490.4Z"/></g></g><path class="cls-54" d="M243.8,455.6c-6.3-1.6-13.8,1.6-18.9,5.7s-9.9,10.9-9.9,17.6c0,2.4,1.8,7.3,3.5,6.5s1.9-3.4,2.9-5.5c2.3-4.7,4.8-8.6,8.7-11.7a28.1,28.1,0,0,1,10-5.2c3.1-.9,7.9-.9,9-2.3S246,456.2,243.8,455.6Z"/><g class="cls-72"><path class="cls-57" d="M235.9,509.1a9.7,9.7,0,0,0,3.7,1.8c5.9,1.4,12.9-1.2,17.7-4.8s9.3-9.2,9.3-14.8a9.3,9.3,0,0,0-.8-3.4A35.8,35.8,0,0,1,235.9,509.1Z"/></g></g><g id="_01-5" data-name="01"><g class="cls-73"><ellipse class="cls-49" cx="159.7" cy="583.2" rx="33.5" ry="34.8"/></g><g class="cls-74"><ellipse class="cls-51" cx="159.7" cy="583.2" rx="31.8" ry="33"/></g><g class="cls-52"><g class="cls-75"><path class="cls-54" d="M172.2,569a14.3,14.3,0,0,0-6.7-3.6c-1.5-.2-3.2.3-3.6,1.3s.9,3.7,3.6,6.7,5.7,6.2,6.9,6.1,2.7-3.4,2.9-5S174.2,571,172.2,569Z"/></g><g class="cls-76"><path class="cls-54" d="M144.7,591.6c-4.3-2.2-7.1-2.3-7.5-.8s.6,4.8,2,7.1,4.7,6.3,7.8,8.1,5.3,2.4,6.3.8,2-6.7,1.1-8.8S148.9,593.8,144.7,591.6Z"/></g></g><path class="cls-54" d="M162.7,552.2c-7.1-1.8-15.6,1.7-21.4,6.4S130,571,130,578.6c0,2.7,2.2,8.3,4,7.4s2.2-3.8,3.4-6.3c2.5-5.3,5.4-9.7,9.8-13.3a32.4,32.4,0,0,1,11.4-5.8c3.5-1.1,8.9-1,10.1-2.6S165.3,552.9,162.7,552.2Z"/><g class="cls-77"><path class="cls-57" d="M153.8,612.9a16,16,0,0,0,4.1,2.1c6.7,1.5,14.7-1.5,20.2-5.5s10.6-10.5,10.6-16.9a10.2,10.2,0,0,0-1-3.8A40.7,40.7,0,0,1,153.8,612.9Z"/></g></g><g id="_01-6" data-name="01"><g class="cls-78"><ellipse class="cls-49" cx="59.5" cy="568.2" rx="19.8" ry="20.5"/></g><g class="cls-79"><ellipse class="cls-51" cx="59.5" cy="568.2" rx="18.8" ry="19.5"/></g><g class="cls-52"><g class="cls-80"><path class="cls-54" d="M66.8,559.7a7.6,7.6,0,0,0-3.9-2c-.9-.2-1.9.1-2.1.7s.5,2.2,2.1,3.9,3.3,3.7,4.1,3.6,1.6-1.9,1.7-2.9S68,561,66.8,559.7Z"/></g><g class="cls-81"><path class="cls-54" d="M50.6,573.1c-2.5-1.3-4.2-1.3-4.4-.4s.3,2.7,1.2,4.1a13.9,13.9,0,0,0,4.6,4.8c1.8,1,3.1,1.4,3.7.5s1.2-4,.6-5.2S53.1,574.4,50.6,573.1Z"/></g></g><path class="cls-54" d="M61.3,549.9c-4.2-1.1-9.2,1-12.7,3.8S42,560.9,42,565.4c0,1.6,1.2,4.9,2.3,4.4s1.3-2.3,2-3.7a20.7,20.7,0,0,1,5.8-7.8,18.7,18.7,0,0,1,6.7-3.5c2.1-.6,5.3-.6,6-1.5S62.8,550.2,61.3,549.9Z"/><g class="cls-82"><path class="cls-57" d="M56,585.7a10.7,10.7,0,0,0,2.4,1.2c4,.9,8.7-.9,11.9-3.2s6.3-6.2,6.3-10a7.8,7.8,0,0,0-.6-2.3A24.3,24.3,0,0,1,56,585.7Z"/></g></g><g id="_01-7" data-name="01"><g class="cls-83"><ellipse class="cls-49" cx="202.1" cy="643.2" rx="5.7" ry="7.6" transform="translate(-153 70.1) rotate(-14.3)"/></g><g class="cls-84"><ellipse class="cls-51" cx="202.1" cy="643.2" rx="5.5" ry="7.2" transform="translate(-153 70.1) rotate(-14.3)"/></g><g class="cls-52"><g class="cls-85"><path class="cls-54" d="M203.4,639.7a2,2,0,0,0-1.3-.5c-.2,0-.5.2-.5.4a2.1,2.1,0,0,0,.9,1.3c.7.5,1.3,1.1,1.5,1s.3-.8.2-1.2S203.9,640,203.4,639.7Z"/></g><g class="cls-86"><path class="cls-54" d="M200.1,645.6c-.9-.3-1.3-.2-1.3.2a3,3,0,0,0,.7,1.4,7.9,7.9,0,0,0,1.7,1.4c.6.2,1,.2,1.1-.1a3.2,3.2,0,0,0-.3-1.9C201.8,646.1,200.9,645.9,200.1,645.6Z"/></g></g><path class="cls-54" d="M200.9,636.5a4.3,4.3,0,0,0-3.2,2.3,6.9,6.9,0,0,0-.8,4.7c.2.6.8,1.7,1.1,1.4s.1-.9.2-1.5a8,8,0,0,1,.9-3.2,5.2,5.2,0,0,1,1.6-1.7c.5-.4,1.4-.6,1.6-1S201.4,636.6,200.9,636.5Z"/><g class="cls-87"><path class="cls-57" d="M202.7,649.7l.8.3a4.3,4.3,0,0,0,3.1-2,5.2,5.2,0,0,0,.8-4,1.9,1.9,0,0,0-.3-.8C206.8,646.3,205.2,648.8,202.7,649.7Z"/></g></g></g></g></g></svg>