<svg id="SB39_Interactive_Icon_14_F1" xmlns="http://www.w3.org/2000/svg" xmlns:xlink="http://www.w3.org/1999/xlink" viewBox="0 0 443.8 451.5"><defs><style>.cls-1{fill:none;}.cls-2{opacity:0.5;}.cls-3{fill:url(#linear-gradient);}.cls-4{fill:#31d0e5;stroke-width:6px;stroke:url(#linear-gradient-2);}.cls-10,.cls-4,.cls-8,.cls-9{stroke-miterlimit:10;}.cls-5{clip-path:url(#clip-path);}.cls-6{opacity:0.42;}.cls-7{fill:#fff;}.cls-8{fill:#dfe2dc;stroke:#a0a0a0;}.cls-9{fill:#fafef6;stroke:#848484;}.cls-10{fill:#cbcfc7;stroke:#939393;}</style><linearGradient id="linear-gradient" x1="43.17" y1="99.28" x2="392.43" y2="338.6" gradientUnits="userSpaceOnUse"><stop offset="0" stop-color="#9b81cf"/><stop offset="1" stop-color="#3b139b"/></linearGradient><linearGradient id="linear-gradient-2" x1="16.1" y1="221.74" x2="427.68" y2="221.74" gradientUnits="userSpaceOnUse"><stop offset="0" stop-color="#4c1da9"/><stop offset="1" stop-color="#997ece"/></linearGradient><clipPath id="clip-path"><circle class="cls-1" cx="225.9" cy="224.1" r="209.2"/></clipPath></defs><g id="Layer_1" data-name="Layer 1"><path class="cls-2" d="M435.1,233a208.3,208.3,0,0,0-25.4-100A211.6,211.6,0,0,0,221.9,19C105,19,10.2,113.8,10.2,230.7S105,442.3,221.9,442.3c3,0,5.9,0,8.9-.2C344.1,439.6,435.1,346.9,435.1,233Z"/><circle class="cls-3" cx="221.9" cy="221.7" r="211.7"/><circle class="cls-4" cx="221.9" cy="221.7" r="202.8"/><g id="_02" data-name="02"><g class="cls-5"><g class="cls-6"><path class="cls-7" d="M77.3,147.2s5.6-25.9,34.3-6.5S84.4,162.3,59,157.5,77.3,147.2,77.3,147.2Z"/><path class="cls-7" d="M132.4,124.8c24,12.2,2.3,17.5-17.8,16.3S108.3,112.6,132.4,124.8Z"/><path class="cls-7" d="M293.9,294.7s5.6-25.9,34.4-6.5-27.2,21.5-52.6,16.8S293.9,294.7,293.9,294.7Z"/><path class="cls-7" d="M349,272.3c24.1,12.1,2.3,17.4-17.8,16.3S324.9,260.1,349,272.3Z"/></g><line class="cls-8" x1="172.5" y1="362.5" x2="267.6" y2="282.4"/><line class="cls-8" x1="95.4" y1="323.2" x2="170.7" y2="273.4"/><line class="cls-8" x1="137.9" y1="338.5" x2="212.9" y2="284.9"/><path class="cls-9" d="M357,101.6,73.7,244.6l85.1,3.1L347.5,110.1,190.1,250.7l87.7,31.7Zm0,0"/><path class="cls-8" d="M190.1,250.7l-2.9,43.8-28.4-46.8L347.5,110.1Zm0,0"/><path class="cls-10" d="M187.2,294.5l38.5-30.6-35.6-13.2Zm0,0"/></g></g></g></svg>