<svg id="SB39_Interactive_Icon_14_F1" xmlns="http://www.w3.org/2000/svg" xmlns:xlink="http://www.w3.org/1999/xlink" viewBox="0 0 443.8 451.5"><defs><style>.cls-1,.cls-8{fill:none;}.cls-2{opacity:0.5;}.cls-3{fill:url(#linear-gradient);}.cls-4{fill:#31d0e5;stroke-width:6px;stroke:url(#linear-gradient-2);}.cls-4,.cls-6,.cls-8{stroke-miterlimit:10;}.cls-5{clip-path:url(#clip-path);}.cls-6{fill:#fff;}.cls-6,.cls-8{stroke:#afafaf;}.cls-7{fill:#d8d8d8;}</style><linearGradient id="linear-gradient" x1="43.17" y1="103.28" x2="392.43" y2="342.6" gradientUnits="userSpaceOnUse"><stop offset="0" stop-color="#9b81cf"/><stop offset="1" stop-color="#3b139b"/></linearGradient><linearGradient id="linear-gradient-2" x1="16.1" y1="225.74" x2="427.68" y2="225.74" gradientUnits="userSpaceOnUse"><stop offset="0" stop-color="#4c1da9"/><stop offset="1" stop-color="#997ece"/></linearGradient><clipPath id="clip-path"><path class="cls-1" d="M70.6,358.8C-4,275.2,3.3,149,86.9,74.5S298.6,7.2,373.2,90.7,440.5,300.5,356.9,375,145.2,442.3,70.6,358.8Z"/></clipPath></defs><g id="Layer_1" data-name="Layer 1"><path class="cls-2" d="M435.1,237a208.3,208.3,0,0,0-25.4-100A211.6,211.6,0,0,0,221.9,23C105,23,10.2,117.8,10.2,234.7S105,446.3,221.9,446.3c3,0,5.9,0,8.9-.2C344.1,443.6,435.1,350.9,435.1,237Z"/><circle class="cls-3" cx="221.9" cy="225.7" r="211.7"/><circle class="cls-4" cx="221.9" cy="225.7" r="202.8"/></g><g id="_011" data-name="011"><g class="cls-5"><path class="cls-6" d="M110.7,605.4l124.7,32.8s35,2.6,65.3-87.7L303.5,352,179.7,384.2l66.4,57C245.7,444.7,254.2,466.2,110.7,605.4Z"/><path class="cls-7" d="M299.8,549.9l3-197.2L181.1,384.8l65.5,55.9S273.3,463.8,299.8,549.9Z"/><path class="cls-8" d="M212.1,394.3s77-23.6,90.4-28.9"/><path class="cls-8" d="M221.5,401.7s67.8-20.3,81.1-25.6"/><path class="cls-8" d="M231.5,410.8s56-18.9,69.3-24.2"/><path class="cls-8" d="M246,421.6s18.9,15.7,26.9,38.9l28.5-17.2s-.4-45,.1-42.5C301.6,401.6,246,421.6,246,421.6Z"/></g></g></svg>