<svg id="SB39_Interactive_Icon_14_F1" xmlns="http://www.w3.org/2000/svg" xmlns:xlink="http://www.w3.org/1999/xlink" viewBox="0 0 443.8 451.5"><defs><style>.cls-1,.cls-8,.cls-9{fill:none;}.cls-2{opacity:0.5;}.cls-3{fill:url(#linear-gradient);}.cls-4{fill:#31d0e5;stroke-width:6px;stroke:url(#linear-gradient-2);}.cls-4,.cls-6,.cls-8,.cls-9{stroke-miterlimit:10;}.cls-5{clip-path:url(#clip-path);}.cls-6{fill:#fff;}.cls-6,.cls-9{stroke:#afafaf;}.cls-7{fill:#d8d8d8;}.cls-8{stroke:#d8d8d8;}.cls-10{fill:#afafaf;}</style><linearGradient id="linear-gradient" x1="43.17" y1="103.28" x2="392.43" y2="342.6" gradientUnits="userSpaceOnUse"><stop offset="0" stop-color="#9b81cf"/><stop offset="1" stop-color="#3b139b"/></linearGradient><linearGradient id="linear-gradient-2" x1="16.1" y1="225.74" x2="427.68" y2="225.74" gradientUnits="userSpaceOnUse"><stop offset="0" stop-color="#4c1da9"/><stop offset="1" stop-color="#997ece"/></linearGradient><clipPath id="clip-path"><ellipse class="cls-1" cx="223" cy="223.9" rx="202.8" ry="201.3" transform="translate(-71.8 109.9) rotate(-24)"/></clipPath></defs><g id="Layer_1" data-name="Layer 1"><path class="cls-2" d="M435.1,237a208.3,208.3,0,0,0-25.4-100A211.6,211.6,0,0,0,221.9,23C105,23,10.2,117.8,10.2,234.7S105,446.3,221.9,446.3c3,0,5.9,0,8.9-.2C344.1,443.6,435.1,350.9,435.1,237Z"/><circle class="cls-3" cx="221.9" cy="225.7" r="211.7"/><circle class="cls-4" cx="221.9" cy="225.7" r="202.8"/></g><g id="_006" data-name="006"><g class="cls-5"><path class="cls-6" d="M71.2,223.4l5.2,128.9s7.8,34.2,103,36.6L370,333.3,302.9,224.4l-35,80.3C264.4,305.3,246.4,319.8,71.2,223.4Z"/><path class="cls-7" d="M179.8,387.9l189.3-55.1L302.8,225.9,268.6,305S254.3,337.3,179.8,387.9Z"/><line class="cls-8" x1="89" y1="249.9" x2="94.9" y2="356.4"/><line class="cls-8" x1="103.4" y1="255.3" x2="109.5" y2="364.4"/><line class="cls-8" x1="117.4" y1="263.5" x2="123.3" y2="368.9"/><line class="cls-8" x1="144.1" y1="275.6" x2="149.5" y2="372.7"/><line class="cls-8" x1="158.3" y1="280.2" x2="162" y2="375.3"/><line class="cls-8" x1="130.3" y1="268.7" x2="136" y2="372.1"/><line class="cls-8" x1="171.7" y1="286.6" x2="176.9" y2="379.2"/><line class="cls-8" x1="186.2" y1="292" x2="191.1" y2="380.6"/><line class="cls-8" x1="200.2" y1="300.2" x2="204.2" y2="373.7"/><line class="cls-8" x1="226.8" y1="312.3" x2="229.8" y2="365.8"/><line class="cls-8" x1="241" y1="316.9" x2="245" y2="362"/><line class="cls-8" x1="252.7" y1="315.4" x2="256.7" y2="360.6"/><line class="cls-8" x1="213" y1="305.4" x2="216.5" y2="369"/><path class="cls-9" d="M302.7,258.4s45.3,66.7,54.2,77.8"/><path class="cls-9" d="M298.4,269.6s39.4,58.8,48.3,69.9"/><path class="cls-9" d="M292.7,281.7s34.5,48,43.4,59.2"/><path class="cls-9" d="M286.6,298.8s-9.5,22.7-29.2,37.2l24.7,22.1s43-13.6,40.7-12.4C322.1,346.1,286.6,298.8,286.6,298.8Z"/><path class="cls-9" d="M248.8,344.6s17,14.7,18.6,15.7"/><path class="cls-9" d="M241.2,353.1s12.5,10.6,14.1,11.7"/><path class="cls-10" d="M1.6,344.4a173.4,173.4,0,0,0,13.2,13.9c4.7,4.4,9.5,8.6,14.5,12.6a237.2,237.2,0,0,0,31.6,21.9,256.2,256.2,0,0,0,34.5,16.9,235.1,235.1,0,0,0,36.7,11.1c6.2,1.5,12.5,2.5,18.9,3.5s12.7,1.6,19.1,1.9,12.8.4,19.2.5l4.8-.2,4.8-.2,4.8-.2,2.4-.2,2.4-.3,9.5-1,4.8-.6,4.7-.8,4.8-.7,2.3-.4,2.4-.5,9.4-2,4.7-1.1,4.6-1.2,9.3-2.5,4.6-1.4,4.6-1.5,9.1-2.9-9.1,3.1-4.5,1.5-4.6,1.5-9.3,2.6-4.6,1.3-4.7,1-9.4,2.1-2.4.5-2.3.4-4.8.8-4.7.8-4.8.7-9.6,1-2.4.3-2.4.2-4.8.2-4.8.3c-1.6,0-3.2.2-4.8.1-6.4,0-12.9.1-19.3-.4s-12.8-1.1-19.2-1.8-12.7-1.9-18.9-3.4a224,224,0,0,1-36.8-11.4,258,258,0,0,1-34.6-17c-5.5-3.3-10.9-6.8-16.1-10.4l-7.8-5.7-3.8-3c-1.3-1-2.6-1.9-3.8-3-5-4.1-9.7-8.4-14.3-12.8A173.6,173.6,0,0,1,1.6,344.4Z"/><path class="cls-10" d="M55,179.2a135.3,135.3,0,0,0-6,13.5c-.9,2.3-1.7,4.6-2.5,6.9s-1.6,4.7-2.2,7.1a189,189,0,0,0-6.5,28.7A169,169,0,0,0,39,293.9,149.6,149.6,0,0,0,47.5,322l2.9,6.8,3.4,6.5,1.7,3.3,1.9,3.1,1.9,3.2a27,27,0,0,0,2,3.1c2.8,4,5.4,8.2,8.6,11.9,1.5,1.9,3,3.9,4.6,5.8l5,5.4,2.4,2.8,2.7,2.5,5.2,5.2,1.4,1.3,1.4,1.2,2.7,2.4,5.6,4.8-5.6-4.7-2.9-2.4L91,383l-1.3-1.2-5.4-5.1-2.7-2.5-2.5-2.7-5-5.5c-1.6-1.8-3.1-3.8-4.7-5.7-3.2-3.7-5.9-7.9-8.8-11.9l-2-3.1-1.9-3.1L54.8,339c-.7-1.1-1.2-2.2-1.8-3.3l-3.4-6.5-2.9-6.8A147,147,0,0,1,38,294.1a170.8,170.8,0,0,1-1-58.8,215.3,215.3,0,0,1,6.8-28.8c.7-2.3,1.6-4.6,2.4-7s1.7-4.6,2.6-6.9C50.7,188.1,52.7,183.6,55,179.2Z"/></g></g></svg>