<svg id="SB39_Interactive_Icon_14_F1" xmlns="http://www.w3.org/2000/svg" xmlns:xlink="http://www.w3.org/1999/xlink" viewBox="0 0 443.8 451.5"><defs><style>.cls-1,.cls-8,.cls-9{fill:none;}.cls-2{opacity:0.5;}.cls-3{fill:url(#linear-gradient);}.cls-4{fill:#31d0e5;stroke-width:6px;stroke:url(#linear-gradient-2);}.cls-4,.cls-6,.cls-8,.cls-9{stroke-miterlimit:10;}.cls-5{clip-path:url(#clip-path);}.cls-6{fill:#fff;}.cls-6,.cls-9{stroke:#afafaf;}.cls-7{fill:#d8d8d8;}.cls-8{stroke:#d8d8d8;}.cls-10{fill:#afafaf;}</style><linearGradient id="linear-gradient" x1="43.17" y1="103.28" x2="392.43" y2="342.6" gradientUnits="userSpaceOnUse"><stop offset="0" stop-color="#9b81cf"/><stop offset="1" stop-color="#3b139b"/></linearGradient><linearGradient id="linear-gradient-2" x1="16.1" y1="225.74" x2="427.68" y2="225.74" gradientUnits="userSpaceOnUse"><stop offset="0" stop-color="#4c1da9"/><stop offset="1" stop-color="#997ece"/></linearGradient><clipPath id="clip-path"><circle class="cls-1" cx="208.3" cy="199.6" r="202.8"/></clipPath></defs><g id="Layer_1" data-name="Layer 1"><path class="cls-2" d="M435.1,237a208.3,208.3,0,0,0-25.4-100A211.6,211.6,0,0,0,221.9,23C105,23,10.2,117.8,10.2,234.7S105,446.3,221.9,446.3c3,0,5.9,0,8.9-.2C344.1,443.6,435.1,350.9,435.1,237Z"/><circle class="cls-3" cx="221.9" cy="225.7" r="211.7"/><circle class="cls-4" cx="221.9" cy="225.7" r="202.8"/></g><g id="_003" data-name="003"><g class="cls-5"><path class="cls-6" d="M91.2,171.4l22.5,127.1s12.2,32.8,107,22.5l181.4-80.7L321,141.4l-24,84.3C293.7,226.7,277.7,243.5,91.2,171.4Z"/><path class="cls-7" d="M220.9,319.9,401.1,240,321,143l-23.2,82.9S287.9,259.8,220.9,319.9Z"/><line class="cls-8" x1="112.4" y1="195.4" x2="132.5" y2="300.1"/><line class="cls-8" x1="127.5" y1="198.8" x2="148.1" y2="306.1"/><line class="cls-8" x1="142.4" y1="205" x2="162.3" y2="308.7"/><line class="cls-8" x1="170.4" y1="213.4" x2="188.8" y2="308.9"/><line class="cls-8" x1="185.1" y1="216.1" x2="201.6" y2="309.9"/><line class="cls-8" x1="155.8" y1="208.5" x2="175.4" y2="310.2"/><line class="cls-8" x1="199.3" y1="220.7" x2="216.8" y2="311.7"/><line class="cls-8" x1="214.4" y1="224.1" x2="231.1" y2="311.2"/><line class="cls-8" x1="229.3" y1="230.3" x2="243.2" y2="302.6"/><line class="cls-8" x1="257.4" y1="238.7" x2="267.5" y2="291.4"/><line class="cls-8" x1="272.1" y1="241.4" x2="282.1" y2="285.6"/><line class="cls-8" x1="283.5" y1="238.4" x2="293.5" y2="282.6"/><line class="cls-8" x1="242.8" y1="233.8" x2="254.8" y2="296.3"/><path class="cls-9" d="M325.4,175.2s53.7,59.9,64.1,69.8"/><path class="cls-9" d="M322.6,186.8s46.9,53,57.2,62.8"/><path class="cls-9" d="M318.6,199.6s40.6,42.9,50.9,52.8"/><path class="cls-9" d="M314.8,217.3s-6.4,23.8-24,40.8l27.5,18.6S359,257.5,356.9,259C356.3,259.5,314.8,217.3,314.8,217.3Z"/><path class="cls-9" d="M283.5,267.8S302.3,280,304,280.9"/><path class="cls-9" d="M277.1,277.2s13.8,8.8,15.5,9.7"/><path class="cls-10" d="M38.5,300.7a175.1,175.1,0,0,0,15,12c5.2,3.7,10.5,7.3,16,10.6a255.4,255.4,0,0,0,70.7,29.5A231,231,0,0,0,178,359c6.4.6,12.8.7,19.2.9s12.8-.1,19.2-.7,12.7-1.3,19.1-2.1l4.7-.8,4.7-.9,4.8-.8,2.3-.5,2.4-.6,9.3-2.3a34.7,34.7,0,0,0,4.6-1.3l4.6-1.4,4.6-1.3,2.3-.7,2.3-.8,9-3.3c1.5-.5,3.1-1,4.5-1.6l4.5-1.9,8.9-3.7,4.3-2,4.4-2.1,8.6-4.2-8.6,4.3-4.3,2.2-4.3,2-8.9,3.8-4.4,2-4.5,1.7-9,3.3-2.3.8-2.3.7-4.6,1.4-4.6,1.4a46.1,46.1,0,0,1-4.6,1.3l-9.4,2.3-2.3.6-2.4.5-4.7.9-4.8.9a35.5,35.5,0,0,1-4.7.8c-6.4.9-12.7,1.9-19.1,2.2s-12.9.7-19.3.8-12.9-.2-19.3-.8a247.9,247.9,0,0,1-74.4-18.6c-6-2.5-11.8-5.3-17.5-8.2l-8.5-4.6-4.1-2.4c-1.4-.8-2.8-1.6-4.1-2.5-5.5-3.4-10.8-7-16-10.8A171.1,171.1,0,0,1,38.5,300.7Z"/><path class="cls-10" d="M69.2,129.9a141,141,0,0,0-4,14.1c-.6,2.4-1.1,4.8-1.6,7.2s-.9,4.9-1.3,7.3a221.5,221.5,0,0,0-2.6,29.3,174.9,174.9,0,0,0,9,57.9A153.7,153.7,0,0,0,81,272.4l3.8,6.3,4.2,6c.7,1,1.4,2.1,2.1,3l2.3,2.9,2.3,2.9c.8.9,1.5,1.9,2.4,2.8,3.3,3.6,6.5,7.3,10.1,10.6l5.4,5.1,5.6,4.8,2.8,2.3,3,2.2,5.9,4.4,1.5,1.1,1.5,1,3.1,2.1,6.2,4L137,330l-3.2-2-1.5-1-1.5-1.1-6-4.3-3-2.1-2.9-2.4-5.7-4.7-5.4-5c-3.7-3.3-6.9-7-10.3-10.6-.9-.9-1.6-1.9-2.4-2.8l-2.3-2.9-2.3-2.9a33,33,0,0,1-2.2-3l-4.2-6-3.9-6.3A156,156,0,0,1,67.8,246,171.8,171.8,0,0,1,59,187.8a207.5,207.5,0,0,1,2.8-29.4c.4-2.4,1-4.8,1.4-7.2s1.1-4.8,1.7-7.2C66.2,139.2,67.5,134.5,69.2,129.9Z"/></g></g></svg>