<svg id="SB39_Interactive_Icon_14_F1" xmlns="http://www.w3.org/2000/svg" xmlns:xlink="http://www.w3.org/1999/xlink" viewBox="0 0 443.8 451.5"><defs><style>.cls-1,.cls-8,.cls-9{fill:none;}.cls-2{opacity:0.5;}.cls-3{fill:url(#linear-gradient);}.cls-4{fill:#31d0e5;stroke-width:6px;stroke:url(#linear-gradient-2);}.cls-4,.cls-6,.cls-8,.cls-9{stroke-miterlimit:10;}.cls-5{clip-path:url(#clip-path);}.cls-6{fill:#fff;}.cls-6,.cls-9{stroke:#afafaf;}.cls-7{fill:#d8d8d8;}.cls-8{stroke:#d8d8d8;}.cls-10{fill:#afafaf;}</style><linearGradient id="linear-gradient" x1="43.17" y1="103.28" x2="392.43" y2="342.6" gradientUnits="userSpaceOnUse"><stop offset="0" stop-color="#9b81cf"/><stop offset="1" stop-color="#3b139b"/></linearGradient><linearGradient id="linear-gradient-2" x1="16.1" y1="225.74" x2="427.68" y2="225.74" gradientUnits="userSpaceOnUse"><stop offset="0" stop-color="#4c1da9"/><stop offset="1" stop-color="#997ece"/></linearGradient><clipPath id="clip-path"><path class="cls-1" d="M74.7,361.5C2.1,279.9,9.9,154.1,92.1,80.5S299.9,13.4,372.6,95s64.8,207.3-17.4,281C276.8,446.3,147.4,443.1,74.7,361.5Z"/></clipPath></defs><g id="Layer_1" data-name="Layer 1"><path class="cls-2" d="M435.1,237a208.3,208.3,0,0,0-25.4-100A211.6,211.6,0,0,0,221.9,23C105,23,10.2,117.8,10.2,234.7S105,446.3,221.9,446.3c3,0,5.9,0,8.9-.2C344.1,443.6,435.1,350.9,435.1,237Z"/><circle class="cls-3" cx="221.9" cy="225.7" r="211.7"/><circle class="cls-4" cx="221.9" cy="225.7" r="202.8"/></g><g id="_010" data-name="010"><g class="cls-5"><path class="cls-6" d="M89,530.8l113.9,60.6S236.3,602,286.5,521l48.4-192.5L207,331.4l51.6,70.7C257.3,405.4,260.7,428.3,89,530.8Z"/><path class="cls-7" d="M285.8,520.2,334,329l-125.8,3.3,51,69.4S279.8,430.3,285.8,520.2Z"/><line class="cls-8" x1="244.4" y1="441.4" x2="292.1" y2="465.9"/><line class="cls-8" x1="255.5" y1="431.5" x2="296.5" y2="450.8"/><line class="cls-8" x1="260.2" y1="420.6" x2="301.2" y2="440"/><line class="cls-8" x1="231.5" y1="449.9" x2="288.2" y2="479"/><path class="cls-9" d="M236.3,348.7s80.3-5.4,94.5-7.4"/><path class="cls-9" d="M243.7,358s70.6-4.2,84.8-6.3"/><path class="cls-9" d="M251.3,369.1s58.8-5.5,73-7.6"/><path class="cls-9" d="M262.9,383s14.8,19.7,17.3,44l31.7-10.1s9.9-44,9.8-41.4C321.7,376.3,262.9,383,262.9,383Z"/><path class="cls-9" d="M283.4,438.8s21.2-7.3,23-8.1"/><path class="cls-9" d="M286.9,449.6s15.4-5.4,17.2-6.2"/><path class="cls-10" d="M158.3,652a174.8,174.8,0,0,0,18.7-4.4c6.1-1.8,12.2-3.8,18.2-6.1A261.8,261.8,0,0,0,230,625.3,254.1,254.1,0,0,0,262,604a231.1,231.1,0,0,0,28.2-26c4.4-4.6,8.4-9.6,12.5-14.5s7.9-10.2,11.3-15.6,6.8-10.8,10.1-16.3a34.2,34.2,0,0,0,2.3-4.2l2.2-4.3,2.3-4.2a14.7,14.7,0,0,0,1-2.2l1-2.2,4-8.7c.7-1.5,1.2-3,1.8-4.5l1.8-4.4,1.7-4.5.9-2.2.7-2.3,3.1-9.2c.4-1.5,1-3,1.4-4.5l1.3-4.7,2.6-9.2c.4-1.6.7-3.1,1.1-4.7l1-4.7,2.1-9.4-2,9.4-.9,4.7c-.4,1.6-.7,3.2-1.1,4.7l-2.4,9.3-1.2,4.7-1.5,4.6-2.9,9.2-.8,2.2-.9,2.3-1.7,4.5-1.7,4.5c-.6,1.5-1.1,3-1.8,4.4l-4,8.8-1,2.2a14.7,14.7,0,0,1-1,2.2l-2.2,4.3-2.2,4.2-2.3,4.3c-3.3,5.5-6.4,11.1-10.1,16.4s-7.4,10.5-11.2,15.7-8.1,10-12.6,14.6a232.9,232.9,0,0,1-28.4,26,244,244,0,0,1-32.1,21.2c-5.6,3.1-11.4,6-17.2,8.7l-8.8,3.8-4.5,1.8-4.5,1.7c-6,2.3-12.2,4.2-18.4,5.9A168.6,168.6,0,0,1,158.3,652Z"/></g></g></svg>