<svg id="SB39_Interactive_Icon_14_F1" xmlns="http://www.w3.org/2000/svg" xmlns:xlink="http://www.w3.org/1999/xlink" viewBox="0 0 443.8 451.5"><defs><style>.cls-1,.cls-7{fill:none;}.cls-2{opacity:0.5;}.cls-3{fill:url(#linear-gradient);}.cls-4{fill:#31d0e5;stroke-width:6px;stroke:url(#linear-gradient-2);}.cls-4,.cls-6,.cls-7{stroke-miterlimit:10;}.cls-5{clip-path:url(#clip-path);}.cls-6{fill:#fff;stroke:#afafaf;}.cls-7{stroke:#d8d8d8;}.cls-8{fill:#afafaf;}</style><linearGradient id="linear-gradient" x1="43.17" y1="103.28" x2="392.43" y2="342.6" gradientUnits="userSpaceOnUse"><stop offset="0" stop-color="#9b81cf"/><stop offset="1" stop-color="#3b139b"/></linearGradient><linearGradient id="linear-gradient-2" x1="16.1" y1="225.74" x2="427.68" y2="225.74" gradientUnits="userSpaceOnUse"><stop offset="0" stop-color="#4c1da9"/><stop offset="1" stop-color="#997ece"/></linearGradient><clipPath id="clip-path"><path class="cls-1" d="M70.6,360.8C-4,277.2,3.3,151,86.9,76.5S298.6,9.2,373.2,92.7,440.5,302.5,356.9,377,145.2,444.3,70.6,360.8Z"/></clipPath></defs><g id="Layer_1" data-name="Layer 1"><path class="cls-2" d="M435.1,237a208.3,208.3,0,0,0-25.4-100A211.6,211.6,0,0,0,221.9,23C105,23,10.2,117.8,10.2,234.7S105,446.3,221.9,446.3c3,0,5.9,0,8.9-.2C344.1,443.6,435.1,350.9,435.1,237Z"/><circle class="cls-3" cx="221.9" cy="225.7" r="211.7"/><circle class="cls-4" cx="221.9" cy="225.7" r="202.8"/></g><g id="_014" data-name="014"><g class="cls-5"><path class="cls-6" d="M102.2,41.5,226.9,74.3s35,2.7,65.3-87.7L295-211.9,171.2-179.7l66.5,57.1C237.2-119.2,245.8-97.7,102.2,41.5Z"/><line class="cls-7" x1="132.8" y1="32.3" x2="236.3" y2="57.9"/><line class="cls-7" x1="142.2" y1="20.1" x2="248.3" y2="46.3"/><line class="cls-7" x1="154.1" y1="9.1" x2="256.6" y2="34.5"/><line class="cls-7" x1="173.5" y1="-12.8" x2="267.9" y2="10.5"/><line class="cls-7" x1="162.9" y1="-1.6" x2="263.4" y2="23.2"/><path class="cls-8" d="M197.4,143.5a161.5,161.5,0,0,0,17.2-8.5c5.6-3.2,11.1-6.5,16.4-10.2a255.1,255.1,0,0,0,30.1-23.7,248.4,248.4,0,0,0,26.3-28,242.3,242.3,0,0,0,21.4-31.8c3.3-5.5,6-11.3,8.9-17.1s5.3-11.6,7.4-17.7,4.2-12.1,6.1-18.2c.5-1.5.8-3.1,1.3-4.6l1.2-4.7,1.1-4.6a21,21,0,0,0,.6-2.4l.4-2.3,1.9-9.5c.3-1.5.5-3.1.8-4.7l.6-4.8.7-4.7.3-2.4.2-2.4.9-9.6c.1-1.6.3-3.2.4-4.8l.2-4.8.3-9.6c.1-1.6,0-3.2,0-4.8v-14.4l.3,9.6v4.8c0,1.6.1,3.2,0,4.8l-.2,9.7v4.8l-.3,4.8-.8,9.6-.2,2.4-.3,2.3-.7,4.8-.7,4.8a39.7,39.7,0,0,1-.7,4.8l-1.8,9.4-.5,2.4a18.9,18.9,0,0,1-.5,2.3l-1.2,4.7-1.1,4.7c-.5,1.5-.8,3.1-1.3,4.6-1.9,6.2-3.6,12.3-6,18.3s-4.8,11.9-7.4,17.8-5.5,11.6-8.8,17.2A244.4,244.4,0,0,1,288,73.6a258.8,258.8,0,0,1-26.4,28c-4.8,4.3-9.7,8.4-14.7,12.4l-7.7,5.8-4,2.7a35.1,35.1,0,0,1-4,2.7c-5.3,3.6-10.9,6.9-16.5,10A152.8,152.8,0,0,1,197.4,143.5Z"/><path class="cls-8" d="M55.2,44a129.8,129.8,0,0,0,11.2,9.7l5.9,4.4c2,1.4,3.9,2.9,6,4.2a196.4,196.4,0,0,0,25.6,14.6A168.4,168.4,0,0,0,160.2,93a151,151,0,0,0,29.3.1l7.4-.8,7.2-1.3,3.6-.7,3.6-.9,3.6-.9c1.1-.3,2.4-.5,3.5-.9a134.1,134.1,0,0,0,13.9-4.8c2.3-.9,4.6-1.7,6.9-2.7l6.6-3.1,3.4-1.6,3.2-1.7,6.5-3.6a12.9,12.9,0,0,0,1.6-.9l1.6-.9,3.1-2,6.3-3.9-6.2,4-3.1,2-1.6,1a8.3,8.3,0,0,1-1.6.9L252.6,74l-3.2,1.8-3.3,1.6-6.7,3.2-6.8,2.8a145.3,145.3,0,0,1-14,4.9l-3.5,1-3.6.9-3.6.9-3.6.7L197,93.2l-7.4.8a153,153,0,0,1-29.5,0,166.9,166.9,0,0,1-56.6-16.4A204.3,204.3,0,0,1,78,62.7c-2-1.3-4-2.8-6-4.3l-5.8-4.5A146.7,146.7,0,0,1,55.2,44Z"/></g></g></svg>