<svg id="SB39_Interactive_Icon_14_F1" xmlns="http://www.w3.org/2000/svg" xmlns:xlink="http://www.w3.org/1999/xlink" viewBox="0 0 443.8 451.5"><defs><style>.cls-1,.cls-8,.cls-9{fill:none;}.cls-2{opacity:0.5;}.cls-3{fill:url(#linear-gradient);}.cls-4{fill:#31d0e5;stroke-width:6px;stroke:url(#linear-gradient-2);}.cls-4,.cls-6,.cls-8,.cls-9{stroke-miterlimit:10;}.cls-5{clip-path:url(#clip-path);}.cls-6{fill:#fff;}.cls-6,.cls-9{stroke:#afafaf;}.cls-7{fill:#d8d8d8;}.cls-8{stroke:#d8d8d8;}.cls-10{fill:#afafaf;}</style><linearGradient id="linear-gradient" x1="43.17" y1="103.28" x2="392.43" y2="342.6" gradientUnits="userSpaceOnUse"><stop offset="0" stop-color="#9b81cf"/><stop offset="1" stop-color="#3b139b"/></linearGradient><linearGradient id="linear-gradient-2" x1="16.1" y1="225.74" x2="427.68" y2="225.74" gradientUnits="userSpaceOnUse"><stop offset="0" stop-color="#4c1da9"/><stop offset="1" stop-color="#997ece"/></linearGradient><clipPath id="clip-path"><circle class="cls-1" cx="222.7" cy="202.8" r="202.8"/></clipPath></defs><g id="Layer_1" data-name="Layer 1"><path class="cls-2" d="M435.1,237a208.3,208.3,0,0,0-25.4-100A211.6,211.6,0,0,0,221.9,23C105,23,10.2,117.8,10.2,234.7S105,446.3,221.9,446.3c3,0,5.9,0,8.9-.2C344.1,443.6,435.1,350.9,435.1,237Z"/><circle class="cls-3" cx="221.9" cy="225.7" r="211.7"/><circle class="cls-4" cx="221.9" cy="225.7" r="202.8"/></g><g id="_004" data-name="004"><g class="cls-5"><path class="cls-6" d="M95.4,168.6,65.1,294s-1.9,35,89.1,63.4l198.5-1.2L318,233.1l-55.7,67.6C258.8,300.3,237.5,309.3,95.4,168.6Z"/><path class="cls-7" d="M154.8,356.5l197.1-1-34.5-121-54.5,66.7S240.3,328.3,154.8,356.5Z"/><line class="cls-8" x1="105.2" y1="199" x2="81.7" y2="303"/><line class="cls-8" x1="117.7" y1="208.1" x2="93.6" y2="314.7"/><line class="cls-8" x1="128.9" y1="219.8" x2="105.6" y2="322.8"/><line class="cls-8" x1="151.2" y1="238.7" x2="129.8" y2="333.6"/><line class="cls-8" x1="163.6" y1="247.1" x2="141.1" y2="339.6"/><line class="cls-8" x1="139.8" y1="228.4" x2="117" y2="329.4"/><line class="cls-8" x1="174.8" y1="257" x2="154.3" y2="347.4"/><line class="cls-8" x1="187.2" y1="266.1" x2="167.6" y2="352.7"/><line class="cls-8" x1="198.4" y1="277.8" x2="182.2" y2="349.6"/><line class="cls-8" x1="220.7" y1="296.8" x2="208.9" y2="349.1"/><line class="cls-8" x1="233.1" y1="305.1" x2="224.6" y2="349.6"/><line class="cls-8" x1="244.8" y1="306.9" x2="236.3" y2="351.4"/><line class="cls-8" x1="209.3" y1="286.4" x2="195.3" y2="348.5"/><path class="cls-9" d="M308.5,265.8s25.2,76.5,30.8,89.7"/><path class="cls-9" d="M301.3,275.3s21.7,67.3,27.2,80.5"/><path class="cls-9" d="M292.5,285.4S312.4,341,318,354.2"/><path class="cls-9" d="M281.9,300.2s-15.4,19.2-38.3,27.7L261.3,356s45-1.3,42.5-.8C303,355.4,281.9,300.2,281.9,300.2Z"/><path class="cls-9" d="M233,333.9s12.3,18.7,13.5,20.2"/><path class="cls-9" d="M223.4,339.9s9,13.6,10.3,15.1"/><path class="cls-10" d="M-4.7,265.8a164.1,164.1,0,0,0,9,17.1c3.2,5.5,6.7,10.9,10.4,16.1a257.5,257.5,0,0,0,52.9,55.4,237,237,0,0,0,32.3,20.8c5.5,3.1,11.4,5.7,17.1,8.5s11.8,5,17.9,7,12.2,3.9,18.3,5.8c1.6.5,3.1.7,4.7,1.1l4.7,1.1,4.7,1.1,2.3.5,2.4.4,9.4,1.7,4.8.7,4.8.5,4.7.6,2.4.3,2.4.2,9.6.6,4.8.3h14.4a38.5,38.5,0,0,0,4.8-.1h4.8l9.7-.4-9.6.5-4.9.2-4.8.2H214.9l-4.8-.2-9.6-.6-2.4-.2-2.4-.2-4.8-.6-4.8-.6c-1.6-.2-3.2-.3-4.8-.6l-9.4-1.6-2.4-.4-2.4-.5-4.7-1.1-4.7-1.1a45.2,45.2,0,0,1-4.7-1.1c-6.1-1.8-12.3-3.4-18.4-5.7s-12-4.5-17.9-7S105,379.2,99.4,376a229.1,229.1,0,0,1-32.3-21,258.2,258.2,0,0,1-28.5-25.8c-4.5-4.7-8.7-9.5-12.7-14.5-2.1-2.5-4-5.1-6-7.6l-2.8-3.9-2.8-3.9C10.6,294,7.3,288.5,4,283S-2.1,271.7-4.7,265.8Z"/><path class="cls-10" d="M91.9,121.7c-3.3,3.6-6.4,7.4-9.4,11.3l-4.3,6c-1.4,2-2.8,4-4.1,6.1A209,209,0,0,0,60,171a171.2,171.2,0,0,0-14.9,56.6,160.5,160.5,0,0,0,.5,29.4l1,7.3,1.4,7.2c.3,1.2.4,2.4.8,3.6l.9,3.5,1,3.6a35.7,35.7,0,0,0,1,3.5c1.6,4.6,3,9.4,5,13.8,1,2.3,1.9,4.6,2.9,6.8l3.3,6.6,1.6,3.3,1.8,3.2,3.7,6.4.9,1.6,1,1.6,2,3.1,4.1,6.1-4.2-6.1-2-3-1.1-1.6-.9-1.5L66,319.6l-1.9-3.2-1.7-3.3-3.3-6.5c-1.1-2.3-2-4.6-2.9-6.8A136.5,136.5,0,0,1,51,285.9a35.8,35.8,0,0,1-1.1-3.5l-1-3.6-1-3.5c-.3-1.2-.5-2.4-.7-3.6l-1.5-7.3-1-7.3a154,154,0,0,1-.6-29.6,169.7,169.7,0,0,1,15.2-56.8,202.7,202.7,0,0,1,14.4-25.8c1.3-2.1,2.8-4.1,4.2-6.1s2.9-4,4.4-5.9C85.4,129,88.5,125.2,91.9,121.7Z"/></g></g></svg>