<svg id="SB39_Interactive_Icon_14_F1" xmlns="http://www.w3.org/2000/svg" xmlns:xlink="http://www.w3.org/1999/xlink" viewBox="0 0 443.8 451.5"><defs><style>.cls-1,.cls-8,.cls-9{fill:none;}.cls-2{opacity:0.5;}.cls-3{fill:url(#linear-gradient);}.cls-4{fill:#31d0e5;stroke-width:6px;stroke:url(#linear-gradient-2);}.cls-4,.cls-6,.cls-8,.cls-9{stroke-miterlimit:10;}.cls-5{clip-path:url(#clip-path);}.cls-6{fill:#fff;}.cls-6,.cls-9{stroke:#afafaf;}.cls-7{fill:#d8d8d8;}.cls-8{stroke:#d8d8d8;}.cls-10{fill:#afafaf;}</style><linearGradient id="linear-gradient" x1="43.17" y1="103.28" x2="392.43" y2="342.6" gradientUnits="userSpaceOnUse"><stop offset="0" stop-color="#9b81cf"/><stop offset="1" stop-color="#3b139b"/></linearGradient><linearGradient id="linear-gradient-2" x1="16.1" y1="225.74" x2="427.68" y2="225.74" gradientUnits="userSpaceOnUse"><stop offset="0" stop-color="#4c1da9"/><stop offset="1" stop-color="#997ece"/></linearGradient><clipPath id="clip-path"><circle class="cls-1" cx="221.9" cy="225.7" r="202.8"/></clipPath></defs><g id="Layer_1" data-name="Layer 1"><path class="cls-2" d="M435.1,237a208.3,208.3,0,0,0-25.4-100A211.6,211.6,0,0,0,221.9,23C105,23,10.2,117.8,10.2,234.7S105,446.3,221.9,446.3c3,0,5.9,0,8.9-.2C344.1,443.6,435.1,350.9,435.1,237Z"/><circle class="cls-3" cx="221.9" cy="225.7" r="211.7"/><circle class="cls-4" cx="221.9" cy="225.7" r="202.8"/></g><g id="_002" data-name="002"><g class="cls-5"><path class="cls-6" d="M87.9,195l60.2,114.1s21.7,27.5,108.7-11.3L404.9,165.6,297.4,96.2l3,87.6C297.5,185.8,287.5,206.6,87.9,195Z"/><path class="cls-7" d="M256.7,296.8,403.9,165.6,298,97.7l3.1,86S302.2,219,256.7,296.8Z"/><line class="cls-8" x1="115.3" y1="211.3" x2="166.5" y2="304.9"/><line class="cls-8" x1="130.7" y1="210" x2="183.1" y2="305.9"/><line class="cls-8" x1="146.8" y1="211.3" x2="197.5" y2="304"/><line class="cls-8" x1="176.1" y1="210.8" x2="222.8" y2="296.1"/><line class="cls-8" x1="190.9" y1="208.8" x2="235.2" y2="293.1"/><line class="cls-8" x1="160.7" y1="210.5" x2="210.4" y2="301.4"/><line class="cls-8" x1="205.8" y1="208.9" x2="250.3" y2="290.2"/><line class="cls-8" x1="221.2" y1="207.5" x2="263.8" y2="285.4"/><line class="cls-8" x1="237.3" y1="208.9" x2="272.7" y2="273.4"/><line class="cls-8" x1="266.6" y1="208.3" x2="292.3" y2="255.4"/><line class="cls-8" x1="281.4" y1="206.3" x2="304.4" y2="245.4"/><line class="cls-8" x1="291.4" y1="200" x2="314.4" y2="239"/><line class="cls-8" x1="251.2" y1="208.1" x2="281.8" y2="264"/><path class="cls-9" d="M311.9,127s69.6,40.7,82.5,46.9"/><path class="cls-9" d="M312.8,138.9s60.9,36.1,73.7,42.4"/><path class="cls-9" d="M312.9,152.3s51.8,28.5,64.7,34.8"/><path class="cls-9" d="M314.7,170.4s1.2,24.5-10.3,46.1l31.8,9.4s32.9-30.8,31.4-28.7S314.7,170.4,314.7,170.4Z"/><path class="cls-9" d="M300.4,228s21.6,5.9,23.5,6.2"/><path class="cls-9" d="M297.2,238.9s15.8,4.2,17.7,4.5"/><path class="cls-10" d="M77.1,334.2a170.9,170.9,0,0,0,18,6.9c6.1,1.9,12.2,3.7,18.5,5.1a241.6,241.6,0,0,0,37.9,6.2,259.1,259.1,0,0,0,38.4.4,229.8,229.8,0,0,0,37.9-5.8c6.3-1.3,12.4-3.2,18.6-4.9s12.1-4,18-6.6,11.7-5.1,17.6-7.8c1.4-.6,2.8-1.5,4.2-2.2l4.3-2.3,4.2-2.2,2.1-1.2,2-1.3,8.2-5c1.4-.8,2.7-1.7,4-2.6l4-2.8,3.9-2.7,2-1.4,1.9-1.4,7.6-5.9,3.8-2.9,3.7-3.2,7.3-6.2c1.3-1,2.4-2.1,3.6-3.2l3.5-3.3,6.9-6.7-6.9,6.7-3.4,3.4c-1.2,1.1-2.3,2.3-3.5,3.3l-7.3,6.3-3.6,3.2-3.7,3-7.6,5.9-1.9,1.5-2,1.4-4,2.7-3.9,2.8-4,2.6-8.2,5.1-2.1,1.2-2.1,1.3-4.2,2.3-4.2,2.3-4.3,2.2c-5.8,2.7-11.6,5.6-17.6,7.9s-12,4.5-18.1,6.7-12.3,3.7-18.6,5a231.8,231.8,0,0,1-38.1,5.6,260.5,260.5,0,0,1-38.5-.5c-6.4-.6-12.7-1.4-19.1-2.5l-9.4-1.7-4.7-1.1-4.7-1.1c-6.3-1.5-12.4-3.4-18.5-5.4A185.1,185.1,0,0,1,77.1,334.2Z"/><path class="cls-10" d="M54.2,162.2a144.4,144.4,0,0,0,.5,14.7c.1,2.5.4,4.9.7,7.3s.6,4.9,1,7.3a200.1,200.1,0,0,0,6.5,28.8,171.3,171.3,0,0,0,26.2,52.3A151.6,151.6,0,0,0,109,294.3l5.5,4.8,5.9,4.5,2.9,2.2,3.1,2,3,2,3.1,2c4.3,2.4,8.5,5,13,7,2.2,1.1,4.4,2.3,6.6,3.2l6.8,2.8,3.4,1.4,3.5,1.2,7,2.4,1.7.6,1.8.5,3.6,1,7.1,1.9-7.2-1.8-3.5-.9-1.8-.5-1.8-.5-7-2.3-3.5-1.2-3.5-1.3-6.8-2.8c-2.3-.9-4.5-2-6.7-3.1-4.5-2-8.7-4.6-13.1-6.9l-3.1-2-3.1-2-3.1-2-3-2.2-5.8-4.5-5.6-4.8a166,166,0,0,1-20.1-21.8,170.9,170.9,0,0,1-26.1-52.7,191,191,0,0,1-6.3-28.9c-.4-2.4-.6-4.9-.9-7.3l-.6-7.4A144.2,144.2,0,0,1,54.2,162.2Z"/></g></g></svg>