<svg id="SB39_Interactive_Icon_14_F1" xmlns="http://www.w3.org/2000/svg" xmlns:xlink="http://www.w3.org/1999/xlink" viewBox="0 0 443.8 451.5"><defs><style>.cls-1,.cls-8,.cls-9{fill:none;}.cls-2{opacity:0.5;}.cls-3{fill:url(#linear-gradient);}.cls-4{fill:#31d0e5;stroke-width:6px;stroke:url(#linear-gradient-2);}.cls-4,.cls-6,.cls-8,.cls-9{stroke-miterlimit:10;}.cls-5{clip-path:url(#clip-path);}.cls-6{fill:#fff;}.cls-6,.cls-9{stroke:#afafaf;}.cls-7{fill:#d8d8d8;}.cls-8{stroke:#d8d8d8;}.cls-10{fill:#afafaf;}</style><linearGradient id="linear-gradient" x1="43.17" y1="103.28" x2="392.43" y2="342.6" gradientUnits="userSpaceOnUse"><stop offset="0" stop-color="#9b81cf"/><stop offset="1" stop-color="#3b139b"/></linearGradient><linearGradient id="linear-gradient-2" x1="16.1" y1="225.74" x2="427.68" y2="225.74" gradientUnits="userSpaceOnUse"><stop offset="0" stop-color="#4c1da9"/><stop offset="1" stop-color="#997ece"/></linearGradient><clipPath id="clip-path"><path class="cls-1" d="M70.6,360.8C-4,277.2,3.3,151,86.9,76.5A201.6,201.6,0,0,1,372.2,92.7c74.6,83.6,68.3,209.8-15.3,284.3S145.2,444.3,70.6,360.8Z"/></clipPath></defs><g id="Layer_1" data-name="Layer 1"><path class="cls-2" d="M435.1,237a208.3,208.3,0,0,0-25.4-100A211.6,211.6,0,0,0,221.9,23C105,23,10.2,117.8,10.2,234.7S105,446.3,221.9,446.3c3,0,5.9,0,8.9-.2C344.1,443.6,435.1,350.9,435.1,237Z"/><circle class="cls-3" cx="221.9" cy="225.7" r="211.7"/><circle class="cls-4" cx="221.9" cy="225.7" r="202.8"/></g><g id="_018" data-name="018"><g class="cls-5"><path class="cls-6" d="M65.4,216l97.4,84.7s30.2,17.8,97.3-49.8L350.4,74.1,225.2,48.2l34.4,80.6C257.6,131.7,255.8,154.8,65.4,216Z"/><path class="cls-7" d="M259.6,249.9,349.5,74.4l-123.3-25,34,79.1S273.9,161,259.6,249.9Z"/><line class="cls-8" x1="97" y1="221.3" x2="178.5" y2="290.1"/><line class="cls-8" x1="110.8" y1="214.5" x2="194.3" y2="285"/><line class="cls-8" x1="126.3" y1="209.9" x2="207" y2="278"/><line class="cls-8" x1="153.4" y1="198.8" x2="227.8" y2="261.6"/><line class="cls-8" x1="166.5" y1="191.7" x2="238.3" y2="254.2"/><line class="cls-8" x1="139" y1="204.2" x2="218.1" y2="271"/><line class="cls-8" x1="180.5" y1="186.3" x2="251.3" y2="246.1"/><line class="cls-8" x1="194.3" y1="179.5" x2="262.1" y2="236.7"/><line class="cls-8" x1="209.8" y1="174.9" x2="266.1" y2="222.4"/><line class="cls-8" x1="236.9" y1="163.8" x2="277.9" y2="198.4"/><line class="cls-8" x1="250" y1="156.7" x2="285.6" y2="184.7"/><line class="cls-8" x1="257" y1="147.1" x2="292.6" y2="175.2"/><line class="cls-8" x1="222.5" y1="169.2" x2="271.2" y2="210.3"/><path class="cls-9" d="M249.8,71.7s79.5,12.8,93.8,13.9"/><path class="cls-9" d="M255,82.4s69.7,11.8,84,12.9"/><path class="cls-9" d="M259.9,94.9s58.5,7.9,72.8,9"/><path class="cls-9" d="M268.1,111.1s10,22.5,7,46.8l33.1-2.8s19.6-40.6,18.9-38.1C326.9,117.8,268.1,111.1,268.1,111.1Z"/><path class="cls-9" d="M275.5,170.1s22.3-2.4,24.2-2.8"/><path class="cls-9" d="M276.5,181.4s16.2-1.8,18.1-2.3"/><path class="cls-10" d="M105.7,349.7a175.7,175.7,0,0,0,19.2-.1c6.4-.4,12.8-.9,19.2-1.8a252.8,252.8,0,0,0,37.5-8,255.5,255.5,0,0,0,36-13.5,239,239,0,0,0,33.3-19.1c5.3-3.5,10.4-7.4,15.5-11.3s9.9-8.1,14.4-12.6,9.1-9,13.6-13.6l3.1-3.6,3.2-3.7,3.1-3.6,1.5-1.9,1.5-1.9,5.8-7.7c1-1.2,1.9-2.6,2.8-3.9l2.7-3.9,2.7-4,1.4-2,1.2-2.1,5-8.2,2.5-4.1,2.2-4.2,4.6-8.5a34.2,34.2,0,0,0,2.1-4.3l2.1-4.3,4.1-8.7-4,8.7-2,4.4c-.7,1.4-1.3,2.9-2.1,4.3l-4.4,8.6-2.3,4.2c-.7,1.4-1.6,2.8-2.4,4.2l-4.9,8.2-1.3,2.1-1.3,2-2.7,4-2.7,4c-.9,1.3-1.8,2.7-2.8,3.9l-5.8,7.7-1.5,1.9a9,9,0,0,1-1.5,1.9l-3.1,3.7-3.1,3.6c-1.1,1.2-2,2.5-3.2,3.7-4.4,4.6-8.7,9.4-13.5,13.7s-9.6,8.5-14.5,12.7-10.1,7.9-15.5,11.5A234.3,234.3,0,0,1,217.9,327a244.5,244.5,0,0,1-36.1,13.4c-6.1,1.8-12.4,3.3-18.7,4.7l-9.4,1.8-4.8.7c-1.6.2-3.2.5-4.8.6-6.3.9-12.7,1.3-19.2,1.7A175.7,175.7,0,0,1,105.7,349.7Z"/><path class="cls-10" d="M22.2,197.6A114.3,114.3,0,0,0,28,211.1c1,2.3,2.1,4.4,3.3,6.6s2.3,4.4,3.5,6.5a200.8,200.8,0,0,0,16.5,24.4,169.5,169.5,0,0,0,43.4,39.3A157.3,157.3,0,0,0,121,301l6.9,2.5,7.1,2,3.5,1,3.6.8,3.6.8,3.6.7c4.9.7,9.7,1.6,14.6,1.9l7.3.6h11.1l3.7-.2,7.3-.3h1.9l1.8-.2,3.7-.4,7.3-.8-7.3.9-3.7.5-1.8.2h-1.8l-7.4.4-3.7.2H171.2l-7.4-.5c-4.9-.2-9.7-1.1-14.6-1.7l-3.7-.7-3.6-.8-3.6-.8c-1.2-.2-2.4-.6-3.6-.9l-7.1-2.1-6.9-2.5a155.9,155.9,0,0,1-26.6-13,171.2,171.2,0,0,1-43.4-39.7,191.6,191.6,0,0,1-16.3-24.7c-1.2-2.1-2.3-4.3-3.5-6.5s-2.2-4.4-3.2-6.7C25.7,206.8,23.8,202.2,22.2,197.6Z"/></g></g></svg>