<svg id="SB39_Interactive_Icon_14_F1" xmlns="http://www.w3.org/2000/svg" xmlns:xlink="http://www.w3.org/1999/xlink" viewBox="0 0 443.8 451.5"><defs><style>.cls-1,.cls-8,.cls-9{fill:none;}.cls-2{opacity:0.5;}.cls-3{fill:url(#linear-gradient);}.cls-4{fill:#31d0e5;stroke-width:6px;stroke:url(#linear-gradient-2);}.cls-4,.cls-6,.cls-8,.cls-9{stroke-miterlimit:10;}.cls-5{clip-path:url(#clip-path);}.cls-6{fill:#fff;}.cls-6,.cls-9{stroke:#afafaf;}.cls-7{fill:#d8d8d8;}.cls-8{stroke:#d8d8d8;}.cls-10{fill:#afafaf;}</style><linearGradient id="linear-gradient" x1="43.17" y1="103.28" x2="392.43" y2="342.6" gradientUnits="userSpaceOnUse"><stop offset="0" stop-color="#9b81cf"/><stop offset="1" stop-color="#3b139b"/></linearGradient><linearGradient id="linear-gradient-2" x1="16.1" y1="225.74" x2="427.68" y2="225.74" gradientUnits="userSpaceOnUse"><stop offset="0" stop-color="#4c1da9"/><stop offset="1" stop-color="#997ece"/></linearGradient><clipPath id="clip-path"><path class="cls-1" d="M74.7,361.5C2.1,279.9,9.9,154.1,92.1,80.5S299.9,13.4,372.6,95s64.8,207.3-17.4,281C276.8,446.3,147.4,443.1,74.7,361.5Z"/></clipPath></defs><g id="Layer_1" data-name="Layer 1"><path class="cls-2" d="M435.1,237a208.3,208.3,0,0,0-25.4-100A211.6,211.6,0,0,0,221.9,23C105,23,10.2,117.8,10.2,234.7S105,446.3,221.9,446.3c3,0,5.9,0,8.9-.2C344.1,443.6,435.1,350.9,435.1,237Z"/><circle class="cls-3" cx="221.9" cy="225.7" r="211.7"/><circle class="cls-4" cx="221.9" cy="225.7" r="202.8"/></g><g id="_009" data-name="009"><g class="cls-5"><path class="cls-6" d="M114.2,496l118.1,52s34.1,8,78.1-76.5l33.8-195.6L216.9,288.4l56.7,66.7C272.6,358.4,277.7,381,114.2,496Z"/><path class="cls-7" d="M309.6,470.7l33.8-194.2L218.2,289.1l56,65.5S296.9,381.6,309.6,470.7Z"/><line class="cls-8" x1="203.4" y1="442.8" x2="290.6" y2="481.2"/><line class="cls-8" x1="215.2" y1="433.5" x2="300.5" y2="469.6"/><line class="cls-8" x1="226.4" y1="422.9" x2="308.1" y2="457.4"/><line class="cls-8" x1="239.8" y1="413.9" x2="307.6" y2="442.5"/><line class="cls-8" x1="262.4" y1="395.3" x2="311.8" y2="416.1"/><line class="cls-8" x1="272.8" y1="384.6" x2="315.1" y2="400.8"/><line class="cls-8" x1="276.6" y1="373.4" x2="318.9" y2="389.6"/><line class="cls-8" x1="250.2" y1="404.7" x2="308.9" y2="429.5"/><path class="cls-9" d="M247.4,303.4s79.7-11.3,93.7-14.5"/><path class="cls-9" d="M255.5,312.2s70.1-9.5,84-12.7"/><path class="cls-9" d="M263.9,322.7s58.2-9.9,72.2-13"/><path class="cls-9" d="M276.5,335.7s16.2,18.5,20.6,42.6l30.8-12.6s6.6-44.5,6.7-41.9C334.6,324.6,276.5,335.7,276.5,335.7Z"/><path class="cls-9" d="M301.1,389.8s20.6-8.9,22.3-9.8"/><path class="cls-9" d="M305.4,400.3s15-6.6,16.7-7.5"/><path class="cls-10" d="M192.3,611.7a168.9,168.9,0,0,0,18.3-5.8c6-2.2,12-4.7,17.7-7.4a251,251,0,0,0,33.6-18.8,236,236,0,0,0,30.2-23.6,223.9,223.9,0,0,0,26.2-28c4.1-5,7.7-10.2,11.4-15.4s7.1-10.8,10.1-16.4,6-11.3,8.9-17c.7-1.4,1.3-3,1.9-4.4l1.9-4.4,1.9-4.4a10.9,10.9,0,0,0,.9-2.3l.9-2.2,3.3-9c.6-1.5,1-3.1,1.5-4.6l1.4-4.6,1.4-4.6.7-2.3.6-2.3,2.3-9.4c.4-1.5.8-3.1,1.1-4.6l.9-4.7,1.9-9.5c.3-1.6.5-3.1.8-4.7l.6-4.8,1.4-9.5-1.2,9.5-.7,4.8a39.7,39.7,0,0,1-.7,4.8l-1.7,9.4-.9,4.8c-.3,1.5-.7,3.1-1,4.6l-2.3,9.4-.6,2.3-.7,2.4-1.4,4.6-1.4,4.6c-.4,1.5-.9,3.1-1.4,4.6l-3.3,9-.8,2.3-.9,2.2-1.9,4.5-1.9,4.4c-.6,1.5-1.2,3-1.9,4.4-2.9,5.7-5.6,11.6-8.9,17.1s-6.6,11-10,16.5-7.3,10.5-11.4,15.5a241.9,241.9,0,0,1-26.4,28.1,249.7,249.7,0,0,1-30.5,23.5c-5.3,3.5-10.9,6.8-16.5,9.9l-8.5,4.6-4.3,2.1-4.4,2c-5.8,2.7-11.8,5.1-17.8,7.3A169,169,0,0,1,192.3,611.7Z"/></g></g></svg>