<svg id="SB39_Interactive_Icon_14_F1" xmlns="http://www.w3.org/2000/svg" xmlns:xlink="http://www.w3.org/1999/xlink" viewBox="0 0 443.8 451.5"><defs><style>.cls-1,.cls-8,.cls-9{fill:none;}.cls-2{opacity:0.5;}.cls-3{fill:url(#linear-gradient);}.cls-4{fill:#31d0e5;stroke-width:6px;stroke:url(#linear-gradient-2);}.cls-4,.cls-6,.cls-8,.cls-9{stroke-miterlimit:10;}.cls-5{clip-path:url(#clip-path);}.cls-6{fill:#fff;}.cls-6,.cls-9{stroke:#afafaf;}.cls-7{fill:#d8d8d8;}.cls-8{stroke:#d8d8d8;}.cls-10{fill:#afafaf;}</style><linearGradient id="linear-gradient" x1="43.17" y1="103.28" x2="392.43" y2="342.6" gradientUnits="userSpaceOnUse"><stop offset="0" stop-color="#9b81cf"/><stop offset="1" stop-color="#3b139b"/></linearGradient><linearGradient id="linear-gradient-2" x1="16.1" y1="225.74" x2="427.68" y2="225.74" gradientUnits="userSpaceOnUse"><stop offset="0" stop-color="#4c1da9"/><stop offset="1" stop-color="#997ece"/></linearGradient><clipPath id="clip-path"><ellipse class="cls-1" cx="223" cy="227.3" rx="201.3" ry="202.8" transform="translate(-6.3 448.2) rotate(-89.5)"/></clipPath></defs><g id="Layer_1" data-name="Layer 1"><path class="cls-2" d="M435.1,237a208.3,208.3,0,0,0-25.4-100A211.6,211.6,0,0,0,221.9,23C105,23,10.2,117.8,10.2,234.7S105,446.3,221.9,446.3c3,0,5.9,0,8.9-.2C344.1,443.6,435.1,350.9,435.1,237Z"/><circle class="cls-3" cx="221.9" cy="225.7" r="211.7"/><circle class="cls-4" cx="221.9" cy="225.7" r="202.8"/></g><g id="_005" data-name="005"><g class="cls-5"><path class="cls-6" d="M95.9,140.2,47.2,259.7s-7.1,34.3,78.6,76l196.4,28.4L306.3,237.2l-65.2,58.5C237.8,294.8,215.3,300.5,95.9,140.2Z"/><path class="cls-7" d="M126.5,334.9l195.1,28.4L305.5,238.5l-63.9,57.8S215.3,319.7,126.5,334.9Z"/><line class="cls-8" x1="101" y1="171.7" x2="62.2" y2="271.1"/><line class="cls-8" x1="112" y1="182.6" x2="72.2" y2="284.4"/><line class="cls-8" x1="121.3" y1="195.8" x2="82.9" y2="294.2"/><line class="cls-8" x1="140.5" y1="217.9" x2="105.2" y2="308.5"/><line class="cls-8" x1="151.5" y1="228" x2="115.5" y2="316.1"/><line class="cls-8" x1="130.8" y1="205.9" x2="93.2" y2="302.4"/><line class="cls-8" x1="161.1" y1="239.4" x2="127.4" y2="325.8"/><line class="cls-8" x1="172" y1="250.3" x2="139.8" y2="333"/><line class="cls-8" x1="181.4" y1="263.5" x2="154.6" y2="332.1"/><line class="cls-8" x1="200.6" y1="285.6" x2="181.1" y2="335.6"/><line class="cls-8" x1="211.6" y1="295.7" x2="196.6" y2="338.4"/><line class="cls-8" x1="222.9" y1="299.2" x2="207.8" y2="342"/><line class="cls-8" x1="190.9" y1="273.6" x2="167.7" y2="333"/><path class="cls-9" d="M292,268.1s13.6,79.4,17.1,93.2"/><path class="cls-9" d="M283.5,276.4s11.4,69.8,14.9,83.7"/><path class="cls-9" d="M273.3,285.1s11.4,58,14.9,71.9"/><path class="cls-9" d="M260.6,298.1s-18,16.7-42,21.7l13.3,30.4s44.8,5.5,42.2,5.6C273.3,355.9,260.6,298.1,260.6,298.1Z"/><path class="cls-9" d="M207.2,324.1s9.4,20.4,10.4,22.1"/><path class="cls-9" d="M196.8,328.7s7,14.8,8,16.5"/><path class="cls-10" d="M-17.6,221.4a162.9,162.9,0,0,0,6.3,18.2c2.4,5.9,5,11.8,7.9,17.5a249.3,249.3,0,0,0,19.6,33,257.5,257.5,0,0,0,24.4,29.6,239,239,0,0,0,28.8,25.4c5,4,10.4,7.4,15.7,11s10.9,6.8,16.7,9.6,11.4,5.7,17.2,8.5l4.5,1.8,4.4,1.8,4.5,1.8,2.2.8,2.3.7,9.1,3.1c1.5.6,3.1.9,4.6,1.4l4.7,1.3,4.6,1.2,2.3.7,2.4.5,9.4,2.1,4.6,1,4.8.8,9.5,1.6,4.7.6,4.8.5L212,397l-9.6-.9-4.8-.5c-1.6-.2-3.2-.3-4.8-.6l-9.5-1.5-4.7-.7-4.7-1-9.5-2-2.3-.5-2.3-.6-4.7-1.3-4.6-1.3-4.7-1.3-9.1-3-2.3-.8-2.3-.8-4.4-1.8-4.5-1.7-4.5-1.9c-5.8-2.7-11.7-5.2-17.3-8.3s-11.2-6.3-16.8-9.6-10.7-7-15.8-11A240.7,240.7,0,0,1,40,320.3a256.9,256.9,0,0,1-24.3-29.8c-3.7-5.3-7.1-10.7-10.4-16.2-1.7-2.8-3.2-5.6-4.8-8.4l-2.2-4.3c-.7-1.4-1.5-2.8-2.2-4.3-2.8-5.7-5.3-11.6-7.7-17.6A170.1,170.1,0,0,1-17.6,221.4Z"/><path class="cls-10" d="M99.4,93.3a128.2,128.2,0,0,0-11,9.8c-1.8,1.7-3.5,3.5-5.2,5.3s-3.3,3.5-4.9,5.4a193.4,193.4,0,0,0-17.8,23.5A167.7,167.7,0,0,0,37.3,191a151.8,151.8,0,0,0-3.9,29.2v7.3l.3,7.4c.1,1.2.1,2.4.2,3.6l.5,3.7.4,3.6c.1,1.3.2,2.5.4,3.7,1,4.8,1.6,9.7,3,14.4.6,2.4,1.1,4.8,1.8,7.1l2.2,7.1,1.1,3.5,1.4,3.4,2.6,6.9a12.2,12.2,0,0,1,.7,1.7l.8,1.7,1.5,3.3,3.1,6.7-3.2-6.6-1.6-3.3-.8-1.7c-.2-.6-.5-1.1-.7-1.7l-2.8-6.9-1.4-3.4-1.1-3.5-2.3-7c-.8-2.4-1.3-4.8-1.9-7.1-1.4-4.8-2.2-9.7-3.1-14.5a22,22,0,0,1-.5-3.7l-.5-3.6-.4-3.7a23,23,0,0,1-.2-3.7l-.4-7.4v-7.4a152.7,152.7,0,0,1,3.8-29.3,170.7,170.7,0,0,1,23.5-53.9,197.1,197.1,0,0,1,18.1-23.4c1.6-1.9,3.4-3.6,5.1-5.4s3.4-3.5,5.2-5.2C91.8,99.6,95.5,96.3,99.4,93.3Z"/></g></g></svg>