<svg id="SB39_Interactive_Icon_14_F1" xmlns="http://www.w3.org/2000/svg" xmlns:xlink="http://www.w3.org/1999/xlink" viewBox="0 0 443.8 451.5"><defs><style>.cls-1,.cls-8,.cls-9{fill:none;}.cls-2{opacity:0.5;}.cls-3{fill:url(#linear-gradient);}.cls-4{fill:#31d0e5;stroke-width:6px;stroke:url(#linear-gradient-2);}.cls-4,.cls-6,.cls-8,.cls-9{stroke-miterlimit:10;}.cls-5{clip-path:url(#clip-path);}.cls-6{fill:#fff;}.cls-6,.cls-9{stroke:#afafaf;}.cls-7{fill:#d8d8d8;}.cls-8{stroke:#d8d8d8;}.cls-10{fill:#afafaf;}</style><linearGradient id="linear-gradient" x1="43.17" y1="103.28" x2="392.43" y2="342.6" gradientUnits="userSpaceOnUse"><stop offset="0" stop-color="#9b81cf"/><stop offset="1" stop-color="#3b139b"/></linearGradient><linearGradient id="linear-gradient-2" x1="16.1" y1="225.74" x2="427.68" y2="225.74" gradientUnits="userSpaceOnUse"><stop offset="0" stop-color="#4c1da9"/><stop offset="1" stop-color="#997ece"/></linearGradient><clipPath id="clip-path"><ellipse class="cls-1" cx="223" cy="223.9" rx="202.8" ry="201.3" transform="translate(-71.8 109.9) rotate(-24)"/></clipPath></defs><g id="Layer_1" data-name="Layer 1"><path class="cls-2" d="M435.1,237a208.3,208.3,0,0,0-25.4-100A211.6,211.6,0,0,0,221.9,23C105,23,10.2,117.8,10.2,234.7S105,446.3,221.9,446.3c3,0,5.9,0,8.9-.2C344.1,443.6,435.1,350.9,435.1,237Z"/><circle class="cls-3" cx="221.9" cy="225.7" r="211.7"/><circle class="cls-4" cx="221.9" cy="225.7" r="202.8"/></g><g id="_008" data-name="008"><g class="cls-5"><path class="cls-6" d="M96.4,400.5l97.1,85S223.6,503.4,291,436l90.9-176.5L256.7,233.2l34.1,80.7C288.8,316.8,286.9,339.9,96.4,400.5Z"/><path class="cls-7" d="M290.5,435l90.4-175.1L257.7,234.4l33.8,79.2S305.1,346.2,290.5,435Z"/><line class="cls-8" x1="127.9" y1="405.9" x2="209.2" y2="475"/><line class="cls-8" x1="141.8" y1="399.1" x2="225" y2="469.9"/><line class="cls-8" x1="157.3" y1="394.6" x2="237.8" y2="463"/><line class="cls-8" x1="184.4" y1="383.6" x2="258.6" y2="446.6"/><line class="cls-8" x1="197.5" y1="376.5" x2="269.1" y2="439.3"/><line class="cls-8" x1="169.9" y1="388.9" x2="248.9" y2="456"/><line class="cls-8" x1="211.5" y1="371.2" x2="282.1" y2="431.2"/><line class="cls-8" x1="225.4" y1="364.4" x2="293" y2="421.9"/><line class="cls-8" x1="240.9" y1="359.9" x2="297" y2="407.6"/><line class="cls-8" x1="268" y1="348.9" x2="308.9" y2="383.6"/><line class="cls-8" x1="281.2" y1="341.8" x2="316.6" y2="370"/><line class="cls-8" x1="288.2" y1="332.3" x2="323.7" y2="360.5"/><line class="cls-8" x1="253.6" y1="354.2" x2="302.1" y2="395.4"/><path class="cls-9" d="M281.3,256.8s79.4,13.1,93.7,14.3"/><path class="cls-9" d="M286.4,267.6s69.7,11.9,84,13.1"/><path class="cls-9" d="M291.3,280.1s58.5,8,72.8,9.2"/><path class="cls-9" d="M299.4,296.3s9.9,22.5,6.8,46.8l33.1-2.7s19.8-40.5,19.1-38C358.2,303.1,299.4,296.3,299.4,296.3Z"/><path class="cls-9" d="M306.6,355.2s22.3-2.2,24.2-2.6"/><path class="cls-9" d="M307.5,366.6s16.3-1.8,18.2-2.2"/><path class="cls-10" d="M136.2,534.3a175.7,175.7,0,0,0,19.2,0c6.4-.4,12.8-.9,19.2-1.8a253.5,253.5,0,0,0,37.6-7.8,266.7,266.7,0,0,0,35.9-13.4,233.8,233.8,0,0,0,33.4-19c5.4-3.4,10.4-7.4,15.5-11.2s10-8.1,14.6-12.6,9.1-9,13.5-13.6a35.9,35.9,0,0,0,3.2-3.6l3.2-3.6,3.1-3.7,1.5-1.8,1.5-1.9,5.8-7.6a36,36,0,0,0,2.8-4l2.8-3.9,2.7-4,1.3-2,1.3-2,5-8.2,2.5-4.1,2.3-4.2,4.6-8.5c.8-1.4,1.4-2.8,2.1-4.3l2.1-4.3,4.2-8.7-4.1,8.7-2,4.4c-.7,1.4-1.3,2.9-2.1,4.3l-4.5,8.5-2.2,4.3-2.5,4.1-4.9,8.3-1.3,2-1.4,2-2.7,4-2.7,4c-.9,1.3-1.7,2.7-2.7,3.9l-5.9,7.7-1.5,1.9a12.5,12.5,0,0,1-1.5,1.9l-3.1,3.6-3.1,3.7c-1.1,1.2-2.1,2.5-3.2,3.6-4.5,4.6-8.8,9.4-13.6,13.7s-9.6,8.5-14.5,12.7-10.1,7.9-15.5,11.4A240.4,240.4,0,0,1,248.5,512a245.2,245.2,0,0,1-36.2,13.3c-6.1,1.8-12.4,3.3-18.7,4.6l-9.4,1.7-4.8.7-4.8.7c-6.3.8-12.7,1.2-19.2,1.5A153.8,153.8,0,0,1,136.2,534.3Z"/><path class="cls-10" d="M53.2,381.9a145.1,145.1,0,0,0,5.7,13.6l3.3,6.6,3.5,6.4A205.1,205.1,0,0,0,82.1,433a171.5,171.5,0,0,0,43.3,39.5,160.2,160.2,0,0,0,26.2,13.1l6.9,2.5,7.1,2.1c1.2.3,2.3.8,3.5,1l3.6.8,3.6.8a22.9,22.9,0,0,0,3.6.7,146.2,146.2,0,0,0,14.6,2c2.5.2,4.9.5,7.4.6l7.3.2h3.7l3.7-.2,7.4-.2h1.8l1.8-.2,3.7-.4,7.3-.7-7.3.8-3.6.5-1.9.2H224l-7.4.4-3.7.2H201.8c-2.4,0-4.9-.3-7.3-.5a143.9,143.9,0,0,1-14.7-1.8c-1.2-.1-2.4-.5-3.6-.7l-3.6-.8-3.7-.8c-1.2-.2-2.3-.6-3.5-.9l-7.1-2.1-7-2.5a155.9,155.9,0,0,1-26.5-13.2,171,171,0,0,1-43.3-39.8,201.9,201.9,0,0,1-16.2-24.7c-1.2-2.2-2.3-4.4-3.4-6.6s-2.2-4.4-3.2-6.6C56.7,391.1,54.8,386.5,53.2,381.9Z"/></g></g></svg>