<svg id="SB39_Interactive_Icon_14_F1" xmlns="http://www.w3.org/2000/svg" xmlns:xlink="http://www.w3.org/1999/xlink" viewBox="0 0 443.8 451.5"><defs><style>.cls-1,.cls-8,.cls-9{fill:none;}.cls-2{opacity:0.5;}.cls-3{fill:url(#linear-gradient);}.cls-4{fill:#31d0e5;stroke-width:6px;stroke:url(#linear-gradient-2);}.cls-4,.cls-6,.cls-8,.cls-9{stroke-miterlimit:10;}.cls-5{clip-path:url(#clip-path);}.cls-6{fill:#fff;}.cls-6,.cls-9{stroke:#afafaf;}.cls-7{fill:#d8d8d8;}.cls-8{stroke:#d8d8d8;}.cls-10{fill:#afafaf;}</style><linearGradient id="linear-gradient" x1="43.17" y1="103.28" x2="392.43" y2="342.6" gradientUnits="userSpaceOnUse"><stop offset="0" stop-color="#9b81cf"/><stop offset="1" stop-color="#3b139b"/></linearGradient><linearGradient id="linear-gradient-2" x1="16.1" y1="225.74" x2="427.68" y2="225.74" gradientUnits="userSpaceOnUse"><stop offset="0" stop-color="#4c1da9"/><stop offset="1" stop-color="#997ece"/></linearGradient><clipPath id="clip-path"><ellipse class="cls-1" cx="223" cy="223.9" rx="202.8" ry="201.3" transform="translate(-71.8 109.9) rotate(-24)"/></clipPath></defs><g id="Layer_1" data-name="Layer 1"><path class="cls-2" d="M435.1,237a208.3,208.3,0,0,0-25.4-100A211.6,211.6,0,0,0,221.9,23C105,23,10.2,117.8,10.2,234.7S105,446.3,221.9,446.3c3,0,5.9,0,8.9-.2C344.1,443.6,435.1,350.9,435.1,237Z"/><circle class="cls-3" cx="221.9" cy="225.7" r="211.7"/><circle class="cls-4" cx="221.9" cy="225.7" r="202.8"/></g><g id="_007" data-name="007"><g class="cls-5"><path class="cls-6" d="M84.4,295l57.1,115.7s21,28.1,109-8.4L402.1,274.1,296.5,201.9l.6,87.5C294.2,291.3,283.6,311.9,84.4,295Z"/><path class="cls-7" d="M250.4,401.2,401,274,297,203.3l.9,86.1S297.9,324.7,250.4,401.2Z"/><line class="cls-8" x1="111.4" y1="312.1" x2="160" y2="407"/><line class="cls-8" x1="126.8" y1="311.1" x2="176.7" y2="408.4"/><line class="cls-8" x1="142.9" y1="312.9" x2="191.1" y2="406.9"/><line class="cls-8" x1="172.1" y1="313.1" x2="216.5" y2="399.7"/><line class="cls-8" x1="187" y1="311.6" x2="229.1" y2="397"/><line class="cls-8" x1="156.7" y1="312.5" x2="204" y2="404.6"/><line class="cls-8" x1="201.9" y1="312" x2="244.2" y2="394.5"/><line class="cls-8" x1="217.3" y1="311" x2="257.8" y2="390"/><line class="cls-8" x1="233.4" y1="312.8" x2="267" y2="378.3"/><line class="cls-8" x1="262.7" y1="313" x2="287.2" y2="360.8"/><line class="cls-8" x1="277.5" y1="311.5" x2="299.5" y2="351.1"/><line class="cls-8" x1="287.7" y1="305.4" x2="309.7" y2="345"/><line class="cls-8" x1="247.3" y1="312.4" x2="276.4" y2="369.1"/><path class="cls-9" d="M310.2,233s68.4,42.5,81.1,49.1"/><path class="cls-9" d="M310.7,244.9s59.9,37.7,72.6,44.3"/><path class="cls-9" d="M310.5,258.3s51,29.9,63.7,36.5"/><path class="cls-9" d="M311.8,276.4s.5,24.6-11.6,45.9l31.6,10.1s33.7-29.8,32.1-27.8S311.8,276.4,311.8,276.4Z"/><path class="cls-9" d="M295.9,333.7s21.4,6.4,23.4,6.8"/><path class="cls-9" d="M292.4,344.5s15.7,4.6,17.6,4.9"/><path class="cls-10" d="M69.9,433.9a170.7,170.7,0,0,0,17.8,7.3c6,2.1,12.2,4.1,18.4,5.7a240.9,240.9,0,0,0,37.7,7.1,245.3,245.3,0,0,0,38.3,1.4,221.7,221.7,0,0,0,38.1-4.7c6.3-1.1,12.5-2.9,18.7-4.5s12.3-3.6,18.2-6,11.9-4.8,17.8-7.4l4.3-2.1,4.3-2.1,4.3-2.2,2.1-1.1,2.1-1.2,8.3-4.8,4.1-2.6,4-2.6,4-2.6,2-1.3,2-1.4,7.8-5.7c1.2-.9,2.6-1.8,3.8-2.8l3.8-3,7.4-6.1,3.7-3.1,3.6-3.3,7.1-6.4-7.1,6.5-3.5,3.3c-1.2,1.1-2.3,2.2-3.6,3.2l-7.4,6.1-3.7,3.1-3.9,2.9-7.7,5.7-1.9,1.4-2.1,1.4-4,2.6-4,2.7-4.1,2.5-8.3,4.9-2.1,1.2-2.1,1.1-4.3,2.2-4.3,2.2c-1.4.7-2.8,1.5-4.3,2.1-5.9,2.6-11.7,5.3-17.8,7.5s-12.1,4.2-18.3,6.1-12.4,3.4-18.7,4.6a245.9,245.9,0,0,1-38.2,4.6,260.5,260.5,0,0,1-38.5-1.6c-6.4-.7-12.7-1.7-19-2.9l-9.4-2-4.7-1.2-4.7-1.2c-6.2-1.7-12.3-3.8-18.3-6A161.9,161.9,0,0,1,69.9,433.9Z"/><path class="cls-10" d="M51.6,261.3a120.2,120.2,0,0,0,.1,14.7c.1,2.5.3,4.9.5,7.4s.4,4.9.8,7.3a202.3,202.3,0,0,0,5.7,28.9,170.5,170.5,0,0,0,24.9,53,156.1,156.1,0,0,0,19.2,22.2l5.4,5,5.8,4.6a31.1,31.1,0,0,0,2.8,2.3l3.1,2.1,3,2.1a32.1,32.1,0,0,0,3,2.1,146,146,0,0,0,12.8,7.3c2.1,1.1,4.3,2.4,6.5,3.4l6.7,3,3.4,1.5,3.5,1.3,6.9,2.5,1.7.7,1.8.5,3.5,1.1,7.1,2.1-7.1-2-3.6-1-1.8-.5-1.7-.6-7-2.5-3.4-1.2-3.4-1.5-6.8-2.9c-2.3-1-4.4-2.2-6.6-3.3-4.5-2.1-8.6-4.8-12.9-7.3a32.8,32.8,0,0,1-3.1-2l-3-2.1-3.1-2.1-2.9-2.3-5.8-4.6-5.4-5a158.3,158.3,0,0,1-19.4-22.3A168.9,168.9,0,0,1,58,319.8a190.1,190.1,0,0,1-5.5-29c-.3-2.5-.5-4.9-.7-7.4s-.3-4.9-.4-7.4A144.2,144.2,0,0,1,51.6,261.3Z"/></g></g></svg>