<svg id="SB39_Interactive_Icon_14_F1" xmlns="http://www.w3.org/2000/svg" xmlns:xlink="http://www.w3.org/1999/xlink" viewBox="0 0 443.8 451.5"><defs><style>.cls-1,.cls-8,.cls-9{fill:none;}.cls-2{opacity:0.5;}.cls-3{fill:url(#linear-gradient);}.cls-4{fill:#31d0e5;stroke-width:6px;stroke:url(#linear-gradient-2);}.cls-4,.cls-6,.cls-8,.cls-9{stroke-miterlimit:10;}.cls-5{clip-path:url(#clip-path);}.cls-6{fill:#fff;}.cls-6,.cls-9{stroke:#afafaf;}.cls-7{fill:#d8d8d8;}.cls-8{stroke:#d8d8d8;}.cls-10{fill:#afafaf;}</style><linearGradient id="linear-gradient" x1="43.17" y1="103.28" x2="392.43" y2="342.6" gradientUnits="userSpaceOnUse"><stop offset="0" stop-color="#9b81cf"/><stop offset="1" stop-color="#3b139b"/></linearGradient><linearGradient id="linear-gradient-2" x1="16.1" y1="225.74" x2="427.68" y2="225.74" gradientUnits="userSpaceOnUse"><stop offset="0" stop-color="#4c1da9"/><stop offset="1" stop-color="#997ece"/></linearGradient><clipPath id="clip-path"><circle class="cls-1" cx="221.9" cy="225.7" r="202.8"/></clipPath></defs><g id="Layer_1" data-name="Layer 1"><path class="cls-2" d="M435.1,237a208.3,208.3,0,0,0-25.4-100A211.6,211.6,0,0,0,221.9,23C105,23,10.2,117.8,10.2,234.7S105,446.3,221.9,446.3c3,0,5.9,0,8.9-.2C344.1,443.6,435.1,350.9,435.1,237Z"/><circle class="cls-3" cx="221.9" cy="225.7" r="211.7"/><circle class="cls-4" cx="221.9" cy="225.7" r="202.8"/></g><g id="_001" data-name="001"><g class="cls-5"><path class="cls-6" d="M84.6,233.9l89.9,92.6s28.6,20.3,101.2-41.4L380.6,116.6,258,80.2l27.4,83.2C283.2,166.1,279.5,189,84.6,233.9Z"/><path class="cls-7" d="M275.2,284.1,379.6,116.9,258.9,81.5l27.2,81.6S297,196.7,275.2,284.1Z"/><line class="cls-8" x1="115.6" y1="241.9" x2="191" y2="317.3"/><line class="cls-8" x1="130" y1="236.3" x2="207.2" y2="313.5"/><line class="cls-8" x1="145.8" y1="233" x2="220.5" y2="307.7"/><line class="cls-8" x1="173.7" y1="224.2" x2="242.5" y2="293"/><line class="cls-8" x1="187.4" y1="218.2" x2="253.6" y2="286.6"/><line class="cls-8" x1="158.9" y1="228.4" x2="232.1" y2="301.6"/><line class="cls-8" x1="201.7" y1="214.1" x2="267.3" y2="279.6"/><line class="cls-8" x1="216.1" y1="208.4" x2="278.9" y2="271.2"/><line class="cls-8" x1="232" y1="205.2" x2="284" y2="257.2"/><line class="cls-8" x1="259.9" y1="196.4" x2="297.8" y2="234.4"/><line class="cls-8" x1="273.5" y1="190.4" x2="306.6" y2="221.4"/><line class="cls-8" x1="281.3" y1="181.5" x2="314.4" y2="212.5"/><line class="cls-8" x1="245" y1="200.5" x2="290.1" y2="245.6"/><path class="cls-9" d="M280.6,105.7s78.1,19.5,92.2,21.8"/><path class="cls-9" d="M284.8,116.8s68.5,17.6,82.6,20"/><path class="cls-9" d="M288.6,129.7s57.7,12.8,71.8,15.2"/><path class="cls-9" d="M295.4,146.5s8.1,23.2,3,47.2h33.3s22.9-38.8,22-36.3C353.4,158.1,295.4,146.5,295.4,146.5Z"/><path class="cls-9" d="M297.8,205.9s22.4-.4,24.4-.7"/><path class="cls-9" d="M297.8,217.2s16.4-.4,18.3-.6"/><path class="cls-10" d="M113.5,370.5a152.2,152.2,0,0,0,19.1,1.6c6.4.1,12.8.1,19.2-.3a243.4,243.4,0,0,0,38.1-4.7,236.6,236.6,0,0,0,37-10.5,228.2,228.2,0,0,0,34.8-16.1c5.6-3,11-6.6,16.4-10s10.5-7.3,15.5-11.3,9.8-8.3,14.6-12.5c1.2-1,2.3-2.2,3.5-3.3l3.4-3.4,3.4-3.3,1.7-1.8,1.6-1.8,6.5-7.1c1.1-1.1,2-2.4,3.1-3.6l3-3.8,3-3.7,1.5-1.9,1.5-1.9,5.6-7.8c1-1.3,1.9-2.5,2.8-3.9l2.7-4,5.2-8,2.5-4.1,2.5-4.2,4.8-8.3-4.7,8.4-2.4,4.2c-.8,1.3-1.6,2.8-2.5,4.1l-5.1,8.1-2.6,4.1-2.8,3.9-5.6,7.8-1.4,2-1.5,1.9-3.1,3.7-3,3.7a37.9,37.9,0,0,1-3.1,3.7l-6.4,7.2-1.6,1.8c-.6.6-1.1,1.2-1.7,1.7l-3.4,3.4-3.4,3.4-3.5,3.4c-4.8,4.2-9.5,8.6-14.6,12.5s-10.3,7.7-15.5,11.5-10.8,7-16.4,10.1a243.9,243.9,0,0,1-72.1,26.3c-6.3,1.3-12.7,2.3-19,3.1l-9.6.9-4.8.4-4.8.2c-6.5.3-12.9.2-19.3,0A173.8,173.8,0,0,1,113.5,370.5Z"/><path class="cls-10" d="M43.1,211.9c1.3,4.7,2.9,9.4,4.6,14,.8,2.3,1.8,4.6,2.7,6.8l3,6.8a196.2,196.2,0,0,0,14.4,25.7A169.4,169.4,0,0,0,107.7,308a153,153,0,0,0,25.1,15.3l6.7,3,6.8,2.7,3.5,1.3,3.5,1,3.5,1.1,3.5,1.1c4.8,1.1,9.6,2.4,14.4,3.1l7.3,1.2,7.3.7,3.7.4,3.7.2,7.3.3h14.8l-7.4.2H204l-7.4-.2H193l-3.7-.4-7.4-.7-7.3-1.1c-4.9-.6-9.6-1.9-14.5-3-1.2-.2-2.3-.7-3.5-1l-3.6-1.1-3.5-1-3.5-1.3-6.9-2.6-6.7-3.1a148.1,148.1,0,0,1-25.3-15.3,169.5,169.5,0,0,1-40-43.2A216.4,216.4,0,0,1,53,239.7c-1.1-2.3-1.9-4.6-2.9-6.8s-1.8-4.6-2.6-6.9A143.5,143.5,0,0,1,43.1,211.9Z"/></g></g></svg>