<svg id="SB39_Interactive_Icon_14_F1" xmlns="http://www.w3.org/2000/svg" xmlns:xlink="http://www.w3.org/1999/xlink" viewBox="0 0 443.8 451.5"><defs><style>.cls-1,.cls-8,.cls-9{fill:none;}.cls-2{opacity:0.5;}.cls-3{fill:url(#linear-gradient);}.cls-4{fill:#31d0e5;stroke-width:6px;stroke:url(#linear-gradient-2);}.cls-4,.cls-6,.cls-8,.cls-9{stroke-miterlimit:10;}.cls-5{clip-path:url(#clip-path);}.cls-6{fill:#fff;}.cls-6,.cls-9{stroke:#afafaf;}.cls-7{fill:#d8d8d8;}.cls-8{stroke:#d8d8d8;}.cls-10{fill:#afafaf;}</style><linearGradient id="linear-gradient" x1="43.17" y1="103.28" x2="392.43" y2="342.6" gradientUnits="userSpaceOnUse"><stop offset="0" stop-color="#9b81cf"/><stop offset="1" stop-color="#3b139b"/></linearGradient><linearGradient id="linear-gradient-2" x1="16.1" y1="225.74" x2="427.68" y2="225.74" gradientUnits="userSpaceOnUse"><stop offset="0" stop-color="#4c1da9"/><stop offset="1" stop-color="#997ece"/></linearGradient><clipPath id="clip-path"><path class="cls-1" d="M70.6,360.8C-4,277.2,3.3,151,86.9,76.5S298.6,9.2,373.2,92.7,440.5,302.5,356.9,377,145.2,444.3,70.6,360.8Z"/></clipPath></defs><g id="Layer_1" data-name="Layer 1"><path class="cls-2" d="M435.1,237a208.3,208.3,0,0,0-25.4-100A211.6,211.6,0,0,0,221.9,23C105,23,10.2,117.8,10.2,234.7S105,446.3,221.9,446.3c3,0,5.9,0,8.9-.2C344.1,443.6,435.1,350.9,435.1,237Z"/><circle class="cls-3" cx="221.9" cy="225.7" r="211.7"/><circle class="cls-4" cx="221.9" cy="225.7" r="202.8"/></g><g id="_015" data-name="015"><g class="cls-5"><path class="cls-6" d="M79.6,33.5l52.8,117.7s19.9,28.8,109.2-4.4L397.8,24.4,295-51.7l-2.6,87.5C289.4,37.6,278,57.8,79.6,33.5Z"/><path class="cls-7" d="M241.6,145.8,396.8,24.3,295.5-50.3l-2.3,86.1S291.9,71.1,241.6,145.8Z"/><line class="cls-8" x1="106" y1="51.5" x2="151.1" y2="148.2"/><line class="cls-8" x1="121.4" y1="51.1" x2="167.6" y2="150.2"/><line class="cls-8" x1="137.4" y1="53.5" x2="182" y2="149.2"/><line class="cls-8" x1="166.6" y1="54.8" x2="207.8" y2="143"/><line class="cls-8" x1="181.5" y1="53.8" x2="220.4" y2="140.7"/><line class="cls-8" x1="151.3" y1="53.6" x2="195.1" y2="147.5"/><line class="cls-8" x1="196.4" y1="54.8" x2="235.6" y2="138.8"/><line class="cls-8" x1="211.9" y1="54.4" x2="249.4" y2="134.9"/><line class="cls-8" x1="227.9" y1="56.8" x2="259" y2="123.5"/><line class="cls-8" x1="257.1" y1="58.1" x2="279.8" y2="106.7"/><line class="cls-8" x1="272" y1="57.1" x2="292.5" y2="97.5"/><line class="cls-8" x1="282.4" y1="51.4" x2="302.9" y2="91.8"/><line class="cls-8" x1="241.8" y1="56.9" x2="268.7" y2="114.6"/><path class="cls-9" d="M307.5-20.1s66.8,45,79.3,52.1"/><path class="cls-9" d="M307.7-8.2s58.4,40,70.8,47"/><path class="cls-9" d="M306.9,5.2S356.8,37,369.2,44"/><path class="cls-9" d="M307.6,23.4s-.4,24.5-13.3,45.3l31.2,11.4s34.8-28.6,33.1-26.6S307.6,23.4,307.6,23.4Z"/><path class="cls-9" d="M289.5,80s21.2,7.2,23.1,7.6"/><path class="cls-9" d="M285.7,90.6s15.5,5.2,17.4,5.7"/><path class="cls-10" d="M60,171.7a173.5,173.5,0,0,0,17.5,8c5.9,2.3,12,4.5,18.1,6.3a241.2,241.2,0,0,0,37.4,8.6,258.8,258.8,0,0,0,38.3,2.8,234.9,234.9,0,0,0,38.3-3.3c6.3-.9,12.5-2.4,18.8-3.8s12.4-3.2,18.4-5.3,12-4.4,18-6.7l4.4-2,4.4-2,4.4-2,2.1-1,2.1-1.1,8.5-4.5c1.5-.7,2.8-1.6,4.2-2.4l4.1-2.5,4.2-2.4,2-1.3,2-1.3,8-5.4c1.3-.9,2.7-1.7,4-2.7l3.8-2.8,7.7-5.8c1.3-.9,2.5-2,3.8-3l3.7-3.1,7.3-6.2-7.3,6.3-3.6,3.1-3.7,3.1-7.7,5.8-3.8,3-3.9,2.7-8,5.5-2,1.3-2.1,1.2-4.1,2.5-4.1,2.5c-1.4.8-2.7,1.7-4.2,2.4l-8.5,4.6-2.1,1.1-2.1,1.1-4.4,2-4.4,2-4.4,2c-6,2.3-11.9,4.8-18,6.7s-12.3,3.8-18.5,5.5-12.5,3-18.9,3.9a234.9,234.9,0,0,1-38.4,3.1,247.4,247.4,0,0,1-38.4-3c-6.3-.9-12.6-2.2-18.9-3.6-3.1-.7-6.2-1.6-9.3-2.4l-4.6-1.3-4.6-1.4c-6.2-1.9-12.2-4.2-18.1-6.6A184,184,0,0,1,60,171.7Z"/><path class="cls-10" d="M48.1-1.5c-.4,4.9-.5,9.9-.5,14.8,0,2.4.2,4.9.2,7.3s.3,4.9.6,7.4a188.5,188.5,0,0,0,4.7,29,171.6,171.6,0,0,0,22.8,54,161.9,161.9,0,0,0,18.4,22.9l5.2,5.1,5.6,4.9a31.1,31.1,0,0,0,2.8,2.3l2.9,2.3,3,2.2,2.9,2.2c4.1,2.6,8.1,5.5,12.5,7.8,2.1,1.2,4.2,2.5,6.4,3.6l6.6,3.2,3.3,1.7,3.4,1.4,6.8,2.8,1.7.7,1.8.6,3.5,1.2,7,2.4-7.1-2.3-3.5-1.1-1.7-.6-1.7-.7-6.9-2.7-3.4-1.3L142,168l-6.7-3.2c-2.2-1.1-4.3-2.4-6.4-3.5-4.4-2.3-8.5-5.2-12.6-7.8a21,21,0,0,1-3-2.2l-3-2.2-2.9-2.2c-1-.7-1.9-1.6-2.9-2.4l-5.6-4.8-5.2-5.2a152.2,152.2,0,0,1-18.6-23A170.9,170.9,0,0,1,52.3,57.2,205.8,205.8,0,0,1,47.9,28c-.2-2.4-.3-4.9-.4-7.4s-.2-4.9-.1-7.3A145.2,145.2,0,0,1,48.1-1.5Z"/></g></g></svg>